<?xml version="1.0" standalone="no"?>
<!DOCTYPE svg PUBLIC "-//W3C//DTD SVG 20010904//EN"
 "http://www.w3.org/TR/2001/REC-SVG-20010904/DTD/svg10.dtd">
<svg version="1.0" xmlns="http://www.w3.org/2000/svg"
 width="98.000000pt" height="64.000000pt" viewBox="0 0 98.000000 64.000000"
 preserveAspectRatio="xMidYMid meet">
<metadata>
Created by potrace 1.16, written by Peter Selinger 2001-2019
</metadata>
<g transform="translate(0.000000,64.000000) scale(0.100000,-0.100000)"
fill="#000000" stroke="none">
<path d="M415 596 l-40 -41 -73 -65 -74 -64 12 -4 11 -4 18 16 18 16 8 0 8 0
-18 -20 -18 -20 12 -14 13 -15 -8 -13 -7 -13 14 13 13 12 19 0 18 0 -6 -10 -6
-10 -9 5 -8 5 -12 -15 -12 -15 15 0 16 0 28 25 28 25 30 26 30 26 -30 -19 -30
-20 -15 -8 -15 -8 25 28 25 28 -18 -6 -18 -7 6 10 6 10 -10 0 -10 0 -14 -20
-15 -21 -4 13 -5 13 4 12 4 12 16 -6 16 -6 -7 11 -7 12 -17 0 -17 0 30 24 30
24 12 -10 12 -10 13 5 13 6 -22 6 -23 7 0 10 0 9 23 -3 22 -3 12 25 11 25 1
-22 1 -22 -10 -6 -10 -6 6 -23 5 -23 -40 3 -41 3 0 -15 0 -14 9 0 10 0 6 10 6
10 10 0 9 0 0 -11 0 -10 -9 6 -10 5 -5 -9 -6 -9 14 -5 14 -6 21 6 21 5 -6 9
-5 9 15 -6 16 -6 0 20 0 21 10 6 10 6 -7 -17 -7 -18 33 23 32 23 31 -4 31 -5
-27 19 -26 20 6 9 6 10 -29 25 -28 24 -7 0 -8 0 0 -16 0 -15 9 6 10 5 6 -10 6
-10 -15 0 -16 0 0 -10 0 -11 20 11 20 11 9 -6 9 -5 -5 -20 -5 -20 -10 0 -9 0
7 12 7 11 -19 -7 -19 -7 -10 -2 -10 -2 -12 -20 -12 -20 -1 17 0 17 15 15 15
15 -10 6 -10 6 1 22 1 22 8 -25 8 -25 1 28 1 27 1 7 1 8 -9 1 -8 2 -40 -42z
m-111 -192 l6 -15 -10 6 -10 6 0 10 0 9 4 0 4 0 6 -16z"/>
<path d="M48 562 l-28 -17 0 -12 0 -13 5 0 5 0 21 21 20 20 12 -4 12 -4 12
-34 12 -34 2 10 1 10 -2 24 -2 24 -13 14 -14 13 -8 0 -8 -1 -27 -17z"/>
<path d="M572 554 l18 -18 4 5 5 5 -22 13 -22 13 17 -18z"/>
<path d="M873 543 l7 -6 -9 -11 -8 -11 -7 -47 -7 -47 20 -10 20 -11 5 0 5 0
-5 39 -5 39 9 6 8 5 12 -20 12 -19 -12 -1 -13 0 20 -9 20 -9 8 0 7 -1 0 13 0
13 -18 20 -19 20 -17 27 -18 27 -11 0 -10 0 6 -7z m8 -60 l-10 -18 -1 7 0 6 6
17 6 16 5 -5 5 -4 -11 -19z"/>
<path d="M616 527 l6 -18 6 6 6 5 -13 13 -12 12 7 -18z"/>
<path d="M680 480 l0 -10 11 0 10 0 -6 10 -6 10 -5 0 -4 0 0 -10z"/>
<path d="M640 467 l0 -6 45 -31 45 -31 0 9 0 9 -22 11 -23 12 -22 16 -23 16 0
-5z"/>
<path d="M740 441 l35 -30 8 -1 8 0 15 -15 15 -15 10 0 10 0 -13 13 -13 12
-27 18 -28 17 -27 16 -28 16 35 -31z"/>
<path d="M142 386 l-19 -25 -5 5 -5 5 -6 -37 -6 -36 -17 -19 -17 -19 15 0 16
0 13 46 14 46 24 24 24 24 -5 6 -6 5 -20 -25z"/>
<path d="M853 394 l6 -7 -47 -30 -47 -29 -9 -15 -8 -15 -19 -16 -19 -16 0 -8
0 -7 -37 -38 -38 -39 -46 -49 -45 -50 -7 -17 -6 -18 5 0 6 0 34 16 34 16 0 14
0 14 15 0 16 0 -2 13 -1 12 1 13 1 12 25 0 25 0 0 14 0 14 15 6 15 5 0 22 0
21 15 -6 15 -5 0 14 0 15 13 0 13 0 33 34 34 35 -6 15 -6 14 25 16 24 16 0 10
0 10 -17 0 -16 0 6 -6z"/>
<path d="M930 360 l0 -30 9 0 10 0 -1 30 -1 30 -9 0 -8 0 0 -30z"/>
<path d="M537 342 l-17 -19 0 -8 0 -9 21 23 21 22 21 -6 22 -6 -15 10 -15 11
-11 0 -11 0 -16 -18z"/>
<path d="M10 300 l0 -20 10 0 10 0 0 20 0 20 -10 0 -10 0 0 -20z"/>
<path d="M330 289 l12 -21 4 5 4 4 -6 17 -6 16 -9 0 -10 0 11 -21z"/>
<path d="M842 270 l-12 -20 20 0 20 0 0 8 0 7 -8 12 -8 12 -12 -19z"/>
<path d="M540 272 l0 -12 9 0 10 0 4 -17 5 -18 1 18 1 18 10 -6 10 -6 0 11 0
12 -14 -5 -14 -5 -11 11 -11 11 0 -12z"/>
<path d="M830 231 l0 -9 6 -17 7 -17 8 14 9 13 0 -14 0 -14 -17 -19 -16 -18 7
-8 8 -7 13 18 13 18 4 -12 4 -13 7 18 7 17 -9 -6 -10 -5 -3 22 -3 23 -14 -3
-13 -3 5 16 6 15 -9 0 -10 0 0 -9z"/>
<path d="M907 225 l-15 -14 -6 6 -6 6 0 -16 0 -17 13 0 14 0 23 25 23 25 -16
0 -16 0 -14 -15z"/>
<path d="M474 115 l15 -15 7 0 6 0 -12 15 -12 15 -10 0 -9 0 15 -15z"/>
<path d="M190 84 l0 -6 31 -39 31 -39 21 0 22 0 -49 45 -49 45 -4 0 -3 0 0 -6z"/>
<path d="M142 29 l-24 -29 9 0 8 1 18 25 19 25 -4 3 -3 3 -23 -28z"/>
<path d="M545 20 l-6 -10 15 6 16 6 0 4 0 4 -9 0 -10 0 -6 -10z"/>
</g>
</svg>
