<?xml version="1.0" standalone="no"?>
<!DOCTYPE svg PUBLIC "-//W3C//DTD SVG 20010904//EN"
 "http://www.w3.org/TR/2001/REC-SVG-20010904/DTD/svg10.dtd">
<svg version="1.0" xmlns="http://www.w3.org/2000/svg"
 width="549.000000pt" height="620.000000pt" viewBox="0 0 549.000000 620.000000"
 preserveAspectRatio="xMidYMid meet">
<metadata>
Created by potrace 1.16, written by Peter Selinger 2001-2019
</metadata>
<g transform="translate(0.000000,620.000000) scale(0.100000,-0.100000)"
fill="#000000" stroke="none">
<path d="M10 4504 l0 -1695 29 -25 29 -24 31 -55 31 -55 25 0 25 0 0 -15 0
-15 -11 0 -11 0 13 -16 13 -16 24 -9 23 -9 -3 -18 -3 -17 -27 -3 -27 -3 -11
-15 -12 -14 -14 0 -14 0 -6 -25 -6 -25 23 -20 24 -19 22 -1 22 0 -5 -15 -6
-15 11 0 11 0 0 10 0 10 10 0 10 0 0 -15 0 -15 21 -21 21 -22 22 1 21 1 20 4
20 4 8 -4 9 -5 -22 -20 -21 -20 -22 6 -22 5 -11 -7 -11 -7 1 -40 2 -40 21 -10
22 -9 12 -22 11 -22 -7 -12 -7 -12 -31 5 -30 4 -31 -29 -30 -29 23 -44 23 -44
-5 -28 -5 -28 -25 -90 -25 -90 5 -27 5 -27 -19 5 -19 5 -19 -21 -19 -21 11
-41 11 -42 -8 -22 -9 -22 -18 -6 -18 -6 -31 -29 -31 -28 -6 -89 -6 -90 6 -37
6 -37 19 0 18 0 10 -24 9 -25 25 -16 25 -16 37 6 38 6 53 25 53 25 0 9 0 10
21 0 20 0 -5 -8 -5 -8 35 -13 34 -12 0 -17 0 -16 -12 12 -12 12 -32 0 -32 0
-11 -31 -11 -31 6 -10 6 -9 13 5 13 4 18 -12 19 -13 30 2 30 2 1 29 0 29 28
-2 28 -2 17 -14 16 -14 30 -8 30 -8 12 2 12 2 57 -31 57 -30 23 0 23 0 6 -10
6 -10 24 0 24 0 15 -22 16 -22 -10 -10 -9 -9 -29 12 -29 12 -32 1 -33 1 -24
-26 -25 -27 -10 0 -10 0 -6 31 -6 30 -25 17 -24 17 -22 21 -21 21 -22 -8 -23
-8 0 -11 0 -10 -39 0 -39 0 -4 12 -4 11 -48 -14 -48 -14 -9 -18 -10 -18 20
-28 21 -28 55 -27 56 -26 5 0 6 0 19 -23 18 -22 1 -57 0 -56 -11 -4 -12 -4 7
-21 7 -21 24 -6 25 -6 0 -20 0 -20 -12 0 -13 0 15 -11 15 -11 -25 6 -25 6 -12
0 -12 0 -16 29 -15 30 -22 3 -23 3 -25 -12 -25 -13 -14 18 -13 17 4 -21 5 -21
-23 5 -24 4 0 -21 0 -21 -9 0 -10 0 -4 18 -4 17 -10 -25 -10 -25 13 -30 13
-30 28 3 28 2 28 0 28 0 28 19 28 20 19 -19 19 -19 22 5 22 6 6 19 6 19 30 0
29 0 0 10 0 10 -9 0 -9 0 5 18 4 18 -15 13 -16 13 0 16 0 15 18 -15 17 -14 26
-11 27 -12 22 16 22 15 27 -20 28 -20 24 -3 24 -3 24 8 23 8 11 -11 11 -11
-11 0 -12 0 2 -20 1 -20 12 4 11 4 12 -7 11 -7 -25 -14 -25 -13 0 -8 0 -8 16
-15 15 -16 13 0 14 0 13 -16 13 -16 23 -9 23 -8 16 6 16 6 -6 36 -5 36 22 21
22 20 11 7 12 7 31 -11 31 -11 0 -24 0 -24 -9 0 -10 0 -6 10 -6 10 -9 0 -8 0
15 -30 15 -31 -12 -14 -12 -15 -24 0 -24 0 0 -16 0 -16 43 6 42 7 77 4 77 3
12 8 12 7 -6 -10 -7 -11 13 -10 12 -10 35 -7 35 -6 22 20 22 21 10 0 9 0 20
-34 20 -34 24 -1 23 0 75 -10 75 -11 48 16 49 16 9 -9 10 -10 -6 -14 -5 -14
-39 -17 -39 -17 -16 -49 -17 -49 -30 -29 -30 -29 -25 3 -24 3 0 -14 0 -14 -17
2 -18 1 -22 12 -23 13 0 10 0 10 36 15 36 15 -21 23 -21 22 -6 32 -6 32 -69
-1 -68 -1 -23 -25 -23 -25 -18 -10 -19 -10 -38 31 -39 31 -15 -22 -16 -22 0
-18 0 -18 23 -1 22 -1 8 1 8 1 19 -22 19 -23 1 -17 0 -17 -18 -10 -18 -9 -24
19 -25 19 -13 0 -13 0 6 20 6 20 -9 0 -10 0 -5 -12 -5 -13 -1 18 -1 17 10 0
10 0 0 20 0 20 -15 0 -16 0 -41 21 -42 21 -18 -11 -18 -11 -34 0 -33 0 -27
-26 -26 -27 0 -8 0 -7 42 -36 42 -36 13 0 13 0 0 -10 0 -10 28 0 29 0 16 -17
17 -18 21 -27 20 -28 82 1 82 2 -27 4 -28 4 0 25 0 25 14 15 15 14 11 0 11 0
5 29 6 29 28 12 28 12 18 -4 18 -3 6 -25 6 -25 29 -15 30 -15 5 -6 5 -6 21
-11 22 -11 5 -21 5 -21 -33 3 -34 2 -7 -7 -7 -7 382 0 382 0 -6 10 -6 10 15 0
15 0 12 23 12 22 11 7 11 8 18 0 17 0 0 -19 0 -19 15 -6 15 -5 0 -16 0 -16
123 3 122 3 5 40 5 40 8 -12 8 -13 15 0 14 0 0 13 0 12 10 15 9 14 20 -18 20
-18 18 4 18 3 0 57 0 56 6 6 6 6 27 -25 28 -26 -7 -32 -6 -32 -6 -38 -5 -39
11 -11 11 -11 11 11 11 11 3 53 4 54 6 138 6 137 -10 0 -10 0 -6 -37 -7 -38
-5 -18 -5 -18 -11 4 -11 3 -2 62 -1 62 -12 14 -13 15 2 23 2 23 -1 13 -1 12
-21 0 -20 0 -16 15 -15 15 -9 -6 -9 -5 11 -20 11 -21 -6 -14 -6 -15 -27 3 -26
3 -4 12 -5 13 27 24 27 25 -7 10 -6 11 11 20 11 20 9 0 10 0 0 -15 0 -15 14 0
15 0 3 21 3 22 15 8 15 8 48 21 47 22 0 19 0 19 -9 0 -9 0 1 33 2 32 5 -2 5
-1 28 -7 27 -7 1 -42 2 -41 -1 -20 0 -20 -3 -52 -3 -52 7 -7 6 -7 25 16 24 16
16 48 16 48 -10 3 -10 4 0 21 0 22 6 23 6 22 12 0 13 0 10 -22 11 -23 12 -56
12 -55 -3 -20 -4 -19 -32 -15 -33 -15 0 -10 0 -11 30 -11 30 -11 6 -16 6 -16
-14 -45 -15 -44 10 -10 11 -11 -22 -23 -22 -24 25 -11 25 -12 0 -14 0 -15 -20
-51 -20 -51 0 -64 0 -65 149 0 149 0 6 28 6 27 6 117 7 117 -17 27 -18 26 -11
-11 -11 -11 2 -138 2 -138 -13 -18 -13 -18 -16 24 -15 23 -8 43 -7 42 -12 13
-13 13 14 12 13 13 0 137 0 137 -6 23 -6 22 -13 0 -12 0 -18 39 -17 39 6 11 7
11 15 0 15 0 24 16 25 16 0 24 0 24 -18 0 -18 0 -12 -12 -12 -12 -11 11 -11
11 7 18 6 19 36 29 35 29 8 -12 7 -13 16 23 16 23 21 -24 20 -23 0 9 1 9 20
24 20 25 42 -3 42 -2 7 -14 8 -13 19 5 18 5 7 -33 6 -32 18 -13 17 -13 8 -1 7
0 0 36 0 35 11 20 10 20 15 -12 14 -11 0 -70 0 -69 -14 -34 -15 -35 -10 0 -11
0 0 42 0 42 -16 -23 -16 -23 -10 10 -10 10 -23 47 -23 48 -11 -21 -11 -21 0
-15 0 -15 25 -77 25 -76 1 -72 1 -71 10 -38 9 -38 -20 -35 -21 -35 0 -19 0
-19 22 -15 22 -16 8 0 8 0 0 51 0 51 13 -4 12 -5 6 -29 7 -29 1 -37 1 -38 8 0
7 0 18 68 18 67 17 54 17 54 11 12 11 11 7 22 7 22 10 -5 9 -6 -9 -18 -10 -17
8 -13 8 -13 34 30 34 29 40 7 40 7 33 10 32 11 0 9 0 9 8 0 8 0 0 -72 -1 -73
-57 -9 -56 -8 -4 -49 -3 -49 7 0 8 0 49 35 48 35 15 0 14 0 27 161 28 162 -6
5 -6 6 -25 -28 -26 -27 -11 4 -11 3 -7 27 -7 27 5 20 5 20 19 0 19 0 0 19 0
19 16 13 16 13 22 13 21 13 18 6 17 6 0 14 0 13 35 17 35 16 0 14 0 13 -9 6
-9 5 -22 -30 -21 -30 -20 0 -19 0 0 10 0 11 13 27 14 27 18 65 17 65 22 22 21
22 18 19 17 19 0 16 0 17 -15 0 -16 0 2 48 2 48 -7 12 -7 12 -8 0 -8 0 -12
-40 -12 -40 -20 0 -20 0 1 -43 1 -42 -12 -50 -12 -49 12 -4 12 -4 -18 -13 -17
-13 12 -15 12 -14 -6 -17 -6 -16 -10 0 -10 0 12 -15 12 -15 -11 0 -11 0 0 -25
0 -24 -22 -21 -22 -20 -9 0 -9 0 6 33 7 32 3 25 2 25 8 45 7 45 7 131 8 132
26 30 25 30 -9 59 -8 58 22 69 23 69 13 5 12 4 0 -17 0 -17 13 5 12 4 -1 37
-1 36 13 0 14 0 0 30 0 31 15 6 16 5 5 -5 6 -5 10 -39 10 -38 0 -23 0 -22 -23
-48 -22 -47 -5 -53 -4 -52 23 2 23 3 8 -40 9 -40 -7 -25 -7 -25 -2 -15 -2 -15
-4 -14 -4 -15 18 -4 17 -3 0 21 0 22 20 25 20 26 -12 14 -11 14 11 47 12 47 9
65 10 65 6 31 7 31 -21 6 -21 5 0 54 0 54 -10 10 -11 11 -6 50 -6 51 23 39 23
38 22 25 23 25 7 23 7 23 -10 12 -9 12 3 35 2 35 11 55 11 55 11 45 10 45 14
97 14 98 16 87 15 88 0 24 0 24 16 18 17 18 -11 41 -10 41 8 29 8 29 7 68 7
68 13 20 12 20 2 67 1 67 27 60 27 61 18 1 18 2 11 1 12 1 9 15 10 15 -11 28
-11 28 -16 -15 -15 -16 6 -9 5 -10 -9 -6 -10 -5 -7 45 -6 45 10 28 10 27 7 40
6 40 5 20 5 21 -40 1 -40 2 -5 -17 -5 -17 -6 -55 -7 -55 -19 -74 -19 -74 0
-41 0 -41 -15 -48 -15 -49 10 -18 10 -19 0 -18 0 -18 -15 -29 -16 -29 1 -36 1
-36 -5 -55 -5 -55 -10 -75 -11 -75 -14 -101 -14 -101 -22 -119 -21 -119 -24
-123 -24 -122 -19 -28 -20 -27 -8 -35 -8 -35 -1 -15 -1 -15 -9 -17 -10 -17
-31 -5 -31 -6 7 38 8 37 15 80 15 80 6 75 6 75 14 120 13 120 12 29 12 29 -5
5 -5 5 14 26 13 27 12 54 11 55 9 50 9 50 16 100 15 101 0 37 0 36 -20 11 -20
11 0 18 0 19 25 6 24 6 9 18 9 17 11 80 11 80 6 75 6 75 11 28 10 27 13 0 13
0 17 36 17 35 4 42 4 42 5 45 5 45 10 49 10 48 21 29 20 29 16 -15 15 -16 12
4 11 4 1 84 0 84 7 30 7 30 4 135 4 135 7 35 8 35 -10 -10 -10 -10 -16 -55
-16 -55 -7 -38 -7 -39 12 -22 12 -22 -10 -28 -11 -27 -20 6 -19 6 -7 -28 -7
-28 -23 -41 -24 -41 0 -15 0 -15 -19 -49 -19 -49 -32 -115 -32 -115 -44 -135
-44 -135 -31 -91 -30 -91 3 -9 2 -9 -7 -92 -8 -93 17 -25 17 -26 -4 -3 -4 -4
-25 -4 -25 -3 -5 29 -5 29 7 106 7 106 9 140 9 140 20 50 21 50 45 110 45 110
40 85 39 85 7 144 7 144 16 56 15 56 25 100 24 100 21 18 20 17 -16 34 -16 34
0 43 0 43 15 65 16 66 11 20 12 20 1 65 1 65 15 30 15 30 16 -1 17 -2 6 30 7
30 -11 11 -11 11 0 17 0 18 20 6 20 6 0 25 0 25 11 22 12 22 19 19 19 18 -6
17 -7 16 -3 25 -4 25 -14 40 -14 40 -19 0 -19 0 -9 -30 -9 -30 -17 -40 -17
-40 -13 -42 -13 -41 7 -29 7 -28 2 -24 2 -25 -30 -15 -30 -16 -7 -9 -6 -9 -7
-71 -7 -71 -29 -67 -29 -66 0 -36 0 -36 -22 -22 -21 -21 -14 18 -13 19 0 14 0
15 -18 13 -17 13 -15 1 -15 0 -34 -63 -35 -62 -13 -13 -13 -13 -6 -40 -7 -39
-7 0 -8 0 -6 93 -6 92 -5 125 -6 125 -5 75 -5 75 -15 90 -14 90 -19 104 -19
104 5 14 5 13 12 0 12 0 26 -27 26 -28 24 -22 24 -23 37 0 38 0 34 -14 35 -15
0 -15 0 -16 10 0 10 0 0 34 0 34 -14 33 -13 34 -7 28 -6 27 13 0 14 0 32 -49
32 -50 14 -47 14 -47 -4 -7 -4 -7 15 -19 15 -19 -6 25 -6 25 -6 60 -6 60 -34
79 -33 79 9 11 9 11 -69 2 -69 2 0 -9 0 -10 -20 0 -19 0 -41 21 -41 22 -22
-10 -22 -10 -25 11 -25 11 -13 13 -14 13 6 14 5 15 -9 0 -9 0 -25 54 -25 53
-11 44 -11 44 -6 24 -6 24 -29 44 -29 43 -23 0 -23 0 13 -57 13 -58 9 -20 9
-20 12 -35 12 -35 21 -65 20 -65 5 -38 5 -37 9 -6 9 -5 0 -23 0 -24 15 -35 15
-36 0 -55 0 -55 11 -27 10 -28 5 -36 4 -35 9 -75 10 -75 10 -70 11 -70 10 -70
10 -70 4 -183 5 -182 5 -8 5 -8 1 -90 1 -89 -6 -31 -7 -30 16 -13 16 -13 0
-11 0 -10 -17 -20 -18 -20 19 6 18 7 -7 -76 -7 -76 -7 -26 -7 -27 1 -50 2 -50
11 -54 12 -54 0 -80 0 -80 -11 -91 -10 -91 -11 -55 -10 -55 -15 -60 -15 -60
-8 -20 -9 -20 -11 -36 -11 -37 -55 -52 -56 -53 19 8 18 7 19 6 18 5 8 -12 7
-13 -9 -46 -9 -47 -19 -95 -20 -95 -11 -60 -11 -60 -11 -43 -11 -42 -11 4 -10
3 -17 -9 -18 -9 0 15 0 15 -15 9 -16 8 16 95 16 94 24 48 25 49 0 9 0 9 -17 0
-18 0 -27 -44 -28 -43 0 -12 0 -11 -9 0 -9 0 -5 23 -5 22 -18 48 -19 48 16 27
15 28 -4 12 -4 13 -36 -7 -37 -7 -46 -33 -45 -33 -51 -25 -51 -26 -73 0 -74 0
-40 12 -40 12 -117 -1 -118 -1 -27 -10 -28 -10 -42 -11 -42 -12 -78 -72 -78
-73 -44 -40 -44 -41 -46 45 -46 45 -74 49 -75 49 -84 40 -84 41 -141 8 -142 7
-50 23 -50 22 -24 11 -23 12 -48 52 -48 53 -7 32 -7 33 -14 33 -13 33 -22 -11
-21 -12 -32 31 -33 32 -15 -6 -15 -6 -12 -25 -11 -25 0 -41 0 -42 -21 -22 -21
-23 6 -23 6 -23 10 -15 9 -15 21 12 20 13 25 0 26 0 24 16 25 16 15 -6 15 -5
0 -20 0 -21 26 -17 26 -16 8 -23 9 -22 45 5 46 6 0 -34 0 -34 -19 -12 -20 -12
-5 12 -5 12 5 -36 6 -36 -17 -6 -16 -7 -8 22 -8 22 10 26 10 27 -6 16 -6 16
-43 0 -43 0 -17 -5 -18 -5 0 -15 0 -15 10 6 10 6 0 -8 0 -9 58 -60 57 -60 18
-7 18 -7 9 25 10 25 17 0 18 -1 60 -13 60 -12 -2 -20 -2 -20 30 -33 30 -33
-10 -12 -9 -11 13 -37 13 -38 -20 0 -19 0 -22 11 -22 12 -7 10 -6 10 8 23 9
22 -8 29 -7 28 -31 3 -30 3 -26 -30 -26 -31 -29 6 -30 6 -21 -11 -21 -12 0
-39 0 -39 21 -15 21 -14 -6 -29 -7 -29 19 -21 18 -21 17 9 17 10 0 10 0 11 20
25 20 26 0 -12 0 -11 26 0 25 0 19 -10 18 -10 22 -35 21 -35 -6 -20 -6 -20
-15 0 -15 0 -20 11 -20 10 12 15 11 14 -15 0 -16 0 -6 -10 -6 -10 -55 0 -54 0
0 10 0 10 -55 0 -55 0 0 9 0 9 -47 8 -48 8 -25 3 -25 2 -24 3 -24 3 -4 -12 -5
-13 15 0 15 0 6 -16 6 -16 0 -9 0 -9 -24 0 -25 0 -15 21 -14 21 -45 -17 -45
-17 -21 11 -21 12 0 19 0 19 -21 6 -21 7 -4 -5 -5 -5 25 -56 26 -57 0 -23 0
-24 6 -16 6 -16 15 0 16 0 12 17 13 17 25 -11 25 -12 7 -20 6 -21 26 0 25 0
29 -17 29 -17 0 -18 0 -18 -9 0 -9 0 -38 17 -39 17 -10 -3 -10 -3 -30 -3 -30
-3 -25 27 -26 26 -24 2 -25 2 -20 10 -20 10 -69 16 -69 17 -14 13 -13 14 0 15
0 16 8 18 9 17 14 30 15 30 24 3 24 4 13 -18 13 -18 0 22 0 22 -20 20 -20 20
-10 1 -10 2 -12 1 -13 1 -3 19 -4 19 14 8 13 9 45 -5 45 -5 13 8 14 9 -16 31
-16 30 -31 23 -31 22 -39 0 -40 0 -17 21 -17 21 -29 13 -30 13 -38 31 -39 30
-13 33 -14 32 -36 7 -36 7 -18 -10 -18 -10 -39 9 -38 9 -9 15 -9 15 -35 17
-35 17 -39 58 -40 57 -32 7 -32 8 -18 11 -18 11 0 20 0 20 -18 21 -17 22 -36
16 -36 17 -21 19 -21 20 -8 0 -8 0 -25 20 -25 20 -23 0 -22 0 -32 -30 -31 -30
-18 0 -19 0 -6 25 -6 25 10 43 9 42 -4 42 -5 43 15 6 15 5 50 -16 51 -17 6
-17 5 -18 40 -54 41 -54 36 -27 37 -28 13 0 13 0 18 -9 17 -9 30 -13 30 -14
62 -37 63 -38 15 0 16 0 32 -31 32 -30 49 -25 50 -24 17 0 17 0 16 -34 16 -34
0 -21 0 -22 23 -8 22 -9 3 9 4 9 14 -14 14 -15 56 -7 56 -7 10 -22 10 -23 24
1 24 0 0 8 0 9 17 0 16 0 19 17 18 16 19 -20 20 -21 12 -61 12 -61 13 0 14 0
17 38 17 37 1 1 0 2 23 7 22 7 36 -36 35 -35 14 5 13 6 7 16 6 17 -10 3 -11 4
0 29 0 29 -19 0 -20 0 -6 10 -6 10 -21 -11 -21 -11 -9 15 -9 16 -34 7 -35 6 0
9 0 9 20 0 20 0 0 9 0 9 13 -1 12 0 18 1 17 2 0 15 0 14 -20 11 -20 11 0 14 0
15 10 0 9 0 -5 14 -5 14 9 6 9 5 26 -36 27 -37 -10 -10 -10 -10 0 -21 0 -21
46 -23 45 -23 4 3 3 4 4 35 5 35 52 -3 53 -4 -4 19 -3 18 -38 -2 -37 -2 -10
20 -11 19 -27 -1 -27 0 19 -8 20 -8 -13 -7 -12 -8 -3 3 -4 4 -21 42 -21 43 6
39 6 38 -11 7 -11 7 0 22 0 22 18 30 19 30 7 40 7 40 12 33 11 32 8 0 8 0 40
-25 40 -25 7 0 7 0 33 -32 33 -32 7 7 7 8 -19 74 -18 75 -22 0 -22 0 -15 18
-16 17 -7 23 -7 24 -19 -5 -19 -5 -14 31 -13 32 -21 19 -21 18 6 49 6 49 -17
0 -16 0 0 10 0 10 19 0 20 0 6 11 7 10 24 9 24 10 0 40 0 41 29 5 29 6 6 23 6
24 -9 23 -9 23 0 40 -1 40 -15 89 -15 90 -21 28 -20 27 -1 13 0 13 -9 -20 -9
-20 0 28 -1 28 14 5 15 6 6 26 5 27 -40 120 -41 120 -20 75 -21 75 -13 52 -12
53 -13 15 -13 15 -3 133 -4 132 -10 215 -10 215 -9 110 -10 110 -11 180 -12
180 -4 13 -3 12 -621 0 -620 0 0 -1696z m319 638 l20 -28 -8 -13 -8 -13 -64 7
-64 7 -3 3 -4 3 7 21 6 20 27 10 27 9 22 1 22 1 20 -28z m510 -14 l9 -23 -10
-12 -10 -13 -19 11 -19 10 0 12 0 13 12 12 12 12 8 0 9 0 8 -22z m439 -167
l13 -8 -16 -13 -17 -14 -8 14 -9 14 5 8 5 8 7 0 7 0 13 -9z m-971 -157 l4 -11
-25 -11 -24 -11 -11 13 -11 12 13 13 12 12 19 -3 19 -3 4 -11z m-162 -124 l18
-20 -19 -15 -19 -14 -14 -1 -13 0 6 23 6 22 0 13 0 12 8 0 9 0 18 -20z m545 6
l0 -14 -27 -6 -26 -7 -8 12 -8 13 5 8 5 8 30 0 29 0 0 -14z m466 -81 l6 -15
14 0 14 0 0 -11 0 -10 -22 7 -22 7 -13 12 -12 13 6 6 6 6 9 0 9 0 5 -15z
m-258 -39 l4 -19 -14 -8 -13 -9 -21 0 -20 0 -20 15 -19 15 20 15 20 16 30 -3
30 -3 3 -19z m182 -25 l22 -49 -6 -10 -6 -10 -25 11 -25 12 0 7 0 7 -15 -5
-15 -6 0 46 0 46 23 0 24 0 23 -49z m162 24 l5 6 27 -35 26 -35 0 -10 0 -10
32 -3 31 -3 19 -25 19 -26 -7 -17 -6 -17 -20 11 -19 10 -15 -11 -14 -12 -7 18
-7 19 -23 23 -24 22 -10 0 -9 0 0 18 0 18 -13 19 -13 20 -2 25 -1 25 13 -17
13 -18 5 5z m2945 -12 l-5 -18 0 30 0 30 5 -12 5 -13 -5 -17z m-2807 3 l0 -14
-13 -11 -14 -11 -6 7 -7 6 0 19 0 18 20 0 20 0 0 -14z m-190 -81 l-12 -15 -24
2 -24 2 0 13 0 13 36 0 36 0 -12 -15z m-182 -54 l-10 -3 -11 12 -12 13 13 -7
12 -7 1 18 0 18 8 -20 8 -20 -9 -4z m-667 -21 l19 -11 0 -19 0 -20 -16 0 -17
0 -12 17 -13 17 5 13 5 13 5 0 4 0 20 -10z m433 -36 l16 -16 -5 -9 -6 -9 -19
0 -18 0 -4 12 -5 13 11 12 11 12 2 1 2 0 15 -16z m368 -7 l6 -10 28 -1 28 -1
7 -34 7 -34 13 -8 13 -8 -16 -6 -16 -7 -24 13 -23 12 -37 37 -38 37 0 17 0 17
23 -7 22 -7 7 -10z m-627 -6 l5 -17 21 -22 20 -22 25 0 26 0 33 -37 34 -38
-15 -16 -15 -17 -42 -4 -42 -5 -16 8 -16 8 8 48 7 48 -16 13 -16 12 -6 0 -6 0
-18 -13 -18 -13 19 -42 18 -42 7 0 8 0 0 -15 0 -15 -22 0 -23 0 -27 -14 -27
-14 -5 14 -5 14 8 0 8 0 15 47 15 47 -16 37 -16 37 -6 -10 -6 -10 -6 21 -5 21
8 -5 9 -5 4 8 5 7 41 2 40 2 6 -18z m456 -33 l16 -13 21 -38 22 -38 0 -5 0 -4
-27 0 -28 0 -10 8 -10 7 -18 27 -17 27 0 15 0 14 13 5 12 5 6 1 5 1 15 -12z
m151 -173 l18 -24 -31 -30 -31 -31 -14 0 -15 0 6 10 6 10 -11 0 -12 0 6 15 5
15 -9 0 -10 0 0 15 0 15 11 18 11 18 27 -4 26 -4 17 -23z m-152 5 l14 -9 -5
-6 -6 -5 -17 6 -16 6 0 9 0 9 8 0 7 0 15 -10z m373 -72 l18 -21 -10 -10 -10
-10 -36 7 -36 7 -6 15 -5 14 12 15 13 15 21 -6 21 -6 18 -20z m-1028 -35 l-7
-48 -11 -7 -11 -7 25 -20 24 -20 -12 -1 -13 0 0 -9 0 -9 34 0 33 0 34 -17 34
-18 38 -2 38 -2 -4 6 -3 6 -18 38 -17 39 12 14 11 14 19 0 18 0 11 -20 10 -20
-14 -35 -15 -36 15 -6 15 -6 25 11 24 12 0 10 0 10 14 0 14 0 27 -32 26 -31
-13 -12 -13 -13 -26 -6 -26 -6 -39 21 -39 21 -73 -1 -74 -1 -11 7 -12 8 -35
12 -35 12 -35 -5 -35 -6 -27 11 -28 11 0 9 0 10 17 16 16 17 -9 25 -9 26 -37
19 -37 19 6 15 5 14 58 0 59 0 6 -10 6 -10 15 15 15 15 21 0 20 0 -7 -47z
m780 -22 l15 -30 -6 -16 -6 -16 -21 -11 -21 -11 -18 23 -18 22 0 28 0 29 18 4
17 5 12 1 12 1 16 -29z m-339 4 l-2 -16 -7 0 -7 0 -13 4 -12 5 15 11 15 11 7
0 6 0 -2 -15z m478 -34 l6 -9 -14 -11 -14 -12 -26 12 -26 12 0 9 0 8 34 0 35
0 5 -9z m-267 -23 l23 -21 0 -7 0 -6 -20 -1 -20 -2 -14 21 -15 21 5 9 5 8 6 0
7 0 23 -22z m463 -13 l0 -15 -15 0 -15 0 0 15 0 15 15 0 15 0 0 -15z m-366
-48 l13 -12 12 -24 13 -24 -13 -8 -14 -9 -11 0 -12 0 -9 13 -10 12 -1 20 0 20
4 13 3 12 6 0 6 0 13 -13z m-188 -162 l11 -46 -8 -5 -7 -4 -16 6 -15 6 -7 20
-6 19 6 25 6 24 13 0 12 0 11 -45z m375 31 l10 6 -6 -36 -7 -36 26 0 26 0 0
-7 0 -8 -8 -10 -7 -10 -29 -19 -29 -18 -29 -9 -29 -8 -17 20 -16 19 -22 0 -21
0 -5 -6 -6 -5 16 -40 15 -40 -11 -11 -11 -11 -58 30 -58 30 -1 44 -1 44 -11
32 -11 33 10 6 10 6 65 -31 66 -31 12 0 11 1 55 38 55 39 3 -9 4 -9 9 6z
m-721 -65 l10 -20 0 -20 0 -21 -9 0 -9 0 -11 31 -11 32 0 8 0 9 10 0 9 0 11
-19z m3917 -27 l-4 -4 -17 6 -16 6 0 8 0 9 18 3 17 4 3 -14 4 -14 -5 -4z
m-4163 -90 l57 -54 9 0 9 0 6 -21 7 -20 11 4 12 4 14 -14 14 -14 8 13 9 13 0
-8 0 -7 49 34 49 35 6 -6 6 -6 0 -40 0 -39 -34 -34 -34 -34 -22 0 -23 0 -39
12 -40 12 -26 35 -27 36 -28 27 -28 27 -22 7 -22 6 -16 15 -17 14 -33 -20 -34
-21 -17 0 -17 0 -15 16 -16 15 0 24 0 24 12 8 13 8 60 5 60 5 21 -3 20 -4 58
-54z m1083 -8 l-6 -14 6 -6 6 -6 3 -22 2 -23 11 -27 10 -26 20 -7 21 -6 0 -10
0 -9 -27 -11 -28 -11 -15 -8 -15 -7 3 -32 4 -31 -15 0 -15 0 -7 -29 -6 -30
-15 -12 -14 -12 -35 24 -35 24 0 19 0 19 38 -6 37 -6 14 8 13 9 5 46 6 46 -37
0 -36 0 0 10 0 10 18 0 18 0 22 20 22 21 0 17 0 18 12 12 12 12 -16 0 -15 0 5
25 4 25 15 0 15 0 -5 -14z m3043 -37 l0 -20 -10 6 -10 6 0 15 0 14 10 0 10 0
0 -21z m-3320 -121 l0 -10 -12 4 -12 4 -4 12 -4 12 16 -6 16 -6 0 -10z m-202
-29 l32 -31 8 -32 9 -31 -21 -21 -21 -22 -22 -25 -23 -25 0 -11 0 -11 -25 0
-25 0 -16 25 -16 25 -32 0 -31 0 -54 20 -53 19 -14 18 -13 18 -1 17 0 17 16
15 15 16 23 0 23 0 18 20 18 20 17 0 17 0 23 -25 23 -25 7 0 7 0 31 30 32 30
8 0 8 0 32 -31z m305 -91 l17 1 0 -5 0 -5 -11 -21 -12 -21 17 -12 16 -12 25 5
25 4 6 -30 6 -31 14 -5 13 -5 20 -42 20 -42 -4 -8 -5 -7 12 -5 13 -4 -50 -8
-50 -8 -46 17 -47 16 -11 0 -11 0 0 -20 0 -21 -20 11 -20 10 -27 -6 -28 -6
-43 -16 -44 -15 -7 12 -8 12 -16 -6 -16 -7 -14 9 -15 8 16 48 15 47 12 0 12 0
11 -26 12 -25 26 20 27 21 18 0 19 0 0 6 0 5 -15 15 -15 15 -43 -6 -43 -7 1
59 0 58 19 -3 20 -4 34 -23 34 -23 15 5 15 6 -5 32 -5 33 11 11 12 12 40 -7
40 -7 18 1z m-813 -227 l100 -99 0 -8 0 -7 23 -31 23 -31 6 -15 5 -15 71 -38
70 -37 14 0 14 0 17 -13 18 -12 13 -53 14 -52 -18 0 -19 0 -5 9 -6 9 -65 13
-65 13 -14 21 -15 22 -15 16 -16 16 -13 37 -12 38 -22 6 -22 5 -31 43 -31 43
-50 47 -49 46 -24 40 -23 41 -7 23 -7 22 20 0 20 0 101 -99z m3163 -246 l6
-14 -11 -7 -10 -7 -9 14 -9 14 0 8 0 7 14 0 14 0 5 -15z m-68 -27 l-6 -23 -11
-27 -10 -28 -8 0 -8 0 -12 15 -12 15 13 18 13 17 16 17 15 17 8 0 8 1 -6 -22z
m-2045 -3 l0 -15 -9 0 -10 0 -5 9 -5 8 6 7 6 6 9 0 8 0 0 -15z m2320 -12 l0
-18 -14 -40 -14 -40 1 58 1 57 13 0 13 0 0 -17z m-147 -61 l-7 -17 -13 -13
-13 -13 -18 3 -17 3 0 15 0 15 18 0 18 0 10 18 10 17 9 -5 9 -6 -6 -17z m-690
-5 l7 6 36 -1 36 -1 14 -12 14 -11 -6 -9 -5 -9 23 0 23 -1 -30 -13 -30 -13
-40 -7 -40 -7 -45 -5 -45 -5 -52 -31 -53 -32 0 -8 0 -8 10 0 10 0 0 10 0 10
19 0 20 0 5 9 6 9 20 5 20 5 0 -13 0 -14 -16 -15 -15 -16 33 6 33 6 31 9 31
10 50 2 49 2 18 -18 18 -18 12 8 11 8 50 -5 50 -6 -50 -8 -50 -9 -10 -7 -10
-7 -50 -7 -50 -7 -70 -9 -70 -10 -34 -6 -33 -7 -7 10 -6 10 -20 -7 -20 -7 25
-13 25 -13 5 -6 5 -6 37 -13 36 -13 37 3 36 2 5 8 5 8 104 -1 103 -2 13 8 12
8 -6 -16 -6 -17 7 0 8 0 12 12 11 11 7 -16 6 -17 9 0 9 0 0 16 0 15 11 -6 10
-7 6 21 5 21 15 0 15 0 -5 -22 -6 -23 20 24 19 23 1 -18 1 -19 -2 -10 -2 -10
-4 -23 -5 -24 9 6 9 6 13 30 12 30 8 0 7 0 7 -41 7 -41 14 6 15 5 19 -20 20
-21 -6 -16 -6 -15 11 7 12 7 0 -20 0 -20 15 -15 15 -15 6 -30 6 -31 11 7 10 6
-6 -44 -6 -44 12 21 12 22 13 -14 12 -13 0 -12 0 -13 -12 17 -13 17 -13 -20
-12 -20 15 0 15 0 0 -7 0 -8 -6 -22 -6 -23 -9 5 -8 6 6 16 6 16 -11 -7 -12 -7
0 -15 0 -14 -10 0 -10 0 -1 18 -1 17 -5 -18 -5 -17 -8 5 -9 6 6 17 6 17 -14
-12 -13 -13 -18 0 -18 0 0 10 0 10 -31 0 -31 0 6 -16 6 -16 0 -9 0 -10 36 3
36 2 14 -18 13 -19 -5 -8 -5 -9 -19 0 -19 0 -6 10 -6 10 -23 0 -22 0 -21 -19
-21 -20 -5 -13 -4 -13 -20 23 -20 22 -12 0 -12 0 7 -22 7 -22 11 -11 11 -12
22 -11 22 -12 20 0 21 0 1 13 1 12 5 -12 5 -13 33 0 33 0 -5 -20 -5 -20 11 0
11 0 1 18 1 17 5 -19 5 -20 18 24 18 24 -8 -40 -7 -39 -10 -25 -10 -25 4 -11
4 -11 -16 -13 -15 -12 0 3 0 4 14 52 14 52 -6 6 -7 6 -14 -48 -14 -48 -1 -37
0 -38 -8 13 -8 12 -1 -30 0 -30 -11 23 -11 22 -8 0 -7 0 6 -22 5 -23 9 -6 10
-6 -20 -5 -20 -6 -31 43 -31 43 0 10 0 11 -13 13 -12 13 -18 27 -17 27 0 18 0
18 8 -10 7 -10 28 -24 27 -24 0 10 0 10 -25 29 -24 28 10 6 9 6 -21 20 -21 19
-19 37 -19 37 0 31 0 31 14 5 15 6 -6 14 -5 14 -9 0 -9 0 0 -11 0 -12 -21 -34
-21 -34 -5 4 -4 5 29 58 29 59 7 28 6 27 -5 0 -5 0 -13 -33 -14 -33 -16 -16
-16 -16 -29 -63 -29 -63 34 -47 33 -47 41 -43 40 -44 20 -42 20 -41 15 -6 14
-5 0 -16 0 -15 11 0 10 0 -6 -10 -6 -10 8 0 8 0 20 -37 20 -37 22 -24 22 -24
-10 -19 -10 -19 5 -9 6 -9 -16 -6 -15 -6 5 -18 6 -19 -26 -12 -27 -12 6 -6 6
-5 -12 -13 -12 -12 -22 -11 -22 -12 -41 0 -41 0 7 -11 7 -11 -102 4 -101 4 0
-7 0 -7 -27 -5 -27 -5 -43 29 -43 30 0 9 0 9 -35 17 -35 16 -30 37 -31 36 -7
10 -7 10 -17 26 -17 26 -14 15 -15 15 -41 66 -40 66 -26 52 -27 52 16 -6 15
-6 -6 17 -7 17 -12 13 -13 12 -6 0 -7 0 6 -32 6 -33 -16 35 -16 35 -4 69 -5
69 -4 8 -5 7 9 24 9 25 -7 63 -8 64 8 25 8 26 11 57 11 56 16 6 15 6 -6 16 -6
15 11 -6 10 -7 -6 24 -6 24 48 48 47 48 55 31 54 31 -11 4 -12 4 0 9 0 9 14 0
14 0 4 9 3 8 44 28 44 27 -14 9 -14 9 17 14 18 13 -8 8 -7 8 11 -6 11 -6 23
24 23 25 17 -15 17 -15 6 7z m-2630 -35 l17 -15 0 -28 0 -28 -20 -11 -20 -11
0 13 0 14 -29 32 -30 32 -10 0 -11 0 0 9 0 10 18 4 17 4 25 -5 25 -5 18 -15z
m1854 -5 l2 -27 -18 -9 -17 -10 -12 8 -13 8 7 19 7 19 10 13 10 13 11 -4 11
-4 2 -26z m-1634 -16 l24 -29 7 -41 6 -41 19 -18 20 -17 14 -12 15 -12 29 -7
28 -7 14 -11 14 -11 14 -33 14 -33 -18 -24 -18 -25 -24 -6 -24 -7 -9 17 -9 16
-27 -7 -27 -6 -13 -19 -13 -18 -20 11 -21 11 5 12 5 13 -23 17 -23 17 24 24
24 24 0 14 0 13 -12 12 -12 12 -19 0 -18 0 -16 15 -15 15 -9 36 -10 35 20 33
21 33 0 17 0 16 19 0 19 0 25 -29z m1571 -2 l-5 -9 -20 0 -19 0 0 9 0 9 13 5
12 4 12 -5 13 -4 -6 -9z m711 -19 l-6 -10 -10 0 -9 0 0 10 0 10 16 0 15 0 -6
-10z m-2055 -35 l0 -25 -6 0 -5 0 -20 10 -19 11 0 14 0 15 25 0 25 0 0 -25z
m120 -45 l20 -20 26 0 25 0 17 -16 16 -16 -1 -33 -1 -32 -16 -32 -17 -32 -22
7 -22 7 -3 8 -3 8 -34 11 -33 11 -11 31 -11 31 22 36 23 36 -3 8 -2 7 5 0 5 0
20 -20z m2707 -72 l-4 -23 0 40 -1 40 5 -17 4 -18 -4 -22z m-1130 27 l15 -15
-7 -103 -6 -102 -1 -47 -1 -48 -13 0 -14 0 0 -19 0 -19 -17 3 -18 3 -5 1 -5 1
11 8 12 7 15 36 15 37 -13 70 -14 70 -12 40 -12 40 7 26 6 26 21 0 20 0 16
-15z m-1396 -7 l1 -13 -2 -15 -2 -15 -3 -3 -2 -2 -17 6 -16 6 0 24 0 24 20 0
20 0 1 -12z m1119 -13 l12 -14 -7 -11 -6 -10 -20 0 -19 0 0 9 0 9 -6 16 -6 16
20 0 20 0 12 -15z m1720 -40 l0 -34 10 -6 10 -6 0 10 0 11 20 0 20 0 0 18 0
17 8 13 9 13 -3 -43 -2 -43 -12 -50 -13 -50 -10 -10 -10 -10 7 18 6 19 -7 11
-6 11 -7 -20 -8 -19 -7 48 -7 47 -11 7 -10 6 7 -11 7 -12 -16 0 -16 0 7 48 7
47 4 8 4 7 10 -5 9 -6 0 -34z m-3535 25 l6 -10 -16 -6 -17 -7 -14 14 -14 15
25 2 24 2 6 -10z m3472 -91 l-1 -19 -13 0 -12 0 -6 10 -7 11 6 14 5 15 15 -6
15 -6 -2 -19z m-3426 -42 l-11 -11 0 15 0 16 7 7 8 7 3 -11 4 -12 -11 -11z
m-86 -77 l6 -10 -16 0 -16 0 6 10 6 10 4 0 4 0 6 -10z m359 -10 l26 -10 0 -17
0 -18 18 21 17 22 30 5 30 5 17 -9 17 -9 5 -33 5 -32 4 -72 4 -73 -38 0 -38 0
-6 10 -6 10 -24 0 -23 0 -4 -12 -4 -13 -3 -65 -2 -65 -9 -9 -8 -8 -7 21 -6 21
6 10 6 10 -10 0 -10 0 -7 58 -7 57 -9 18 -9 17 -18 0 -19 0 -11 14 -11 13 -46
18 -46 17 -11 -11 -11 -11 -13 0 -13 0 0 13 0 13 50 27 50 27 19 0 20 0 13 18
13 19 15 6 15 5 12 1 12 1 25 -10z m346 -50 l0 -10 15 0 15 0 0 -19 0 -20 -10
-6 -10 -6 0 -45 0 -44 30 0 30 0 16 25 16 24 12 43 13 42 16 10 16 10 31 -29
30 -29 6 -18 5 -18 18 0 17 0 11 11 10 10 47 -21 46 -22 0 -18 0 -18 -12 -4
-11 -4 1 -38 1 -38 11 -13 10 -13 -22 -5 -22 -6 -73 9 -74 10 -8 5 -8 4 -94
11 -94 10 -49 12 -48 12 -5 14 -5 13 16 18 16 18 0 10 0 10 30 44 30 44 0 18
0 17 15 0 15 0 0 -10z m683 -39 l8 -8 -16 -17 -16 -16 -30 0 -30 0 -20 10 -19
11 0 19 0 19 57 -5 58 -5 8 -8z m465 -50 l4 -12 -29 6 -28 7 -12 4 -13 3 0 10
0 10 18 4 17 4 19 -12 20 -12 4 -12z m260 -12 l-3 -24 -10 2 -10 2 -3 16 -4
16 6 16 7 16 10 -10 11 -11 -4 -23z m-1921 -26 l12 -16 -5 -8 -5 -9 -29 0 -28
0 -6 16 -6 16 0 15 0 15 28 -6 27 -7 12 -16z m1233 -60 l0 -32 33 -25 32 -26
-42 0 -41 0 -4 -12 -4 -11 -62 -5 -61 -4 -7 -20 -6 -19 -21 7 -22 7 -26 22
-26 21 -32 14 -32 13 21 21 21 21 22 26 23 26 22 5 22 6 35 -11 35 -10 0 -23
0 -23 9 -6 10 -5 6 10 6 10 -10 0 -11 0 0 10 0 10 20 0 21 0 6 18 6 17 9 12
10 12 19 -12 19 -12 0 -32z m70 30 l0 -15 -15 5 -14 6 -7 -11 -6 -10 -9 13 -9
14 16 12 16 12 14 -6 14 -5 0 -15z m600 -15 l0 -8 -15 0 -15 0 0 13 0 14 7 6
7 7 8 -12 8 -13 0 -7z m-10 -28 l0 -10 -9 0 -10 0 -6 10 -6 10 15 0 16 0 0
-10z m740 -81 l0 -9 -10 0 -10 0 0 16 0 15 10 -6 10 -6 0 -10z m-2265 -59 l6
-10 -10 0 -11 0 0 10 0 10 4 0 5 0 6 -10z m876 -19 l20 -18 4 -48 5 -48 6 -8
5 -9 -10 0 -11 0 0 -13 0 -12 -26 -19 -25 -20 -27 -23 -27 -23 -7 0 -6 0 -21
-36 -21 -35 -23 3 -22 3 3 27 3 28 -25 10 -26 10 0 14 0 15 18 10 19 10 13
-12 13 -12 -7 13 -7 12 19 0 18 0 21 19 21 20 33 9 34 8 3 16 3 15 -23 7 -23
7 13 6 12 5 0 24 0 24 12 20 13 20 3 0 3 0 20 -19z m209 -6 l0 -16 -27 -24
-28 -24 -13 -1 -13 0 11 13 10 12 21 28 20 27 10 0 9 0 0 -15z m1555 -25 l6
-10 -10 0 -11 0 0 10 0 10 4 0 5 0 6 -10z m-1649 -67 l-6 -6 -6 6 -6 6 8 12 8
13 4 -13 4 -12 -6 -6z m-1538 -26 l3 -17 -17 -40 -18 -40 -15 0 -16 0 -11 8
-10 7 -7 18 -7 18 36 35 35 35 12 -4 12 -4 3 -16z m132 -48 l0 -29 25 -10 25
-10 0 -7 0 -8 -9 -14 -8 -13 -23 12 -22 12 -5 -6 -6 -5 -28 15 -29 15 0 39 0
39 28 3 27 4 13 -4 12 -4 0 -29z m3669 10 l-10 -20 11 -14 11 -13 -11 -7 -11
-7 -6 5 -5 6 7 40 7 41 9 -6 9 -5 -11 -20z m-1579 -29 l11 -20 -5 0 -5 0 -11
20 -11 20 5 0 5 0 11 -20z m-1208 -24 l7 -11 50 1 49 2 6 -17 5 -16 21 -25 20
-25 -7 -82 -6 -83 -15 0 -14 0 -20 25 -19 25 -24 -6 -24 -6 -6 29 -7 28 -4 13
-4 12 -16 7 -17 6 -29 -16 -30 -17 -29 0 -29 0 -20 -12 -20 -13 -20 13 -21 13
-47 9 -47 8 -14 -11 -13 -11 -72 -2 -71 -1 -19 -8 -19 -8 7 33 6 34 13 8 12 8
35 -2 35 -1 12 -10 13 -9 5 14 6 15 -11 27 -10 27 0 5 0 4 34 0 35 0 6 -10 6
-10 34 0 34 0 6 -10 6 -10 10 0 9 0 12 25 11 25 36 0 36 0 12 19 12 19 48 -6
48 -5 7 -11z m-1040 -88 l-10 -10 -7 21 -6 20 13 23 13 23 3 -34 3 -34 -9 -9z
m2339 -26 l29 -43 0 -5 0 -5 26 -27 25 -27 9 -16 9 -15 -8 -13 -8 -13 -22 13
-21 14 0 14 0 15 -39 56 -39 55 -16 39 -16 39 21 -19 21 -19 29 -43z m-1906
50 l20 -6 12 -11 11 -12 -7 -12 -8 -12 -54 3 -54 3 -3 19 -4 20 18 13 18 13
16 -6 15 -6 20 -6z m2665 8 l0 -10 -9 0 -10 0 -6 10 -6 10 15 0 16 0 0 -10z
m-1612 -73 l3 -17 -10 0 -10 0 -11 21 -12 21 19 -4 18 -3 3 -18z m-868 -77 l0
-10 -11 0 -10 0 6 10 6 10 5 0 4 0 0 -10z m1120 -29 l10 -20 0 -15 0 -14 -26
-31 -26 -31 24 3 23 4 15 -8 15 -8 20 -7 20 -7 16 2 15 2 12 -25 11 -25 -9 -6
-9 -6 -18 21 -17 20 -17 0 -17 0 -31 -57 -31 -56 5 -5 5 -5 20 18 20 18 1 -9
1 -9 -2 -24 -2 -24 -36 -44 -37 -43 -12 5 -13 4 -23 -9 -22 -8 -28 -27 -29
-27 -9 9 -9 9 -6 32 -6 32 17 0 17 0 37 30 36 30 18 16 19 16 -6 6 -6 5 -23 2
-22 2 2 14 2 14 7 28 6 27 -21 0 -21 0 -6 -29 -6 -29 -22 -6 -22 -5 -17 -36
-17 -35 -24 -10 -24 -9 -6 -35 -7 -36 -20 0 -20 0 -13 13 -12 12 -7 18 -7 18
25 9 25 10 0 21 0 22 -18 -16 -17 -16 -14 8 -13 8 4 24 3 24 23 3 22 3 0 -10
0 -11 13 0 12 0 12 19 12 19 -34 26 -34 26 -5 0 -6 0 -20 20 -20 20 -35 -20
-36 -20 -33 0 -34 0 -4 13 -5 12 7 25 6 25 54 2 55 2 16 0 17 1 6 25 6 24 13
-5 13 -5 14 26 13 25 25 -16 24 -16 25 7 25 6 12 -15 11 -15 40 -6 40 -6 14
10 14 9 -7 11 -7 11 -40 0 -40 0 20 21 19 21 21 -7 21 -6 17 10 18 10 32 1 32
0 11 -19z m-652 -33 l12 -12 0 -18 0 -18 -10 0 -9 0 -11 19 -10 20 0 10 0 11
8 0 8 0 12 -12z m732 2 l0 -10 -20 0 -20 0 0 10 0 10 20 0 20 0 0 -10z m41
-243 l-11 -11 0 20 0 21 8 7 7 8 3 -17 4 -17 -11 -11z m-616 21 l5 -13 -14
-54 -14 -53 5 -19 5 -18 19 -6 19 -6 0 -15 0 -14 31 0 31 0 25 -20 26 -20 18
0 19 0 6 -24 6 -25 -6 -10 -6 -10 12 -8 13 -8 32 0 31 0 -1 9 -2 9 42 30 42
30 28 -1 28 -1 25 -3 25 -3 3 23 3 22 23 15 23 15 17 -6 16 -6 -5 -8 -5 -9 9
-5 10 -6 6 10 6 10 25 0 24 0 0 -17 0 -18 -20 -30 -20 -30 0 -11 0 -12 25 -6
25 -6 0 -16 0 -15 -12 -22 -11 -22 -16 -12 -16 -12 -20 -1 -20 -1 37 -15 36
-16 6 -14 5 -14 -5 -15 -6 -15 -42 -20 -41 -19 -10 10 -9 9 17 29 16 28 -6 7
-6 6 -17 0 -17 0 -11 25 -12 26 0 19 0 20 -21 0 -22 0 -33 -35 -33 -35 -16 0
-17 0 6 25 6 25 -10 0 -10 0 0 -9 0 -8 -35 -37 -35 -37 -18 3 -17 3 1 40 1 40
7 20 6 20 -9 14 -9 14 -30 -22 -30 -21 -21 0 -21 0 0 -16 0 -16 -30 -30 -30
-30 -15 12 -15 12 0 19 0 18 26 25 27 24 15 -6 15 -5 -5 26 -5 26 12 5 12 4 6
21 5 21 -8 5 -9 5 -13 -15 -13 -16 -23 -24 -23 -25 -19 0 -19 0 -8 -12 -8 -13
-2 -35 -2 -35 -8 -55 -9 -56 -22 -32 -23 -32 -10 0 -9 0 -19 12 -20 12 -19
-24 -20 -24 -15 12 -15 13 -5 20 -5 20 21 25 22 25 18 -6 17 -7 0 -9 0 -9 26
16 26 17 -7 36 -6 36 -5 17 -5 16 -39 7 -38 6 14 36 15 35 -13 15 -13 16 -43
18 -44 19 6 16 6 16 0 11 0 12 50 34 50 34 16 -14 16 -13 -4 -48 -5 -48 9 0
10 0 28 17 29 16 16 44 16 43 -6 10 -6 10 -5 51 -5 51 12 14 11 14 20 0 19 0
4 -12z m857 -115 l-4 -13 -13 0 -13 0 -13 16 -13 16 12 19 12 19 0 14 0 14 13
5 12 4 5 -41 6 -41 -4 -12z m-189 22 l-5 -15 -9 0 -9 0 0 13 0 14 6 6 7 6 8
-5 8 -5 -6 -14z m-972 -25 l17 -35 -17 -12 -16 -12 -16 -1 -17 0 -10 13 -10
12 -7 27 -7 26 19 11 18 11 15 -3 15 -2 16 -35z m1139 -61 l0 -19 -7 0 -8 0
-13 8 -13 9 6 16 7 16 14 -6 14 -5 0 -19z m70 -34 l0 -15 -10 0 -9 0 5 15 6
15 4 0 4 0 0 -15z m-1508 -51 l12 -26 -19 -14 -19 -14 -13 0 -13 0 0 10 0 10
-20 0 -20 0 0 4 0 4 6 16 6 16 14 0 14 0 0 10 0 10 20 0 20 0 12 -26z m284
-79 l6 -25 7 0 8 0 11 -25 12 -25 14 0 14 0 12 -15 12 -15 -12 -30 -12 -30
-11 0 -10 0 -19 22 -19 22 -28 -17 -29 -17 -5 0 -4 0 -1 58 0 57 10 33 10 32
14 0 14 0 6 -25z m994 -99 l0 -15 -9 -6 -10 -5 -6 10 -6 10 6 10 6 10 10 0 9
0 0 -14z m735 -36 l6 -10 -10 0 -11 0 0 10 0 10 4 0 5 0 6 -10z m-1892 -33 l7
6 0 -11 0 -12 -15 0 -15 0 0 4 0 4 -6 19 -6 18 15 -17 14 -18 6 7z m-63 -52
l12 -15 -23 -1 -24 0 -22 -5 -22 -4 -6 10 -6 10 17 -7 17 -6 -8 13 -8 13 9 -6
10 -6 14 10 15 9 6 0 7 0 12 -15z m930 -9 l0 -5 -10 -6 -10 -6 0 10 0 11 10 0
10 0 0 -4z m-450 -95 l0 -19 -15 -12 -15 -13 -6 6 -6 6 6 26 6 25 15 0 15 0 0
-19z m180 -16 l0 -15 -25 -16 -26 -17 -6 7 -6 6 11 25 12 25 20 0 20 0 0 -15z
m1908 -21 l-3 -17 -12 -5 -13 -4 0 25 0 24 7 6 7 7 9 -9 9 -9 -4 -18z m-1688
-16 l0 -20 -12 4 -13 5 -3 28 -4 29 16 -13 16 -13 0 -20z m740 -74 l0 -14 -13
0 -14 0 -6 7 -7 6 11 13 11 14 9 -6 9 -5 0 -15z m-46 -81 l7 -53 -10 0 -10 0
-4 18 -5 17 -6 28 -7 29 7 20 6 21 8 -14 7 -14 7 -52z m111 7 l6 -19 -22 -31
-23 -30 -2 0 -2 0 3 43 2 42 2 8 1 7 14 0 15 0 6 -20z"/>
<path d="M2571 2425 l-41 -41 0 -13 0 -13 15 12 15 12 1 17 1 16 4 -12 5 -12
-30 -88 -29 -89 -8 -40 -7 -39 6 6 6 5 17 65 16 64 30 62 30 62 18 -12 19 -11
6 6 7 6 -10 18 -10 18 8 21 8 21 -18 0 -18 0 -41 -41z"/>
<path d="M3025 2328 l-20 -11 -15 -8 -15 -9 -35 -15 -35 -16 -17 5 -18 4 0
-13 0 -13 14 -5 14 -5 40 5 40 5 -5 14 -5 14 14 0 13 0 39 -21 39 -21 6 10 6
10 28 -5 27 -5 0 -14 0 -13 -15 5 -15 6 0 -16 0 -16 -8 0 -8 0 1 -27 0 -28 20
-6 20 -5 13 45 13 46 9 34 9 35 -10 18 -10 18 -28 0 -28 0 -29 5 -29 5 -20
-12z"/>
<path d="M3390 2330 l0 -10 10 0 10 0 0 10 0 10 -10 0 -10 0 0 -10z"/>
<path d="M2600 2311 l0 -10 10 -6 10 -6 0 10 0 10 -10 6 -10 6 0 -10z"/>
<path d="M3110 2095 l-13 -15 6 -6 5 -6 12 21 11 21 -4 0 -5 0 -12 -15z"/>
<path d="M3307 2098 l4 -8 20 0 19 0 0 8 0 7 -24 0 -24 0 5 -7z"/>
<path d="M3465 2080 l-6 -10 10 0 11 0 0 10 0 10 -4 0 -5 0 -6 -10z"/>
<path d="M3077 2040 l-17 -20 10 0 9 0 11 20 11 20 -3 0 -4 0 -17 -20z"/>
<path d="M2816 1994 l-6 -17 5 -5 5 -5 6 17 6 17 -5 5 -5 5 -6 -17z"/>
<path d="M2760 1960 l0 -10 23 0 22 0 -15 10 -15 10 -7 0 -8 0 0 -10z"/>
<path d="M2740 1901 l-10 -20 0 -15 0 -15 -32 6 -33 6 -5 0 -5 1 -33 -8 -33
-8 12 -14 11 -14 -6 -16 -6 -17 24 17 25 16 26 -12 26 -12 21 13 20 13 47 0
46 0 7 11 8 12 8 -11 7 -10 16 -6 16 -6 15 31 15 32 -7 19 -7 20 -6 -23 -6
-23 -10 6 -10 7 6 14 5 15 -14 0 -14 0 -10 -10 -11 -11 -13 16 -12 15 -34 0
-33 0 -11 -19z"/>
<path d="M2987 1853 l-8 -13 -19 -56 -20 -57 0 -14 0 -13 8 0 9 0 22 48 23 48
-4 35 -3 34 -8 -12z"/>
<path d="M3085 1815 l30 -25 17 -10 18 -10 -5 12 -5 13 -35 23 -35 22 -7 0 -8
0 30 -25z"/>
<path d="M2925 1820 l-6 -10 10 0 11 0 0 10 0 10 -4 0 -5 0 -6 -10z"/>
<path d="M3090 1775 l13 -15 4 4 5 5 -7 10 -6 11 -11 0 -10 0 12 -15z"/>
<path d="M3362 1760 l-12 -20 0 -10 0 -10 9 0 9 0 5 28 5 27 -2 2 -2 2 -12
-19z"/>
<path d="M3285 1730 l6 -10 10 0 10 0 -6 10 -6 10 -10 0 -10 0 6 -10z"/>
<path d="M3352 1699 l4 -13 13 -4 14 -4 -5 13 -4 13 -13 4 -13 5 4 -14z"/>
<path d="M3215 1660 l15 -29 0 -7 0 -7 -20 18 -20 18 0 -5 0 -6 13 -24 13 -25
17 -17 17 -17 0 14 0 15 -12 5 -13 5 12 9 13 9 -12 32 -12 31 -13 5 -13 5 15
-29z"/>
<path d="M2653 1653 l-13 -5 0 -17 0 -18 20 -18 19 -17 16 6 16 6 -7 22 -6 23
-10 13 -10 12 -7 -1 -6 -1 -12 -5z"/>
<path d="M2710 1630 l0 -10 10 0 10 0 0 10 0 10 -10 0 -10 0 0 -10z"/>
<path d="M3183 1580 l-2 -20 15 0 15 0 -3 17 -3 16 -10 4 -11 3 -1 -20z"/>
<path d="M3315 1510 l6 -10 5 0 4 0 0 10 0 10 -11 0 -10 0 6 -10z"/>
<path d="M2843 1423 l-13 -27 6 -5 5 -5 9 14 10 15 0 18 0 17 -2 0 -3 0 -12
-27z"/>
<path d="M825 2480 l-6 -10 9 -16 9 -15 12 15 13 15 -7 11 -6 10 -9 0 -9 0 -6
-10z"/>
<path d="M2386 2491 l-6 -9 4 -14 5 -13 11 -44 12 -44 9 14 9 14 0 37 0 36 -6
16 -6 16 -13 0 -14 0 -5 -9z"/>
<path d="M962 1540 l13 -20 15 2 15 3 3 18 3 17 -30 0 -31 0 12 -20z"/>
<path d="M1766 1313 l-6 -6 0 -9 0 -8 15 0 15 0 0 9 0 10 -9 5 -8 5 -7 -6z"/>
<path d="M1780 1190 l0 -10 15 0 15 0 0 10 0 10 -15 0 -15 0 0 -10z"/>
<path d="M1980 896 l0 -15 11 -7 11 -6 11 11 12 12 -15 9 -15 10 -7 0 -8 0 0
-14z"/>
<path d="M1766 804 l-6 -16 12 4 12 4 4 12 4 12 -10 0 -10 0 -6 -16z"/>
<path d="M1494 6193 l-32 -4 -6 -22 -5 -21 10 -46 11 -45 3 -36 3 -37 22 -93
22 -94 9 -17 9 -18 0 -26 0 -25 9 -17 9 -17 5 -55 6 -55 15 -82 15 -82 14 -28
14 -28 6 -39 6 -39 21 -19 20 -19 0 20 0 20 12 28 13 28 5 5 5 5 17 38 18 37
-9 0 -8 0 -41 35 -40 36 -16 33 -16 34 0 38 0 37 13 16 14 16 18 49 18 49 -8
171 -8 171 2 48 2 47 -8 0 -8 0 -65 4 -65 4 -31 -5z"/>
<path d="M5270 6141 l0 -20 9 -6 10 -5 12 -38 12 -37 18 -13 17 -12 12 -35 12
-35 16 -1 17 -1 -12 -4 -12 -5 20 -20 19 -19 20 0 20 0 0 13 0 13 -12 12 -11
11 16 7 17 6 0 104 0 104 -100 0 -100 0 0 -19z"/>
<path d="M4274 6135 l15 -15 4 0 5 0 6 15 5 15 -25 0 -25 0 15 -15z"/>
<path d="M4500 6106 l0 -16 21 0 21 0 -4 13 -5 12 -16 3 -17 3 0 -15z"/>
<path d="M3975 6101 l-5 -10 8 -5 9 -5 7 6 6 6 0 9 0 8 -9 0 -10 0 -6 -9z"/>
<path d="M4055 6068 l-7 -18 6 -17 7 -16 10 10 10 10 -10 24 -9 24 -7 -17z"/>
<path d="M4110 6065 l0 -15 19 0 20 0 5 9 6 9 -16 6 -16 6 -9 0 -9 0 0 -15z"/>
<path d="M4300 6056 l0 -14 25 -16 24 -16 16 0 16 0 6 16 6 15 -9 8 -9 8 -37
6 -38 6 0 -13z"/>
<path d="M5200 6060 l0 -10 21 0 20 0 -6 10 -6 10 -15 0 -14 0 0 -10z"/>
<path d="M4916 6034 l-6 -16 0 -4 0 -4 25 0 25 0 0 8 0 7 -19 12 -19 12 -6
-15z"/>
<path d="M3171 6023 l-1 -23 -9 0 -9 0 -6 16 -6 15 -12 -8 -13 -8 -45 0 -45 0
0 -15 0 -15 25 -3 25 -4 13 -11 14 -11 7 13 8 12 16 -16 17 -16 10 6 11 7 15
-13 16 -13 17 -4 16 -3 17 0 17 0 12 -15 11 -14 17 0 17 0 10 -8 9 -9 50 -19
50 -18 5 -1 5 0 10 -6 10 -7 33 -7 32 -7 0 30 0 30 -13 10 -12 10 -29 8 -29 7
-5 19 -5 20 -7 -12 -8 -13 -11 7 -11 7 0 15 0 14 -10 0 -10 0 0 -12 0 -13 -10
15 -10 15 0 -12 0 -13 -11 0 -12 0 -21 23 -22 24 -11 -12 -11 -12 -48 12 -49
12 -6 24 -7 24 -1 -22z"/>
<path d="M5015 6030 l-6 -10 15 0 16 0 0 10 0 10 -9 0 -10 0 -6 -10z"/>
<path d="M5115 6020 l-17 -19 16 -16 15 -16 11 -38 10 -37 26 -23 27 -23 -14
-9 -14 -8 -16 15 -16 15 -13 -17 -14 -16 15 -9 14 -9 28 0 27 0 1 18 1 17 2
30 1 30 23 -3 24 -4 -4 19 -4 18 -26 -3 -26 -2 -37 35 -37 36 13 15 12 14 -5
5 -5 5 -18 -20z"/>
<path d="M4444 6019 l-6 -11 9 -9 9 -9 27 12 27 13 0 8 0 7 -29 0 -30 0 -7
-11z"/>
<path d="M2310 5998 l-35 -9 -17 0 -18 0 -5 -10 -6 -9 -11 6 -11 7 -11 -15
-11 -15 -13 -4 -12 -4 92 0 93 0 105 -33 105 -34 10 -7 10 -8 35 -11 35 -12
-22 19 -23 19 0 6 0 6 18 -9 17 -9 88 -42 87 -41 0 -9 0 -10 13 0 12 0 76 -73
76 -72 55 -47 55 -48 39 -28 39 -28 60 -28 60 -28 20 -8 20 -9 40 -12 40 -12
35 -15 35 -15 26 -21 26 -21 17 -10 17 -10 -15 -30 -16 -30 0 -11 0 -11 -18
-16 -19 -17 -36 0 -37 0 0 8 0 7 -28 13 -28 12 -75 62 -74 62 -34 39 -34 38
-46 21 -46 20 -40 18 -40 18 -60 6 -60 6 33 -20 32 -20 11 0 10 0 26 -30 25
-30 9 6 9 5 0 -13 0 -14 20 -14 20 -14 0 -17 0 -17 18 5 18 4 12 -23 11 -23 3
-30 3 -30 15 -12 15 -12 -12 -12 -13 -13 0 -14 0 -13 10 6 10 6 9 -24 9 -24
16 -6 16 -6 0 -15 0 -14 -9 -4 -9 -3 9 -22 8 -23 11 0 10 0 -5 28 -5 27 10
-24 10 -24 -5 -18 -6 -17 22 -7 21 -7 -6 -47 -6 -46 20 -13 20 -12 0 -21 0
-20 -9 5 -9 6 5 -20 5 -20 -16 0 -16 0 0 -11 0 -10 16 -16 16 -16 -5 -18 -5
-19 14 0 14 0 0 -10 0 -10 -17 0 -18 -1 18 -10 17 -10 0 -17 -1 -17 -14 -19
-15 -20 0 -8 0 -8 17 0 16 0 -19 -19 -19 -18 -7 11 -8 11 0 -9 0 -9 17 -19 16
-18 -26 0 -27 0 0 -14 0 -14 23 -6 22 -7 -21 -9 -22 -8 5 -25 5 -25 19 5 19 5
0 -21 0 -22 24 -26 25 -27 -1 -49 0 -49 20 -21 19 -22 -4 -12 -4 -11 10 -7 11
-6 0 -19 0 -19 -22 -4 -23 -4 23 -8 22 -7 0 -12 0 -12 -49 -13 -50 -13 -10
-12 -10 -12 2 -14 3 -15 17 -26 18 -27 29 -6 30 -5 0 -12 0 -11 -20 -5 -20 -5
0 -7 0 -6 20 -13 20 -12 0 -20 0 -20 20 0 20 0 0 -10 0 -10 -12 0 -11 0 16
-18 17 -19 0 -15 0 -16 6 -17 6 -16 29 -15 29 -15 0 13 1 13 10 -17 10 -18 15
0 16 0 30 -31 31 -31 18 5 19 5 -10 -18 -10 -18 14 -5 15 -6 3 -28 3 -28 19
55 19 55 9 6 9 6 -8 79 -8 79 1 555 0 555 9 145 8 145 -13 70 -12 70 -8 53 -8
53 -10 12 -10 12 -7 35 -7 35 -25 85 -25 85 -11 39 -12 40 -30 9 -30 10 -5 7
-5 6 -37 17 -36 17 -11 0 -11 0 -18 9 -17 9 -40 18 -40 18 -23 -3 -24 -3 -19
18 -19 18 -12 -12 -12 -12 -18 0 -18 0 0 -12 0 -13 9 -13 8 -14 8 19 7 18 8
-20 7 -20 24 -2 24 -2 20 -3 20 -3 12 -15 12 -15 1 -17 0 -18 9 0 8 0 -5 28
-5 27 15 -13 15 -12 16 5 15 6 16 -23 16 -22 0 14 1 15 26 -30 27 -30 9 3 9 3
-7 -19 -6 -19 10 -27 11 -26 -10 0 -10 0 -16 25 -16 25 -8 -5 -8 -5 -15 14
-15 15 -26 7 -26 6 0 -11 0 -11 -10 0 -10 0 -12 28 -11 27 -4 -17 -4 -18 -11
0 -10 0 5 14 5 13 -20 18 -21 17 7 -25 6 -25 -17 -6 -16 -7 -6 10 -6 9 -30 5
-30 5 -44 23 -43 24 -22 26 -22 26 -27 18 -27 17 5 8 5 8 -19 -5 -20 -5 -29
21 -30 21 -38 5 -39 4 -50 12 -50 11 -69 5 -69 5 -21 13 -21 13 -54 7 -54 7
-21 7 -21 8 -35 -9z m969 -340 l42 -1 5 -9 5 -8 20 0 20 0 5 -14 5 -14 30 -12
29 -12 0 -10 0 -9 9 5 9 6 6 -15 5 -15 -22 4 -22 5 -73 23 -72 24 -20 17 -20
17 -9 0 -9 0 -12 15 -12 14 8 12 7 12 12 -17 12 -16 42 -2z m281 -58 l0 -10
-10 0 -10 0 0 10 0 10 10 0 10 0 0 -10z m-200 -1160 l0 -10 -11 0 -10 0 6 10
6 10 5 0 4 0 0 -10z m39 -17 l-1 -28 -5 13 -5 12 -8 -5 -8 -5 5 20 5 20 9 0 9
0 -1 -27z"/>
<path d="M4570 5998 l0 -17 10 -6 10 -6 0 8 0 8 -10 15 -10 15 0 -17z"/>
<path d="M2110 5955 l0 -15 -14 0 -15 0 -6 10 -6 10 -10 0 -9 0 0 -19 0 -20
11 -7 11 -6 11 11 11 11 28 0 28 0 0 6 0 5 -14 15 -15 14 -5 0 -6 0 0 -15z"/>
<path d="M1987 5930 l-5 -20 17 0 18 0 6 6 6 6 -14 14 -14 14 -4 0 -5 0 -5
-20z"/>
<path d="M1902 5908 l4 -12 12 -4 12 -4 0 10 0 10 -16 6 -16 6 4 -12z"/>
<path d="M1940 5910 l0 -10 15 0 15 0 0 10 0 10 -15 0 -15 0 0 -10z"/>
<path d="M5050 5902 l0 -9 15 0 15 0 0 9 0 8 -15 0 -15 0 0 -8z"/>
<path d="M2164 5881 l6 -9 -14 -5 -14 -5 -10 10 -10 10 -10 -6 -10 -6 10 -28
11 -29 36 3 36 2 0 1 0 2 43 4 42 3 0 -9 0 -9 23 0 24 0 56 -11 57 -12 6 -23
6 -24 6 0 5 0 19 17 18 16 0 -11 0 -12 18 0 17 -1 19 -14 19 -15 14 11 13 11
0 -16 0 -16 10 0 10 0 0 11 0 10 10 -6 9 -6 -5 -13 -5 -13 20 -6 21 -5 0 13 0
14 9 5 9 6 15 -6 15 -6 17 -34 16 -34 24 0 25 0 0 25 0 24 -22 13 -23 12 -6
-1 -7 -2 -54 48 -55 47 -29 11 -29 11 -70 20 -70 20 -56 7 -56 6 -44 4 -43 4
-8 -12 -7 -12 -13 13 -12 12 -19 0 -18 0 5 -9z"/>
<path d="M4375 5880 l6 -10 5 0 4 0 0 10 0 10 -11 0 -10 0 6 -10z"/>
<path d="M3100 5871 l0 -10 10 -6 10 -6 0 10 0 10 -10 6 -10 6 0 -10z"/>
<path d="M4798 5863 l13 -5 6 6 6 6 -19 -1 -19 -1 13 -5z"/>
<path d="M4915 5860 l6 -10 27 -14 27 -13 42 -6 42 -5 13 17 12 16 -8 -7 -8
-7 -15 14 -14 15 -24 -6 -23 -6 -6 11 -7 11 -35 0 -35 0 6 -10z"/>
<path d="M4205 5833 l29 -26 4 13 5 13 -19 14 -18 13 -15 0 -16 -1 30 -26z"/>
<path d="M4045 5840 l6 -10 5 0 4 0 0 10 0 10 -11 0 -10 0 6 -10z"/>
<path d="M5450 5831 l0 -10 10 -6 10 -6 0 10 0 10 -10 6 -10 6 0 -10z"/>
<path d="M4757 5796 l-6 -14 20 5 19 5 0 9 0 9 -14 0 -14 0 -5 -14z"/>
<path d="M5324 5783 l7 -28 16 -12 17 -13 14 0 13 0 -6 23 -7 22 -22 17 -21
18 -9 0 -8 0 6 -27z"/>
<path d="M5200 5796 l0 -4 15 -6 15 -5 0 9 0 10 -15 0 -15 0 0 -4z"/>
<path d="M4700 5778 l0 -12 22 -32 22 -32 27 -16 27 -16 28 -37 29 -37 17 -17
17 -18 33 9 32 10 9 -9 9 -9 -14 -21 -13 -21 -21 0 -22 0 -12 15 -13 16 -29
-27 -28 -28 0 -12 0 -12 -11 -4 -10 -3 -11 -70 -11 -70 -1 -65 -1 -65 55 -3
55 -3 10 -10 9 -9 22 0 22 0 23 -25 24 -25 17 0 18 0 5 -27 6 -28 8 -27 9 -27
-12 -5 -11 -4 13 -10 14 -9 -1 -7 -1 -6 0 -9 0 -10 32 -15 31 -16 18 0 18 0 6
10 7 11 15 -12 14 -13 -4 -18 -5 -18 28 -15 29 -15 17 0 17 0 18 -16 18 -16
15 5 16 6 -6 15 -6 16 28 10 27 11 14 -5 13 -5 0 -20 0 -20 10 -6 11 -7 14 12
15 12 0 67 0 67 -16 22 -16 23 -13 -11 -14 -12 -10 6 -10 6 -6 -10 -6 -10 -23
6 -23 5 -6 -20 -5 -21 13 -8 12 -7 5 -33 5 -33 -9 -5 -8 -5 -22 15 -22 16 -18
-17 -18 -16 -6 6 -6 5 21 21 21 21 0 14 0 15 -27 29 -28 29 -32 12 -32 13 4
19 4 19 -6 0 -6 0 -18 -22 -19 -21 0 7 0 7 -16 -15 -15 -16 -14 0 -13 0 10 41
11 41 33 35 34 36 0 7 0 7 18 16 19 17 6 0 7 0 0 -19 0 -20 -10 -6 -10 -6 5
-9 6 -9 14 5 14 6 46 -32 45 -31 16 -24 15 -23 14 -6 14 -5 43 40 43 39 7 0 8
0 -1 99 0 99 -30 13 -30 12 -30 44 -30 43 -25 16 -24 16 0 19 0 18 -10 6 -10
6 0 7 0 8 25 2 24 2 6 -10 6 -10 26 0 27 0 22 -21 23 -21 10 7 11 6 0 17 0 17
-42 20 -42 20 16 3 16 3 6 16 6 16 -4 4 -5 5 -35 -13 -35 -13 -7 6 -6 6 6 19
6 20 28 -4 27 -4 15 10 15 10 -15 15 -15 15 -27 6 -26 7 -7 -21 -6 -20 -20 -6
-19 -6 -19 6 -19 6 -6 -10 -7 -10 -14 6 -15 5 0 9 0 9 25 0 25 0 0 8 -1 7 -40
28 -39 27 -19 -12 -20 -12 -25 12 -26 12 0 14 0 14 -16 13 -16 13 -27 -33 -27
-33 -25 7 -24 8 -13 18 -13 19 -15 0 -14 0 0 14 0 14 -37 -10 -38 -10 -9 -9
-10 -9 10 0 10 0 1 -19 2 -19 -20 5 -20 6 -39 38 -39 39 -11 0 -10 0 0 -12z
m316 -123 l25 -25 10 0 10 0 -7 11 -7 12 18 -11 18 -10 27 8 27 8 29 -14 29
-14 12 -27 13 -27 -4 -3 -4 -4 -88 10 -89 9 -3 -2 -3 -3 10 -25 9 -24 55 -1
54 0 13 -8 13 -8 38 0 39 0 11 -13 10 -13 -10 -20 -11 -19 -30 -7 -30 -6 -20
6 -20 6 0 20 0 19 -7 0 -8 -1 -15 -12 -16 -12 -16 -23 -16 -23 20 -40 19 -41
50 7 49 7 7 -17 6 -18 -10 -16 -10 -16 -22 -3 -22 -4 -14 12 -15 12 -16 -6
-16 -6 6 -25 6 -25 -4 0 -5 0 -26 12 -25 11 0 8 0 7 -47 5 -48 6 -62 7 -62 6
-10 29 -10 29 10 6 10 6 18 -16 18 -16 64 0 64 0 33 41 34 40 -10 12 -10 12
-36 69 -36 69 11 13 10 12 -37 26 -38 25 18 7 18 7 -14 8 -13 9 28 0 28 0 25
-25z m302 -67 l11 -11 -21 -19 -21 -18 -19 0 -18 0 0 20 0 19 18 10 17 10 11
1 10 0 12 -12z m-386 -137 l33 -29 24 -4 24 -3 4 -11 4 -12 -28 -5 -28 -6 -19
-3 -19 -3 -23 44 -24 43 6 9 5 9 4 0 4 0 33 -29z m408 -156 l0 -25 -14 0 -15
0 -6 10 -7 11 6 14 5 15 16 0 15 0 0 -25z m86 -37 l6 -19 -18 -20 -17 -19 -14
11 -13 12 2 37 3 37 22 -10 23 -10 6 -19z"/>
<path d="M4490 5751 l-35 -6 36 -22 36 -23 32 0 31 0 11 -24 11 -24 27 -12 26
-12 25 -14 25 -13 -3 -14 -2 -14 20 -18 19 -18 10 25 10 25 1 14 2 14 -1 24
-1 23 -17 -6 -17 -7 6 7 7 6 -19 20 -19 21 -16 -7 -16 -6 7 -11 6 -11 -18 10
-19 10 -17 21 -18 21 -20 0 -21 0 -27 13 -27 13 -35 -5z"/>
<path d="M4474 5669 l-7 -11 16 -57 16 -56 6 -28 6 -28 16 3 16 3 14 40 14 40
-3 28 -3 28 -42 24 -42 25 -7 -11z"/>
<path d="M1940 5625 l0 -15 9 0 9 0 6 15 5 15 -14 0 -15 0 0 -15z"/>
<path d="M2638 5523 l12 -5 13 5 12 5 -25 0 -25 0 13 -5z"/>
<path d="M2750 5510 l0 -10 10 0 10 0 0 10 0 10 -10 0 -10 0 0 -10z"/>
<path d="M1700 5486 l0 -14 19 -23 20 -24 12 12 12 12 -13 16 -13 16 -19 10
-18 10 0 -15z"/>
<path d="M4335 5449 l-7 -10 6 -6 5 -5 16 5 15 6 0 11 0 10 -14 0 -15 0 -6
-11z"/>
<path d="M4497 5328 l-6 -23 8 -8 9 -9 7 22 7 22 -10 10 -9 9 -6 -23z"/>
<path d="M4767 5173 l-7 -6 0 -41 0 -41 20 25 20 25 0 11 0 12 -13 11 -14 11
-6 -7z"/>
<path d="M4928 5058 l-2 -33 2 -29 2 -28 15 -21 15 -21 0 -19 0 -18 22 3 23 3
3 20 3 20 11 22 11 21 -23 37 -23 37 -20 19 -21 19 -8 0 -8 0 -2 -32z"/>
<path d="M4817 5034 l-29 -44 3 -27 3 -28 -7 -13 -8 -12 -9 0 -8 0 -6 16 -6
15 11 21 11 20 -6 5 -5 6 -20 -45 -19 -44 -26 -119 -27 -119 -14 -31 -13 -30
-11 -66 -11 -66 0 -14 1 -14 14 19 15 20 1 25 1 26 9 -32 10 -33 13 0 13 0 6
57 6 56 -10 18 -9 18 0 25 0 25 25 68 24 68 18 12 18 12 18 18 18 18 -6 22 -5
22 23 16 23 15 22 39 22 39 0 15 0 15 -22 14 -23 15 -28 -43z"/>
<path d="M4320 4947 l0 -14 18 -16 19 -17 20 0 21 0 6 15 5 15 -5 15 -6 15
-39 0 -39 0 0 -13z"/>
<path d="M5077 4852 l-17 -19 0 -6 0 -7 24 0 24 0 5 13 4 12 -5 13 -4 12 -8 0
-7 0 -16 -18z"/>
<path d="M5350 4780 l11 -20 13 0 14 0 6 -15 5 -15 11 0 10 0 0 25 0 26 -12 3
-13 4 -28 6 -28 7 11 -21z"/>
<path d="M5388 4702 l-18 -3 0 -12 0 -12 9 -13 8 -13 12 15 13 15 -4 13 -3 14
-17 -4z"/>
<path d="M5262 4668 l-11 -33 1 -44 1 -44 -14 -11 -15 -11 -11 -40 -12 -40 -6
-27 -5 -28 9 0 9 0 -5 -80 -6 -80 14 -16 13 -16 2 -37 1 -36 -18 -37 -19 -37
0 -37 0 -36 20 5 20 5 0 -43 0 -44 -10 -6 -10 -6 5 -9 6 -9 -21 -13 -20 -13 0
-8 0 -8 9 5 9 6 4 -11 3 -10 -3 -41 -4 -40 -17 -5 -17 -4 -21 -42 -21 -42 -16
-90 -16 -90 -6 -45 -7 -45 -25 -55 -26 -55 -1 -37 -1 -38 -12 -12 -13 -13 6
55 5 55 1 68 1 67 14 53 14 52 0 28 0 27 -9 0 -10 0 -8 -12 -8 -13 -1 -35 -1
-35 -1 -17 -2 -17 -13 -13 -13 -13 -12 -55 -12 -55 -14 -26 -13 -26 5 -31 4
-32 -14 0 -14 0 -11 11 -12 12 -15 -6 -16 -6 0 -20 0 -20 23 -12 22 -12 4 -3
3 -3 -35 -48 -35 -48 -20 -18 -19 -18 3 -49 3 -50 15 -29 15 -29 -15 -46 -16
-46 12 -15 11 -14 -10 -38 -10 -38 -11 -83 -11 -83 6 -19 6 -19 -11 -20 -10
-21 15 6 16 7 -23 -47 -22 -46 -6 0 -7 0 0 -110 -1 -110 -13 -16 -13 -16 -8
-51 -8 -52 -1 -18 0 -18 19 -17 19 -17 13 -42 13 -42 -12 -15 -12 -15 10 -19
10 -19 10 -64 11 -64 0 -90 1 -90 -10 -105 -9 -105 -33 -88 -33 -87 -24 0 -25
0 9 -112 8 -113 1 -55 0 -55 -22 -3 -23 -3 0 -25 0 -24 20 -12 20 -13 0 -33 0
-33 -27 2 -28 3 -23 20 -22 20 6 18 5 18 -15 22 -16 22 0 34 0 33 35 142 34
142 5 42 4 43 16 16 16 15 0 15 0 14 -14 0 -13 0 -6 28 -5 27 7 35 7 35 16
-29 15 -30 13 24 13 24 3 51 3 50 10 28 10 27 -5 15 -6 15 11 47 11 48 3 93 4
93 -17 12 -16 12 -8 12 -7 13 10 18 10 19 -6 37 -6 36 -12 -10 -12 -10 3 -30
4 -30 -8 0 -8 0 -12 -33 -12 -33 0 -17 0 -16 21 -6 20 -7 -5 -15 -6 -15 0 -8
0 -8 -20 -5 -21 -5 7 -29 6 -28 24 -71 24 -71 0 -37 0 -37 -15 -29 -16 -30 -8
0 -9 0 -7 41 -7 41 -11 -11 -11 -11 -8 0 -8 0 0 19 0 19 17 30 16 29 -8 19 -9
19 -4 -25 -4 -25 -11 -7 -10 -6 -15 -74 -14 -73 -3 -32 -3 -31 -7 -12 -7 -11
0 -44 0 -44 -13 -11 -13 -11 -7 -58 -7 -57 -29 -11 -29 -11 0 -16 0 -16 25
-12 25 -11 0 -18 0 -18 -15 -15 -15 -15 -9 -23 -8 -23 10 -22 10 -22 -8 -18
-8 -18 2 -9 2 -9 -14 -36 -15 -36 -17 -85 -17 -85 -20 -38 -19 -39 2 -33 3
-33 -14 -17 -15 -18 3 -19 3 -19 -11 -15 -12 -14 5 -27 5 -27 -10 -25 -11 -26
-13 -30 -12 -30 -7 -26 -6 -26 71 -7 71 -6 9 5 8 5 7 37 7 37 15 44 15 44 -21
20 -21 19 10 19 10 19 0 37 0 38 -28 -32 -29 -32 -10 0 -10 0 0 30 0 29 14 5
13 5 0 16 0 15 18 33 17 32 35 3 35 3 25 28 25 28 17 -16 17 -17 -6 -22 -5
-22 11 0 11 0 0 13 1 12 10 -17 10 -18 -10 -19 -10 -18 -11 -49 -11 -48 12
-69 11 -69 -15 -15 -15 -15 -11 6 -11 7 0 20 0 20 -22 -3 -23 -3 0 -15 0 -15
14 3 13 3 -4 -31 -5 -30 13 0 13 0 3 -27 3 -28 60 2 60 2 418 0 417 1 0 128 0
128 -20 17 -20 16 6 15 6 14 14 6 14 5 0 702 0 701 -17 -7 -18 -7 -40 -14 -40
-13 -77 -10 -77 -11 -16 7 -17 6 8 36 7 36 -1 19 -1 19 -10 10 -10 10 -25 -20
-25 -20 5 -6 6 -6 13 5 13 5 6 -9 5 -9 -11 -39 -11 -39 -9 25 -10 25 -5 -12
-5 -13 -13 0 -13 0 -8 -18 -7 -17 1 -6 1 -6 -44 -22 -44 -22 -9 -32 -10 -32 0
-24 -1 -23 -5 -6 -6 -5 -5 5 -5 5 15 114 14 114 5 45 5 45 6 60 6 60 21 175
20 175 3 240 2 240 13 65 13 65 8 9 9 10 0 23 0 23 11 0 11 0 -6 -22 -7 -23
-14 -264 -14 -264 5 -50 4 -50 5 -6 6 -5 5 19 5 20 22 11 22 11 82 42 83 43
36 0 35 0 50 17 49 18 6 6 6 6 -7 38 -7 38 -13 -18 -12 -17 -16 0 -15 0 10 43
10 42 -5 43 -5 44 5 18 5 18 17 5 18 4 6 35 5 35 -5 64 -6 64 -16 12 -16 11
-17 -9 -17 -9 -8 0 -9 0 -12 33 -12 33 0 22 0 21 10 6 10 6 0 15 0 14 -19 0
-19 0 -23 20 -24 19 11 1 12 0 -5 35 -5 35 37 0 37 0 -5 38 -5 37 15 45 15 45
-11 28 -11 28 -10 -6 -10 -6 -6 16 -7 16 30 32 30 32 7 28 6 27 25 -16 25 -16
0 398 0 399 -9 14 -9 14 -31 -5 -31 -5 0 6 1 6 14 19 15 20 -6 20 -7 21 -7 5
-7 5 -21 89 -21 88 -3 2 -3 3 -36 26 -36 27 -6 0 -5 0 -10 -32z m89 -591 l-11
-11 0 16 0 16 7 19 8 18 3 -24 4 -23 -11 -11z m-81 -569 l0 -38 -9 0 -9 0 -6
16 -6 16 1 51 1 52 13 -30 14 -30 1 -37z m-25 -272 l50 -13 3 -16 3 -17 -31 0
-30 0 -10 -25 -10 -25 -15 0 -16 0 -28 -15 -29 -14 -12 14 -12 15 7 27 6 27
15 34 14 34 22 -7 23 -7 50 -12z m-222 -750 l6 -14 -14 -5 -13 -6 -5 6 -6 5 6
14 5 14 8 0 8 0 5 -14z m-48 -1007 l7 -30 6 5 5 6 19 -17 18 -16 0 -10 0 -9
-24 4 -25 5 -5 -13 -5 -14 7 1 7 1 20 -2 20 -2 -12 -5 -13 -5 0 -14 0 -14 -10
0 -10 0 0 -16 0 -15 -12 7 -13 7 12 -13 12 -13 -25 -19 -24 -19 0 -37 -1 -37
-13 -30 -14 -30 -11 28 -11 28 13 19 12 20 8 0 8 0 -5 8 -4 7 14 110 14 110 5
23 5 22 9 0 9 0 7 -31z m-401 -154 l5 -15 -14 0 -15 0 0 15 0 15 9 0 9 0 6
-15z m26 -154 l0 -20 -10 -6 -10 -6 0 -20 0 -19 -15 0 -15 0 0 19 0 20 10 25
10 26 15 0 15 0 0 -19z m274 -213 l-8 -33 2 -8 2 -8 -10 6 -10 6 0 14 0 14 10
27 11 27 5 -6 6 -6 -8 -33z m-334 -45 l0 -27 -11 11 -12 12 6 15 6 16 6 0 5 0
0 -27z m317 -45 l-5 -13 0 25 0 25 5 -12 5 -13 -5 -12z m-47 -35 l0 -23 9 0
10 0 7 11 7 12 8 -15 8 -15 -8 -77 -9 -77 -6 -6 -6 -6 -18 16 -19 17 -20 0
-21 0 -6 15 -5 15 8 23 9 23 -9 17 -10 16 27 52 26 52 9 -14 9 -14 0 -22z m15
-320 l-5 -78 -6 -95 -5 -95 -13 -75 -13 -75 -7 75 -8 75 16 110 15 110 12 63
12 62 4 0 4 0 -6 -77z m-474 -310 l-7 -27 -12 -4 -12 -4 0 21 0 20 18 10 17
10 2 1 1 0 -7 -27z m436 -145 l-5 -13 -1 19 -1 19 6 -6 6 -6 -5 -13z m-487 -8
l0 -10 -10 0 -10 0 0 10 0 10 10 0 10 0 0 -10z"/>
<path d="M5035 4530 l-6 -10 25 -31 26 -31 0 -48 0 -48 6 -16 6 -16 -16 0 -16
0 0 -30 0 -30 10 0 10 0 0 -24 0 -24 15 -12 15 -12 6 16 6 17 -5 45 -5 44 29
37 29 36 0 26 -1 26 -12 16 -12 15 -34 12 -33 12 -9 -6 -9 -5 6 14 5 14 -15
12 -14 12 -7 -11z"/>
<path d="M4970 4453 l0 -27 15 20 14 19 1 8 0 7 -15 0 -15 0 0 -27z"/>
<path d="M3206 4321 l-8 -12 6 -6 6 -6 6 6 6 6 -4 12 -4 13 -8 -13z"/>
<path d="M3161 4291 l-14 -9 7 -10 7 -11 14 6 15 5 0 14 0 14 -7 0 -8 0 -14
-9z"/>
<path d="M4746 4271 l-19 -21 5 -5 4 -5 19 13 18 14 -4 12 -5 13 -18 -21z"/>
<path d="M5062 4140 l-22 -21 0 -59 0 -59 18 -10 17 -11 -14 -9 -14 -9 7 -35
7 -35 14 -6 15 -5 0 32 0 32 14 26 14 27 -5 28 -4 29 -3 49 -3 50 -9 3 -10 3
-22 -20z"/>
<path d="M4695 4070 l-6 -10 10 0 10 0 6 10 6 10 -10 0 -10 0 -6 -10z"/>
<path d="M3292 3879 l-13 -21 3 -3 4 -4 13 8 13 8 -4 17 -3 17 -13 -22z"/>
<path d="M4636 3872 l-8 -33 6 -7 6 -6 10 10 9 9 -8 30 -8 30 -7 -33z"/>
<path d="M1850 3806 l0 -26 10 0 9 0 -14 -41 -15 -42 0 -4 0 -4 9 5 8 5 -4
-27 -5 -27 -1 -30 -2 -30 -17 -17 -18 -18 0 -17 -1 -18 -14 -25 -13 -25 10
-12 10 -13 9 0 9 0 0 15 0 15 10 0 10 0 -2 8 -2 7 12 40 12 40 0 33 0 32 15 0
15 0 0 -16 0 -16 13 11 14 11 8 -8 8 -7 -7 20 -8 20 -5 34 -6 34 11 -6 10 -7
-5 20 -5 19 -19 6 -18 6 -3 36 -3 36 -12 5 -13 4 0 -26z"/>
<path d="M5167 3814 l-7 -7 0 -31 1 -31 15 29 16 28 -9 9 -9 9 -7 -6z"/>
<path d="M4977 3793 l-4 -8 6 -17 6 -17 15 9 15 9 -16 17 -17 16 -5 -9z"/>
<path d="M5010 3696 l-13 -25 11 -28 10 -28 7 -20 6 -20 21 47 20 47 -7 18 -8
18 1 8 2 7 -18 0 -19 0 -13 -24z"/>
<path d="M4892 3584 l3 -17 13 -5 14 -4 -4 18 -3 17 -13 5 -14 4 4 -18z"/>
<path d="M5464 3500 l-11 -25 -7 -75 -7 -75 -5 -35 -5 -35 -5 -23 -5 -22 28
-26 28 -26 3 91 3 91 -3 93 -3 92 -11 -25z"/>
<path d="M1524 2781 l-7 -34 10 -15 9 -15 27 -1 28 -2 4 21 4 20 5 35 6 35
-10 -15 -10 -15 0 11 0 12 -30 -2 -30 -1 -6 -34z"/>
<path d="M1644 2663 l-19 -38 -19 -4 -20 -3 -14 -15 -14 -14 -12 4 -11 4 -9
31 -9 32 -22 0 -23 0 -21 -40 -21 -41 0 -19 0 -19 18 -10 17 -9 40 -7 40 -8
28 -14 28 -14 19 6 20 6 0 13 0 14 15 12 15 12 0 35 0 34 15 5 15 6 0 23 0 22
-19 17 -19 17 -18 -38z"/>
<path d="M33 2623 l-13 -5 0 -9 0 -9 20 0 20 0 0 -10 0 -9 15 5 15 6 -21 19
-22 19 -1 -1 -1 -1 -12 -5z"/>
<path d="M1260 2550 l0 -10 10 0 10 0 0 10 0 10 -10 0 -10 0 0 -10z"/>
<path d="M15 2480 l-6 -35 5 -90 5 -90 0 -1 1 -2 28 2 28 1 28 22 28 22 -7 11
-6 10 -19 0 -19 0 -6 9 -5 10 -1 51 -2 51 -11 12 -12 12 -11 20 -11 19 -7 -34z"/>
<path d="M4274 2445 l-6 -36 5 -5 6 -6 10 7 11 6 0 29 0 29 -9 6 -10 6 -7 -36z"/>
<path d="M170 2340 l0 -10 9 0 10 0 6 10 6 10 -15 0 -16 0 0 -10z"/>
<path d="M4251 2303 l0 -28 9 20 9 20 0 8 1 7 -10 0 -10 0 1 -27z"/>
<path d="M142 2294 l-23 -24 11 0 10 0 0 -18 0 -18 -30 -17 -30 -18 -14 -34
-15 -34 8 -28 7 -28 29 -14 28 -13 9 16 9 16 10 -5 9 -6 -10 25 -9 25 9 6 10
6 0 85 0 84 10 0 10 0 0 10 0 10 -7 -1 -8 0 -23 -25z"/>
<path d="M5438 2305 l-5 -5 -74 -20 -74 -20 -47 0 -48 0 0 14 0 14 -16 6 -16
6 -9 0 -9 0 0 -15 0 -15 -10 0 -10 0 0 -12 0 -11 18 16 19 17 13 0 13 0 -23
-20 -23 -20 -21 -1 -21 -1 -15 -2 -14 -1 -7 -25 -7 -25 -16 -140 -16 -140 0
-22 0 -23 36 0 35 0 47 11 47 10 17 10 18 9 19 0 19 0 4 9 3 8 53 7 52 7 0
-11 0 -10 -26 0 -25 0 5 -9 6 -9 22 6 21 5 -7 -11 -7 -12 -15 0 -14 0 0 -10 0
-10 -45 0 -45 0 2 -12 3 -13 25 -16 25 -16 28 2 27 2 65 1 65 2 0 65 0 65 -10
0 -10 0 0 15 0 15 10 0 10 0 0 170 0 170 -18 0 -19 0 -5 -5z"/>
<path d="M4235 2233 l5 -33 -11 0 -11 0 6 -16 6 -17 -11 -13 -11 -14 10 0 11
0 12 40 12 40 -12 22 -11 23 5 -32z"/>
<path d="M78 2005 l-6 -10 0 -42 -1 -43 25 0 24 0 -10 18 -10 17 -8 35 -8 34
-6 -9z"/>
<path d="M15 1871 l-6 -39 6 -49 6 -48 5 -27 5 -27 15 6 14 5 0 13 0 12 29 54
28 54 8 33 7 32 -15 0 -16 0 -15 -15 -15 -15 -5 0 -6 0 0 19 0 19 -16 6 -16 6
-3 0 -3 0 -7 -39z"/>
<path d="M4597 1593 l-7 -6 0 -16 1 -16 10 18 11 19 -4 4 -5 4 -6 -7z"/>
<path d="M4096 1322 l-5 -9 14 0 15 0 0 9 0 8 -9 0 -10 0 -5 -8z"/>
<path d="M4294 1249 l-6 -11 10 -10 11 -11 15 6 16 6 0 16 0 15 -19 0 -20 0
-7 -11z"/>
<path d="M4205 1088 l-7 -33 2 -30 2 -30 4 -4 4 -4 4 4 5 5 7 62 6 62 -10 0
-9 0 -8 -32z"/>
<path d="M4290 1081 l-10 -20 0 -20 0 -21 18 0 17 1 25 14 25 14 -13 1 -12 0
-10 25 -10 25 -9 0 -10 0 -11 -19z"/>
<path d="M4340 831 l0 -30 -10 -6 -10 -6 4 -22 3 -22 -8 -17 -9 -17 11 -28 11
-28 5 15 6 15 15 18 15 17 -13 41 -14 41 11 16 10 17 -4 13 -5 12 -9 0 -9 0 0
-29z"/>
<path d="M150 816 l0 -25 -16 -15 -15 -16 -24 0 -24 0 -6 10 -6 10 -20 0 -19
0 0 -126 0 -125 18 3 17 3 13 -8 12 -8 0 24 0 25 15 12 15 13 19 -17 18 -17
13 16 12 15 14 0 14 0 0 10 0 10 -12 -3 -13 -2 2 30 2 29 -10 7 -11 7 11 6 11
7 0 -10 0 -11 11 0 10 0 -7 12 -8 13 28 -23 29 -22 8 0 9 0 0 15 0 14 -14 -5
-14 -5 -6 34 -6 34 5 16 6 15 -31 36 -32 36 -9 0 -9 0 0 -24z m-60 -125 l0
-17 12 -12 12 -12 -13 0 -13 0 6 -30 6 -30 -15 0 -14 0 -10 18 -9 17 -3 25 -3
25 13 23 12 23 10 -6 9 -6 0 -18z"/>
<path d="M363 832 l-23 -3 0 -10 0 -9 19 -17 19 -18 23 -17 23 -18 11 0 11 0
16 13 17 12 -47 35 -47 36 -22 -4z"/>
<path d="M287 725 l-17 -16 0 -22 0 -22 8 12 8 12 22 8 22 9 -13 18 -13 18
-17 -17z"/>
<path d="M4243 703 l-13 -5 0 -14 0 -14 9 0 9 0 6 16 6 17 -2 2 -3 2 -12 -4z"/>
<path d="M3290 679 l0 -20 10 6 9 6 -6 14 -5 15 -4 0 -4 0 0 -21z"/>
<path d="M4220 618 l0 -23 10 15 10 15 0 8 0 7 -10 0 -10 0 0 -22z"/>
<path d="M2812 492 l3 -50 7 5 8 4 0 39 0 39 -11 6 -10 7 3 -50z"/>
<path d="M3288 534 l-8 -7 0 -72 0 -72 25 5 25 4 0 8 0 8 -15 12 -14 12 -3 55
-3 55 -7 -8z"/>
<path d="M83 468 l-4 -8 6 -10 6 -10 10 6 10 6 19 -17 19 -17 10 7 11 6 0 25
0 24 -41 -2 -41 -3 -5 -7z"/>
<path d="M3360 454 l0 -15 10 6 10 6 -5 10 -6 9 -5 0 -4 0 0 -16z"/>
<path d="M268 403 l13 -5 6 6 6 6 -19 -1 -19 -1 13 -5z"/>
<path d="M600 383 l0 -18 10 -15 9 -15 13 13 13 13 -11 16 -10 17 -12 4 -12 4
0 -19z"/>
<path d="M20 323 l1 -68 34 39 35 39 0 6 0 6 -35 23 -35 22 0 -67z"/>
<path d="M3370 309 l12 -21 5 6 5 5 -5 16 -6 15 -11 0 -11 0 11 -21z"/>
<path d="M815 310 l-6 -10 -29 0 -29 0 -22 -32 -23 -33 -14 -14 -13 -13 3 -17
3 -16 17 -3 17 -3 17 33 17 33 15 11 15 11 -6 17 -6 16 18 0 19 0 33 15 34 14
-27 1 -27 0 -6 -10z"/>
<path d="M3730 273 l-24 -28 -1 -20 -1 -20 -2 -27 -2 -27 -18 -18 -18 -18 -21
-30 -20 -30 -6 -17 -6 -18 104 0 105 0 0 21 0 22 12 41 11 41 9 9 8 10 0 13 0
14 -39 -32 -39 -31 -11 6 -10 6 0 76 0 76 -4 4 -4 4 -23 -27z"/>
<path d="M1553 245 l-5 -16 5 -5 6 -6 10 7 11 6 0 15 0 14 -10 0 -11 0 -6 -15z"/>
<path d="M3910 230 l0 -10 10 0 10 0 0 10 0 10 -10 0 -10 0 0 -10z"/>
<path d="M4108 157 l-8 -19 0 -31 1 -32 10 18 10 17 -3 33 -3 32 -7 -18z"/>
<path d="M420 70 l0 -10 10 0 10 0 0 10 0 10 -10 0 -10 0 0 -10z"/>
<path d="M21 38 l-1 -38 41 0 41 0 -4 13 -4 12 -32 9 -31 10 -4 15 -5 16 -1
-37z"/>
</g>
</svg>
