<?xml version="1.0" standalone="no"?>
<!DOCTYPE svg PUBLIC "-//W3C//DTD SVG 20010904//EN"
 "http://www.w3.org/TR/2001/REC-SVG-20010904/DTD/svg10.dtd">
<svg version="1.0" xmlns="http://www.w3.org/2000/svg"
   viewBox="0 0 468.000000 632.000000"
 preserveAspectRatio="xMidYMid meet">
<metadata>
Created by potrace 1.16, written by Peter Selinger 2001-2019
</metadata>
<g transform="translate(0.000000,632.000000) scale(0.100000,-0.100000)"
fill="#006400" stroke="none">
<path d="M2315 6298 l-30 -11 -25 -11 -24 -11 -16 -15 -17 -15 -24 -21 -24
-21 -15 -20 -15 -19 -21 -30 -20 -29 -7 -18 -7 -17 -24 6 -24 6 -23 -34 -23
-33 -19 -20 -19 -20 -20 -39 -20 -40 -13 -13 -13 -13 -4 12 -4 12 -12 -8 -12
-7 -19 -42 -20 -42 -30 -32 -29 -32 -36 -72 -36 -72 0 -40 0 -41 22 -32 23
-33 21 -10 22 -10 23 6 24 5 -22 -16 -21 -16 -2 -137 -1 -138 -8 -40 -8 -40
-27 -69 -26 -68 0 -23 0 -23 -15 -12 -15 -12 0 -18 0 -18 10 -4 11 -3 -17 -40
-16 -39 12 -53 13 -52 -21 -66 -22 -65 0 -17 0 -16 -22 -36 -23 -36 -19 -22
-20 -23 -18 0 -18 0 0 -14 0 -14 -67 -55 -68 -56 -115 -113 -115 -114 -90 -98
-90 -98 -52 -39 -53 -39 -40 -62 -40 -62 0 -12 0 -12 -15 -12 -15 -12 0 -28 0
-28 -7 -4 -8 -3 -32 -67 -33 -68 -15 0 -15 0 0 -8 0 -7 -94 -63 -94 -63 -5
-21 -6 -20 -13 4 -13 5 -3 32 -3 32 11 52 12 52 3 112 4 112 9 18 9 18 13 70
14 70 9 13 10 12 2 103 3 102 21 78 21 79 4 46 5 47 11 35 11 35 10 50 10 50
4 35 4 35 6 35 6 35 25 95 26 95 7 20 8 20 11 33 10 32 -11 0 -11 0 16 13 17
12 5 55 6 54 8 8 9 9 -7 44 -7 44 7 8 7 8 12 42 12 43 -10 18 -10 19 29 72 30
73 12 64 11 64 -6 6 -6 6 -26 -6 -25 -6 0 -10 0 -9 -20 -55 -21 -54 -40 -62
-40 -62 -14 -76 -15 -77 -20 -60 -20 -60 -16 -80 -16 -80 -14 -35 -13 -35 -10
-50 -9 -50 -26 -125 -26 -125 -10 -40 -11 -40 -3 -30 -3 -30 -11 -65 -11 -65
-12 -125 -11 -125 -15 -70 -14 -70 -9 -85 -10 -85 -11 -95 -10 -95 -5 -40 -5
-40 -11 -65 -11 -64 -11 -11 -11 -11 -50 -29 -50 -29 -27 -28 -28 -28 0 -15 0
-14 21 -19 20 -20 41 -6 41 -7 7 -4 7 -4 -19 -113 -19 -113 -15 -80 -15 -80
-9 -75 -9 -75 -10 -60 -11 -60 -15 -105 -16 -105 -16 -110 -15 -110 -3 -40 -3
-40 -10 -112 -10 -111 -6 -11 -7 -10 -9 -104 -9 -105 -6 -24 -6 -25 17 -7 18
-7 12 16 12 16 7 37 7 37 13 15 12 15 7 45 6 45 15 45 14 45 10 40 11 40 2 35
3 34 18 19 19 19 -6 13 -5 14 15 73 15 73 15 53 16 53 -6 15 -5 14 7 0 8 0 12
45 12 45 0 35 0 35 -17 0 -18 0 1 52 1 53 7 39 8 40 14 20 14 20 0 21 0 21 14
45 14 44 16 54 16 53 -6 10 -7 10 11 7 11 6 5 50 5 50 10 58 10 59 6 19 6 19
33 15 33 16 19 17 19 17 45 24 45 24 51 33 50 33 33 33 33 33 40 53 40 52 19
0 18 0 3 32 3 33 25 12 25 12 30 35 30 34 35 45 35 46 23 12 22 12 0 11 0 12
21 14 21 15 21 20 22 20 45 55 45 55 25 20 24 20 18 20 17 20 21 25 22 25 28
41 29 41 88 82 87 81 11 -3 10 -4 -2 -19 -2 -19 9 -163 10 -164 20 -76 19 -77
5 -65 5 -65 10 -75 10 -75 -1 -269 0 -269 -35 -68 -35 -69 -5 -58 -5 -58 16
-100 17 -99 -6 -160 -6 -160 -1 -20 -1 -20 8 -165 8 -165 8 -17 9 -16 10 -115
10 -116 34 -113 35 -113 25 -104 26 -103 20 -33 21 -34 11 -3 12 -4 2 -115 3
-114 4 -45 5 -46 10 -39 10 -40 7 -95 7 -95 -1 -87 -1 -87 29 -33 29 -33 46
-13 46 -12 58 0 57 0 33 20 32 20 45 0 45 0 0 9 0 9 -6 16 -6 16 -43 0 -44 0
-16 -16 -16 -16 -64 -8 -64 -8 -33 12 -33 11 -17 10 -16 10 -4 138 -3 137 37
0 37 0 -9 -29 -8 -28 4 -74 5 -74 0 -43 1 -43 21 -8 22 -9 9 5 8 6 -4 41 -5
41 66 2 65 2 70 -15 69 -14 5 5 5 5 -21 23 -22 23 -77 14 -78 14 -41 -2 -42
-3 -4 31 -5 32 15 46 14 47 11 23 11 22 -18 13 -18 13 13 200 12 199 4 93 4
92 20 0 19 0 0 29 0 30 10 6 11 7 31 -31 32 -31 18 0 19 0 -6 -10 -6 -10 64
-66 65 -65 47 -4 47 -5 9 -6 9 -5 125 -4 125 -5 6 25 6 24 -7 10 -6 11 -19 0
-19 0 -6 -10 -7 -11 -21 8 -22 7 -85 -2 -85 -3 -62 30 -62 29 -31 31 -32 30
-19 6 -19 6 5 9 6 10 -53 55 -54 55 7 62 6 63 -9 119 -10 120 5 30 6 31 20 85
21 85 0 30 0 30 22 52 23 52 49 12 48 12 57 -8 56 -8 70 3 70 4 55 0 55 1 3
-35 4 -35 8 -10 8 -10 7 -60 7 -60 14 -34 14 -33 0 -47 0 -47 11 -60 11 -59 3
-15 3 -15 7 -75 7 -75 14 -49 14 -50 0 -31 0 -31 14 -19 13 -20 6 -87 7 -88
10 -47 11 -47 -3 -151 -3 -150 9 -115 9 -115 3 -60 4 -60 4 -39 5 -38 12 -14
11 -14 14 0 13 0 11 19 10 20 57 6 58 6 65 21 65 20 58 25 57 26 0 9 0 9 -16
6 -16 6 -36 -21 -37 -20 -35 -5 -35 -5 -19 -7 -18 -8 4 19 3 19 48 3 48 3 -3
17 -3 17 -39 6 -40 6 -17 22 -17 21 -7 48 -6 48 11 89 11 90 14 45 14 45 26
160 26 160 -6 75 -6 75 9 13 9 14 9 -2 9 -1 6 38 7 38 -5 8 -4 7 16 113 17
112 18 80 19 80 5 152 5 153 10 18 9 17 -24 40 -23 39 17 19 17 19 -28 22 -27
22 9 49 9 49 10 4 10 3 -24 57 -25 57 -33 70 -34 70 -12 90 -12 90 -3 170 -3
170 9 65 9 65 22 114 22 113 14 15 15 14 -11 24 -11 23 0 134 -1 133 -6 151
-6 151 12 79 13 79 0 153 1 152 6 -7 6 -8 86 -95 85 -95 17 -33 17 -32 61 -68
61 -67 49 -72 48 -73 52 -34 51 -35 38 -68 39 -68 56 -79 57 -79 48 -96 49
-96 42 -60 43 -60 0 -35 0 -35 -8 -6 -9 -6 -1 -26 -2 -25 -6 4 -7 4 -16 -40
-16 -40 1 -13 0 -12 10 20 9 20 -5 -34 -5 -35 -6 -5 -7 -6 -4 13 -5 13 -14
-26 -14 -27 0 -24 0 -24 -10 0 -11 0 6 -33 7 -33 -16 -35 -16 -34 5 23 5 22 6
20 6 20 -9 0 -9 0 -17 -48 -18 -48 7 -20 6 -19 -9 13 -10 13 -13 -41 -13 -40
19 -16 19 -15 -14 7 -14 7 7 -39 7 -39 -16 29 -15 28 6 9 5 9 -11 0 -12 0 7
-42 6 -43 -11 15 -12 15 6 -17 5 -18 -5 -15 -6 -15 -8 5 -8 5 -7 -32 -7 -33
-15 -29 -15 -28 12 -28 12 -29 30 -6 30 -7 28 27 29 27 11 49 12 48 19 38 19
37 0 22 0 22 15 38 16 39 9 16 9 17 -7 7 -7 6 -12 -33 -13 -33 4 38 5 37 -13
-12 -12 -13 -8 -20 -7 -19 -9 14 -10 15 0 8 0 7 15 0 15 0 0 15 0 15 9 18 9
17 10 25 11 25 20 47 20 48 -15 8 -14 8 14 42 15 42 21 22 20 22 0 20 0 21 8
-12 8 -12 12 8 13 8 3 14 2 14 9 16 10 17 13 -14 13 -14 -12 0 -11 0 6 -16 6
-15 -8 5 -8 5 -17 -20 -17 -19 0 -11 0 -11 15 12 16 13 -11 -27 -10 -27 -11
-20 -10 -20 -15 12 -14 12 -7 -6 -6 -6 15 -23 15 -23 -9 -27 -10 -28 -10 0
-10 0 6 -16 6 -16 -17 -29 -17 -29 -7 0 -7 0 5 -20 5 -20 -16 6 -16 6 0 -7 0
-6 14 -15 15 -14 20 46 21 47 0 9 0 9 25 55 25 55 0 13 0 13 30 59 30 59 0 8
0 8 28 35 27 34 17 0 17 0 6 21 7 20 -6 57 -7 57 19 60 19 60 -5 13 -4 12 -9
-6 -9 -5 0 40 0 41 9 0 9 0 5 19 5 20 -12 -5 -11 -5 -17 -34 -17 -34 10 -3 11
-4 -23 -19 -22 -20 7 20 6 21 -20 1 -21 2 5 -22 6 -22 -6 13 -6 12 -8 0 -8 0
-7 -39 -7 -40 -14 -12 -14 -11 0 -19 0 -19 -14 0 -14 0 -11 43 -10 42 -26 105
-26 105 5 37 6 37 -103 138 -104 138 -48 70 -47 70 -29 33 -29 33 0 28 0 29
-15 12 -14 12 -25 42 -25 43 -25 16 -24 16 -7 20 -6 20 -67 47 -67 47 -43 40
-43 39 -15 -6 -15 -6 -53 30 -53 30 -12 41 -12 41 -26 28 -25 29 -15 -6 -15
-6 -11 19 -11 19 -3 26 -3 27 -41 88 -42 89 1 19 1 19 -20 38 -19 38 0 13 0
13 35 -53 36 -52 10 0 11 0 -7 18 -8 17 -17 49 -18 48 -8 7 -9 6 -1 35 0 35
-8 15 -7 16 28 12 28 11 -21 -5 -21 -4 -12 14 -12 15 15 23 16 24 15 50 15 49
0 43 0 43 -15 29 -16 30 -12 0 -12 0 -2 46 -2 46 -15 17 -16 18 0 9 0 9 -11
38 -10 39 -15 -6 -14 -5 -1 22 -1 22 1 9 2 9 -23 44 -23 43 -17 0 -18 0 0 10
0 10 -32 30 -33 30 -54 37 -54 36 -19 19 -18 18 -9 0 -10 0 -13 13 -13 13 -60
19 -60 20 -30 1 -30 2 -85 5 -85 6 -30 -11z m35 -84 l0 -15 -10 6 -10 6 0 10
0 9 10 0 10 0 0 -16z m60 2 l0 -15 -9 -5 -9 -6 -5 20 -5 20 14 0 14 0 0 -14z
m104 -7 l10 -9 -7 -7 -7 -7 -12 12 -12 12 -18 0 -18 0 0 10 0 10 28 -6 27 -7
9 -8z m136 -39 l0 -10 -10 0 -10 0 0 10 0 10 10 0 10 0 0 -10z m9 -90 l1 -15
-10 15 -10 15 1 20 0 20 9 -20 9 -20 0 -15z m-169 9 l0 -21 -12 4 -13 5 -3 16
-3 17 15 0 16 0 0 -21z m-160 -22 l0 -8 -10 6 -10 6 0 17 0 17 10 -15 10 -15
0 -8z m270 12 l0 -9 -10 0 -10 0 0 16 0 15 10 -6 10 -6 0 -10z m117 -11 l-5
-13 -1 19 -1 19 6 -6 6 -6 -5 -13z m-697 -70 l-10 -23 -6 -17 -6 -18 -9 0 -9
0 0 6 0 7 21 33 21 34 3 0 4 0 -9 -22z m807 -4 l-6 -6 -13 5 -13 5 19 1 19 1
-6 -6z m-371 -83 l9 -9 25 -5 25 -4 -100 -1 -100 -1 -20 8 -20 8 78 -5 77 -5
0 12 0 11 8 0 8 0 10 -9z m119 -19 l-5 -6 -13 13 -12 12 18 -7 18 -6 -6 -6z
m195 8 l0 -10 -4 0 -5 0 -6 10 -6 10 10 0 11 0 0 -10z m-593 -6 l-6 -6 -13 5
-13 5 19 1 19 1 -6 -6z m46 -1 l-13 -5 -12 5 -13 5 25 0 25 0 -12 -5z m-262
-55 l-20 -33 -10 -3 -11 -4 0 10 0 9 25 27 24 26 7 0 6 0 -21 -32z m419 5
l315 -8 131 3 131 2 11 -25 11 -25 -5 -142 -6 -143 -10 -45 -9 -45 -9 -55 -10
-55 -2 -90 -2 -90 17 -56 17 -56 20 -26 20 -26 -10 -6 -11 -7 -57 -9 -57 -10
-80 -8 -80 -9 -33 -12 -34 -13 -69 12 -70 11 -19 -10 -18 -10 -210 -2 -210 -3
-8 8 -8 7 3 50 2 49 -12 41 -13 41 -18 10 -17 9 -28 88 -27 87 -3 135 -2 135
15 55 15 55 23 50 24 50 24 52 23 53 15 -5 15 -5 315 -7z m-520 -33 l0 -10
-10 0 -10 0 0 10 0 10 10 0 10 0 0 -10z m44 -69 l5 -8 -21 -44 -21 -43 -10
-68 -11 -68 -18 -6 -18 -5 0 -10 0 -9 -27 6 -28 6 -15 14 -15 14 18 68 18 67
32 33 32 34 30 13 30 13 7 1 7 1 5 -9z m1204 -135 l4 -29 -17 -61 -17 -61 -20
-22 -21 -22 -8 5 -9 5 0 57 0 57 7 53 6 53 36 -3 36 -3 3 -29z m-41 -309 l12
-42 -9 -9 -9 -9 -11 28 -11 28 5 14 6 14 -16 6 -16 6 13 8 13 8 6 -5 5 -5 12
-42z m-62 -33 l6 -36 -5 -5 -5 -6 -11 27 -10 27 0 15 0 14 9 0 9 0 7 -36z
m-1100 -120 l15 -36 0 -4 0 -4 -15 0 -15 0 0 -11 0 -10 -8 5 -7 4 3 46 4 46 4
0 4 0 15 -36z m1184 -66 l44 -93 17 -37 18 -37 -13 -5 -14 -5 -10 13 -11 13 6
6 6 5 -22 49 -21 48 -18 20 -18 20 -7 30 -7 30 -5 18 -5 17 8 0 9 0 43 -92z
m-1145 -22 l14 -35 3 -23 3 -23 -8 -56 -7 -57 -21 -18 -21 -19 8 65 7 65 -1
68 -2 67 5 0 6 0 14 -34z m-1273 -72 l-10 -37 6 -43 6 -43 -16 -48 -15 -48 -7
-50 -7 -49 -23 -81 -23 -80 -7 -55 -7 -55 -20 -90 -19 -90 -19 -100 -20 -100
-10 -50 -10 -50 -1 -75 -1 -75 -29 -116 -28 -116 -7 -124 -7 -124 -14 -13 -13
-13 -1 -27 -1 -27 2 -42 2 -43 -12 0 -11 0 -5 14 -5 13 16 129 16 129 10 115
9 115 9 35 10 35 15 95 15 95 15 130 15 130 24 115 24 115 8 50 7 49 30 116
30 115 10 55 10 55 9 10 9 9 0 21 0 21 14 45 14 44 7 29 6 28 5 -5 5 -5 -10
-38z m1144 -71 l-4 -48 -25 -100 -25 -100 -6 -37 -7 -37 -19 -17 -20 -18 6 70
6 69 11 40 10 40 22 49 21 49 0 6 1 6 13 38 13 37 3 0 4 0 -4 -47z m1285 -42
l31 -38 59 -49 60 -49 5 -27 6 -27 22 -7 22 -7 7 -11 8 -11 0 -8 0 -8 -19 6
-19 6 -33 -20 -34 -19 -50 -11 -50 -11 -70 -15 -70 -15 -155 -10 -155 -11
-115 -15 -115 -15 -50 -10 -50 -9 -40 -10 -40 -9 -95 -21 -95 -20 -90 -6 -90
-6 -102 -2 -103 -2 0 18 0 18 8 -1 7 -1 11 1 12 1 6 25 6 24 39 41 38 40 24 0
24 1 16 22 15 22 14 35 13 35 17 20 18 20 12 38 12 37 9 0 9 0 0 15 0 15 8 1
7 0 186 2 186 2 -45 -23 -45 -23 -26 -19 -27 -18 -15 8 -15 9 -59 -2 -60 -3
-3 -17 -3 -17 15 -30 14 -30 -9 0 -9 0 0 -10 0 -10 16 0 16 0 -5 -14 -6 -15
22 -7 21 -7 4 12 4 11 19 0 20 0 -5 9 -6 9 21 5 21 6 -6 9 -6 9 18 15 17 16
44 23 44 24 41 22 41 23 135 -5 135 -5 93 -6 92 -6 0 -15 0 -14 16 -6 17 -6
13 17 12 17 9 1 8 1 17 5 17 4 7 20 6 20 -19 18 -18 19 -14 17 -14 17 34 -6
34 -7 25 14 25 14 7 1 7 1 31 -39z m-175 -1 l-6 -10 -19 0 -19 0 -6 -10 -6
-10 -97 1 -97 1 40 9 40 8 60 9 60 9 28 2 28 1 -6 -10z m-1059 -47 l-6 -28 -6
-25 -6 -25 -2 -30 -2 -30 -13 -20 -12 -20 6 53 6 53 9 22 9 22 5 28 6 27 6 0
6 0 -6 -27z m1639 -311 l30 -17 37 -27 38 -26 86 -94 85 -93 26 -45 26 -45 23
-25 24 -25 48 -60 48 -60 64 -90 64 -90 27 -31 27 -32 17 -118 18 -119 8 -11
8 -10 3 -35 3 -34 -20 -3 -20 -3 -29 58 -29 58 -7 32 -8 32 14 5 14 5 -11 28
-10 28 -7 5 -7 5 -88 110 -87 110 -35 42 -35 41 0 19 0 18 -43 47 -42 47 -51
58 -51 58 -44 50 -44 49 -75 76 -75 75 -42 47 -43 48 0 14 0 13 68 -34 67 -35
30 -16z m-1309 -141 l-6 -9 -43 -6 -43 -7 -25 11 -24 10 25 -4 25 -4 25 8 25
8 23 1 23 1 -5 -9z m-423 -18 l7 -6 -21 -15 -20 -14 -6 6 -5 5 5 16 6 15 14 0
14 0 6 -7z m-103 -58 l0 -15 -14 0 -13 0 -24 -35 -24 -35 -7 0 -8 0 0 -13 0
-14 -72 -70 -73 -70 -16 -9 -15 -9 -34 -45 -35 -45 -55 -55 -56 -55 -51 -45
-52 -45 -28 -21 -28 -22 -15 -28 -15 -29 -29 -45 -30 -45 -44 -55 -43 -55 -42
-46 -42 -45 -23 -6 -22 -6 0 10 0 10 43 91 44 92 62 65 63 65 27 30 26 30 31
25 30 25 34 25 33 25 36 40 36 40 136 135 136 135 64 58 64 58 15 9 15 10 8 0
7 0 0 -15z m862 -36 l3 -10 99 -1 98 -1 -19 -11 -18 -10 -79 2 -78 2 -19 11
-19 10 -52 -7 -53 -7 7 7 6 7 49 9 48 8 12 1 11 1 4 -11z m498 -25 l0 -35 -10
6 -10 6 0 30 0 29 10 0 10 0 0 -36z m-862 19 l-18 -4 -22 4 -23 4 40 0 40 1
-17 -5z m1451 -53 l6 -5 20 -25 20 -25 -38 34 -37 35 0 15 1 16 11 -20 11 -20
6 -5z m-1321 -5 l-5 -5 -57 -15 -57 -15 -12 1 -12 0 70 23 70 23 4 -3 4 -4 -5
-5z m557 6 l-5 -10 -53 -11 -53 -12 -19 4 -20 5 25 6 25 5 50 10 50 9 3 2 3 1
-6 -9z m-342 -88 l-13 -5 -12 5 -13 5 25 0 25 0 -12 -5z m1207 -23 l10 -20
-14 6 -14 6 -6 14 -5 14 9 0 9 0 11 -20z m-1900 0 l0 -10 -7 0 -8 0 -15 10
-15 10 23 0 22 0 0 -10z m1140 0 l0 -10 -37 1 -38 0 20 9 20 9 18 0 17 1 0
-10z m80 -31 l0 -9 -10 0 -10 0 0 16 0 15 10 -6 10 -6 0 -10z m210 -19 l0 -20
-9 0 -10 0 -6 10 -6 10 6 10 6 10 10 0 9 0 0 -20z m-274 -52 l1 -53 -4 30 -5
30 -9 10 -9 9 0 13 0 13 13 0 13 0 0 -52z m804 22 l0 -10 -11 0 -10 0 6 10 6
10 5 0 4 0 0 -10z m-1472 -27 l-18 -4 -17 4 -18 5 35 0 35 0 -17 -5z m112 -37
l0 -4 -16 -6 -15 -6 6 10 6 10 10 0 9 0 0 -4z m577 -148 l-5 -13 -1 19 -1 19
6 -6 6 -6 -5 -13z m-23 -20 l-7 -33 -7 -55 -7 -55 -2 35 -1 35 6 53 7 52 9 0
10 0 -8 -32z m-584 -42 l0 -4 -20 -5 -20 -5 6 9 5 9 15 0 14 0 0 -4z m1640
-40 l30 -45 0 -18 0 -18 -21 40 -21 40 -14 16 -14 16 0 6 0 7 5 0 4 0 31 -44z
m-2855 -2 l-20 -14 -12 -17 -13 -17 0 20 0 19 23 11 22 12 10 0 10 1 -20 -15z
m1605 -23 l0 -20 -10 -6 -10 -6 0 25 0 26 10 0 10 0 0 -19z m-610 -51 l0 -20
-15 0 -15 0 12 20 13 20 2 0 3 0 0 -20z m130 -21 l-22 -30 -17 18 -17 18 20
11 21 12 18 1 18 1 -21 -31z m410 -20 l0 -29 -10 0 -9 0 1 35 1 34 9 -5 8 -5
0 -30z m-643 -31 l-5 -13 -1 19 -1 19 6 -6 6 -6 -5 -13z m610 -135 l-5 -18 0
35 0 35 5 -17 4 -18 -4 -17z m-327 23 l0 -5 -10 -6 -10 -6 0 10 0 11 10 0 10
0 0 -4z m419 -3 l0 -8 -9 -20 -9 -20 0 28 -1 27 10 0 10 0 -1 -7z m-42 -90
l-4 -28 0 55 0 55 4 -27 4 -28 -4 -27z m1710 55 l-5 -13 -1 19 -1 19 6 -6 6
-6 -5 -13z m-1510 -20 l-5 -13 0 25 0 25 5 -12 5 -13 -5 -12z m-542 -110 l-7
-133 -9 -50 -8 -50 4 70 4 70 7 113 7 112 5 0 5 0 -8 -132z m1845 111 l0 -20
-10 6 -10 6 0 15 0 14 10 0 10 0 0 -21z m-1300 -58 l0 -40 -7 -4 -8 -5 -3 44
-3 44 11 0 10 0 0 -39z m314 -28 l-7 -28 -8 -15 -8 -15 -1 27 0 26 6 16 6 16
9 0 9 0 -6 -27z m1031 -1 l-4 -4 -16 5 -15 6 0 11 0 10 20 -12 19 -12 -4 -4z
m-3555 -52 l0 -30 -41 -45 -42 -45 -12 0 -13 0 -6 16 -6 16 0 23 0 23 30 12
30 12 0 9 0 9 14 0 14 0 12 15 12 15 4 0 4 0 0 -30z m1990 -30 l0 -10 -11 0
-10 0 6 10 6 10 5 0 4 0 0 -10z m-2158 -97 l18 -16 0 -8 0 -8 -30 -15 -30 -15
-35 6 -35 6 0 8 0 9 15 0 15 0 22 25 22 25 10 0 9 0 19 -17z m1974 -30 l-6 -6
-6 6 -6 6 8 12 8 13 4 -13 4 -12 -6 -6z m360 -40 l-6 -6 -6 6 -6 6 8 12 8 13
4 -13 4 -12 -6 -6z m-2556 -52 l0 -10 -10 -6 -10 -6 0 15 0 16 10 0 10 0 0 -9z
m2864 -151 l6 -105 5 -85 5 -85 -17 45 -16 45 -4 160 -4 160 9 -15 9 -15 7
-105z m-907 78 l-5 -13 -1 19 -1 19 6 -6 6 -6 -5 -13z m113 -27 l0 -40 -10 -6
-10 -6 2 46 2 45 8 0 8 0 0 -39z m-2069 -143 l-10 -103 -14 -40 -15 -40 -16
-55 -16 -55 -16 -65 -17 -65 -8 -60 -8 -60 5 -85 6 -85 -27 -95 -26 -95 -16
-67 -16 -67 -9 5 -8 5 5 92 5 92 4 60 4 60 10 25 10 25 7 65 7 65 5 30 5 30 4
80 4 80 19 60 19 60 22 130 21 130 5 16 4 15 28 10 27 11 3 -3 4 -2 -11 -104z
m2546 70 l-5 -13 0 25 0 25 5 -12 5 -13 -5 -12z m40 -130 l-5 -13 -1 19 -1 19
6 -6 6 -6 -5 -13z m1154 -21 l-11 -11 0 20 0 21 8 7 7 8 3 -17 4 -17 -11 -11z
m-1611 -48 l0 -20 -10 6 -10 6 0 15 0 14 10 0 10 0 0 -21z m93 -11 l4 -33 -11
-7 -11 -8 -7 0 -7 0 4 38 3 37 1 3 1 2 9 0 9 0 5 -32z m1584 10 l-5 -13 -1 19
-1 19 6 -6 6 -6 -5 -13z m-10 -55 l-5 -18 0 30 0 30 5 -12 5 -13 -5 -17z
m-1687 -12 l0 -10 -10 -6 -10 -6 0 15 0 16 10 0 10 0 0 -9z m1654 -69 l5 -9
-14 0 -14 0 5 9 5 8 4 0 4 0 5 -8z m-84 -6 l0 -5 -10 -6 -10 -6 0 10 0 11 10
0 10 0 0 -4z m-1860 -62 l0 -15 8 5 8 5 10 -7 10 -7 -13 -25 -13 -25 0 16 0
17 -15 12 -15 12 0 20 0 19 10 -6 10 -6 0 -15z m123 -51 l-13 -5 -12 5 -13 5
25 0 25 0 -12 -5z m475 -22 l14 -8 -24 -5 -24 -4 -13 4 -13 4 13 9 14 9 10 0
10 0 13 -9z m-328 -36 l45 5 -28 -11 -28 -11 -55 7 -54 6 0 9 0 8 38 -9 37 -9
45 5z m-380 -15 l0 -10 -4 0 -5 0 -6 10 -6 10 10 0 11 0 0 -10z m865 -40 l6
-10 -23 0 -23 0 -110 -4 -110 -4 100 12 100 13 27 2 27 1 6 -10z m-830 -10 l6
-10 -15 0 -15 0 -6 10 -6 10 15 0 15 0 6 -10z m925 -70 l0 -10 -10 0 -10 0 0
10 0 10 10 0 10 0 0 -10z m-523 -46 l-6 -6 -13 5 -13 5 19 1 19 1 -6 -6z m703
-39 l0 -15 -21 0 -21 0 12 15 12 15 9 0 9 0 0 -15z m-1160 -45 l0 -10 -31 0
-30 0 6 10 6 10 25 0 24 0 0 -10z m1275 -3 l18 -14 5 -150 5 -149 -18 -100
-17 -99 -9 -90 -9 -90 -10 -70 -11 -70 1 -85 1 -85 1 -40 1 -40 -12 -55 -11
-55 -109 -2 -109 -2 -5 77 -6 77 -1 352 0 351 -10 74 -11 73 3 65 2 65 -7 13
-8 12 38 1 38 0 74 22 75 22 41 2 41 3 19 -13z m-1453 -42 l16 -35 -29 0 -28
0 -6 9 -5 10 10 6 10 6 0 20 0 19 8 0 8 0 16 -35z m643 15 l6 -10 -33 0 -33 0
-25 -7 -25 -6 7 8 7 7 33 8 33 8 12 1 12 1 6 -10z m315 -10 l15 -10 -10 -1
-10 -2 -87 -1 -86 -1 3 3 3 3 63 8 64 8 15 2 15 1 15 -10z m-232 -7 l-18 -4
-22 4 -23 4 40 0 40 1 -17 -5z m342 -38 l0 -25 -10 0 -11 0 -6 16 -6 16 14 9
14 9 3 0 2 0 0 -25z m-835 -3 l19 -10 -76 1 -77 2 7 7 7 6 20 4 20 5 31 -2 30
-2 19 -11z m-230 -52 l-6 -10 -10 0 -9 0 0 10 0 10 16 0 15 0 -6 -10z m127 0
l19 0 -7 -22 -7 -23 -7 -5 -8 -5 -17 -65 -17 -65 -9 -15 -8 -15 -2 25 -1 25
-4 29 -5 28 16 18 17 19 -7 23 -7 23 -17 19 -16 19 34 -6 34 -7 19 0z m127
-16 l4 -3 2 -154 2 -153 9 -20 9 -19 -3 -118 -3 -118 -12 3 -12 4 -33 50 -34
49 -15 0 -16 0 -11 -18 -11 -18 28 -25 28 -24 -5 0 -4 0 43 -45 44 -44 6 -185
5 -185 -7 -4 -8 -5 -51 -7 -52 -7 -8 54 -8 53 2 18 2 17 -30 93 -29 92 -10 83
-11 84 10 42 9 42 6 85 7 84 17 60 18 60 28 97 28 97 31 -6 31 -6 4 -3z m790
-40 l21 -27 0 -23 0 -23 16 -9 16 -9 2 -202 1 -201 -6 0 -6 0 -6 43 -5 42 -17
115 -16 115 -20 97 -19 96 0 6 0 6 9 0 10 0 20 -26z m-688 -116 l-9 -33 -1 27
-1 26 7 18 7 18 3 -11 4 -11 -10 -34z m-406 -114 l5 -79 13 -10 14 -10 7 -110
7 -110 4 -30 5 -30 -20 55 -21 55 -9 105 -10 105 -8 41 -9 41 -7 11 -7 12 11
21 12 21 4 -5 4 -4 5 -79z m1421 -858 l-5 -49 -11 -11 -10 -10 0 12 0 12 -14
0 -14 0 -11 -14 -12 -14 -4 -73 -5 -74 -8 -35 -9 -35 -6 15 -5 15 -6 38 -5 37
9 0 8 0 9 43 9 42 -1 48 -2 49 -14 9 -14 9 -10 -3 -10 -4 -12 -59 -12 -59 5
-40 5 -40 0 -15 -1 -15 0 -77 -1 -78 -8 0 -7 0 -12 12 -12 12 0 61 0 62 6 134
7 135 26 -4 26 -3 40 9 40 9 29 -1 28 -1 -6 -49z m-1207 -113 l-1 -128 -9 40
-8 40 0 88 -1 87 10 0 10 0 -1 -127z m94 35 l5 -73 -7 -90 -8 -90 -1 65 -2 65
-7 98 -6 97 10 0 10 0 6 -72z m1027 -270 l0 -8 -10 0 -10 0 0 23 0 22 10 -15
10 -15 0 -7z m28 -126 l14 -47 5 -41 5 -42 -52 -11 -51 -11 -12 0 -12 0 -3 58
-3 57 -2 29 -2 28 45 17 45 18 5 -4 4 -4 14 -47z"/>
<path d="M1982 5623 l3 -17 30 -17 30 -18 27 -6 26 -7 4 19 4 18 -39 23 -39
22 -25 0 -24 0 3 -17z"/>
<path d="M2377 5583 l-5 -8 -7 -48 -7 -47 12 -15 12 -15 -11 0 -11 0 0 -10 0
-10 15 0 15 0 0 14 0 14 15 12 15 12 0 48 0 48 -16 6 -16 6 -3 0 -4 0 -4 -7z"/>
<path d="M2780 5565 l-35 -13 -22 -1 -23 -1 0 -15 0 -15 25 -6 25 -6 32 11 32
11 23 16 24 15 -6 9 -6 10 -17 -1 -17 -1 -35 -13z"/>
<path d="M2291 5436 l-12 -14 22 -15 21 -15 14 5 14 5 0 14 0 13 -19 11 -20
10 -4 0 -5 0 -11 -14z"/>
<path d="M2420 5411 l0 -19 15 -12 15 -12 15 6 15 5 0 15 0 15 -19 11 -20 10
-10 0 -11 0 0 -19z"/>
<path d="M2330 5160 l0 -19 18 -5 17 -5 42 -6 42 -7 21 12 22 12 -13 13 -14
13 -67 5 -68 6 0 -19z"/>
<path d="M3162 743 l3 -16 13 -5 12 -4 0 21 0 21 -16 0 -15 0 3 -17z"/>
<path d="M3160 5400 l-15 -9 23 2 22 1 0 8 0 8 -7 0 -8 0 -15 -10z"/>
<path d="M3200 5055 l0 -4 14 -43 13 -43 13 -45 13 -45 21 -18 20 -19 4 10 3
10 -22 74 -22 73 -8 10 -9 9 0 18 0 18 -20 0 -20 0 0 -5z"/>
<path d="M4503 3805 l-5 -16 4 -5 5 -5 6 21 5 20 -4 0 -5 0 -6 -15z"/>
<path d="M4485 3707 l5 -27 -11 2 -11 3 -9 -23 -9 -23 10 6 10 6 0 15 0 15 9
-6 10 -5 5 9 6 9 -10 24 -10 23 5 -28z"/>
<path d="M4470 3626 l0 -16 10 0 10 0 0 9 0 10 -10 6 -10 6 0 -15z"/>
<path d="M4426 3594 l-17 -36 4 -4 4 -4 10 12 10 13 7 28 6 27 -3 0 -3 0 -18
-36z"/>
<path d="M4230 2969 l0 -14 9 -13 8 -14 6 15 6 16 -15 11 -14 12 0 -13z"/>
</g>
</svg>
