<?xml version="1.0" standalone="no"?>
<!DOCTYPE svg PUBLIC "-//W3C//DTD SVG 20010904//EN"
 "http://www.w3.org/TR/2001/REC-SVG-20010904/DTD/svg10.dtd">
<svg version="1.0" xmlns="http://www.w3.org/2000/svg"
   viewBox="0 0 175.000000 146.000000"
 preserveAspectRatio="xMidYMid meet">
<metadata>
Created by potrace 1.16, written by Peter Selinger 2001-2019
</metadata>
<g transform="translate(0.000000,146.000000) scale(0.100000,-0.100000)"
fill-opacity="0.2" fill="#000000" stroke="none">
<path d="M591 1439 l-21 -23 0 -28 0 -29 14 -27 14 -27 21 -19 21 -19 0 -12 0
-13 -14 -11 -13 -11 -6 -34 -5 -34 14 -48 14 -47 0 -14 0 -13 -13 0 -12 0 -62
63 -61 62 -54 35 -55 35 -13 25 -13 25 -6 50 -6 50 -14 0 -14 0 -16 -29 -16
-29 -8 2 -7 1 -8 0 -9 0 -11 25 -12 25 -16 0 -16 0 6 -32 7 -33 2 -45 2 -45
45 -7 45 -6 51 -25 50 -25 28 -37 28 -37 -10 -10 -11 -11 -68 28 -68 27 -54
22 -53 21 -14 32 -14 32 0 25 0 25 -12 26 -12 26 -15 -3 -16 -3 -3 -54 -3 -53
-22 6 -22 6 -22 6 -23 6 0 -20 0 -20 16 -6 16 -6 21 0 22 0 15 -10 15 -9 -28
-29 -27 -28 0 -17 0 -17 13 0 13 0 20 15 19 14 27 1 27 0 6 -10 6 -10 24 0 24
0 6 -9 5 -10 38 -11 37 -12 40 -18 40 -19 72 -32 72 -32 18 7 17 7 -6 -7 -7
-7 62 -29 62 -29 25 -12 25 -13 53 -74 52 -75 33 -33 32 -34 52 -30 53 -30 25
-30 25 -30 0 -12 0 -13 -23 -26 -23 -27 -13 0 -14 0 -31 -24 -32 -24 -27 -51
-28 -51 6 -20 6 -20 15 0 14 0 41 40 41 40 34 0 34 0 40 36 41 37 2 -4 3 -4
13 -55 12 -55 6 -83 6 -83 -36 -30 -37 -30 0 -14 0 -14 19 -11 20 -10 29 0 29
0 15 18 16 17 15 31 16 31 -5 6 -6 5 2 69 2 68 0 35 1 35 -8 61 -8 62 22 7 21
6 58 -6 57 -7 45 -20 45 -20 20 -7 20 -8 43 -22 44 -21 20 0 19 0 27 32 27 31
12 35 13 34 -11 19 -10 19 -7 0 -8 0 -12 -12 -12 -12 0 -15 0 -14 -16 -18 -15
-17 -57 18 -57 18 -45 12 -45 12 -25 9 -25 9 -70 9 -70 10 -84 88 -85 88 -51
62 -51 62 -39 27 -39 26 -47 14 -47 14 -11 13 -11 14 -37 17 -38 17 -24 67
-24 67 -4 50 -4 50 18 26 18 26 19 27 19 27 0 40 0 41 -29 28 -29 29 -36 6
-37 7 -21 -23z"/>
<path d="M1215 1444 l30 -15 5 -9 5 -8 80 -40 80 -41 103 -21 103 -20 56 -26
57 -25 8 -12 8 -12 0 77 0 77 -47 27 -48 27 -27 18 -27 19 -208 0 -208 0 30
-16z"/>
<path d="M1592 1178 l-12 -12 0 -11 0 -12 39 -43 39 -44 13 -39 13 -39 12 -5
12 -5 21 12 21 11 0 76 0 76 -19 -17 -18 -17 -37 41 -36 40 -18 0 -18 0 -12
-12z"/>
<path d="M108 663 l-3 -28 -17 -3 -18 -3 -16 15 -15 16 -18 0 -18 0 -1 -70 0
-70 12 0 13 0 49 -32 49 -32 55 -51 55 -51 45 -31 45 -31 51 -56 52 -56 -5 0
-4 0 17 -17 17 -17 -13 -4 -12 -4 -36 18 -37 19 -5 5 -5 6 -60 19 -60 19 -26
18 -26 17 -69 28 -69 28 -10 7 -11 6 2 51 2 51 -9 0 -9 0 0 -88 0 -87 93 -50
92 -50 41 -11 41 -11 49 -25 49 -25 55 -27 55 -27 25 -14 25 -15 133 0 133 0
-43 51 -43 51 -33 37 -33 36 -31 48 -31 48 -4 97 -5 97 -24 46 -23 47 -38 31
-38 31 -20 0 -20 0 -12 -8 -12 -7 -10 -28 -11 -28 0 -33 0 -32 26 -53 26 -52
19 -12 19 -12 0 -13 0 -14 -42 7 -43 6 -25 28 -25 28 -25 29 -25 29 -34 25
-34 25 -29 27 -28 26 15 35 14 34 -8 29 -7 29 -21 3 -22 3 -3 -28z"/>
<path d="M1504 319 l7 -41 -36 6 -35 7 0 -10 0 -10 30 -16 29 -15 20 0 20 0 6
-9 5 -10 -20 -6 -20 -6 0 -15 0 -14 5 0 4 0 25 11 25 12 23 -6 23 -6 24 -22
24 -23 44 -6 43 -7 0 23 0 22 -30 11 -30 10 0 10 0 11 -40 20 -40 20 -22 30
-22 30 -13 0 -14 0 -5 14 -6 14 -15 6 -16 6 7 -41z"/>
<path d="M1384 232 l-6 -32 -29 0 -29 0 0 -14 0 -15 19 -6 19 -6 11 -13 12
-14 -38 -19 -38 -20 -3 -18 -4 -18 34 7 33 6 52 6 52 7 33 -16 33 -16 23 -25
22 -26 85 0 85 0 0 19 0 20 -30 14 -29 15 -43 7 -43 7 -43 14 -44 14 -33 26
-34 25 -16 26 -17 26 -2 13 -2 14 -12 12 -12 12 -6 -32z"/>
</g>
</svg>
