<?xml version="1.0" standalone="no"?>
<!DOCTYPE svg PUBLIC "-//W3C//DTD SVG 20010904//EN"
 "http://www.w3.org/TR/2001/REC-SVG-20010904/DTD/svg10.dtd">
<svg version="1.0" xmlns="http://www.w3.org/2000/svg"
   viewBox="0 0 123.000000 158.000000"
 preserveAspectRatio="xMidYMid meet">
<metadata>
Created by potrace 1.16, written by Peter Selinger 2001-2019
</metadata>
<g transform="translate(0.000000,158.000000) scale(0.100000,-0.100000)"
fill-opacity="0.2" fill="#006400" stroke="none">
<path d="M52 1563 l16 -18 3 -19 4 -19 13 -5 12 -4 0 25 0 24 -18 16 -19 17
-13 0 -13 0 15 -17z"/>
<path d="M1184 1545 l-16 -25 -49 -36 -49 -36 7 -11 6 -12 -8 7 -8 8 -36 -22
-36 -21 -75 -56 -75 -56 -65 -56 -66 -56 -104 -6 -105 -5 -72 -25 -72 -25 -44
-26 -44 -26 -45 -44 -45 -45 -37 -75 -36 -76 -20 -61 -19 -62 -37 -38 -38 -39
7 -6 7 -7 14 12 14 11 26 -10 27 -10 85 0 84 0 0 -43 0 -44 15 -49 16 -49 10
-143 9 -144 -20 -16 -20 -17 -6 -32 -6 -33 11 0 11 0 12 25 12 26 14 -3 15 -3
10 -30 10 -30 10 -13 10 -13 10 16 9 16 -11 13 -11 13 -20 58 -20 58 0 91 0
91 -16 65 -15 65 -9 55 -9 55 7 7 7 7 40 6 40 7 0 -114 0 -113 45 -122 45
-123 13 0 12 0 0 11 0 10 -19 42 -20 43 -26 69 -26 70 -6 66 -6 66 7 47 7 47
67 31 66 31 59 58 58 58 12 28 12 28 27 45 27 45 16 75 16 75 6 37 6 38 54 40
54 41 -7 11 -7 11 12 -7 11 -7 52 45 53 46 12 0 13 0 0 -9 0 -9 40 -32 39 -31
33 23 33 23 3 8 4 7 12 0 13 0 16 18 17 19 0 46 0 46 -11 7 -11 7 5 31 5 31 7
18 7 17 -16 0 -16 0 -16 -25z m-620 -781 l16 -6 0 -13 0 -13 -16 -6 -16 -6 -9
0 -9 0 0 25 0 25 9 0 9 0 16 -6z"/>
<path d="M0 1493 l0 -13 16 -40 16 -40 9 0 9 0 0 23 0 22 -25 30 -24 30 -1
-12z"/>
<path d="M907 795 l-49 -42 -21 -11 -22 -10 -79 -38 -78 -39 -6 -13 -5 -13 12
-12 11 -11 37 19 37 20 38 30 38 30 75 55 75 54 0 7 0 8 -7 4 -8 5 -48 -43z"/>
<path d="M892 662 l-60 -78 -18 -15 -17 -14 -29 -39 -28 -39 0 -14 0 -13 8 0
8 0 16 28 17 27 34 38 35 37 21 0 21 0 10 -25 9 -25 5 -110 5 -110 10 -19 11
-19 41 -36 42 -35 -27 -11 -27 -10 -9 0 -10 0 -16 -25 -16 -25 -12 0 -12 0
-25 -32 -24 -33 -17 -28 -18 -27 0 -5 0 -5 129 0 129 0 14 22 14 23 19 57 19
57 43 7 43 6 0 14 0 14 -40 -6 -40 -7 0 31 0 32 -26 -10 -25 -10 -31 0 -30 0
-29 21 -29 20 -11 21 -11 21 -8 116 -7 116 -13 28 -13 27 -13 0 -13 0 -5 8 -4
8 44 53 44 53 0 9 0 9 -9 0 -9 0 -60 -78z"/>
<path d="M0 201 l0 -201 65 0 65 0 0 24 0 24 -20 93 -20 94 -15 55 -15 55 -30
28 -30 28 0 -200z"/>
<path d="M1188 329 l-38 -37 0 -16 0 -17 16 -6 16 -6 25 25 24 25 -3 34 -3 34
-37 -36z"/>
<path d="M680 10 l-15 -10 35 0 35 0 -15 10 -15 10 -5 0 -5 0 -15 -10z"/>
</g>
</svg>
