<?xml version="1.0" standalone="no"?>
<!DOCTYPE svg PUBLIC "-//W3C//DTD SVG 20010904//EN"
 "http://www.w3.org/TR/2001/REC-SVG-20010904/DTD/svg10.dtd">
<svg version="1.0" xmlns="http://www.w3.org/2000/svg"
   viewBox="0 0 250.000000 233.000000"
 preserveAspectRatio="xMidYMid meet">
<metadata>
Created by potrace 1.16, written by Peter Selinger 2001-2019
</metadata>
<g transform="translate(0.000000,233.000000) scale(0.100000,-0.100000)"
fill="#006400" stroke="none">
<path d="M650 2327 l-5 -6 -50 -6 -50 -6 -45 -23 -45 -24 -46 -60 -46 -59 -33
-89 -32 -89 -9 -75 -8 -75 -1 -95 -1 -95 -13 -75 -14 -75 10 -18 9 -18 -9 -29
-10 -28 17 -16 18 -17 6 52 6 52 11 11 10 10 5 -6 5 -5 -10 -54 -10 -54 -6
-18 -6 -18 21 12 20 13 3 26 3 25 10 -3 10 -2 -4 -32 -3 -32 -9 -24 -10 -25 5
-4 4 -5 36 -2 36 -3 1 31 0 31 9 -20 9 -20 0 13 1 12 15 0 15 0 -6 -27 -6 -28
9 13 9 12 19 -20 18 -20 14 0 13 0 0 24 0 25 10 6 10 6 0 -38 0 -38 -63 -32
-62 -33 -55 -21 -55 -21 -25 -3 -25 -4 -59 -16 -60 -17 -62 -25 -63 -25 -16
-25 -17 -25 11 6 11 7 0 -19 0 -20 33 -24 32 -24 60 -36 60 -36 60 -32 60 -33
110 -57 110 -58 100 -32 100 -32 72 -3 73 -4 0 10 0 9 23 0 22 0 97 35 98 35
70 35 70 35 64 39 64 39 48 37 49 37 72 70 72 70 23 -8 23 -7 25 -23 25 -23
53 -44 53 -44 53 -67 53 -67 29 -57 28 -57 8 -5 7 -6 16 -37 15 -36 0 -13 0
-13 149 -150 149 -151 38 -49 38 -50 32 -63 32 -64 5 9 6 9 -20 32 -19 32 0
15 0 14 -17 10 -18 10 8 1 8 0 -28 38 -27 37 -67 80 -66 80 -88 85 -88 85 -20
45 -20 45 -58 100 -59 100 -46 50 -46 50 8 -14 7 -14 -12 7 -11 7 5 9 6 9 -23
26 -22 26 -13 -5 -13 -5 0 14 0 15 -7 0 -8 0 -29 25 -29 25 -25 0 -25 0 -54
30 -53 30 -63 16 -62 15 -25 4 -25 4 -80 15 -80 16 -50 25 -50 24 -16 28 -16
28 -2 35 -2 35 13 -13 12 -12 8 0 9 0 -11 19 -10 20 0 11 0 11 30 -22 30 -22
24 11 24 10 11 -11 11 -11 6 7 7 7 -11 42 -11 43 4 -32 5 -33 -8 0 -8 0 -17
68 -17 67 0 10 1 10 14 -19 15 -20 0 7 0 6 -21 35 -21 36 15 5 14 6 -13 37
-13 37 -1 17 0 17 -41 168 -42 168 -38 78 -38 78 5 13 5 13 -18 7 -18 7 -50
29 -50 30 -35 17 -35 17 -70 4 -70 4 -5 -5z m15 -28 l7 -10 -5 -5 -4 -4 -17 6
-16 6 6 9 5 9 9 0 9 0 6 -11z m113 -42 l42 -43 0 -12 0 -12 -7 0 -8 0 -21 18
-21 17 -11 20 -11 20 -1 -13 0 -13 -10 6 -10 6 0 25 0 24 8 0 8 0 42 -43z
m-145 7 l19 -25 8 -47 8 -47 2 25 1 25 8 -20 8 -20 -16 -12 -16 -12 -12 -1
-13 0 0 60 0 60 -9 0 -10 0 -4 18 -4 17 5 -57 5 -58 -12 0 -11 0 0 50 0 50
-10 0 -10 0 0 8 0 8 23 1 22 2 18 -25z m277 -51 l0 -15 -12 4 -13 5 -3 23 -4
24 16 -13 16 -13 0 -15z m-352 -60 l2 57 10 0 10 0 0 -75 0 -75 -11 0 -10 0
-14 34 -15 35 -10 6 -10 6 1 22 1 22 13 -30 14 -30 2 45 2 45 7 -60 7 -60 1
58z m410 45 l12 -12 0 -8 0 -8 -10 0 -9 0 -11 20 -11 20 9 0 8 0 12 -12z m-18
-42 l0 -9 17 -19 16 -18 -9 0 -10 0 -22 16 -22 15 0 32 1 32 14 -19 15 -20 0
-10z m-464 -73 l-6 -14 -7 4 -8 5 1 29 1 30 9 14 9 14 3 -33 3 -34 -5 -15z
m374 57 l0 -10 -4 0 -5 0 -6 10 -6 10 10 0 11 0 0 -10z m-424 -37 l-7 -38 -6
-19 -6 -20 -14 20 -15 19 7 -35 7 -35 6 -24 5 -24 -11 7 -11 7 6 14 5 15 -12
0 -12 0 5 14 6 15 -11 3 -11 4 10 30 11 29 10 -2 10 -2 6 29 6 30 11 0 11 0
-6 -37z m619 -107 l15 -51 4 -30 5 -30 11 -48 12 -48 -6 -6 -6 -6 -6 5 -6 6
-19 89 -19 88 -15 38 -15 37 0 16 0 16 15 -12 15 -13 15 -51z m-155 -10 l0
-15 30 -18 30 -17 0 -13 0 -13 -12 0 -12 0 -30 11 -31 11 -54 -8 -54 -9 -15
-24 -16 -23 32 7 32 7 0 -11 0 -11 40 0 40 0 -2 12 -3 12 52 4 52 4 13 -21 13
-21 12 0 13 0 0 -20 0 -20 -13 0 -14 0 10 -53 10 -54 -22 -74 -22 -74 -16 -40
-15 -40 -9 -22 -8 -22 -31 -16 -30 -16 0 11 0 11 -32 -4 -33 -4 -15 7 -15 7
-35 -9 -35 -10 31 -13 32 -13 7 -13 8 -12 -47 6 -46 7 -27 17 -26 17 -26 1
-26 0 -5 10 -5 10 23 3 22 3 0 6 0 6 -14 16 -13 16 -18 50 -18 50 -10 10 -10
10 -4 -13 -5 -12 -9 6 -9 5 0 10 0 10 10 -6 10 -6 0 18 0 18 -59 55 -59 55 5
30 6 30 8 11 9 11 -6 32 -7 32 22 6 21 5 0 8 0 7 41 6 41 5 13 19 14 18 1 -17
0 -18 14 0 15 0 6 10 6 10 20 0 19 0 0 10 0 10 24 0 24 0 4 -12 4 -12 18 7 17
7 -6 10 -6 10 10 0 11 0 0 -12 0 -13 8 11 7 11 24 13 24 13 12 -17 13 -16 5
20 5 20 21 0 21 0 0 -14z m-560 -134 l-8 -3 3 -57 3 -57 -8 35 -7 35 -2 -32
-1 -33 -11 0 -12 0 7 53 7 52 6 23 5 23 13 -18 14 -18 -9 -3z m776 -158 l14
-69 0 -14 0 -15 -9 10 -8 9 -17 68 -16 68 6 10 6 10 5 -4 4 -5 15 -68z m23 -9
l1 -10 -10 15 -10 15 1 15 0 15 9 -20 9 -20 0 -10z m-833 -70 l-7 -36 -7 5 -8
5 4 41 4 42 10 -10 11 -11 -7 -36z m160 -20 l17 -26 -6 -6 -7 -6 -15 13 -16
13 -10 19 -10 18 15 0 16 0 16 -25z m-171 -72 l-7 -48 -9 -9 -9 -10 0 20 0 19
6 38 7 37 9 0 10 0 -7 -47z m260 -4 l16 -30 -3 -17 -4 -17 -17 34 -17 34 0 14
0 13 5 0 4 0 16 -31z m-8 -81 l-5 -13 -1 19 -1 19 6 -6 6 -6 -5 -13z m479 -5
l-6 -6 -6 6 -6 6 8 12 8 13 4 -13 4 -12 -6 -6z m99 17 l6 -10 -10 0 -10 0 -6
10 -6 10 10 0 10 0 6 -10z m-280 -67 l-19 -13 -13 0 -13 0 0 8 0 9 23 10 22
11 9 -6 9 -5 -18 -14z m115 18 l0 -10 -11 -6 -10 -7 -6 5 -5 6 7 10 6 11 10 0
9 0 0 -9z m-340 -86 l43 -50 31 -1 31 0 33 -2 32 -2 0 -19 0 -19 -22 -6 -23
-6 18 -11 19 -11 32 6 33 6 23 25 23 25 29 0 28 0 17 35 17 35 14 0 14 0 -5
-14 -5 -14 24 -36 25 -36 14 0 15 0 42 -30 41 -30 26 0 26 0 69 -14 69 -15 8
-13 9 -13 0 15 0 15 9 -14 9 -14 11 7 11 7 13 -8 12 -8 15 -1 15 -1 21 -2 21
-1 29 -22 28 -23 15 0 14 0 4 -11 4 -11 -66 -64 -66 -63 -79 -57 -79 -57 -99
-51 -100 -51 -108 -36 -109 -36 -65 0 -65 1 -48 11 -47 10 -60 21 -60 21 -47
25 -48 25 -125 65 -125 65 -35 23 -35 23 -42 26 -41 25 -7 22 -7 21 13 9 14 9
85 26 85 26 9 9 10 9 22 0 22 0 68 21 69 21 84 40 84 40 -13 8 -13 8 6 9 6 10
-19 64 -20 64 0 3 0 3 14 -8 13 -8 43 -50z m9 46 l24 -18 -10 -6 -10 -6 -23
24 -23 25 9 0 9 0 24 -19z m425 -100 l-5 -5 -9 14 -10 15 0 10 1 10 14 -19 15
-20 -6 -5z m-234 -15 l0 -5 -10 -6 -10 -6 0 10 0 11 10 0 10 0 0 -4z"/>
<path d="M670 1898 l-34 -10 24 -19 25 -19 19 3 19 2 2 28 1 27 -11 -1 -10 -1
-35 -10z"/>
<path d="M493 1873 l-33 -17 0 -8 0 -8 26 0 25 0 20 -10 19 -11 35 7 35 6 0
29 0 29 -47 -1 -48 0 -32 -16z"/>
<path d="M810 1815 l13 -15 4 4 5 5 -7 10 -6 11 -11 0 -10 0 12 -15z"/>
<path d="M585 1779 l-7 -10 5 -6 6 -5 10 7 11 6 0 10 0 9 -9 0 -10 0 -6 -11z"/>
<path d="M950 1731 l-33 -51 -2 0 -2 0 -59 30 -58 29 -5 -5 -6 -5 40 -34 40
-34 13 -1 12 0 0 -14 0 -14 16 -6 16 -6 -6 24 -6 24 25 6 25 6 0 11 0 10 22
29 22 30 -11 11 -11 11 -32 -51z"/>
<path d="M571 1688 l-8 -23 -7 -27 -6 -28 7 0 8 0 18 31 17 31 0 19 0 19 -10
0 -10 0 -9 -22z"/>
<path d="M627 1694 l-7 -7 0 -24 0 -23 25 0 26 0 37 -16 37 -15 22 25 22 26
16 0 15 0 0 14 0 14 -49 -1 -50 -2 -7 -7 -7 -8 -13 11 -13 11 -18 -18 -18 -17
-5 22 -5 23 -8 -8z"/>
<path d="M846 1596 l6 -16 -20 0 -21 0 -6 10 -6 9 -47 -6 -47 -6 -52 -25 -53
-24 0 -7 0 -6 27 -12 27 -13 13 0 13 0 0 -9 0 -9 -12 -4 -12 -4 7 -12 8 -11
40 14 41 15 9 -6 9 -5 0 12 0 11 46 -7 47 -7 -6 16 -6 15 9 6 10 6 0 33 0 34
-15 12 -15 13 6 -17z m-11 -45 l5 -10 -9 -5 -9 -6 -86 -6 -86 -7 0 10 0 10 23
11 22 11 67 0 67 1 6 -9z"/>
<path d="M1180 1471 l0 -10 10 -6 10 -6 -6 15 -6 16 -4 0 -4 0 0 -9z"/>
<path d="M1475 778 l-100 -100 -113 -96 -113 -97 -67 -37 -67 -36 -18 -15 -17
-14 -58 -18 -59 -17 -39 19 -39 19 -60 34 -60 33 -169 114 -169 113 -4 0 -5 0
-98 69 -99 70 -20 10 -20 11 -5 -9 -6 -9 -35 -123 -35 -123 0 -289 0 -288 28
3 27 3 27 100 28 100 18 58 18 58 10 2 9 2 6 -140 7 -140 1 -22 1 -23 26 0 26
0 -7 83 -7 82 -9 17 -9 17 0 16 0 16 23 -3 22 -3 9 -113 8 -112 15 0 14 0 -6
83 -6 82 -5 22 -4 22 8 5 9 5 36 -6 37 -6 0 -68 0 -69 32 -13 33 -13 46 -3 47
-2 5 23 5 23 1 50 2 49 2 2 2 1 62 7 62 7 10 -38 11 -38 0 -62 0 -63 16 0 17
0 -7 86 -7 85 -6 15 -5 14 15 0 15 0 7 -100 8 -100 14 0 14 0 -7 104 -6 104
68 6 69 6 40 2 40 3 7 -50 6 -50 1 -62 1 -63 15 0 15 0 -7 116 -6 116 19 -4
19 -3 2 -90 3 -90 5 -23 5 -22 14 0 13 0 -4 83 -4 82 -2 33 -3 32 49 0 48 0
-6 -10 -6 -10 12 0 12 0 -5 -51 -5 -51 66 6 66 7 28 5 27 6 0 54 0 54 76 0 76
0 -7 -67 -6 -68 -5 -37 -6 -38 -1 0 -2 0 -40 -15 -40 -14 52 -1 53 0 4 23 5
22 4 86 4 87 7 11 7 11 9 -5 8 -5 -4 -58 -5 -57 -5 -15 -6 -15 -3 -43 -3 -43
12 4 11 4 7 81 7 82 6 10 6 10 5 47 5 48 15 113 15 113 9 24 10 25 14 0 14 0
82 -87 82 -88 10 3 9 2 -6 -10 -7 -11 20 -22 21 -22 15 -29 14 -28 72 -79 72
-78 49 -38 49 -37 0 -12 0 -12 -12 -5 -13 -5 143 -1 142 -1 0 15 0 16 -26 24
-27 25 11 0 11 0 -5 15 -6 15 -10 -6 -9 -6 -117 123 -117 123 -113 110 -114
111 -71 85 -72 84 -75 73 -75 73 -5 -1 -5 0 -100 -101z m-316 -469 l214 -10
66 6 66 6 20 4 20 4 12 -7 12 -8 -6 -23 -6 -23 -46 6 -46 6 -270 -9 -270 -9
-185 -17 -185 -16 -75 6 -75 6 -102 16 -103 16 0 25 0 24 18 -8 17 -8 195 -4
195 -4 100 12 100 12 15 9 15 9 45 -5 45 -5 214 -11z m91 -125 l0 -45 -27 3
-28 3 -3 43 -3 42 30 0 31 0 0 -46z m70 6 l0 -40 -25 0 -25 0 0 40 0 40 25 0
25 0 0 -40z m-890 -55 l0 -65 -6 0 -5 0 -20 10 -19 11 0 54 0 55 25 0 25 0 0
-65z m70 -2 l0 -63 -20 0 -20 0 0 58 0 59 5 5 5 5 15 0 15 0 0 -64z"/>
</g>
</svg>
