<?xml version="1.0" standalone="no"?>
<!DOCTYPE svg PUBLIC "-//W3C//DTD SVG 20010904//EN"
 "http://www.w3.org/TR/2001/REC-SVG-20010904/DTD/svg10.dtd">
<svg version="1.0" xmlns="http://www.w3.org/2000/svg"
   viewBox="0 0 290.000000 568.000000"
 preserveAspectRatio="xMidYMid meet">
<metadata>
Created by potrace 1.16, written by Peter Selinger 2001-2019
</metadata>
<g transform="translate(0.000000,568.000000) scale(0.100000,-0.100000)"
fill="#9E1A1A" stroke="none">
<path d="M222 5603 l-40 -78 -16 -47 -16 -48 -4 -77 -4 -78 -11 -91 -11 -92
-39 -168 -39 -169 -21 -100 -22 -101 3 -49 3 -50 13 75 14 75 32 130 33 130
12 70 13 70 9 45 9 45 10 110 10 110 10 60 11 60 25 65 26 65 29 58 30 57 -15
0 -14 0 -40 -77z"/>
<path d="M1840 5568 l-105 -112 -100 -100 -100 -99 -88 -74 -88 -73 -10 0 -10
0 -79 -80 -78 -80 -20 27 -20 28 -48 38 -49 38 -55 40 -55 39 -24 18 -24 17
-11 10 -11 10 -75 66 -75 66 -69 57 -69 56 -6 0 -6 0 -90 85 -90 84 -16 1 -15
0 -21 -42 -20 -43 -23 -60 -24 -60 -9 -6 -9 -6 2 -7 3 -6 -12 -58 -11 -57 -14
-126 -15 -126 -39 -174 -40 -174 -17 -95 -18 -95 -22 -70 -22 -70 -19 -75 -19
-75 0 -96 0 -96 13 -24 13 -24 47 -30 46 -29 17 0 18 0 -2 -10 -2 -9 24 -6 24
-6 8 -20 7 -20 -15 -23 -15 -24 7 -16 6 -15 -11 -7 -11 -7 9 -24 9 -24 22 91
21 91 0 20 0 20 14 40 14 39 5 134 6 135 11 122 10 123 34 87 33 88 28 115 27
115 8 20 8 20 7 29 6 29 11 -11 12 -12 4 -127 3 -128 3 -155 3 -155 4 -250 5
-250 27 -66 27 -66 0 -34 0 -35 -14 -20 -15 -21 -15 -90 -16 -89 -10 -145 -10
-144 0 -97 0 -98 -10 0 -9 0 0 -52 -1 -53 -1 -20 -1 -20 7 -200 6 -200 10 -29
9 -28 -6 -9 -5 -9 9 0 10 0 8 -48 8 -47 4 23 3 22 -14 48 -15 47 -1 130 -1
130 6 18 5 17 10 -5 9 -6 0 -60 0 -60 10 -92 9 -92 5 -108 5 -107 26 -77 27
-76 1 -34 2 -33 5 0 6 0 2 -18 2 -17 3 -15 4 -15 8 -30 8 -30 6 -5 6 -5 16
-62 17 -62 1 -112 2 -113 6 -9 6 -9 2 -202 1 -201 37 -107 37 -106 6 -49 7
-48 8 -11 9 -11 10 -49 10 -49 16 -90 15 -90 -5 -29 -6 -29 -34 -71 -35 -71
-55 -33 -56 -33 -46 -40 -45 -39 -7 0 -7 0 -48 -44 -48 -44 -32 -21 -32 -21
26 0 26 0 39 31 39 31 15 13 15 14 62 55 62 55 61 31 61 31 9 25 10 25 15 5
14 6 7 34 6 33 103 0 103 -1 11 -43 11 -44 0 -5 0 -6 -13 0 -14 0 -30 -37 -30
-38 -12 -22 -12 -23 40 -6 40 -6 5 -29 6 -29 6 -30 6 -30 -71 0 -70 0 -6 10
-6 10 -9 -5 -9 -5 -48 -11 -48 -10 -22 -2 -22 -2 -13 -13 -13 -14 110 8 110 8
40 -4 40 -4 43 1 43 1 5 4 5 5 -12 29 -12 29 -2 130 -2 130 -12 29 -12 29 -6
172 -6 172 12 94 12 94 3 120 4 120 -18 67 -19 68 -7 11 -7 11 -8 36 -8 35 20
62 19 63 -12 54 -13 53 1 295 2 295 17 55 17 55 2 20 3 20 8 44 7 44 13 31 13
31 12 75 12 75 8 20 7 20 27 3 26 2 0 -14 0 -14 23 -7 22 -7 10 -3 10 -2 21
-1 20 -2 49 -137 49 -136 -1 -18 -2 -17 31 -79 30 -78 24 -109 25 -109 -2 -16
-3 -16 12 -55 11 -55 6 -175 6 -175 6 -30 5 -30 26 -45 27 -45 18 -15 18 -15
-12 -34 -12 -33 8 -87 7 -86 7 -75 8 -75 2 20 3 20 14 -34 15 -34 24 -31 23
-31 21 -55 20 -55 17 -80 17 -80 0 -120 0 -120 -11 -39 -11 -40 17 -19 17 -19
-2 -88 -2 -89 32 -6 32 -6 20 -6 20 -5 -32 21 -33 21 0 29 0 29 31 12 30 13
-42 43 -43 44 -2 70 -2 70 8 0 8 0 -5 19 -5 19 103 -4 102 -3 20 -48 19 -48 9
-15 9 -15 11 -28 11 -28 19 6 18 6 22 -11 21 -12 83 -64 83 -64 15 0 15 0 37
-16 37 -15 5 4 4 5 -16 16 -16 16 -52 15 -52 15 -46 43 -46 42 -55 28 -55 28
-27 40 -26 41 0 8 0 8 -12 4 -13 5 2 45 2 46 -16 7 -17 6 14 9 15 10 -12 0
-13 0 0 38 1 37 9 45 9 45 7 180 7 180 -17 155 -17 155 -35 115 -34 115 -5 35
-5 35 -10 115 -10 114 10 56 9 55 18 110 17 110 -1 320 -1 320 -5 67 -5 66 -7
12 -7 11 0 37 0 37 -8 16 -9 16 9 89 8 89 17 83 17 82 9 0 9 0 0 -30 0 -30 17
-42 17 -43 15 -12 16 -12 5 -1 6 0 -4 71 -4 72 10 -7 11 -6 11 -34 11 -34 14
-5 13 -6 5 13 5 14 -10 43 -10 44 1 40 0 40 10 3 11 4 0 18 0 17 14 41 15 40
4 66 4 66 44 49 44 48 90 108 90 109 36 40 35 41 86 115 85 115 32 60 33 59
19 27 19 27 0 9 0 8 24 35 23 35 8 25 7 25 -25 -25 -24 -25 3 -6 3 -6 -23 -34
-23 -34 -24 -49 -24 -49 -27 -29 -26 -28 5 0 5 0 -26 -34 -26 -35 0 -10 0 -11
-8 0 -8 0 -32 -45 -32 -46 0 -9 0 -10 -21 -12 -20 -13 -21 -35 -21 -35 -59
-72 -58 -71 0 -5 0 -5 -97 -101 -98 -101 0 -88 0 -89 -29 -37 -28 -38 11 -51
12 -52 6 -30 6 -30 -16 13 -16 14 -17 46 -17 47 -15 15 -14 15 6 -50 7 -50 6
-44 6 -44 -14 5 -14 5 -12 34 -12 34 -1 40 0 40 -10 15 -9 15 -12 -12 -11 -11
-14 5 -14 5 0 -16 0 -16 -10 0 -10 0 0 11 0 10 -15 16 -16 15 -19 -17 -20 -18
0 -14 0 -14 -34 -50 -34 -51 -6 11 -7 10 7 28 7 28 13 15 13 15 10 28 11 28 5
27 5 27 21 57 21 56 51 64 52 63 38 56 38 56 39 43 40 43 0 5 0 4 30 45 30 44
0 12 0 12 50 85 50 85 20 66 20 66 0 12 0 11 28 0 27 0 50 -25 50 -24 26 -1
25 0 25 28 25 27 25 40 25 40 46 91 46 90 -3 38 -4 38 -14 16 -14 17 -25 45
-26 45 -149 150 -150 150 -33 50 -34 50 -70 95 -69 95 -105 103 -105 102 -16
0 -16 0 -105 -112z m190 -321 l25 -22 82 -92 82 -91 27 -44 27 -43 111 -113
111 -112 3 -10 3 -9 -35 -55 -35 -55 -19 -38 -19 -38 -38 -125 -37 -125 -33
-55 -32 -55 -34 -60 -33 -60 -11 -22 -11 -22 -33 -38 -32 -38 -83 -115 -82
-115 -23 -39 -24 -38 -25 81 -26 82 13 62 13 62 4 105 4 105 4 220 4 220 16
115 16 115 4 75 5 75 15 70 15 70 11 85 12 85 10 13 10 12 7 0 6 -1 25 -22z
m-126 -244 l-17 -13 -31 -4 -31 -5 -75 -10 -75 -9 -105 -17 -105 -17 -90 -19
-90 -18 -65 -6 -65 -5 -190 16 -190 16 -105 4 -105 4 -32 6 -33 5 0 20 0 20
48 -6 47 -5 130 -9 130 -9 115 -4 115 -3 100 0 100 1 65 7 65 8 65 9 65 9 133
26 134 25 9 5 9 6 42 7 43 8 4 -15 3 -15 -18 -13z m-128 -80 l-5 -18 -7 -67
-6 -68 -9 0 -8 0 -8 13 -8 12 -55 28 -55 29 -33 30 -34 29 4 3 3 3 70 10 70
10 43 1 43 2 -5 -17z m-1057 -50 l5 -3 -18 -18 -17 -17 -15 19 -14 20 0 8 0 8
28 -6 27 -7 4 -4z m652 -10 l2 -28 2 -110 2 -110 7 -450 7 -450 -8 -44 -8 -44
-14 -5 -14 -5 9 79 9 79 -1 185 -2 185 -6 373 -7 372 11 0 10 0 1 -27z m-839
-7 l17 -24 -18 -21 -18 -21 -7 0 -6 0 0 45 0 45 8 0 7 -1 17 -23z m408 15 l15
-1 1 -84 1 -85 -54 52 -53 51 0 9 0 9 20 28 20 28 18 -3 17 -3 15 -1z m382
-98 l2 -108 1 -40 2 -40 7 -430 8 -430 -7 -46 -7 -45 -19 -12 -18 -12 -45 -2
-45 -1 -13 -8 -13 -9 83 0 82 0 0 8 0 8 18 1 17 1 65 15 65 16 60 19 60 19 33
8 33 7 -5 14 -5 14 21 37 22 38 13 8 13 8 0 13 0 13 -50 47 -49 46 -11 0 -12
0 -19 -22 -18 -23 -1 -9 0 -10 -22 -45 -21 -46 -15 -17 -15 -18 -18 0 -17 0
-31 47 -31 46 0 61 1 61 17 -21 17 -21 20 -27 20 -28 15 6 15 6 18 61 18 62
26 58 26 59 8 0 8 0 -6 18 -7 17 24 -16 25 -16 68 -84 68 -84 5 -22 6 -23 15
0 15 0 -6 -22 -7 -23 -6 -51 -6 -51 -58 -19 -59 -19 0 -7 0 -8 4 0 3 0 43 15
42 15 9 -6 9 -5 0 11 0 11 9 -5 8 -5 17 -60 17 -60 8 -6 9 -5 -14 -53 -14 -54
-39 -84 -39 -85 -9 -34 -10 -35 23 -1 23 -2 40 62 40 61 25 30 25 30 9 -10 9
-10 -12 -100 -11 -100 13 -27 13 -27 0 -38 0 -38 10 -40 10 -40 5 -75 6 -75 2
-20 2 -20 -47 0 -48 0 0 -6 0 -6 -47 -7 -48 -7 -30 -15 -30 -14 27 5 28 5 4
-22 5 -23 10 -105 10 -105 7 -80 6 -80 2 -223 1 -223 -20 3 -20 3 -1 150 -2
150 -6 100 -7 100 -15 135 -15 135 -15 41 -15 41 -42 -7 -42 -8 -80 -12 -80
-12 -50 -8 -50 -9 -50 2 -50 2 -13 9 -13 8 -14 -6 -15 -5 0 10 0 10 -55 -2
-55 -2 0 -7 0 -8 15 -12 15 -12 -6 -9 -5 -9 13 0 13 0 -11 -8 -11 -7 -1 -43
-2 -43 -11 -20 -11 -21 6 -13 5 -13 -13 -5 -13 -5 4 -29 5 -30 -15 -14 -14
-15 -6 -19 -6 -20 -17 -125 -17 -125 2 -139 1 -138 -22 6 -23 7 -32 6 -33 6
-1 46 -1 46 2 150 1 150 4 30 4 30 12 145 12 145 1 42 1 43 15 1 15 1 41 2 41
2 16 15 15 16 -166 18 -167 18 -110 1 -110 2 -33 -7 -32 -7 -5 8 -4 7 10 64
10 64 -12 4 -11 3 13 9 14 8 -2 68 -2 68 -2 90 -2 90 8 105 8 105 1 33 1 32 6
0 7 0 21 94 22 94 19 5 20 5 6 -9 5 -9 23 0 22 0 12 -12 13 -13 7 12 8 12 49
-15 50 -14 13 5 13 5 -6 -9 -5 -10 11 -6 11 -7 49 -13 49 -13 0 16 0 17 27 52
26 53 6 0 7 0 14 -47 15 -48 1 -15 2 -15 1 -17 1 -18 8 0 8 0 -3 28 -2 27 -15
105 -14 105 -6 75 -5 75 -11 145 -11 145 3 280 3 280 15 0 15 0 1 -320 2 -320
21 -215 21 -215 11 -59 10 -59 -5 -21 -5 -21 8 -13 8 -13 39 -5 39 -5 -19 15
-19 15 -8 3 -8 3 -15 105 -15 105 -11 120 -11 120 -5 40 -5 40 -4 330 -4 330
5 22 6 23 100 -1 100 0 6 5 5 6 29 0 28 0 2 -107z m176 -32 l82 -54 0 -9 0 -8
-10 0 -10 0 0 -22 0 -23 -20 -53 -20 -52 0 -18 0 -17 47 -38 47 -38 14 3 14 3
19 55 20 55 30 90 29 90 11 18 10 18 -6 9 -6 10 10 0 11 0 27 -29 28 -28 23
-12 23 -12 -7 -107 -7 -107 -3 -3 -2 -4 -36 38 -35 37 -11 -27 -10 -28 -29
-72 -29 -71 -26 -67 -26 -66 0 -11 0 -11 -9 0 -10 0 -96 144 -96 144 10 39 11
40 21 27 20 26 2 27 2 27 -20 10 -20 11 -33 23 -32 23 0 41 0 40 8 -4 7 -3 83
-54z m-788 18 l0 -10 9 5 9 6 34 -27 33 -28 13 -17 12 -17 13 -13 13 -13 11
-19 11 -19 -20 -46 -20 -46 -27 -35 -26 -35 3 -13 3 -14 27 -27 27 -26 17 -25
17 -25 16 20 16 20 17 37 17 37 8 1 7 0 0 -55 0 -55 -8 0 -8 0 -34 -65 -34
-65 -3 0 -3 0 -90 91 -90 91 0 4 0 3 45 77 45 76 0 2 0 3 -40 41 -39 42 -9 0
-9 0 -30 -47 -30 -48 -34 -58 -34 -57 -9 3 -10 3 -9 15 -10 16 19 44 19 43 47
91 46 90 28 28 27 27 9 0 8 0 0 -11z m-71 -533 l71 -98 0 -17 0 -16 -30 -59
-30 -59 0 -11 0 -12 55 -54 55 -54 10 10 9 9 25 75 25 75 19 55 20 55 13 -3
13 -3 38 -30 38 -31 1 -26 0 -27 8 -72 7 -73 -7 0 -7 0 -26 31 -26 31 0 10 0
10 -15 -12 -15 -12 0 -17 0 -16 -19 -32 -20 -32 -10 -38 -11 -39 -13 -18 -14
-19 -24 13 -24 13 -20 17 -20 17 -63 59 -64 59 -9 16 -9 17 25 73 25 74 11 22
11 21 -32 46 -33 46 -9 0 -9 0 -22 -47 -22 -48 -3 67 -3 67 14 23 15 23 6 29
7 29 9 -9 8 -9 71 -99z m1211 -1 l0 -105 -6 0 -5 0 -33 26 -33 27 31 78 31 79
8 0 7 0 0 -105z m-410 18 l15 -18 23 -33 24 -32 -38 -58 -39 -57 -6 30 -7 30
-1 78 -1 77 8 0 8 0 14 -17z m558 -875 l-9 -42 -5 -6 -6 -5 7 40 8 40 4 8 4 7
4 0 3 0 -10 -42z m-31 -45 l-5 -18 0 35 0 35 5 -17 4 -18 -4 -17z m-22 -944
l0 -404 -8 -27 -7 -28 -13 0 -12 0 1 302 2 303 -7 128 -6 129 2 2 3 3 22 -2
23 -2 0 -404z m-59 223 l9 -167 -3 -250 -2 -250 -5 -13 -5 -13 -14 13 -14 14
-5 275 -6 274 -9 115 -10 115 -7 27 -7 26 24 4 23 4 11 -4 11 -3 9 -167z m104
151 l1 -28 5 -214 6 -214 -12 -131 -13 -131 1 -27 1 -28 -7 0 -7 0 0 400 0
400 12 0 13 0 0 -27z m-1228 -23 l41 0 -6 -107 -7 -108 -6 -315 -7 -315 -11
-7 -11 -8 -6 0 -6 0 -7 183 -7 182 -5 225 -4 225 0 23 0 22 -12 0 -11 0 7
-297 8 -298 6 -123 7 -124 -6 -10 -6 -10 -7 10 -6 9 -14 89 -15 89 -10 165
-11 165 -2 110 -2 110 2 58 2 57 24 0 25 0 7 12 8 12 4 -12 4 -12 40 0z m-132
-52 l-5 -63 8 -240 7 -240 21 -125 21 -125 1 -9 2 -10 -16 -3 -17 -4 -6 38 -5
38 -5 20 -4 20 -10 63 -11 62 -7 12 -7 11 -3 101 -2 101 -7 199 -7 199 13 8
14 9 15 0 15 0 -5 -62z m1034 45 l5 -18 20 -123 20 -123 8 -142 8 -142 0 -139
0 -139 -52 -15 -53 -15 0 -8 0 -9 -20 0 -20 0 -2 13 -1 12 -3 25 -2 25 -5 45
-5 45 -16 70 -17 70 -16 55 -15 55 -18 37 -18 37 -12 53 -13 53 -9 18 -9 17
11 0 11 0 -15 16 -16 15 0 19 0 18 -7 4 -8 3 -21 63 -21 62 6 1 6 1 20 3 20 4
101 14 101 14 19 11 19 11 7 1 7 0 5 -17z m-806 -11 l13 -9 -6 -144 -5 -144
-2 -267 -3 -268 -16 0 -17 0 -7 46 -7 46 2 262 1 261 3 45 4 45 1 68 1 67 13
0 12 0 13 -8z m1082 -836 l0 -15 -57 -6 -58 -7 -60 -13 -60 -13 -48 -7 -49 -6
-18 -4 -19 -4 6 15 5 14 12 1 11 1 15 3 15 3 110 21 110 20 35 4 35 4 8 1 7 2
0 -14z m-956 -50 l39 -11 5 -14 5 -14 -24 7 -24 6 -109 15 -108 15 -9 -6 -9
-5 0 6 0 6 23 9 22 8 75 -5 75 -6 39 -11z m-244 5 l0 -10 -11 -6 -10 -7 -6 5
-5 6 7 10 6 11 10 0 9 0 0 -9z m-50 -11 l0 -10 -10 0 -10 0 0 10 0 10 10 0 10
0 0 -10z m325 -501 l7 -21 -4 -4 -5 -4 -74 -10 -74 -9 -77 -1 -78 0 0 19 0 19
16 6 16 6 66 1 67 1 60 8 60 7 7 2 7 1 6 -21z m848 -53 l87 -4 0 12 0 11 8
-10 7 -10 13 -2 12 -3 0 9 0 8 25 -5 25 -4 0 -18 0 -18 -37 -4 -38 -5 -104 -2
-105 -2 -10 -7 -11 -7 -28 0 -27 0 -6 17 -5 17 10 20 11 20 42 -5 43 -4 88 -4z
m-837 -39 l6 -19 -11 -11 -11 -11 0 -10 0 -11 10 15 10 15 10 -15 10 -15 0
-10 0 -10 -10 15 -10 15 0 -13 0 -13 14 -5 15 -6 -4 -39 -4 -39 10 0 10 0 -6
-10 -6 -10 -16 15 -15 16 11 13 12 14 -17 6 -17 6 -5 -5 -5 -5 11 0 12 0 0
-10 0 -10 -21 3 -22 2 -3 -13 -2 -12 5 10 5 10 10 0 9 0 -6 -22 -6 -23 9 14
10 14 26 -19 25 -19 1 -9 0 -8 -14 5 -15 6 4 -12 5 -12 -9 -14 -9 -15 -16 13
-15 12 3 12 3 12 -4 -7 -5 -8 -10 0 -10 0 6 16 6 17 -16 18 -16 18 8 13 8 13
-18 -14 -17 -14 13 -8 12 -8 -19 -20 -18 -21 6 -7 7 -6 0 11 0 12 10 0 10 0
-3 -21 -2 -22 13 -3 13 -2 -11 5 -10 5 0 9 0 9 8 0 7 0 14 -9 14 -9 -19 -26
-19 -25 -9 -1 -8 0 6 18 6 17 -35 -37 -35 -38 -6 0 -6 0 6 16 6 17 -15 -13
-16 -13 13 -8 12 -8 -7 -7 -7 -7 -17 16 -18 16 -1 -27 -1 -27 4 13 5 12 9 0 9
0 0 -7 0 -8 -9 -14 -9 -15 -16 13 -15 12 6 17 5 17 -11 -15 -10 -14 -6 6 -7 7
19 25 18 25 17 -5 16 -5 7 11 7 12 -28 30 -29 31 19 -7 19 -6 -14 16 -13 16
-4 -11 -4 -11 -10 0 -9 0 5 23 6 22 -6 -12 -6 -13 -9 0 -9 0 3 21 2 22 -15 4
-15 5 15 -11 15 -11 -15 -10 -15 -10 15 -11 15 -11 -13 -5 -13 -5 12 -14 11
-14 -11 0 -11 0 -1 8 -1 7 -2 30 -1 30 -10 7 -9 7 17 19 17 19 0 7 0 7 -17
-17 -18 -17 -7 43 -7 43 5 8 5 9 -10 0 -11 0 0 30 0 30 6 0 5 0 14 -13 13 -14
-1 -18 -2 -18 15 -4 15 -5 -15 11 -14 10 17 19 17 19 0 9 0 9 -10 -15 -9 -15
-11 11 -11 11 20 6 21 5 25 -20 26 -20 6 6 6 6 -10 0 -11 0 -6 15 -6 15 18 -9
17 -8 20 1 20 2 14 8 13 9 -6 -20 -6 -20 20 -18 20 -18 7 6 6 7 -11 0 -12 0 0
10 0 10 8 0 7 0 15 -10 14 -9 -19 -20 -18 -21 6 -7 7 -6 0 11 0 12 11 0 10 0
-6 -19 -6 -19 11 -7 11 -7 19 17 19 17 13 -8 13 -8 -15 18 -14 18 -4 -11 -4
-11 -10 0 -9 0 6 19 6 19 -26 20 -25 20 6 16 6 16 8 0 8 0 12 -15 12 -15 10 0
9 0 -15 16 -16 15 0 3 0 3 15 0 15 0 6 -20z m-76 7 l0 -5 -15 -16 -16 -15 -5
5 -6 6 13 15 14 15 8 1 7 0 0 -6z m1067 -54 l-1 -20 -8 0 -8 0 0 -10 0 -10 10
0 10 0 6 25 6 25 8 0 7 0 -1 -75 -1 -75 6 0 6 0 0 -80 0 -80 -7 0 -7 0 -11
-25 -12 -26 0 -7 1 -7 15 28 16 29 4 -5 5 -4 -10 -26 -10 -26 11 -3 11 -4 -12
-22 -12 -22 6 -10 6 -10 -13 0 -13 0 13 -8 13 -9 -10 -26 -10 -26 9 -6 9 -6
-24 -56 -25 -55 0 -6 0 -6 16 20 15 19 -7 -25 -8 -25 0 -25 -1 -25 -18 -3 -19
-4 6 19 6 20 -25 11 -26 12 -7 0 -7 -1 28 -15 28 -15 -12 -15 -11 -14 -20 0
-19 0 5 23 6 22 -6 -12 -6 -13 -9 0 -10 0 7 11 7 11 -13 8 -12 7 12 23 12 23
-12 7 -12 7 17 33 17 33 -14 8 -13 9 -11 -4 -12 -5 -12 45 -13 45 -8 5 -9 5
11 20 11 21 -7 6 -6 6 -10 -14 -11 -15 6 18 5 17 -15 0 -16 0 6 15 6 15 6 18
7 17 -17 -20 -17 -20 7 25 6 25 -7 -7 -8 -8 -13 18 -12 17 10 18 10 19 -7 6
-6 6 -9 -14 -10 -15 0 7 0 6 6 16 6 15 16 -5 17 -6 -19 12 -18 12 -10 -13 -10
-14 6 33 6 32 -10 0 -10 0 10 26 10 25 0 5 0 5 -11 -7 -11 -7 8 24 7 24 -1 27
-2 27 10 6 10 6 0 -12 0 -11 15 12 15 13 -6 -17 -6 -16 11 0 11 0 0 11 0 11
14 -5 14 -5 12 11 12 12 -12 -24 -12 -24 13 -8 14 -9 9 0 10 0 -17 13 -16 12
14 18 13 18 7 -11 8 -12 9 13 10 14 -6 -30 -6 -30 16 28 16 29 5 -5 5 -5 -12
-22 -12 -23 13 -8 14 -9 9 0 10 0 -20 16 -19 16 19 -7 19 -6 9 13 8 13 0 9 0
10 -16 -20 -16 -19 6 18 6 19 0 4 0 4 21 0 21 0 -5 -12 -5 -13 -6 -16 -7 -15
26 -12 26 -12 7 0 7 1 -28 15 -27 15 15 29 16 30 4 0 4 0 -2 -20z m-1027 -20
l0 -10 -10 0 -10 0 0 10 0 10 10 0 10 0 0 -10z m0 -40 l0 -10 -10 0 -10 0 0
10 0 10 10 0 10 0 0 -10z m-10 -90 l0 -10 -10 0 -10 0 0 10 0 10 10 0 10 0 0
-10z m-150 -70 l33 -31 -6 -5 -6 -6 -28 26 -28 26 -7 0 -8 0 0 10 0 10 9 0 9
0 32 -30z m240 23 l0 -8 -10 -15 -9 -14 -8 8 -8 9 13 4 12 5 -6 9 -5 9 10 0
11 0 0 -7z m-50 -23 l0 -10 -10 0 -10 0 0 10 0 10 10 0 10 0 0 -10z m-220 -8
l0 -8 -12 -12 -12 -12 12 0 12 0 0 10 0 10 10 0 10 0 0 -7 0 -8 -10 -15 -9
-15 -16 16 -16 15 7 17 6 17 9 0 9 0 0 -8z m216 -20 l21 -18 -2 -33 -2 -33
-10 -6 -10 -7 2 -25 2 -25 -11 -7 -11 -8 14 0 13 0 -13 -16 -13 -16 14 -8 13
-8 -17 -17 -17 -17 -7 6 -6 7 14 10 15 9 -13 8 -13 9 7 19 6 19 -9 -13 -10
-13 -17 7 -17 6 6 18 6 18 -24 19 -24 19 2 31 2 31 17 17 17 17 6 -5 5 -6 -16
-16 -16 -16 0 -12 0 -12 9 14 9 15 15 -12 14 -12 -3 -37 -3 -37 9 14 8 14 16
-13 16 -13 0 10 0 10 -12 4 -13 5 18 17 17 17 0 12 0 12 -8 -13 -9 -13 -16 7
-17 6 0 8 0 9 9 5 9 6 5 -12 4 -13 0 28 1 27 -19 -22 -19 -21 -6 6 -6 6 19 25
18 25 5 0 5 0 21 -17z m34 3 l12 -15 -5 0 -5 0 -16 6 -16 6 0 9 0 9 9 0 9 0
12 -15z m-150 -75 l0 -10 -10 0 -10 0 0 10 0 10 10 0 10 0 0 -10z m90 -10 l0
-10 -10 0 -10 0 0 10 0 10 10 0 10 0 0 -10z m-171 -41 l-14 -9 15 -10 15 -10
9 3 10 3 4 15 4 14 -11 -15 -10 -14 -6 6 -7 7 19 25 18 25 5 1 5 0 34 -30 33
-29 -16 -17 -17 -16 4 -11 3 -11 15 -4 14 -4 -15 11 -14 10 5 6 6 5 17 -6 16
-6 0 -8 0 -8 -15 -12 -15 -12 0 -11 0 -10 19 21 18 22 7 0 6 0 -3 -22 -2 -23
24 3 24 2 -15 -17 -15 -18 1 -42 2 -43 13 -12 14 -13 4 13 5 12 10 -6 10 -6
-13 -9 -14 -9 12 -8 11 -7 -14 -19 -14 -20 -6 7 -7 7 11 13 11 13 -17 12 -17
13 -14 9 -15 8 13 16 13 16 -8 0 -9 1 -24 20 -24 19 17 18 16 19 0 9 0 9 -10
-15 -9 -14 -20 19 -21 18 -7 -6 -6 -7 11 0 12 0 0 -10 0 -10 -21 3 -22 2 -3
-13 -2 -13 5 11 5 10 10 0 9 0 -6 -22 -6 -23 9 14 10 14 26 -19 25 -19 1 -7 0
-8 -9 0 -10 0 -15 16 -16 15 0 -11 0 -11 15 -5 16 -6 -6 -22 -6 -21 9 14 10
14 26 -19 25 -19 1 -7 0 -8 -9 0 -9 0 -12 15 -13 15 -5 -4 -4 -5 28 -25 29
-24 -8 -8 -8 -8 -9 14 -10 15 0 -12 0 -13 -11 0 -11 0 5 14 6 15 -16 -6 -16
-6 7 12 8 13 -27 28 -27 28 8 14 8 13 -19 -15 -18 -15 8 24 7 24 -9 -6 -9 -6
-3 27 -3 27 -1 20 -1 20 -10 7 -10 7 6 7 7 6 17 -17 17 -17 -14 -9 -14 -9 11
0 11 0 18 20 18 20 -6 7 -7 6 0 -11 0 -12 -11 0 -10 0 6 19 6 19 -11 7 -12 7
-10 -10 -11 -11 -14 15 -14 14 -9 29 -8 29 5 6 5 5 16 -15 15 -16 -14 -9z m51
-59 l0 -10 -10 0 -10 0 0 10 0 10 10 0 10 0 0 -10z m60 -90 l0 -10 -10 0 -10
0 0 10 0 10 10 0 10 0 0 -10z m967 -25 l-12 -13 -3 3 -2 2 6 17 6 16 9 -6 9
-5 -13 -14z m-862 -5 l6 -10 -10 0 -11 0 0 10 0 10 4 0 5 0 6 -10z m-65 -40
l0 -10 -10 0 -10 0 0 10 0 10 10 0 10 0 0 -10z m-54 -68 l-7 -6 -8 13 -9 14
-11 -7 -11 -7 6 15 6 16 -12 0 -11 0 6 10 6 10 26 -26 25 -25 -6 -7z m94 -2
l0 -10 -10 0 -10 0 0 10 0 10 10 0 10 0 0 -10z m-100 -10 l14 -9 -8 -8 -9 -8
-4 13 -5 12 -9 -6 -9 -5 0 10 0 11 8 0 7 0 15 -10z m150 -70 l0 -10 -23 -5
-22 -6 -70 3 -70 3 -3 15 -3 15 96 -3 95 -3 0 -9z m915 0 l70 -5 -2 -10 -3
-10 -77 -3 -78 -2 -14 9 -15 9 13 16 13 16 11 -7 12 -7 70 -6z"/>
<path d="M1168 4013 l-15 -18 -6 -22 -5 -23 9 -6 9 -5 0 12 0 12 41 -6 40 -5
-5 15 -6 15 0 8 0 9 -16 15 -15 16 -8 0 -8 0 -15 -17z"/>
<path d="M860 1209 l0 -10 10 6 10 6 0 5 0 4 -10 0 -10 0 0 -11z"/>
<path d="M782 1194 l-13 -14 10 0 10 0 6 11 7 10 -3 4 -4 3 -13 -14z"/>
<path d="M880 1190 l0 -10 -21 3 -22 2 -3 -13 -2 -12 5 10 5 10 10 0 9 0 -6
-20 -6 -20 16 -6 16 -7 -6 -15 -6 -15 28 -29 27 -28 10 0 11 0 -15 10 -14 9
19 20 18 21 -6 7 -7 6 0 -11 0 -12 -9 0 -9 0 2 35 3 35 -14 -12 -14 -11 13 -8
12 -8 -7 -7 -7 -7 -15 13 -16 13 17 18 17 19 -6 7 -7 6 0 -11 0 -12 -11 0 -10
0 6 20 6 20 -5 0 -6 0 0 -10z m0 -40 l0 -10 -10 0 -10 0 0 10 0 10 10 0 10 0
0 -10z m27 -55 l15 -16 -5 -6 -6 -5 -16 15 -15 16 0 5 0 6 6 0 5 0 16 -15z"/>
<path d="M800 1175 l-12 -15 11 0 11 0 0 -11 0 -10 -19 6 -19 6 -7 -11 -7 -12
25 -26 25 -27 -3 -13 -3 -12 5 10 5 10 10 0 9 0 -6 -19 -6 -19 26 -20 25 -20
-3 -13 -4 -14 4 8 5 7 9 0 9 0 -3 -21 -2 -22 13 -3 13 -3 -11 6 -10 5 0 9 0 9
21 -3 22 -2 3 13 3 13 -6 -11 -5 -10 -10 0 -9 0 6 23 6 22 -10 -15 -10 -14 -7
7 -7 7 19 22 19 23 -21 -18 -21 -17 -17 6 -16 6 0 8 0 8 15 12 15 12 -1 12 -1
11 -5 -12 -5 -13 -9 0 -9 0 3 21 2 22 -13 3 -12 3 10 -6 10 -5 0 -9 0 -9 -8 0
-9 0 -21 19 -22 18 0 7 0 6 21 -3 22 -2 3 13 3 13 -6 -11 -5 -10 -8 0 -8 0 2
35 3 35 -2 0 -3 0 -12 -15z m-10 -45 l0 -10 -10 0 -10 0 0 10 0 10 10 0 10 0
0 -10z m60 -90 l0 -10 -10 0 -10 0 0 10 0 10 10 0 10 0 0 -10z"/>
<path d="M882 1034 l-13 -14 10 0 10 0 6 11 7 10 -3 4 -4 3 -13 -14z"/>
<path d="M1750 1162 l0 -9 26 -12 27 -12 3 4 3 3 -29 18 -30 17 0 -9z"/>
<path d="M1860 1160 l0 -10 10 0 10 0 0 10 0 10 -10 0 -10 0 0 -10z"/>
<path d="M1756 1113 l-7 -16 13 -9 13 -8 6 0 7 0 6 17 7 16 -13 9 -13 8 -6 0
-7 0 -6 -17z m29 -3 l6 -10 -10 0 -11 0 0 10 0 10 4 0 5 0 6 -10z"/>
<path d="M1812 1105 l-12 -26 0 -7 1 -7 15 28 16 29 -5 4 -4 4 -11 -25z"/>
<path d="M1820 1065 l-22 -55 -11 -7 -10 -6 7 18 7 18 -13 9 -13 8 -7 0 -8 0
0 -10 0 -10 8 1 7 1 10 -1 10 -1 -15 -10 -15 -10 15 -10 15 -10 7 0 6 0 19 45
18 45 16 -5 17 -6 6 17 7 17 -13 9 -13 8 -6 0 -7 0 -22 -55z m45 35 l6 -10
-16 0 -16 0 6 10 6 10 4 0 4 0 6 -10z"/>
<path d="M1891 1094 l-12 -27 6 -5 5 -5 0 12 0 13 15 -6 15 -6 13 -5 13 -6 12
26 12 26 0 7 -1 7 -15 -27 -15 -28 -18 12 -19 12 5 13 5 13 -4 0 -5 0 -12 -26z"/>
<path d="M1920 1100 l0 -10 10 0 10 0 0 10 0 10 -10 0 -10 0 0 -10z"/>
<path d="M1971 1084 l-12 -27 6 -5 5 -5 0 9 0 10 16 20 15 19 -6 -22 -6 -23
11 0 11 0 -5 9 -6 9 12 5 13 5 -15 11 -15 11 -6 0 -6 0 -12 -26z"/>
<path d="M2026 1075 l-6 -17 0 -6 1 -7 10 18 11 19 -5 4 -5 5 -6 -16z"/>
<path d="M1770 1060 l15 -10 10 0 10 0 -15 10 -15 10 -10 0 -10 0 15 -10z"/>
<path d="M1856 1044 l19 -15 -21 6 -21 5 -11 -25 -12 -26 0 -7 1 -7 15 28 15
28 10 -7 10 -6 -12 -14 -11 -14 9 0 10 0 12 27 12 26 -13 8 -13 9 -9 0 -10 0
20 -16z"/>
<path d="M1910 1050 l15 -10 10 0 10 0 -15 10 -15 10 -10 0 -10 0 15 -10z"/>
<path d="M1990 1040 l15 -10 10 0 10 0 -15 10 -15 10 -10 0 -10 0 15 -10z"/>
<path d="M1882 1015 l-12 -26 0 -7 1 -7 15 28 16 29 -5 4 -4 4 -11 -25z"/>
<path d="M1942 1014 l-12 -25 -12 7 -12 8 12 4 12 4 0 9 0 9 -9 0 -9 0 -6 -17
-7 -16 13 -9 13 -8 6 0 6 0 12 26 12 27 -4 3 -4 4 -11 -26z"/>
<path d="M1966 1014 l-6 -16 0 -6 0 -6 16 20 16 19 -7 -19 -6 -19 13 -9 13 -8
10 0 10 1 -19 10 -18 11 13 9 14 9 -15 10 -15 10 -6 0 -7 0 -6 -16z"/>
<path d="M2026 1015 l-6 -17 0 -6 1 -7 10 18 11 19 -5 4 -5 5 -6 -16z"/>
<path d="M1846 964 l19 -16 -19 7 -19 6 -9 -13 -8 -13 0 -9 0 -10 15 20 14 19
1 -12 0 -13 9 0 9 0 6 17 7 16 -13 9 -13 8 -9 0 -10 0 20 -16z"/>
<path d="M1913 964 l27 -15 0 -5 0 -5 -19 6 -19 6 -6 -17 -7 -17 13 -9 13 -8
6 0 6 0 12 26 12 27 -3 2 -3 2 -22 12 -22 11 -8 0 -8 -1 28 -15z m17 -38 l0
-5 -9 -6 -10 -5 -6 10 -6 10 15 0 16 0 0 -4z"/>
<path d="M1788 939 l-17 -29 8 0 8 0 12 26 12 27 -3 3 -3 3 -17 -30z"/>
<path d="M1986 956 l19 -14 5 4 4 5 -14 9 -15 10 -9 0 -10 0 20 -14z"/>
<path d="M1876 945 l-6 -17 0 -6 1 -7 10 18 11 19 -5 4 -5 5 -6 -16z"/>
<path d="M1956 935 l-6 -17 0 -6 1 -7 10 18 11 19 -5 4 -5 5 -6 -16z"/>
<path d="M2010 931 l-11 -21 10 0 9 0 6 16 6 17 -4 4 -4 5 -12 -21z"/>
<path d="M1980 930 l0 -10 10 0 10 0 0 10 0 10 -10 0 -10 0 0 -10z"/>
<path d="M2036 925 l-6 -17 0 -6 1 -7 10 18 11 19 -5 4 -5 5 -6 -16z"/>
<path d="M1840 910 l15 -10 10 0 10 0 -15 10 -15 10 -10 0 -10 0 15 -10z"/>
<path d="M1980 900 l15 -10 10 0 10 0 -15 10 -15 10 -10 0 -10 0 15 -10z"/>
<path d="M1836 885 l19 -14 -12 -1 -13 0 0 -10 0 -10 9 0 9 0 6 17 7 16 -13 9
-13 8 -9 0 -10 0 20 -15z"/>
<path d="M1872 875 l-12 -26 0 -7 1 -7 15 28 16 29 -5 4 -4 4 -11 -25z"/>
<path d="M1935 881 l-6 -21 -11 0 -10 0 6 15 5 15 -8 0 -8 0 -12 -27 -12 -26
13 -8 13 -9 9 0 10 0 -19 13 -18 14 11 7 12 7 0 -10 0 -11 8 0 9 0 12 26 12
27 -5 4 -4 5 -7 -21z"/>
<path d="M1969 881 l14 -9 -8 -12 -8 -12 14 -9 14 -9 6 0 6 0 12 26 12 27 -6
5 -5 5 0 -9 0 -10 -16 -20 -16 -19 7 19 6 19 -13 9 -13 8 -10 0 -10 0 14 -9z"/>
<path d="M1946 855 l-6 -17 0 -6 1 -7 10 18 11 19 -5 4 -5 5 -6 -16z"/>
<path d="M1830 830 l15 -10 10 0 10 0 -15 10 -15 10 -10 0 -10 0 15 -10z"/>
<path d="M1970 820 l15 -10 10 0 10 0 -15 10 -15 10 -10 0 -10 0 15 -10z"/>
<path d="M1862 795 l-12 -26 0 -7 1 -7 15 28 16 29 -5 4 -4 4 -11 -25z"/>
<path d="M1930 811 l0 -12 -19 6 -19 6 -6 -17 -7 -17 13 -9 13 -8 6 0 6 0 12
26 12 27 -6 5 -5 5 0 -12z m-15 -21 l6 -10 -16 0 -16 0 6 10 6 10 4 0 4 0 6
-10z"/>
<path d="M1942 785 l-12 -26 0 -7 1 -7 15 28 16 29 -5 4 -4 4 -11 -25z"/>
<path d="M2010 801 l0 -12 -19 6 -19 6 -6 -17 -7 -17 13 -9 13 -8 6 0 6 0 12
26 12 27 -6 5 -5 5 0 -12z m-10 -25 l0 -5 -9 -6 -10 -5 -6 10 -6 10 15 0 16 0
0 -4z"/>
<path d="M2021 774 l-12 -27 3 -3 3 -3 17 30 17 29 -8 0 -8 0 -12 -26z"/>
<path d="M1894 744 l29 -16 -14 -9 -13 -8 7 -8 8 -7 9 14 10 15 0 6 0 6 -25
11 -26 12 -7 0 -7 -1 29 -15z"/>
<path d="M1942 725 l-12 -26 0 -7 1 -7 15 28 15 27 19 -10 20 -11 -12 -19 -12
-19 -10 6 -10 7 12 4 12 4 0 9 0 9 -9 0 -9 0 -6 -17 -7 -16 13 -9 13 -8 6 0 6
0 12 26 12 27 -3 2 -3 2 -22 12 -22 11 -4 0 -4 0 -11 -25z"/>
<path d="M1877 716 l-7 -19 2 -2 3 -2 23 -12 24 -13 5 5 5 5 -21 7 -20 6 -3
22 -3 22 -8 -19z"/>
<path d="M2016 705 l-6 -17 0 -6 1 -7 10 18 11 19 -5 4 -5 5 -6 -16z"/>
<path d="M1932 645 l-12 -26 0 -7 1 -7 15 28 16 29 -5 4 -4 4 -11 -25z"/>
<path d="M2000 661 l0 -12 -18 5 -19 6 -12 -26 -12 -27 13 -8 13 -9 9 0 10 0
-20 16 -19 15 21 -6 21 -5 12 26 12 27 -6 5 -5 5 0 -12z m-15 -20 l5 -10 -10
-6 -10 -6 0 15 0 16 4 0 5 0 6 -9z"/>
<path d="M2012 635 l-12 -26 0 -7 1 -7 15 28 16 29 -5 4 -4 4 -11 -25z"/>
<path d="M1918 559 l-17 -29 8 0 8 0 12 26 12 27 -3 3 -3 3 -17 -30z"/>
<path d="M1990 581 l0 -12 -19 6 -19 6 -6 -17 -7 -17 13 -9 13 -8 6 0 6 0 12
26 12 27 -6 5 -5 5 0 -12z m-15 -20 l5 -10 -10 -6 -10 -6 0 15 0 16 4 0 5 0 6
-9z"/>
<path d="M1940 490 l0 -10 10 0 10 0 0 10 0 10 -10 0 -10 0 0 -10z"/>
<path d="M929 853 l-14 -18 18 14 17 13 0 4 0 4 -4 0 -4 0 -13 -17z"/>
<path d="M870 820 l0 -11 15 -5 16 -6 -7 -21 -7 -21 19 19 19 18 -13 5 -12 4
-15 15 -15 14 0 -11z"/>
<path d="M2190 5621 l58 -59 40 -58 39 -59 23 -45 22 -45 12 -15 13 -15 18
-50 18 -49 116 -116 116 -116 46 -49 46 -50 21 -32 22 -31 35 -62 35 -62 0
-14 0 -14 9 0 9 0 5 20 5 20 -8 0 -8 0 -20 48 -21 47 -58 76 -58 76 -50 58
-50 58 -40 36 -40 36 -52 53 -53 54 -20 45 -20 46 -52 90 -51 89 -59 74 -60
74 -23 0 -23 0 58 -59z"/>
<path d="M173 3640 l-10 -40 8 0 8 0 7 35 6 36 -4 4 -4 4 -11 -39z"/>
<path d="M3 3485 l0 -120 12 28 12 29 -4 26 -4 27 -8 65 -9 65 1 -120z"/>
<path d="M141 3528 l-12 -63 -6 -98 -6 -97 45 -58 46 -58 10 -39 10 -40 11
-61 11 -60 -1 -30 0 -29 -8 -20 -8 -20 -13 43 -13 42 -12 0 -12 0 5 25 4 25
-13 0 -12 0 6 6 6 7 -15 28 -15 29 -13 0 -13 0 -11 -25 -12 -26 0 -53 0 -53
11 -32 11 -31 12 0 13 0 13 -25 13 -25 9 0 9 0 -18 28 -19 27 -12 28 -12 28 0
54 0 55 8 0 9 0 16 -58 16 -58 27 -27 27 -27 7 0 8 0 10 13 9 12 -9 124 -10
124 -15 31 -14 31 -39 50 -40 50 0 50 0 50 15 80 14 80 1 28 0 27 -9 0 -9 0
-11 -62z"/>
<path d="M1 3344 l1 -19 5 13 5 13 -6 6 -6 6 1 -19z"/>
<path d="M18 2954 l-8 -7 0 -22 0 -22 26 -24 26 -24 9 -17 10 -18 -18 0 -18 0
-18 31 -18 32 -5 -6 -6 -6 16 -23 16 -22 0 -9 0 -9 -15 12 -15 12 1 -13 0 -14
28 -22 27 -22 60 -21 59 -21 26 -8 26 -9 12 19 11 19 -17 7 -18 6 -9 5 -9 5 7
-11 7 -12 -20 0 -21 0 0 11 0 10 -28 10 -29 10 -23 41 -23 42 -16 18 -16 18
-5 31 -5 31 -7 -8z"/>
<path d="M518 2265 l4 -25 4 0 4 0 0 25 0 25 -9 0 -8 0 5 -25z"/>
<path d="M2515 20 l-6 -10 10 0 11 0 0 10 0 10 -4 0 -5 0 -6 -10z"/>
</g>
</svg>
