<?xml version="1.0" standalone="no"?>
<!DOCTYPE svg PUBLIC "-//W3C//DTD SVG 20010904//EN"
 "http://www.w3.org/TR/2001/REC-SVG-20010904/DTD/svg10.dtd">
<svg version="1.0" xmlns="http://www.w3.org/2000/svg"
   viewBox="0 0 91.000000 66.000000"
 preserveAspectRatio="xMidYMid meet">
<metadata>
Created by potrace 1.16, written by Peter Selinger 2001-2019
</metadata>
<g transform="translate(0.000000,66.000000) scale(0.100000,-0.100000)"
fill="#000000" stroke="none">
<path d="M347 653 l-7 -6 0 -14 0 -13 24 0 25 0 6 9 6 10 -20 10 -20 11 -4 0
-4 0 -6 -7z"/>
<path d="M430 618 l-20 -22 2 -15 3 -15 -20 -4 -20 -4 13 13 12 13 0 8 0 8
-31 0 -31 0 -35 -17 -35 -16 -19 11 -19 12 -6 0 -6 0 6 -16 6 -17 -11 -13 -11
-13 -19 12 -19 11 -12 -12 -13 -13 15 -9 14 -9 -24 -25 -23 -26 -18 0 -18 0
-7 -11 -7 -11 11 -7 10 -6 3 -15 2 -15 -10 -25 -11 -25 -11 28 -11 27 -20 0
-20 0 0 -8 0 -8 10 -10 9 -9 -5 -23 -6 -22 -9 0 -9 0 0 -19 0 -19 13 -5 14 -5
13 8 13 8 -7 10 -6 10 15 6 15 5 1 -17 1 -17 -2 -34 -2 -34 13 -7 12 -8 14 5
13 5 0 28 0 28 15 12 15 12 0 14 0 14 8 0 9 0 11 24 11 24 56 60 57 61 45 17
46 18 86 -1 86 0 47 -13 47 -12 20 -34 20 -34 11 -39 11 -40 18 -13 19 -14 7
-36 7 -37 14 -5 14 -5 -6 -31 -6 -30 12 0 13 0 13 -18 13 -17 1 -27 0 -27 -12
-11 -13 -11 -18 -12 -18 -13 7 -17 6 -17 27 0 27 0 15 18 16 19 11 32 11 32
-9 25 -10 26 -13 12 -12 12 -20 9 -20 8 29 6 30 6 -5 10 -4 10 -25 -2 -25 -2
13 5 12 6 0 14 0 14 -10 0 -9 0 1 28 1 27 -7 18 -8 17 14 -5 14 -5 19 14 20
14 -8 8 -7 7 -35 -10 -35 -11 -1 16 0 17 -47 58 -47 59 -29 16 -29 17 -27 27
-26 27 -46 -4 -46 -5 -5 20 -5 20 -21 0 -20 0 -21 -22z m-201 -145 l-14 -18
-27 -30 -28 -30 0 -7 0 -8 -11 0 -10 0 7 22 7 22 15 16 15 15 26 17 26 18 4 0
3 0 -13 -17z"/>
<path d="M622 618 l4 -12 17 -10 16 -10 7 6 6 7 -5 16 -6 15 -22 0 -21 0 4
-12z"/>
<path d="M733 583 l-13 -5 0 -19 0 -20 28 3 27 3 3 23 3 22 -18 -1 -18 -1 -12
-5z"/>
<path d="M95 499 l-7 -10 6 -6 5 -5 16 6 16 6 -6 10 -6 10 -9 0 -9 0 -6 -11z"/>
<path d="M785 490 l-6 -10 6 -20 6 -20 8 0 9 0 12 15 12 15 -12 15 -12 15 -9
0 -8 0 -6 -10z"/>
<path d="M531 333 l-35 -18 -4 -12 -4 -13 17 -6 17 -7 28 17 28 16 25 0 26 0
6 -10 6 -10 25 0 24 0 0 8 0 8 -32 19 -33 20 -30 3 -30 2 -34 -17z"/>
<path d="M243 333 l-13 -5 0 -18 0 -18 13 -5 12 -4 16 8 15 8 42 -19 42 -19 0
19 0 20 -40 20 -39 20 -18 -1 -18 -1 -12 -5z"/>
<path d="M855 310 l-6 -10 20 0 21 0 0 10 0 10 -14 0 -15 0 -6 -10z"/>
<path d="M394 289 l-7 -11 12 -7 11 -7 -1 -73 -1 -73 9 -9 10 -10 16 7 17 6 0
78 0 77 -18 16 -19 17 -11 0 -11 0 -7 -11z"/>
<path d="M528 242 l-28 -17 0 -17 0 -16 17 -31 18 -30 38 -6 38 -7 25 17 26
17 -7 36 -6 37 -21 18 -20 17 -27 0 -26 -1 -27 -17z m48 -53 l6 -11 19 5 19 5
5 -8 5 -8 -27 -5 -27 -5 -13 5 -13 5 0 14 0 14 9 0 10 0 7 -11z"/>
<path d="M273 219 l-43 -21 0 -27 0 -27 13 -16 12 -16 29 -5 30 -5 24 9 24 9
14 14 14 15 0 19 0 20 -31 26 -31 26 -6 0 -7 0 -42 -21z m67 -43 l0 -14 -14
-5 -14 -6 -21 6 -21 5 5 8 5 7 26 -5 27 -5 -7 12 -7 11 10 0 11 0 0 -14z"/>
<path d="M7 183 l-7 -6 0 -89 0 -88 61 0 60 0 -6 10 -6 10 -34 0 -33 0 -6 16
-6 16 0 37 0 38 20 26 20 25 -16 6 -16 6 -12 0 -13 0 -6 -7z"/>
<path d="M755 60 l-6 -10 10 0 10 0 6 10 6 10 -10 0 -10 0 -6 -10z"/>
<path d="M350 10 l0 -10 23 0 22 0 -15 10 -15 10 -7 0 -8 0 0 -10z"/>
</g>
</svg>
