<?xml version="1.0" standalone="no"?>
<!DOCTYPE svg PUBLIC "-//W3C//DTD SVG 20010904//EN"
 "http://www.w3.org/TR/2001/REC-SVG-20010904/DTD/svg10.dtd">
<svg version="1.0" xmlns="http://www.w3.org/2000/svg"
   viewBox="0 0 352.000000 518.000000"
 preserveAspectRatio="xMidYMid meet">
<metadata>
Created by potrace 1.16, written by Peter Selinger 2001-2019
</metadata>
<g transform="translate(0.000000,518.000000) scale(0.100000,-0.100000)"
fill="#9E1A1A" stroke="none">
<path d="M204 5171 l4 -6 -76 3 -77 2 -21 -5 -21 -5 5 -30 4 -30 -7 -17 -6
-18 3 -5 3 -5 6 2 5 2 -4 -30 -4 -29 -9 6 -9 5 0 -15 0 -15 18 -10 17 -11 -20
-16 -20 -16 13 -5 12 -5 0 -14 0 -14 13 0 13 0 55 -57 55 -58 27 -45 27 -45
19 -25 19 -25 35 -55 35 -55 26 -48 26 -48 39 -42 39 -42 85 -90 86 -90 40
-55 41 -55 39 -80 39 -80 52 -60 52 -60 56 -85 55 -85 80 -130 80 -130 52
-105 52 -105 32 -72 31 -72 40 -118 40 -118 0 -58 0 -58 -11 -45 -11 -44 -9
-6 -9 -5 5 28 5 28 3 30 4 30 -18 80 -18 80 -29 85 -29 85 -27 70 -27 70 -10
17 -9 18 0 12 0 13 -34 56 -34 56 -7 24 -8 23 -83 123 -84 123 -19 37 -19 38
-21 19 -22 20 -18 41 -18 41 -30 35 -30 34 -28 55 -27 55 -35 37 -36 37 6 15
6 16 -17 0 -17 1 -37 57 -37 57 -72 75 -72 75 -81 120 -81 120 -13 25 -13 26
-45 59 -44 60 -62 62 -61 63 -11 0 -10 0 12 -12 12 -12 0 -103 0 -103 -11 0
-10 0 3 -156 3 -156 8 -5 7 -4 0 -10 0 -10 -10 6 -10 6 0 -10 0 -11 13 -1 12
-1 8 1 8 1 -6 -9 -6 -10 -14 6 -15 5 0 -7 0 -8 18 -13 17 -14 -17 6 -18 6 0
-8 0 -7 17 -19 17 -19 -11 3 -11 3 0 -10 0 -10 6 2 7 1 -3 -120 -3 -120 8 5 8
5 -2 -56 -2 -57 -6 -125 -5 -125 -4 -96 -4 -96 8 -13 8 -13 -11 -19 -12 -19
11 -7 11 -7 -1 -415 -1 -415 4 -120 3 -120 -6 -555 -6 -555 2 -135 1 -135 -2
-67 -1 -68 8 0 7 0 0 -347 0 -348 10 -3 10 -2 40 76 40 76 52 52 51 51 46 71
45 71 7 28 7 29 20 36 20 35 43 65 42 65 26 24 26 24 0 12 0 12 31 39 31 39
24 50 24 51 43 49 43 50 45 63 44 63 20 27 20 27 60 74 60 74 46 66 45 66 12
33 11 33 29 37 29 37 30 50 31 50 6 37 7 38 25 52 25 53 21 40 21 40 27 52 27
51 6 19 7 18 29 50 30 50 11 50 12 50 21 70 20 70 3 70 3 70 7 101 7 102 -28
88 -27 89 -20 60 -21 60 -42 70 -41 70 -18 44 -17 44 -23 41 -23 41 -29 65
-29 65 -8 10 -8 10 -55 80 -55 80 -46 70 -46 70 -82 85 -82 86 -37 69 -36 70
-83 95 -82 95 -84 85 -84 85 -34 50 -34 50 -34 48 -34 48 -41 46 -40 46 0 8 0
8 -37 44 -38 45 -30 38 -30 39 -11 32 -12 33 7 0 7 0 26 -27 25 -28 19 -30 18
-30 34 -42 34 -43 11 7 10 6 -6 -10 -7 -11 38 -55 37 -54 87 -114 87 -114 51
-55 52 -55 40 -52 40 -53 9 0 9 0 91 -130 92 -129 9 5 8 5 -1 -8 -1 -8 1 -12
1 -12 65 -53 65 -52 0 -12 0 -12 8 -4 8 -3 59 -100 59 -100 31 -45 32 -45 20
-40 20 -40 46 -85 45 -85 49 -82 50 -81 40 -99 41 -98 26 -87 27 -88 -6 -117
-6 -118 -5 -60 -5 -60 -15 -65 -15 -65 -15 -60 -16 -60 -22 -45 -23 -45 -8
-23 -7 -23 -40 -70 -40 -69 -16 -1 -17 -1 13 -5 12 -5 0 -16 0 -17 -38 -66
-38 -65 -7 -14 -7 -15 -30 -45 -29 -45 -31 -58 -31 -58 -41 -67 -41 -67 -51
-56 -52 -56 -57 -84 -56 -84 -45 -55 -45 -55 -58 -86 -58 -86 -28 -49 -27 -49
-45 -60 -44 -60 -30 -51 -30 -52 -26 -63 -25 -63 -40 -62 -41 -62 -21 -18 -21
-19 -64 -83 -65 -83 5 -5 5 -5 21 29 21 29 90 109 91 109 60 123 59 122 27 -6
28 -7 45 -31 45 -31 4 -2 4 -3 -35 -52 -35 -53 -27 -59 -26 -58 0 -27 0 -26
13 -35 12 -35 29 -37 28 -38 7 4 6 4 1 -21 2 -22 -47 3 -47 4 -60 -13 -59 -12
-135 0 -134 1 -4 11 -4 11 -8 0 -8 0 -4 -17 -5 -18 151 1 151 0 68 13 69 13
51 -7 52 -8 48 -3 47 -4 0 18 -1 17 -50 60 -51 60 6 75 6 75 4 30 4 30 14 39
15 40 11 4 12 4 0 -15 0 -15 -15 -28 -15 -29 0 -72 0 -73 9 0 9 0 -6 -22 -5
-21 13 8 13 8 -7 -11 -7 -12 37 -60 37 -60 9 6 8 5 -2 -12 -3 -13 18 -4 17 -3
0 8 0 9 -40 53 -40 53 -15 51 -15 51 0 46 0 47 11 32 11 31 14 0 14 0 1 -92 1
-93 13 -35 13 -35 12 3 11 2 -5 -9 -6 -9 18 -56 18 -57 9 8 9 8 -13 -17 -13
-17 -36 -4 -37 -4 58 0 59 0 -5 31 -5 31 -17 90 -17 90 -19 48 -19 48 0 19 0
20 9 0 9 0 10 -13 11 -13 29 -115 29 -114 21 -41 21 -42 16 -6 17 -6 10 7 11
6 -7 -11 -6 -11 17 -5 18 -6 30 9 30 9 -20 7 -20 7 -47 20 -48 21 -19 52 -19
51 -10 55 -11 54 -7 19 -7 18 26 -17 27 -17 0 -7 0 -6 45 -49 46 -48 20 -44
19 -44 10 0 10 0 11 -45 11 -45 9 -6 9 -5 0 8 0 8 -11 40 -11 40 -36 55 -37
55 -43 50 -44 50 -21 24 -21 23 -26 16 -25 16 -85 54 -85 55 -51 34 -51 33
-17 0 -17 0 -5 15 -6 14 27 35 27 36 42 -29 41 -28 70 -38 70 -38 45 -42 45
-42 46 -31 46 -31 60 -68 60 -68 36 -47 35 -48 12 -57 11 -58 5 -17 5 -18 15
0 14 0 -6 28 -6 27 -14 51 -14 51 -44 59 -43 59 -69 70 -69 70 -87 70 -88 70
-27 15 -28 15 -78 43 -77 44 5 9 6 9 15 0 15 0 40 -23 40 -22 43 -25 43 -25
72 -60 72 -60 28 -20 28 -21 64 -73 64 -73 37 -44 37 -45 21 -57 20 -57 16
-42 16 -43 10 0 10 0 -5 14 -6 15 -11 42 -12 43 -29 60 -29 61 -95 112 -96
113 -9 0 -9 0 -38 34 -38 34 -58 46 -58 47 -27 12 -27 12 -52 32 -52 33 -11 0
-10 0 0 10 0 10 8 0 7 -1 54 -18 53 -19 42 -34 41 -34 60 -40 60 -39 128 -128
128 -128 38 -58 37 -58 23 -79 23 -79 9 -10 9 -9 0 11 0 10 -12 33 -11 33 15
11 16 12 116 3 116 3 6 -19 7 -18 24 -32 24 -33 20 0 19 0 0 5 0 5 -26 40 -27
40 -8 47 -9 47 16 51 15 50 14 35 14 35 5 27 6 28 61 65 61 65 14 0 14 0 -2
-24 -2 -24 -12 5 -11 4 -17 -16 -16 -17 -16 -31 -16 -32 -25 -33 -24 -32 7
-12 7 -11 -11 7 -11 6 -6 -54 -7 -54 7 -13 8 -12 -11 7 -12 7 0 -75 0 -74 26
-31 26 -31 14 0 15 0 5 15 6 15 -25 21 -26 20 -6 32 -6 32 10 88 10 88 57 85
56 85 11 -4 10 -3 2 -22 2 -22 -5 5 -5 4 -19 -24 -19 -25 6 -10 6 -10 -17 7
-17 6 5 -26 5 -26 -8 4 -7 5 -17 -45 -17 -44 5 -21 5 -20 -8 0 -9 0 6 -52 6
-53 13 -33 14 -33 9 5 9 6 -5 -20 -5 -20 17 -6 17 -7 9 14 9 14 9 -14 9 -13
21 7 22 7 -24 28 -24 28 3 74 3 73 6 45 6 46 9 14 9 14 7 -7 7 -7 -15 -77 -16
-78 8 -54 7 -55 34 -28 33 -28 35 0 34 0 -7 7 -7 7 -32 11 -32 10 -19 35 -18
35 11 58 12 57 9 0 8 0 7 -27 6 -27 37 -61 36 -60 20 -23 20 -22 8 12 8 13 9
-15 10 -14 7 6 6 7 -47 98 -48 98 -22 50 -22 50 -16 50 -16 50 -25 96 -26 97
0 51 0 51 10 0 10 0 0 15 0 15 27 77 26 78 14 20 13 19 0 19 0 19 58 61 57 61
34 31 33 30 57 56 56 56 28 18 28 18 5 -6 6 -6 -38 -33 -39 -33 -40 -44 -40
-45 -25 -24 -25 -24 -62 -61 -63 -61 -6 -20 -7 -21 -24 -38 -23 -37 -16 -68
-16 -67 -1 -85 -1 -85 23 -65 23 -65 18 -35 18 -35 38 -85 37 -85 14 -33 14
-33 15 -49 15 -50 9 0 10 0 0 8 0 7 -15 50 -15 50 -20 27 -20 27 0 12 0 12
-29 56 -28 56 -8 25 -8 25 -17 25 -18 25 -12 45 -13 45 -5 45 -5 45 2 57 2 56
13 69 13 69 46 71 47 71 57 46 58 45 18 31 18 31 66 64 66 65 14 0 14 0 6 -17
7 -17 -22 -14 -21 -14 -43 -42 -43 -41 -20 -15 -21 -15 -21 -28 -22 -28 -51
-41 -51 -40 -19 -38 -20 -39 -18 -13 -19 -13 -13 -88 -12 -88 7 -55 7 -56 33
-101 32 -102 62 -127 61 -127 0 -12 0 -11 22 -39 22 -39 8 0 8 0 0 6 0 5 -20
37 -20 37 -31 70 -30 70 -34 75 -34 75 -30 85 -30 85 -3 34 -3 34 12 4 11 4
22 -91 21 -92 9 -16 8 -17 31 -66 31 -66 0 -12 0 -12 12 7 11 7 -7 -11 -7 -11
7 -25 6 -26 11 7 10 6 -7 -11 -7 -11 32 -63 32 -63 7 -25 6 -25 22 -1 22 -1 0
5 0 5 -24 42 -25 42 52 -4 52 -4 95 -7 95 -7 9 -42 10 -43 9 0 10 0 -6 35 -6
35 10 0 9 0 0 -22 0 -23 10 -15 9 -14 5 5 5 5 -10 44 -11 45 6 169 6 170 27
40 28 40 37 54 37 55 35 29 36 29 10 -6 10 -6 0 -15 0 -14 -9 0 -9 0 -56 -52
-57 -51 -30 -53 -30 -53 -10 -118 -11 -118 16 -95 17 -95 10 -10 11 -10 -5 45
-4 45 -12 62 -11 63 9 112 9 113 29 51 28 51 65 56 65 57 7 0 8 0 0 -6 0 -7
-68 -66 -68 -66 -28 -82 -28 -81 6 -119 5 -118 6 -42 7 -42 14 -12 15 -12 -6
44 -6 44 -10 48 -9 48 0 77 0 77 22 75 22 75 67 68 66 67 12 0 11 0 0 -5 0 -5
-42 -38 -41 -37 -32 -50 -32 -50 -17 -50 -16 -50 -1 -90 -1 -90 11 -50 10 -50
8 -27 8 -27 63 35 62 35 0 9 0 10 38 24 37 24 20 18 21 19 17 27 17 27 15 43
15 43 0 45 1 45 14 -19 14 -19 -8 -16 -8 -16 -7 -40 -7 -40 -25 -53 -25 -54
-31 -16 -31 -17 -16 -19 -16 -19 -15 -16 -15 -16 -30 -22 -30 -22 17 -1 17 0
56 53 55 52 33 27 33 26 27 54 27 53 0 38 0 37 10 0 10 0 0 -42 0 -43 -24 -50
-23 -50 -57 -55 -57 -55 -9 -3 -10 -4 -10 -19 -11 -19 9 0 9 0 82 80 82 80 19
43 20 42 0 35 0 34 10 -10 11 -11 -9 -55 -9 -56 -25 -28 -26 -29 -58 -62 -57
-63 7 0 7 0 30 23 31 22 58 71 57 72 7 41 6 42 10 -6 10 -6 0 -35 0 -35 -44
-62 -44 -62 -41 -30 -41 -30 0 -7 0 -8 8 0 7 0 57 51 57 50 32 57 32 57 2 3 3
3 58 -58 59 -58 53 -38 52 -37 0 16 0 15 9 -6 10 -5 6 10 6 10 -9 0 -10 0 -81
81 -81 82 5 5 5 5 74 -73 75 -74 15 -8 16 -9 0 8 0 8 -125 126 -125 126 0 14
0 14 69 -70 68 -70 69 -66 69 -67 23 -7 22 -6 0 -10 0 -9 9 0 10 0 -5 47 -4
48 -6 70 -5 70 1 39 1 39 1 6 1 6 -8 19 -9 20 10 3 9 3 -2 63 -2 62 -3 472 -3
473 -6 0 -7 0 -17 37 -18 36 7 59 6 59 15 29 16 30 9 0 10 0 0 22 0 21 -25
-23 -25 -24 -11 -40 -11 -41 -8 -22 -9 -21 14 -53 14 -53 21 -28 20 -27 0 -6
0 -5 -15 0 -16 0 -5 18 -6 17 -25 62 -26 62 5 54 4 55 44 76 44 76 8 -12 8
-13 0 38 0 38 -9 -5 -9 -6 -11 14 -12 14 -70 44 -70 43 -43 25 -42 25 -59 44
-60 44 -110 111 -110 111 -38 46 -37 46 0 7 0 6 -16 18 -15 17 -23 36 -23 35
-6 54 -7 55 18 54 17 54 26 27 27 26 26 51 25 51 33 29 32 28 70 71 71 70 18
13 17 13 0 -9 0 -10 -119 -120 -118 -120 -27 -54 -26 -54 -27 -50 -27 -50 -4
-51 -4 -50 27 -55 27 -54 57 -65 56 -65 8 -6 9 -7 75 -68 75 -69 62 -60 62
-60 87 -52 86 -53 14 0 14 0 41 -30 42 -30 0 18 0 19 -53 26 -52 27 -8 0 -7 0
-78 50 -77 49 -78 73 -78 73 -119 117 -119 117 -25 50 -26 50 0 31 0 31 22 52
22 52 44 78 44 78 117 117 116 118 47 32 47 32 8 0 9 0 63 48 64 47 21 14 21
15 32 30 33 30 5 -6 6 -5 -10 -24 -9 -24 -38 -31 -39 -31 -124 -74 -124 -74
-114 -110 -113 -111 0 -11 0 -11 -17 -13 -16 -14 -33 -70 -32 -70 -13 -61 -12
-61 28 -49 28 -49 31 -30 31 -30 27 -40 28 -40 45 -30 45 -30 0 -6 0 -7 98
-85 97 -84 55 -28 55 -27 57 -44 56 -44 5 0 5 0 5 20 5 19 -7 -1 -6 0 -12 1
-12 1 -33 29 -33 29 -70 36 -69 37 -71 62 -70 62 -42 38 -41 39 -39 37 -38 38
-60 71 -60 72 -5 37 -5 38 18 63 18 62 37 62 37 62 52 56 53 55 0 -16 0 -17
-15 -5 -14 -6 -64 -98 -63 -98 -12 -72 -12 -72 0 -19 0 -19 90 -94 90 -94 0
-8 0 -8 -10 6 -10 6 0 -10 0 -11 18 0 17 0 74 -65 74 -65 8 0 8 0 64 -60 65
-60 45 -20 46 -21 6 -10 7 -10 18 6 18 6 5 -18 5 -18 0 220 0 220 6 510 5 510
1 95 1 95 -6 150 -6 150 -9 200 -9 200 -7 32 -6 31 21 7 21 6 0 25 0 25 -20
-6 -20 -6 0 10 0 10 20 6 20 6 0 20 0 19 -20 0 -20 0 0 10 0 10 15 0 15 0 0
16 0 16 -15 -6 -16 -6 7 103 7 102 15 18 15 17 -9 0 -10 0 -12 -12 -12 -12 0
23 0 23 22 19 23 20 -22 -6 -23 -6 0 21 0 22 17 29 17 28 -8 8 -9 8 -4 -12 -5
-13 -10 0 -9 0 20 26 21 27 0 16 -1 16 -10 -17 -10 -18 -11 0 -10 0 7 27 7 28
9 6 10 6 -33 0 -33 0 -11 -8 -11 -9 -64 5 -64 6 -40 11 -40 12 -27 2 -28 2 0
-9 0 -9 -19 0 -19 0 -4 11 -4 12 -21 -11 -21 -12 -5 13 -4 12 -16 -13 -16 -13
-25 16 -26 17 6 -63 7 -64 14 -29 15 -28 59 -74 60 -74 16 -9 16 -9 -7 -18 -7
-18 -35 40 -35 39 -58 71 -58 72 -12 48 -12 48 17 13 18 13 -23 0 -22 0 6 20
6 20 -10 0 -11 0 0 -15 0 -14 -20 -11 -21 -11 -17 5 -17 6 -85 7 -85 6 -59 -2
-58 -2 5 16 6 15 -14 0 -15 0 0 -10 0 -10 -17 0 -18 0 15 10 15 10 -16 0 -17
0 -11 -14 -12 -14 -19 -5 -20 -5 0 7 0 7 12 12 12 12 -17 0 -18 0 -5 -15 -6
-15 -14 0 -14 0 0 15 0 15 -10 0 -10 0 0 -10 0 -10 -114 2 -114 1 -11 -7 -11
-7 0 15 0 16 -13 0 -13 0 -12 -12 -13 -13 -8 14 -8 13 -22 -14 -21 -13 4 -12
5 -12 -16 -33 -16 -33 -59 -98 -58 -98 0 -10 0 -10 -28 -42 -28 -42 -14 -35
-14 -35 -13 -20 -13 -19 0 -54 0 -53 10 6 10 6 -6 -15 -6 -14 12 -21 11 -22 9
6 9 5 7 -11 7 -12 -11 7 -12 7 0 -8 0 -8 78 -54 77 -53 15 -9 15 -8 -17 -17
-17 -17 -40 36 -40 36 -28 14 -28 15 -31 44 -31 43 -13 52 -12 53 12 70 12 71
37 47 37 47 14 35 14 35 53 75 53 75 20 43 19 42 -5 15 -6 15 -9 0 -9 0 0 -9
0 -9 -21 -5 -21 -6 6 15 5 14 -19 0 -19 0 -6 -10 -6 -10 -21 0 -20 0 6 15 5
15 -8 0 -9 0 -11 -13 -11 -14 -196 -1 -195 0 -6 14 -5 14 -10 0 -10 0 5 -19 4
-18 -21 5 -21 5 -8 14 -8 13 -16 0 -15 0 5 -15 6 -14 -9 -6 -10 -6 0 20 0 21
-11 0 -11 0 5 -13 5 -13 -24 -2 -24 -2 0 15 0 15 -12 0 -13 0 0 -30 0 -31 11
-7 11 -7 26 -45 26 -45 11 -53 12 -52 -52 -70 -52 -69 8 -12 7 -12 -11 7 -12
7 -22 -38 -23 -38 -3 27 -3 27 39 53 40 53 16 32 16 32 0 47 0 47 -31 51 -32
51 -1 37 -1 38 -7 0 -7 0 -6 -21 -7 -21 -32 7 -31 6 -57 3 -57 3 -17 14 -18
14 8 -12 7 -13 -25 0 -26 0 0 9 0 8 -40 -1 -40 -1 0 -7 0 -8 -25 0 -25 0 0 9
0 9 -97 -1 -98 -2 -10 -12 -10 -12 -45 7 -45 6 35 7 35 7 -60 -3 -60 -4 -13 0
-13 -1 6 -10 6 -10 -26 10 -27 10 -83 3 -84 4 3 -6z m319 -32 l47 -3 0 -7 0
-8 -9 -23 -9 -23 -16 -54 -16 -54 -14 -11 -13 -11 -17 -52 -16 -52 0 -98 1
-98 8 -42 8 -43 -6 0 -7 0 -35 48 -36 47 -23 35 -24 35 -33 38 -34 38 20 27
19 27 30 28 30 29 12 44 13 44 -5 71 -5 70 14 -5 15 -6 21 15 21 15 6 -10 5
-9 48 -2z m-332 -3 l-11 -14 9 -25 10 -26 -6 -38 -6 -38 -13 -19 -12 -18 -28
43 -27 44 -33 37 -32 36 -7 -6 -6 -6 7 17 7 18 68 -2 69 -2 7 6 6 7 5 0 4 0
-11 -14z m58 7 l-1 -8 1 -18 1 -18 8 5 8 5 -7 -62 -7 -62 -12 -32 -11 -31 -15
-6 -15 -6 -5 15 -6 14 16 23 16 22 0 54 0 53 -10 20 -11 19 23 10 23 9 3 0 2
1 -1 -7z m63 -6 l-11 -12 19 -25 20 -25 0 -33 0 -34 -41 -69 -41 -69 -9 -5 -8
-5 -6 10 -7 11 15 17 14 17 18 57 17 56 -4 49 -4 48 16 12 15 12 4 1 3 0 -10
-13z m65 -9 l2 -23 3 -56 2 -56 -13 -41 -14 -42 -14 0 -13 0 0 -9 0 -8 -29
-37 -29 -37 -6 9 -5 8 12 21 12 20 25 43 25 43 12 21 13 21 0 36 0 35 -15 20
-14 19 -1 8 0 8 23 9 22 9 0 0 0 1 2 -22z m255 -5 l-4 -22 -14 -12 -14 -11 0
-23 0 -22 -19 -24 -18 -24 -16 -55 -16 -55 -10 -41 -11 -41 0 -100 0 -100 15
-43 15 -43 -5 -5 -5 -6 -15 20 -14 19 -12 49 -11 48 0 103 0 102 12 39 12 39
18 20 17 20 28 90 29 90 -1 5 -1 5 22 0 22 0 -4 -22z m714 15 l7 -11 -14 8
-14 8 7 -8 8 -8 21 -11 21 -11 25 -59 24 -58 1 -47 1 -46 -13 -54 -13 -54 -49
-56 -49 -56 -17 -18 -17 -19 3 -10 2 -9 -8 5 -8 5 -28 -34 -29 -34 -19 10 -19
10 10 13 11 13 -8 8 -7 8 11 -6 12 -7 70 74 71 75 16 25 17 26 -6 15 -6 16 9
-5 9 -6 6 53 6 52 -14 53 -15 53 -16 25 -16 25 -15 6 -14 5 0 10 0 11 18 13
17 13 2 1 2 0 7 -12z m-643 -84 l-56 -87 -24 -80 -23 -81 1 -80 0 -81 8 -55 8
-54 -5 -18 -4 -18 -7 0 -7 0 -14 81 -13 81 7 86 7 86 15 35 15 36 -5 20 -5 21
29 44 30 45 0 9 0 9 26 34 26 34 22 9 21 9 2 0 3 1 -57 -86z m299 52 l11 -21
28 -35 27 -35 31 -88 31 -89 -1 -91 0 -92 -9 -70 -8 -70 -16 -83 -16 -83 -30
-69 -30 -68 0 -9 0 -9 -35 -64 -35 -65 0 -22 0 -22 -11 -7 -11 -6 -8 8 -9 9
29 85 28 85 27 60 27 60 23 75 24 75 16 100 16 100 0 86 -1 87 -16 38 -16 39
-48 75 -49 75 -15 36 -15 36 25 -5 25 -4 11 -22z m278 2 l0 -10 24 -19 24 -19
16 -48 15 -47 3 -25 2 -25 -8 -40 -8 -40 -5 -15 -6 -15 2 -8 1 -8 -10 6 -10 6
0 -11 0 -11 -50 -53 -50 -53 8 -8 7 -8 -11 6 -11 6 -32 -33 -31 -32 7 -9 8 -8
-12 7 -13 7 0 29 0 29 18 6 17 6 40 56 40 56 39 56 39 56 -11 62 -10 63 -31
50 -31 50 0 11 0 11 15 -12 15 -12 0 -10z m790 26 l0 -6 -25 -30 -25 -30 0
-17 0 -17 -29 -60 -29 -59 -51 -88 -50 -87 -16 -52 -15 -52 0 -39 0 -40 27
-36 27 -36 48 -45 48 -45 16 -10 16 -11 -15 -12 -15 -13 -69 68 -70 68 -26 22
-25 21 -7 54 -6 53 30 63 31 62 0 9 0 8 20 18 20 18 0 11 0 11 46 80 47 80 29
58 29 58 -7 11 -7 11 11 -7 12 -7 0 10 0 11 15 0 15 0 0 -6z m450 -11 l0 -5
-19 -26 -18 -27 -7 -25 -7 -25 -9 -20 -8 -20 -38 -80 -37 -80 -1 -60 -1 -60 8
-38 8 -38 7 5 7 4 1 -29 1 -28 25 -48 24 -48 58 -112 58 -111 -10 -18 -10 -17
-14 29 -15 29 -7 29 -7 30 -18 25 -19 26 -43 85 -44 85 -12 31 -13 30 -11 59
-11 59 7 41 6 40 18 40 18 40 18 60 18 60 12 15 13 15 6 25 7 25 11 21 10 22
19 -5 19 -5 0 -5z m732 -4 l43 -11 70 -3 70 -3 3 -15 3 -15 -40 -33 -40 -32 6
-11 6 -11 -8 7 -8 8 -42 -38 -42 -37 -21 -17 -22 -18 0 10 0 10 -42 46 -41 45
-23 56 -23 56 5 9 5 8 18 0 19 0 6 -33 6 -33 43 -67 42 -67 7 0 8 0 0 12 0 12
-24 25 -24 26 -26 50 -26 50 0 12 0 11 13 5 12 5 12 -3 12 -4 43 -12z m-2347
-53 l39 -65 8 5 8 5 -5 -13 -4 -13 19 -35 19 -35 17 -35 17 -35 6 -105 7 -105
-12 -55 -12 -55 -15 -50 -14 -50 -26 -65 -26 -65 -31 -97 -32 -98 -14 0 -14 0
0 4 0 4 15 28 15 29 0 16 0 16 18 49 19 49 18 55 17 55 20 45 20 44 16 78 15
77 -16 94 -16 95 -42 84 -41 83 -34 56 -34 57 0 6 0 6 18 0 18 0 39 -64z m49
3 l29 -60 32 -42 32 -42 13 -35 13 -35 7 -60 7 -60 -14 -120 -15 -120 -25 -80
-25 -80 -14 -35 -15 -35 -14 -28 -15 -29 0 -17 0 -17 -8 -9 -9 -10 -12 -45
-13 -45 -4 -13 -4 -13 -10 6 -10 6 0 15 0 15 36 107 36 107 18 35 17 35 33
114 32 115 -1 99 -1 99 -11 47 -10 46 -18 25 -18 26 -8 33 -7 32 -27 32 -27
32 -17 27 -17 27 0 6 0 5 18 0 17 0 29 -61z m171 51 l-6 -10 30 0 31 0 0 -8 0
-9 30 -44 30 -44 0 -43 0 -43 -25 -47 -25 -47 -13 -17 -14 -18 -7 0 -6 0 0 20
0 20 -26 77 -26 78 -19 37 -19 37 -26 28 -26 28 58 6 59 6 3 1 3 2 -6 -10z
m314 -40 l24 -43 12 -57 12 -58 -8 -60 -9 -61 -19 -35 -20 -35 -62 -66 -63
-66 -23 -34 -24 -35 -9 0 -9 0 -5 8 -5 8 55 65 55 64 34 37 34 36 15 30 15 29
12 65 12 65 -7 36 -7 37 -29 56 -30 56 0 5 0 5 13 -4 12 -4 24 -44z m341 41
l0 -10 -43 -63 -43 -63 -13 -32 -13 -32 -12 -9 -11 -10 -55 19 -55 18 -17 0
-17 1 -7 38 -6 37 -29 58 -29 57 175 0 175 0 0 -9z m73 -5 l5 -14 -16 2 -17 1
1 -17 2 -18 -9 6 -9 5 0 -9 0 -10 -25 -23 -25 -24 0 -13 0 -13 -30 -60 -31
-60 7 -11 7 -11 -10 6 -11 7 -6 -16 -6 -16 7 -10 6 -11 -11 7 -11 7 -11 -21
-11 -20 -3 -127 -3 -128 20 -47 19 -48 8 0 8 0 -2 -17 -1 -18 13 3 13 2 -5 -8
-5 -9 29 -28 28 -27 13 7 12 8 -6 -10 -6 -10 30 -22 29 -22 12 7 11 7 -6 -10
-7 -11 15 -12 15 -12 -6 -9 -5 -9 -17 0 -17 1 -80 67 -80 68 -31 45 -31 46
-12 100 -12 100 11 66 10 66 9 23 9 23 33 51 34 52 28 48 28 49 24 40 24 39
-4 6 -4 6 29 2 28 2 5 -14z m97 -5 l0 -20 -22 -15 -22 -16 -26 -43 -25 -43
-33 -50 -33 -49 5 -18 4 -17 -11 7 -10 6 6 -17 7 -17 -8 5 -8 5 -33 -54 -33
-54 -1 -40 -2 -39 -7 5 -8 4 0 -50 0 -51 11 0 10 0 -5 -9 -6 -9 19 -44 19 -45
53 -47 54 -47 43 -26 42 -25 0 -13 0 -13 -16 -6 -16 -6 -20 25 -19 25 -11 0
-10 0 -37 32 -36 31 -47 61 -48 61 0 124 0 124 34 71 34 71 21 47 21 47 30 33
30 32 0 9 0 8 26 32 26 33 29 2 29 2 0 -19z m340 13 l0 -6 -34 -73 -35 -72 -7
-27 -7 -28 -31 5 -31 5 -65 16 -64 17 -3 3 -3 3 24 55 25 56 -7 8 -7 7 12 -7
13 -7 12 25 11 26 99 0 98 0 0 -6z m50 1 l0 -4 -29 -65 -30 -64 -23 -73 -23
-74 1 -110 1 -110 31 -94 31 -93 11 -13 11 -13 30 -58 30 -59 44 -70 45 -70 0
-12 0 -13 -15 0 -15 0 0 8 0 8 -55 87 -55 86 -34 73 -33 73 -16 55 -15 55 -12
70 -13 70 -4 63 -5 63 21 68 21 69 36 76 36 76 14 0 14 0 0 -5z m50 1 l0 -5
-29 -58 -28 -58 -18 -70 -17 -70 -10 -50 -10 -50 4 -95 4 -95 56 -111 56 -111
55 -89 56 -88 -5 -8 -5 -8 -9 0 -9 0 -7 23 -6 22 -43 65 -42 65 -37 69 -37 69
-26 81 -27 81 0 110 1 110 27 84 28 85 25 53 25 53 14 0 14 0 0 -4z m191 -10
l12 7 -7 -11 -7 -12 16 0 16 0 56 -27 56 -28 59 -70 60 -70 15 -35 16 -35 0
-100 1 -100 -8 -47 -9 -48 -15 -12 -15 -13 8 60 7 60 10 19 10 19 -4 62 -5 61
-32 63 -31 64 -45 39 -45 40 6 9 5 9 -16 0 -17 0 -30 25 -30 25 -14 0 -14 0
-23 13 -22 12 -7 10 -7 9 6 9 5 8 13 -11 14 -12 12 8z m188 -4 l76 -6 32 0 32
0 11 -45 11 -46 24 -40 23 -41 71 -74 71 -75 0 -2 0 -3 -18 0 -17 0 -98 -97
-97 -97 -6 7 -7 6 13 31 13 31 -6 87 -5 87 -16 38 -17 38 -59 72 -59 72 -60
30 -60 30 -1 9 0 8 37 -7 36 -7 76 -6z m261 -10 l0 -29 36 -68 36 -68 9 -11 9
-11 25 -27 24 -28 13 0 12 0 -11 -11 -12 -12 -25 17 -25 16 -43 60 -42 60 -8
0 -7 0 -16 30 -15 29 0 41 0 40 20 0 20 0 0 -28z m61 -7 l6 -30 21 -45 20 -45
40 -42 40 -43 5 -12 4 -13 39 36 39 35 19 15 19 14 -16 -32 -17 -31 -27 -20
-28 -19 -15 -5 -14 -4 -28 24 -28 25 0 14 0 13 -13 0 -14 0 -20 23 -21 22 -26
52 -26 52 0 26 0 26 17 -3 17 -3 7 -30z m-2301 1 l0 -24 -40 -68 -40 -69 0
-16 0 -17 -16 -38 -17 -39 -8 -175 -8 -175 0 -64 0 -63 -13 4 -13 4 -11 25
-12 24 11 79 10 79 -10 71 -9 71 6 80 6 80 32 65 31 65 36 55 35 54 0 8 0 8
15 0 15 0 0 -24z m63 -43 l43 -68 36 -80 36 -80 11 -61 11 -60 0 -57 0 -57 -9
-18 -9 -17 -42 -135 -41 -135 -15 -33 -14 -32 -6 -41 -7 -41 -14 -5 -14 -5 -5
5 -5 5 15 48 15 49 40 130 40 130 15 60 15 60 6 100 6 100 -15 25 -15 25 -37
75 -36 75 -12 15 -12 15 -17 38 -17 37 5 0 5 0 43 -67z m1597 62 l0 -5 -9 -18
-9 -17 -17 -45 -17 -45 -14 -33 -14 -33 0 -13 0 -14 -15 -28 -15 -29 -11 -54
-11 -55 6 -43 6 -44 20 -52 21 -52 42 -85 42 -85 16 -25 16 -25 13 -35 13 -35
14 -16 13 -16 0 -6 0 -7 -10 0 -9 0 -35 55 -35 54 -72 138 -72 138 -5 111 -4
112 26 93 26 94 12 35 11 35 20 28 21 27 18 0 18 0 0 -5z m-1780 -12 l0 -8
-32 -55 -31 -55 -19 -35 -19 -35 4 -16 4 -16 -13 0 -14 0 0 5 0 5 12 41 12 41
18 24 18 24 0 10 0 11 23 33 22 33 8 0 7 0 0 -7z m1906 -50 l31 -23 8 8 8 7
-7 -12 -7 -13 -15 0 -14 0 0 8 0 8 -36 17 -35 17 6 10 6 10 12 -7 12 -7 31
-23z m-1714 -99 l50 -105 5 -39 6 -40 11 7 11 6 -6 -6 -5 -7 -122 -4 -121 -4
6 32 5 31 19 65 20 65 27 52 27 53 8 0 8 0 51 -106z m1698 55 l0 -9 -10 0 -9
0 -26 12 -25 11 0 12 0 12 6 6 7 6 28 -20 29 -20 0 -10z m893 44 l7 -6 -32
-23 -32 -24 -3 4 -4 4 23 25 23 25 6 1 6 1 6 -7z m-792 -49 l30 -15 39 -36 40
-35 21 -34 21 -35 -4 -4 -4 -5 -33 44 -32 43 -48 37 -48 36 -12 0 -11 0 0 10
0 10 5 0 6 0 30 -16z m-2541 -84 l61 -81 5 -17 5 -17 -38 45 -38 45 -37 39
-38 38 0 20 0 19 9 -6 10 -5 61 -80z m2565 -53 l60 -54 -2 -218 -2 -217 -5 -6
-6 -5 -7 7 -8 8 -1 161 -1 162 -16 58 -16 58 -21 29 -20 29 -38 22 -37 22 -47
29 -47 29 5 14 5 13 73 -44 72 -43 59 -54z m772 126 l0 -13 -4 4 -3 3 -93 -90
-92 -90 -60 -50 -60 -49 -109 -101 -108 -102 -77 -77 -76 -78 -90 -96 -90 -96
-45 -46 -46 -47 -29 -45 -30 -45 -41 -45 -42 -45 -44 -55 -44 -55 -40 -60 -40
-60 -88 -180 -87 -180 -9 -15 -9 -15 -34 -60 -33 -60 -34 -80 -34 -80 2 -90 2
-90 -10 -110 -11 -110 16 -90 16 -90 30 -90 30 -89 9 -11 8 -10 20 -55 19 -55
38 -85 37 -85 28 -67 29 -67 52 -88 53 -88 22 -30 22 -30 38 -80 38 -80 67
-103 67 -102 32 -38 32 -37 43 -65 44 -65 45 -65 44 -65 52 -55 52 -55 53 -60
52 -60 62 -88 63 -88 16 13 17 13 -13 -17 -13 -17 33 -38 34 -38 22 -38 22
-38 0 -5 0 -5 -59 68 -58 68 -19 31 -19 31 -50 67 -50 68 -75 86 -75 87 -26
25 -26 25 -61 83 -61 83 -38 47 -38 47 -20 21 -20 20 -30 49 -30 49 -19 35
-18 35 -34 40 -34 40 -21 57 -21 58 -13 5 -13 5 -22 58 -21 58 -41 70 -42 70
-18 21 -18 20 -55 124 -55 124 -14 20 -13 21 -12 54 -11 53 -20 25 -19 24 -7
47 -7 47 -13 38 -14 39 -10 106 -10 107 -1 151 -1 150 27 79 27 78 27 46 27
46 24 50 23 50 12 15 11 15 29 75 28 75 60 110 59 110 57 74 56 73 19 27 19
26 37 40 36 40 45 60 44 60 60 61 60 62 62 68 61 69 41 54 40 54 53 40 53 40
110 106 109 106 41 41 40 41 47 27 48 27 15 28 14 29 42 34 41 35 12 0 13 0 0
-14z m-830 -14 l43 -21 49 -44 49 -44 14 -32 15 -33 -2 -65 -2 -65 -8 -122 -8
-123 -8 0 -9 0 -6 24 -6 23 10 54 9 54 -3 85 -3 85 -5 43 -6 42 -16 26 -17 25
-36 19 -36 19 -40 36 -40 35 9 0 10 0 43 -21z m-85 -65 l63 -35 28 -27 27 -26
12 -38 11 -38 -4 -4 -4 -4 -142 6 -143 5 0 22 0 22 29 59 28 59 6 18 6 17 10
0 9 0 64 -36z m913 7 l4 -21 -37 -25 -37 -25 -11 0 -12 0 -57 -64 -57 -65 -41
-28 -41 -28 -186 -187 -185 -187 -132 -135 -133 -136 0 -12 0 -11 -57 -63 -58
-62 -56 -69 -56 -68 -31 -50 -30 -50 -8 -30 -7 -30 -17 -20 -18 -20 -31 -70
-32 -70 -12 -25 -12 -25 -47 -68 -47 -69 -31 -82 -31 -81 -15 -114 -15 -115
-2 -181 -2 -182 13 -15 12 -15 29 -89 29 -89 40 -106 40 -107 70 -138 69 -139
62 -108 63 -108 19 -47 20 -47 16 -30 16 -30 39 -44 38 -44 0 -9 0 -10 64 -97
65 -96 20 -13 21 -12 0 -10 0 -11 54 -77 54 -77 84 -95 84 -95 23 -38 23 -38
-4 -4 -4 -5 -24 33 -24 32 -111 125 -111 125 -57 82 -56 82 -20 38 -19 38 -27
25 -27 25 -46 75 -45 75 -17 20 -17 20 -43 90 -43 90 -21 30 -21 30 -24 45
-24 45 -34 51 -33 51 0 16 0 16 -31 58 -31 58 -19 54 -19 55 -14 15 -13 16 -7
34 -6 34 -30 64 -30 63 0 15 0 15 -9 0 -8 0 -1 23 0 22 -16 66 -17 65 -1 60
-2 59 8 165 8 165 10 35 11 35 44 90 43 90 38 70 38 70 11 20 12 20 35 78 36
77 10 0 11 0 -6 9 -5 9 36 64 36 63 27 40 26 40 6 5 6 5 58 70 59 70 6 5 5 5
42 55 41 55 39 43 38 44 79 76 79 77 22 35 22 35 51 40 51 40 1 12 0 12 29 20
29 21 43 44 44 43 145 128 145 128 49 49 49 48 4 -4 4 -3 4 -22z m-3359 -28
l39 -48 31 -35 30 -35 35 -50 36 -50 6 -15 7 -15 12 -20 13 -20 33 -54 34 -54
11 -13 12 -12 75 -83 75 -84 50 -50 50 -50 35 -50 36 -50 27 -55 27 -55 65
-75 65 -75 46 -65 45 -65 22 -30 22 -30 48 -67 47 -67 0 -5 0 -6 40 -65 40
-65 45 -115 45 -116 26 -52 26 -52 34 -56 34 -57 10 -53 10 -53 2 -105 1 -106
-17 -48 -16 -48 0 -27 0 -27 -14 -75 -14 -75 -7 -20 -8 -20 -19 -45 -20 -45
-12 -25 -13 -25 -30 -55 -29 -55 -41 -80 -41 -80 -46 -107 -45 -107 -61 -82
-60 -83 0 -8 0 -8 -77 -105 -78 -104 -30 -42 -30 -41 -37 -52 -38 -51 -48 -55
-48 -55 -39 -65 -38 -65 -27 -35 -27 -35 -18 -35 -18 -35 -13 -15 -14 -15 -36
-49 -37 -50 -19 -40 -19 -41 -29 -50 -30 -50 -9 -20 -9 -20 -27 -25 -27 -25
-13 -25 -13 -25 -20 -23 -19 -22 -7 0 -6 0 0 16 0 16 55 81 55 82 24 30 24 30
32 60 33 60 18 30 19 30 32 59 33 59 15 27 15 28 38 43 38 44 49 65 50 65 83
110 84 110 19 35 19 35 25 32 25 31 43 54 43 53 39 50 40 49 36 91 36 90 29
46 29 46 0 14 0 14 23 35 23 35 14 35 14 35 23 37 22 37 30 63 30 63 29 90 29
90 16 75 16 75 10 53 11 54 0 57 0 58 -34 99 -34 99 -41 92 -40 92 -47 98 -47
98 -41 65 -42 65 -19 30 -19 30 -10 20 -11 20 -59 90 -60 90 -73 88 -73 88 0
12 0 12 -26 50 -27 50 -53 70 -53 70 -69 72 -69 72 -37 46 -37 45 -14 0 -15 0
-5 23 -6 23 -62 96 -62 95 -39 59 -38 59 -64 67 -64 66 0 6 0 6 13 0 14 0 39
-47z m2035 20 l59 -16 0 -17 0 -16 -104 25 -104 26 6 13 5 14 40 -6 40 -7 58
-16z m-528 -19 l42 -13 -12 0 -13 -1 0 -16 0 -16 -36 7 -36 6 -24 11 -24 11 0
12 0 12 6 6 7 7 24 -6 24 -6 42 -14z m524 -33 l58 -18 -3 -23 -2 -24 -3 -3 -4
-3 -82 30 -82 30 -19 0 -19 0 -6 10 -6 10 6 11 7 11 49 -7 48 -7 58 -17z
m-1569 -67 l-8 -76 9 -100 10 -100 -6 -16 -6 -15 9 6 10 6 0 -18 0 -18 -13 0
-13 0 0 31 0 31 -9 35 -9 35 -5 90 -6 90 12 40 11 40 11 7 10 8 1 0 0 0 -8
-76z m2896 67 l6 -9 -76 -63 -75 -64 -42 -45 -42 -44 -26 -26 -25 -25 -52 -40
-53 -40 -65 -72 -65 -73 -15 0 -16 0 -69 -71 -70 -72 -37 -47 -37 -47 -53 -62
-52 -62 -14 -33 -14 -33 -115 -118 -115 -119 -66 -130 -65 -131 -20 -45 -20
-45 -27 -45 -26 -45 -17 -25 -17 -25 -32 -67 -31 -67 -20 -88 -19 -88 -13
-106 -12 -106 7 -67 8 -66 10 6 11 7 -7 -11 -7 -12 -8 0 -8 0 -12 27 -12 27 6
111 6 110 14 110 14 110 21 60 20 60 22 40 21 40 37 55 37 55 51 105 51 105
10 15 10 15 24 55 24 55 39 48 39 49 53 65 53 66 25 20 25 19 25 40 25 39 107
112 107 111 191 191 191 190 74 59 74 59 27 39 28 38 14 0 14 0 12 15 12 15 9
0 8 0 5 -9z m-1886 -23 l32 -9 0 -21 0 -20 -27 5 -28 6 -27 10 -28 11 0 13 0
14 7 7 7 7 15 -7 16 -6 33 -10z m537 -41 l70 -24 3 -17 4 -18 -19 6 -18 5 -40
6 -40 7 -30 9 -30 9 -40 6 -40 6 -3 3 -3 2 12 26 11 25 47 -13 46 -13 70 -25z
m-2004 -32 l46 -50 37 -52 36 -53 0 -4 0 -5 -72 -22 -73 -21 -9 -9 -10 -9 -13
0 -14 0 1 33 0 32 0 15 -1 15 7 55 7 55 -1 38 -2 39 8 -4 7 -3 46 -50z m2737
-17 l4 -54 -16 -83 -15 -84 4 -8 5 -7 -6 -16 -6 -16 -7 4 -7 5 7 68 8 68 0
100 1 99 12 -12 11 -11 5 -53z m335 58 l-8 -14 -100 -92 -100 -93 -7 -12 -7
-12 -56 -48 -56 -47 -5 5 -6 6 124 127 123 127 35 14 35 15 13 19 13 19 5 0 5
0 -8 -14z m286 -33 l-1 -48 -6 -48 -7 -49 -38 -13 -37 -13 -56 -33 -56 -34
-54 -55 -53 -55 -40 -55 -41 -55 -16 -35 -17 -35 -6 -48 -6 -47 -83 51 -83 51
-7 -7 -7 -8 10 -3 10 -4 67 -43 66 -42 17 -10 17 -10 -3 -17 -4 -16 -102 62
-102 61 -7 7 -7 7 38 43 38 43 46 27 45 27 76 78 77 78 134 127 134 127 25 20
25 20 8 1 7 0 -1 -47z m-1915 11 l36 -6 6 -10 6 -10 -10 -10 -10 -10 -51 17
-50 16 6 15 6 15 13 -5 13 -5 35 -7z m-1267 -79 l33 -50 36 -50 35 -50 98
-105 97 -105 78 -89 77 -88 21 -42 21 -41 30 -45 31 -45 63 -66 63 -66 53 -79
53 -79 54 -80 54 -79 94 -191 94 -190 29 -55 28 -55 33 -105 32 -105 -1 -95 0
-95 -6 -92 -6 -93 -26 -80 -25 -81 0 -20 0 -20 -11 -22 -12 -22 -6 -5 -7 -5
-38 -80 -39 -80 -33 -56 -34 -57 0 -13 0 -12 -31 -67 -30 -67 -15 0 -14 0 0 3
0 3 22 48 21 48 34 65 33 65 70 140 70 140 15 80 14 80 10 60 9 60 11 40 11
40 0 55 0 55 -16 89 -15 90 -69 130 -68 131 -36 95 -37 95 -23 35 -23 35 -23
45 -23 45 -53 75 -53 75 -15 17 -14 16 -37 59 -37 58 -47 50 -48 50 -36 46
-37 46 -16 39 -16 39 -31 45 -30 45 -91 95 -91 95 -59 65 -58 64 -29 42 -29
43 0 5 0 6 -43 63 -43 62 -9 15 -9 15 19 -15 18 -15 34 -50z m1803 41 l85 -16
11 -4 11 -4 11 -44 11 -43 6 -51 5 -51 -35 -27 -35 -27 6 -11 7 -11 -10 6 -10
7 -19 -22 -19 -21 -44 -19 -44 -19 -6 8 -6 8 -55 49 -54 48 -23 31 -23 31 0
36 0 36 15 50 14 49 17 21 17 20 41 -7 41 -7 85 -16z m-561 -5 l54 -19 2 -78
3 -79 12 -67 12 -68 40 -50 39 -49 83 -65 84 -65 -17 -34 -16 -34 -102 1 -101
0 -28 58 -27 58 -116 106 -116 106 -27 25 -28 25 0 7 0 8 90 98 89 97 6 19 6
19 2 0 2 -1 54 -18z m-585 -6 l5 -15 -78 0 -78 0 -47 -6 -46 -7 0 16 0 16 28
4 27 4 91 2 92 1 6 -15z m1619 -6 l136 -2 4 -18 5 -18 -4 -3 -3 -4 -78 7 -78
8 -60 0 -60 1 -14 9 -14 9 7 11 7 11 8 -4 8 -5 136 -2z m-1623 -42 l0 -14 -46
-7 -47 -6 -73 0 -74 0 0 13 0 14 6 5 5 6 115 1 114 2 0 -14z m1673 -13 l97 -7
0 -20 0 -20 -131 7 -132 7 -18 10 -19 10 0 16 0 15 53 -6 52 -6 98 -6z m-1669
-38 l-5 -14 -115 -7 -115 -7 -6 6 -5 5 5 14 5 13 121 2 120 2 -5 -14z m1646
-22 l120 -7 1 -101 2 -101 1 -29 2 -30 -60 -70 -60 -71 -79 -84 -79 -84 -23
-36 -22 -36 -25 -25 -25 -25 -80 -105 -80 -106 -38 -69 -37 -70 -23 -40 -24
-40 -30 -80 -31 -80 -8 -15 -9 -15 -56 -106 -57 -106 -26 -68 -25 -69 0 -168
1 -168 10 -92 10 -93 24 -95 24 -95 26 -55 26 -55 0 -12 0 -11 41 -89 41 -88
40 -80 39 -80 44 -65 45 -65 26 -68 26 -68 23 -27 22 -27 8 -25 8 -25 23 -37
23 -36 12 -7 11 -7 22 -47 22 -46 29 -43 30 -43 49 -57 48 -57 54 -76 54 -77
78 -85 77 -86 42 -48 42 -48 55 -71 54 -72 15 -28 16 -29 61 -68 62 -67 10 6
11 7 -6 -10 -7 -11 88 -93 87 -92 -23 12 -23 12 -72 73 -72 72 -56 60 -56 59
-79 115 -79 114 -62 67 -63 66 0 12 0 12 -9 -5 -8 -5 -64 81 -64 81 -50 59
-50 60 -13 24 -13 24 -9 -5 -8 -5 -7 -62 -6 -63 -11 -35 -10 -35 -36 -94 -37
-94 -78 -76 -78 -76 -42 -28 -42 -28 -31 -31 -32 -30 -10 18 -10 19 37 25 37
25 43 35 43 35 46 42 45 43 8 0 8 0 32 46 32 46 33 95 34 95 11 85 11 85 -9 7
-9 6 -32 48 -32 48 0 5 0 5 -15 15 -14 15 5 14 6 15 -13 0 -14 0 -20 31 -20
30 2 10 3 9 -13 0 -12 0 -26 53 -26 52 -52 105 -53 105 -23 30 -22 30 -53 115
-53 115 -22 35 -22 35 -22 44 -23 43 -29 112 -29 111 -14 52 -15 53 -16 137
-16 137 7 101 6 100 13 56 14 56 29 49 28 49 54 125 53 125 80 155 80 155 68
101 68 102 23 18 24 19 56 72 57 71 110 119 110 118 26 24 26 24 -6 5 -5 6
-51 -50 -50 -49 -15 19 -14 20 0 19 0 19 -18 26 -19 27 -45 85 -46 85 -2 25
-2 25 1 9 1 8 15 -6 15 -5 120 -7z m871 -11 l-9 -18 -49 -17 -48 -17 -45 -41
-45 -40 -8 0 -7 0 -47 -72 -47 -73 -13 -8 -13 -8 0 -17 0 -17 -15 -40 -14 -40
-1 -90 0 -91 14 -19 13 -20 13 -40 13 -40 24 -35 24 -35 40 -55 40 -55 42 -45
42 -46 55 -66 55 -67 4 4 4 4 -18 28 -18 28 -46 55 -45 55 -46 52 -45 51 -44
62 -43 61 -20 52 -20 52 -10 13 -11 13 -5 72 -4 72 21 64 22 63 48 72 49 71
58 48 59 48 51 23 51 24 0 -13 0 -13 -26 -13 -26 -13 -27 -18 -26 -18 -14 0
-13 0 -58 -57 -58 -57 6 -13 5 -14 -10 6 -9 6 -20 -39 -20 -40 -19 -50 -19
-50 4 -64 4 -63 15 -51 14 -52 35 -48 36 -49 27 -45 27 -44 55 -57 55 -56 48
-57 47 -57 0 -38 0 -38 -47 -39 -48 -39 -65 -48 -65 -48 -65 -39 -65 -38 -3 3
-3 2 36 36 36 36 57 32 57 32 40 38 40 38 38 16 37 15 0 6 0 5 -22 -3 -23 -3
-3 27 -3 27 -19 6 -18 6 -5 12 -5 12 -68 86 -69 86 -35 48 -35 48 -27 46 -27
46 -16 35 -17 35 -14 65 -14 65 0 51 0 51 12 34 12 34 52 70 52 70 54 55 55
55 69 33 69 33 15 9 15 9 3 0 3 1 -10 -17z m-2572 -163 l-41 -135 -15 -60 -16
-60 -8 -9 -7 -8 -25 38 -25 39 -28 36 -29 35 1 105 2 104 1 31 1 31 113 9 112
9 3 -15 3 -16 -42 -134z m-641 133 l-3 -16 -95 -33 -95 -33 -7 0 -8 -1 0 19 0
19 40 7 41 7 27 12 27 13 25 11 25 11 13 0 13 1 -3 -17z m3252 3 l0 -5 -10 -6
-10 -6 0 10 0 11 10 0 10 0 0 -4z m-2315 -22 l24 -16 11 7 10 6 -2 -8 -3 -8
110 -100 110 -99 54 -51 53 -50 28 -55 27 -55 18 -54 17 -53 -4 -42 -5 -42
-26 -52 -26 -52 5 0 5 0 -35 -37 -35 -38 -49 -75 -49 -75 -32 -56 -31 -56 -29
-25 -28 -26 -21 44 -22 44 45 67 45 68 32 45 33 45 51 70 51 70 17 32 16 32 0
43 0 43 -11 39 -11 38 -34 34 -33 34 -40 54 -40 54 -67 49 -66 48 -26 23 -25
23 -34 20 -33 21 0 3 0 4 19 11 19 10 43 -33 42 -32 36 -36 36 -36 41 -26 42
-26 28 -41 29 -42 46 -56 47 -57 14 -35 15 -35 7 -37 7 -36 -21 -39 -21 -38
-49 -60 -49 -60 -41 -80 -40 -80 -45 -60 -44 -60 0 -7 -1 -8 13 0 13 0 30 47
29 47 20 25 21 26 34 75 34 75 40 54 41 54 25 36 24 36 -1 40 -1 40 -22 49
-21 50 -37 42 -37 42 -28 45 -28 45 -54 36 -54 37 -13 18 -13 18 -68 52 -67
52 -10 -6 -10 -6 0 25 0 26 5 0 6 0 24 -16z m-901 -29 l6 -16 -26 -9 -25 -10
-13 0 -13 0 -86 -29 -87 -29 0 24 0 24 18 1 17 0 80 29 80 28 21 1 22 1 6 -15z
m3179 -15 l5 -20 -9 5 -9 6 -47 -27 -48 -26 -12 -10 -13 -10 0 9 0 10 38 25
37 25 25 16 25 16 1 0 2 1 5 -20z m-1213 -25 l0 -25 -41 -20 -41 -21 -5 5 -5
5 41 27 41 27 -6 20 -6 20 11 -7 11 -7 0 -24z m1255 25 l-6 -10 -10 0 -10 0 6
10 6 10 10 0 10 0 -6 -10z m-3154 -87 l44 -68 85 -100 85 -100 29 -38 28 -38
-3 -4 -4 -3 -70 -14 -70 -14 -60 61 -60 60 -80 54 -80 55 -25 22 -25 23 -46
20 -47 19 -8 14 -8 13 -3 15 -2 16 62 19 62 18 60 18 60 17 16 1 15 1 45 -67z
m3118 -15 l11 -53 3 -97 3 -98 -41 7 -40 6 -5 6 -5 6 -17 1 -18 1 -40 1 -41 2
-5 15 -6 16 38 75 39 76 47 44 47 44 10 0 10 0 10 -52z m-2310 32 l7 0 32 -27
31 -28 72 -50 71 -50 28 -40 28 -40 42 -44 42 -43 9 -31 9 -32 0 -53 0 -52
-27 -43 -27 -42 -36 -45 -36 -45 -11 -26 -11 -27 -29 -33 -28 -34 -35 -52 -35
-53 -7 0 -8 0 0 22 0 22 19 20 19 21 85 130 85 130 31 48 32 48 -12 42 -11 42
-35 52 -34 52 -102 88 -101 88 -51 49 -50 48 18 -6 19 -6 7 0z m2216 -10 l-18
-20 -11 0 -11 1 24 19 23 20 6 0 5 0 -18 -20z m-1110 0 l-6 -10 -10 0 -9 0 0
10 0 10 16 0 15 0 -6 -10z m1045 -22 l-10 -13 -39 -56 -38 -55 -12 -50 -12
-49 -15 -33 -15 -33 11 -57 12 -57 27 -35 27 -35 41 -60 41 -60 86 -94 86 -93
0 -31 0 -31 -37 44 -38 43 -14 21 -15 21 -32 30 -32 30 -74 110 -75 110 -11
34 -12 34 0 83 0 83 9 5 8 5 13 45 12 45 23 15 22 14 13 34 14 33 10 7 11 8
13 0 13 0 -11 -12z m-2066 -100 l80 -73 35 -28 35 -28 33 -46 32 -46 16 -54
16 -54 -29 -42 -29 -42 -19 -29 -19 -29 -12 -21 -12 -21 -48 -69 -48 -69 -27
-31 -27 -31 -7 18 -7 18 27 28 27 28 59 84 60 84 26 43 27 44 12 35 12 35 -10
42 -10 41 -103 103 -102 102 -11 0 -11 0 -45 41 -45 42 0 14 0 14 22 -15 21
-15 81 -73z m1012 62 l-33 -15 -39 -30 -39 -29 -73 -65 -73 -65 -20 -46 -21
-45 -15 -50 -15 -49 6 -49 7 -49 16 -41 16 -42 33 -45 32 -45 27 -49 27 -48
-16 -16 -16 -16 0 12 0 13 -64 102 -63 102 -17 32 -16 32 0 59 0 58 30 88 29
87 32 37 32 36 76 65 76 65 -3 9 -2 8 9 -5 9 -6 44 19 43 18 7 -11 8 -11 -34
-15z m1041 -47 l-35 -68 -18 -43 -18 -44 0 -48 0 -49 11 -23 11 -23 27 -58 27
-57 104 -109 104 -109 0 -22 0 -23 -62 68 -63 68 -52 71 -52 71 -28 40 -28 40
-19 56 -19 56 27 79 27 79 16 30 16 30 24 33 25 33 5 -5 5 -5 -35 -68z m-1197
62 l0 -4 -95 -92 -95 -92 -32 -66 -32 -66 -1 -110 0 -110 25 -55 25 -55 73
-108 73 -108 -6 -9 -6 -10 -35 41 -35 42 -26 46 -27 46 -23 30 -22 31 -27 59
-28 60 1 85 0 85 22 64 22 64 15 28 15 29 12 1 12 0 60 70 60 71 30 19 30 19
8 0 7 0 0 -5z m56 -17 l7 -11 -10 6 -10 7 -19 -21 -19 -21 -17 -9 -18 -10 0
10 0 10 37 26 38 25 2 0 2 0 7 -12z m-937 -88 l11 0 63 -63 62 -64 -125 -10
-125 -11 -30 -15 -30 -15 -23 -7 -24 -7 7 24 7 23 13 20 12 20 36 89 36 89 -6
11 -7 11 55 -47 56 -48 12 0z m1089 68 l-5 -13 -41 -15 -42 -16 -32 -31 -33
-30 -16 -9 -17 -9 -42 -39 -43 -39 -18 -66 -18 -66 -1 -57 0 -58 55 -112 55
-113 0 -17 0 -18 -11 0 -10 0 -15 36 -15 35 -30 42 -30 41 -20 44 -19 45 0 68
0 68 10 6 10 6 0 25 0 25 15 37 16 37 52 48 52 48 51 39 52 39 33 15 34 14 13
1 14 1 -4 -12z m-2234 -23 l20 -15 14 0 15 0 37 -32 37 -33 19 -12 19 -12 -11
0 -12 -1 -52 36 -52 36 -28 10 -28 9 -6 15 -5 14 7 0 7 -1 19 -14z m2256 -14
l0 -9 55 -83 55 -83 6 -18 6 -19 -12 -13 -11 -14 -44 13 -44 14 -24 15 -24 16
-54 16 -54 15 -42 10 -43 11 0 8 0 8 30 12 30 12 33 32 33 31 45 17 44 17 8 0
7 1 0 -9z m-2204 -52 l5 -9 -18 0 -18 1 -17 13 -18 13 0 6 0 6 30 -11 30 -10
6 -9z m1852 -47 l-34 -38 -32 -98 -32 -98 0 -60 0 -59 20 -40 21 -39 69 -106
70 -106 0 -8 0 -9 -9 -5 -9 -6 -6 15 -5 15 -59 88 -58 87 -26 55 -27 55 -2 65
-3 65 8 53 8 53 23 42 24 42 34 38 35 37 12 0 12 0 -34 -38z m-1848 -4 l25
-19 46 -35 47 -34 44 -53 45 -52 10 -20 11 -20 8 -40 7 -40 1 -67 0 -68 -13
-12 -14 -13 -4 13 -5 12 -16 0 -17 0 3 -49 4 -49 -48 -101 -48 -101 -10 3 -10
3 -10 16 -9 16 32 40 32 41 15 53 15 53 6 43 6 42 6 0 7 0 -4 72 -4 72 -18 41
-17 40 -29 29 -29 28 -72 61 -73 61 0 8 0 8 9 0 10 0 73 -59 73 -59 35 -44 35
-43 13 -16 12 -16 6 -79 7 -79 9 -15 9 -15 -7 100 -6 100 -55 69 -56 68 -78
57 -78 56 -1 13 0 13 23 -7 22 -7 25 -19z m83 -17 l19 -16 10 -19 10 -19 -19
14 -19 14 -32 24 -32 25 0 8 0 9 23 -12 22 -12 18 -16z m2651 -13 l50 -33 17
-10 16 -10 52 -28 51 -27 0 -21 0 -21 -52 32 -53 31 -45 22 -45 22 -13 13 -13
12 -17 0 -17 0 -14 9 -15 9 13 16 13 16 11 0 10 0 51 -32z m-2578 4 l-5 -9 42
-23 42 -23 29 -31 28 -31 26 -45 26 -44 7 -66 7 -65 -10 -85 -9 -85 -41 -95
-41 -95 -23 -55 -23 -55 -10 -3 -11 -4 -6 16 -6 15 52 96 52 96 17 87 17 87
-1 105 0 105 -23 48 -24 47 -75 52 -75 52 18 7 19 8 3 0 3 1 -5 -8z m1906 -44
l47 -18 18 0 18 -1 40 -24 40 -25 22 0 22 0 5 -8 5 -8 -9 -14 -9 -15 -48 19
-48 18 -35 8 -35 8 -57 21 -58 21 -12 0 -13 0 -13 9 -14 8 13 20 12 20 31 -10
31 -10 47 -19z m1168 24 l5 -7 55 -3 55 -4 9 -8 8 -8 -7 -11 -7 -12 -36 7 -37
6 -69 19 -69 18 -8 -5 -9 -5 0 17 0 17 52 -7 53 -7 5 -7z m-500 -46 l65 -32
40 -25 40 -26 30 -10 29 -9 -40 -11 -40 -10 -69 35 -70 34 -58 29 -58 29 11
21 11 20 22 -7 22 -6 65 -32z m-2699 -66 l92 -85 -94 -6 -94 -6 -5 4 -5 5 -4
90 -3 90 10 -3 11 -4 92 -85z m1227 77 l12 -9 0 -8 0 -7 -95 -7 -94 -7 -33
-10 -33 -9 -82 -7 -83 -6 0 9 0 10 31 2 31 2 33 14 32 14 89 11 89 11 30 3 30
2 15 1 15 1 13 -10z m1976 -13 l50 -14 38 0 38 0 0 -19 0 -18 -52 4 -53 5 -35
11 -35 11 -21 1 -21 2 -17 6 -16 6 0 16 0 16 38 -7 37 -6 49 -14z m-3024 -31
l60 -47 16 -54 16 -53 -6 -102 -5 -102 -12 -55 -11 -55 -21 -50 -21 -50 -6 -5
-7 -5 -27 -52 -28 -51 -14 5 -14 5 0 5 0 4 35 46 35 46 16 56 16 56 8 35 9 35
12 80 12 80 -12 69 -12 69 -14 27 -13 26 -46 42 -46 42 10 0 10 0 60 -47z
m1437 29 l41 -2 -5 -19 -5 -18 -81 4 -81 4 -8 12 -7 12 21 5 22 6 31 -1 30 -2
42 -1z m321 -8 l27 -6 65 -23 65 -23 58 -17 57 -18 0 -14 0 -13 -15 0 -15 0
-67 21 -68 22 -82 30 -83 30 0 15 0 14 16 -6 16 -6 26 -6z m658 -18 l29 -15
25 -10 25 -11 15 -9 15 -10 60 -27 60 -27 -42 -8 -41 -8 -44 -22 -43 -22 -56
-38 -55 -37 -90 -95 -90 -95 -12 -39 -12 -38 -13 -17 -13 -16 -84 9 -84 10 -4
4 -4 4 28 58 29 58 85 85 86 85 37 46 37 46 0 11 0 10 57 66 57 66 6 0 7 0 29
-14z m-1333 -16 l5 -20 -6 -3 -7 -4 -55 -2 -55 -2 -110 -24 -110 -25 -56 -6
-56 -6 -7 11 -7 11 11 20 11 20 42 0 42 0 80 16 80 16 75 7 75 8 21 2 22 1 5
-20z m1944 -9 l42 -11 8 1 8 1 33 -1 32 -1 0 -25 0 -25 -22 4 -23 5 -60 6 -60
6 -22 6 -23 5 0 -10 0 -10 83 -11 82 -11 25 -3 25 -2 7 -125 7 -125 -4 -3 -3
-4 -82 84 -81 83 -28 40 -28 40 -16 49 -17 50 0 6 0 7 38 -7 37 -7 42 -12z
m-1238 -20 l86 -29 63 -18 62 -18 0 -7 0 -7 -15 -12 -14 -12 -33 7 -33 7 -103
35 -104 34 -6 -5 -5 -6 4 -5 5 -4 113 -36 113 -35 14 0 14 0 0 -8 0 -9 -18
-17 -19 -16 -64 -98 -64 -98 -54 110 -54 111 0 55 -1 55 7 28 7 27 7 0 6 0 86
-29z m-331 7 l-5 -13 -68 0 -68 0 -4 13 -5 12 77 0 77 0 -4 -12z m-1140 -10
l12 -12 0 -8 0 -8 -27 0 -28 0 -55 -15 -55 -15 -12 17 -13 17 0 6 0 7 48 10
47 10 36 2 35 1 12 -12z m780 -30 l-3 -23 -85 -7 -85 -7 -99 -11 -98 -11 -23
-9 -22 -9 -12 12 -11 11 0 8 0 8 38 0 38 0 54 14 55 14 70 11 70 11 25 4 25 3
33 2 33 1 -3 -22z m350 -13 l-3 -20 -12 1 -13 1 -50 2 -50 1 0 18 0 17 65 0
66 0 -3 -20z m-1085 -14 l19 -16 -59 -12 -58 -12 -52 -1 -53 0 0 10 0 9 38 10
37 10 40 9 40 8 15 1 15 0 18 -16z m2367 2 l0 -8 -43 -17 -42 -16 -75 -28 -75
-27 -45 -32 -45 -33 -35 -39 -35 -38 -43 -54 -42 -54 -31 -63 -32 -64 -5 -94
-5 -93 18 -54 18 -54 27 -55 26 -55 47 -73 48 -73 41 -45 41 -45 -11 -11 -12
-12 -3 5 -3 4 -66 85 -65 85 -46 70 -45 70 -23 50 -24 50 0 125 0 125 28 50
27 50 0 13 0 13 88 91 87 91 50 36 50 37 60 26 60 27 30 7 30 7 20 13 19 14
18 0 18 0 0 -7z m-1650 -28 l0 -4 -21 -38 -21 -37 -20 -26 -19 -25 -62 -84
-62 -84 -11 -4 -11 -4 -40 63 -40 63 -36 62 -37 61 0 11 0 10 38 10 37 10 100
9 100 9 53 2 52 1 0 -5z m355 -3 l10 -7 4 -50 3 -49 23 -51 22 -50 66 -101 67
-101 15 -13 15 -12 0 -13 0 -13 11 -4 11 -4 -40 -79 -40 -80 -27 -70 -26 -70
-45 -84 -46 -84 -14 -66 -14 -66 0 -89 0 -88 -22 6 -23 7 -74 6 -74 6 7 -11 7
-12 35 0 36 0 -5 -12 -4 -13 -37 2 -36 2 0 -9 0 -10 49 0 48 0 47 -6 46 -7 0
-13 0 -14 -97 0 -98 0 15 -10 15 -9 82 5 81 5 7 -11 7 -11 -5 -6 -6 -5 -96 1
-96 1 6 -10 6 -10 93 0 93 0 17 -107 18 -107 9 -17 9 -17 19 -85 20 -84 20
-49 19 -49 41 -69 41 -70 41 -95 42 -96 24 -33 24 -32 70 -137 69 -137 -17 -9
-18 -10 -50 -51 -50 -52 -40 -26 -40 -27 -54 -62 -55 -62 -50 -77 -51 -77 -10
-15 -10 -14 -60 4 -61 4 -16 45 -16 45 15 16 14 17 50 75 49 75 0 10 0 10 16
30 17 30 32 65 32 65 21 65 21 65 6 63 7 63 -17 70 -18 70 -37 57 -38 57 -74
70 -73 70 -70 54 -70 55 -32 18 -32 19 10 27 10 27 29 120 28 120 6 80 6 80 1
110 0 110 -15 40 -14 40 49 50 49 49 0 7 0 7 64 81 65 81 22 58 22 57 2 60 3
60 -13 70 -13 70 -22 55 -22 55 -16 32 -15 33 -35 35 -35 35 -14 0 -13 0 0 7
0 6 17 54 17 53 55 0 56 0 10 -8z m1308 -4 l4 -13 -76 -28 -76 -28 -25 -6 -25
-6 -52 -36 -52 -37 -56 -53 -55 -53 -30 -43 -30 -43 -15 -64 -15 -63 0 -90 0
-90 19 -67 19 -66 41 -61 41 -60 0 -9 0 -9 26 -24 26 -24 29 -42 29 -42 -8 -5
-7 -4 -56 66 -56 67 -19 35 -19 35 -21 30 -21 30 -29 70 -29 70 1 116 2 116
19 44 20 44 49 65 49 65 55 56 55 57 30 15 30 15 95 32 95 32 10 9 9 9 7 0 7
0 5 -12z m-2823 -25 l0 -16 -67 6 -68 7 -34 0 -35 0 10 10 9 9 85 3 85 3 8 -3
7 -3 0 -16z m477 0 l4 -11 -68 -6 -68 -6 -52 -5 -53 -5 0 15 0 15 53 1 52 1
30 8 30 8 34 -1 34 -2 4 -12z m2363 -21 l0 -9 -57 -13 -57 -12 -60 -31 -60
-30 -41 -37 -40 -36 -38 -24 -38 -25 -35 -71 -34 -71 -11 -108 -11 -109 22
-74 22 -74 28 -52 27 -52 44 -45 44 -46 14 -26 14 -27 -7 -7 -8 -8 -25 30 -25
30 -25 29 -25 30 -20 40 -21 41 -22 30 -22 30 -18 55 -18 55 1 105 1 105 14
51 15 52 40 54 40 55 76 64 76 64 53 18 52 18 55 19 55 19 13 0 12 1 0 -8z
m-2830 -19 l0 -13 -17 -1 -18 0 -82 -5 -83 -6 0 21 0 21 100 -2 100 -3 0 -12z
m490 -2 l0 -9 -15 -12 -15 -12 0 -12 0 -11 -34 -70 -35 -70 -43 -95 -43 -95 1
-85 0 -85 17 -36 18 -36 17 -19 17 -19 34 -40 34 -40 75 -67 74 -68 55 -26 54
-27 -3 -7 -3 -7 -55 -116 -55 -116 -41 -1 -41 0 -12 58 -11 57 -41 60 -40 60
-26 50 -25 50 -32 45 -32 45 -28 49 -28 48 -37 37 -36 37 -32 19 -32 19 -5 11
-4 12 19 43 19 42 0 13 0 13 14 11 14 12 6 24 6 24 29 63 29 63 5 20 6 20 6
80 5 79 8 8 7 7 70 4 70 3 48 2 47 2 0 -9z m2336 -19 l-6 -10 -43 -10 -43 -11
-76 -41 -76 -40 -7 0 -7 0 13 16 13 16 50 26 51 26 65 21 65 22 4 -3 3 -3 -6
-9z m-2828 -19 l-3 -18 -25 -3 -25 -2 -42 -11 -42 -11 -36 6 -36 7 3 17 3 16
75 4 75 3 10 4 10 3 18 1 18 1 -3 -17z m511 -7 l12 -15 -17 -33 -16 -33 -25
-27 -25 -26 8 -14 7 -13 -8 7 -8 8 -15 -13 -16 -12 7 15 6 15 33 77 33 77 6 1
7 0 11 -14z m2361 0 l0 -13 38 -44 37 -44 29 -40 29 -40 30 -32 31 -33 -5 -5
-5 -4 -38 10 -38 10 -61 7 -62 7 -7 60 -7 60 -15 44 -16 44 0 8 0 8 18 4 17 5
13 1 12 1 0 -14z m-1503 -19 l21 -12 21 -27 22 -27 15 -36 15 -37 -10 7 -10 6
-17 34 -16 34 -22 23 -22 23 -20 12 -19 12 10 0 10 0 22 -12z m1433 -4 l0 -18
16 -45 17 -45 1 -135 1 -135 -22 -40 -22 -40 -58 -62 -58 -62 -50 -40 -50 -41
-18 0 -18 0 10 -18 10 -18 -27 2 -27 1 -4 2 -4 1 27 25 27 25 8 0 7 0 42 32
42 32 0 6 0 5 53 57 53 56 33 67 33 67 -7 92 -7 91 -14 73 -14 74 0 4 0 4 10
0 10 0 0 -17z m-36 -10 l5 -18 15 -83 16 -83 1 -62 1 -62 -11 -29 -11 -28 -35
-52 -34 -51 -48 -52 -48 -52 -29 -15 -30 -15 -7 5 -8 5 47 42 47 42 26 26 26
26 44 74 44 73 0 71 0 70 -12 60 -12 60 -7 33 -6 32 10 0 11 0 5 -17z m-2768
-40 l-7 -48 -25 -75 -26 -75 -26 -32 -27 -31 -51 30 -50 31 0 112 1 113 50 -5
50 -5 35 16 35 15 24 1 23 0 -6 -47z m533 -16 l-13 -32 -25 -40 -26 -40 -16
-36 -17 -36 -17 -58 -16 -57 0 -64 0 -63 51 -65 51 -65 51 -38 51 -38 37 -25
37 -25 28 -23 28 -22 -6 -7 -7 -6 -26 11 -25 12 -67 54 -67 53 -66 69 -66 69
-11 21 -11 21 -2 94 -1 94 56 110 57 110 22 37 22 36 4 -9 3 -10 -13 -32z
m829 37 l22 -15 29 -57 29 -57 22 -90 22 -89 -6 -58 -6 -58 -20 -42 -19 -41 6
-11 6 -11 -8 7 -8 7 -31 -42 -31 -42 -50 -74 -50 -75 -12 -4 -13 -4 0 11 0 10
39 63 40 63 44 70 44 70 19 35 19 35 0 90 0 90 -34 82 -34 82 -35 35 -34 36
14 0 14 0 22 -16z m1371 -21 l10 -38 16 -78 16 -77 -7 -38 -7 -37 -11 -15 -12
-15 -19 -40 -20 -40 -69 -67 -69 -68 -14 0 -13 0 -12 -24 -11 -25 -14 -5 -15
-6 -9 6 -9 5 0 8 0 8 40 27 40 26 76 76 76 77 24 54 24 54 0 28 0 29 -15 83
-15 84 -5 23 -5 22 9 0 10 0 10 -37z m-27 -79 l17 -89 1 -33 0 -33 -25 -54
-26 -53 -63 -65 -64 -64 -47 -27 -47 -28 -5 6 -6 6 4 4 4 3 78 57 78 58 37 56
36 57 7 70 7 70 -10 60 -10 60 -10 10 -11 10 8 -30 7 -30 5 -82 5 -82 -24 -53
-25 -53 -27 -32 -27 -32 -65 -46 -65 -45 -3 0 -3 0 -13 45 -13 45 7 42 7 43
16 55 16 55 26 53 26 53 25 24 25 24 55 29 55 30 10 -2 10 -3 17 -89z m-2183
-61 l-64 -128 -3 -71 -4 -70 10 -37 10 -37 -8 0 -8 0 -20 33 -19 32 7 65 7 65
16 52 16 53 53 94 53 95 9 -9 9 -9 -64 -128z m829 103 l24 -35 30 -78 30 -78
-5 -67 -6 -66 -16 -32 -16 -31 7 -12 7 -12 -8 7 -8 8 -56 -88 -56 -87 -20 -37
-20 -38 -7 0 -8 0 0 18 0 17 10 34 10 35 28 30 28 31 37 86 36 86 11 49 11 49
-6 50 -7 50 -20 42 -21 41 -28 21 -29 22 0 9 0 10 23 0 22 0 23 -34z m-1261
-33 l-5 -38 -11 -48 -11 -49 -12 -22 -13 -23 -30 -41 -30 -41 -7 -1 -8 0 0 10
0 11 36 72 36 72 19 50 19 50 0 18 0 17 11 0 11 0 -5 -37z m1246 -38 l20 -40
-1 -80 -1 -80 -3 -22 -2 -22 -10 6 -9 6 6 -22 6 -23 -7 6 -6 7 -28 -62 -28
-61 7 -11 6 -10 -10 6 -10 6 -21 -22 -20 -22 -14 -35 -15 -35 -6 28 -7 27 20
23 21 22 33 70 33 70 16 35 15 35 7 63 7 64 -12 44 -13 45 -28 20 -29 20 0 10
0 10 31 -18 31 -18 21 -40z m-730 53 l4 -13 -11 -25 -10 -25 -28 -33 -27 -32
-15 -53 -15 -52 -2 -45 -2 -45 2 -21 1 -22 47 -52 47 -53 81 -52 80 -52 18 -9
17 -10 -12 -17 -13 -16 -52 42 -52 42 -60 44 -61 45 -29 37 -30 37 -9 57 -9
57 17 47 17 46 44 92 44 92 7 1 6 0 5 -12z m1904 -20 l-16 -23 -30 -51 -30
-52 -20 -85 -21 -85 0 -29 0 -30 19 -54 19 -54 29 -55 29 -55 44 -60 45 -60 7
-3 7 -3 -6 -15 -5 -14 -9 0 -8 0 -15 28 -14 27 -35 36 -35 35 -36 69 -36 68 0
23 0 23 -11 7 -12 7 8 116 7 116 31 73 30 74 36 24 36 24 4 0 3 0 -15 -22z
m-1246 -11 l16 -12 13 -25 13 -24 -1 -73 -2 -74 -15 -29 -15 -28 -20 -55 -21
-55 -30 -42 -31 -42 -34 61 -34 61 -31 42 -31 43 16 3 16 3 0 14 0 13 13 5 12
5 44 78 45 79 24 33 24 32 7 0 6 -1 16 -12z m-585 -77 l25 -45 24 -40 25 -40
0 -5 0 -6 -32 -2 -33 -3 -60 -9 -60 -10 -26 0 -26 0 18 67 19 66 19 21 19 21
17 34 17 35 15 -20 15 -19 24 -45z m-275 -14 l-41 -75 0 -99 0 -98 29 -45 29
-44 63 -62 64 -61 65 -51 64 -52 23 -5 23 -6 0 -9 0 -9 -11 0 -11 0 -59 31
-59 32 -98 97 -97 96 -30 44 -30 43 1 96 0 96 18 35 18 35 36 47 36 48 4 -5 4
-4 -41 -75z m1104 -43 l15 -64 0 -65 0 -64 -20 -57 -19 -56 -41 -51 -41 -51
-38 -55 -39 -55 -25 -24 -26 -23 -12 7 -12 8 14 11 14 11 48 65 48 65 45 60
44 60 20 64 20 63 0 42 0 41 -16 70 -16 70 -4 30 -5 30 16 -34 15 -34 15 -64z
m1475 36 l35 -9 30 0 31 0 12 -12 12 -12 0 -7 0 -7 -42 5 -43 4 -45 9 -45 9
-37 6 -38 6 0 13 0 14 48 -5 47 -5 35 -9z m-10 -50 l35 -9 53 0 53 0 25 -27
24 -26 -4 -5 -5 -4 -88 16 -88 17 -41 10 -42 11 -21 -7 -21 -6 0 24 0 25 43
-5 42 -5 35 -9z m-3111 -36 l66 -47 19 -18 20 -18 -6 -5 -5 -6 -59 41 -59 41
-27 17 -28 17 0 13 0 12 6 0 6 0 67 -47z m2306 31 l30 -5 4 -4 3 -4 -6 -17 -6
-16 -23 6 -22 7 -60 11 -60 10 -13 4 -13 4 7 11 7 11 61 -6 61 -6 30 -6z m-90
-39 l40 -6 38 -10 37 -10 0 -15 0 -16 -14 5 -14 6 -63 11 -64 11 -22 5 -23 4
0 15 0 15 23 -4 22 -5 40 -6z m943 -20 l102 -18 0 -7 0 -7 -18 -16 -18 -16
-43 15 -42 14 -75 7 -74 6 0 25 0 24 33 -5 32 -4 103 -18z m-3138 -45 l85 -60
52 -35 52 -36 82 -90 82 -89 33 -56 34 -56 0 -7 0 -7 28 -45 28 -44 21 -60 22
-60 15 -43 16 -43 -6 -66 -7 -65 -23 -28 -24 -27 -20 -48 -20 -47 -30 -36 -30
-37 0 -11 0 -11 -48 -39 -47 -40 -55 -39 -55 -39 -40 -35 -41 -36 -48 -35 -49
-35 -46 -27 -46 -28 -8 0 -8 0 3 22 3 22 46 25 47 26 43 30 44 30 34 32 35 32
27 6 27 6 66 61 66 60 0 -8 0 -8 18 34 18 35 24 40 23 40 18 30 18 30 21 37
20 37 6 70 7 71 -32 85 -33 85 -37 78 -38 77 -73 85 -72 85 -42 43 -41 44 -38
19 -38 20 -85 60 -84 60 0 9 0 10 8 0 7 0 85 -60z m2173 20 l32 0 50 -13 50
-13 3 -26 3 -26 -43 13 -43 13 -65 12 -65 12 -8 7 -8 8 7 16 6 16 25 -10 24
-9 32 0z m-1275 -12 l3 -18 -33 0 -33 0 -93 -21 -93 -22 -11 11 -11 11 6 15 6
16 33 0 33 1 65 13 65 14 30 -1 30 -2 3 -17z m-918 -54 l55 -42 55 -32 55 -32
24 -26 23 -27 38 -45 38 -45 45 -57 46 -56 31 -63 32 -62 35 -91 35 -91 -5
-56 -5 -56 -21 -44 -21 -44 -53 -83 -54 -84 -31 -31 -32 -31 -12 13 -13 12 27
20 28 21 16 34 16 34 25 23 24 22 25 38 25 39 11 56 10 57 -1 32 -1 33 -21 77
-21 78 -34 72 -34 72 -20 23 -19 23 -60 77 -60 76 -47 36 -47 36 -11 0 -11 1
-79 62 -79 62 -5 14 -5 14 14 -9 14 -8 55 -42z m3045 42 l40 -5 58 -7 58 -7
-4 -11 -4 -11 -60 -35 -61 -35 -51 -45 -52 -45 -77 -71 -77 -72 -42 -37 -42
-36 -25 40 -26 41 0 5 0 6 30 10 30 11 0 16 0 17 96 89 96 89 25 53 26 52 11
-4 11 -3 40 -5z m-2103 -59 l-27 -7 -113 -16 -114 -16 -11 11 -11 11 6 6 6 5
74 16 73 16 55 11 55 12 17 -20 17 -21 -27 -8z m-762 1 l53 -43 26 -20 26 -20
31 -30 31 -30 67 -103 66 -103 16 -30 15 -31 -4 -5 -5 -5 -15 24 -14 23 -41
70 -42 70 -35 40 -36 40 -55 56 -55 57 -49 33 -49 34 -1 8 0 7 9 0 9 0 52 -42z
m1993 23 l42 -9 56 -12 56 -11 6 -47 6 -47 27 -55 27 -55 45 -70 45 -70 40
-50 41 -50 32 -35 31 -35 -23 -52 -24 -53 -75 0 -75 0 -7 -2 -7 -3 -22 75 -22
75 -17 39 -17 39 -50 76 -51 76 -56 70 -55 70 -33 37 -32 37 -7 -11 -7 -11 16
-8 15 -9 38 -53 38 -52 31 -35 31 -36 59 -94 59 -95 39 -115 39 -115 1 -80 1
-80 -13 -45 -13 -45 -36 -95 -36 -95 -39 -69 -39 -69 -33 -36 -33 -36 -29 -49
-29 -50 -11 -3 -11 -4 -5 15 -6 14 31 43 31 44 23 25 23 25 36 70 37 70 9 11
9 11 20 54 19 54 26 70 27 70 8 75 8 75 -9 50 -9 49 -26 66 -26 65 -34 52 -34
51 0 7 0 8 -41 61 -42 61 -68 82 -69 82 0 6 0 7 25 32 25 31 11 13 10 12 15 0
15 0 42 -9z m-2171 -62 l63 -51 36 -18 35 -19 55 -54 55 -55 60 -88 60 -89 27
-66 26 -66 17 -83 16 -83 -12 -56 -13 -56 -14 -25 -13 -25 -45 -50 -45 -49 0
21 0 22 10 6 10 6 37 72 36 72 -1 96 -2 95 -34 70 -34 69 -10 36 -10 37 -41
60 -41 61 -47 40 -48 40 -65 51 -65 51 -37 22 -38 21 0 18 0 18 5 0 5 0 62
-51z m3368 23 l0 -18 -67 -50 -68 -50 -55 -28 -54 -28 -36 -27 -35 -27 -34
-12 -35 -12 -3 4 -4 3 39 34 39 34 124 72 124 72 24 25 24 26 9 0 8 0 0 -18z
m-2380 -19 l10 -28 12 -22 11 -23 -38 -55 -37 -55 -10 0 -11 0 -81 50 -81 51
-30 24 -30 25 14 9 13 9 87 11 86 11 30 9 30 9 8 1 7 1 10 -27z m-1001 -48
l16 -10 38 -29 38 -29 -19 -21 -19 -21 -18 -35 -18 -35 -23 -45 -23 -45 -12
-47 -13 -48 -8 0 -7 0 3 58 3 57 2 143 1 143 21 -13 21 -13 17 -10z m3379 3
l-15 -23 -77 -52 -77 -52 -23 -13 -23 -13 -50 -27 -49 -26 -53 -48 -52 -47
-42 -60 -42 -59 -32 -57 -31 -56 -1 -58 -1 -58 64 -77 64 -77 73 -60 73 -60
50 -45 51 -46 40 -25 40 -26 58 -36 57 -37 0 -8 0 -9 -6 -6 -6 -5 -60 31 -61
32 -36 34 -36 34 -65 51 -65 51 -30 25 -30 25 -30 34 -30 34 -52 51 -52 51
-24 36 -24 37 10 73 9 74 46 74 46 75 16 15 17 16 64 60 64 60 91 57 90 57 25
11 24 10 50 40 50 40 9 0 8 0 -14 -22z m-2721 -14 l-6 -7 26 -31 25 -31 22
-12 21 -12 -18 -1 -18 0 -42 40 -42 40 15 10 15 10 4 0 4 0 -6 -6z m1443 -76
l55 -71 29 -41 30 -41 37 -65 38 -65 37 -75 36 -75 7 -55 6 -55 -6 -35 -5 -35
-7 40 -7 40 -11 59 -11 59 -34 66 -35 66 -32 60 -32 60 -41 55 -41 55 -52 57
-53 57 7 10 6 10 12 -5 12 -5 55 -71z m1283 -215 l-3 -278 -7 -125 -8 -125 5
-135 6 -135 -3 -4 -2 -4 -33 25 -33 25 -20 7 -20 6 -22 18 -23 17 25 72 24 72
16 31 16 31 18 62 18 62 14 60 14 60 0 110 -1 110 -13 60 -14 60 -18 57 -19
57 0 13 1 13 37 27 37 26 5 1 5 1 -2 -277z m-2329 229 l-10 -7 -49 -75 -48
-75 -29 -60 -29 -60 -19 -37 -20 -36 -19 -54 -18 -53 -18 -62 -18 -61 5 -54 4
-53 15 -27 14 -27 42 -83 41 -83 91 -97 91 -97 -8 -5 -8 -5 -62 62 -61 62 -42
50 -42 50 -34 72 -33 72 -9 5 -9 6 -11 82 -12 83 10 53 11 53 57 117 57 117
11 7 10 8 -8 0 -8 0 37 68 37 67 21 27 21 27 19 26 18 27 12 -12 11 -11 -11
-7z m1018 -49 l53 -68 28 -38 28 -38 32 -60 32 -61 27 -51 27 -52 16 -51 15
-50 2 -70 2 -69 -26 -70 -26 -71 -62 -104 -62 -105 -33 -50 -33 -50 -21 -19
-20 -18 -17 6 -17 7 21 19 20 19 8 23 7 23 43 50 44 49 25 51 25 50 26 45 27
45 19 69 18 70 0 46 0 46 -9 10 -8 9 -12 50 -12 50 -55 115 -56 114 -43 46
-43 45 -36 48 -36 47 0 5 0 5 14 0 14 0 54 -67z m598 12 l-12 -15 -16 0 -15 0
24 23 24 22 3 -8 4 -8 -12 -14z m-2545 15 l6 -10 -38 -52 -39 -53 -13 -35 -13
-35 -19 -65 -19 -65 -9 -69 -10 -70 25 -75 25 -76 53 -110 54 -110 21 -19 21
-19 -21 -15 -20 -14 -14 18 -14 19 -18 39 -18 39 -51 106 -51 106 -13 39 -13
40 6 99 6 100 36 86 36 86 10 15 9 15 19 41 19 42 14 5 13 5 7 1 7 1 6 -10z
m926 -44 l-21 -22 -36 -60 -37 -59 -39 -100 -39 -100 -15 -50 -14 -50 -9 -66
-9 -65 8 -51 8 -51 46 -63 46 -64 32 -45 33 -45 43 -47 44 -47 -4 -12 -4 -12
-79 87 -80 87 -52 95 -53 94 -10 46 -11 46 7 36 6 37 20 75 19 75 25 45 24 45
14 41 14 42 68 108 69 109 3 -18 4 -19 -21 -22z m960 12 l23 -33 51 -60 52
-60 46 -90 45 -90 17 -55 16 -55 11 -37 11 -36 -7 -49 -7 -48 -14 -45 -13 -45
-13 -25 -14 -25 -21 -30 -21 -30 -8 -25 -8 -25 -50 -60 -50 -60 -14 -33 -14
-33 -9 6 -10 6 0 17 0 17 41 50 41 50 24 45 25 45 28 45 28 46 26 66 27 66 0
47 0 46 -16 72 -16 72 -35 70 -35 70 -41 55 -41 55 -48 52 -48 52 0 15 0 16 9
0 10 0 22 -32z m1293 -43 l17 -60 14 -60 14 -60 1 -111 0 -110 -14 -45 -14
-44 -18 -65 -18 -65 -24 -49 -24 -50 -15 -48 -14 -49 -17 3 -17 4 3 13 3 13
33 71 34 72 25 60 26 60 15 63 16 64 0 119 0 119 -10 18 -11 17 -23 90 -24 90
5 8 5 9 8 -9 8 -8 16 -60z m-3144 36 l0 -19 -16 -13 -16 -13 -30 -61 -29 -60
-20 -74 -19 -74 0 -51 0 -51 15 -64 15 -63 37 -67 36 -66 17 -20 17 -20 22
-38 23 -38 -12 -14 -12 -15 -30 38 -30 37 -47 100 -48 100 -22 68 -23 68 7 57
6 57 16 55 15 55 26 60 25 60 31 42 31 42 8 1 7 0 0 -19z m647 -2 l22 -8 11
-21 11 -21 11 7 11 7 -6 -10 -6 -10 25 -12 25 -11 -6 -11 -7 -10 -21 15 -22
15 -57 38 -58 38 0 8 0 8 23 -7 22 -7 22 -8z m272 -31 l-12 -23 -27 -35 -27
-35 -20 -40 -20 -40 -36 -115 -35 -115 -12 -52 -12 -53 7 -42 8 -43 22 -52 23
-51 21 -11 21 -12 49 -72 49 -73 16 -13 16 -13 0 -19 0 -19 -9 0 -8 0 -44 50
-44 49 -28 35 -29 36 -45 67 -45 68 5 105 5 105 11 30 11 30 36 100 35 100 27
45 27 45 10 21 10 21 25 30 25 30 3 -8 3 -8 -12 -23z m2187 -26 l16 -57 16
-50 15 -50 1 -120 0 -121 -17 -24 -17 -24 0 -34 0 -34 -19 -37 -20 -36 -41
-89 -42 -88 -10 10 -11 11 52 106 53 106 26 92 26 92 4 62 4 62 -22 88 -22 88
-18 52 -18 52 5 5 6 5 8 -5 8 -5 17 -57z m-1181 -100 l46 -64 26 -51 26 -52
18 -57 17 -58 -66 4 -67 3 -57 11 -56 11 -51 -5 -51 -5 0 36 0 35 15 98 15 97
9 36 8 36 19 42 18 42 43 -48 43 -48 45 -63z m-1890 138 l6 -9 -24 -38 -24
-38 -16 -35 -16 -35 -21 -73 -22 -72 3 -84 4 -84 47 -93 48 -94 24 -26 24 -25
6 -22 7 -22 -8 0 -8 0 -30 46 -30 47 -37 61 -37 61 -17 35 -16 35 -6 81 -5 82
18 73 18 74 24 50 25 50 21 32 22 33 7 0 7 0 6 -10z m3023 -32 l19 -43 22 -93
23 -93 -4 -67 -4 -67 -22 -77 -22 -78 -51 -105 -51 -105 -9 0 -9 0 0 14 0 15
10 6 10 6 0 15 0 14 41 88 42 87 18 89 19 89 0 52 0 52 -19 77 -19 77 -10 12
-9 12 -6 26 -7 26 7 7 6 6 3 0 3 0 19 -42z m-3013 -56 l-23 -57 -23 -55 -22
-55 -8 -55 -8 -55 9 -71 9 -70 36 -64 35 -63 31 -39 31 -39 -7 -7 -8 -7 -4 13
-5 13 -23 27 -23 27 -38 65 -39 65 -12 40 -13 40 0 81 0 80 24 70 23 69 23 45
22 45 10 12 10 13 8 -5 8 -5 -23 -58z m2972 23 l14 -40 21 -65 20 -65 -6 -80
-7 -80 -13 -60 -13 -60 -45 -91 -45 -91 -6 -22 -5 -21 -11 0 -11 0 0 9 0 8 51
109 51 109 9 50 9 50 10 83 10 83 -15 58 -15 59 -24 43 -25 43 6 8 5 9 10 -3
10 -4 15 -39z m-2067 22 l0 -12 -30 -37 -30 -36 -24 -49 -25 -49 -10 -46 -11
-47 -21 -57 -22 -58 0 -90 -1 -91 27 -42 27 -43 -10 0 -10 0 -24 38 -25 37
-11 48 -11 49 22 101 22 102 29 79 28 79 47 68 46 69 8 0 9 0 0 -13z m2035
-57 l29 -60 0 -73 1 -72 -25 2 -25 1 -122 3 -123 3 0 11 0 12 24 22 23 22 19
35 19 35 23 6 22 5 0 9 0 8 47 46 48 45 5 0 6 0 29 -60z m-2895 40 l0 -9 29
-33 28 -33 11 -45 10 -45 11 -34 10 -33 -31 6 -30 6 -57 0 -56 0 -13 9 -14 8
20 39 19 39 23 68 24 67 8 0 8 0 0 -10z m883 -32 l6 -23 40 -115 40 -115 1
-19 0 -18 -17 8 -18 8 -94 3 -94 3 -5 4 -4 5 13 53 13 53 19 40 19 40 31 48
30 47 8 0 7 0 5 -22z m-517 -257 l17 -52 -6 -74 -5 -73 -29 -68 -29 -69 -37
-50 -38 -50 -24 -28 -25 -27 0 -9 0 -8 -62 -43 -62 -44 -50 -44 -49 -44 -51
-33 -51 -32 -83 -67 -84 -66 -8 0 -8 0 3 18 3 17 1 11 1 12 49 21 50 21 6 10
6 10 80 51 79 51 10 17 9 18 68 46 68 46 31 28 31 29 38 59 39 60 29 55 28 55
20 37 20 36 0 64 1 64 -36 86 -36 87 0 13 0 13 34 -51 35 -51 17 -52z m-247
34 l14 -14 -116 0 -117 0 0 17 0 18 103 -4 102 -4 14 -13z m2761 -8 l45 -2 3
-15 2 -15 -142 2 -143 2 -23 0 -24 1 4 12 4 12 25 7 24 7 90 -5 90 -4 45 -2z
m-2740 -42 l0 -15 -122 3 -121 2 -5 13 -4 12 126 0 126 0 0 -15z m2787 -8 l3
-4 -6 -17 -7 -17 -12 4 -12 5 -156 7 -157 8 0 8 0 8 71 0 71 0 3 3 3 3 98 -2
97 -2 4 -4z m-1982 -16 l30 -6 3 -17 3 -16 -135 1 -136 2 0 7 0 6 6 16 6 16
97 -1 96 -1 30 -7z m-857 -9 l53 -2 -3 -17 -4 -18 -19 2 -20 2 -97 7 -98 7 0
11 0 11 68 0 67 -1 53 -2z m2255 -22 l5 -21 -79 3 -79 3 0 12 0 12 73 4 72 3
1 2 2 2 5 -20z m417 5 l105 -4 23 0 22 -1 0 -18 0 -19 -37 3 -38 3 -127 0
-128 1 0 26 0 26 38 -6 37 -7 105 -4z m-1379 -5 l19 0 0 -16 0 -16 -14 5 -15
6 -35 7 -36 6 0 10 0 11 31 -7 32 -6 18 0z m414 -5 l66 -16 50 7 51 7 9 -14 9
-14 0 -9 0 -9 -142 7 -143 6 -33 8 -33 7 0 8 1 7 0 10 0 10 49 0 50 0 66 -15z
m-1667 -25 l12 0 0 -41 0 -42 -35 -72 -34 -72 -15 -12 -15 -12 -41 53 -42 53
-29 61 -29 61 0 18 0 17 108 -5 107 -6 13 -1z m360 -2 l-5 -13 -41 -3 -42 -3
0 15 0 16 46 0 46 0 -4 -12z m502 -6 l0 -17 -145 -2 -145 -1 0 13 0 13 13 5
12 5 133 1 132 1 0 -18z m1343 -1 l17 -1 0 -10 0 -10 -74 0 -75 0 -5 9 -5 8 6
6 6 7 56 -4 56 -4 18 -1z m504 -9 l72 -2 -30 -72 -30 -73 -19 -33 -20 -33 0
-15 0 -14 -10 0 -9 0 -56 53 -56 52 -50 62 -49 63 0 4 0 5 48 3 47 3 45 -1 45
0 72 -2z m-3080 -176 l24 -59 40 -70 40 -70 -3 -7 -3 -8 -83 -57 -84 -57 -4 4
-4 4 11 63 10 62 -11 142 -10 142 0 45 0 45 26 -60 26 -60 25 -59z m2120 162
l94 0 6 -14 5 -15 -5 -5 -5 -5 -161 -1 -161 -1 -15 13 -15 12 0 15 0 15 81 -7
82 -7 94 0z m-1394 -13 l2 -10 -47 -3 -48 -3 0 10 0 10 38 4 37 3 8 -1 9 0 1
-10z m507 -15 l0 -20 -145 0 -145 0 0 14 0 15 53 4 52 3 93 2 92 2 0 -20z
m1360 5 l0 -15 -52 0 -53 0 -22 -6 -23 -6 0 15 0 16 43 4 42 4 33 1 32 2 0
-15z m-1877 -24 l17 -1 0 -20 0 -19 -50 6 -50 6 0 -12 0 -11 39 0 39 0 16 -6
16 -6 0 -19 0 -19 46 -93 47 -92 49 -60 49 -60 13 -15 12 -15 47 -43 47 -42
-60 -93 -59 -92 -9 -42 -10 -42 -30 -39 -31 -38 -17 -45 -17 -44 -19 -27 -18
-26 0 -10 0 -10 -47 -64 -47 -63 -54 -73 -54 -73 -17 -17 -17 -17 -31 -40 -30
-40 -22 -42 -21 -42 -14 -8 -14 -8 -47 -55 -47 -55 -21 -45 -21 -45 -28 -30
-28 -30 0 -11 0 -11 -30 -38 -30 -38 0 -9 0 -10 -52 -72 -52 -71 -27 -50 -26
-50 -32 -60 -32 -60 -5 -4 -4 -4 0 195 0 196 44 33 44 34 21 30 21 30 46 50
47 50 44 69 45 69 39 78 39 79 0 8 0 8 38 29 38 30 52 60 53 60 63 65 63 65
35 50 35 50 20 41 21 40 15 85 16 84 6 83 6 83 -51 95 -51 94 -23 28 -23 27
-31 56 -31 55 10 15 9 14 20 65 20 65 33 -2 32 -1 18 -1z m1505 -16 l2 -2 -6
-17 -6 -16 -158 0 -158 0 -6 16 -6 16 4 6 4 7 164 -4 163 -3 3 -3z m-999 -44
l-7 -46 -25 -71 -25 -70 -16 -32 -17 -33 -12 13 -12 13 -61 70 -62 70 -14 30
-15 30 -7 35 -6 35 143 1 143 2 -7 -47z m1397 36 l5 -14 -36 -89 -36 -89 -16
-45 -15 -45 -28 -60 -29 -60 -20 -60 -21 -60 -15 -78 -15 -79 0 -44 0 -44
-112 0 -113 0 -27 51 -27 50 44 67 43 67 38 47 39 47 37 73 37 73 30 74 31 74
0 17 0 18 17 53 17 54 11 7 10 8 73 0 73 0 5 -13z m-271 -68 l-16 -64 -24 -50
-23 -50 -12 -37 -11 -36 -14 -12 -15 -12 -10 -37 -10 -36 -44 -60 -44 -60 -22
-27 -22 -28 -7 0 -8 0 -10 23 -10 22 42 43 43 43 23 47 24 47 26 40 26 40 32
54 32 53 19 57 19 56 11 29 11 29 5 -6 6 -5 -17 -63z m304 -28 l-10 -25 -24
-45 -24 -46 -69 -180 -69 -180 -11 -75 -11 -75 -6 -73 -5 -72 44 -93 44 -92
32 -40 32 -40 73 -105 73 -105 126 -128 126 -129 0 -15 0 -15 -49 41 -49 41
-82 86 -81 86 -50 72 -49 71 -35 45 -35 45 -17 34 -17 34 -38 51 -38 50 0 16
0 16 -15 20 -14 19 -1 90 0 90 16 90 15 90 25 74 25 73 25 52 24 51 34 95 35
96 17 39 16 39 13 -24 13 -24 -9 -25z m-465 1 l-21 -53 -30 -47 -30 -47 -27
-45 -26 -45 -34 -39 -33 -39 -13 37 -12 38 -14 26 -14 27 0 18 0 19 -14 31
-14 32 -5 67 -5 67 77 3 76 4 80 -1 81 0 -22 -53z m-329 -7 l5 -49 8 -5 8 -6
18 -60 18 -60 20 -49 20 -48 -11 -11 -10 -10 -22 49 -21 49 -15 55 -14 55 -5
25 -6 25 -16 32 -16 31 14 16 13 16 4 -3 3 -4 5 -48z m-625 -21 l-10 -25 0
-24 0 -25 -26 -77 -26 -78 -32 -65 -33 -65 -77 -150 -78 -150 -20 -40 -21 -40
-12 -30 -12 -30 -17 -38 -17 -39 -32 -41 -32 -42 -42 -47 -43 -47 0 -8 0 -8
-30 -32 -29 -31 -22 -44 -22 -43 -37 -45 -36 -45 -24 -35 -24 -35 -42 -48 -42
-47 -36 -54 -35 -53 -36 -36 -35 -35 0 -11 0 -11 -30 -48 -30 -49 0 -10 0 -10
-20 -18 -20 -18 0 -12 0 -12 -30 -41 -29 -41 -6 -24 -7 -25 -49 -58 -49 -58
-6 -19 -6 -19 -19 -19 -19 -19 0 20 0 21 15 5 15 6 0 18 0 17 28 39 27 39 28
58 28 59 43 56 43 57 22 40 22 40 22 35 22 36 26 34 27 35 20 40 20 40 66 74
66 74 40 61 39 61 25 25 26 25 27 42 28 41 63 82 63 82 45 88 44 88 0 6 0 6
34 45 34 44 7 33 7 33 20 40 20 40 19 20 18 20 27 50 26 50 53 135 52 135 13
40 13 40 10 13 9 12 4 0 4 0 -10 -26z m1455 4 l-7 -23 -1 -17 -1 -17 -11 2
-10 2 1 -22 0 -22 -6 4 -7 4 -17 -35 -16 -35 5 -10 6 -9 -9 0 -8 0 -31 -77
-31 -78 -11 -34 -11 -33 7 -11 6 -10 -10 6 -11 7 -5 -28 -5 -27 -16 -85 -17
-85 0 -52 0 -52 30 -63 31 -63 53 -85 53 -85 79 -105 80 -105 92 -92 93 -92 0
-17 0 -17 -87 89 -88 90 -55 64 -56 65 -14 21 -15 22 -78 115 -77 115 -35 67
-36 68 6 81 6 81 11 65 11 65 28 75 28 75 35 84 35 83 12 37 12 36 24 43 25
42 10 0 10 0 -7 -22z m-2100 -71 l13 -32 44 -65 44 -65 38 -73 38 -74 -6 -36
-6 -37 -9 -92 -9 -93 -16 -24 -16 -25 6 -15 5 -14 -16 -34 -17 -33 -41 -55
-41 -55 -55 -55 -56 -55 -70 -79 -70 -79 -3 22 -3 22 73 72 74 72 56 70 55 70
26 45 26 45 25 69 26 68 0 23 0 23 16 62 16 61 -7 42 -7 42 -31 55 -30 55 -32
45 -31 45 -27 51 -27 51 7 7 6 6 9 0 9 0 14 -33z m2145 20 l0 -13 -9 -9 -8
-10 -51 -100 -51 -100 -6 -35 -7 -35 -12 -20 -13 -20 -7 -37 -7 -38 -22 -35
-22 -34 -7 -1 -7 0 29 83 29 82 20 53 21 53 39 77 38 77 8 25 7 25 10 13 10
12 9 0 9 0 0 -13z m-2436 -13 l16 -6 0 -12 0 -13 -111 -84 -112 -84 -31 -23
-31 -24 -43 -19 -44 -19 -10 0 -9 0 3 16 3 17 30 16 30 16 70 48 70 48 30 22
30 22 45 43 45 42 2 0 1 0 16 -6z m2442 -72 l-23 -57 -32 -80 -33 -80 -24 -56
-23 -55 -21 -104 -20 -104 16 -51 16 -51 29 -40 28 -39 27 -47 27 -48 9 0 8 0
0 -15 0 -15 38 -43 38 -42 29 -45 30 -45 8 -3 7 -4 65 -80 65 -81 0 -21 0 -20
-84 88 -84 89 -13 26 -13 26 -32 30 -33 30 -70 113 -71 113 0 4 0 4 -32 48
-33 48 1 60 0 60 18 70 18 70 34 108 34 109 52 98 51 99 8 -5 7 -4 -22 -58z
m-2174 -2 l24 -45 42 -63 41 -64 6 -19 6 -19 7 4 7 4 3 -64 3 -64 -16 -83 -16
-82 -21 -55 -22 -55 -32 -50 -32 -50 -71 -85 -72 -85 -31 -32 -31 -33 -8 0 -9
0 0 13 0 13 68 74 67 74 47 48 48 49 6 27 7 27 22 45 22 45 23 99 22 99 -12
61 -12 61 -19 42 -19 42 -9 5 -9 6 -42 75 -41 76 7 10 6 11 8 -9 8 -8 24 -45z
m526 -12 l32 -40 0 -9 0 -9 -9 0 -9 0 -34 48 -34 47 -8 13 -8 13 18 -11 19
-12 33 -40z m1786 -42 l91 -94 66 -50 65 -50 34 -17 33 -17 69 -44 68 -44 -25
-38 -25 -38 -26 -64 -25 -65 6 -90 7 -90 29 -69 29 -68 0 -10 0 -10 -11 4 -11
4 -19 54 -20 55 -10 32 -10 32 -8 68 -8 68 24 84 24 84 20 29 21 28 -4 12 -4
11 -20 -29 -21 -29 -23 -60 -23 -60 -7 -8 -7 -8 -35 6 -35 7 -24 51 -23 52
-35 55 -34 55 -54 60 -54 60 -55 47 -55 48 -16 8 -15 9 23 61 24 62 9 0 9 0
91 -94z m-2306 -38 l60 -103 12 -62 12 -61 -5 -39 -5 -38 -20 -70 -20 -70 -30
-70 -29 -70 -44 -45 -44 -45 -57 -65 -56 -65 -5 5 -5 5 -6 22 -7 21 45 32 46
31 58 77 59 77 25 41 26 41 21 102 21 102 -9 57 -9 57 -56 116 -56 116 0 7 0
7 9 -5 8 -5 61 -103z m-66 35 l20 -48 33 -70 33 -70 6 -50 6 -50 -9 -50 -9
-50 -12 -45 -12 -45 -11 -25 -11 -25 -56 -74 -55 -74 -53 -43 -54 -44 -10 6
-10 7 33 32 34 32 45 49 46 49 21 30 21 31 38 89 37 90 -1 60 0 60 -22 55 -21
55 -38 70 -38 70 5 13 4 12 9 0 10 0 21 -47z m-228 21 l6 -17 -22 -16 -23 -16
-47 -22 -48 -22 -26 -26 -25 -25 -27 -17 -27 -17 -35 -27 -35 -27 -22 -7 -23
-6 0 20 0 21 63 30 63 29 39 34 40 33 46 31 45 31 13 16 13 16 13 0 13 0 6
-16z m189 -53 l17 -29 34 -79 34 -80 2 -44 3 -44 -2 -25 -1 -25 -8 -12 -7 -12
-58 19 -57 19 -82 11 -83 12 -62 14 -62 14 -38 0 -37 0 19 20 20 20 90 -15 90
-15 40 -15 40 -14 22 -1 22 0 58 -15 57 -15 13 0 13 0 0 8 0 8 -52 12 -53 12
-65 15 -65 14 -90 18 -89 18 49 32 50 32 45 41 45 42 51 33 52 33 6 11 7 11 7
0 8 0 17 -29z m2319 -71 l61 -51 63 -87 63 -87 30 -39 31 -38 0 -14 0 -15 21
-41 21 -42 -6 -66 -6 -65 -19 -66 -19 -65 -35 -90 -35 -89 -7 -35 -7 -34 -19
23 -18 22 9 17 9 17 17 40 16 40 9 30 8 30 30 85 31 85 6 65 5 65 -15 43 -16
43 -54 77 -54 77 -39 46 -38 45 -43 35 -43 34 -20 16 -19 16 0 12 0 11 11 0
11 0 60 -50z m-1304 -66 l77 -59 66 -63 66 -62 36 -53 35 -52 17 -59 18 -60
-6 -85 -5 -86 -25 -65 -25 -65 -19 -40 -18 -40 -21 -35 -22 -35 -7 -25 -8 -25
-30 -42 -30 -43 -4 4 -4 4 55 109 54 109 43 125 42 124 1 75 0 75 -14 40 -13
40 -32 45 -31 45 -138 123 -137 123 -30 6 -29 6 -6 8 -5 9 6 10 7 11 29 -19
30 -18 77 -60z m487 66 l6 -10 -15 6 -16 6 0 4 0 4 9 0 10 0 6 -10z m784 -35
l46 -34 41 -43 41 -43 60 -90 59 -90 13 -32 13 -32 -5 -58 -4 -58 -6 -31 -6
-31 -21 -59 -21 -59 -9 -36 -9 -35 -16 -30 -15 -29 0 -17 0 -17 -9 -5 -9 -6
-11 13 -10 13 29 78 29 78 10 50 11 49 15 29 15 29 0 97 0 98 -50 77 -51 76
-72 70 -72 69 -30 22 -30 21 14 1 13 0 47 -35z m-1362 -9 l21 -11 87 -73 86
-74 50 -51 49 -52 7 -20 6 -20 14 -10 14 -10 15 -59 16 -60 -13 -65 -12 -66
-35 -95 -34 -95 -7 -20 -6 -21 -65 -131 -65 -132 -6 0 -7 -1 -6 15 -6 16 33
62 32 62 21 50 21 50 12 40 12 40 9 20 9 20 15 50 14 50 16 40 17 40 15 28 15
28 -6 28 -6 29 -25 33 -24 33 0 12 0 13 -36 27 -35 27 -32 46 -31 46 -15 9
-16 10 -45 42 -45 42 -45 25 -45 25 -3 17 -4 17 24 -7 23 -7 22 -12z m602 -20
l11 -43 14 -12 15 -12 47 -97 47 -97 19 -28 20 -28 2 -14 2 -14 7 -7 7 -7 0
-14 0 -13 41 -65 40 -64 10 -33 9 -33 54 -85 55 -85 53 -75 53 -75 22 -20 21
-20 36 -54 36 -53 0 -12 0 -11 31 -33 31 -33 35 -47 36 -47 36 -41 36 -40 45
-58 45 -57 35 -43 35 -44 35 -58 35 -59 59 -65 59 -65 68 -72 69 -72 18 -5 19
-6 11 -25 12 -25 -16 0 -16 0 -71 68 -70 67 -44 45 -44 45 -34 50 -34 50 -23
25 -24 25 -57 72 -57 72 0 8 0 9 -31 42 -31 42 -54 58 -54 57 -80 118 -80 118
-27 37 -27 37 -38 42 -38 43 0 15 0 15 -10 0 -9 0 -15 28 -14 28 -41 49 -41
50 -11 35 -11 35 -36 65 -35 65 -30 55 -30 55 -12 15 -12 15 -75 160 -76 160
-6 18 -5 17 18 0 19 0 11 -44z m811 -67 l68 -67 49 -73 48 -74 -2 -92 -2 -92
-14 -28 -15 -28 -12 -60 -12 -59 -13 -31 -13 -30 -11 -29 -12 -29 -10 10 -9 9
11 35 10 34 15 27 14 26 0 24 0 23 20 95 20 95 0 42 0 42 -40 78 -41 78 -36
33 -36 32 -11 0 -11 0 -43 41 -42 41 0 15 0 14 31 -18 32 -18 67 -66z m-1456
46 l33 -25 9 0 10 0 39 -41 40 -41 27 -14 26 -14 23 -50 23 -50 8 0 8 0 0 -16
0 -15 13 7 12 7 -12 -13 -12 -13 -16 13 -16 14 -14 27 -14 27 -48 36 -48 36
-50 42 -50 43 -23 15 -23 15 6 18 7 17 5 0 4 0 33 -25z m1366 -27 l48 -43 33
-20 34 -20 37 -65 38 -65 12 -37 11 -38 -22 -122 -23 -123 -25 -67 -25 -68 -9
0 -9 0 0 25 0 25 9 18 10 17 21 74 22 74 7 91 8 91 -39 72 -39 73 -65 55 -65
55 -10 0 -10 0 6 10 6 10 -10 0 -11 0 0 10 0 10 6 0 7 0 47 -42z m-1379 -40
l44 -42 8 2 8 2 -5 -8 -5 -9 44 -43 43 -42 13 7 12 8 -7 -11 -7 -11 19 -10 19
-10 8 7 8 7 -6 -11 -6 -11 40 -44 41 -44 10 3 9 2 -6 -9 -6 -10 16 -25 17 -25
-26 -84 -26 -84 -15 -29 -15 -29 0 -24 0 -24 -21 -33 -20 -34 7 -11 7 -12 -9
6 -9 5 -34 -84 -34 -84 -9 0 -8 0 0 30 0 31 19 37 18 37 28 85 27 85 40 80 39
80 -6 47 -7 47 -57 53 -57 53 -59 53 -58 52 -7 0 -7 0 -18 34 -19 35 -22 12
-22 12 5 13 5 14 7 0 8 0 44 -42z m1416 -35 l41 -33 26 -46 26 -47 -2 -2 -3
-2 -125 -10 -125 -9 -1 0 -2 1 14 77 13 77 15 36 16 37 32 -23 33 -22 42 -34z
m-1470 -3 l5 -20 8 5 7 4 106 -104 107 -104 0 -11 0 -11 10 6 10 6 -6 -16 -7
-16 -163 3 -164 3 -1 15 -1 15 -5 -17 -4 -18 -39 0 -39 0 5 14 5 14 20 5 21 6
-4 18 -3 18 45 85 44 85 2 10 1 10 1 8 2 7 16 0 16 0 5 -20z m-1082 -34 l70
-15 73 -10 72 -11 61 -17 60 -17 -6 -25 -7 -26 -2 -3 -3 -2 -43 15 -43 15 -26
0 -26 0 -60 26 -60 25 -120 10 -120 9 -17 -6 -18 -5 0 6 0 7 21 16 20 17 52 2
52 3 70 -14z m3145 -11 l12 -15 -40 -62 -40 -63 -16 -39 -16 -38 0 -45 0 -45
30 -75 30 -75 0 -14 0 -14 -8 0 -7 0 -20 53 -19 52 -11 35 -11 35 -3 65 -2 65
18 45 18 45 29 53 29 52 7 0 8 0 12 -15z m-800 -15 l0 -20 -9 0 -9 0 5 20 5
20 4 0 4 0 0 -20z m-2470 -121 l93 -101 41 -62 40 -61 18 -38 18 -38 11 7 12
7 -6 -9 -5 -9 14 -55 14 -54 0 -41 0 -41 -45 -92 -44 -92 -19 -27 -19 -28 -24
-36 -24 -36 -66 -74 -67 -74 -35 -40 -36 -40 -10 10 -9 10 5 25 4 26 36 24 35
24 60 72 59 72 15 6 14 5 12 28 12 28 23 38 23 37 20 53 21 52 8 20 9 20 6 37
5 38 -10 5 -9 6 0 25 0 24 -10 0 -10 0 0 29 0 28 -27 51 -28 51 -94 108 -94
108 -34 32 -35 32 6 10 7 10 12 -5 13 -5 94 -100z m206 66 l71 -24 64 -11 65
-11 14 -9 14 -9 -6 -6 -6 -7 -107 21 -107 21 -32 0 -31 0 -88 19 -89 19 -15
15 -16 16 99 -6 99 -5 71 -23z m2241 -73 l-2 -77 28 -45 28 -45 39 -60 40 -60
27 -49 28 -49 53 -59 52 -58 0 -9 0 -9 85 -88 85 -87 0 -9 0 -8 -6 0 -6 0 -55
58 -56 57 -46 55 -46 55 -30 39 -30 39 -39 56 -38 56 -41 65 -40 65 -28 55
-29 55 0 50 0 50 6 22 6 23 9 -5 8 -6 -2 -77z m-2547 47 l5 -6 51 -59 52 -59
54 -65 54 -65 16 -45 17 -45 7 -40 7 -40 10 -25 10 -25 1 -27 1 -26 -7 5 -8 4
0 -18 0 -17 -17 -46 -17 -45 -28 -49 -29 -48 -42 -51 -42 -50 -32 -30 -32 -30
5 -8 5 -9 -15 6 -16 6 0 -19 0 -20 -25 -11 -26 -12 -4 0 -5 0 0 30 0 30 13 0
13 0 35 36 34 36 26 14 27 13 55 83 55 83 22 47 22 47 -16 105 -15 106 -15 28
-15 29 -35 42 -36 43 0 7 0 6 -24 26 -24 26 -16 31 -17 32 -7 0 -7 0 -32 31
-33 30 0 21 0 20 18 -13 17 -14 5 -6z m215 -20 l80 -10 95 -15 95 -16 17 -4
18 -5 -10 -19 -10 -18 -59 -64 -59 -63 -24 -29 -25 -29 -16 6 -17 6 0 21 0 20
-7 0 -8 0 -34 53 -35 52 -65 69 -66 69 25 -7 25 -6 80 -11z m2675 11 l0 -10
-2 -6 -3 -5 -105 -3 -105 -4 -32 -7 -33 -7 0 14 0 15 118 9 117 9 23 2 22 3 0
-10z m-470 -46 l0 -15 -102 3 -101 3 -5 13 -4 13 92 -2 91 -1 6 6 6 5 8 -5 9
-5 0 -15z m-2408 -28 l33 -34 26 -34 26 -33 13 -25 12 -25 29 -30 28 -30 15
-37 16 -37 11 -93 12 -94 -23 -44 -22 -45 -43 -60 -42 -60 -6 -17 -6 -18 -15
0 -15 0 -46 -45 -46 -46 -10 6 -10 7 68 67 68 67 22 27 22 26 29 59 30 59 6
69 7 69 -15 44 -16 43 -47 72 -46 71 -46 55 -46 55 -12 8 -13 8 0 14 0 15 9 0
10 0 33 -34z m1088 24 l0 -10 -24 -6 -24 -6 5 -18 5 -19 -23 -33 -23 -33 -27
-32 -27 -31 -13 -39 -12 -38 -31 -46 -32 -45 -69 -87 -69 -87 -8 0 -8 0 0 -13
0 -12 -45 -55 -45 -55 0 -12 0 -11 -7 -4 -8 -3 -51 -60 -51 -60 -28 -55 -28
-55 -23 -28 -24 -29 0 -12 0 -13 -20 -18 -19 -17 -52 -76 -53 -76 -28 -55 -28
-55 0 -13 0 -14 -52 -77 -52 -77 -51 -50 -50 -51 -12 -24 -11 -25 -8 -30 -8
-30 -4 34 -4 34 14 26 13 26 37 50 37 50 25 27 26 27 21 38 22 38 19 30 18 30
21 43 20 43 47 65 47 65 23 42 24 42 22 25 23 25 41 70 41 70 26 30 26 30 72
93 72 93 20 33 20 32 23 30 23 29 34 45 35 45 30 50 30 50 40 55 41 55 31 68
32 67 23 0 23 0 0 -10z m1800 -5 l0 -15 -94 0 -93 0 -47 -6 -46 -7 0 16 0 16
38 4 37 4 103 1 102 2 0 -15z m288 -19 l-3 -21 -37 0 -38 0 0 22 0 22 41 -1
40 0 -3 -22z m-1462 -62 l6 -34 -15 -23 -15 -23 -27 -84 -28 -85 -29 -90 -30
-90 -14 -22 -14 -22 0 -12 0 -13 -21 -43 -21 -43 -9 0 -9 0 -6 25 -6 26 16 18
16 18 25 62 24 63 26 43 25 44 0 16 0 17 36 116 37 117 10 12 9 13 -16 25 -16
24 0 7 0 7 20 -18 20 -18 6 -33z m684 40 l0 -16 -87 7 -88 7 -9 9 -10 9 97 0
97 0 0 -16z m485 1 l0 -10 -25 -2 -25 -3 -98 -12 -98 -11 -11 11 -12 12 8 7 8
8 106 6 107 6 20 -1 20 -1 0 -10z m-2819 -141 l34 -53 0 -9 0 -9 19 -17 19
-17 17 -45 17 -46 -6 -41 -7 -42 -3 -30 -3 -30 -26 -52 -26 -51 -80 -84 -80
-83 -1 17 0 17 36 38 36 38 33 50 32 50 27 54 27 53 0 68 0 69 -30 56 -30 57
-28 32 -28 33 -15 19 -15 19 -18 25 -17 24 0 16 0 15 41 -44 42 -45 33 -52z
m3114 111 l0 -15 -29 0 -29 0 -6 15 -5 15 34 0 35 0 0 -15z m-1615 -13 l0 -13
-219 -4 -219 -5 -19 -6 -18 -5 0 -7 0 -7 138 8 137 7 103 3 102 2 0 -20 0 -20
-86 4 -86 3 -112 -12 -111 -12 -62 -4 -63 -5 13 28 12 28 20 26 19 26 226 -1
225 -1 0 -13z m784 12 l61 -7 0 -12 0 -13 -21 -5 -20 -5 -57 5 -57 6 -12 10
-13 9 0 9 0 9 29 0 28 0 62 -6z m533 -39 l-3 -40 -20 -58 -19 -57 0 -20 0 -19
-20 -11 -20 -11 -40 58 -40 58 -35 54 -35 53 0 7 0 8 88 10 87 10 30 -1 30 -1
-3 -40z m225 -17 l-5 -13 0 25 0 25 5 -12 5 -13 -5 -12z m72 23 l14 -9 -7 -11
-7 -11 -30 0 -29 0 0 20 0 20 23 0 22 0 14 -9z m-3219 -9 l0 -7 45 -52 45 -52
30 -56 30 -57 0 -67 0 -66 -20 -42 -19 -42 -40 -58 -40 -58 -25 -29 -25 -30 1
312 1 312 8 0 9 0 0 -8z m2476 -45 l6 -28 27 -32 28 -32 53 -85 54 -85 28 -35
28 -35 39 -53 38 -53 82 -83 81 -84 43 -34 42 -35 0 -32 0 -32 -100 3 -99 3
-33 45 -32 45 -29 30 -29 30 -57 85 -56 85 -39 53 -38 53 -25 27 -26 27 -33
60 -32 60 -17 20 -18 20 -12 40 -13 40 -14 22 -15 22 81 -2 80 -1 7 -29z m685
-18 l7 -24 1 23 1 22 28 0 29 0 15 -52 16 -53 22 -55 21 -56 -33 -39 -33 -39
-63 -65 -64 -64 -15 -24 -15 -23 -38 43 -38 42 14 8 14 8 -6 23 -6 24 30 68
30 69 26 78 26 77 0 21 0 21 12 -4 12 -4 7 -25z m-1548 -2 l5 -14 -86 -2 -87
-2 -105 -10 -105 -9 -37 -9 -37 -9 -16 17 -15 18 0 6 0 7 48 1 47 0 40 7 40 8
151 3 151 3 6 -15z m-456 -79 l68 -73 71 -70 71 -70 23 -35 23 -35 32 -35 33
-35 44 -65 43 -65 22 -57 22 -57 7 -59 6 -59 -16 -56 -16 -56 -40 -46 -40 -47
-16 -31 -16 -32 -23 -25 -23 -25 -22 -40 -22 -40 -64 -76 -64 -77 0 -10 0 -10
-15 -12 -15 -12 0 -19 0 -19 -14 0 -14 0 -5 -12 -5 -13 -1 23 -1 22 10 0 10 0
0 23 0 22 55 78 56 78 33 34 34 34 8 23 7 23 6 5 6 5 50 70 51 70 31 55 32 56
6 44 6 45 4 26 4 27 -22 26 -23 27 -28 55 -29 56 -27 32 -27 31 -26 40 -27 40
-82 90 -83 89 -45 46 -45 45 -33 43 -33 42 6 10 6 10 4 0 4 0 68 -72z m423 37
l0 -15 -20 -51 -19 -52 6 -10 6 -10 -11 6 -10 7 -16 -46 -16 -46 7 -12 6 -11
-8 8 -8 7 -27 -41 -28 -41 -6 1 -7 0 -31 43 -31 43 -89 89 -88 89 0 13 0 14
28 1 27 1 135 12 135 13 33 2 32 1 0 -15z m-365 -180 l121 -130 42 -57 42 -57
0 -7 0 -6 48 -62 48 -61 22 -52 22 -52 0 -7 0 -6 -16 13 -15 13 -15 29 -15 29
-35 46 -34 47 -32 44 -33 45 -10 10 -10 11 -33 50 -32 50 -101 95 -101 95 -19
27 -20 27 11 22 12 21 16 -24 16 -23 121 -130z m-105 34 l80 -81 59 -71 58
-72 26 -51 25 -50 18 -15 17 -14 46 -70 45 -70 6 -62 5 -61 -6 3 -5 4 -19 -52
-18 -52 -36 -50 -36 -49 -19 -36 -19 -35 -36 -45 -36 -45 -20 -39 -20 -40 -40
-44 -40 -44 -14 16 -13 16 13 0 14 0 14 23 14 22 71 93 71 94 16 27 15 28 31
49 31 49 26 74 26 74 -15 59 -15 59 -25 33 -25 33 0 16 0 16 -17 5 -18 6 -35
62 -35 62 -36 41 -35 40 -22 32 -22 31 -70 68 -70 67 0 14 0 13 5 0 4 0 81
-81z m2289 44 l-3 -8 -40 -34 -41 -33 -15 -23 -15 -22 -33 -50 -32 -51 -50
-44 -50 -45 -25 -57 -26 -58 -4 -87 -5 -86 14 -25 15 -25 22 -44 23 -44 53
-74 53 -74 0 -8 0 -8 26 -24 26 -24 14 -30 15 -30 -40 45 -41 45 -97 144 -98
144 2 124 2 123 36 60 37 60 36 28 36 27 42 58 42 57 43 38 42 37 16 17 15 17
4 -3 4 -4 -3 -9z m-2273 -128 l54 -60 43 -51 42 -52 62 -104 62 -104 13 -42
13 -42 6 0 6 0 -8 -42 -7 -43 -10 -30 -10 -30 -15 -35 -15 -35 -22 -20 -21
-19 6 -13 5 -14 -9 5 -8 5 -44 -77 -44 -77 -43 -57 -43 -57 -10 -7 -10 -6 -6
5 -5 6 30 43 29 43 31 65 31 65 46 50 45 50 27 55 27 55 0 82 1 82 -27 28 -26
28 -19 36 -18 36 -30 54 -30 54 -46 45 -46 45 -16 30 -16 30 -55 58 -56 57 0
14 0 13 7 7 8 7 34 -38 34 -38 53 -60z m-93 19 l57 -61 0 -10 0 -9 -32 -17
-33 -17 -65 -45 -65 -45 -31 -31 -32 -31 -41 -107 -41 -108 6 -64 7 -64 23
-54 24 -53 0 -9 0 -8 -42 29 -43 28 -52 45 -51 44 -42 7 -41 6 -5 13 -5 13 26
44 25 45 9 20 10 20 81 105 81 105 37 55 37 55 32 43 31 43 34 38 33 39 5 -1
5 -2 58 -61z m1177 23 l0 -12 -43 -29 -42 -30 -45 -42 -45 -43 -91 -90 -91
-91 -11 -32 -11 -33 -40 -115 -41 -115 0 -51 0 -52 26 -99 25 -98 20 -59 20
-59 55 -112 54 -111 0 -7 0 -7 -8 0 -9 0 -38 66 -39 66 -39 90 -38 90 -30 114
-29 113 0 43 0 43 25 90 25 90 0 21 0 22 59 88 58 89 70 70 70 70 82 73 82 73
9 -6 10 -6 0 -12z m1190 0 l0 -14 -24 -11 -23 -10 -46 -59 -46 -58 -23 -14
-22 -14 14 21 15 21 48 70 47 69 13 5 12 5 18 1 17 1 0 -13z m3 -73 l5 -26
-19 -5 -19 -5 -68 -82 -68 -81 -18 -45 -18 -45 -9 -23 -9 -23 0 -37 0 -37 19
-50 19 -50 22 -50 22 -50 16 -17 15 -18 9 6 8 5 -1 -8 -2 -8 7 -17 8 -18 11 7
10 6 -7 -11 -7 -11 41 -23 40 -23 0 -22 0 -23 -10 0 -9 0 -38 38 -38 38 -45
54 -45 54 -42 83 -43 83 0 64 0 64 20 44 20 43 43 56 42 57 59 66 60 66 7 0 7
0 5 -26z m-2295 -66 l-3 -22 -87 -58 -88 -58 -25 -39 -24 -40 -32 -66 -31 -66
-1 -68 -1 -67 11 -30 12 -29 4 -47 4 -48 -9 0 -8 0 0 18 0 17 -25 70 -25 70 0
60 0 61 20 39 20 40 10 36 10 36 23 34 23 34 104 72 104 73 9 0 8 0 -3 -22z
m362 2 l0 -10 -10 0 -10 0 0 10 0 10 10 0 10 0 0 -10z m830 3 l0 -6 -92 -86
-93 -85 -70 -71 -70 -70 -23 -30 -23 -30 5 -18 4 -17 -8 5 -8 5 -6 -16 -6 -16
0 -59 0 -59 -10 0 -10 0 -2 18 -1 17 1 20 0 20 7 47 6 47 51 78 51 78 21 14
21 15 55 54 55 55 35 26 35 26 22 22 22 23 16 0 15 0 0 -7z m1088 -52 l-13 -4
-43 -46 -43 -46 -19 -63 -19 -62 -2 -33 -2 -32 26 -74 25 -73 38 -39 38 -39
18 -6 18 -5 0 -20 0 -19 -15 0 -14 0 -36 31 -35 31 0 13 0 13 -14 5 -13 5 -27
53 -26 53 -12 57 -12 57 28 73 27 74 67 74 67 74 3 -24 4 -23 -14 -5z m-2223
9 l18 -20 -20 0 -20 0 -34 -35 -34 -36 -30 -13 -30 -13 -45 -41 -46 -40 -26
-48 -26 -49 -3 -75 -3 -75 13 -93 13 -94 -6 -5 -6 -6 -7 7 -8 8 -9 81 -8 82
-1 95 -1 95 36 60 36 60 29 28 28 28 66 44 66 45 13 15 12 15 8 0 7 0 18 -20z
m1179 -17 l20 -26 1 -33 1 -33 -5 5 -5 5 -23 -68 -22 -68 -1 -47 0 -47 -8 -5
-9 -5 -136 28 -136 27 -7 7 -7 7 15 5 14 6 90 -16 89 -17 45 -4 45 -5 -17 11
-17 10 -107 18 -108 18 -3 10 -4 11 102 94 101 94 24 15 24 15 0 7 0 8 13 0
12 -1 19 -26z m869 -5 l-10 -13 -30 -40 -30 -40 -17 -43 -16 -42 0 -61 0 -61
56 -104 55 -104 10 -5 9 -6 41 -60 40 -59 40 -27 39 -26 0 -18 0 -19 -7 1 -8
0 -19 8 -18 7 -27 37 -26 36 -47 66 -48 66 0 5 0 6 -33 51 -34 52 -21 36 -22
36 0 64 0 64 19 70 19 69 39 32 38 33 9 1 8 0 -9 -12z m-2015 -29 l2 -14 -52
-29 -53 -29 -32 -26 -31 -26 -26 -18 -26 -18 -30 -52 -31 -52 7 -179 7 -179
-14 5 -14 5 -1 34 -1 34 -8 90 -9 90 3 55 3 55 18 35 18 35 42 48 43 48 46 24
46 23 35 31 35 30 10 -3 10 -3 3 -14z m2202 -80 l0 -90 -57 7 -58 7 -4 3 -4 4
10 34 10 33 34 46 34 46 18 1 17 0 0 -91z m-2175 32 l5 -10 -10 -6 -10 -6 6
-11 7 -11 -11 7 -11 6 -5 -9 -6 -9 -53 -30 -52 -29 -48 -51 -47 -51 -11 -27
-10 -27 -3 -141 -4 -141 -1 -34 -1 -34 -7 7 -8 7 -2 186 -2 186 13 24 12 24
53 54 54 54 18 6 19 6 -6 11 -7 11 11 -7 11 -7 23 13 23 13 13 18 13 17 14 0
14 0 6 -9z m56 -83 l22 -43 23 -28 24 -29 0 -27 0 -28 -130 3 -129 3 -41 3
-40 2 0 5 1 6 17 20 17 21 58 44 59 45 36 22 37 21 12 1 13 1 21 -42z m1068
-126 l-32 -97 -14 -32 -15 -31 -102 -91 -101 -90 -40 -29 -40 -28 -12 -8 -13
-7 0 20 0 20 83 54 82 55 59 58 58 59 34 70 34 69 0 26 0 26 16 50 16 49 6 15
6 15 4 -38 3 -39 -32 -96z m106 69 l0 -69 -7 4 -6 4 -7 -30 -6 -30 7 -11 7
-12 -11 7 -12 7 0 -23 0 -23 -29 -50 -29 -50 -53 -55 -54 -55 -84 -79 -84 -78
-23 -10 -24 -11 -7 6 -7 7 30 31 29 31 38 25 38 24 83 82 83 82 22 39 22 39
30 89 29 88 0 23 0 22 6 23 6 22 7 0 6 0 0 -69z m32 -13 l-5 -13 -1 19 -1 19
6 -6 6 -6 -5 -13z m915 6 l7 -5 -5 -13 -5 -14 -22 5 -22 4 -42 11 -43 11 0 10
0 10 62 -7 62 -7 8 -5z m-833 -246 l-79 -81 0 -12 0 -13 -14 -11 -15 -12 -22
-72 -22 -72 1 -66 2 -66 -42 8 -43 9 -125 7 -125 8 19 15 18 15 28 26 28 26
51 33 51 32 75 83 75 82 26 34 25 34 14 49 15 50 0 73 0 74 69 -86 69 -86 -79
-81z m-81 133 l-4 -89 -36 -54 -36 -53 -81 -82 -81 -82 -37 -20 -38 -20 -55
-50 -55 -51 -7 0 -8 0 0 23 0 22 28 12 27 13 80 76 80 76 43 41 43 42 55 82
56 82 11 60 12 61 4 0 3 0 -4 -89z m856 75 l60 -12 3 -11 4 -11 -11 -7 -11 -7
-65 18 -64 17 0 13 0 14 13 -1 12 0 59 -13z m-1597 -12 l6 -15 -10 -10 -10
-10 -49 8 -49 8 -3 18 -3 17 56 0 56 0 6 -16z m373 -28 l65 -14 48 -7 47 -7 0
-14 0 -13 -8 -4 -7 -5 -105 24 -105 24 -25 0 -25 0 -13 8 -13 9 6 15 6 16 32
-9 32 -8 65 -15z m-573 -94 l-13 -27 -33 -62 -32 -62 -15 -12 -14 -11 0 -9 0
-9 -60 -82 -59 -83 -45 -61 -45 -61 -25 -48 -26 -47 -6 15 -5 15 22 44 22 43
45 63 46 62 8 0 8 0 0 12 0 12 38 55 37 54 25 28 25 28 55 122 55 121 3 -36 3
-36 -14 -28z m1483 74 l0 -14 -67 -8 -66 -7 -16 10 -15 9 -4 12 -4 12 86 0 86
0 0 -14z m331 4 l37 -10 5 -23 6 -22 -3 -47 -3 -48 -5 -5 -5 -5 -39 35 -39 36
-16 49 -16 50 21 0 21 0 36 -10z m-2173 -14 l167 -1 0 -20 0 -20 -20 2 -20 2
-158 7 -158 7 -5 8 -5 9 6 10 6 10 10 -6 10 -6 167 -2z m548 -2 l-6 -16 0 -6
0 -7 -45 3 -45 4 0 19 0 19 51 0 51 0 -6 -16z m419 -25 l100 -20 3 -4 4 -4 -7
-11 -7 -11 -16 5 -17 5 -125 22 -125 21 -4 3 -3 4 7 11 7 11 42 -6 41 -6 100
-20z m890 -27 l-7 -7 -65 0 -66 0 -4 11 -4 11 68 9 68 9 8 -13 9 -14 -7 -6z
m-1327 -4 l3 -18 -40 0 -40 0 -6 10 -6 10 5 9 5 8 38 -1 38 -1 3 -17z m442
-19 l64 -10 4 -3 3 -4 -58 -55 -58 -55 -65 -51 -65 -50 -8 27 -9 27 -12 55
-12 55 1 20 2 20 1 31 2 32 73 -14 72 -14 65 -11z m-917 24 l107 -6 0 -12 0
-13 -21 -5 -20 -5 -112 8 -112 8 -7 -4 -7 -4 -40 6 -41 7 0 13 0 14 73 0 74 0
106 -7z m1432 -33 l6 -10 -36 -32 -37 -32 -41 -59 -42 -59 -27 -46 -28 -47 0
-17 0 -18 -16 0 -16 0 4 13 5 12 18 55 18 54 26 36 26 35 60 63 60 62 7 0 7 0
6 -10z m405 -5 l12 -15 -14 -5 -15 -6 -58 3 -58 3 -4 12 -4 12 38 4 38 4 26 1
27 2 12 -15z m-1376 -12 l-1 -13 -1 -60 -2 -59 -13 5 -14 5 -59 -63 -59 -64
-34 -66 -34 -67 7 -16 6 -16 -10 6 -10 6 0 -15 0 -16 -22 0 -23 0 -52 6 -53 7
35 38 34 38 17 32 16 33 39 49 39 49 0 8 0 9 49 61 50 62 6 29 7 30 41 -3 42
-3 -1 -12z m-401 -7 l27 -1 0 -12 0 -12 -11 -7 -12 -7 -161 2 -160 2 -3 2 -2
3 5 21 6 22 141 -6 142 -7 28 0z m1857 -99 l55 -81 55 -66 54 -65 18 -13 18
-13 0 -15 0 -14 16 0 15 0 -7 13 -7 12 -15 18 -15 17 20 0 21 0 11 -14 12 -14
-6 -34 -5 -33 8 -50 8 -51 -4 -12 -3 -11 -27 17 -27 17 -94 97 -94 98 -36 49
-36 49 -25 41 -25 42 -32 42 -33 42 48 6 47 6 15 1 15 1 55 -82z m-1860 35 l0
-7 -43 -48 -44 -47 -47 -94 -47 -94 -16 -13 -16 -14 -59 64 -59 65 7 15 7 16
3 80 3 80 1 3 0 2 155 -1 155 -1 0 -6z m1549 -113 l61 -81 0 -44 0 -44 -8 0
-8 0 -55 10 -54 10 -73 4 -74 5 -6 5 -5 6 23 50 23 50 52 55 51 55 6 0 6 0 61
-81z m-2281 -46 l-4 -8 -11 -25 -11 -25 -22 -57 -22 -57 8 -12 7 -12 -11 6
-10 7 -7 -40 -7 -39 18 -30 18 -30 9 6 10 6 -7 -12 -8 -12 36 -46 36 -46 0 -8
0 -8 -29 2 -29 2 9 12 10 11 -51 57 -52 57 7 62 7 61 10 40 10 40 37 52 36 53
8 0 9 0 -4 -7z m1159 -110 l-19 -33 5 -20 5 -20 -10 6 -11 7 5 -36 4 -36 -8 5
-8 5 0 -33 0 -34 12 -12 12 -12 -13 0 -14 0 6 -45 7 -45 -5 0 -5 0 -20 32 -20
33 0 74 0 74 26 56 27 56 15 24 16 23 6 -18 7 -18 -20 -33z m735 -160 l-3
-103 -9 0 -9 0 0 124 -1 125 8 18 7 18 5 -40 5 -40 -3 -102z m372 136 l59 -8
11 -11 10 -10 -7 -6 -7 -7 -77 16 -78 16 -54 5 -54 5 -11 11 -11 11 80 -6 80
-7 59 -9z m-96 -29 l74 -10 39 -10 39 -11 0 -9 0 -10 -14 0 -13 0 -124 25
-123 25 -11 11 -10 12 35 -7 35 -7 73 -9z m26 -49 l109 -21 5 -4 4 -5 -6 -10
-6 -10 -33 10 -32 10 -100 17 -100 18 -3 16 -3 17 28 -9 28 -9 109 -20z m-491
-2 l147 -12 0 -14 0 -15 -72 7 -73 8 -100 6 -100 6 -3 17 -3 18 28 -5 28 -4
148 -12z m-1836 -21 l-5 -13 0 25 0 25 5 -12 5 -13 -5 -12z m1039 2 l0 -15
-88 3 -88 3 0 8 0 8 7 7 7 7 81 -3 81 -3 0 -15z m1282 -19 l82 -18 8 -7 7 -8
-35 -29 -34 -29 -12 0 -12 0 -15 -24 -16 -24 -38 -23 -38 -23 -6 -9 -6 -9 -7
11 -7 10 -14 77 -15 76 0 24 0 24 38 -1 37 0 83 -18z m-385 -17 l48 -7 -4 -11
-4 -11 -89 2 -89 2 -72 6 -73 7 0 15 0 16 118 -6 117 -7 48 -6z m-913 -7 l0
-12 -95 -1 -95 0 0 6 0 7 7 6 6 7 89 0 88 0 0 -13z m26 -39 l7 -11 -11 7 -12
7 0 -13 0 -13 -115 0 -115 0 0 12 0 12 33 3 32 4 87 1 88 1 6 -10z m826 -4
l97 -6 6 -16 5 -15 -3 -3 -4 -4 -109 11 -109 10 -42 5 -43 5 0 16 0 15 53 -5
52 -6 97 -7z"/>
<path d="M1401 4454 l1 -19 5 13 5 13 -6 6 -6 6 1 -19z"/>
<path d="M2251 2454 l1 -19 5 13 5 13 -6 6 -6 6 1 -19z"/>
<path d="M1370 1940 l0 -10 10 0 10 0 0 10 0 10 -10 0 -10 0 0 -10z"/>
<path d="M533 602 l36 -29 48 -18 48 -18 25 -16 25 -16 117 -97 116 -97 36
-45 37 -44 49 -101 50 -101 5 0 5 0 -11 28 -10 27 -42 85 -41 85 -71 71 -70
70 -73 60 -74 59 -51 32 -52 33 -16 0 -16 0 -41 30 -42 30 -11 0 -12 0 36 -28z"/>
<path d="M893 23 l17 -5 13 5 12 5 -30 0 -30 0 18 -5z"/>
<path d="M3290 10 l-15 -10 40 0 40 0 -15 10 -15 10 -10 0 -10 0 -15 -10z"/>
<path d="M3168 3 l22 -4 18 4 17 5 -40 -1 -40 0 23 -4z"/>
</g>
</svg>
