<?xml version="1.0" standalone="no"?>
<!DOCTYPE svg PUBLIC "-//W3C//DTD SVG 20010904//EN"
 "http://www.w3.org/TR/2001/REC-SVG-20010904/DTD/svg10.dtd">
<svg version="1.0" xmlns="http://www.w3.org/2000/svg"
   viewBox="0 0 351.000000 514.000000"
 preserveAspectRatio="xMidYMid meet">
<metadata>
Created by potrace 1.16, written by Peter Selinger 2001-2019
</metadata>
<g transform="translate(0.000000,514.000000) scale(0.100000,-0.100000)"
fill="#006400" stroke="none">
<path d="M746 5118 l-5 -23 -5 -70 -5 -70 7 -153 7 -154 -7 -5 -8 -4 0 -10 0
-10 8 5 9 5 0 -14 0 -14 -9 5 -8 5 0 -16 0 -16 9 5 8 5 -7 -41 -8 -41 -1 -136
-2 -136 -10 -145 -9 -145 -10 -255 -10 -255 -9 -105 -9 -105 7 -6 6 -7 95 -21
95 -21 24 -2 24 -3 5 -14 5 -14 -54 7 -54 7 -93 24 -94 23 -3 4 -3 3 9 85 8
85 15 195 15 195 6 235 6 235 10 170 9 170 -6 253 -7 252 -12 0 -12 0 3 -52 4
-53 4 -190 4 -190 -9 -180 -8 -180 -11 -311 -11 -311 -4 -21 -4 -21 -6 -93 -6
-93 -9 -100 -9 -99 4 -4 4 -4 89 -23 90 -23 61 -7 61 -7 0 -13 0 -14 -12 -7
-11 -7 7 11 7 12 -18 0 -18 0 -114 26 -114 25 -35 5 -36 4 -3 4 -3 3 10 99 9
99 11 115 11 115 10 185 9 185 11 260 10 260 -1 230 0 230 -6 47 -6 47 -200 1
-200 1 6 -9 5 -9 -24 5 -25 4 -5 8 -5 8 14 11 14 12 159 0 158 -1 58 -6 57 -7
0 10 0 10 -46 7 -47 6 -183 0 -184 0 0 23 0 22 -10 -15 -10 -15 0 -18 0 -18 9
5 8 5 -5 -24 -4 -24 11 -138 12 -138 14 -130 14 -130 6 -62 6 -63 -53 -1 -53
-1 -67 2 -68 2 0 -10 0 -10 18 -4 17 -3 110 0 110 0 -2 35 -1 35 -16 180 -16
180 -6 53 -5 53 119 -7 119 -7 32 11 32 11 -5 -162 -5 -162 -6 -125 -7 -125
-1 -65 -2 -65 -70 -3 -70 -3 -67 -9 -67 -10 -94 0 -94 0 -6 -6 -6 -7 10 -20
11 -20 -3 -231 -4 -231 1 -330 0 -330 3 -195 3 -194 -8 -71 -7 -70 1 -45 1
-45 0 -368 1 -368 9 5 8 5 3 358 4 358 -2 375 -2 375 -1 110 -2 110 7 405 6
405 57 2 58 1 125 12 125 11 38 5 37 4 0 -12 0 -13 -8 -11 -7 -12 -180 -8
-180 -8 -17 2 -18 2 -1 -143 -1 -142 -3 -50 -3 -50 -3 -116 -3 -115 9 -14 8
-13 -11 7 -12 7 0 -41 0 -41 8 4 7 5 -1 -581 -2 -582 -6 -245 -6 -246 0 -72 0
-72 -20 0 -20 0 0 -25 0 -25 30 0 30 0 0 13 0 12 6 305 5 305 3 935 4 935 1 8
1 7 15 0 14 0 -6 -82 -7 -83 0 -385 -1 -385 9 -165 9 -165 -1 -35 -1 -35 -6
-300 -6 -300 -6 -308 -6 -307 -44 0 -43 0 0 -10 0 -10 58 0 57 0 3 448 2 447
10 196 9 196 -10 204 -11 204 2 415 2 414 8 16 9 15 1 -17 0 -18 13 0 13 0 13
13 14 12 -7 -12 -7 -12 135 2 134 2 7 -7 7 -7 -5 -15 -6 -15 -108 5 -108 6
-32 8 -33 8 -7 -11 -8 -12 -2 -1005 -2 -1005 -10 -100 -9 -100 12 -14 11 -15
-12 7 -11 7 0 -57 1 -58 11 -7 11 -8 -14 0 -13 0 13 -17 14 -17 -11 7 -11 6 5
-74 4 -75 -71 0 -71 0 0 -10 0 -10 83 0 82 0 -2 150 -1 150 11 0 11 0 -12 12
-12 12 0 26 0 26 12 13 13 14 -13 -7 -13 -8 8 89 7 88 1 986 0 987 10 -3 10
-4 110 -6 109 -6 9 -6 9 -6 9 14 9 14 0 -33 0 -33 -17 5 -18 4 -70 7 -69 7
-23 9 -22 8 -7 -11 -7 -12 -6 -955 -5 -956 0 -308 0 -309 -103 7 -103 7 0 -15
0 -14 100 -2 100 -1 12 -3 11 -2 2 410 2 410 4 210 4 210 115 0 115 0 3 -60 4
-60 -12 -145 -11 -145 -19 -175 -18 -175 -6 -70 -6 -70 -2 -249 -1 -249 -5
-23 -4 -24 -70 0 -69 0 4 -7 5 -8 -111 3 -112 3 -1 -338 -2 -338 -6 -200 -5
-200 -5 -34 -5 -34 9 -16 9 -16 2 5 1 5 3 50 2 50 7 190 7 190 1 333 0 333 97
-2 96 -1 73 7 72 8 0 -15 0 -15 -82 -6 -83 -7 -50 0 -50 0 -20 -6 -21 -5 -1
-252 -2 -252 -5 -110 -6 -110 -5 -130 -6 -130 -5 -63 -4 -64 12 4 13 5 7 154
6 154 6 115 6 115 0 276 0 276 137 6 137 6 8 -5 7 -5 -5 -14 -6 -13 -118 -4
-118 -3 -6 -6 -6 -6 -5 -224 -5 -224 -5 -180 -5 -180 -5 -85 -6 -85 -4 -37 -5
-38 15 0 15 0 0 68 0 67 10 115 10 115 0 340 1 340 119 3 118 3 7 -12 8 -11
-14 -10 -14 -9 -103 4 -103 4 5 -14 6 -13 0 -78 1 -77 -10 -295 -10 -295 -12
-118 -12 -117 7 -7 6 -6 4 4 5 5 15 199 15 200 3 292 3 293 103 0 102 0 0 -7
0 -8 -8 -11 -7 -11 -69 -2 -69 -2 -8 13 -8 13 0 -172 0 -172 -10 -78 -10 -78
-4 -237 -4 -238 9 0 8 0 -1 27 -1 28 6 120 6 120 5 180 4 180 7 138 7 137 46
0 46 0 24 7 24 6 -8 -124 -8 -124 -1 -27 -1 -28 -7 0 -8 0 0 -192 0 -193 -10
-109 -11 -108 6 -17 5 -17 116 2 116 3 26 5 27 6 68 5 67 5 0 -15 0 -15 10 0
10 0 0 4 0 4 15 79 16 78 15 85 15 85 14 120 14 120 27 178 27 177 -6 6 -6 6
-125 -1 -126 -2 0 18 0 18 126 3 126 3 30 -6 30 -7 -6 -21 -6 -22 -15 -120
-15 -120 -15 -95 -14 -95 -17 -103 -16 -103 5 -19 5 -20 -8 5 -8 5 -8 -73 -9
-72 1 -17 1 -18 -9 0 -8 0 0 -40 0 -40 15 0 15 0 1 23 1 22 3 30 3 30 17 117
17 117 -8 12 -7 12 13 -8 13 -8 -5 36 -4 36 7 -4 6 -5 7 78 7 77 9 35 9 35 16
140 15 140 6 43 7 42 -167 0 -166 0 0 13 0 13 175 2 174 1 6 -8 5 -9 -25 -218
-25 -219 -25 -185 -25 -185 -10 -50 -10 -50 -5 -52 -5 -53 14 0 13 0 6 63 6
62 20 125 19 125 21 165 21 165 15 155 16 155 4 11 4 12 -52 6 -52 6 -125 0
-125 0 -17 2 -18 1 0 19 0 18 163 -5 162 -5 53 -6 54 -6 -7 -51 -6 -52 -24
-175 -24 -175 -16 -145 -16 -145 -15 -90 -15 -90 -8 -73 -7 -72 13 0 13 0 2
53 2 52 0 27 1 26 6 -4 6 -4 7 48 7 47 14 115 15 115 10 110 10 110 10 55 9
55 10 75 10 75 6 68 7 68 -9 -2 -8 -3 -75 8 -75 7 -105 3 -105 4 -37 1 -38 1
0 25 0 25 24 0 25 0 73 -10 73 -9 108 -6 109 -5 39 -6 39 -7 -6 -71 -6 -71
-18 -135 -19 -135 -21 -175 -21 -175 -14 -98 -15 -99 4 -7 5 -7 -14 -60 -14
-59 -1 -12 0 -13 10 0 10 0 0 16 0 15 198 -6 197 -7 40 9 40 10 -3 13 -3 14
11 105 11 106 4 176 4 177 21 188 21 189 14 105 15 105 0 58 0 57 23 -5 22 -5
93 -15 93 -16 11 7 11 7 -8 -13 -8 -13 26 5 26 5 -4 -8 -5 -7 57 -4 58 -3 47
3 47 3 5 17 6 17 11 255 10 255 10 280 9 280 6 60 6 61 77 -8 76 -7 60 -10 60
-11 6 0 6 0 -3 -202 -4 -203 -10 -115 -10 -115 -10 -255 -11 -255 -9 -95 -9
-95 -1 -24 0 -23 -67 6 -68 7 -185 24 -185 25 -42 5 -42 6 -10 -38 -10 -38
-25 -235 -24 -235 -6 -135 -6 -135 -4 -25 -4 -25 -7 -142 -6 -143 101 0 101 0
20 10 19 11 0 -11 0 -10 13 0 12 0 -3 74 -3 73 15 219 16 219 0 149 0 148 28
-5 27 -5 150 -26 150 -27 6 -2 5 -2 -27 -195 -28 -195 -11 -130 -11 -130 -6
-80 -6 -80 18 15 18 15 193 0 192 0 -5 -7 -4 -8 25 0 26 0 0 -10 0 -10 9 0 8
0 12 92 12 93 15 98 16 98 -6 15 -6 15 9 -5 8 -6 7 53 7 52 9 30 10 30 10 90
10 90 -13 11 -12 11 -72 12 -72 11 -35 0 -36 0 0 19 0 19 18 -4 17 -3 119 -22
119 -22 -7 -68 -6 -69 -30 -214 -30 -214 -15 -93 -15 -94 0 -15 0 -14 12 12
13 13 27 192 27 192 15 120 16 120 2 42 3 41 8 -5 7 -4 0 39 0 40 -112 21
-113 20 -37 7 -38 6 0 18 0 17 103 -17 102 -18 57 -7 58 -6 6 -10 5 -9 12 7
12 7 -11 -15 -12 -14 -11 -90 -11 -90 -15 -145 -16 -145 -20 -128 -21 -128 4
-34 4 -34 -8 5 -8 5 0 -10 0 -11 15 0 15 0 0 40 0 40 24 148 24 147 12 130 12
130 9 70 10 70 12 33 11 33 -14 9 -15 9 -40 5 -40 5 -124 18 -123 17 -5 13 -5
14 3 3 4 4 65 -9 65 -9 80 -11 80 -11 43 -11 44 -12 -7 -40 -6 -40 -14 -155
-14 -155 -21 -190 -21 -190 -6 -53 -6 -52 10 0 11 0 6 23 6 22 0 34 0 34 10
61 9 61 16 165 15 165 16 164 15 163 -3 2 -3 2 -45 13 -45 14 -35 4 -35 5
-115 12 -115 11 -3 20 -3 21 123 -19 123 -18 75 -10 75 -11 24 -5 23 -6 -6
-46 -7 -46 -24 -270 -24 -270 -10 -75 -10 -75 -6 -72 -6 -73 12 0 11 0 -4 24
-5 24 31 -3 31 -4 198 -1 199 -2 4 5 4 4 1 229 0 229 9 110 9 110 8 210 8 210
0 155 -1 155 -6 513 -6 513 14 -5 14 -5 0 14 0 15 -15 0 -15 0 0 10 0 11 15 5
15 6 0 29 0 29 -10 0 -10 0 0 11 0 10 10 -6 10 -6 0 17 0 17 -17 13 -18 13 18
1 19 0 -4 13 -5 12 -112 10 -113 10 -13 18 -13 18 -5 -28 -6 -28 4 -345 4
-345 7 -252 6 -253 7 4 6 4 -3 -59 -4 -59 -61 1 -62 1 -49 6 -48 7 -3 95 -3
95 14 140 13 140 5 70 6 70 20 255 19 255 9 155 10 155 -2 50 -1 50 85 -1 85
-2 90 -3 91 -3 12 8 12 7 0 30 0 29 -10 0 -11 0 6 58 5 57 2 55 2 55 -4 360
-3 360 -8 -420 -8 -420 -6 -41 -6 -41 -82 -9 -82 -9 -82 3 -83 4 0 14 0 14
128 2 127 1 26 -2 26 -2 7 223 7 223 9 145 9 145 6 448 6 449 -11 -7 -12 -7 5
-18 5 -18 -10 -168 -10 -169 0 -295 0 -295 -8 -100 -8 -100 -6 -160 -6 -160 0
-51 0 -51 -90 -7 -90 -7 -55 6 -55 7 0 19 0 19 48 0 47 0 38 -9 37 -9 0 12 0
11 8 -10 7 -10 32 0 31 0 5 5 5 5 6 260 6 260 5 110 5 110 5 320 6 320 10 95
10 95 0 188 0 187 15 0 14 0 0 13 0 13 -20 1 -19 2 -5 -32 -5 -32 -5 -210 -6
-210 -9 -220 -10 -220 -7 -350 -7 -350 -2 -125 -3 -125 -1 -40 -1 -40 -102 3
-103 3 -12 4 -13 4 0 14 0 13 95 -4 95 -4 2 33 2 34 2 35 3 35 6 245 5 245 5
210 4 210 5 45 4 45 2 100 2 101 8 49 8 50 6 272 6 272 -10 6 -10 6 -1 -3 0
-3 -5 -250 -4 -250 -6 -72 -6 -73 -13 0 -13 0 -4 -9 -3 -9 -125 11 -125 12 -4
20 -4 20 12 110 11 110 14 175 13 175 -7 8 -8 9 -6 -49 -5 -48 -6 -60 -6 -60
-10 -155 -10 -155 -4 -57 -4 -57 42 -5 42 -6 97 -10 97 -10 11 0 10 0 0 -20 0
-20 -22 4 -23 5 -90 10 -90 11 -58 6 -59 6 7 111 6 112 11 63 10 62 -4 25 -5
24 7 -4 8 -5 7 136 7 136 -9 9 -10 10 -7 -118 -7 -118 -10 -75 -10 -75 -10
-120 -9 -120 -5 -36 -5 -37 22 -6 23 -6 55 0 55 -1 100 -14 100 -15 8 0 7 0 0
-21 0 -20 -17 5 -18 5 -76 11 -76 11 -102 3 -102 3 -5 6 -5 5 11 208 10 209
11 143 10 142 -9 17 -10 16 -5 -19 -6 -19 -6 -160 -6 -160 -10 -199 -11 -199
13 -7 13 -8 97 -1 98 -1 73 -10 73 -10 28 -6 27 -6 0 -18 0 -19 -12 4 -13 4
-140 15 -140 15 -79 6 -78 7 6 46 6 47 6 235 6 235 4 14 4 14 -12 15 -13 16
11 -7 12 -7 1 93 1 92 -9 -14 -9 -15 -6 -90 -6 -91 -5 -250 -6 -250 -6 -51 -5
-51 78 -7 79 -6 60 -7 60 -6 -40 -13 -40 -13 -55 5 -55 5 -64 11 -64 11 7 121
6 121 6 160 6 160 7 111 6 112 -5 23 -6 24 -6 -10 -6 -10 -6 -125 -6 -125 -6
-175 -6 -175 -6 -112 -7 -112 60 -15 60 -15 80 -10 80 -10 85 -12 85 -11 42
-5 43 -6 -5 -261 -5 -261 -5 -210 -5 -210 -6 -47 -7 -48 -46 0 -46 0 -35 6
-36 6 3 131 4 132 16 240 17 240 1 50 0 50 -65 12 -65 13 -150 20 -150 20 -64
11 -63 12 5 71 6 71 11 110 11 110 9 150 10 150 5 180 5 180 -9 -25 -8 -25 -2
-90 -2 -91 -4 -44 -5 -45 -11 -195 -12 -195 -6 -74 -6 -74 -12 -4 -12 -4 -6
33 -6 33 14 180 13 180 -10 14 -11 15 11 -7 11 -6 5 202 6 202 -4 4 -4 4 -5
-4 -4 -5 -10 -109 -10 -110 -3 -135 -2 -135 -11 -140 -11 -140 0 -58 1 -57 -8
0 -8 0 2 -12 3 -13 -8 -195 -7 -195 -4 -25 -4 -25 -10 -195 -11 -195 -5 -110
-6 -110 -5 -37 -6 -37 44 -5 43 -6 122 -5 121 -4 26 -7 26 -6 0 -9 0 -8 -177
5 -178 6 -31 9 -30 9 7 53 8 52 0 125 1 125 14 195 15 195 6 160 6 160 10 180
10 180 3 95 4 95 -12 14 -11 15 13 -8 12 -7 0 103 1 103 9 71 9 71 -8 29 -8
29 -14 -3 -14 -4 -50 -3 -50 -3 -95 -2 -95 -3 -6 29 -7 29 -1 -5 -2 -5 -5
-170 -4 -170 -5 -100 -5 -100 0 -128 0 -128 -12 -3 -13 -4 -110 -11 -110 -12
-90 -1 -90 -1 -27 2 -28 1 0 20 0 20 138 0 139 0 76 6 75 7 7 31 7 31 9 210
10 210 5 143 5 142 -9 0 -10 0 -5 -52 -6 -53 -1 -65 0 -65 -9 -248 -10 -249
-5 -5 -6 -6 -97 -9 -98 -9 -74 7 -73 6 7 -13 8 -12 -14 9 -14 8 -22 -3 -23 -2
0 20 0 21 190 0 190 0 0 48 1 47 9 165 9 165 7 148 7 147 -12 0 -13 0 4 -80 3
-80 -6 0 -6 0 -1 -47 -2 -48 -10 -195 -10 -195 0 -29 0 -29 -101 7 -101 7 8
-13 8 -13 -15 12 -14 12 -60 -1 -60 0 -12 1 -13 1 0 21 0 21 88 -6 87 -6 68
-1 67 -2 7 7 8 7 3 27 2 27 10 170 9 170 12 112 11 112 -6 16 -6 16 -10 -6
-11 -7 13 -16 13 -16 -12 7 -12 7 1 -32 1 -33 -13 -175 -13 -175 -1 -22 -1
-21 -8 5 -9 5 3 -51 3 -51 -7 -6 -7 -7 0 -24 0 -23 -112 5 -113 6 -32 5 -33 5
0 19 0 19 9 5 8 5 98 -14 98 -15 23 0 22 0 6 83 7 82 9 115 9 115 6 102 6 101
-21 -5 -20 -5 16 -13 17 -12 -10 -6 -9 -6 -95 -1 -94 -1 -80 7 -80 7 13 -14
13 -14 47 -2 47 -2 118 0 117 -1 0 -15 0 -14 -167 2 -168 2 0 -85 0 -85 -8 -6
-7 -5 -5 -274 -4 -274 -6 -220 -5 -221 -5 -423 -5 -423 -5 -10 -6 -9 -147 7
-147 8 -73 0 -72 0 0 18 0 17 204 -7 203 -6 6 99 7 99 0 120 0 120 10 420 9
420 11 71 11 72 -3 220 -3 220 8 -5 7 -4 0 100 0 101 -9 0 -9 0 -4 -69 -3 -69
10 6 10 6 -11 -15 -12 -14 -4 -77 -5 -77 11 6 11 7 -11 -15 -11 -14 -7 -234
-7 -234 -3 -6 -4 -6 -7 -460 -7 -460 -1 -147 0 -148 -117 0 -117 0 -76 6 -77
7 0 13 0 13 171 -2 172 -2 3 200 4 200 4 46 4 46 7 339 7 339 10 115 10 115 5
65 4 65 -8 137 -8 136 8 -5 8 -5 -3 116 -3 116 -10 0 -10 0 -6 -202 -7 -203
-6 -148 -6 -148 -6 -11 -7 -11 13 8 13 8 -7 -12 -7 -11 -5 -298 -5 -297 -9
-223 -10 -224 0 -104 0 -105 9 5 9 6 -5 -21 -6 -21 -131 8 -131 8 -32 -2 -33
-2 0 20 0 19 150 -6 149 -6 -4 36 -5 37 -4 36 -5 35 9 302 9 302 7 305 7 305
12 150 12 150 2 162 2 161 -11 7 -12 7 4 -125 3 -125 -5 3 -6 4 2 -47 1 -47
-9 -125 -9 -124 -2 -2 -2 -2 -164 -7 -164 -8 6 69 6 69 7 211 7 211 -10 18
-10 18 -7 -254 -7 -254 -6 -53 -5 -53 118 6 119 6 58 5 57 5 0 -21 0 -20 -22
0 -23 0 -173 -7 -172 -6 5 316 6 315 -11 7 -10 6 0 -53 0 -53 -6 -276 -5 -277
33 -5 33 -5 95 4 95 4 73 6 72 5 0 -24 0 -24 -215 -2 -215 -1 -2 345 -3 345
-10 3 -10 2 1 -105 0 -105 2 -255 2 -255 225 3 225 3 0 -15 0 -15 -237 -3
-238 -3 -1 0 -2 0 -7 359 -6 358 -9 22 -9 21 0 -217 0 -217 12 -5 12 -4 -10
-1 -10 -1 3 -169 3 -169 207 2 207 2 43 -4 42 -5 0 -27 0 -27 -57 8 -58 8
-160 2 -160 2 -50 6 -50 6 0 210 0 210 -9 175 -9 175 -9 20 -8 20 7 -160 8
-160 -1 -263 0 -263 13 6 14 5 -5 -8 -4 -7 191 3 192 3 75 -8 75 -8 -2 -160
-3 -160 -6 -394 -7 -394 -125 6 -124 6 -6 6 -6 5 12 168 12 167 10 100 10 100
10 110 10 110 0 72 0 73 -22 5 -23 4 -110 15 -110 15 -105 6 -105 6 -19 6 -19
5 8 207 8 206 0 70 0 70 -4 218 -4 217 -2 0 -3 0 -4 -22z m1787 -58 l-5 -20
-17 0 -16 -1 -132 -5 -133 -6 0 16 0 16 93 1 92 1 60 8 60 7 2 2 1 1 -5 -20z
m-1910 -91 l9 -54 -6 -300 -6 -300 -5 -145 -4 -145 -6 -95 -5 -95 -6 -90 -5
-90 -4 -55 -3 -55 -18 -198 -17 -197 5 -5 5 -5 88 -15 89 -16 13 6 14 5 -5 -9
-6 -9 68 -12 67 -13 17 -6 17 -6 -7 -12 -8 -12 -64 14 -65 14 -129 30 -128 30
-6 5 -5 6 12 162 11 163 11 128 10 128 7 199 7 198 -10 -6 -10 -6 11 15 11 14
2 75 2 75 10 90 11 90 -1 239 -1 240 -6 5 -6 6 -186 3 -187 2 -3 24 -3 24 115
0 115 0 12 8 12 7 -8 -12 -7 -13 66 4 66 3 0 -7 0 -7 16 6 15 6 -5 14 -6 15
12 -4 13 -5 8 -54z m1919 32 l13 -16 -17 14 -18 13 0 -14 0 -14 13 -13 12 -14
-14 8 -13 8 3 -47 4 -46 -7 0 -8 0 6 -72 5 -73 3 -67 2 -68 -7 -2 -6 -3 -7
-225 -7 -224 -4 -6 -4 -6 -1 -134 -2 -135 -9 -135 -8 -135 -6 -120 -6 -120 -4
-130 -5 -130 -3 -29 -2 -29 30 -9 30 -9 178 -4 178 -5 10 -5 9 -6 0 -15 0 -16
-37 6 -38 6 -165 10 -165 11 -32 5 -32 6 -7 45 -7 46 7 86 6 86 6 110 5 110 5
14 4 14 -12 15 -13 16 11 -7 11 -6 7 147 7 147 9 110 9 110 6 225 6 225 4 175
4 175 6 86 7 87 19 -5 18 -5 13 -17z m-77 -23 l0 -38 -7 0 -8 0 0 -46 0 -45
12 7 11 7 -7 -12 -7 -11 -7 4 -7 4 3 -111 2 -112 3 -67 2 -66 -7 5 -8 4 -1
-193 -2 -193 -3 -39 -3 -40 12 -15 12 -15 -12 8 -13 7 0 -51 0 -51 -9 -92 -10
-92 -5 -100 -5 -100 -8 -155 -8 -155 0 -115 0 -114 40 -7 40 -7 110 -6 110 -7
90 -9 90 -10 8 0 7 0 0 -23 0 -24 -52 8 -53 7 -135 17 -135 16 -75 7 -74 7 -8
35 -8 35 10 215 10 215 10 195 11 195 11 135 11 135 4 350 4 350 2 57 2 56 8
-5 9 -5 -4 28 -3 27 -13 5 -12 4 5 -14 5 -13 -90 -1 -91 0 3 20 3 21 80 5 80
5 35 1 35 1 0 -39z m-587 26 l122 -6 0 -17 0 -16 -132 0 -133 0 -1 -41 -1 -41
-5 -9 -5 -9 -7 -28 -7 -29 13 8 13 8 -13 -17 -14 -16 4 -125 3 -124 -7 5 -8 4
0 -108 -1 -108 -3 -390 -4 -390 7 -313 6 -314 -267 4 -268 3 0 17 0 18 26 6
27 7 212 -7 212 -7 6 243 6 243 5 415 6 415 5 130 5 130 12 233 11 232 26 0
26 -1 123 -5z m124 -101 l3 -41 -6 4 -6 3 -11 -161 -12 -161 -5 -5 -5 -5 -87
12 -88 13 -24 4 -24 5 7 117 7 117 5 65 6 65 4 7 4 6 114 -1 114 -2 4 -42z
m387 -52 l-1 -100 6 -10 6 -10 -11 -6 -10 -7 1 -257 2 -256 -1 -39 -1 -39
-227 7 -228 7 -23 6 -24 6 6 -414 5 -414 7 -299 7 -298 -39 6 -39 5 -165 3
-165 3 1 -17 2 -18 -9 6 -9 5 -1 -108 -2 -108 -2 -35 -2 -35 -7 -125 -7 -125
-9 -95 -10 -95 -10 -135 -10 -135 -6 -66 -6 -65 -77 4 -76 4 -75 6 -75 7 2
250 1 250 26 215 25 215 2 140 2 140 4 38 5 37 49 0 49 0 1 13 1 12 5 -12 5
-13 20 11 20 11 -6 -11 -7 -11 168 0 168 0 36 6 37 6 -3 612 -4 611 6 71 6 71
131 1 131 1 95 11 95 11 23 4 22 5 -1 98 -1 97 7 223 8 222 79 0 78 0 -1 -99z
m-1961 80 l142 -1 0 -192 0 -193 -10 -110 -9 -110 -6 -150 -5 -150 -5 -115 -5
-115 -15 -245 -15 -245 -11 -85 -10 -85 19 -15 20 -16 58 -13 59 -13 100 -23
100 -23 38 -7 37 -6 0 -15 0 -16 -32 7 -33 7 -100 23 -100 23 -103 23 -104 24
5 35 5 35 21 300 20 300 5 140 6 140 5 135 5 135 4 58 4 57 -11 -7 -12 -7 11
15 11 14 7 226 6 227 -13 4 -12 5 -65 -7 -65 -7 -80 1 -80 1 -3 21 -3 20 38
-2 38 -2 143 -1z m2875 -650 l47 -8 6 -6 6 -5 -6 -20 -7 -19 -62 13 -62 13
-41 1 -41 0 -7 8 -8 7 39 12 38 11 25 1 25 0 48 -8z m-690 -48 l12 4 -3 -41
-2 -41 -10 -195 -10 -195 -14 -265 -15 -265 -6 -57 -7 -58 54 0 53 0 95 -11
95 -11 13 -1 12 0 0 -15 0 -14 -22 7 -23 7 -130 4 -130 5 -23 5 -23 5 6 142 6
142 14 210 14 210 13 230 12 230 4 -18 4 -18 11 4z m-448 -118 l140 -4 38 0
37 -1 0 -11 0 -11 -127 3 -128 2 -88 -1 -88 -2 5 -77 6 -78 5 -226 6 -227 0
-625 0 -625 9 -31 9 -31 -8 5 -8 5 -7 -118 -7 -117 -15 -230 -16 -230 -4 -4
-3 -3 -113 22 -113 21 -27 5 -28 6 0 14 0 14 3 0 4 0 109 -20 109 -20 23 0 24
0 -6 28 -6 27 16 255 16 255 2 52 1 51 8 -5 7 -4 0 23 0 24 -10 79 -10 80 -4
355 -5 355 -5 215 -6 215 -5 303 -5 303 63 -6 62 -5 140 -5z m-1215 -10 l85
-6 107 -15 107 -16 -4 -52 -5 -51 -10 -130 -11 -130 -4 -40 -4 -40 -11 -145
-10 -145 -5 -65 -5 -65 -5 -45 -5 -45 -5 -70 -5 -70 -5 -35 -5 -35 -10 -250
-10 -250 -16 -115 -16 -115 -2 -290 -1 -290 95 -8 95 -9 62 -1 63 -2 0 -19 0
-19 -72 6 -73 6 -93 11 -94 10 -23 -6 -24 -6 5 79 5 78 4 220 3 220 11 75 12
75 14 110 15 110 10 190 11 190 9 120 10 120 15 200 15 200 10 160 11 160 8
70 9 70 6 16 7 15 -103 18 -103 17 -22 4 -22 4 -108 7 -108 7 -12 0 -11 0 5
14 6 14 61 -5 61 -5 85 -6z m-482 -14 l12 -1 0 -17 0 -18 -127 7 -128 6 -34 1
-34 1 5 6 6 5 98 5 99 5 2 3 2 2 43 -2 43 -1 13 -2z m2258 -16 l59 -6 77 -15
78 -15 9 5 9 6 4 -10 3 -11 47 -2 46 -2 -6 -9 -5 -9 21 5 22 6 0 -9 0 -9 41
-6 42 -7 -6 -91 -5 -91 -12 -29 -11 -30 -1 -90 -1 -91 -3 -159 -3 -158 -5 -15
-6 -14 10 6 9 6 -11 -32 -11 -33 -1 -93 -1 -93 -6 0 -7 0 5 -152 5 -153 -31
-415 -31 -415 -13 -150 -12 -150 3 -82 3 -81 22 -6 22 -7 98 -6 97 -6 0 -23 0
-24 -17 0 -18 0 -119 15 -119 15 -2 2 -2 3 8 120 7 120 11 205 11 205 5 30 6
30 10 230 10 230 4 30 5 30 5 235 5 235 5 165 5 165 6 110 5 110 9 135 9 135
7 46 6 45 -112 28 -113 28 -86 14 -86 14 -46 0 -46 0 -5 6 -6 5 5 20 6 20 12
-5 12 -4 59 -7z m-1736 -26 l85 -10 52 -8 53 -7 4 -5 4 -4 -9 -61 -8 -61 -11
-164 -11 -164 -5 -80 -5 -80 -15 -165 -14 -165 -5 -45 -4 -45 -6 -130 -6 -130
-5 -85 -4 -85 -20 -175 -21 -175 -9 -55 -9 -55 -3 -278 -2 -278 14 -10 15 -10
32 4 32 3 -5 -7 -4 -6 138 -5 137 -5 18 -8 17 -7 0 -9 0 -9 -43 6 -44 6 -150
2 -151 1 4 7 5 7 -37 7 -36 7 6 59 7 60 10 112 9 111 6 170 6 170 14 125 14
125 14 110 14 110 6 205 6 205 25 217 25 216 5 124 5 123 14 110 14 110 -5 5
-4 5 -62 13 -62 13 -60 9 -60 10 -67 0 -66 0 -16 6 -16 6 0 13 0 13 83 -5 82
-4 85 -10z m1377 4 l5 -14 -4 -4 -4 -5 -55 9 -54 8 -120 -6 -120 -6 4 -145 4
-145 2 -45 3 -45 1 -440 1 -440 -4 -295 -4 -295 -13 -225 -14 -225 0 -57 0
-58 -7 0 -8 0 0 -105 0 -104 -32 5 -33 6 -124 24 -123 25 -22 11 -21 12 16 3
16 4 119 -21 119 -21 16 -5 16 -4 10 12 10 13 26 365 26 365 -3 640 -3 640 -8
293 -8 293 192 -2 193 -2 5 -14z m433 -44 l75 -10 105 -26 105 -26 11 0 11 0
-9 -41 -8 -41 -10 -245 -9 -245 -6 -90 -6 -90 -4 -325 -4 -325 -10 -100 -10
-100 -2 -105 -2 -105 -8 -90 -8 -90 -17 -177 -17 -177 6 -21 5 -20 -10 0 -10
0 5 -116 6 -116 4 -4 4 -4 74 -10 74 -10 68 -7 67 -6 0 -17 0 -16 -72 8 -73 7
-94 12 -94 12 6 156 6 156 11 125 11 125 14 160 14 160 6 100 6 100 9 380 9
380 10 125 10 125 6 273 6 272 -19 0 -19 0 -42 15 -42 15 -77 10 -77 10 -75
11 -75 11 -4 3 -3 4 6 9 6 10 43 -4 42 -5 75 -10z m-1907 -5 l85 1 -4 -6 -3
-6 80 -13 80 -14 -5 -50 -6 -51 -12 -115 -13 -115 0 -67 0 -66 -9 5 -9 6 5
-36 4 -37 -8 -2 -7 -3 -3 -87 -3 -88 -9 0 -8 0 4 -40 4 -40 -9 0 -9 0 12 -15
12 -15 -9 0 -10 0 -2 -132 -2 -132 -4 -6 -3 -5 -6 -169 -6 -169 -15 -100 -15
-100 -6 -91 -5 -91 -4 -43 -5 -43 13 7 12 7 -12 -14 -13 -13 0 -95 0 -96 -16
-170 -15 -170 -2 -25 -2 -24 30 -7 30 -7 182 -1 182 -1 26 -10 26 -10 -6 -10
-6 -10 -142 5 -142 5 -108 11 -108 12 -4 6 -4 7 15 114 14 115 15 330 16 330
8 90 9 90 11 210 11 210 10 115 11 115 10 95 10 95 15 80 14 80 1 50 2 50 13
122 13 122 6 24 7 25 -12 7 -11 7 -32 3 -32 4 -65 10 -65 10 -75 6 -76 6 0 18
0 18 37 -7 37 -7 85 1z m1431 10 l46 -7 0 -8 0 -8 -147 -3 -148 -3 3 -230 2
-230 6 -112 6 -113 15 0 16 0 -7 33 -7 32 -6 305 -5 305 126 -3 126 -3 9 -17
9 -17 -91 3 -91 4 -33 -7 -33 -6 0 -62 0 -62 10 -135 11 -135 1 -152 2 -152 7
4 7 5 -4 -423 -3 -422 -6 -25 -6 -25 -4 -150 -4 -150 -11 -290 -11 -290 -5
-82 -6 -81 -35 -7 -36 -7 -61 11 -61 11 -112 15 -112 15 -31 0 -31 0 3 23 3
22 47 0 46 0 -4 -6 -4 -6 38 -7 37 -7 125 -18 125 -19 13 12 13 13 9 254 10
254 9 165 10 165 5 110 6 110 6 433 7 432 -15 -5 -14 -6 1 -102 2 -102 -8
-270 -7 -270 -1 -160 -2 -160 -9 -160 -10 -160 -5 -85 -4 -85 -7 -177 -7 -178
-16 0 -16 0 -120 20 -120 19 -65 14 -65 14 -3 18 -4 18 29 -6 28 -5 100 -20
100 -20 56 -7 56 -6 7 91 8 91 3 27 3 27 12 269 11 270 5 7 4 7 -1 144 -1 143
3 155 2 155 2 45 2 45 2 140 2 140 -10 405 -10 405 -1 33 0 32 119 0 118 0 47
-6z m417 -44 l54 -11 65 -8 65 -9 55 -16 55 -16 -7 -332 -6 -333 -11 -110 -11
-110 -10 -425 -9 -425 -15 -165 -15 -165 -5 -80 -5 -80 -12 -192 -11 -193 5
-14 6 -14 63 -7 63 -6 60 -9 60 -9 45 -5 45 -5 3 0 2 -1 0 -15 0 -16 -32 6
-33 5 -95 15 -95 15 -63 0 -63 0 6 172 7 173 19 161 19 161 5 154 5 154 5 310
6 310 4 125 5 125 10 215 10 215 1 184 0 184 -13 12 -13 12 -122 21 -121 22
-46 0 -46 0 0 15 0 15 29 0 28 0 54 -10z m-1759 -42 l47 -10 12 8 12 7 -7 -11
-7 -12 21 0 21 0 -10 -17 -9 -18 -11 -130 -12 -130 -10 -80 -9 -80 -14 -100
-15 -100 -11 -125 -11 -125 -9 -196 -9 -195 -15 -175 -15 -174 -6 -210 -5
-210 -6 -75 -5 -75 -15 -114 -15 -113 6 -18 6 -17 57 -12 57 -13 203 -5 202
-6 0 -19 0 -19 -42 5 -43 5 -180 6 -180 5 -56 12 -56 12 -10 15 -10 16 13 115
14 115 5 115 5 115 5 110 5 110 6 100 6 100 5 20 4 20 9 250 9 250 15 110 15
110 10 65 11 65 0 85 0 85 15 90 15 90 15 150 16 150 2 20 2 20 -35 1 -35 0
-85 12 -85 12 -24 3 -24 2 -5 13 -4 13 103 -6 104 -6 47 -11z m-578 -20 l68
-3 -6 -155 -7 -155 -4 -50 -4 -50 -6 -125 -5 -125 -12 -83 -11 -82 5 -5 5 -6
164 -34 164 -34 76 -17 75 -17 -7 -55 -8 -56 -11 -271 -11 -270 -4 -15 -4 -15
-5 -140 -6 -140 -6 -150 -6 -150 -17 -157 -17 -157 14 -6 13 -5 62 -14 62 -14
90 -2 90 -1 55 -4 55 -4 79 -1 79 0 -7 -108 -6 -107 -6 -60 -6 -60 -14 -85
-15 -85 -14 -135 -14 -135 -6 -140 -6 -140 -5 -33 -5 -33 -102 6 -101 6 -4 4
-4 4 12 108 11 108 20 160 20 160 14 105 14 105 5 72 5 72 -17 5 -17 4 -55 6
-55 6 -80 5 -80 5 -102 11 -103 12 -2 56 -2 56 -2 275 -2 275 14 120 14 120 7
202 8 201 -3 155 -2 155 -43 10 -42 11 -150 16 -150 17 -39 10 -38 9 5 527 6
527 1 1 0 2 38 -8 37 -9 69 -3z m2417 6 l84 -16 24 -5 25 -4 8 -5 9 -6 -6
-281 -6 -282 -10 -200 -10 -200 -4 -230 -5 -230 -5 -285 -4 -285 -16 -110 -16
-110 -8 -215 -8 -215 3 -6 3 -6 108 -7 108 -6 40 -10 40 -9 51 -3 51 -3 -4
-12 -5 -13 -37 0 -36 0 -100 15 -100 14 -51 1 -51 0 -32 6 -31 7 0 67 0 67 11
159 10 159 16 130 16 130 2 451 3 451 6 69 7 69 4 427 5 428 6 24 6 25 -39 11
-38 11 -107 12 -108 11 0 13 0 13 54 0 54 0 83 -16z m-466 -71 l-6 -78 -14
-365 -14 -365 6 -42 6 -43 21 -1 21 -1 20 -3 20 -4 40 -5 40 -5 70 -6 70 -7
35 -8 35 -8 86 -7 85 -7 -3 -131 -3 -132 -4 -375 -5 -375 -10 -70 -10 -70 -10
-135 -10 -135 -6 -141 -6 -141 13 0 13 -1 100 -7 100 -6 81 -15 81 -14 43 0
43 0 -7 -107 -7 -108 -14 -120 -14 -120 -12 -205 -13 -205 -90 4 -91 3 -3 3
-2 2 20 249 20 249 10 74 10 75 -7 6 -8 7 -75 16 -75 15 -140 17 -140 17 -4 3
-3 4 11 153 11 153 5 180 4 180 11 115 10 115 5 320 5 320 3 45 3 45 7 13 8
12 -25 10 -25 9 -227 16 -228 15 -21 0 -22 0 1 283 1 282 -8 150 -7 150 -5 70
-5 70 -6 98 -6 97 111 0 111 0 -5 -77z m-1495 46 l85 -13 25 0 25 -1 0 -32 0
-31 -7 5 -8 4 -1 -53 -2 -53 -3 -77 -2 -77 -11 -73 -10 -73 -8 -70 -8 -70 0
-51 0 -50 -25 8 -25 8 -98 21 -98 21 6 51 5 52 10 129 10 129 0 97 0 97 6 62
7 62 21 -5 21 -5 85 -12z m1795 -9 l-6 -10 39 0 38 0 60 -10 59 -11 21 -4 22
-5 -3 -355 -2 -355 -7 -7 -6 -6 -107 11 -108 12 -43 0 -42 0 4 23 5 22 7 40 6
40 3 65 3 65 7 155 6 155 11 85 10 85 12 7 11 8 3 0 3 0 -6 -10z m811 -903
l12 -7 5 -20 5 -20 -8 5 -7 4 -167 2 -166 1 0 18 0 19 128 -6 129 -6 18 10 18
11 11 -2 11 -2 11 -7z m-2934 -166 l148 -17 5 -5 5 -5 2 -225 2 -224 -8 -125
-7 -125 -11 -95 -10 -95 -2 -422 -2 -423 6 0 6 0 -8 -77 -7 -78 -10 -180 -10
-180 -11 -55 -11 -55 -14 -109 -15 -110 0 -3 0 -3 -20 0 -20 0 0 22 0 22 16
136 16 135 8 20 8 20 7 85 7 85 4 445 3 445 11 160 11 160 10 165 9 165 6 246
7 246 -13 8 -13 8 -184 13 -184 13 -9 6 -10 6 0 10 0 9 68 0 67 -1 147 -18z
m-82 -46 l105 -6 43 -6 42 -5 0 -168 0 -167 -9 -124 -10 -124 -6 -115 -6 -115
-10 -75 -9 -75 -5 -470 -5 -470 -6 -105 -6 -105 -24 -184 -24 -183 0 -45 0
-45 15 6 15 5 0 -9 0 -10 15 0 15 0 0 -11 0 -10 -42 3 -43 3 1 60 1 60 12 140
11 140 9 180 9 180 6 170 6 170 6 260 5 260 25 255 25 255 6 217 6 217 -24 5
-24 5 -100 9 -100 8 -55 -2 -55 -2 -7 11 -7 11 6 9 5 8 41 -5 42 -5 105 -6z
m1166 -46 l61 -2 13 8 13 8 -7 -11 -7 -12 105 0 106 0 0 -21 0 -22 -87 6 -88
6 -89 7 -89 7 6 -23 6 -23 -19 -196 -19 -196 -17 -127 -17 -126 6 -21 5 -21
-7 5 -8 4 -6 -112 -7 -112 -15 -250 -14 -250 -16 -170 -15 -170 -15 -90 -14
-90 -10 -165 -11 -165 -1 -45 -1 -45 -11 -69 -10 -69 -86 8 -86 7 -20 3 -20 3
-22 1 -23 1 0 13 0 12 118 -4 119 -3 7 138 7 139 15 155 14 155 15 95 15 95 9
80 10 80 5 120 6 120 5 125 6 125 15 185 14 185 10 85 9 85 11 135 11 135 9
98 10 97 -1 8 -1 7 1 38 1 38 18 -5 17 -5 61 -2z m-1122 -5 l109 -7 -7 -221
-6 -221 -10 -80 -10 -80 -14 -185 -15 -185 -5 -160 -6 -160 -5 -215 -5 -215
-5 -75 -5 -75 -5 -90 -5 -90 -6 -135 -6 -135 -4 -33 -5 -32 -7 -90 -8 -90 12
-4 11 -4 47 -7 47 -7 -4 -12 -4 -11 -70 -3 -71 -3 -6 16 -6 16 10 -6 10 -6 -5
41 -5 42 -7 11 -6 10 10 -6 9 -6 12 157 12 157 6 200 5 200 4 50 4 50 5 95 5
95 6 150 6 150 9 228 9 228 7 10 6 10 18 257 19 257 -2 93 -2 92 -35 8 -35 7
-117 0 -118 0 0 12 0 11 63 1 62 1 109 -6z m1811 -18 l90 -5 125 -11 125 -11
24 -5 24 -5 -8 -129 -7 -129 1 -208 0 -208 -15 -171 -14 -171 -5 -219 -4 -219
-10 -85 -10 -85 -11 -120 -11 -120 -20 -150 -20 -150 -16 -67 -15 -67 4 -26 5
-25 -9 0 -9 0 3 -23 3 -22 35 -2 35 -3 83 -6 82 -6 0 -18 0 -18 -132 5 -133 5
-12 3 -11 4 3 18 4 18 16 130 16 130 10 49 9 49 10 96 10 96 5 40 5 40 15 260
14 260 12 211 11 212 -11 18 -10 19 -1 -45 -1 -45 -9 -160 -9 -160 -16 -250
-15 -250 -15 -150 -15 -150 -30 -215 -29 -214 12 -16 12 -15 -17 13 -16 13 -6
-9 -6 -10 15 -6 15 -5 145 -7 145 -7 0 -24 0 -23 -22 4 -23 5 -128 6 -128 6
-15 6 -14 5 0 54 0 53 20 138 21 138 20 170 19 170 10 100 10 100 20 335 21
335 10 225 11 225 0 175 -1 175 -1 12 0 12 -42 5 -43 5 -120 11 -120 11 -40 3
-40 3 -3 14 -3 15 43 -4 43 -3 136 -14 136 -15 47 0 48 0 -6 -147 -6 -148 -6
-210 -6 -210 10 -25 9 -25 7 250 6 250 5 125 4 125 -5 22 -6 22 -37 -3 -36 -4
-125 14 -125 13 -52 1 -51 0 -16 6 -16 6 0 14 0 14 23 -4 22 -5 90 -5z m994
-220 l0 -161 -4 -55 -3 -55 8 -85 9 -85 2 -305 3 -305 7 -26 7 -27 -16 2 -17
3 -6 99 -6 99 -7 135 -6 135 -5 406 -5 407 6 16 6 17 14 -27 14 -27 -1 -161z
m-2774 191 l20 -7 -2 -142 -1 -143 -21 -235 -22 -235 -9 -175 -10 -175 -5
-160 -6 -160 -10 -140 -10 -140 -9 -295 -10 -295 -10 -70 -9 -70 -1 -76 0 -77
80 -7 80 -7 0 -14 0 -14 -32 -2 -33 -1 -67 -1 -68 -1 5 110 5 109 8 8 7 7 -5
110 -5 109 7 -4 6 -4 6 82 6 83 11 275 10 275 5 230 4 230 11 160 10 160 20
200 19 200 5 136 6 136 -47 7 -47 6 -83 0 -84 0 0 8 0 9 5 4 5 5 122 -1 123
-2 20 -6z m1252 -17 l133 -12 -2 -24 -2 -23 -9 6 -8 5 -57 5 -57 4 -87 13 -86
12 -7 -112 -7 -112 6 -11 7 -11 -10 0 -9 0 -1 -60 0 -59 -10 -58 -11 -58 -19
-260 -20 -260 -6 -105 -5 -105 -15 -125 -15 -125 -20 -215 -20 -215 -10 -120
-10 -120 -10 -138 -10 -137 -11 -50 -11 -50 -11 -1 -12 -1 -90 1 -90 2 -52 7
-52 7 8 13 8 14 111 -12 111 -12 24 6 25 6 11 82 10 83 6 130 6 130 10 90 10
90 9 80 9 80 20 215 20 215 16 260 17 260 8 100 9 100 15 110 15 110 6 80 5
80 11 100 11 100 3 12 4 12 28 -9 28 -9 132 -11z m1631 20 l52 0 0 -15 0 -15
-63 0 -63 0 -12 12 -12 12 0 9 0 9 23 -6 22 -6 53 0z m50 -75 l-3 -3 -25 -2
-25 -2 -21 1 -22 1 -6 15 -5 15 44 -2 45 -1 8 7 7 8 3 -17 4 -17 -4 -3z
m-1665 -6 l117 -12 0 -15 0 -15 -52 8 -53 7 -64 8 -64 8 -13 -5 -14 -5 -2 -47
-1 -46 1 -15 1 -14 -15 -116 -14 -115 -10 -145 -10 -145 -15 -195 -15 -195
-10 -145 -9 -145 -11 -55 -10 -55 -15 -185 -14 -185 -20 -215 -20 -215 -11
-115 -11 -115 -4 -12 -4 -13 -98 0 -98 0 -82 7 -83 6 0 17 0 17 47 -8 48 -8
116 0 117 -1 11 63 10 62 11 135 11 135 14 165 15 165 14 135 15 135 20 195
20 195 6 100 6 100 14 170 15 170 3 65 4 65 17 155 17 155 10 68 11 68 16 -5
17 -5 118 -12z m1554 -221 l-3 -158 5 0 6 0 -3 -86 -4 -86 13 7 12 8 -7 -11
-7 -11 1 -308 2 -308 4 -40 3 -40 1 -229 1 -229 -6 -101 -6 -101 -14 -140 -14
-140 -3 -107 -3 -108 -14 -5 -14 -5 -101 -6 -101 -6 -39 9 -40 9 -4 12 -4 13
143 -3 144 -3 7 195 7 195 14 155 14 155 3 170 4 170 -2 75 -3 75 -5 325 -5
325 -3 280 -2 280 5 10 5 10 9 -45 8 -45 -4 -157z m-1002 222 l40 -9 83 -3 84
-3 3 -5 3 -5 3 -160 2 -160 -7 -140 -6 -140 -5 -90 -5 -90 -10 -155 -10 -155
-5 -125 -5 -125 -15 -155 -15 -155 -14 -135 -15 -135 -26 -200 -26 -200 -10
-44 -10 -44 4 -3 3 -3 119 -11 120 -11 54 -7 54 -7 5 -14 4 -13 -83 6 -84 6
-113 6 -112 7 6 81 6 81 18 100 19 100 10 70 10 70 16 165 16 165 4 35 4 35
13 160 13 160 0 102 0 101 8 -5 7 -4 0 79 0 80 9 98 10 99 5 180 6 180 6 147
6 146 -53 6 -54 5 -97 10 -97 11 -35 0 -36 0 0 15 0 15 68 0 67 0 40 -10z
m-540 -51 l90 -12 11 0 11 0 -4 -18 -5 -18 -27 4 -26 4 -73 12 -73 11 -4 -4
-4 -4 -5 -50 -5 -49 -11 -140 -10 -140 -10 -135 -10 -135 -15 -160 -15 -160
-17 -146 -16 -146 5 -31 4 -32 -8 -2 -7 -3 -11 -170 -11 -170 -9 -65 -9 -65
-10 -230 -11 -230 -10 -98 -10 -99 -6 -9 -5 -9 -108 0 -108 0 -106 7 -107 6 0
15 0 14 16 -6 16 -6 171 -6 172 -5 11 8 11 8 11 130 11 130 16 180 15 180 9
70 10 70 6 110 7 110 15 100 15 100 8 135 9 135 16 185 15 185 10 145 11 145
19 170 20 170 0 18 0 18 18 -5 17 -4 90 -13z m1659 13 l5 -8 -35 -2 -34 -3 0
11 0 10 29 0 30 0 5 -8z m-1105 -23 l55 -9 47 0 47 0 5 -22 6 -22 -9 -296 -10
-295 -10 -90 -9 -90 -6 -145 -6 -145 -20 -235 -19 -235 -10 -80 -10 -80 -10
-96 -10 -95 -5 -65 -6 -64 -6 -30 -6 -30 -3 -20 -4 -20 -9 -45 -9 -45 -7 -91
-6 -92 148 -7 148 -7 58 -1 57 -2 -3 -15 -3 -15 -13 3 -12 2 -107 5 -107 5
-103 0 -103 0 6 68 6 67 15 140 15 140 35 265 35 265 10 102 9 103 22 377 21
378 4 257 4 257 -38 6 -38 6 -54 9 -54 10 -59 0 -58 0 0 20 0 20 68 -6 67 -5
54 -10z m1033 -17 l-5 -15 9 5 9 6 2 -536 3 -536 7 -5 8 -6 4 -216 3 -216 -10
-89 -11 -89 -6 -170 -7 -170 -3 -35 -4 -35 -6 -110 -6 -110 -4 -28 -4 -29 -6
-6 -6 -6 -136 -4 -135 -4 -39 12 -38 13 -5 12 -4 13 36 -8 37 -8 119 -7 118
-7 -5 9 -6 9 22 0 22 -1 2 70 2 70 5 120 5 120 10 75 10 75 8 190 8 190 -1
160 -1 160 -13 571 -13 571 7 19 7 18 9 -13 8 -14 -6 -15z m71 -6 l6 -15 -15
6 -14 5 0 -9 0 -9 10 -10 9 -9 6 -516 5 -515 5 -23 4 -23 -16 -412 -16 -411
-3 -135 -3 -135 -2 -120 -1 -120 -92 1 -91 2 -118 1 -118 1 3 16 3 17 160 -2
160 -2 21 -5 21 -5 17 243 17 243 12 195 12 195 -1 325 -1 325 -7 127 -8 128
-10 -6 -10 -6 11 19 10 20 -3 304 -4 303 5 13 5 13 13 0 13 0 5 -14z m-1634
-21 l81 -8 1 -81 1 -81 7 -57 7 -58 -7 -7 -8 -8 -4 -90 -4 -90 -8 -195 -8
-195 1 -39 1 -38 -37 6 -37 6 -87 12 -88 12 0 10 0 11 10 90 10 90 15 165 16
165 9 140 9 140 7 58 6 58 13 -5 12 -4 82 -7z m1494 -1164 l5 -39 -5 -66 -6
-66 -8 0 -9 0 -1 8 -1 7 -3 57 -3 58 9 5 9 6 -12 18 -11 18 6 17 6 16 9 0 9 0
6 -39z m-7 -390 l-6 -197 -14 -124 -15 -125 -2 -127 -3 -127 -8 5 -8 5 0 -11
0 -11 -95 2 -94 2 -26 4 -25 5 0 12 0 11 107 -3 108 -4 3 59 2 58 11 155 10
155 14 125 14 125 7 107 7 108 10 -7 10 -6 -7 -196z m-1416 189 l65 -9 130
-20 130 -20 83 -7 83 -7 -3 -16 -4 -16 -49 1 -50 1 -105 17 -105 17 -110 14
-110 14 -12 1 -12 0 -5 -42 -5 -43 -16 -175 -15 -175 -3 -131 -2 -132 -6 4 -6
4 -9 -163 -9 -162 0 -32 0 -31 -18 9 -17 10 5 72 6 72 3 70 4 70 6 150 7 150
25 245 25 245 4 13 4 12 13 0 13 0 65 -10z m143 -80 l138 -21 11 7 11 7 -7
-11 -7 -12 25 0 26 0 70 -12 70 -12 0 -13 0 -13 -24 0 -23 0 -54 10 -54 10
-159 20 -160 20 -18 0 -18 0 0 -102 0 -103 -11 -125 -10 -125 -9 -180 -9 -180
-11 -59 -12 -60 4 -27 4 -28 -8 5 -8 5 0 -10 0 -11 -15 0 -15 0 4 38 5 37 6
85 7 85 3 60 4 60 11 195 11 195 10 98 9 98 0 44 0 45 33 0 32 0 138 -20z m35
-66 l123 -16 15 6 15 6 -7 -11 -7 -12 32 5 31 5 0 -10 0 -9 30 4 30 5 0 -9 0
-8 15 0 15 0 0 -15 0 -15 -6 0 -6 0 -87 15 -86 15 -110 15 -110 15 -20 0 -20
0 -3 -193 -3 -192 -10 -70 -10 -70 -9 -160 -9 -160 -7 -46 -6 -47 -19 5 -19 5
0 12 0 11 14 100 15 100 6 140 6 140 14 210 14 210 -6 23 -6 23 34 -5 34 -6
123 -16z m2 -54 l85 -11 98 -16 97 -16 0 -20 0 -19 -37 7 -38 7 -158 28 -159
27 3 -151 2 -151 -7 -135 -8 -135 -4 -25 -4 -25 -5 -105 -5 -104 0 -23 0 -23
-26 0 -25 0 5 18 5 17 11 190 11 190 9 65 10 65 0 121 0 121 6 61 7 62 21 -5
21 -4 85 -11z m-1160 -11 l0 -20 -24 -152 -25 -152 -17 -147 -17 -147 -6 -9
-6 -9 -111 -7 -110 -6 7 62 8 63 21 135 20 135 0 95 0 95 6 37 7 37 116 4 116
3 8 2 7 2 0 -21z m1839 -153 l65 -11 7 -28 7 -27 -9 6 -9 5 -2 -45 -2 -46 0
-22 -1 -23 -7 -5 -7 -6 -18 -143 -17 -144 -100 7 -100 6 -6 8 -7 7 7 75 6 75
24 163 24 162 40 -1 41 -1 64 -12z m-1939 -531 l0 -15 -52 0 -53 -1 -57 -6
-58 -5 0 15 0 16 18 4 17 5 93 1 92 1 0 -15z m0 -39 l0 -4 -6 -16 -6 -16 -108
0 -109 0 2 18 1 17 113 2 113 2 0 -3z m-17 -71 l-5 -15 -72 0 -71 0 -20 -5
-20 -5 -15 10 -15 10 13 9 14 8 86 2 86 2 5 4 4 4 8 -5 8 -5 -6 -14z m-13 -49
l0 -15 -52 -6 -53 -7 -44 4 -44 3 -4 12 -4 12 38 3 38 3 63 3 62 2 0 -14z"/>
<path d="M27 5122 l-8 -12 5 -63 5 -62 6 -80 6 -80 15 -120 14 -120 3 -25 2
-25 -39 3 -38 4 4 -14 5 -13 38 -3 38 -3 8 8 8 8 -20 160 -19 160 -6 105 -6
105 -7 40 -7 40 -7 -13z"/>
<path d="M3442 5120 l5 -15 16 -3 17 -3 0 12 0 12 -7 -6 -6 -7 -15 13 -15 12
5 -15z"/>
<path d="M68 5115 l-6 -10 5 -72 6 -73 6 4 6 4 2 -80 2 -80 15 -112 15 -111 5
-48 6 -49 -65 4 -65 3 0 -15 0 -15 59 -2 59 -2 17 12 16 13 -10 89 -11 90 -20
195 -21 195 -7 35 -8 35 -6 -10z"/>
<path d="M115 5083 l4 -38 6 -80 6 -80 15 -130 15 -130 8 -55 9 -55 6 -43 6
-43 -94 3 -94 3 1 -15 1 -15 98 -1 98 0 5 30 6 31 -16 80 -15 80 -10 95 -9 95
-11 110 -10 110 -6 43 -5 42 -10 0 -9 0 5 -37z"/>
<path d="M2388 5113 l13 -5 6 6 6 6 -19 -1 -19 -1 13 -5z"/>
<path d="M1653 5103 l27 -4 23 4 22 4 -50 0 -50 0 28 -4z"/>
<path d="M1738 5103 l13 -5 6 6 6 6 -19 -1 -19 -1 13 -5z"/>
<path d="M1868 5103 l12 -5 13 5 12 5 -25 0 -25 0 13 -5z"/>
<path d="M1 4851 l-1 -55 11 -89 12 -89 -13 -8 -13 -8 6 -16 6 -16 11 0 10 0
-1 68 -1 67 -13 100 -12 100 -2 -54z"/>
</g>
</svg>
