<?xml version="1.0" standalone="no"?>
<!DOCTYPE svg PUBLIC "-//W3C//DTD SVG 20010904//EN"
 "http://www.w3.org/TR/2001/REC-SVG-20010904/DTD/svg10.dtd">
<svg version="1.0" xmlns="http://www.w3.org/2000/svg"
   viewBox="0 0 342.000000 490.000000"
 preserveAspectRatio="xMidYMid meet">
<metadata>
Created by potrace 1.16, written by Peter Selinger 2001-2019
</metadata>
<g transform="translate(0.000000,490.000000) scale(0.100000,-0.100000)"
fill="#9E1A1A" stroke="none">
<path d="M3300 4893 l0 -8 -692 1 -693 2 35 -7 35 -6 -15 -6 -15 -6 -37 5 -38
4 6 9 5 9 -20 0 -21 0 3 -11 2 -12 -11 -4 -12 -4 -15 15 -15 15 -23 -4 -23 -5
-5 -9 -6 -9 -30 -5 -30 -4 54 -2 53 -1 -11 -13 -11 -14 8 -9 7 -8 -15 11 -15
11 -35 4 -35 3 -3 17 -3 17 28 4 28 5 -405 -4 -405 -4 -450 -6 -449 -5 -6 -5
-5 -6 0 -44 0 -44 -9 0 -8 0 7 -57 7 -58 3 -22 2 -22 -8 5 -9 5 0 -681 0 -681
8 5 8 5 0 -19 0 -19 -9 6 -10 6 6 -514 6 -514 4 -32 3 -33 -9 0 -8 0 6 -9 5
-10 0 -526 0 -526 11 7 11 6 -11 -20 -11 -21 10 -6 10 -6 -10 -18 -9 -18 6 -7
6 -6 -2 -65 -2 -65 7 -12 7 -11 -2 -73 -2 -74 12 0 13 0 -10 -10 -11 -11 4
-111 3 -111 11 -13 10 -12 -11 -7 -10 -6 6 -10 6 -10 2 -44 2 -43 -13 5 -13 5
0 -15 0 -15 6 -16 6 -16 7 4 6 4 0 -93 0 -93 -5 1 -5 2 0 -10 0 -10 17 1 17 0
-4 -6 -4 -6 37 -2 37 -1 45 -3 45 -3 11 8 12 8 -2 -17 -1 -17 14 -5 14 -5 -9
14 -8 14 17 -14 17 -13 16 6 15 6 -5 8 -5 8 24 2 24 2 10 -18 10 -17 1 11 0
12 20 5 20 5 0 -9 0 -10 20 11 20 11 -2 -12 -3 -13 55 -2 55 -3 14 12 15 12
-8 -12 -7 -13 45 0 46 0 0 13 0 12 8 -11 7 -11 50 1 50 1 -2 11 -2 10 62 -9
62 -10 193 -1 192 -1 -5 15 -6 14 7 -7 7 -7 16 12 16 12 -12 -14 -13 -14 0 -8
0 -8 18 0 18 0 12 12 12 12 0 -12 0 -12 111 0 110 0 20 10 19 11 0 -8 0 -8
108 1 107 0 12 2 13 2 -3 12 -2 12 23 2 22 1 -12 -15 -13 -15 32 5 32 4 -4 -5
-3 -6 131 0 132 0 13 8 12 8 0 -10 0 -11 133 0 132 0 38 9 37 9 0 -7 0 -7 137
-1 137 -2 8 12 8 12 0 -12 0 -11 276 -1 275 -2 -6 38 -6 38 0 81 -1 81 12 23
12 22 -6 32 -7 31 -3 32 -3 32 9 -5 8 -5 -5 38 -5 38 -5 515 -6 515 0 255 0
255 -7 77 -8 77 8 -6 9 -5 -6 54 -6 53 -5 320 -5 320 -3 75 -4 75 -6 280 -6
280 -1 35 -2 35 8 18 7 17 -10 13 -11 13 0 245 -1 244 -4 275 -5 275 0 58 -1
57 -20 0 -20 0 0 -7z m-1492 -38 l-6 -6 -6 18 -7 18 12 -12 13 -13 -6 -5z
m272 14 l0 -10 12 7 11 7 -7 -12 -7 -11 -11 6 -11 7 6 -17 7 -17 -10 6 -9 6
-26 -17 -25 -16 7 -11 6 -10 -10 6 -10 7 -27 -23 -26 -23 0 -12 0 -12 13 -1
12 -1 8 1 8 1 -5 -9 -6 -10 72 -58 73 -58 8 3 8 2 -5 -8 -6 -9 18 -15 17 -16
18 3 17 3 -6 -9 -5 -9 -10 5 -9 6 0 -10 0 -11 8 0 7 0 40 -50 40 -50 6 0 7 0
40 63 39 62 27 50 27 50 34 55 35 55 -6 15 -5 14 7 -7 7 -6 17 32 17 32 31 3
30 3 -2 -24 -1 -25 -6 4 -7 4 -6 -16 -6 -16 6 -9 5 -9 -9 2 -10 3 -46 -63 -47
-63 7 -11 7 -11 -10 6 -11 7 -56 -91 -56 -91 6 -9 5 -9 -13 2 -13 3 1 -17 2
-18 -9 6 -9 5 0 -10 0 -11 8 0 7 0 30 -27 30 -28 8 3 8 2 -5 -9 -6 -9 14 -11
13 -11 5 6 6 5 -1 -18 -2 -18 13 3 13 2 -6 -10 -6 -10 37 -44 37 -44 18 -5 17
-5 28 29 28 29 13 0 13 0 0 25 0 25 -70 71 -70 70 0 12 1 12 14 19 14 19 -6
10 -6 10 11 -7 11 -7 10 19 10 19 -7 8 -7 7 11 -4 10 -3 25 28 24 29 69 -56
68 -56 10 7 11 6 -7 -11 -6 -10 39 -31 38 -30 7 7 8 7 -4 -12 -3 -12 34 -25
34 -25 10 6 10 6 -7 -11 -7 -11 19 -10 19 -10 8 7 7 7 -4 -15 -3 -15 17 1 17
2 -2 -8 -2 -7 44 -37 44 -37 14 5 14 6 -6 -10 -6 -9 19 -10 19 -10 8 7 8 7 -6
-12 -7 -11 40 -32 40 -31 11 7 12 7 -7 -11 -7 -11 21 -11 20 -11 10 6 10 6 -2
-13 -3 -13 20 1 20 0 0 -54 0 -54 -40 -42 -40 -41 -98 -108 -99 -107 -13 0
-13 0 -6 17 -7 17 15 8 15 8 29 25 29 25 59 72 58 73 29 32 30 32 -64 61 -64
61 -50 33 -51 33 -42 49 -43 48 -74 -74 -74 -75 4 -13 5 -13 -9 5 -9 6 -37
-41 -36 -41 5 -14 6 -15 -8 5 -9 5 -79 -87 -79 -86 3 -11 4 -10 -8 8 -8 7 -22
-21 -23 -22 6 -10 6 -10 -10 6 -11 7 -102 -110 -101 -110 7 -12 7 -13 -8 8 -8
7 -19 -17 -18 -16 0 -14 0 -13 15 0 14 0 27 -47 27 -48 44 -72 44 -73 16 -15
15 -15 10 6 11 7 -7 -11 -6 -11 10 -6 10 -6 35 27 35 26 0 24 0 25 -55 91 -55
91 0 18 0 19 72 70 72 70 13 0 13 0 0 -8 0 -9 31 -46 31 -47 11 7 12 6 -7 -8
-7 -8 10 -19 10 -19 11 7 11 7 -7 -11 -7 -12 22 -29 22 -30 10 6 10 6 -6 -11
-7 -10 43 -54 43 -53 23 -33 23 -32 9 6 9 5 -2 -13 -3 -13 11 2 12 2 -2 -17
-1 -17 11 2 12 2 -2 -12 -1 -13 59 -67 59 -66 11 6 11 6 -7 -8 -7 -8 10 -19
10 -19 10 6 9 6 -2 -8 -2 -8 12 -23 13 -23 10 6 9 6 -2 -13 -3 -13 15 3 15 4
-8 -8 -7 -7 15 -23 15 -23 -11 -6 -10 -7 5 -15 6 -14 -10 6 -9 6 -77 -101 -77
-100 -7 0 -8 0 -61 108 -61 107 -14 18 -15 19 -18 -6 -19 -6 -32 -33 -33 -34
7 -16 6 -17 11 7 10 6 -7 -11 -6 -11 16 -35 17 -35 11 6 11 6 -7 -7 -7 -8 41
-77 42 -76 16 -27 17 -28 8 8 8 7 -7 -12 -7 -13 17 -35 16 -35 12 0 12 0 26
28 25 27 23 35 24 35 65 80 65 80 10 7 11 6 55 67 54 66 7 -18 6 -18 -5 -17
-4 -18 -28 -27 -27 -28 -58 -65 -58 -65 -32 -35 -31 -35 -17 -26 -17 -26 5 -6
5 -7 -6 5 -7 4 -28 -36 -29 -36 0 -19 0 -19 11 7 11 6 -11 -20 -11 -21 8 -5 8
-5 59 -100 60 -100 22 -10 23 -11 0 -10 0 -10 11 0 10 0 -6 10 -6 10 15 -6 15
-6 36 27 35 27 0 17 0 16 -49 48 -49 49 -23 44 -24 43 30 31 30 31 16 -20 17
-20 7 7 8 7 -7 -12 -6 -12 27 -28 28 -28 8 3 8 2 -5 -9 -6 -9 15 -12 15 -12 0
-20 0 -19 12 7 11 7 -8 -13 -8 -13 -2 -36 -2 -36 11 -14 11 -15 -12 8 -13 7 0
-15 0 -14 -63 -45 -63 -45 -13 -16 -13 -16 -7 0 -7 0 -51 77 -51 78 -42 70
-43 70 -153 262 -154 261 0 13 0 12 42 46 42 46 11 4 10 4 34 30 34 29 9 -16
9 -16 8 5 9 5 -2 -18 -1 -17 13 3 13 2 -6 -9 -6 -10 36 -48 36 -48 15 -17 14
-18 11 0 11 0 31 35 31 35 12 0 12 0 5 14 5 13 -21 24 -22 24 -29 39 -30 40
-61 65 -62 66 -6 18 -6 17 -9 0 -9 0 -38 -34 -38 -35 7 -18 7 -17 -7 7 -7 6
-28 -20 -29 -21 6 -9 5 -9 -9 2 -9 3 -102 -89 -101 -88 7 -12 6 -11 -8 7 -8 8
-69 -62 -69 -61 5 -14 6 -14 -10 6 -9 5 -48 -51 -48 -52 3 -11 4 -11 -8 7 -7
8 -13 -11 -14 -11 7 -11 6 -10 -11 7 -10 6 -51 -57 -51 -57 0 -8 0 -7 18 -10
19 -10 38 -60 37 -61 11 7 10 6 -6 -9 -6 -10 31 -44 30 -45 10 3 9 2 -5 -9 -6
-9 6 -17 6 -16 12 4 11 4 11 -16 12 -15 48 27 49 27 -3 11 -2 10 10 -6 11 -7
24 22 24 23 15 -12 15 -12 -2 -19 -1 -19 -8 5 -8 5 -96 -61 -96 -60 -8 0 -8 0
-91 137 -90 138 -103 150 -103 149 -46 56 -46 55 -12 23 -12 23 7 22 7 22 17
15 16 15 94 105 93 105 6 3 6 2 13 -21 13 -21 -13 -18 -13 -18 -79 -93 -78
-94 -12 -3 -11 -4 -13 -4 -13 -4 21 -30 22 -30 10 6 11 7 -7 -12 -7 -11 21
-30 22 -30 11 6 12 7 -7 -8 -7 -8 10 -19 10 -19 8 6 9 5 -2 -18 -1 -17 13 3
12 2 -2 -7 -3 -8 25 -40 24 -40 16 -12 15 -12 7 -1 7 0 32 48 32 47 56 65 56
65 86 85 86 85 133 125 133 125 11 4 11 4 28 20 28 19 10 25 9 24 -29 25 -29
24 -82 122 -83 123 -11 13 -12 13 -37 -36 -37 -36 0 -18 0 -18 21 -27 21 -26
10 6 11 7 -6 -10 -7 -10 50 -71 50 -71 0 -10 0 -9 -65 -57 -65 -57 7 -12 6
-11 -8 7 -8 7 -36 -30 -36 -30 -21 27 -22 27 -48 91 -47 91 -85 130 -85 130
-76 115 -76 115 -18 13 -18 14 28 47 28 47 50 72 50 72 12 5 13 4 -3 -12 -2
-12 15 3 15 4 -8 -8 -7 -7 17 -20 18 -20 -11 6 -12 7 -24 -33 -24 -32 -34 -55
-33 -55 1 -17 1 -17 39 -65 39 -65 7 7 7 6 -6 -15 -6 -15 37 -48 36 -47 7 3 7
3 130 145 129 145 85 89 85 90 34 30 34 30 67 81 67 80 17 28 18 27 -12 15
-12 15 -14 0 -13 0 -8 13 -8 12 -81 73 -82 72 -18 -1 -19 -1 -34 -39 -34 -40
24 -25 23 -25 13 5 13 5 -3 -7 -2 -7 39 -48 38 -47 -35 -42 -35 -43 -35 -37
-36 -38 -10 0 -11 0 -71 68 -72 67 -118 132 -118 133 -83 76 -83 76 -52 40
-53 40 0 7 0 6 61 45 61 45 27 12 26 12 -17 1 -18 0 0 10 0 10 30 0 30 0 0
-11z m50 0 l0 -10 10 6 10 6 0 -10 0 -11 34 0 35 0 6 -10 6 -10 -9 2 -9 3 -41
-36 -42 -37 0 -11 0 -11 51 -51 50 -50 26 -10 25 -9 15 11 14 12 -3 26 -3 26
19 -3 18 -3 -4 30 -4 31 14 -12 14 -12 24 29 24 30 6 38 7 37 8 6 9 5 0 -10 0
-11 14 0 14 0 6 -16 6 -15 -9 5 -9 6 -6 -16 -6 -16 7 -10 6 -11 -13 8 -13 8 5
-21 6 -22 -11 7 -10 6 5 -21 6 -22 -9 6 -9 5 0 -15 0 -15 -21 -6 -20 -7 5 -14
6 -15 -9 5 -8 5 -12 -25 -11 -25 6 -11 7 -11 -10 6 -11 7 -6 -16 -6 -16 7 -11
6 -12 -8 7 -8 8 -14 -20 -14 -20 7 -12 7 -11 -11 7 -11 6 -6 -10 -7 -11 -91
93 -92 93 -40 33 -40 33 12 5 12 5 41 30 42 31 -4 29 -5 29 9 0 8 0 0 -11z
m162 -2 l8 -12 9 13 8 14 6 -16 6 -16 26 0 25 0 0 -5 0 -5 -57 -85 -56 -86
-34 33 -33 32 0 9 0 8 36 34 36 34 -4 18 -3 18 -53 3 -52 3 0 8 0 7 62 2 62 2
8 -13z m83 3 l-6 -10 -10 0 -10 0 6 10 6 10 10 0 10 0 -6 -10z m115 0 l15 -10
-27 0 -28 0 0 10 0 10 13 0 12 0 15 -10z m100 -2 l0 -8 -34 0 -35 0 -6 10 -7
11 41 -2 41 -3 0 -8z m104 0 l-5 -8 -45 0 -45 0 5 8 5 9 45 0 45 0 -5 -9z
m176 4 l0 -8 -19 0 -20 0 5 8 5 8 15 0 14 0 0 -8z m70 -2 l0 -10 -4 0 -5 0 -6
10 -6 10 10 0 11 0 0 -10z m66 -12 l19 -23 -22 19 -23 19 -8 -23 -9 -24 -5 22
-6 22 8 -5 9 -5 6 10 6 10 3 0 3 0 19 -22z m-1362 -13 l-16 -24 7 -11 6 -10
-11 2 -12 3 -58 -84 -59 -85 5 -8 5 -8 -13 2 -13 3 1 -17 2 -18 -8 5 -7 4 -38
-39 -37 -38 7 -11 6 -11 -12 2 -12 3 -7 -26 -8 -26 39 -49 39 -49 10 3 10 2
-2 -12 -3 -13 13 3 13 2 -6 -10 -7 -11 17 -19 18 -20 10 7 10 6 -6 -11 -7 -10
31 -26 31 -26 9 6 9 5 -2 -13 -3 -13 13 3 12 2 -2 -9 -3 -9 23 -31 23 -31 13
0 13 0 41 44 42 45 0 10 0 9 11 4 11 4 -117 104 -118 105 -10 6 -10 7 14 17
14 16 60 66 60 66 -2 7 -2 7 37 -4 37 -3 12 -1 12 -2 -5 -9 -5 -8 28 -25 28
-24 9 -1 10 0 -30 33 -29 32 31 -28 30 -27 9 7 9 8 -12 -16 -13 -17 80 -68 79
-69 58 -50 58 -50 9 3 8 2 -5 -9 -6 -9 36 -31 37 -31 11 7 11 6 -8 -8 -7 -8
16 -18 17 -19 9 6 8 5 -2 -8 -3 -9 90 -92 90 -93 3 -9 3 -9 -32 -48 -33 -48
-34 -45 -34 -45 -38 -42 -38 -43 -6 0 -6 0 0 26 0 27 49 66 48 66 27 48 26 48
0 13 0 13 -48 44 -48 44 -43 35 -43 35 -33 28 -34 28 -28 -37 -28 -36 -68 -81
-68 -82 5 -17 4 -18 -7 5 -8 4 -39 -52 -39 -52 -43 -53 -43 -53 7 -11 7 -11
-11 7 -10 6 -39 -47 -38 -48 -13 -13 -12 -14 6 -10 7 -11 -11 6 -10 7 -54 -72
-55 -73 -17 -27 -18 -27 8 -12 7 -12 -10 6 -11 7 -12 -15 -12 -14 8 -12 7 -12
-11 7 -11 7 -16 -31 -16 -30 27 -35 26 -35 8 5 8 5 -2 -18 -1 -17 11 2 11 2 0
-12 0 -12 47 -67 48 -68 8 0 8 0 6 23 6 22 27 30 28 30 83 93 83 93 -5 8 -5 8
21 -1 22 -1 14 -35 14 -35 -8 8 -8 7 -32 -31 -33 -32 6 -10 6 -10 -10 6 -10 7
-98 -113 -98 -112 -7 -3 -7 -3 -79 84 -79 83 -101 119 -102 120 -83 91 -84 91
-40 56 -40 56 -17 6 -16 6 -6 16 -6 16 15 21 15 21 27 40 26 40 13 12 12 12
48 67 49 66 -2 9 -3 8 18 -6 17 -6 45 -36 45 -36 7 2 8 3 -3 -13 -2 -12 12 2
13 3 -3 -13 -2 -12 13 3 13 2 -5 -9 -6 -9 14 -11 13 -11 4 4 4 4 0 -28 0 -28
-4 3 -4 4 -19 -25 -20 -25 6 -15 6 -15 -9 5 -8 6 -17 -19 -17 -19 10 -7 11 -6
12 7 11 7 -7 -11 -7 -11 24 -16 24 -15 30 6 31 6 11 25 11 24 50 76 50 75 -8
15 -9 14 -25 17 -26 17 -79 75 -79 75 -75 62 -76 61 -79 -100 -79 -100 -9 -16
-10 -17 -30 -31 -31 -32 -33 -41 -33 -41 7 -12 7 -11 -10 6 -11 7 -35 -43 -36
-42 -45 -49 -45 -49 6 -10 6 -10 -10 6 -10 6 -23 -24 -22 -24 7 -12 8 -12 -10
6 -10 6 -33 -34 -32 -33 7 -13 8 -12 -11 7 -10 6 -61 -76 -61 -75 0 -9 0 -8
15 -6 15 -5 1 12 1 12 5 -13 5 -12 10 6 11 7 -7 -12 -8 -12 12 -14 12 -15 11
7 10 6 -7 -12 -7 -11 66 -85 66 -85 14 0 14 0 -4 -12 -4 -13 29 -34 30 -35 30
29 30 29 0 7 0 8 31 46 30 45 -3 17 -3 17 -75 64 -75 64 -27 25 -28 25 0 9 0
9 103 105 104 105 11 0 12 0 0 -11 0 -10 10 6 10 6 -2 -9 -3 -9 45 -58 45 -58
39 -44 38 -43 11 7 10 6 -8 -13 -8 -12 9 -7 9 -6 34 -40 34 -40 54 -58 54 -58
11 7 11 7 -7 -11 -7 -11 42 -45 42 -45 11 6 11 6 -8 -8 -7 -8 16 -18 17 -19
10 7 10 6 -6 -10 -7 -10 21 -24 21 -24 34 -41 34 -41 0 -8 0 -7 -31 -39 -30
-39 7 -11 7 -12 -10 6 -11 7 -12 -15 -12 -14 8 -13 7 -13 -8 7 -8 7 -35 -29
-35 -29 -90 95 -90 94 -9 0 -9 0 -44 -30 -44 -30 -6 -20 -6 -19 22 -30 22 -30
8 5 9 5 -5 -13 -5 -14 89 -88 90 -88 12 8 12 7 -7 -11 -7 -11 22 -12 22 -12
21 29 20 29 90 95 91 95 115 120 115 120 56 62 57 62 33 43 33 43 50 51 51 51
-55 102 -55 102 -28 35 -28 34 -18 0 -19 0 -64 -68 -64 -68 -28 -37 -28 -36 8
-12 7 -12 -10 6 -11 7 -26 -35 -27 -35 -14 0 -14 0 -5 8 -5 9 82 109 82 109
74 77 75 77 23 -40 23 -41 0 -9 0 -10 22 -29 21 -29 10 6 10 6 -7 -11 -7 -11
37 -55 37 -56 10 7 10 6 -6 -10 -7 -11 57 -83 56 -84 17 -22 17 -22 8 7 8 7
-7 -12 -7 -13 48 -72 49 -73 19 -37 20 -38 8 0 9 0 -32 -26 -31 -27 5 -13 5
-14 -9 3 -10 2 -77 -89 -78 -90 -10 -3 -10 -3 -16 28 -16 29 79 91 80 92 13 0
13 0 11 14 12 14 -22 44 -22 43 -72 95 -72 95 -6 18 -6 17 -9 0 -10 0 -28 -37
-28 -38 -36 -35 -36 -35 -46 -60 -46 -60 -41 -39 -40 -39 6 -10 6 -10 -10 6
-10 6 -152 -168 -152 -168 -35 -51 -34 -51 0 -9 0 -10 28 -18 27 -18 10 3 10
3 -7 -7 -7 -7 52 -62 53 -62 41 -37 40 -37 12 13 11 14 -6 5 -5 6 18 -1 18 -2
-3 13 -2 13 10 -6 10 -6 6 15 6 15 -66 87 -66 87 0 16 0 16 83 83 84 83 0 -13
0 -13 32 -48 33 -47 7 4 8 5 0 -12 0 -12 23 -37 22 -38 11 7 10 6 -7 -11 -7
-12 48 -64 48 -64 9 5 9 6 -6 -10 -6 -9 20 -33 19 -32 10 6 10 6 -5 -13 -5
-14 46 -62 46 -62 8 5 9 5 7 -11 7 -12 -11 7 -12 7 0 -6 0 -6 11 -20 10 -20
11 7 11 7 -6 -9 -5 -9 29 -43 29 -43 0 -8 0 -9 -50 -45 -49 -44 -71 -49 -70
-48 -13 13 -12 13 34 27 34 26 51 41 51 40 14 25 14 25 -54 81 -54 82 -12 0
-13 1 0 15 0 15 -6 0 -7 0 -33 -21 -34 -21 6 -10 7 -11 -11 7 -10 6 -79 -56
-78 -56 3 -10 2 -9 -10 6 -10 6 -54 -32 -55 -33 6 -10 6 -9 -9 6 -10 6 -129
-88 -130 -88 2 -10 2 -10 -12 0 -13 0 -27 -17 -27 -18 5 -8 5 -8 -16 2 -16 1
-12 -20 -11 -20 -8 -6 -8 -6 7 -16 6 -17 8 5 8 5 -1 -13 0 -12 1 -18 2 -18 10
6 10 6 -7 -17 -6 -17 13 8 13 8 -7 -12 -8 -12 26 -40 26 -39 18 0 17 0 32 31
33 30 -16 37 -16 37 -5 17 -5 16 31 17 32 16 -7 11 -7 11 12 -7 12 -8 47 39
47 39 15 9 15 8 -7 -8 -7 -7 73 -92 72 -91 56 -82 55 -83 8 8 8 7 -7 -12 -7
-12 29 -46 28 -45 9 7 8 8 -6 -12 -7 -11 6 -16 6 -16 11 7 10 6 -7 -11 -7 -11
26 -51 25 -50 12 0 11 0 -36 -27 -36 -28 4 -13 5 -13 -10 6 -10 6 -48 -38 -47
-39 -16 -12 -16 -12 -32 62 -31 63 -19 25 -20 25 -45 -25 -46 -25 0 -25 1 -25
38 -67 38 -68 8 8 8 7 -6 -12 -7 -11 20 -47 20 -47 0 -18 0 -18 16 -13 15 -13
32 35 32 35 85 65 85 64 36 25 36 25 116 84 117 83 -6 9 -5 9 13 -5 13 -5 70
49 70 50 12 11 12 10 6 0 6 0 43 30 44 29 6 16 6 16 -16 32 -17 31 -80 93 -80
93 -10 0 -10 0 -33 -21 -34 -21 4 -7 5 -8 -12 0 -12 0 -58 -37 -57 -37 -10 6
-10 6 0 14 0 13 16 6 15 6 -6 10 -6 10 8 -1 8 -1 14 1 13 1 -6 16 -6 15 10 -6
10 -6 66 51 67 50 6 0 7 0 39 -40 38 -39 9 5 8 5 -2 -13 -3 -13 17 1 17 2 -2
-12 -2 -11 13 3 13 2 -5 -9 -6 -10 21 -20 22 -20 9 5 8 5 -2 -13 -3 -13 12 2
13 3 -3 -13 -2 -12 15 3 15 4 -7 -8 -8 -7 11 -14 12 -13 16 12 16 13 -12 -16
-13 -16 33 -31 33 -32 8 7 7 7 -6 -15 -6 -15 53 -50 52 -49 11 3 10 4 -8 -8
-7 -8 36 -37 37 -38 10 6 10 6 -7 -11 -6 -10 29 -21 28 -20 7 7 8 7 -4 -15 -3
-15 13 3 13 2 -5 -9 -6 -9 50 -38 50 -38 -11 -7 -12 -7 8 -13 8 -14 -8 7 -8 7
-29 -17 -28 -17 4 -12 5 -12 -13 5 -12 5 -67 -62 -67 -61 7 -10 6 -11 -11 7
-10 6 -21 -26 -21 -27 -23 12 -23 12 -47 40 -47 41 0 7 0 7 33 34 32 35 19 22
19 22 -16 25 -16 24 -32 16 -32 16 -7 0 -7 0 -42 -36 -41 -36 6 -9 5 -9 -13 5
-13 4 -44 -39 -43 -40 6 -15 6 -16 12 7 13 7 -7 -8 -7 -8 30 -38 30 -39 42
-37 41 -38 57 -53 57 -53 5 -20 5 -19 -11 7 -11 6 -29 34 -29 33 -11 -7 -10
-6 7 11 7 11 -42 31 -42 30 -11 0 -11 0 -92 92 -92 92 47 44 47 45 22 14 23
15 -7 11 -6 10 11 -7 11 -7 50 36 50 36 -6 17 -7 17 38 -28 37 -29 14 -2 14
-2 8 -9 8 -8 -12 7 -13 7 0 -5 0 -4 33 -21 32 -21 18 -14 18 -14 -37 -58 -37
-59 -9 -3 -8 -4 0 -14 0 -14 36 -15 36 -15 17 0 16 0 25 38 25 37 32 43 33 43
15 15 15 15 0 10 0 9 -15 0 -14 0 -83 78 -83 77 -54 47 -54 47 -30 -4 -30 -4
-56 -37 -56 -38 -115 -87 -115 -87 -110 -70 -110 -70 3 -12 2 -11 -10 6 -11 7
-22 -20 -22 -19 -58 -37 -58 -36 7 -12 7 -11 -12 8 -12 7 -25 -23 -24 -22 0
-19 0 -18 23 -38 23 -37 7 -18 7 -18 9 6 10 5 7 -11 7 -12 -11 7 -12 7 0 -10
0 -10 11 -25 12 -25 10 6 10 6 -7 -12 -8 -12 27 -41 27 -40 19 5 19 5 -6 -9
-5 -9 7 0 8 0 57 38 58 37 1 12 0 12 -61 91 -60 92 3 3 3 3 60 38 60 37 53 41
54 40 19 -12 20 -13 11 7 11 7 -8 -13 -8 -13 17 6 17 7 -5 -9 -6 -9 15 -12 14
-12 11 7 10 6 -2 -13 -3 -13 12 2 13 3 -3 -13 -2 -12 13 3 13 2 -5 -9 -6 -9
34 -25 34 -26 6 7 7 6 -6 -16 -6 -16 27 -21 26 -21 11 7 10 6 -7 -11 -7 -11
17 -20 18 -20 8 5 8 5 -2 -13 -3 -13 15 3 15 4 -8 -8 -7 -7 16 -18 17 -19 9 6
8 5 -2 -13 -3 -13 12 2 13 3 -2 -8 -3 -7 34 -42 34 -42 10 6 10 6 -6 -10 -7
-11 14 -11 13 -11 7 8 8 7 -4 -15 -3 -15 13 3 13 2 -5 -9 -6 -10 27 -25 27
-25 7 5 8 4 6 -10 6 -10 -8 2 -8 2 -42 -28 -43 -28 7 -11 6 -10 -12 7 -12 8
-19 -17 -20 -18 6 -9 5 -8 -8 2 -8 2 -24 -13 -24 -14 -14 19 -13 18 0 8 0 8
70 51 70 51 -7 12 -8 13 -98 89 -99 89 -23 8 -23 8 -71 -57 -71 -56 7 -12 6
-11 -8 7 -7 7 -62 -51 -61 -52 2 -8 3 -8 -13 3 -12 2 3 -13 2 -13 -9 6 -10 6
-83 -74 -83 -75 3 -12 2 -11 -8 5 -8 5 -33 -30 -34 -29 -7 0 -7 0 -6 6 -6 6
42 40 42 40 32 25 33 25 -6 9 -5 9 8 -2 9 -3 37 30 37 30 138 124 137 123 23
9 22 9 0 14 0 15 -15 14 -15 15 -7 4 -8 3 -34 40 -34 40 -53 57 -53 58 -19 -8
-19 -7 -43 -39 -43 -39 10 -16 11 -16 12 3 11 2 -5 -8 -5 -8 55 -59 55 -60
-33 -28 -33 -28 3 -10 2 -10 -10 6 -10 6 -60 -47 -60 -47 7 -10 6 -10 -9 6 -9
5 -19 -13 -18 -14 8 -12 7 -12 -13 8 -12 8 -9 -14 -9 -14 -25 30 -25 30 0 8 0
8 -12 15 -13 16 -27 26 -26 27 -54 108 -54 108 -9 -8 -8 -8 6 10 5 11 -72 147
-73 147 -8 -8 -8 -7 7 12 7 12 -15 23 -15 23 -15 37 -15 36 57 47 57 48 -2 8
-3 8 14 -5 14 -5 15 21 15 22 7 -21 6 -21 39 -63 38 -62 11 2 10 3 -5 -14 -5
-13 15 -6 15 -6 45 35 46 35 0 18 0 17 -44 70 -43 69 -35 60 -34 60 -35 0 -34
0 2 -11 2 -12 -18 5 -18 4 -31 -26 -32 -27 7 -10 6 -11 -12 7 -12 8 -14 -12
-15 -12 5 -8 5 -8 -18 5 -18 4 -71 -58 -71 -58 -33 -27 -34 -27 -45 -31 -45
-31 -32 -21 -33 -20 7 -11 6 -10 -10 6 -10 6 -104 -65 -104 -65 2 -9 3 -9 -14
5 -13 5 -12 -14 -11 -15 10 -26 10 -27 12 7 11 7 -7 -11 -6 -11 11 -25 12 -25
10 6 10 6 -7 -11 -6 -11 42 -78 43 -78 14 -28 14 -27 24 0 23 0 0 10 0 10 116
86 117 86 8 -14 9 -13 -2 -20 -3 -20 -50 -33 -50 -33 2 -8 2 -8 -13 0 -13 0
-56 -37 -57 -38 7 -11 6 -10 -11 7 -11 7 -25 -16 -24 -16 -7 21 -6 20 -35 45
-34 45 0 8 0 8 -60 114 -61 115 -74 148 -75 149 0 3 0 3 48 28 47 27 45 36 45
36 5 6 5 6 48 27 47 28 0 6 0 5 -17 38 -16 38 -13 3 -13 3 42 29 42 30 -7 -8
-7 -8 35 -69 35 -69 11 6 10 6 -11 -20 -11 -21 -22 -15 -22 -16 -17 0 -16 0
-19 -21 -19 -22 -83 -65 -83 -65 10 -10 11 -11 0 -18 0 -18 10 0 10 0 0 -17 0
-18 20 -42 19 -43 18 0 18 0 209 158 209 157 43 29 43 30 -5 8 -5 8 13 -5 14
-5 54 39 55 40 52 38 53 38 5 18 6 17 -40 74 -41 74 -25 6 -24 6 -43 -22 -43
-21 -3 -3 -3 -2 26 -37 25 -38 0 -12 0 -13 -25 -16 -26 -17 5 -8 5 -8 -12 0
-12 0 -48 -33 -49 -32 -8 8 -8 9 -53 100 -52 100 -44 78 -44 77 -26 48 -26 47
-17 25 -16 25 -16 35 -16 35 -7 26 -6 26 72 66 71 67 7 0 6 0 43 -65 43 -66
10 6 9 6 -1 -8 -2 -8 7 -17 8 -18 9 0 9 0 40 40 40 40 15 0 15 0 0 11 0 11
-64 82 -64 81 -39 38 -39 37 -65 -31 -64 -32 -50 -46 -51 -46 -52 -41 -51 -41
7 -7 7 -8 -11 4 -12 3 -68 -55 -67 -55 -16 -15 -16 -15 -90 -74 -90 -74 -47
-29 -48 -30 0 -5 0 -5 29 -33 29 -34 8 7 7 7 -7 -12 -7 -13 24 -40 24 -40 5 6
6 5 -1 -18 -2 -18 13 3 13 2 -5 -9 -6 -9 17 -31 18 -31 11 0 12 0 13 19 14 19
107 81 108 80 -3 -12 -2 -12 11 2 12 2 -5 -20 -6 -20 -38 -31 -38 -31 6 -10 6
-10 -10 6 -11 7 -61 -45 -62 -46 7 -11 7 -11 -12 7 -12 8 -14 -12 -15 -12 5
-8 5 -8 -18 5 -18 4 -51 77 -51 77 -64 91 -63 91 -73 100 -72 100 0 12 0 13
74 87 74 87 18 14 18 15 -8 -13 -7 -12 15 -6 16 -6 0 -8 0 -8 -40 -48 -40 -49
5 -12 4 -13 -11 3 -10 2 -18 -30 -19 -30 0 -24 -1 -24 36 -44 36 -43 9 6 9 5
-2 -8 -2 -8 8 -22 7 -23 19 0 18 0 79 63 79 62 52 44 52 44 -7 10 -6 10 12 -7
11 -7 82 73 82 73 21 19 20 18 35 15 35 15 65 61 65 61 12 24 13 24 -33 25
-32 26 -92 96 -93 96 3 15 2 15 -25 3 -25 3 -32 -33 -31 -33 -4 -16 -3 -17 33
-41 33 -41 10 6 9 5 -2 -13 -3 -13 13 3 12 2 -2 -12 -3 -13 13 3 13 2 -5 -8
-6 -9 20 -23 20 -23 0 -9 0 -9 -30 -26 -30 -25 7 -11 6 -12 -8 7 -7 7 -35 -26
-34 -26 -36 19 -35 19 -100 93 -100 93 -57 42 -56 41 -98 97 -99 97 13 24 12
23 48 72 49 72 11 7 12 7 -7 -11 -6 -10 67 -56 67 -56 12 0 11 0 37 47 36 46
0 17 0 16 -105 104 -105 103 0 13 0 14 -18 0 -17 0 -28 -46 -27 -45 6 -11 7
-11 -11 7 -11 6 -52 -77 -52 -78 -34 -44 -34 -45 6 -13 5 -14 -9 6 -9 5 -21
-27 -20 -28 -1 45 0 45 29 35 28 35 18 35 17 35 75 112 75 112 -33 33 -34 33
-35 45 -35 45 -46 46 -46 47 -7 116 -7 116 15 0 14 0 66 110 67 111 -6 10 -6
9 9 -2 10 -3 41 63 41 63 0 12 1 12 10 -18 10 -17 10 6 9 5 -1 -8 -1 -8 1 -14
1 -13 16 6 15 6 -5 -9 -6 -9 46 -41 46 -41 9 6 9 5 -2 -13 -3 -13 13 3 13 2
-6 -9 -6 -10 21 -21 20 -20 0 -6 0 -6 -14 11 -14 12 -21 -27 -22 -28 6 -13 5
-14 -9 5 -8 6 -37 -60 -37 -60 -10 0 -9 0 0 -11 0 -10 30 -38 31 -38 27 5 27
5 18 15 17 15 0 12 0 13 15 6 15 5 0 16 0 15 15 0 15 0 0 20 0 20 15 0 15 0 0
20 0 20 16 0 15 0 -6 10 -6 9 20 18 20 17 -5 7 -5 8 25 7 25 6 4 12 5 13 -66
69 -67 69 -102 92 -102 92 -58 53 -57 53 -73 73 -73 73 -10 -6 -10 -6 4 -8 5
-7 -20 -1 -19 -2 5 8 5 9 1 178 1 179 -7 16 -6 16 20 6 21 5 -6 -10 -7 -11 49
8 49 7 19 10 18 10 -7 -13 -8 -12 94 8 94 7 134 4 134 4 -28 -25 -27 -26 6
-14 5 -15 -12 3 -12 2 1 -18 2 -18 -6 5 -5 6 -14 -20 -14 -20 7 -13 7 -12 -8
7 -8 8 -24 -35 -24 -35 7 -12 7 -11 -10 6 -9 6 -18 -30 -17 -29 6 -10 6 -10
-13 2 -13 3 1 -17 2 -18 -8 5 -7 4 -12 -25 -11 -25 6 -11 7 -11 -11 7 -10 6
-9 -26 -9 -26 -35 43 -36 44 -27 41 -27 42 15 36 15 36 14 0 15 0 -2 -25 -1
-25 -7 0 -8 0 0 -24 0 -24 13 -9 12 -10 37 -7 38 -7 0 26 0 25 11 0 11 0 -6
16 -6 15 9 -5 9 -6 27 53 28 52 28 36 29 37 0 16 0 16 -72 1 -73 1 -7 -1 -7
-1 -25 10 -25 9 -6 -10 -7 -10 -11 2 -12 1 -45 -1 -45 -1 -12 -26 -12 -27 6
-11 6 -11 -8 7 -8 8 -19 -41 -18 -41 7 -11 6 -10 -11 7 -12 7 -2 -23 -1 -23 0
-12 1 -13 -8 5 -8 5 -4 -29 -4 -28 5 -16 6 -15 42 -47 43 -46 12 7 11 7 -7
-11 -6 -10 66 -59 66 -58 10 3 9 2 -5 -9 -6 -9 44 -37 45 -37 12 8 12 7 -8
-12 -7 -13 53 -46 53 -47 9 3 8 2 -6 -10 -6 -10 65 -66 64 -66 14 7 13 8 -7
-8 -8 -8 11 -14 11 -13 19 0 19 0 0 11 0 11 20 25 20 25 -7 11 -6 10 11 -7 11
-6 100 121 101 121 -7 11 -6 12 8 -7 7 -7 14 14 14 14 0 5 0 5 -72 71 -73 70
-10 0 -11 0 -12 -12 -12 -12 0 -27 0 -28 -11 -6 -10 -7 6 -16 6 -16 -7 7 -8 8
-18 -37 -18 -37 7 -11 6 -11 -8 7 -8 7 -39 -49 -40 -50 -9 0 -9 0 -7 0 -8 0 0
10 0 9 -61 68 -61 68 -26 30 -25 31 1 26 2 26 7 -4 7 -4 5 18 6 18 95 160 95
159 -4 11 -4 11 16 0 17 1 53 -14 53 -15 11 7 11 7 -6 -10 -7 -11 30 -12 29
-12 11 7 10 6 -2 -13 -3 -13 22 -3 22 -3 11 21 11 20 -7 13 -7 12 8 -8 9 -8
18 38 19 38 -11 3 -10 4 0 9 0 9 39 0 39 0 -5 -22 -6 -23 -10 -12 -9 -13 5
-19 5 -20 -12 5 -11 4 -13 -40 -12 -41 5 -10 6 -9 12 6 12 7 -7 -8 -8 -8 11
-13 11 -14 11 7 10 6 -7 -11 -7 -12 117 -115 117 -114 10 6 10 6 -7 -11 -7
-11 19 -10 19 -10 8 7 7 7 -4 -15 -3 -15 13 3 12 2 -2 -12 -3 -13 13 3 13 2
-6 -10 -7 -11 98 -99 97 -99 10 6 10 6 -7 -11 -7 -11 56 -56 55 -55 15 0 15 0
0 10 0 10 -2 3 -3 4 54 59 54 59 36 48 35 47 7 0 7 0 22 35 21 35 -6 10 -7 11
-17 -6 -18 -5 -69 61 -69 61 -27 21 -28 21 0 12 0 13 21 6 21 7 26 -25 27 -24
26 -17 26 -16 8 7 8 8 -6 -11 -7 -12 15 -12 14 -12 11 7 10 6 -2 -13 -3 -13
13 3 13 2 -5 -9 -6 -9 44 -35 43 -36 7 7 7 6 -7 -19 -7 -20 -14 -17 -15 -17 8
-12 7 -12 -10 6 -10 6 -69 -91 -69 -92 -19 -17 -18 -17 7 -13 8 -12 -10 6 -10
6 -28 -29 -27 -28 7 -13 8 -12 -11 6 -10 7 -36 -50 -37 -51 7 -11 7 -11 -10 6
-10 7 -18 -20 -17 -19 8 -12 7 -12 -10 6 -10 7 -18 -20 -17 -19 8 -12 7 -12
-10 6 -11 7 -71 -96 -71 -96 7 -11 6 -10 -10 6 -11 7 -16 -25 -17 -26 6 -8 5
-9 -16 2 -15 2 -18 28 -19 28 -68 75 -69 76 -10 11 -11 11 -38 43 -39 43 14
27 13 27 49 63 49 62 4 0 5 0 -6 -9 -5 -10 10 -6 10 -6 11 -22 12 -22 -8 7 -8
8 -24 -32 -23 -32 5 -14 5 -13 -10 6 -10 6 -11 -25 -12 -25 13 -16 12 -15 9 6
9 5 -2 -13 -3 -13 12 2 13 3 -3 -13 -2 -12 13 3 13 2 -5 -9 -6 -10 26 -28 26
-28 9 2 9 3 -3 -13 -2 -12 12 2 13 3 -3 -13 -2 -12 11 2 11 2 -4 -23 -5 -23
18 -7 17 -7 7 8 7 8 85 110 85 110 51 77 52 77 10 6 10 6 0 8 0 9 -132 107
-133 107 -232 231 -233 231 0 8 0 8 -11 0 -12 0 -53 35 -52 35 -16 0 -15 0 -6
10 -6 10 -20 -11 -21 -11 6 -14 6 -15 -9 6 -10 5 -46 -60 -46 -60 7 -12 7 -11
-9 6 -10 6 -33 -55 -32 -54 6 -10 6 -10 -12 2 -12 3 -10 -33 -10 -34 61 -59
62 -59 8 0 7 1 16 12 16 12 6 27 7 26 50 87 50 87 15 21 15 21 0 -18 0 -18 15
6 15 5 -3 -12 -2 -12 13 3 13 2 -5 -9 -6 -9 26 -17 25 -16 36 -37 35 -37 26
-35 27 -35 10 -7 10 -8 -12 0 -12 0 -5 -17 -6 -18 -90 -95 -90 -95 0 -12 0
-12 -13 -8 -12 -8 -25 -36 -25 -37 -78 -91 -77 -92 6 -11 7 -11 -11 7 -11 6
-73 -86 -73 -86 1 -14 2 -13 -9 2 -9 2 -33 -39 -33 -39 -71 88 -71 87 -5 19
-5 19 9 -6 9 -5 7 18 7 18 17 18 16 18 19 36 19 36 21 24 22 23 -57 56 -56 55
-23 -27 -23 -26 6 -16 6 -16 -7 7 -8 7 -30 -47 -29 -48 0 -28 0 -28 -7 10 -6
11 -33 -55 -33 -55 6 -15 6 -16 -9 6 -10 5 -7 -11 -6 -11 63 -64 63 -63 15 11
16 12 -12 -14 -13 -14 53 -50 52 -51 8 3 8 2 -5 -9 -6 -9 114 -119 113 -118
33 -37 32 -38 9 6 9 5 -2 -13 -3 -13 12 2 12 3 -6 -17 -6 -16 17 6 17 7 -6
-10 -6 -10 27 -25 28 -26 13 6 14 5 -6 -10 -6 -10 23 0 23 0 90 102 90 102 32
36 32 37 -78 95 -78 94 -34 27 -33 26 17 19 17 19 -5 5 -5 5 17 0 18 0 27 -25
28 -25 26 -39 26 -38 8 5 8 5 -2 -18 -1 -17 13 3 13 2 -6 -10 -7 -11 12 -14
12 -15 8 5 8 5 -2 -18 -1 -17 11 2 12 2 -2 -17 -1 -17 13 3 13 2 -6 -10 -6
-10 10 -19 11 -19 -15 -12 -15 -12 7 -11 6 -10 -10 6 -11 7 -35 -39 -35 -39
-11 -20 -10 -19 4 -7 5 -6 -7 5 -7 5 -42 -41 -43 -42 5 -9 5 -8 -9 2 -9 3
-134 -125 -134 -125 3 -10 4 -10 -8 7 -7 8 -54 -51 -54 -51 -27 23 -27 24 -44
42 -45 42 14 16 13 16 23 -22 23 -21 12 7 12 8 -6 -10 -6 -10 29 -28 29 -28
14 14 14 14 68 60 69 60 34 31 34 31 -3 16 -4 15 -210 219 -210 219 -74 79
-74 79 -20 28 -21 28 -12 0 -12 0 -6 -16 -6 -15 103 -107 102 -107 10 3 10 4
-8 -8 -7 -7 16 -18 17 -19 10 7 10 6 -6 -16 -6 -16 35 -31 35 -30 9 5 10 6 -7
-17 -6 -17 17 6 17 7 -6 -10 -6 -9 72 -75 72 -75 10 6 10 6 -6 -10 -6 -10 41
-44 42 -44 8 2 7 3 -6 -18 -6 -17 -41 -38 -41 -38 -42 -36 -43 -35 -22 15 -23
16 -16 13 -16 13 -12 23 -12 22 -13 0 -14 0 -40 -54 -41 -54 100 -96 100 -96
3 0 3 0 94 93 94 92 187 180 188 179 0 15 0 15 52 53 51 52 -46 68 -46 68 -36
53 -37 53 -55 52 -54 52 -17 -3 -17 -4 -17 -15 -18 -16 7 -10 6 -10 -11 7 -10
6 -22 -30 -22 -31 12 -14 12 -15 12 7 11 6 -7 -8 -8 -8 11 -13 11 -14 8 5 7 4
32 -39 32 -40 10 6 9 5 -2 -13 -3 -13 12 2 13 3 -3 -8 -2 -8 32 -36 31 -37 8
7 7 7 -16 -24 -16 -25 -97 -103 -96 -103 -6 0 -7 0 -30 28 -30 29 -44 51 -44
51 -10 -6 -10 -6 6 9 6 10 -67 71 -67 72 -69 73 -70 73 -88 92 -89 91 7 29 7
28 14 13 13 14 16 29 15 30 -7 11 -7 11 10 -6 10 -6 26 48 27 48 15 13 14 12
16 -15 15 -16 0 -15 0 -15 -11 -6 -10 -7 5 -15 6 -14 -9 5 -8 6 -47 -70 -46
-70 0 -11 0 -10 30 -42 29 -42 32 -35 31 -35 8 2 8 2 -2 -17 -1 -17 15 0 15 0
5 -24 5 -24 12 -4 11 -4 69 87 68 87 70 81 70 81 35 45 35 45 74 90 74 90 8 3
8 3 100 115 101 114 0 20 0 19 -59 73 -59 74 -49 43 -48 42 -26 23 -25 24 -17
-10 -17 -9 6 -12 7 -12 -13 12 -13 12 -24 -34 -24 -35 7 -13 7 -12 -8 7 -8 8
-14 -20 -14 -20 7 -13 7 -12 -8 7 -8 8 -14 -20 -14 -20 7 -12 7 -11 -12 7 -11
7 -6 -31 -7 -30 -7 -5 -7 -4 -32 34 -32 34 17 33 17 33 53 80 52 80 25 30 26
30 21 -13 21 -13 11 7 11 7 -7 -11 -6 -10 46 -26 46 -26 12 7 11 6 -8 -8 -7
-8 16 -18 17 -19 9 6 8 5 -2 -13 -3 -13 13 3 12 2 -2 -12 -3 -13 13 3 12 2 -2
-12 -3 -13 15 3 15 4 -7 -8 -8 -7 11 -13 11 -14 12 7 11 6 -8 -8 -7 -9 36 -37
37 -38 11 6 11 6 -8 -8 -7 -9 46 -47 47 -48 9 5 8 5 -2 -13 -3 -13 13 3 13 2
-5 -9 -6 -9 14 -11 13 -11 7 8 8 7 -4 -15 -3 -15 13 3 13 2 -5 -8 -5 -9 37
-34 37 -34 94 -75 94 -75 11 3 11 4 -8 -8 -7 -7 17 -19 16 -18 -22 -30 -22
-30 7 -12 7 -11 -10 6 -11 7 -16 -25 -17 -26 7 -11 7 -11 -10 6 -11 7 -12 -15
-12 -14 8 -12 7 -12 -11 7 -10 6 -24 -32 -23 -33 -15 -19 -15 -19 -27 -31 -28
-31 -74 80 -75 80 -1 11 0 12 41 61 40 60 -18 25 -18 24 -34 22 -35 23 -15
-11 -16 -10 1 -16 2 -16 -8 5 -8 5 -12 -15 -12 -14 7 -11 6 -10 -13 2 -13 3 1
-17 2 -18 -7 5 -8 4 -27 -44 -28 -44 -14 -5 -14 -5 0 -12 0 -11 17 6 17 7 -7
-7 -7 -7 16 -18 17 -19 10 7 10 6 -6 -10 -6 -10 35 -42 36 -41 10 6 11 7 -7
-11 -7 -11 52 -55 52 -55 9 5 8 5 -2 -13 -3 -13 13 3 13 2 -6 -9 -6 -10 31
-42 30 -42 0 -14 0 -13 14 0 14 0 48 68 48 67 94 125 95 125 0 12 0 12 8 -5 8
-5 24 38 24 38 37 45 38 45 40 47 40 47 12 19 11 19 50 68 50 68 -3 9 -2 9 8
-5 9 -5 20 22 21 22 6 21 6 21 -62 49 -63 49 -54 38 -54 38 -14 15 -14 14 -10
1 -9 2 -9 1 -9 1 -9 9 -8 9 13 -7 12 -7 0 9 0 9 -19 17 -18 16 -15 -5 -14 -6
-37 -44 -37 -44 0 -10 0 -11 15 0 15 0 79 -70 80 -70 6 0 6 0 -7 12 -7 11 12
-7 11 -7 -5 -9 -5 -8 15 -12 15 -12 0 -14 0 -14 -8 0 -9 0 -49 -62 -49 -63 3
-8 2 -7 -8 2 -8 3 -31 -34 -32 -34 -78 84 -79 84 -49 53 -48 52 -174 173 -175
172 -8 15 -8 16 11 37 12 37 7 0 6 0 8 33 8 32 -2 8 -2 7 45 0 45 0 0 -11 0
-10 12 7 11 7 -7 -12 -7 -11 -9 5 -8 5 -21 -26 -20 -25 6 -15 5 -14 12 0 11
-1 -17 -10 -17 -10 32 -44 32 -44 25 -34 25 -35 9 6 9 5 -7 -12 -8 -12 12 -14
12 -15 9 6 9 5 -2 -12 -3 -11 12 -5 12 -4 71 96 71 96 43 72 42 72 7 18 6 17
46 0 45 0 -16 -25z m1574 14 l-17 -10 -21 -46 -21 -47 6 -13 5 -14 -9 5 -9 6
-6 -16 -6 -16 7 -10 6 -11 -10 6 -11 7 -6 -26 -7 -25 7 -11 7 -11 -11 7 -11 6
-6 -20 -7 -21 14 -17 13 -17 -17 13 -17 13 -16 -53 -16 -53 -6 -42 -6 -42 32
4 31 4 -5 -9 -6 -9 96 -76 95 -76 8 5 7 4 0 -27 0 -28 -12 0 -12 0 4 8 5 7
-18 8 -17 7 -8 -2 -8 -1 5 8 5 8 -72 49 -72 49 -115 77 -116 78 -84 72 -85 72
-22 14 -23 15 0 19 0 18 10 6 10 6 0 23 0 22 -10 10 -11 11 15 0 15 0 -5 -9
-5 -8 9 0 9 0 13 25 13 25 11 1 11 1 114 0 113 0 12 -13 11 -12 -12 7 -11 6
-7 -28 -6 -29 -82 13 -82 14 -24 0 -23 0 6 -15 5 -15 -12 3 -12 2 0 -35 0 -35
12 2 13 3 -3 -13 -2 -12 17 1 18 2 -5 -8 -4 -7 24 -23 24 -22 13 8 13 7 -8 -8
-7 -9 36 -37 37 -38 11 6 11 6 -8 -8 -7 -9 32 -33 32 -33 13 0 13 0 0 14 0 14
31 89 31 88 1 17 1 17 5 -5 5 -5 28 73 28 73 0 12 0 13 -15 0 -15 0 -10 -26
-10 -25 0 -5 0 -5 13 7 12 7 -8 -9 -9 -9 -11 0 -12 0 0 -20 0 -20 -13 -14 -13
-14 5 -14 6 -14 -10 6 -10 6 -2 -18 -1 -18 0 -12 1 -13 -7 5 -8 4 -17 -55 -17
-54 7 -12 7 -11 -11 7 -12 7 0 -12 0 -12 -77 74 -78 74 -33 25 -32 25 8 13 9
13 23 -9 23 -9 38 7 38 7 -4 -7 -5 -8 16 -6 16 -6 33 0 33 0 12 15 12 14 -8
12 -7 12 11 -7 11 -7 6 33 6 33 4 20 3 20 1 13 1 12 98 0 97 -1 -17 -10z m61
1 l17 8 -2 -86 -1 -87 -2 -9 -1 -9 -20 18 -20 18 -15 -13 -16 -13 4 -11 4 -11
-14 -14 -14 -14 5 -14 6 -14 -12 7 -11 7 5 -21 6 -21 -12 2 -11 2 1 -22 0 -22
-9 6 -10 6 5 -21 6 -22 -9 6 -9 5 0 -22 0 -21 20 5 20 5 -6 -9 -5 -9 8 0 9 0
14 13 14 12 -12 -16 -11 -15 49 -49 50 -49 0 -43 0 -42 -23 22 -22 22 -82 69
-81 69 33 91 33 91 37 90 37 90 5 23 6 23 10 -10 10 -10 16 9z m-2062 -6 l-6
-6 -13 5 -13 5 19 1 19 1 -6 -6z m63 -18 l0 -24 -15 -12 -15 -12 0 -33 0 -33
13 -11 14 -11 6 6 6 6 -5 -20 -6 -19 15 -6 14 -5 24 12 24 13 -3 12 -2 12 9
-5 9 -6 31 37 30 36 -6 10 -6 10 10 -6 11 -7 12 15 12 15 -10 13 -11 13 7 9 7
10 13 3 12 2 0 -9 0 -9 -12 -5 -13 -5 21 -1 21 -1 -1 -29 -1 -29 -5 3 -6 4
-11 -7 -10 -7 -17 -33 -17 -33 7 -11 7 -11 -10 6 -11 7 -26 -35 -27 -35 7 -12
7 -11 -10 6 -11 7 -12 -15 -12 -14 8 -12 7 -12 -13 8 -13 8 5 -15 6 -15 -14 0
-13 0 4 8 5 7 -6 17 -7 16 -14 -5 -14 -6 6 20 6 20 -15 0 -16 0 0 10 0 10 -30
42 -30 41 0 11 0 11 22 35 22 35 -3 23 -2 22 20 0 21 0 0 -24z m250 16 l0 -8
-20 -1 -20 -2 5 10 6 9 15 0 14 0 0 -8z m415 -10 l5 -13 -11 6 -10 7 -19 -17
-20 -18 5 -7 5 -8 -17 2 -16 1 -21 -38 -20 -37 20 -14 19 -14 40 -30 40 -30
15 11 15 12 -13 -17 -13 -16 22 -16 22 -15 10 6 10 6 -7 -12 -7 -11 32 -28 33
-27 11 3 10 4 -7 -8 -8 -7 62 -63 62 -63 9 6 10 6 -7 -12 -8 -12 17 -19 18
-20 10 7 10 6 -7 -11 -7 -11 102 -105 101 -106 11 7 10 6 -6 -10 -7 -11 15
-12 14 -12 12 8 12 7 -7 -11 -6 -11 22 -15 22 -16 13 0 14 0 36 33 36 32 58
73 59 73 0 13 0 13 -39 26 -39 26 -26 34 -26 34 0 11 0 10 12 4 12 4 29 -28
30 -28 10 7 10 6 -6 -10 -7 -11 15 -12 14 -12 13 8 13 7 -8 -8 -7 -9 27 -28
28 -29 0 -24 1 -24 -7 5 -7 4 -56 -71 -57 -70 7 -12 7 -12 -8 8 -9 8 -52 -52
-53 -52 6 -11 6 -11 -8 7 -8 7 -16 -12 -17 -12 -78 -88 -77 -87 7 -12 7 -11
-10 6 -11 7 -68 -76 -69 -76 -3 -9 -4 -9 -10 0 -10 0 -22 27 -21 27 -36 64
-37 65 69 102 69 103 0 9 0 10 -22 20 -23 21 -39 26 -38 26 -34 -43 -34 -42 5
-13 5 -13 -9 5 -8 6 -42 -60 -42 -60 6 -10 6 -10 -13 2 -13 3 1 -17 2 -18 -9
6 -9 5 0 -5 0 -4 -7 -18 -6 -17 10 6 11 7 -2 -18 -1 -17 11 2 12 2 -2 -17 -1
-17 12 2 13 3 -1 -8 -1 -7 1 -11 1 -10 41 -55 41 -54 9 2 9 3 -1 -8 -1 -7 1
-13 1 -13 8 5 9 5 0 -12 0 -13 17 -27 18 -27 9 6 9 5 -5 -13 -5 -13 41 -63 41
-62 8 5 8 5 -2 -18 -1 -17 13 3 13 2 -6 -9 -5 -10 48 -83 49 -83 41 -70 42
-70 15 -20 15 -19 68 66 67 65 45 41 45 41 25 20 25 20 -28 23 -28 23 -59 90
-58 90 10 13 10 12 13 0 13 0 32 -50 32 -50 11 7 10 6 -7 -11 -7 -11 18 -28
17 -28 30 -37 29 -37 6 3 6 4 0 -23 0 -23 -4 4 -4 3 -50 -42 -51 -42 -68 -64
-68 -63 7 -12 6 -11 -8 7 -8 7 -83 -75 -84 -76 7 -12 6 -11 -8 7 -8 7 -59 -59
-59 -60 6 -10 6 -10 -13 4 -13 5 -58 -69 -58 -70 7 -12 7 -13 -11 10 -11 10
-80 109 -81 110 13 15 13 16 93 108 94 108 -12 22 -12 22 -28 34 -29 35 -27
-18 -27 -17 6 -15 6 -15 -9 6 -9 5 -56 -62 -56 -63 5 -13 5 -13 -8 5 -9 5 -38
-39 -37 -38 7 -13 8 -12 -11 7 -10 6 -21 -26 -21 -27 0 -16 0 -17 33 -32 33
-32 9 7 8 8 -6 -11 -6 -11 15 -22 15 -21 11 6 11 7 -7 -11 -7 -12 22 -29 22
-30 10 6 10 6 -7 -11 -7 -11 17 -26 16 -25 11 7 10 6 -6 -9 -6 -10 119 -174
118 -175 11 2 10 3 -5 -13 -5 -13 34 -45 33 -44 17 -27 17 -28 19 0 19 0 51
33 51 34 -6 5 -5 6 13 -1 13 -2 117 75 117 75 1 6 0 5 -70 126 -70 126 0 9 1
8 13 17 13 17 47 -84 48 -85 9 6 9 5 -6 -15 -6 -14 16 -24 15 -23 15 -42 15
-42 -15 -11 -14 -12 7 -11 6 -10 -9 6 -9 5 -115 -73 -115 -74 3 -11 2 -11 -9
6 -10 6 -78 -50 -78 -49 3 -12 2 -11 -9 6 -10 6 -55 -37 -56 -37 7 -10 6 -10
-13 8 -12 8 -7 -10 -6 -9 -50 -34 -50 -34 -57 -50 -57 -50 6 -9 6 -10 -15 9
-15 9 -52 67 -51 67 0 7 0 6 68 64 69 63 23 19 23 19 -23 41 -24 42 -12 0 -12
0 -93 -71 -93 -71 -38 -25 -38 -25 7 -11 6 -10 -10 6 -11 7 -11 -14 -11 -13
21 -27 21 -26 11 7 12 6 -7 -8 -7 -8 20 -28 21 -29 11 6 12 7 -7 -8 -7 -8 10
-19 10 -19 11 7 11 7 -6 -9 -6 -10 31 -44 30 -45 8 2 8 2 -2 -17 -1 -17 13 3
13 2 -5 -9 -6 -9 31 -51 32 -51 10 7 10 6 -7 -12 -7 -11 34 -55 34 -55 7 7 7
7 -6 -15 -6 -16 34 -41 35 -41 7 7 8 7 -7 -12 -7 -12 13 -21 13 -20 11 0 12 0
56 36 56 37 -6 8 -5 9 13 -5 13 -4 55 40 55 39 47 33 47 32 6 14 6 14 -26 39
-26 39 -16 6 -16 6 -26 -15 -26 -15 3 -14 4 -14 -7 7 -8 7 -19 -10 -19 -10 7
-11 7 -11 -10 6 -11 7 -60 -45 -60 -45 -8 0 -9 0 -62 87 -61 87 13 26 13 25
51 43 50 42 154 103 154 102 87 50 87 50 93 58 94 57 9 0 8 0 25 -44 24 -45 7
5 8 4 7 -11 7 -12 -11 7 -12 7 0 -10 0 -10 9 -5 9 -6 11 -30 10 -31 -10 7 -10
6 -14 -12 -15 -12 7 -11 6 -10 -12 7 -12 8 -14 -12 -15 -12 7 -11 6 -10 -11 7
-12 7 -40 -32 -39 -32 5 -8 5 -9 -15 6 -16 6 0 -14 0 -14 20 -17 20 -17 0 -20
0 -20 18 0 17 0 42 24 42 24 68 55 68 54 33 17 32 17 0 10 0 11 -19 26 -18 27
-28 54 -27 55 -14 39 -14 39 -84 141 -84 142 -101 171 -101 172 0 9 0 9 -14
19 -13 19 -84 -75 -84 -74 -70 -79 -70 -79 3 -9 2 -9 -9 5 -10 6 -5 -9 -6 -8
21 -19 21 -18 35 -63 35 -63 8 5 9 5 7 -12 7 -13 -7 7 -8 6 -24 -20 -23 -21 6
-11 6 -11 -23 20 -23 20 -58 87 -59 87 65 69 65 69 -8 7 -7 8 11 -4 11 -3 104
105 104 105 130 114 130 114 33 29 34 30 43 -42 43 -42 10 6 10 6 -2 -18 -1
-17 15 3 15 4 -7 -7 -7 -7 40 -51 40 -50 -25 -26 -25 -25 -4 5 -4 4 -44 60
-44 60 -24 35 -23 35 -3 3 -3 4 -23 -13 -23 -12 -48 -45 -48 -44 7 -11 6 -10
-10 6 -10 6 -47 -48 -47 -48 17 -36 17 -36 9 5 8 5 -1 -8 -1 -8 1 -13 1 -13
12 7 11 7 -7 -12 -7 -11 23 -38 23 -37 22 -40 22 -40 11 3 11 2 -4 -7 -5 -8
18 -32 17 -32 8 7 8 7 -6 -11 -7 -12 19 -23 18 -24 33 -60 33 -60 43 -70 43
-70 10 2 10 3 -6 -17 -6 -16 13 8 13 8 -7 -11 -7 -12 11 -20 11 -21 11 7 11 7
-7 -11 -7 -11 17 -26 16 -25 11 7 10 6 -7 -11 -7 -12 24 -35 24 -35 8 8 8 7
-7 -12 -7 -13 11 -20 11 -20 10 0 9 0 10 24 9 24 73 59 73 60 -4 -41 -3 -41
-14 -8 -14 -8 6 -11 7 -11 -12 7 -12 8 -97 -74 -97 -73 -61 -40 -61 -40 -39
-27 -39 -26 -40 -36 -40 -36 -7 0 -8 0 0 -13 0 -14 -75 74 -75 73 0 9 0 9 104
78 105 77 -18 26 -18 26 -6 18 -7 19 -31 -7 -30 -7 -73 -48 -72 -48 -73 -36
-72 -37 5 -8 5 -7 -30 4 -29 4 0 -19 0 -19 65 -58 65 -57 10 6 10 6 -2 -13 -3
-13 13 3 13 2 -5 -9 -6 -9 84 -76 83 -75 7 4 6 5 -5 -7 -5 -7 26 -27 27 -28 8
5 9 5 -7 -17 -6 -17 18 7 19 7 -7 -7 -6 -7 45 -50 44 -50 61 -54 61 -54 14 5
13 5 7 -11 7 -11 -11 7 -12 7 0 -8 0 -9 44 -37 45 -37 14 0 14 0 21 23 22 23
-7 9 -8 8 13 -7 13 -8 19 17 20 18 -7 10 -6 10 11 -7 11 -6 36 31 36 32 3 -4
4 -4 3 -48 3 -47 -22 -16 -22 -15 5 -9 5 -8 -18 2 -17 1 3 -13 2 -13 -8 5 -9
5 -36 -30 -37 -31 6 -10 7 -11 -10 6 -11 7 -26 -21 -26 -21 6 -10 7 -11 -10 6
-10 6 -51 -45 -52 -46 6 -9 5 -9 -13 2 -13 3 3 -13 2 -13 -10 6 -10 6 -70 -57
-69 -57 6 -10 6 -10 -12 7 -11 7 -42 -34 -42 -35 -85 77 -85 76 -38 40 -38 40
0 13 0 13 48 47 47 47 18 14 17 13 15 -12 14 -12 -44 -42 -45 -42 0 -12 0 -12
-10 0 -10 0 0 -15 0 -15 28 -17 27 -17 28 -23 29 -23 10 6 11 7 -7 -11 -6 -10
29 -21 28 -20 7 6 7 7 -6 -16 -6 -16 10 -7 11 -6 65 62 65 62 -7 11 -6 11 7
-7 8 -7 77 66 76 65 -3 10 -2 9 9 -5 10 -6 15 22 16 22 0 13 0 13 -11 0 -11 0
-55 48 -55 47 -136 140 -136 140 -164 162 -165 161 -16 -5 -16 -6 -22 -20 -22
-20 6 -10 6 -10 -11 7 -10 6 -14 -12 -14 -13 -19 -12 -20 -11 3 -12 2 -11 -10
6 -11 7 -14 -12 -15 -12 7 -11 6 -10 -10 6 -9 6 -47 -33 -46 -33 23 -22 22
-21 9 7 8 8 -7 -13 -8 -13 12 -14 12 -15 20 0 20 0 32 27 31 26 -3 9 -2 9 10
-6 10 -6 52 37 52 38 4 -12 4 -12 9 6 9 5 -2 -8 -3 -8 39 -47 39 -47 9 5 8 5
-2 -8 -2 -8 16 -31 17 -31 -2 -21 -1 -21 -8 5 -8 5 -106 -73 -106 -72 19 -8
18 -8 -23 4 -24 5 -49 -36 -49 -35 7 -10 6 -11 -12 8 -12 7 -22 -20 -22 -19
-133 -93 -132 -92 7 -10 6 -11 -12 8 -13 7 -33 -32 -34 -33 6 -10 6 -10 -15 9
-16 9 -56 109 -57 110 5 13 5 13 13 0 13 0 38 -73 37 -72 0 -12 0 -13 16 0 15
0 -6 10 -6 10 13 -5 13 -5 110 91 110 91 8 8 9 8 -26 55 -26 55 -23 33 -23 34
-71 120 -71 120 -94 120 -94 120 -15 0 -14 0 -7 10 -7 10 -28 -26 -28 -26 -27
-18 -28 -17 6 -9 5 -9 -9 2 -10 3 -41 -25 -41 -25 -5 -16 -6 -17 26 -37 25
-38 -10 -12 -10 -12 5 -4 4 -5 -17 -1 -18 -1 -18 31 -18 32 -14 37 -13 37 10
6 9 6 -6 11 -7 11 9 -6 10 -5 79 60 80 60 134 89 135 89 9 0 8 0 -7 12 -7 11
11 -7 10 -6 59 38 58 39 43 23 42 24 0 8 0 8 15 0 15 0 36 -50 36 -50 7 5 8 4
-2 -19 -1 -20 -24 -25 -24 -26 -63 -46 -64 -47 6 -13 5 -14 -10 6 -10 6 0 -12
0 -13 26 -38 26 -37 37 19 36 18 50 39 51 38 72 60 72 60 0 22 0 22 -14 8 -14
8 -35 45 -34 45 -84 120 -85 120 -132 188 -133 188 -6 14 -5 15 -14 0 -14 0
-6 -27 -6 -28 -57 -59 -56 -59 -37 -37 -36 -37 29 -44 29 -44 10 3 10 2 -2
-12 -3 -13 13 3 13 2 -6 -10 -6 -10 24 -32 24 -33 6 -11 6 -11 -18 1 -19 1
-72 80 -72 80 -15 23 -16 22 49 64 49 63 90 99 90 99 75 75 76 75 99 119 99
118 23 -28 23 -29 11 3 10 2 -6 -10 -6 -10 27 -35 26 -35 11 7 10 6 -7 -11 -6
-10 21 -36 21 -36 -101 -114 -101 -114 36 -54 36 -53 15 -8 14 -9 40 44 40 43
76 93 77 92 13 0 14 0 5 14 5 13 -57 99 -57 99 -126 182 -126 183 -22 41 -22
41 -36 60 -35 59 0 9 0 9 -22 3 -23 4 -23 -10 -23 -10 5 -13 6 -14 -8 5 -9 5
-55 -57 -55 -57 -52 -67 -52 -68 7 -11 7 -12 -11 7 -10 6 -37 -44 -37 -45 8
-12 7 -12 -11 7 -12 7 0 -7 0 -7 15 -16 15 -16 25 -30 25 -30 31 35 31 35 59
75 58 75 45 50 44 50 21 -19 20 -19 6 -18 6 -19 8 4 7 5 1 -20 2 -19 19 -28
19 -27 6 -18 7 -18 9 6 10 5 -10 -32 -9 -33 -89 -90 -88 -90 -54 -60 -54 -60
-84 -90 -85 -90 -118 -122 -118 -121 -96 111 -96 112 -5 12 -5 12 18 24 18 23
29 -33 29 -33 9 6 9 5 -2 -8 -3 -9 32 -38 31 -38 11 6 11 7 -6 -14 -5 -14 13
-11 13 -10 25 -7 26 -6 47 48 46 48 34 48 34 48 22 15 21 15 0 10 0 10 -62 71
-63 71 -141 152 -141 152 -53 64 -52 64 -54 57 -53 58 -23 40 -23 40 -24 0
-24 0 -34 -26 -33 -25 6 -12 7 -12 -8 8 -9 7 -27 -26 -28 -27 6 -11 6 -11 -8
8 -9 7 -22 -21 -23 -22 5 -9 5 -8 -9 2 -9 3 -48 -53 -47 -52 6 -15 5 -15 15 0
14 0 31 -26 31 -25 11 7 12 7 -7 -11 -6 -10 29 -21 28 -20 7 4 6 5 -5 -7 -5
-7 22 -23 21 -23 16 13 16 12 -12 -16 -13 -16 7 -6 6 -7 -12 -14 -13 -15 7
-11 6 -10 -13 2 -13 3 2 -18 1 -18 -6 5 -5 6 -15 -12 -14 -12 -35 39 -34 40
-55 66 -54 66 0 8 0 8 -25 33 -25 33 59 73 59 73 95 100 95 100 74 90 75 90
27 24 26 24 0 13 0 12 26 31 25 31 -7 11 -7 12 10 -6 11 -7 15 23 15 22 37 39
37 39 35 -19 36 -19 91 -86 91 -86 32 -27 32 -27 -2 -29 -2 -28 -6 4 -7 4 -12
-15 -12 -15 6 -15 6 -16 -10 6 -9 6 -16 -25 -17 -25 8 -12 7 -12 -11 7 -11 6
-9 -16 -10 -17 -16 6 -16 6 0 14 0 13 30 47 30 48 0 21 0 20 -62 65 -63 65
-46 34 -47 34 -14 0 -15 0 -32 -40 -32 -40 7 -12 7 -11 -10 6 -10 6 -68 -92
-69 -92 -24 -33 -24 -32 13 -19 14 -18 44 -59 45 -59 10 -11 11 -11 39 -46 38
-47 11 7 10 6 -6 -10 -6 -10 45 -49 45 -49 10 3 10 2 -5 -9 -6 -9 26 -31 26
-31 10 7 11 6 -6 -10 -6 -10 15 -22 15 -21 8 4 8 5 0 -14 0 -14 39 -45 39 -44
13 4 13 4 -7 -11 -6 -10 22 -24 23 -24 11 6 11 6 -8 -8 -8 -9 52 -52 52 -53
11 6 11 6 -7 -8 -8 -8 11 -13 10 -13 17 6 17 7 30 35 30 35 66 76 66 75 56 60
57 60 0 13 0 14 -32 54 -33 53 -16 1 -17 0 -6 -16 -6 -16 7 -10 6 -11 -10 6
-11 7 -117 -130 -117 -131 -14 12 -14 11 -22 37 -22 36 -8 10 -8 10 -20 24
-20 24 0 7 0 7 51 79 52 79 96 120 96 120 42 49 43 48 -6 9 -5 9 10 -2 10 -3
70 95 71 95 23 30 22 30 34 37 33 38 12 0 11 0 32 -28 31 -27 54 -45 53 -45 7
2 8 3 -45 -66 -45 -66 6 -10 7 -11 -9 5 -9 6 -33 -48 -34 -49 7 -31 7 -30 8 5
8 5 -1 -13 0 -12 1 -22 2 -23 23 0 24 0 11 25 12 25 10 0 10 0 0 8 0 9 48 50
47 51 20 28 20 28 23 25 23 25 -6 13 -5 14 9 -5 8 -6 18 20 18 19 -92 97 -92
97 -133 121 -133 121 -123 105 -124 105 -38 38 -37 39 -28 -14 -28 -14 3 -15
4 -14 -8 8 -7 7 -18 -16 -19 -17 7 -10 6 -10 -10 6 -11 7 -52 -60 -52 -59 8
-13 7 -13 -8 7 -8 8 -14 -11 -13 -11 0 -14 0 -14 37 -40 36 -41 13 5 13 5 -6
-16 -6 -16 17 6 17 7 -5 -9 -5 -8 37 -34 37 -34 15 0 15 0 0 -15 1 -15 10 2
10 2 0 -19 0 -19 -5 5 -5 4 -21 -20 -21 -19 -109 109 -110 109 -4 13 -4 13
-15 18 -16 18 17 28 16 28 -7 7 -7 8 14 -4 13 -3 50 63 49 62 -7 12 -7 11 10
-6 11 -7 12 15 12 14 -8 12 -7 12 10 -6 11 -7 18 28 18 27 -2 8 -2 8 10 -6 10
-6 0 10 0 11 57 -6 56 -7 -7 14 -7 14 14 -17 14 -18 11 0 11 0 16 29 15 30 -5
13 -5 13 60 0 59 1 6 -14z m970 8 l6 -10 -10 0 -11 0 0 10 0 10 4 0 5 0 6 -10z
m-2201 -17 l-16 -12 8 -12 7 -12 -11 7 -11 7 -11 -21 -11 -20 7 -13 7 -12 -8
8 -8 7 -24 -41 -23 -41 7 -11 6 -12 -8 7 -8 8 -14 -20 -14 -20 7 -13 7 -12 -8
7 -8 8 -24 -32 -23 -32 5 -15 6 -15 -7 7 -7 7 -24 -40 -24 -40 7 -13 7 -12 -8
7 -8 8 -19 -31 -18 -30 6 -11 7 -11 -10 6 -11 7 -6 -16 -6 -16 6 -9 5 -9 -12
2 -13 3 -4 -19 -4 -19 30 5 31 4 -2 -10 -2 -11 13 3 13 2 -5 -8 -5 -9 60 -59
60 -59 6 3 7 3 2 -18 3 -18 18 -15 18 -16 11 -19 12 -20 28 3 29 3 4 11 3 10
47 57 46 57 20 29 20 30 14 28 14 27 11 0 11 0 13 -20 12 -20 -120 -145 -121
-145 -7 0 -6 0 -171 168 -171 167 -117 112 -118 112 7 28 7 28 30 60 29 60 11
23 10 22 114 0 113 0 0 -12 0 -11 -36 -64 -35 -63 5 -9 5 -8 -22 1 -22 1 2 20
1 20 7 23 7 22 -36 15 -35 15 -15 0 -16 0 -17 -26 -17 -26 14 -21 13 -22 -15
12 -15 13 -11 -26 -12 -25 0 -18 0 -19 29 -31 29 -31 6 -15 6 -16 9 6 10 5 7
-11 7 -12 -11 7 -12 7 0 -8 0 -8 33 -35 33 -35 7 -18 7 -19 11 4 10 3 28 66
28 66 68 114 69 114 11 20 10 20 35 52 35 53 38 -3 37 -2 -16 -12z m166 7 l0
5 45 0 45 0 0 -7 0 -7 -20 -34 -21 -35 -20 -5 -21 -6 6 6 6 6 -41 18 -40 19
-38 10 -38 10 0 12 0 13 69 -5 68 -5 0 5z m1803 -11 l6 -21 12 8 12 7 -8 -12
-7 -13 -11 11 -10 10 -19 -24 -19 -25 7 -12 7 -13 -8 7 -8 8 -13 -26 -14 -26
7 -11 6 -10 -11 7 -12 7 0 -10 0 -10 10 -6 9 -6 -5 -13 -5 -14 23 -8 23 -8 8
2 8 2 -5 -9 -6 -9 15 -12 14 -12 12 8 12 7 -6 -10 -7 -11 40 -36 41 -37 11 7
11 7 -6 -10 -6 -10 30 -22 29 -22 10 6 10 6 -2 -13 -3 -13 17 1 17 2 -2 -11
-2 -10 60 -42 60 -42 100 -68 100 -68 12 0 12 0 -2 -11 -2 -11 17 1 18 2 -5
-8 -5 -9 18 -13 19 -13 5 -33 5 -33 -32 31 -31 30 -7 0 -6 0 -148 111 -148
110 -73 57 -74 57 -41 33 -42 34 -33 29 -33 30 -36 24 -36 25 -8 0 -9 0 0 -23
0 -24 -20 -18 -21 -19 5 -13 5 -13 -12 3 -12 2 1 -17 2 -18 -9 5 -8 6 -10 -19
-10 -19 4 -7 5 -6 -6 5 -7 4 -18 -23 -19 -24 6 -16 6 -16 8 5 8 5 -2 -18 -1
-17 13 3 12 2 -2 -12 -3 -13 15 3 15 4 -7 -8 -7 -7 39 -45 40 -45 0 -8 0 -8
-22 -12 -22 -12 -30 35 -31 35 -50 58 -49 59 -2 13 -2 13 8 -5 7 -5 67 101 67
100 -7 11 -7 11 10 -6 11 -7 57 85 57 85 -6 25 -6 25 34 0 34 0 5 -21z m102
11 l6 -10 -16 0 -16 0 6 10 6 10 4 0 4 0 6 -10z m65 0 l0 -10 -25 0 -25 0 0 8
0 8 25 2 25 2 0 -10z m-1420 -13 l0 -13 -20 -17 -21 -18 7 -11 7 -11 -12 7
-12 8 -6 -21 -5 -21 -13 0 -13 0 -6 -22 -5 -23 -11 11 -11 11 1 29 1 29 1 32
1 32 31 4 31 4 28 1 27 2 0 -13z m-960 -53 l0 -3 -9 -6 -10 -5 -5 8 -5 9 14 0
15 0 0 -3z m2870 -120 l0 -3 -9 -6 -10 -5 -5 8 -5 9 14 0 15 0 0 -3z m-55 -24
l6 -10 8 4 7 5 0 -19 0 -19 -9 6 -9 5 4 -80 3 -80 -43 42 -43 43 27 56 28 57
7 0 8 0 6 -10z m-1473 -154 l11 7 -7 -12 -7 -11 -10 5 -9 6 1 12 1 12 5 -13 5
-12 10 6z m-1468 -72 l6 -17 -15 13 -15 12 0 4 0 4 9 0 9 0 6 -16z m-279 -4
l-4 -7 55 -52 56 -51 11 7 10 6 -6 -10 -6 -10 60 -57 60 -56 10 6 9 5 -2 -13
-3 -13 13 3 13 2 -5 -9 -6 -9 29 -21 28 -20 8 7 8 7 -6 -12 -7 -11 37 -31 36
-30 9 5 8 5 -2 -13 -3 -13 13 3 12 2 -2 -12 -3 -13 13 3 13 2 -5 -8 -6 -9 19
-17 18 -16 6 5 7 5 -5 -7 -5 -7 26 -27 27 -28 8 5 9 5 -7 -18 -7 -18 -24 -32
-24 -32 8 -12 7 -12 -10 6 -11 7 -12 -15 -12 -14 8 -12 7 -12 -10 6 -9 6 -55
-64 -54 -65 -11 0 -12 0 -12 15 -12 15 9 0 9 0 23 45 22 45 10 0 9 0 0 11 0
10 27 37 27 37 20 17 20 16 -27 35 -26 35 -81 73 -81 73 -6 28 -5 28 -18 0
-18 0 -12 -15 -12 -15 -2 -24 -1 -24 -10 1 -10 2 2 -18 1 -18 -6 5 -5 6 -19
-31 -18 -30 6 -10 5 -9 -9 2 -10 3 -26 -38 -26 -38 0 -4 0 -5 -36 -56 -36 -55
7 -17 6 -16 -7 7 -7 7 -14 -11 -13 -11 0 33 0 34 30 45 31 45 14 33 15 33 65
108 64 108 7 17 6 16 -19 0 -18 0 -70 66 -70 66 -22 15 -23 15 0 22 0 23 15 0
14 0 -4 -7z m66 -143 l76 -72 6 -18 7 -18 -9 5 -9 6 -6 -16 -6 -16 7 -11 6
-12 -8 7 -8 8 -14 -20 -14 -20 7 -13 7 -12 -8 7 -8 8 -17 -28 -17 -27 -26 -48
-27 -48 6 -11 7 -11 -11 7 -11 7 -7 -25 -6 -25 -13 -5 -13 -5 9 32 9 32 0 27
0 28 11 0 10 0 -6 -10 -6 -10 9 0 10 0 32 67 32 67 2 22 1 22 6 -4 7 -4 6 16
6 16 -7 13 -8 13 -30 34 -30 34 -16 19 -17 20 -6 23 -7 22 8 0 8 0 76 -73z
m-51 -39 l23 -43 14 -16 14 -17 -16 -5 -15 -6 0 -25 0 -25 -11 -6 -10 -7 5
-15 6 -14 -10 6 -10 6 0 -8 0 -9 -15 -20 -14 -19 -1 133 0 132 8 0 8 0 24 -42z
m1591 -55 l14 -18 -17 14 -18 13 0 4 0 4 4 0 4 0 13 -17z m1306 -23 l34 -30
11 6 11 7 -7 -11 -7 -12 13 -1 13 -1 8 1 7 1 -2 -7 -3 -8 20 -20 21 -20 39
-34 40 -35 0 -22 1 -23 -6 2 -6 2 -62 -72 -62 -72 -38 -28 -37 -28 -3 -7 -4
-8 -14 0 -14 0 0 -7 1 -8 13 -17 13 -18 5 6 6 5 8 -12 7 -12 -13 8 -12 8 7
-24 8 -23 21 -18 21 -18 74 78 73 77 49 56 49 56 -8 8 -7 8 13 -7 12 -7 6 15
6 14 12 5 12 5 -4 -36 -5 -35 -59 -55 -59 -55 5 -13 5 -13 -12 5 -13 5 -24
-33 -25 -33 3 -8 2 -8 -9 5 -9 6 -36 -41 -35 -42 5 -9 5 -8 -10 2 -10 3 -13
-18 -14 -19 -60 74 -59 73 -28 37 -27 37 0 4 0 5 124 128 124 128 -18 26 -18
25 -40 39 -40 38 -21 -7 -21 -6 0 -13 0 -12 -35 -34 -35 -34 5 -14 5 -13 -9 5
-8 5 -28 -29 -27 -28 7 -13 8 -12 -11 7 -11 7 -71 -83 -70 -83 0 -7 0 -8 10 0
9 0 43 -62 42 -63 76 -90 75 -90 69 -92 69 -92 10 6 10 6 -7 -12 -8 -12 17
-19 18 -20 10 7 10 6 -7 -12 -7 -11 31 -40 32 -40 10 6 11 7 -7 -12 -7 -11 27
-33 27 -32 9 2 8 3 -3 -9 -2 -9 23 -31 23 -32 12 7 12 7 -7 -8 -7 -8 10 -19
11 -20 24 5 24 4 0 -9 0 -9 -36 -31 -35 -31 5 -14 6 -14 -8 5 -9 5 -45 -47
-45 -47 -49 -60 -49 -60 -18 -19 -17 -20 4 -13 5 -13 -12 3 -12 2 1 -17 2 -18
-9 5 -8 6 -17 -26 -16 -25 -7 0 -7 0 -53 103 -53 102 -9 11 -10 12 -24 48 -24
47 10 19 10 18 12 0 12 -1 50 -85 50 -86 17 -46 16 -47 15 -3 15 -3 79 102 78
102 28 38 28 39 20 0 19 0 0 25 0 25 -10 0 -9 0 -63 76 -63 77 -65 76 -65 77
-55 73 -55 72 -41 52 -40 52 -61 85 -61 85 -6 22 -7 21 -34 26 -34 26 -5 0 -6
0 0 -21 0 -21 -77 -74 -78 -75 3 -10 2 -10 -9 5 -9 6 -13 -16 -13 -16 19 -33
18 -34 8 5 9 5 -7 -17 -6 -17 13 8 13 8 -7 -11 -7 -12 37 -60 37 -60 8 5 8 5
7 -12 7 -13 -8 7 -8 8 -14 -20 -14 -20 -9 0 -9 0 -6 20 -6 20 -14 0 -13 0 -41
69 -41 70 -20 46 -20 46 37 45 37 44 9 0 9 0 -6 16 -6 15 9 -6 10 -5 53 57 53
56 82 82 83 82 5 -5 5 -5 0 15 0 15 52 52 53 51 7 0 8 0 0 18 0 17 61 63 60
62 11 0 10 0 35 -30z m-53 -231 l-79 -82 -42 -43 -43 -43 0 -5 0 -5 52 -68 51
-68 9 3 8 2 -1 -7 -1 -8 1 -13 1 -13 12 7 11 7 -7 -11 -7 -11 33 -45 33 -45
31 0 31 -1 24 32 24 32 55 59 55 58 61 65 61 64 5 0 6 0 4 -29 4 -30 -7 4 -7
5 -12 -15 -12 -14 8 -12 7 -12 -12 8 -13 7 -63 -68 -63 -69 5 -9 6 -9 -11 7
-11 7 -40 -55 -41 -55 0 -6 0 -6 26 -35 26 -34 9 6 9 5 -2 -13 -3 -13 13 3 13
2 -5 -9 -6 -10 41 -58 41 -58 8 2 8 2 -2 -17 -1 -17 13 3 13 2 -6 -9 -6 -10
16 -30 15 -30 18 -13 19 -13 5 -23 6 -22 -9 6 -9 5 0 -30 0 -31 -8 0 -9 0 -11
23 -12 22 -45 55 -45 55 -90 120 -90 120 -97 124 -98 124 -36 38 -37 39 -12
29 -12 30 38 47 39 48 25 27 25 26 25 30 25 30 35 41 35 42 29 -30 30 -29 -80
-82z m-2903 98 l-12 -12 7 18 6 18 6 -6 6 -5 -13 -13z m349 -341 l0 -5 -10 -6
-10 -6 0 10 0 11 10 0 10 0 0 -4z m2948 -48 l-3 -32 -27 -30 -27 -29 6 -10 6
-10 -10 6 -11 7 -27 -36 -27 -35 16 -18 16 -18 0 -12 0 -13 15 6 15 5 -3 -12
-2 -12 11 2 12 2 -2 -17 -1 -17 13 3 13 2 -5 -8 -5 -8 18 -27 18 -27 8 7 8 8
-9 -15 -9 -15 0 -10 -1 -10 10 -14 11 -15 -14 8 -13 8 3 -50 4 -49 -12 4 -13
5 -37 62 -37 61 -25 35 -26 35 -22 24 -21 24 -12 23 -13 23 36 49 37 49 -8 8
-7 8 11 -6 11 -6 58 59 59 60 9 0 9 0 -4 -32z m-3 -173 l0 -85 -13 17 -12 18
-15 18 -15 17 0 14 0 14 15 12 15 12 0 18 0 17 7 6 6 7 6 0 6 0 0 -85z m-3232
-80 l22 -30 21 -22 22 -22 6 5 6 4 -5 -6 -4 -7 28 -36 28 -36 6 -18 7 -18 -9
5 -9 6 -37 -54 -37 -54 7 -11 6 -11 -13 2 -13 3 2 -18 1 -18 -6 5 -5 6 -24
-32 -23 -32 0 -12 0 -12 -15 -12 -15 -13 2 62 3 61 7 0 6 0 5 -12 5 -13 1 18
1 17 -10 0 -10 0 0 10 0 10 14 0 14 0 4 -11 4 -11 31 51 32 51 11 0 10 0 0 16
0 16 -27 34 -28 34 -26 32 -26 33 -7 23 -7 22 7 33 8 32 4 -20 4 -20 21 -30z
m-9 -102 l19 -38 7 -32 8 -33 -8 5 -9 5 -22 -40 -23 -40 -6 12 -7 13 2 40 3
40 1 53 1 52 8 0 8 0 18 -37z m146 -19 l0 -16 -15 12 -15 12 0 4 0 4 15 0 15
0 0 -16z m114 -125 l-6 -11 93 -94 93 -93 -19 -21 -18 -20 -8 0 -8 0 -59 54
-58 55 -29 7 -28 7 6 -22 5 -21 -8 5 -8 5 -69 -104 -69 -103 7 -27 7 -26 -25
0 -25 0 -29 -31 -29 -31 0 -9 0 -9 -10 0 -10 0 0 28 0 28 15 19 15 20 40 60
40 60 65 90 65 90 31 53 30 52 5 0 5 0 -7 -11z m-244 -19 l0 -10 -11 0 -10 0
6 10 6 10 5 0 4 0 0 -10z m2510 -395 l13 -24 7 4 8 5 -2 -18 -1 -17 13 3 13 2
-6 -9 -6 -10 37 -65 38 -65 9 6 10 6 -6 -9 -6 -10 28 -47 27 -47 9 7 8 8 -7
-12 -7 -13 47 -79 48 -80 7 5 7 4 -2 -13 -1 -12 78 -158 77 -159 0 -8 0 -9
-37 -28 -38 -28 -5 -6 -5 -6 -64 -46 -63 -47 -9 6 -9 5 0 12 0 12 58 46 57 45
28 19 29 18 -6 29 -6 29 -41 70 -42 70 -3 26 -3 26 -9 9 -10 10 -11 -7 -11 -6
6 -11 7 -11 -11 7 -12 7 -47 -33 -48 -33 -125 -71 -125 -72 2 -11 3 -10 -13 4
-12 5 -93 -60 -93 -60 6 -10 6 -10 -13 5 -13 4 -75 -53 -75 -53 3 -12 2 -12
-11 6 -11 7 -28 -27 -29 -28 6 -10 6 -10 -10 6 -11 7 -26 -34 -26 -35 0 -6 0
-6 35 -55 35 -55 12 7 11 7 -7 -11 -7 -11 37 -51 36 -50 23 0 23 0 108 80 107
79 15 -20 14 -20 -11 -13 -11 -13 8 -8 7 -8 -11 6 -10 6 -50 -37 -49 -38 -38
-23 -37 -23 5 -9 6 -9 -16 6 -16 7 -24 -23 -24 -23 -15 6 -16 6 -27 50 -28 50
-15 4 -16 4 -48 84 -49 84 -73 110 -74 110 -35 40 -35 40 0 6 0 6 87 64 88 64
32 29 33 28 0 -15 0 -15 -70 -62 -69 -63 6 -10 6 -10 -11 7 -12 7 -11 -25 -12
-25 16 -24 16 -24 42 -49 43 -49 6 2 6 2 1 -20 2 -21 12 -14 12 -14 13 11 14
11 -7 11 -6 10 10 -6 9 -6 50 42 49 43 65 50 65 51 165 109 166 109 77 48 77
49 -6 10 -7 11 10 -6 11 -7 65 44 64 43 -46 89 -46 89 -70 123 -70 123 -24 6
-24 6 -16 -11 -16 -10 3 -14 4 -13 -8 8 -8 8 -53 -53 -53 -52 0 -16 0 -15 44
-62 43 -62 8 7 8 7 -8 -13 -7 -14 22 -30 23 -31 -12 7 -11 7 0 -10 0 -10 -64
-45 -64 -46 -10 0 -10 0 -6 16 -6 17 2 1 3 1 23 20 23 19 9 -14 9 -14 7 29 7
29 -28 51 -27 52 -34 38 -33 38 66 76 66 76 31 27 31 26 30 26 30 26 11 0 11
0 13 -25z m744 -27 l11 -8 -62 -60 -63 -60 0 -10 0 -11 23 -22 23 -22 32 -47
32 -47 0 -33 -1 -33 -15 20 -15 20 -17 20 -17 20 -28 38 -28 37 -14 0 -14 0
-23 -31 -23 -31 3 -12 4 -11 -7 7 -8 7 -18 -23 -19 -24 0 -11 0 -12 20 -40 21
-40 10 6 9 6 -2 -13 -3 -13 12 2 12 3 -5 -15 -6 -15 15 0 16 0 6 -20 6 -20 9
5 8 5 -3 -12 -3 -13 -7 -21 -7 -21 -26 25 -27 26 -56 96 -57 95 20 36 20 37
67 75 66 75 55 63 54 62 5 -14 4 -14 11 -7z m-3149 11 l-4 -6 84 -82 84 -83
12 8 12 7 -7 -11 -7 -12 38 -22 38 -23 8 3 8 2 -5 -9 -6 -9 15 -12 14 -12 11
7 10 6 -2 -9 -3 -10 73 -71 73 -72 11 7 11 7 -6 -10 -7 -11 36 -21 36 -21 10
6 11 7 -7 -11 -7 -11 20 -10 20 -11 18 0 18 0 80 70 80 70 1 19 1 18 -78 89
-79 89 0 7 0 7 21 12 21 11 -6 -11 -7 -10 46 -46 45 -46 10 6 10 6 -2 -8 -3
-8 29 -38 29 -38 14 5 14 6 -5 -9 -6 -9 15 -12 15 -12 0 -14 0 -14 -9 0 -8 0
-60 -52 -59 -53 -58 -50 -59 -50 -11 -10 -11 -10 -60 -50 -60 -50 -22 -19 -22
-19 6 -10 6 -10 -10 6 -10 6 -39 -33 -39 -32 -59 -44 -60 -43 -43 49 -43 49 0
9 0 9 31 49 31 48 9 0 9 0 0 -10 0 -11 -16 -25 -17 -25 19 -34 19 -35 8 0 8 0
-7 12 -7 11 12 -7 12 -8 52 49 53 48 96 78 95 77 13 0 13 0 -96 90 -96 91 -58
43 -58 42 -80 74 -80 74 -45 46 -45 47 -19 21 -18 21 20 -2 21 -1 -4 -7z m29
-114 l88 -85 9 6 9 5 -2 -13 -3 -13 15 3 15 4 -7 -8 -8 -7 11 -13 11 -14 12 7
11 6 -7 -8 -8 -8 11 -13 11 -14 11 7 10 6 -7 -11 -6 -11 34 -26 35 -27 12 8
12 7 -6 -10 -7 -10 20 -18 19 -17 11 7 10 6 -2 -13 -3 -13 13 3 12 2 -2 -10
-3 -10 60 -55 60 -55 -60 -55 -60 -55 2 -9 3 -10 -13 4 -12 5 -52 -45 -52 -45
-7 11 -6 11 86 87 86 86 0 18 0 17 -11 0 -12 0 -46 37 -46 37 -42 38 -43 38
-16 0 -16 0 -82 -87 -81 -86 3 -9 2 -9 -10 6 -11 7 -19 -17 -20 -18 6 -9 5 -8
-9 2 -10 3 -40 -37 -41 -38 -11 0 -10 0 0 28 0 28 45 38 45 37 -6 12 -7 12 8
-8 9 -8 52 52 53 52 -5 9 -5 8 8 -2 8 -3 37 30 38 30 0 19 0 18 -77 79 -77 80
-23 5 -23 6 -15 -12 -15 -12 7 -12 6 -11 -8 8 -9 7 -23 -22 -23 -21 0 24 0 25
19 20 19 21 26 41 26 42 8 0 8 0 88 -85z m2347 23 l12 -21 -34 -28 -33 -27 24
-51 23 -51 14 0 13 0 0 -15 0 -16 24 -47 23 -47 7 -22 7 -22 -42 -21 -42 -22
6 23 6 22 -15 36 -15 36 -49 76 -50 75 0 18 0 18 53 54 52 54 2 0 2 0 12 -22z
m771 -96 l3 -52 -6 0 -6 0 -24 44 -23 45 24 26 25 27 2 -19 2 -18 3 -53z
m-3187 -13 l-4 -6 24 -23 24 -22 12 7 12 8 -8 -12 -7 -12 20 -22 19 -22 0 -17
0 -18 -6 5 -5 5 -47 -46 -48 -47 6 -10 6 -10 -10 6 -11 7 -41 -45 -41 -45 -5
0 -5 0 0 23 0 24 45 49 45 49 0 17 0 16 -24 29 -23 28 -11 22 -12 21 30 26 30
25 19 -2 20 -1 -4 -7z m1905 -50 l0 -20 -10 6 -10 6 0 15 0 14 10 0 10 0 0
-21z m-2001 -79 l13 -31 -18 -27 -17 -27 -3 10 -2 10 -5 52 -4 51 11 -4 11 -4
14 -30z m1160 -90 l23 -30 9 6 9 5 -2 -13 -3 -13 13 3 13 2 -5 -9 -6 -9 21
-26 21 -26 10 6 11 7 -7 -11 -7 -12 12 -21 11 -22 -23 -18 -24 -19 -6 0 -6 0
-47 70 -46 70 0 10 0 10 -11 0 -11 0 -42 -32 -41 -31 -37 -35 -37 -35 6 -11 6
-11 -8 8 -9 7 -23 -22 -23 -21 0 -30 0 -29 19 -24 18 -23 8 7 7 7 -2 -10 -2
-10 1 -13 1 -13 12 7 11 7 -7 -11 -7 -12 28 -49 27 -50 7 5 7 4 -2 -18 -1 -17
13 3 13 2 -5 -9 -6 -10 11 -25 12 -25 8 4 8 5 7 -11 7 -12 -11 7 -12 7 0 -6 0
-6 11 -20 10 -20 8 6 9 5 -2 -18 -1 -17 13 3 13 2 -6 -10 -6 -10 34 -60 34
-60 8 7 8 8 -6 -12 -7 -11 6 -16 6 -16 11 7 10 6 -7 -11 -7 -12 32 -60 32 -60
11 0 11 0 12 19 12 20 46 26 45 27 -7 10 -6 11 10 -6 10 -6 42 35 41 36 0 17
0 17 -15 20 -14 19 -1 11 0 12 17 6 17 7 11 -13 12 -13 24 -43 24 -44 -17 -12
-18 -13 8 -8 7 -8 -11 6 -11 7 -54 -38 -54 -38 -28 -14 -28 -14 -102 -84 -102
-84 -53 -34 -53 -34 7 -12 7 -11 -10 6 -9 6 -45 -30 -44 -29 -7 0 -8 0 0 14 0
13 123 85 122 84 18 7 17 6 0 19 0 18 -46 74 -46 75 -48 85 -47 85 -26 45 -25
45 -55 97 -55 98 -26 55 -25 55 -15 0 -16 0 0 -10 0 -11 -17 -6 -18 -7 -62
-54 -62 -55 6 -10 6 -10 -10 6 -11 7 -51 -41 -51 -41 5 -9 6 -9 -13 5 -14 6
-24 -26 -24 -26 16 -27 17 -27 10 0 9 0 9 -9 8 -9 -12 7 -13 7 0 -6 0 -6 10
-20 11 -19 14 0 15 0 37 33 38 33 40 29 40 30 45 40 45 40 -7 -8 -6 -8 48
-102 48 -102 5 -22 5 -22 -12 5 -12 5 -19 -21 -18 -20 -13 0 -12 0 -79 -67
-78 -66 -50 -33 -50 -32 -20 -19 -20 -20 -55 -37 -55 -38 2 -9 3 -9 -8 3 -8 2
-107 -82 -107 -83 -4 0 -4 0 -25 45 -25 44 -12 37 -12 36 66 67 66 67 0 9 -1
10 -29 39 -30 40 0 10 0 11 21 13 21 13 3 -3 3 -3 36 -63 36 -63 -44 -47 -44
-47 -4 -10 -3 -10 -6 2 -7 2 -17 -19 -18 -20 13 -45 12 -45 14 -10 13 -11 43
43 44 43 68 55 68 55 16 0 17 0 3 20 3 20 -33 46 -33 47 -34 48 -35 49 -145
200 -145 200 -12 10 -12 10 -6 21 -7 22 58 55 58 55 40 33 41 34 61 65 61 64
46 -37 46 -38 11 7 12 7 -6 -10 -7 -11 15 -12 14 -12 12 8 12 7 -7 -11 -6 -11
17 -10 18 -10 -15 -2 -15 -1 -12 -2 -12 -1 -30 -34 -31 -35 0 -8 0 -8 -10 0
-11 0 23 40 23 41 -37 34 -38 35 -23 0 -24 0 -65 -77 -66 -78 -21 -24 -21 -24
6 -9 5 -8 -13 2 -13 3 3 -30 3 -30 38 -45 38 -45 17 -27 18 -28 11 7 10 6 -7
-12 -8 -12 12 -14 12 -15 8 5 8 5 -2 -18 -1 -17 13 3 13 2 -6 -9 -6 -10 27
-41 27 -40 16 12 16 12 -12 -14 -12 -13 10 -19 10 -19 10 6 9 6 -1 -8 -1 -8 1
-13 1 -13 9 5 9 6 -2 -18 -1 -17 11 2 11 2 0 -12 0 -12 27 -43 27 -43 8 6 9 5
-2 -18 -1 -17 12 2 13 3 -1 -8 -1 -7 1 -12 1 -12 21 -6 20 -7 12 14 12 14 68
53 67 53 -7 10 -6 11 12 -7 11 -7 66 52 65 52 -6 26 -7 26 -20 33 -20 32 -13
0 -13 0 -11 -13 -11 -14 5 -6 5 -7 -7 5 -6 5 -13 -11 -14 -11 7 -11 6 -10 -12
7 -11 7 -30 -21 -30 -22 6 -10 7 -11 -11 7 -11 7 -51 -37 -51 -36 -3 3 -4 4
-51 90 -51 89 0 8 0 7 26 18 25 18 57 44 57 45 50 45 50 46 50 43 50 43 38 20
37 19 0 10 0 10 62 45 62 45 9 0 9 0 56 48 57 47 3 8 4 7 6 0 7 0 24 -30z
m-805 -226 l6 -15 -10 6 -10 6 0 10 0 9 4 0 4 0 6 -16z m2946 -113 l0 -30
-220 -146 -221 -146 6 -9 6 -10 -15 6 -16 6 0 -9 0 -9 -30 -17 -30 -18 0 -24
0 -24 31 -23 31 -23 9 3 9 2 -2 -8 -3 -8 65 -60 65 -61 25 -14 25 -13 8 2 7 2
-2 -8 -3 -8 29 -37 30 -37 8 0 8 0 45 41 45 42 0 9 0 10 -46 62 -46 61 -50 54
-51 54 9 14 9 14 32 20 32 21 68 -104 68 -103 4 -10 4 -10 24 -31 23 -31 0
-11 0 -12 -35 -31 -34 -32 6 -11 6 -11 -8 7 -8 7 -50 -39 -50 -40 -9 0 -10 0
-91 77 -92 76 -145 145 -145 145 -90 81 -90 80 -3 12 -3 12 56 34 56 33 85 53
86 53 13 -11 12 -10 4 3 4 2 -35 -33 -35 -32 -77 -52 -78 -52 0 -11 0 -11 28
-27 28 -27 8 7 8 8 -4 -15 -3 -15 13 3 12 2 -2 -12 -3 -13 13 3 12 2 -2 -7 -3
-8 53 -53 53 -52 10 6 9 5 -6 11 -7 11 11 -7 10 -6 14 13 13 13 33 23 32 23
-6 10 -7 11 12 -7 11 -7 63 49 62 49 55 37 55 37 95 74 95 74 3 0 2 1 0 -29z
m-2475 -8 l24 -28 12 -27 11 -28 9 6 9 5 -2 -8 -3 -9 24 -52 24 -51 10 6 10 6
-6 -10 -7 -11 35 -61 34 -61 14 -20 14 -20 8 8 8 7 -7 -13 -7 -12 42 -78 42
-77 18 -26 19 -26 9 -27 10 -26 -7 2 -7 2 -57 -38 -58 -39 6 -9 5 -8 -8 2 -9
3 -77 -50 -77 -50 0 -13 0 -13 17 -26 17 -26 -28 -24 -29 -24 -7 8 -7 8 -18
48 -18 47 4 4 4 3 88 67 87 67 26 9 25 10 -6 10 -6 10 8 -1 8 -1 13 1 12 1 0
14 0 14 13 5 12 4 -55 116 -55 116 -16 0 -15 1 -62 -50 -62 -50 -8 0 -9 0 -21
-23 -22 -23 7 -8 8 -8 -10 3 -10 3 -41 -22 -42 -21 -13 -14 -14 -13 -27 -18
-28 -18 6 -9 5 -9 -8 2 -8 3 -38 -23 -37 -24 6 -10 7 -11 -11 7 -12 7 -50 -42
-50 -42 7 -10 6 -10 -11 7 -12 7 -35 -27 -35 -26 7 -11 6 -10 -11 7 -11 7 -43
-32 -43 -31 3 -10 2 -9 -8 5 -9 6 -16 -18 -16 -18 21 -41 21 -42 9 5 8 5 -6
-15 -6 -16 16 -6 17 -6 47 39 47 39 82 57 82 57 22 -39 22 -40 8 5 9 5 -5 -13
-6 -14 102 -169 102 -170 32 -36 33 -37 27 -46 27 -46 9 6 9 5 -7 -17 -6 -17
10 6 10 6 0 -14 0 -14 -6 2 -6 2 -24 -17 -23 -16 7 -13 8 -12 -10 6 -10 6 -52
-50 -52 -50 5 -8 5 -8 -15 0 -15 0 -62 86 -63 86 -17 28 -17 27 -21 0 -20 0
-32 -22 -32 -23 -4 -2 -4 -3 12 -27 13 -28 30 -47 31 -47 7 4 8 5 -2 -18 -1
-17 13 3 13 2 -5 -9 -6 -10 46 -66 46 -66 25 -16 24 -16 -13 -8 -13 -9 -17 0
-16 0 -116 173 -115 172 -23 30 -23 29 12 -7 12 -7 77 50 77 50 8 0 8 0 6 -10
6 -10 10 6 9 5 -2 -13 -3 -13 13 3 13 2 -6 -10 -6 -10 62 -76 62 -76 13 -5 14
-5 28 18 27 17 23 24 22 24 0 5 0 5 -17 27 -17 27 -58 63 -59 63 -30 54 -30
53 -24 6 -24 6 -41 -21 -40 -21 4 -6 4 -7 -22 -1 -23 -2 -42 -26 -42 -27 7
-11 7 -11 -12 8 -12 7 -22 -20 -22 -20 -23 -11 -23 -12 7 -11 7 -11 -11 7 -12
7 -20 -11 -21 -11 7 -11 7 -11 -12 8 -13 7 -31 -30 -32 -30 -53 -32 -52 -32 5
-9 6 -9 -16 6 -15 6 -14 -11 -14 -12 -8 12 -7 13 23 15 24 16 98 77 98 76 35
22 35 22 -4 7 -5 8 12 0 12 0 95 62 95 63 24 9 23 9 -7 37 -7 38 -9 16 -8 16
-33 7 -32 6 -35 -28 -36 -28 -38 -23 -37 -23 7 -11 6 -12 -8 7 -8 7 -28 -20
-29 -20 -10 6 -9 6 -57 92 -57 92 -34 49 -35 48 -21 37 -20 36 -20 39 -19 39
5 31 5 31 -8 47 -7 48 26 16 26 17 50 41 50 40 -7 -8 -7 -9 14 -28 15 -28 0
-8 0 -8 -60 -65 -60 -65 0 -13 0 -13 9 5 9 6 -6 -22 -5 -21 13 8 13 8 -7 -11
-6 -11 27 -55 27 -55 9 6 10 6 -7 -12 -8 -12 12 -14 12 -15 20 0 20 0 49 41
49 41 -7 10 -6 11 11 -7 11 -6 85 67 86 68 45 33 46 33 -6 10 -6 9 8 -2 8 -2
48 28 47 28 -5 8 -5 8 18 -5 18 -4 66 53 66 53 56 40 56 39 0 12 0 12 9 4 9 3
-64 134 -64 134 0 7 0 8 -15 6 -16 6 -58 -56 -58 -55 -24 -16 -24 -17 -33 -28
-33 -28 -9 0 -9 0 -7 22 -7 22 25 20 25 21 69 57 69 57 40 35 40 36 3 0 3 0
24 -27z m-817 -30 l-2 -8 13 -25 14 -25 36 -40 36 -40 8 3 8 2 -6 -10 -7 -11
12 -14 12 -15 11 7 10 6 -7 -11 -7 -12 27 -35 26 -35 11 7 10 6 -7 -12 -8 -12
12 -14 12 -15 11 7 10 6 -7 -12 -7 -11 21 -30 22 -30 8 5 8 5 -2 -18 -1 -17
13 3 12 2 -1 -7 -1 -8 1 -13 1 -13 12 7 11 7 -6 -10 -6 -10 25 -37 25 -37 15
-35 14 -34 -9 2 -9 3 -85 -72 -86 -73 -5 0 -6 0 0 13 0 13 58 55 57 54 13 17
13 17 -47 83 -46 83 -16 18 -15 17 -18 0 -18 0 -18 -24 -19 -24 -64 -56 -65
-56 -7 0 -8 0 0 18 0 19 80 77 80 78 0 11 0 10 -15 17 -15 16 -48 89 -48 89
-13 4 -14 5 9 -14 8 -14 -17 14 -17 13 0 38 0 37 7 6 6 7 4 0 3 0 -2 -7z
m3302 -73 l0 -11 -14 -27 -14 -28 -26 -13 -25 -14 3 -6 4 -6 -25 -2 -25 -1
-15 -15 -15 -15 41 -60 41 -61 10 -6 10 -6 0 -16 0 -16 16 -12 17 -12 4 -54 5
-54 -9 10 -10 10 -24 45 -24 45 -6 5 -6 5 -27 42 -26 43 0 13 0 14 -22 10 -23
11 -24 6 -25 5 -67 -44 -66 -45 -13 -14 -12 -15 7 -11 6 -10 15 0 15 0 -7 11
-6 11 19 -10 20 -11 13 -16 13 -15 16 12 16 12 -12 -14 -12 -13 37 -42 37 -42
34 -43 35 -43 -23 -18 -23 -19 -9 0 -8 0 -42 50 -42 50 -10 0 -9 0 -70 65 -70
65 -9 0 -9 0 0 18 0 18 175 116 175 115 -8 8 -7 8 11 -6 10 -6 45 30 44 29 13
0 12 0 0 -10z m-3286 -61 l-6 -11 12 -24 13 -23 10 6 10 6 -7 -11 -7 -12 22
-40 22 -39 7 4 6 4 1 -18 2 -18 -34 -33 -34 -33 6 -11 6 -11 -8 7 -8 8 -13
-11 -13 -11 -11 7 -10 6 26 45 27 45 -27 52 -26 52 0 22 0 22 16 15 15 16 5 0
5 0 -7 -11z m3266 -91 l0 -49 9 5 9 6 -5 -21 -6 -21 12 -7 12 -8 -7 -17 -7
-17 -15 3 -15 3 -2 20 -1 21 -26 37 -25 37 -9 -8 -8 -7 12 16 12 16 -8 8 -7 8
13 -7 13 -8 14 12 15 12 -5 7 -4 8 14 0 15 0 0 -49z m-3289 -55 l14 -16 -22
12 -23 12 0 4 0 5 9 0 9 0 13 -17z m3139 -8 l13 -15 -17 6 -16 6 0 9 0 9 4 0
4 0 12 -15z m-2251 -219 l12 -14 -72 -53 -71 -54 -49 -31 -48 -31 7 -8 7 -8
-12 7 -12 6 -26 -12 -26 -12 7 -15 6 -16 5 -17 5 -18 11 7 10 6 -6 -11 -7 -10
6 -16 6 -16 11 7 10 6 -6 -10 -7 -11 16 -31 16 -31 10 6 11 7 -7 -11 -6 -11
27 -55 27 -55 9 6 10 6 -6 -11 -7 -10 6 -16 6 -16 11 7 10 6 -7 -11 -7 -11 16
-31 16 -31 11 7 11 7 -6 -11 -7 -10 6 -16 6 -16 11 7 10 6 -6 -11 -7 -10 6
-16 6 -16 11 7 10 6 -8 -12 -7 -13 21 -29 21 -28 0 -18 0 -18 9 -14 9 -14 12
8 13 8 -7 -11 -7 -12 24 -26 25 -26 21 -44 22 -44 8 0 8 0 153 105 152 105 7
0 8 0 17 19 18 20 -22 66 -22 66 -12 5 -13 5 -109 -82 -109 -81 -23 -19 -22
-19 -4 0 -4 0 -51 93 -51 92 -16 26 -17 26 8 19 8 19 -2 8 -1 8 10 -6 10 -6
27 19 28 20 125 82 125 83 87 65 87 66 -6 9 -6 10 10 -6 10 -7 18 20 18 20 17
0 17 0 92 65 92 65 11 -25 11 -24 10 6 10 6 -7 -11 -6 -11 18 -30 19 -31 8 8
8 7 -6 -11 -6 -10 18 -27 18 -27 8 7 8 8 -6 -11 -7 -12 16 -37 15 -37 -11 7
-11 7 -15 -13 -15 -12 -9 9 -8 9 -38 75 -38 75 -2 4 -3 4 -31 3 -31 4 7 -12 7
-11 -12 7 -12 8 -14 -12 -15 -12 7 -11 6 -10 -10 6 -9 6 -50 -43 -49 -43 -22
-12 -23 -12 0 -17 1 -17 13 -17 13 -18 8 8 8 7 -6 -11 -7 -12 73 -146 73 -146
8 7 8 8 -4 -10 -3 -10 19 -42 19 -42 10 6 10 6 -6 -11 -7 -10 6 -16 6 -16 11
7 10 6 -6 -11 -7 -10 6 -16 6 -16 11 7 10 6 -6 -11 -7 -10 6 -16 6 -16 11 7
10 6 -7 -11 -6 -11 37 -75 37 -74 25 1 26 2 1 -40 0 -40 25 -42 24 -43 17 0
17 0 65 62 65 61 -4 7 -4 7 13 0 13 0 81 63 81 63 -6 10 -6 10 12 -7 11 -7 6
16 7 17 -29 26 -29 27 -38 48 -39 47 -9 -5 -9 -6 0 4 0 3 31 23 31 23 51 -59
52 -58 27 -28 28 -28 12 6 13 7 -35 -28 -35 -29 -47 -44 -48 -43 6 -9 5 -9
-13 5 -13 5 -100 -91 -100 -91 3 -11 4 -12 -8 7 -7 7 -36 -29 -36 -29 -43 -40
-44 -40 5 -8 6 -9 -17 -2 -17 -2 -50 -6 -50 -6 50 37 50 38 33 30 32 31 0 12
0 12 -41 82 -41 83 -24 56 -25 56 -19 20 -18 20 -79 155 -78 155 -39 82 -39
83 -29 50 -28 50 -22 0 -22 0 -55 -43 -56 -44 -23 -12 -23 -12 7 -11 7 -11
-11 7 -11 7 -83 -57 -83 -56 -14 -13 -14 -13 7 -25 6 -26 34 -36 34 -36 44 27
43 27 86 64 87 63 12 0 11 0 45 -95 44 -95 0 -10 0 -11 8 5 8 5 -4 -31 -5 -31
10 6 9 6 0 -19 0 -19 -4 4 -5 4 -19 -10 -19 -10 7 -11 7 -11 -10 6 -11 7 -38
-31 -39 -31 -65 -38 -65 -38 -110 -85 -110 -85 -48 -43 -48 -43 5 -13 5 -13
-7 2 -7 3 -32 -24 -32 -24 6 -11 6 -11 -8 7 -8 8 -33 -25 -33 -25 -10 0 -11 0
0 8 0 7 -46 60 -46 60 -9 20 -10 20 -12 20 -12 20 -23 37 -23 37 13 15 13 14
38 -60 37 -59 12 7 11 7 -7 -12 -7 -11 21 -30 22 -30 9 6 9 5 -1 -8 -1 -8 1
-10 1 -10 18 -23 18 -24 80 82 79 82 -3 10 -2 9 8 -5 9 -6 18 20 18 20 19 0
18 0 0 8 0 8 -63 94 -62 95 -30 50 -29 50 -16 26 -15 26 -44 74 -43 74 -38 65
-39 65 -15 35 -15 35 -5 18 -6 17 -16 7 -16 6 -32 -35 -31 -36 -70 -47 -70
-47 3 -10 2 -9 -11 7 -12 7 -18 -24 -19 -24 -10 15 -10 15 0 17 0 17 20 11 21
11 -7 11 -7 11 10 -6 11 -7 108 86 109 86 40 30 40 30 -3 10 -2 9 10 -6 11 -7
38 35 39 35 20 11 21 11 14 -6 14 -5 53 45 54 46 2 0 2 0 11 -14z m1747 -195
l58 -50 8 5 8 5 -2 -13 -3 -13 13 3 13 2 -5 -9 -6 -9 27 -21 26 -22 -11 -11
-11 -11 -53 45 -53 45 -37 22 -38 22 -27 -3 -28 -3 3 -13 2 -13 -8 5 -9 5 -51
-37 -51 -37 -56 -38 -55 -38 6 -11 7 -11 -11 7 -11 6 -6 -10 -6 -10 -19 0 -18
0 -6 -15 -5 -14 15 -16 16 -15 9 6 9 5 -2 -9 -3 -10 43 -41 43 -41 12 6 12 7
-8 -8 -7 -8 16 -18 17 -19 11 7 11 6 -8 -8 -7 -8 16 -18 17 -19 9 6 8 5 -2 -8
-2 -8 106 -108 105 -107 11 0 12 0 0 -15 0 -15 49 -51 49 -51 13 7 12 8 -6
-10 -7 -11 40 -36 40 -36 27 18 28 17 55 36 55 36 28 17 27 16 0 10 0 10 -32
30 -33 29 16 1 17 0 12 -15 12 -15 9 6 9 5 -1 -8 -1 -8 1 -13 1 -13 10 6 10 6
-6 -15 -6 -16 16 -6 16 -6 0 -7 0 -8 -26 -11 -25 -12 7 -13 7 -12 -8 7 -8 7
-29 -15 -29 -15 7 -11 7 -11 -12 7 -12 8 -47 -30 -47 -29 -58 -32 -57 -33 5
-9 6 -9 -13 5 -13 5 -40 -23 -40 -24 3 -12 2 -12 -9 5 -10 6 -45 -31 -46 -31
6 -10 7 -11 -10 6 -10 7 -18 -20 -18 -20 -11 0 -12 0 -73 76 -73 77 56 56 56
57 0 8 0 8 -36 44 -36 44 -10 0 -10 0 -42 -32 -41 -32 -50 -45 -50 -44 2 -8 3
-9 -8 3 -7 2 -23 -23 -24 -24 28 -29 27 -28 9 5 8 5 -2 -9 -3 -9 33 -47 33
-46 11 6 11 7 -7 -12 -8 -12 13 -17 14 -17 -25 20 -25 20 -44 43 -43 43 -17
-13 -16 -13 14 18 14 17 -18 20 -18 20 -9 0 -8 0 -40 -36 -40 -36 7 -11 6 -10
-10 6 -10 7 -27 -25 -27 -25 -30 0 -29 0 0 5 0 5 45 41 45 41 -7 11 -6 10 9
-6 10 -6 110 92 110 92 65 54 64 55 -2 5 -1 6 23 1 23 2 63 -56 64 -55 14 -20
14 -20 -19 -16 -20 -16 -40 -32 -39 -32 19 -33 19 -33 14 -28 14 -27 10 0 10
0 73 63 73 62 42 28 41 28 0 8 0 8 -30 42 -31 42 -17 6 -17 6 -48 51 -47 51
-13 -3 -12 -4 7 8 7 7 -127 135 -127 134 -79 64 -80 64 -22 0 -21 0 -27 -21
-26 -21 6 -10 7 -11 -12 7 -11 7 -38 -29 -37 -29 -23 -12 -23 -12 7 -11 7 -11
-11 7 -12 7 -45 -31 -45 -31 0 -10 0 -11 33 -31 32 -31 8 2 8 2 -5 -8 -5 -8
30 -45 29 -44 0 -10 0 -10 -32 -22 -32 -23 -7 8 -7 7 -61 120 -61 119 0 7 0 7
93 62 92 62 -3 10 -2 9 8 -5 9 -6 60 38 59 37 16 10 17 10 93 64 93 65 60 49
60 50 -2 8 -3 8 13 -4 12 -5 45 30 45 29 17 0 16 1 58 -49z m664 -145 l0 -35
-47 -37 -48 -38 -37 -35 -37 -34 6 -10 6 -10 -12 8 -12 7 -24 -22 -24 -23 6
-10 6 -10 -11 7 -12 7 -29 -22 -30 -22 6 -10 6 -10 -11 7 -11 7 -26 -17 -25
-16 6 -9 5 -9 -9 2 -10 3 -51 -39 -51 -38 7 -11 6 -10 -10 6 -11 7 -32 -29
-33 -28 8 -13 8 -13 -11 7 -12 7 0 -20 0 -21 13 -1 12 -1 8 1 8 1 -5 -9 -6 -9
15 -12 14 -12 12 8 12 7 -6 -10 -7 -10 32 -27 32 -26 14 0 14 0 31 22 32 22 5
4 5 4 -35 29 -34 29 9 9 10 8 68 52 67 52 25 9 24 9 -5 -12 -4 -13 65 -94 65
-94 6 -18 5 -18 11 6 11 7 -7 -11 -7 -12 13 -18 13 -19 18 3 17 2 -6 -9 -5 -9
-10 6 -11 6 4 -80 3 -80 -6 4 -6 3 -33 -34 -33 -34 36 -45 37 -44 0 -16 0 -16
-24 10 -24 9 -5 -5 -5 -6 -41 56 -42 56 -10 0 -11 0 33 28 33 27 38 37 38 37
0 13 0 13 -14 40 -14 40 -16 3 -16 3 -30 -21 -30 -22 6 -10 7 -11 -11 6 -10 7
-51 -40 -50 -40 -41 -21 -40 -21 7 -11 6 -10 -11 7 -11 7 -31 -16 -31 -16 7
-11 7 -11 -11 7 -12 7 -20 -11 -21 -11 7 -11 7 -11 -12 7 -11 7 -71 -40 -71
-41 -21 0 -20 0 54 39 54 39 118 71 118 71 9 0 9 0 31 29 32 29 64 37 64 38 0
13 0 14 -31 27 -31 28 -30 43 -29 42 -11 0 -11 0 -38 -17 -38 -18 -1 -7 0 -7
35 -35 35 -35 0 -4 0 -4 -13 0 -12 0 -57 -38 -58 -38 5 -7 5 -8 -21 5 -20 6
-64 63 -63 64 -18 1 -19 1 13 5 13 5 -26 34 -26 33 42 38 42 38 23 16 24 16
-7 7 -8 8 12 -4 11 -3 51 39 51 38 -7 11 -6 10 12 -7 12 -8 42 38 42 39 -3 10
-4 10 8 -7 7 -8 61 57 61 57 -3 9 -2 8 8 -5 9 -5 59 49 59 49 8 1 7 0 0 -34z
m-1920 4 l11 -21 11 7 11 7 -7 -11 -6 -11 32 -65 32 -65 9 6 10 6 -6 -11 -7
-10 6 -16 6 -16 9 6 9 5 -7 -17 -6 -17 13 8 13 8 -7 -11 -7 -11 57 -116 56
-115 11 7 10 6 -6 -10 -7 -11 40 -78 40 -78 0 -14 0 -13 9 6 10 5 7 -11 7 -12
-11 7 -12 7 0 -11 0 -12 28 -51 29 -52 6 -27 7 -27 -10 -6 -10 -6 6 -10 5 -9
-9 2 -10 3 -41 -30 -41 -30 0 -7 0 -8 -10 0 -9 0 -51 50 -50 51 0 5 0 5 -27
35 -28 34 -18 0 -18 0 -29 -22 -29 -21 5 -9 5 -8 -13 2 -13 3 0 -15 0 -15 13
3 13 2 -6 -10 -7 -11 56 -65 56 -66 0 -7 0 -8 -32 5 -32 5 -73 75 -73 75 0 10
0 9 25 20 25 20 -6 10 -7 11 10 -6 10 -6 63 54 63 55 16 -14 16 -15 33 -63 33
-63 18 -24 18 -24 27 7 27 7 -7 11 -7 11 11 -7 12 -7 20 11 20 11 0 12 0 12
-70 144 -70 143 0 11 -1 12 -26 19 -26 19 -11 -15 -11 -15 -90 -66 -90 -67
-62 -46 -62 -46 -28 -24 -28 -25 -47 -31 -47 -31 6 -10 6 -10 -11 7 -11 7 -60
-53 -59 -53 3 -12 4 -12 -14 6 -15 5 -6 -17 -7 -18 10 -16 10 -16 -64 -3 -63
-3 0 8 0 8 44 30 45 30 18 30 18 30 -3 8 -2 8 8 -5 9 -5 24 25 24 26 75 54 75
54 55 45 55 46 -3 10 -2 10 9 -5 9 -6 83 51 83 52 51 40 50 40 -2 11 -2 11
-16 60 -17 60 -54 113 -53 112 -15 0 -15 0 -83 -63 -83 -63 -48 -33 -47 -32
-9 5 -9 6 -5 20 -5 21 106 74 107 74 50 36 49 35 8 0 7 0 11 -20z m1436 -22
l29 -31 -11 6 -10 6 -59 -69 -59 -69 -4 3 -4 4 10 19 10 19 -10 18 -11 19 11
-7 10 -6 26 34 26 35 0 19 0 19 7 6 6 7 2 0 1 0 30 -32z m-2794 4 l-5 -15 14
8 14 8 -7 -7 -6 -8 39 -51 39 -52 0 -8 0 -8 10 6 10 6 -1 -8 -1 -8 1 -13 1
-13 12 7 11 7 -7 -11 -6 -10 31 -51 32 -51 10 7 10 6 -7 -12 -8 -12 12 -14 12
-15 9 6 9 5 -6 -14 -5 -14 27 -32 27 -33 22 24 22 23 44 37 44 37 45 29 45 29
13 -5 12 -4 0 -18 0 -18 -35 -22 -35 -22 6 -10 7 -11 -11 7 -12 7 -45 -26 -45
-27 7 -10 6 -11 -11 7 -12 7 -112 -82 -113 -81 3 -9 2 -9 -7 2 -8 3 -38 -23
-37 -24 5 -9 6 -9 -15 6 -16 6 0 39 0 39 10 0 10 0 0 -10 0 -10 11 0 11 0 56
51 57 51 28 10 27 10 0 10 0 10 -19 26 -18 27 -4 10 -4 10 -60 90 -59 90 -15
25 -14 25 -17 35 -18 35 -6 21 -6 21 14 0 14 0 -6 -15z m3280 -121 l4 -29 -18
-11 -19 -12 7 -11 7 -11 -11 7 -12 7 -60 -42 -60 -43 0 -8 0 -7 41 -58 41 -58
8 2 9 3 -6 -17 -6 -16 13 8 13 8 -6 -11 -7 -10 6 -16 6 -16 11 7 10 6 -6 -10
-7 -11 17 -33 16 -33 7 -38 7 -37 -6 3 -6 4 -49 79 -49 78 -46 72 -46 73 -7 0
-7 0 -47 -41 -47 -40 -23 -16 -24 -15 7 -12 6 -11 -8 7 -8 8 -38 -22 -39 -22
0 -20 0 -21 35 -24 36 -24 -4 -11 -4 -11 -16 -3 -17 -3 -51 49 -52 49 79 67
79 68 90 63 90 63 75 66 75 66 6 0 7 0 4 -29z m-3299 -1 l-5 -20 -4 0 -4 0 0
20 0 20 9 0 9 0 -5 -20z m47 -43 l9 3 -5 -13 -5 -13 31 -39 30 -38 0 -9 0 -9
12 7 11 7 -7 -12 -8 -12 12 -14 12 -15 11 7 10 6 -7 -11 -7 -11 15 -29 15 -29
-65 -52 -64 -52 -6 16 -7 16 42 36 42 35 -14 17 -14 16 -12 34 -11 34 -25 25
-25 25 0 16 0 16 -6 40 -5 40 16 -20 16 -20 9 2z m3255 -57 l0 -30 -14 0 -13
0 5 -19 5 -20 -16 6 -15 6 8 -19 8 -19 5 -27 4 -28 7 4 6 4 -4 -51 -3 -52 -20
50 -19 50 -31 39 -31 39 10 16 10 16 47 33 48 32 2 0 1 0 0 -30z m-3259 -121
l16 -31 -16 -16 -16 -16 0 16 0 16 -6 31 -6 31 5 0 6 0 17 -31z m606 -54 l20
-25 8 5 8 5 -2 -18 -1 -17 13 3 13 2 -6 -11 -7 -11 27 -28 28 -29 9 5 8 5 -2
-13 -3 -13 11 2 12 2 -2 -17 -1 -17 15 3 15 4 -7 -7 -7 -8 10 -19 10 -19 12 8
12 7 -18 -27 -18 -28 6 -8 5 -9 -24 6 -24 7 -60 75 -60 75 -24 27 -23 26 -21
6 -21 6 -13 -15 -12 -15 -9 0 -9 0 -61 -45 -61 -45 -13 0 -13 0 -6 -16 -6 -15
15 -30 16 -30 10 6 9 6 -2 -9 -3 -10 43 -61 43 -62 11 7 11 7 -7 -11 -7 -12
59 -90 59 -89 4 4 5 4 0 -18 0 -17 -33 11 -33 12 -18 19 -18 19 -60 85 -61 85
-53 78 -53 77 -14 -12 -14 -12 5 -19 5 -19 -6 6 -6 5 -29 -15 -29 -15 7 -11 7
-11 -11 7 -12 7 -40 -22 -40 -23 0 -8 0 -8 -15 0 -15 0 0 -5 0 -4 11 -25 12
-25 8 4 7 5 -4 -17 -4 -18 13 -45 14 -45 16 -3 16 -3 49 45 49 46 10 0 10 0
13 -25 13 -24 7 4 8 5 13 -18 14 -17 -17 14 -18 13 0 -10 0 -11 -43 -26 -44
-25 -44 0 -44 0 -21 6 -22 6 -32 69 -32 70 -5 30 -4 31 17 19 17 19 11 1 11 0
56 42 57 42 51 38 51 39 -7 10 -6 11 12 -7 11 -7 26 20 27 21 12 0 12 0 18 20
18 20 46 27 46 27 40 22 40 23 14 0 13 1 20 -25z m1675 -31 l-6 -6 -13 5 -13
5 19 1 19 1 -6 -6z m-2304 -64 l5 -20 -8 5 -8 5 -5 20 -5 20 8 -5 8 -5 5 -20z
m2657 20 l0 -10 -11 0 -10 0 6 10 6 10 5 0 4 0 0 -10z m25 -30 l6 -10 -10 0
-11 0 0 10 0 10 4 0 5 0 6 -10z m-1157 -7 l-3 -8 14 -32 13 -33 11 7 10 6 -7
-11 -7 -11 32 -68 31 -68 8 -30 7 -31 -18 -1 -17 -2 -22 52 -23 52 -29 43 -30
43 -25 12 -24 11 -7 -10 -7 -9 -62 -54 -63 -53 7 -11 6 -10 -10 6 -11 7 -31
-16 -31 -16 5 -8 5 -8 -16 2 -16 1 -12 -18 -11 -18 20 -12 20 -11 8 -1 7 0 1
-10 0 -10 21 -22 21 -22 10 6 10 6 -6 -10 -7 -11 21 -26 21 -26 6 4 7 4 1 -21
2 -22 -23 -1 -22 -2 -39 37 -39 37 -42 47 -43 47 -11 0 -11 0 5 -14 6 -15 -15
6 -15 5 -40 -41 -39 -42 6 -11 7 -11 -12 7 -11 7 -6 -15 -6 -14 11 -20 10 -19
-37 6 -37 6 0 24 0 25 61 50 61 51 113 90 113 90 111 72 111 72 3 0 2 1 -2 -7z
m897 -163 l6 -10 11 6 10 6 -17 -25 -16 -26 -55 -42 -54 -41 0 -9 0 -8 13 -8
12 -8 7 0 6 0 9 -9 8 -9 -12 7 -13 7 0 -9 0 -10 13 -11 14 -11 8 8 8 7 -6 -11
-7 -12 29 -32 28 -33 9 6 9 5 0 -22 0 -21 -42 5 -42 5 -71 79 -70 79 0 7 0 7
20 18 20 18 -7 10 -6 10 12 -7 11 -7 60 52 60 52 -6 9 -6 10 20 -11 21 -11 6
-10z m-2095 -63 l10 3 -1 -8 -1 -7 1 -13 1 -13 10 6 10 6 -1 -8 -1 -8 1 -13 1
-13 13 7 12 7 -7 -8 -7 -8 10 -19 10 -19 8 6 9 5 -2 -18 -1 -17 11 2 12 2 -2
-17 -1 -17 13 3 13 2 -5 -8 -5 -9 24 -36 25 -36 0 -3 0 -3 -75 3 -75 4 0 8 0
8 25 6 25 6 0 16 0 15 -23 22 -24 22 -27 48 -28 47 -17 0 -17 0 -32 -33 -32
-33 5 -7 5 -7 -7 5 -6 5 -13 -11 -13 -11 -11 7 -10 6 0 12 0 12 -16 30 -15 29
7 -7 7 -7 48 27 48 26 -6 10 -6 10 12 -7 11 -7 25 19 24 19 -2 5 -2 4 23 -26
22 -25 10 2z m2890 5 l8 -31 -8 2 -8 2 -31 -23 -32 -23 6 -9 6 -10 -14 6 -14
5 -13 -16 -12 -15 -14 0 -14 0 0 -16 0 -15 12 7 11 7 -6 -10 -6 -10 44 -49 45
-49 0 -7 0 -8 -16 0 -16 0 -19 22 -19 23 -35 57 -36 57 -14 -6 -15 -5 7 -12 6
-11 -8 7 -8 7 -29 -15 -29 -15 6 -8 5 -9 -18 2 -17 1 3 -13 2 -13 -10 6 -10 6
-20 -14 -20 -14 8 -9 7 -9 -9 8 -9 7 -18 -16 -17 -15 -29 3 -28 3 42 29 43 28
-7 11 -6 10 10 -6 11 -7 85 44 86 44 -7 6 -6 7 14 -6 15 -5 50 41 50 42 -2 8
-3 8 14 -5 13 -5 13 16 13 15 4 -3 4 -4 9 -31z m-1737 -89 l19 -23 9 6 9 5 -2
-9 -3 -10 29 -36 28 -36 12 7 11 6 -7 -8 -7 -8 10 -19 10 -19 17 13 17 13 -14
-17 -13 -18 -27 0 -26 0 -60 71 -60 71 -6 17 -7 17 22 0 21 0 18 -23z m1792
-72 l1 -29 -18 9 -18 10 0 9 0 9 18 10 17 10 0 1 0 0 0 -29z m-2071 -14 l7 7
-7 -19 -7 -18 17 6 17 7 -7 -11 -7 -11 13 -8 13 -8 -6 -9 -6 -10 -47 5 -47 4
7 -10 6 -10 -22 5 -23 6 -12 10 -13 9 2 23 2 24 6 -4 5 -3 30 24 29 23 21 -19
21 -20 8 7z m1865 -9 l20 -33 17 -23 16 -22 -17 0 -17 0 -5 20 -5 20 -23 6
-23 6 -30 -22 -29 -21 -39 3 -39 3 70 47 70 47 7 1 6 0 21 -32z m-916 -15 l9
-14 16 12 17 13 -12 -14 -13 -14 17 -19 17 -18 -64 7 -65 7 -4 3 -4 4 27 21
26 21 -5 9 -6 9 18 -7 18 -6 8 -14z m-2152 0 l14 -18 -17 14 -18 13 0 4 0 4 4
0 4 0 13 -17z m39 -18 l12 -15 -16 0 -16 0 0 15 0 15 4 0 4 0 12 -15z m300 -1
l0 -3 -9 -6 -10 -5 -5 8 -5 9 14 0 15 0 0 -3z m2551 -41 l14 -18 -17 14 -18
13 0 4 0 4 4 0 4 0 13 -17z m169 7 l0 -10 -20 0 -20 0 0 10 0 10 20 0 20 0 0
-10z m-1699 -27 l14 -18 -17 14 -18 13 0 4 0 4 4 0 4 0 13 -17z m364 -1 l-5
-6 -13 13 -12 12 18 -7 18 -6 -6 -6z m401 9 l-6 -9 -20 -5 -20 -5 0 8 0 9 23
4 22 4 3 2 3 1 -5 -9z m-606 -7 l0 -3 -9 -6 -10 -5 -5 8 -5 9 14 0 15 0 0 -3z"/>
<path d="M1580 4841 l0 -9 20 5 20 5 0 4 0 4 -20 0 -20 0 0 -9z"/>
<path d="M1092 3119 l-77 -81 -75 -75 -75 -75 3 -11 4 -12 -8 7 -7 8 -91 -83
-91 -82 -87 -90 -88 -90 0 -11 0 -10 58 -41 57 -40 73 -62 73 -61 10 0 9 0 30
33 29 32 1 13 0 12 -18 0 -18 0 -62 63 -62 63 0 10 0 10 88 86 88 85 19 -13
18 -13 9 5 8 5 -2 -13 -3 -13 13 3 13 2 -5 -9 -6 -9 14 -11 13 -11 7 7 7 7 -5
-14 -6 -15 85 -88 84 -89 12 8 12 7 -6 -10 -6 -10 75 -67 76 -66 10 6 11 7 -6
-10 -7 -11 14 -11 13 -11 8 8 8 7 -6 -11 -6 -11 15 -22 15 -21 11 6 11 7 -6
-10 -6 -10 33 -32 32 -31 8 7 8 8 -4 -15 -3 -15 15 3 15 4 -8 -8 -7 -8 22 -24
23 -24 -45 -39 -45 -39 -66 -45 -66 -45 -11 0 -11 0 -43 65 -42 65 -16 0 -16
0 -34 -35 -33 -34 11 -26 12 -26 10 6 10 6 -5 -13 -5 -13 54 -77 53 -78 6 6 5
5 -2 -17 -1 -17 14 -5 14 -5 -7 12 -7 11 13 -5 14 -6 24 26 24 26 91 56 90 57
66 50 67 51 113 79 114 79 53 24 52 24 0 23 0 23 -49 81 -48 81 -30 38 -29 38
-30 47 -29 47 -6 1 -7 0 -35 -35 -35 -35 -11 0 -11 0 0 -10 0 -10 38 -42 37
-43 5 -5 5 -5 30 -40 29 -39 18 -18 18 -18 -23 -11 -22 -12 -53 -39 -53 -39 5
-7 5 -8 -20 -1 -20 -2 -47 36 -47 36 -270 274 -270 275 -8 15 -9 14 37 45 37
45 42 43 43 43 16 0 16 0 -4 -8 -5 -7 14 -11 13 -11 6 5 7 5 -5 -7 -5 -7 26
-27 27 -28 11 6 11 6 -8 -8 -7 -9 21 -22 22 -23 9 5 8 5 -1 -8 -1 -8 1 -12 1
-13 20 0 20 0 0 9 0 10 50 32 49 32 -11 21 -11 21 -56 65 -56 65 -64 62 -64
63 -8 0 -9 0 -78 -81z m108 11 l21 -21 10 6 9 6 -2 -13 -3 -13 13 3 12 2 -2
-7 -2 -8 18 -27 18 -28 9 6 9 5 -2 -13 -3 -13 13 3 12 2 -2 -9 -3 -9 23 -31
23 -32 8 5 8 5 -1 -18 -1 -19 -26 -21 -26 -20 -80 82 -80 82 -7 19 -7 20 -60
-60 -59 -59 4 -12 5 -13 -10 3 -9 2 -49 -55 -50 -55 11 -6 10 -6 -17 -7 -16
-6 6 -10 6 -10 12 6 12 7 -8 -8 -7 -9 36 -37 37 -38 10 6 10 6 -7 -12 -8 -12
53 -47 53 -47 10 3 11 4 -8 -8 -7 -7 16 -18 17 -19 10 7 10 6 -6 -10 -6 -10
66 -66 66 -67 10 7 10 6 -8 -12 -7 -13 42 -43 43 -44 9 5 8 5 -2 -13 -3 -13
13 3 13 2 -5 -9 -6 -9 41 -36 42 -35 10 6 10 6 -7 -11 -6 -11 52 -40 52 -39
26 13 25 13 19 21 18 20 67 43 66 43 7 9 6 9 -15 15 -15 15 -25 41 -25 41 -40
42 -41 41 22 28 21 27 1 -7 2 -6 1 -7 1 -8 8 -13 8 -12 11 6 11 7 -7 -12 -8
-12 12 -14 12 -15 8 5 8 5 -2 -18 -1 -17 13 3 13 2 -6 -9 -6 -10 17 -26 16
-25 9 6 9 5 -1 -8 -1 -8 1 -13 1 -13 10 6 10 6 -5 -14 -6 -13 26 -38 26 -38
-3 -2 -3 -2 -43 -19 -42 -18 -6 6 -6 6 -37 -34 -36 -34 -85 -57 -85 -56 -48
-35 -47 -35 7 -10 6 -11 -12 7 -12 8 -17 -15 -17 -15 -33 -16 -33 -17 7 -11 7
-11 -11 7 -11 6 -64 -45 -65 -45 -11 0 -11 0 0 10 0 11 -37 52 -38 53 -12 21
-12 21 23 21 23 22 7 -16 6 -16 11 7 12 7 -6 -10 -6 -10 15 -22 15 -21 11 6
11 7 -7 -11 -7 -11 16 -31 16 -30 4 0 5 0 87 62 88 63 48 37 49 38 14 0 15 0
5 13 5 14 -98 99 -98 99 -50 54 -50 53 -55 46 -55 46 -118 120 -118 121 -26
38 -26 37 -9 0 -10 0 -43 -47 -44 -47 6 -10 6 -9 -10 6 -11 7 -71 -70 -71 -69
0 -9 0 -9 18 -16 19 -17 8 7 8 8 -6 -11 -7 -12 65 -58 66 -58 -15 -14 -15 -15
-68 61 -68 60 -29 31 -30 31 13 23 13 24 181 173 182 174 109 113 109 113 4 0
3 0 20 -20z"/>
</g>
</svg>
