<?xml version="1.0" standalone="no"?>
<!DOCTYPE svg PUBLIC "-//W3C//DTD SVG 20010904//EN"
 "http://www.w3.org/TR/2001/REC-SVG-20010904/DTD/svg10.dtd">
<svg version="1.0" xmlns="http://www.w3.org/2000/svg"
   viewBox="0 0 304.000000 510.000000"
 preserveAspectRatio="xMidYMid meet">
<metadata>
Created by potrace 1.16, written by Peter Selinger 2001-2019
</metadata>
<g transform="translate(0.000000,510.000000) scale(0.100000,-0.100000)"
fill="#006400" stroke="none">
<path d="M471 5051 l76 -48 46 -27 46 -27 38 -38 38 -38 90 -51 90 -50 57 -22
56 -21 34 -24 33 -24 50 -25 50 -25 45 -27 45 -26 24 -19 24 -19 11 0 12 0 44
92 45 92 104 165 103 166 21 23 20 22 -14 0 -14 0 -112 -168 -111 -167 -23
-40 -22 -40 -25 -50 -25 -50 -9 -12 -9 -11 -57 34 -57 33 -15 14 -15 13 -50
29 -50 29 -64 33 -64 33 -12 0 -13 0 -48 33 -49 33 -35 14 -35 14 -45 42 -45
42 -45 31 -45 32 -35 23 -35 23 -14 17 -13 16 -37 0 -36 0 76 -49z"/>
<path d="M555 5068 l39 -33 51 -46 50 -47 94 -57 93 -57 37 -13 36 -13 95 -50
95 -50 79 -41 79 -41 3 0 3 0 37 63 38 62 23 31 22 30 26 57 25 58 55 80 55
80 -1 12 0 12 -12 -19 -12 -19 -44 -66 -44 -66 -34 -69 -35 -70 -50 -78 -51
-78 -10 0 -9 0 -132 67 -131 67 -35 22 -35 23 -30 7 -29 7 -36 20 -35 20 -83
55 -83 55 -7 11 -7 11 -50 41 -50 41 -15 7 -15 7 40 -33z"/>
<path d="M570 5098 l5 -5 55 -44 55 -44 45 -30 45 -30 261 -131 261 -130 23
40 24 41 42 80 42 80 37 65 37 65 21 25 21 25 -26 -25 -27 -25 -35 -60 -36
-60 -36 -73 -36 -74 -30 -44 -30 -45 -7 3 -6 3 -230 114 -230 115 -55 35 -55
36 -55 40 -55 41 -15 9 -15 8 5 -5z"/>
<path d="M713 5050 l76 -50 168 -86 167 -86 20 -14 20 -14 13 0 12 0 50 -29
50 -30 45 92 45 91 -4 4 -3 4 -41 -86 -41 -86 -4 0 -3 0 -209 106 -209 106
-55 31 -55 31 -49 33 -48 33 -11 0 -10 0 76 -50z"/>
<path d="M752 5088 l5 -13 44 -27 44 -28 70 -33 70 -34 69 -42 70 -42 75 -29
75 -29 2 2 2 2 29 65 30 65 51 78 51 77 -13 0 -13 0 -50 -77 -50 -78 -16 -32
-17 -32 0 -15 0 -15 -8 -5 -8 -5 -67 25 -68 24 -27 19 -27 18 -35 22 -35 21
-70 35 -70 36 -50 29 -50 30 -8 0 -9 0 4 -12z"/>
<path d="M1450 5062 l-25 -37 -23 -39 -22 -39 4 -4 5 -5 17 34 17 33 29 43 30
43 -4 4 -3 4 -25 -37z"/>
<path d="M1890 5054 l-35 -45 1 -14 2 -14 -8 2 -7 2 -36 -42 -35 -43 -22 -35
-21 -35 7 -12 7 -13 -8 7 -8 8 -19 -31 -18 -30 6 -10 5 -9 -11 2 -11 3 -25
-44 -25 -44 5 -14 6 -14 -9 6 -9 5 -31 -42 -31 -43 5 -13 5 -13 -10 6 -11 7
-11 -34 -12 -33 2 -8 2 -8 -9 6 -10 6 -27 -40 -26 -40 8 -12 7 -12 -11 7 -12
7 0 -11 0 -11 -47 -72 -47 -72 -24 -45 -24 -45 -55 -82 -55 -82 8 -12 7 -12
-10 6 -11 7 -51 -71 -51 -70 5 -10 6 -9 -9 2 -10 3 -24 -32 -23 -32 -33 -46
-33 -45 7 -12 7 -11 -10 6 -11 7 -31 -49 -31 -48 -20 -18 -19 -17 -50 31 -51
31 -32 15 -33 16 -30 17 -30 18 -50 29 -50 29 -85 54 -85 55 -53 36 -53 36
-40 23 -39 23 -16 -9 -16 -9 -74 -89 -74 -89 0 -17 0 -18 4 0 4 0 40 53 40 54
44 47 43 47 29 -15 29 -15 51 -36 51 -36 80 -51 80 -51 50 -30 50 -30 40 -22
40 -22 60 -33 60 -33 32 -23 32 -24 13 0 14 0 72 108 72 107 87 111 88 111 73
119 73 119 56 90 56 90 20 40 19 40 33 45 32 45 23 48 24 47 17 19 17 18 27
54 28 54 17 25 18 25 27 48 27 49 79 105 79 106 0 8 0 9 -12 0 -13 -1 -35 -45z"/>
<path d="M1973 5068 l-19 -33 -18 -35 -19 -35 -44 -60 -44 -60 -30 -54 -31
-53 11 6 10 7 33 60 32 61 29 31 29 31 30 60 31 61 15 18 15 17 -5 6 -6 5 -19
-33z"/>
<path d="M2026 5085 l-6 -17 0 -6 1 -7 10 18 11 19 -5 4 -5 5 -6 -16z"/>
<path d="M2061 5073 l-11 -28 15 19 15 20 0 8 0 8 -3 0 -4 0 -12 -27z"/>
<path d="M2082 5048 l-29 -53 -43 -75 -42 -75 -15 -17 -15 -17 8 -12 7 -12
-11 7 -12 7 0 -10 0 -11 -10 0 -10 0 25 50 25 50 -5 0 -5 0 -30 -57 -31 -58
-62 -107 -63 -107 -15 -18 -16 -18 -74 -118 -74 -118 -53 -82 -52 -82 -26 -50
-26 -50 6 6 6 5 56 95 56 94 66 100 65 100 62 95 62 95 33 60 33 60 18 22 17
23 5 -19 4 -18 -35 -53 -35 -53 -36 -62 -36 -62 -30 -52 -30 -52 -70 -109 -70
-109 -38 -63 -38 -63 -75 -125 -75 -125 -42 -56 -42 -57 -89 -118 -90 -119
-48 -56 -48 -56 8 -8 7 -8 -12 6 -11 7 -37 -42 -36 -43 -27 16 -27 17 -85 50
-85 51 -100 64 -100 64 -35 19 -35 19 -36 28 -37 27 -9 0 -10 0 -27 25 -27 25
-22 5 -22 6 -19 -26 -19 -26 -33 -34 -33 -35 -48 -62 -48 -61 3 -9 2 -9 -10 6
-10 6 -7 -16 -6 -17 14 -9 14 -9 25 -7 25 -6 45 -32 45 -32 78 -47 78 -47 11
7 11 7 -7 -11 -6 -10 37 -23 38 -22 90 -57 90 -57 88 -51 89 -52 11 7 12 6 -7
-8 -7 -8 95 -69 95 -69 11 7 11 7 -7 -11 -7 -11 19 -10 19 -10 7 4 6 5 -5 -7
-5 -6 20 -14 20 -14 13 7 12 7 -8 -8 -7 -8 41 -24 41 -23 11 7 12 6 -7 -8 -8
-8 31 -19 30 -18 11 6 11 7 -8 -13 -8 -13 16 6 17 6 -3 -9 -2 -9 59 -35 58
-36 11 7 10 6 -6 -10 -6 -10 77 -43 77 -44 56 -38 57 -37 6 4 6 5 -5 -7 -5 -6
27 -18 27 -18 9 6 10 6 -8 -13 -8 -13 16 6 17 6 -3 -12 -2 -12 17 1 18 2 -6
-9 -5 -9 13 -1 13 -1 8 1 8 1 -6 -9 -6 -10 21 -11 20 -11 10 6 10 6 -2 -12 -3
-13 29 -10 29 -11 4 10 3 10 116 185 116 185 76 125 76 125 50 60 49 60 29 47
30 48 8 0 9 0 6 -11 7 -10 15 5 14 6 -5 -9 -5 -8 90 -52 91 -51 11 7 12 6 -7
-8 -8 -8 20 -14 20 -14 12 7 11 7 -8 -13 -8 -13 17 6 17 7 -5 -9 -5 -8 38 -21
38 -22 7 8 8 7 -4 -15 -3 -15 17 1 18 2 -5 -8 -5 -8 27 -18 27 -17 13 0 12 0
-2 -11 -2 -11 17 1 16 2 -5 -14 -5 -14 -12 0 -12 0 -52 33 -52 32 -83 56 -82
56 -55 33 -55 34 -40 20 -40 20 -6 9 -6 9 -27 -34 -26 -35 0 -6 0 -6 -47 -78
-47 -78 -33 -50 -32 -50 -50 -72 -50 -71 -15 -31 -16 -30 0 -8 1 -8 19 35 18
35 52 75 51 75 27 40 26 40 66 110 66 110 30 -1 31 -2 62 -38 63 -39 105 -70
105 -70 34 -21 35 -21 10 -10 9 -9 -29 -72 -30 -72 4 0 3 0 32 52 32 51 14 14
14 14 0 14 0 14 12 7 11 7 -7 -12 -7 -11 15 -6 15 -6 -15 -15 -15 -16 5 -14 6
-14 -10 6 -9 5 -43 -72 -42 -73 -42 -62 -42 -62 -25 -48 -24 -48 -48 -90 -47
-90 -55 -83 -54 -82 7 -12 7 -11 -11 7 -12 7 0 -9 0 -8 -46 -72 -46 -71 8 -12
7 -12 -11 7 -11 7 -21 -38 -20 -38 -9 -15 -10 -15 -81 -165 -81 -165 -41 -65
-41 -65 -62 -120 -62 -121 -25 -40 -26 -40 -22 -49 -22 -50 -34 -41 -33 -41
-13 -29 -13 -29 -33 -58 -34 -58 6 -15 6 -15 -10 6 -10 6 0 -8 0 -8 -54 -58
-53 -58 -54 21 -54 20 -72 36 -72 36 -38 32 -38 33 -60 40 -60 40 -150 88
-150 88 -95 65 -95 65 -27 25 -27 25 -8 -19 -7 -19 -30 -25 -31 -25 -20 -24
-20 -23 -44 -42 -44 -41 -41 -38 -41 -39 19 -14 19 -13 9 5 8 5 -2 -13 -3 -13
17 1 18 2 -5 -8 -5 -8 16 -6 16 -6 10 7 11 6 -6 -10 -6 -10 25 -12 25 -11 12
6 12 7 -8 -8 -8 -9 68 -32 67 -32 8 5 8 4 -2 -13 -3 -13 17 1 18 2 -5 -8 -5
-8 33 -11 32 -12 38 -25 38 -25 11 7 11 7 -6 -10 -7 -11 16 -6 16 -6 11 7 12
6 -8 -8 -7 -8 27 -19 28 -19 78 -40 78 -40 11 7 11 7 -7 -11 -7 -11 31 -16 31
-16 11 7 11 7 -6 -10 -7 -11 61 -26 61 -26 10 6 11 7 -6 -10 -6 -10 25 -12 25
-11 12 6 12 7 -7 -7 -7 -8 62 -31 62 -32 10 4 10 3 -7 -8 -8 -7 50 -29 51 -29
11 7 11 7 -7 -11 -7 -11 26 -17 26 -17 5 6 6 5 -21 7 -21 6 0 9 0 9 56 -25 55
-24 -6 10 -6 10 -47 25 -47 25 -70 45 -70 46 -45 20 -45 21 -205 100 -205 99
-60 38 -60 38 -47 27 -48 27 0 9 0 10 -22 0 -23 1 -150 77 -151 77 -19 12 -20
12 39 33 38 33 84 82 85 83 9 0 8 0 29 -23 28 -23 100 -66 100 -66 140 -83
140 -83 89 -67 89 -67 36 -19 36 -18 28 -18 28 -19 15 6 15 6 -7 -12 -7 -11
21 5 22 6 -5 -8 -5 -8 26 -6 25 -7 11 7 11 7 -7 -11 -6 -11 10 -6 11 -7 14 12
15 12 -6 9 -5 9 9 -2 9 -3 48 53 48 53 52 103 51 103 27 35 28 36 29 60 29 59
33 54 34 54 14 35 14 35 54 95 55 95 19 35 20 35 17 25 17 25 43 95 43 94 34
59 34 58 0 5 0 4 36 55 36 54 -8 12 -7 12 11 -6 10 -7 46 77 46 78 -5 13 -5
13 9 -5 8 -5 30 42 31 42 39 75 39 75 54 100 53 100 24 32 25 32 -8 12 -7 12
11 -7 11 -7 17 33 17 33 54 83 55 83 -5 14 -5 13 -84 57 -83 58 -102 61 -103
61 -91 50 -91 50 -5 13 -5 12 -19 0 -18 0 -11 -20 -11 -20 7 -12 7 -11 -11 7
-10 6 -35 -57 -36 -58 -31 -30 -32 -30 -25 -42 -25 -42 7 -11 6 -10 -11 2 -11
3 -62 -101 -62 -100 -88 -140 -87 -139 -19 -24 -18 -24 -199 130 -199 130
-120 70 -120 71 -95 53 -95 53 -80 55 -80 55 -36 27 -36 28 -144 84 -144 84
-85 55 -85 54 -100 59 -100 59 -39 28 -39 28 -14 0 -13 0 0 13 0 13 37 45 37
44 48 53 48 54 -7 11 -6 12 8 -7 8 -8 14 11 13 12 20 -18 20 -18 18 -11 19
-11 39 -28 39 -28 80 -49 80 -49 73 -43 73 -43 96 -63 95 -63 8 3 9 3 78 86
79 86 74 99 75 99 22 32 21 31 -6 8 -7 7 12 -7 12 -7 35 53 35 53 30 41 30 41
64 114 63 114 20 34 19 33 85 138 85 138 20 34 20 33 20 35 20 36 59 99 59
100 43 73 44 73 0 4 0 4 55 92 55 92 0 3 0 4 -14 0 -14 0 -30 -52z"/>
<path d="M2361 5053 l-48 -50 -16 -33 -17 -33 0 -19 0 -20 -57 -96 -57 -97
-28 -36 -27 -36 7 -7 7 -8 -15 4 -15 3 2 -18 1 -18 -5 5 -6 5 -77 -152 -77
-152 -82 -160 -82 -160 -17 -24 -17 -24 -20 -48 -21 -48 -20 -23 -21 -23 -32
-65 -31 -65 -51 -65 -51 -65 -51 -60 -52 -60 -50 -55 -50 -55 -18 -13 -17 -13
6 -11 7 -11 -10 6 -10 6 -27 -37 -26 -37 -25 -38 -25 -38 0 -10 0 -9 23 -9 23
-9 30 -25 29 -24 212 -142 213 -141 17 0 18 0 25 32 25 32 38 41 38 40 76 113
75 112 9 6 9 5 15 32 15 32 12 20 13 20 51 80 51 80 42 68 43 67 12 0 13 0
139 -71 139 -72 180 -100 180 -100 37 -25 37 -24 12 8 12 7 -5 -9 -6 -9 24
-18 24 -18 0 24 0 24 -102 59 -103 58 -120 64 -120 64 -70 35 -70 35 -96 54
-97 54 -6 0 -6 0 -25 -37 -25 -38 -42 -65 -43 -65 -15 -26 -15 -26 -20 -33
-20 -33 -51 -76 -51 -76 -24 -35 -24 -35 -43 -58 -43 -57 -45 -53 -45 -52 -15
-17 -16 -17 -42 26 -41 26 -25 17 -25 17 -55 34 -55 35 -116 78 -116 77 -18
20 -18 19 16 34 16 34 60 64 61 65 -8 7 -7 8 13 -4 13 -3 65 75 64 75 85 112
85 111 16 37 15 37 27 42 27 41 25 48 25 48 83 162 83 162 40 75 41 75 44 85
45 85 18 20 18 20 66 115 65 115 35 76 35 76 37 42 38 42 -7 6 -6 7 -49 -51z"/>
<path d="M2445 5049 l-29 -41 -20 -16 -21 -17 -3 -20 -4 -20 -29 -60 -29 -60
-49 -83 -50 -84 -45 -49 -46 -50 0 -11 0 -10 -40 -76 -40 -75 4 -4 3 -4 44 82
44 81 12 22 12 21 31 35 32 35 20 40 21 40 27 40 27 40 43 85 42 85 40 53 40
54 -5 4 -4 4 -28 -41z"/>
<path d="M2505 5039 l-40 -51 -27 -28 -28 -29 0 -17 0 -16 -49 -87 -48 -86
-56 -85 -56 -85 -16 -22 -15 -22 -35 -68 -35 -68 16 20 15 20 41 70 41 70 62
96 63 97 22 43 22 43 43 65 42 66 26 40 27 40 16 23 16 22 -3 0 -4 0 -40 -51z"/>
<path d="M2591 5081 l-1 -13 -27 -34 -28 -34 -29 -35 -28 -36 -18 -32 -17 -32
-48 -78 -47 -78 4 -4 4 -5 73 123 73 122 50 62 50 63 -5 12 -5 13 -1 -14z"/>
<path d="M2701 5087 l5 -6 85 -32 84 -31 80 -29 80 -29 3 0 2 0 0 9 0 9 -32 8
-33 7 -110 43 -110 42 -30 8 -30 7 6 -6z"/>
<path d="M2864 5066 l48 -24 36 -7 36 -7 20 -14 20 -14 10 0 10 0 -22 20 -21
20 -13 0 -13 0 -44 25 -43 25 -36 0 -35 0 47 -24z"/>
<path d="M2960 5085 l0 -5 40 -20 40 -20 0 6 0 6 -22 19 -23 18 -17 1 -18 0 0
-5z"/>
<path d="M0 5050 l0 -20 13 -1 12 -1 8 1 8 1 -7 -11 -7 -12 16 6 17 6 -3 -12
-2 -12 22 1 22 0 -5 -7 -4 -8 20 -6 20 -6 11 6 11 7 44 -23 45 -23 -5 -13 -5
-13 10 0 11 0 29 -21 29 -20 11 7 12 7 -7 -11 -7 -12 13 -1 13 -1 7 1 8 1 -3
-13 -2 -12 22 0 21 0 9 -9 8 -9 -20 6 -20 7 20 -16 20 -16 38 -19 38 -20 11 7
11 7 -6 -10 -6 -10 65 -32 65 -33 15 6 15 6 -5 -9 -5 -8 25 -12 25 -11 11 6
11 7 -7 -11 -6 -10 52 -19 53 -18 12 1 13 2 -6 -9 -5 -9 13 -1 13 -1 8 1 8 1
-5 -9 -6 -10 22 -7 23 -8 8 2 8 2 -7 -11 -7 -12 17 6 17 7 -5 -9 -6 -9 55 -28
55 -28 11 -13 11 -13 8 0 8 0 81 -46 81 -45 0 -4 0 -4 -14 5 -13 5 -7 -16 -6
-17 7 -11 6 -12 -8 7 -8 7 -19 -35 -19 -36 5 -15 6 -14 -11 6 -10 7 -14 -18
-14 -19 4 -13 5 -13 -9 5 -9 6 -12 -15 -12 -14 8 -13 7 -13 -8 7 -8 8 -14 -20
-14 -20 7 -12 7 -11 -10 6 -10 6 -62 -85 -62 -85 7 -11 7 -11 -11 7 -11 6 -6
-9 -6 -10 -53 29 -54 30 -12 0 -13 0 -71 41 -71 40 -27 17 -27 17 -78 46 -78
46 -60 31 -61 31 -59 35 -59 36 -14 0 -14 0 -54 -57 -54 -58 5 -13 5 -13 -9 6
-9 5 -19 -27 -19 -28 -2 -25 -1 -25 27 31 27 31 55 66 55 67 13 0 12 0 40 -25
40 -25 10 0 10 0 0 -11 0 -11 17 6 17 7 -7 -7 -7 -8 47 -22 47 -23 9 6 10 6
-6 -10 -7 -11 16 -6 16 -6 10 7 11 6 -7 -11 -6 -11 11 -7 11 -7 10 14 9 14 -3
-17 -3 -17 84 -50 84 -51 10 7 10 6 -7 -11 -7 -11 72 -36 71 -36 14 5 14 5 -3
-12 -2 -12 17 1 18 2 -5 -8 -5 -8 16 -6 16 -6 18 0 18 0 47 52 46 51 -5 14 -6
14 9 -6 9 -5 84 122 83 123 29 55 29 55 8 3 9 4 0 24 0 24 -51 28 -51 27 -131
78 -132 77 -60 29 -60 29 -95 42 -95 43 -105 61 -105 61 -50 33 -50 32 -132
65 -133 65 -5 0 -5 0 0 -20z"/>
<path d="M2566 4974 l-75 -94 -27 -47 -26 -48 -54 -80 -54 -81 0 -7 0 -8 -36
-56 -35 -55 -6 5 -5 6 30 53 30 53 22 38 22 37 -5 0 -6 0 -34 -57 -34 -58 -32
-58 -32 -59 10 7 11 6 0 -6 0 -6 -20 -40 -21 -40 6 -10 6 -9 -13 2 -13 3 2
-25 2 -25 -5 13 -6 12 -7 0 -7 0 -18 -62 -19 -63 -55 -105 -56 -105 -35 -55
-34 -55 -8 -5 -8 -6 -17 -39 -16 -40 -13 -15 -13 -15 -43 -80 -42 -80 -22 -30
-23 -30 -26 -50 -27 -50 -72 -102 -72 -102 -43 -56 -43 -56 12 -15 12 -15 14
5 14 6 -6 -9 -5 -10 22 -7 23 -8 8 2 8 2 -5 -9 -6 -9 15 -12 14 -12 12 8 12 7
-7 -11 -6 -10 37 -23 38 -23 17 -19 17 -19 27 44 26 43 53 80 52 80 38 60 38
60 23 25 24 26 36 59 36 60 12 30 13 30 35 45 34 45 34 63 35 62 6 0 6 0 79
-45 79 -45 7 0 8 0 71 -45 70 -46 97 -50 97 -49 15 5 14 6 -7 -7 -7 -7 49 -33
50 -34 43 -17 43 -17 46 -33 46 -33 12 0 11 0 -1 13 0 12 -59 38 -59 38 -33
11 -33 12 -63 43 -63 43 -11 0 -11 0 -81 41 -80 42 -60 36 -61 37 -85 43 -85
43 -16 14 -16 14 -15 0 -15 0 -33 -62 -34 -63 -53 -79 -53 -78 0 -8 0 -8 -35
-58 -35 -58 -24 -26 -23 -25 -38 -60 -38 -60 -38 -55 -38 -55 -28 -47 -28 -48
-6 0 -6 0 -83 65 -83 65 -9 0 -8 0 0 17 0 17 38 45 38 46 60 89 59 89 25 47
25 47 28 40 27 40 28 50 27 51 39 69 39 68 52 80 53 80 21 45 21 45 31 55 31
55 16 25 17 25 22 45 23 45 0 12 0 12 22 43 22 43 42 62 42 62 7 21 7 22 52
78 51 78 25 42 25 43 50 61 50 62 16 23 15 24 85 -35 84 -36 43 -16 42 -16 24
0 23 0 47 -25 46 -24 0 14 0 14 -32 15 -33 15 -90 30 -90 30 -77 29 -77 30
-75 -94z"/>
<path d="M1995 5020 l-16 -30 5 0 5 0 16 30 16 30 -5 0 -5 0 -16 -30z"/>
<path d="M2029 5018 l-12 -23 -15 -25 -14 -25 17 20 17 20 14 28 15 27 -5 0
-5 0 -12 -22z"/>
<path d="M5 4990 l6 -10 11 0 10 0 58 -36 58 -36 34 -12 33 -11 120 -71 120
-72 101 -50 102 -51 103 -46 104 -47 85 -51 85 -51 41 -25 42 -26 16 -10 17
-10 -19 -35 -18 -35 -29 -45 -29 -45 -52 -80 -52 -80 -39 -43 -38 -44 -75 40
-75 39 -22 7 -22 7 -73 41 -73 42 -115 70 -115 70 -75 37 -75 37 -17 -9 -16
-9 -20 -32 -21 -33 -40 -40 -41 -39 0 -11 1 -10 12 16 12 17 63 66 62 67 58
-21 57 -21 50 -33 50 -33 105 -62 105 -62 20 -11 20 -11 134 -69 135 -68 7 7
7 8 64 90 64 90 23 40 24 40 50 73 49 74 -8 7 -9 8 -160 94 -160 95 -55 23
-55 24 -120 58 -120 58 -80 47 -80 47 -65 43 -65 44 -50 18 -50 18 -42 22 -42
22 -6 0 -6 0 6 -10z"/>
<path d="M1959 4963 l-14 -18 18 14 17 13 0 4 0 4 -4 0 -4 0 -13 -17z"/>
<path d="M0 4945 l0 -3 87 -53 87 -52 58 -29 59 -29 62 -40 62 -40 75 -36 75
-35 65 -24 65 -25 35 -23 35 -22 45 -18 45 -18 95 -57 95 -57 18 -7 17 -6 0
-12 0 -13 -38 -60 -37 -61 -10 -16 -10 -16 -53 -77 -53 -77 -8 3 -7 3 -194 99
-195 99 -100 67 -100 67 -50 27 -50 26 -18 13 -19 12 -16 -25 -17 -25 -46 -60
-45 -60 -9 -15 -8 -15 10 10 11 10 43 55 44 55 18 27 17 28 68 -37 67 -37 115
-76 115 -76 130 -63 130 -63 30 -22 30 -22 27 -11 26 -12 14 17 15 17 21 36
22 36 31 39 31 39 9 23 9 23 40 59 40 59 -19 6 -18 5 -105 63 -105 63 -57 23
-57 24 -22 17 -22 17 -59 22 -59 22 -92 44 -93 44 -70 46 -71 45 -9 0 -9 0
-24 19 -24 18 -97 51 -98 51 0 -4z"/>
<path d="M1904 4883 l-39 -58 -8 -15 -9 -15 29 34 28 35 23 38 23 38 -4 0 -4
0 -39 -57z"/>
<path d="M1971 4913 l-11 -28 15 19 15 20 0 8 0 8 -3 0 -4 0 -12 -27z"/>
<path d="M16 4875 l19 -14 8 -1 7 0 83 -54 82 -53 91 -51 91 -52 99 -46 99
-45 190 -95 190 -94 24 -19 23 -18 -28 -44 -28 -44 -49 -67 -50 -68 -3 0 -3 0
-43 25 -43 25 -30 14 -30 15 -70 31 -70 31 -60 38 -60 38 -135 83 -135 84 -30
22 -30 23 -63 -91 -64 -90 5 -4 4 -5 57 86 57 85 5 0 5 0 57 -39 57 -38 145
-88 145 -88 55 -31 55 -32 61 -22 60 -23 39 -35 39 -35 15 3 15 3 28 40 29 40
56 83 56 84 -14 9 -14 10 -245 120 -245 120 -114 57 -113 57 -5 13 -5 12 -9 0
-9 0 -73 43 -72 44 -56 31 -56 32 -9 0 -8 0 20 -15z"/>
<path d="M0 4830 l0 -20 41 -21 41 -21 42 -29 41 -30 17 4 18 5 -5 -9 -6 -8
178 -87 178 -86 145 -70 145 -70 35 -20 35 -19 17 -6 16 -5 5 -20 6 -20 -6 6
-6 6 -24 -35 -24 -35 7 -13 7 -12 -8 7 -7 7 -18 -21 -17 -21 -69 36 -69 37
-65 30 -65 29 -47 28 -47 28 -88 54 -88 54 -15 12 -15 12 -45 24 -45 24 -34
23 -34 22 -8 0 -8 0 -26 -27 -25 -28 5 -13 5 -13 -9 6 -10 5 -24 -32 -24 -33
-1 -22 -1 -23 3 0 3 0 53 69 54 69 22 -2 22 -1 -4 -4 -4 -4 20 -14 20 -14 13
7 12 7 -7 -8 -8 -8 20 -14 20 -14 12 7 11 7 -7 -11 -7 -12 13 -1 13 -1 8 1 8
1 -6 -10 -6 -10 18 -7 18 -6 27 -19 28 -19 11 7 12 7 -7 -12 -7 -11 18 -7 18
-6 30 -22 30 -22 110 -58 110 -57 12 -10 13 -10 24 -2 24 -1 -4 -4 -4 -4 50
-23 50 -23 15 5 15 6 0 7 0 8 45 69 45 69 0 12 0 11 -77 45 -78 46 -20 7 -20
7 -125 59 -125 60 -160 81 -160 80 -35 20 -35 19 -15 12 -15 13 -57 31 -58 32
0 -20z"/>
<path d="M2803 4791 l-23 -29 0 -15 0 -15 -16 -12 -15 -13 -27 -46 -26 -46
-72 -90 -71 -90 -18 -35 -17 -35 -14 -15 -13 -15 -47 -90 -46 -89 -34 -49 -34
-49 0 -10 0 -9 -31 -45 -31 -45 4 -4 4 -4 114 -67 115 -68 70 -33 70 -34 15
-9 15 -9 130 -69 130 -68 50 -38 49 -38 4 12 4 11 -3 2 -4 3 -45 35 -45 35
-125 63 -125 63 -15 13 -15 12 -47 21 -48 22 -9 0 -8 0 -69 46 -69 46 -52 25
-53 25 0 10 0 10 31 56 31 56 20 28 20 29 48 92 48 92 36 60 37 60 33 40 34
40 35 45 36 45 46 68 45 67 10 0 10 0 -1 8 -1 7 1 13 1 12 21 0 21 0 26 -18
27 -18 58 -32 57 -32 0 15 0 15 -22 13 -23 14 -60 36 -61 36 -24 5 -25 5 -22
-28z"/>
<path d="M2786 4643 l-60 -96 -64 -86 -64 -86 -10 -12 -10 -13 5 0 5 0 84 113
85 112 43 73 43 72 7 5 7 4 92 -48 91 -49 0 7 0 6 -90 48 -90 47 -8 0 -7 0
-59 -97z"/>
<path d="M1742 4703 l-19 -28 -7 -12 -7 -13 4 0 4 0 27 40 26 40 -4 0 -5 0
-19 -27z"/>
<path d="M1799 4708 l-12 -23 -15 -25 -14 -25 17 20 17 20 14 28 15 27 -5 0
-5 0 -12 -22z"/>
<path d="M2820 4634 l-30 -48 0 -8 0 -8 -37 -57 -36 -58 19 17 19 17 45 87 45
87 12 4 11 4 39 -19 38 -19 48 -27 47 -28 0 5 0 4 -69 41 -69 41 -26 7 -25 6
-31 -48z"/>
<path d="M1664 4584 l-36 -56 4 -3 3 -4 37 60 37 59 -5 0 -4 0 -36 -56z"/>
<path d="M1744 4618 l-8 -13 -14 -25 -14 -25 17 20 16 20 10 18 10 17 -5 0 -5
0 -7 -12z"/>
<path d="M2826 4588 l-18 -33 25 30 25 30 38 -14 39 -13 50 -24 49 -23 5 4 4
5 -68 31 -69 31 -30 5 -31 5 -19 -34z"/>
<path d="M2825 4507 l-40 -72 -3 -13 -4 -13 -49 -86 -49 -85 0 -7 0 -8 -50
-57 -50 -57 -14 -27 -14 -27 -23 -19 -22 -18 17 -10 16 -9 12 7 11 7 -6 -10
-7 -11 27 -7 27 -6 56 -35 55 -34 9 0 9 0 16 -14 16 -13 138 -72 137 -71 0 14
0 13 -67 33 -68 32 -66 37 -66 36 -16 13 -16 14 -38 20 -38 20 -47 24 -48 24
0 6 0 5 16 32 17 32 37 45 37 45 48 90 48 90 17 25 17 25 31 68 32 67 17 0 18
-1 31 -17 31 -17 34 -22 34 -23 4 11 4 12 -34 26 -33 26 -40 17 -41 17 -15 0
-15 1 -40 -73z"/>
<path d="M1682 4523 l-19 -28 -7 -12 -7 -13 4 0 4 0 27 40 26 40 -4 0 -5 0
-19 -27z"/>
<path d="M2773 4487 l-30 -62 -45 -81 -44 -80 -50 -61 -49 -62 -37 -58 -37
-58 -7 -17 -6 -18 11 0 11 0 0 17 0 17 38 58 37 59 51 62 50 62 43 80 43 80 7
5 7 5 23 53 22 54 -3 4 -4 4 -31 -63z"/>
<path d="M1555 4398 l-38 -63 -4 -7 -4 -8 4 0 4 0 38 63 38 62 4 8 4 7 -4 0
-4 0 -38 -62z"/>
<path d="M2980 4372 l-55 -87 -26 -50 -26 -50 -42 -78 -41 -79 5 -8 5 -8 27
-6 28 -7 75 -36 75 -36 18 -9 17 -9 0 15 0 15 -22 7 -23 6 -15 13 -15 12 -67
29 -68 28 0 11 0 10 64 120 64 120 41 63 42 63 -3 19 -3 19 -55 -87z"/>
<path d="M2671 4388 l-41 -63 -47 -62 -48 -62 -45 -76 -45 -76 -22 -34 -21
-34 76 -40 77 -41 70 -41 70 -41 90 -42 90 -41 60 -34 60 -34 25 -21 25 -21
-18 21 -18 21 -67 40 -67 40 -80 36 -81 36 -74 42 -75 42 -62 34 -62 34 -6 8
-5 9 26 53 25 54 42 66 42 66 40 53 40 53 28 41 28 41 10 18 10 17 -5 0 -4 0
-41 -62z"/>
<path d="M2151 4379 l-41 -61 0 -19 0 -18 -9 -5 -9 -6 -15 -45 -16 -45 5 0 5
0 35 78 34 77 8 15 8 15 23 38 23 37 -5 0 -5 0 -41 -61z"/>
<path d="M1610 4410 l-11 -20 5 0 5 0 11 20 11 20 -5 0 -5 0 -11 -20z"/>
<path d="M2080 4349 l-12 -21 5 -4 4 -4 11 25 12 25 -5 0 -4 0 -11 -21z"/>
<path d="M2015 4328 l-16 -33 20 25 21 25 0 8 0 7 -5 0 -4 0 -16 -32z"/>
<path d="M2998 4297 l-36 -62 -20 -35 -20 -35 -26 -45 -26 -45 0 -12 0 -13 14
0 15 0 33 -19 33 -20 38 -16 37 -15 0 10 0 10 -10 0 -10 0 -65 32 -65 31 0 8
0 8 75 137 75 137 -3 3 -3 3 -36 -62z"/>
<path d="M1561 4317 l-13 -22 18 17 18 18 -5 4 -5 5 -13 -22z"/>
<path d="M2527 4273 l-43 -68 -8 -12 -7 -13 4 0 4 0 35 53 35 52 17 28 18 27
-5 0 -6 0 -44 -67z"/>
<path d="M1454 4233 l-47 -78 -31 -55 -32 -55 -18 -30 -18 -30 17 20 17 20 25
45 26 45 37 60 37 60 22 38 23 37 -5 0 -5 0 -48 -77z"/>
<path d="M2052 4293 l-7 -18 -44 -75 -44 -75 -47 -80 -48 -80 -26 -52 -26 -53
5 0 5 0 26 53 27 52 47 80 47 80 44 75 44 75 7 18 7 17 -5 0 -5 0 -7 -17z"/>
<path d="M1966 4238 l-25 -53 -21 -32 -22 -33 5 0 5 0 30 48 31 47 16 38 15
37 -4 0 -5 0 -25 -52z"/>
<path d="M2998 4212 l-36 -77 -20 -20 -19 -21 59 -32 58 -31 0 7 0 8 -46 23
-45 23 3 6 3 7 44 88 44 87 -5 5 -4 5 -36 -78z"/>
<path d="M1515 4240 l-16 -30 5 0 5 0 16 30 16 30 -5 0 -5 0 -16 -30z"/>
<path d="M3010 4160 l-24 -52 23 -19 24 -20 6 6 5 6 -14 9 -15 10 -10 4 -10 4
11 9 10 8 13 32 13 32 -4 11 -4 12 -24 -52z"/>
<path d="M1460 4150 l-11 -20 5 0 5 0 11 20 11 20 -5 0 -5 0 -11 -20z"/>
<path d="M2024 4118 l-26 -53 -23 -30 -22 -30 -58 -100 -58 -100 -40 -70 -40
-70 -29 -43 -30 -43 5 -5 4 -5 80 133 80 133 33 60 34 60 36 55 37 55 27 53
26 52 -5 0 -5 0 -26 -52z"/>
<path d="M2450 4156 l0 -14 -50 -81 -50 -81 0 -7 0 -8 38 -21 37 -21 86 -50
86 -50 17 -6 16 -6 0 3 0 4 -77 42 -78 43 -47 30 -48 30 0 21 0 21 45 77 45
77 0 6 0 5 -10 0 -10 0 0 -14z"/>
<path d="M1873 4073 l-15 -38 -19 -37 -19 -38 5 0 5 0 19 38 19 37 15 38 16
37 -5 0 -5 0 -16 -37z"/>
<path d="M1410 3995 l-13 -15 6 -6 5 -6 12 21 11 21 -4 0 -5 0 -12 -15z"/>
<path d="M1360 3993 l0 -10 -39 -59 -40 -59 -22 -30 -21 -30 35 40 35 40 33
53 32 53 -7 6 -6 6 0 -10z"/>
<path d="M2502 3985 l5 -6 84 -43 84 -42 92 -57 91 -57 11 0 11 0 80 -40 80
-40 0 4 0 4 -47 27 -48 27 -45 18 -45 18 -90 53 -90 52 -80 43 -80 43 -9 1 -9
0 5 -5z"/>
<path d="M1290 3969 l0 -10 10 6 10 6 0 5 0 4 -10 0 -10 0 0 -11z"/>
<path d="M1344 3888 l-48 -73 -80 -103 -81 -103 -20 -27 -20 -27 -37 -50 -38
-50 -31 -35 -32 -35 -25 -37 -25 -38 -7 0 -7 0 -24 18 -24 19 -56 31 -56 32
-13 0 -12 0 69 -36 68 -36 22 -20 22 -21 -5 -11 -6 -11 34 36 33 36 61 74 61
74 134 180 135 180 17 28 17 27 16 25 16 25 -6 0 -5 0 -47 -72z"/>
<path d="M1223 3869 l-58 -82 -28 -31 -28 -31 -65 -97 -66 -96 -45 -54 -45
-53 -10 -4 -9 -3 -17 15 -17 15 -100 52 -100 52 -75 46 -75 46 -25 18 -25 19
-64 42 -64 42 -58 37 -57 37 -52 -57 -53 -57 -44 -60 -45 -60 27 30 26 30 62
72 62 73 13 5 14 5 44 -27 43 -28 53 -36 53 -36 100 -66 100 -65 110 -58 110
-57 32 -24 32 -25 32 37 32 36 31 42 31 42 22 30 22 30 72 100 72 100 27 35
26 35 23 33 22 32 -4 0 -5 0 -59 -81z"/>
<path d="M1782 3897 l-32 -53 0 -9 0 -10 35 59 36 58 -4 4 -3 3 -32 -52z"/>
<path d="M1779 3813 l-22 -38 -55 -105 -55 -105 -47 -70 -48 -70 -68 -79 -69
-79 -34 -46 -34 -46 -25 -27 -26 -28 5 -3 4 -3 55 -41 55 -40 95 -64 95 -63 3
-8 4 -8 10 0 9 0 15 -15 15 -15 19 0 18 0 14 23 15 22 98 125 97 125 25 48 24
48 44 61 45 60 -1 12 0 11 -12 -19 -12 -18 -22 -32 -22 -31 -33 -53 -33 -54
-18 -31 -19 -32 -18 -20 -19 -20 -23 -32 -23 -32 -58 -76 -58 -75 -39 25 -40
25 -5 0 -5 0 -82 57 -83 56 -55 41 -55 40 -4 3 -4 2 59 73 59 73 17 20 16 20
50 65 51 65 44 65 44 65 55 105 55 105 22 38 23 37 -5 0 -5 0 -23 -37z"/>
<path d="M1712 3755 l-32 -65 5 0 5 0 31 61 30 61 -3 4 -4 3 -32 -64z"/>
<path d="M2640 3806 l0 -4 88 -43 87 -43 82 -53 82 -52 31 -16 30 -16 0 10 0
9 -27 10 -28 9 -85 55 -85 54 -82 42 -83 42 -5 0 -5 0 0 -4z"/>
<path d="M1214 3778 l-19 -23 23 19 22 19 0 4 0 3 -3 0 -4 0 -19 -22z"/>
<path d="M200 3782 l0 -8 -62 -68 -61 -67 -41 -52 -41 -52 19 15 19 15 28 38
27 38 62 66 62 66 46 -34 47 -33 125 -84 125 -85 114 -59 114 -59 46 -31 46
-32 6 -8 5 -8 26 27 25 28 54 70 54 70 27 40 27 40 40 45 40 45 1 10 0 10 -35
-40 -35 -40 -32 -45 -32 -45 -45 -60 -45 -60 -30 -32 -30 -33 -9 0 -10 0 -51
32 -51 32 -114 58 -115 58 -20 18 -21 18 -55 34 -55 34 -70 51 -70 50 -27 18
-28 17 0 -8z"/>
<path d="M178 3691 l-38 -49 0 -6 0 -6 -27 -32 -28 -32 -26 -27 -25 -27 -18
-28 -18 -29 14 15 15 15 68 80 68 80 14 15 14 15 13 19 13 19 25 -6 26 -7 42
-35 42 -35 91 -56 92 -56 70 -47 70 -48 15 -8 15 -8 -10 10 -10 10 -65 45 -65
45 -92 56 -93 56 -72 56 -73 55 -5 0 -5 -1 -37 -48z"/>
<path d="M2209 3738 l0 -3 -5 -23 -4 -23 -66 -95 -65 -94 -20 -43 -20 -42 -22
-31 -22 -32 -69 -103 -68 -104 -75 -102 -74 -103 -12 0 -12 0 -40 21 -40 22
-92 69 -93 69 0 12 0 12 27 40 27 40 59 70 58 69 43 66 43 65 17 35 16 35 -12
-19 -13 -18 -49 -77 -49 -76 -41 -50 -41 -50 -29 -33 -29 -32 -23 -38 -23 -37
-1 -7 0 -7 93 -68 92 -68 52 -34 53 -33 9 4 9 3 35 45 35 45 129 188 128 188
31 57 30 57 68 100 67 100 3 3 4 3 55 -26 55 -27 18 -19 17 -19 17 0 17 0 36
-24 36 -25 133 -67 133 -67 31 -23 31 -23 81 -40 81 -39 31 -22 31 -22 5 4 4
5 -48 30 -47 30 -60 29 -60 29 -48 32 -48 32 -117 57 -116 57 -40 29 -39 28
-12 0 -12 0 -34 23 -34 23 -57 32 -58 32 -1 -2z"/>
<path d="M1642 3635 l-32 -46 0 -9 0 -10 -8 0 -8 0 -47 -67 -46 -68 -65 -75
-66 -75 -31 -33 -30 -32 -44 -54 -43 -53 51 -38 52 -38 35 -27 35 -27 58 -36
57 -37 6 0 6 0 52 -37 51 -38 25 -22 25 -23 5 1 5 0 43 52 42 52 76 95 76 95
9 20 10 20 32 52 32 52 29 48 30 48 12 12 12 13 7 29 6 29 21 18 20 19 46 68
45 68 8 5 8 5 48 -25 48 -24 184 -96 185 -97 30 -17 31 -17 71 -42 71 -43 10
0 11 0 51 -34 51 -35 0 9 0 8 -48 30 -48 29 -25 8 -24 8 -50 32 -50 32 -80 43
-80 43 -130 68 -130 67 -58 31 -58 31 -13 0 -14 0 -17 -27 -18 -28 -56 -74
-55 -74 -3 10 -4 11 31 53 32 53 34 41 34 42 0 10 0 11 14 11 14 12 51 -31 52
-30 10 0 10 0 42 -21 42 -22 25 -19 24 -19 151 -73 150 -73 123 -76 122 -76 0
7 0 8 -117 71 -118 71 -75 40 -75 40 -55 22 -55 23 -45 30 -45 30 -100 50
-100 50 -8 11 -8 11 -15 -20 -15 -20 -50 -68 -50 -68 -15 -34 -14 -34 -10 -6
-11 -7 11 -13 11 -14 -17 -38 -17 -38 -42 -65 -42 -65 -27 -47 -27 -48 -51
-67 -51 -68 -55 -65 -54 -65 -7 -3 -7 -2 -61 40 -62 40 -5 0 -6 0 -62 38 -63
39 -67 51 -68 51 -21 20 -21 19 33 44 34 43 75 85 76 85 41 50 41 50 59 90 60
90 7 13 7 12 -3 0 -4 0 -32 -45z"/>
<path d="M10 3329 l15 -9 80 -49 80 -50 62 -35 62 -35 98 -64 98 -64 60 -33
60 -33 60 -42 60 -42 115 -68 115 -67 20 -18 20 -17 195 -117 195 -117 17 -10
18 -9 67 -36 68 -36 44 -36 44 -37 31 -17 31 -17 24 -11 24 -11 37 -29 36 -29
27 -12 28 -13 17 25 17 24 53 63 53 63 41 75 40 74 -5 0 -5 0 -40 -74 -40 -74
-68 -81 -68 -80 -28 17 -28 17 -72 48 -73 48 -50 34 -50 33 -105 58 -105 57
-93 56 -93 56 -177 112 -177 111 -114 74 -114 73 -49 27 -50 27 -87 57 -86 58
-25 16 -25 16 -15 7 -15 7 -26 18 -26 17 -64 39 -64 39 -33 18 -33 19 -12 -1
-12 0 15 -10z"/>
<path d="M0 3282 l0 -9 53 -36 52 -36 68 -35 68 -35 52 -39 52 -39 145 -82
145 -83 70 -40 70 -41 45 -30 45 -31 40 -27 40 -27 60 -32 60 -33 86 -58 86
-58 79 -47 79 -47 55 -30 55 -30 15 -12 15 -12 65 -33 65 -33 50 -37 50 -38
60 -33 60 -32 18 -15 17 -15 4 4 3 4 55 65 54 65 18 28 18 27 -6 0 -6 0 -24
-37 -25 -38 -43 -49 -44 -49 -54 28 -55 27 -50 38 -50 37 -60 35 -60 35 -75
43 -75 43 -63 39 -63 38 -6 0 -6 0 -51 32 -51 32 -50 37 -50 36 -100 57 -100
58 -85 58 -85 59 -8 0 -7 1 -138 82 -137 82 -100 65 -99 66 -76 40 -75 41 -48
32 -47 33 0 -9z"/>
<path d="M0 3227 l0 -5 63 -40 62 -40 60 -31 60 -31 50 -38 50 -38 100 -54
100 -53 45 -25 45 -24 20 -18 20 -18 130 -77 130 -78 75 -52 75 -52 46 -26 47
-25 83 -55 84 -54 110 -60 110 -60 145 -88 145 -87 43 -31 42 -31 13 16 12 16
46 58 45 59 9 15 8 15 -10 -10 -9 -10 -53 -67 -53 -68 -11 0 -11 0 -50 33 -51
34 -90 55 -90 55 -99 58 -99 58 -51 25 -51 24 -89 60 -89 59 -39 20 -40 20
-51 37 -51 37 -65 42 -66 42 -80 47 -80 47 -35 28 -36 27 -129 67 -130 67 -35
27 -35 26 -35 24 -35 24 -90 50 -89 49 -23 15 -23 15 0 -5z"/>
<path d="M0 3176 l0 -14 25 -16 26 -17 11 7 11 7 -6 -10 -7 -11 63 -40 62 -40
78 -46 79 -46 11 7 12 6 -7 -8 -7 -8 42 -32 42 -32 43 -22 43 -22 12 7 12 7
-8 -8 -7 -8 40 -24 40 -24 13 7 12 7 -7 -8 -8 -8 54 -36 54 -36 33 -26 34 -27
38 -21 38 -21 12 6 12 7 -7 -8 -8 -8 37 -23 38 -22 8 5 7 4 -2 -13 -3 -13 18
2 18 1 -5 -6 -6 -5 31 -19 30 -18 11 6 11 7 -7 -11 -7 -11 88 -52 88 -52 53
-34 53 -33 10 6 9 5 -2 -13 -3 -13 17 1 18 2 -5 -7 -4 -8 35 -17 35 -16 12 6
12 7 -7 -8 -8 -8 68 -39 67 -39 5 -8 5 -8 75 -39 75 -39 12 1 13 2 -5 -8 -4
-7 77 -50 77 -50 14 -8 14 -8 48 53 48 53 17 36 17 36 32 45 32 46 63 114 63
115 17 20 17 20 50 85 50 85 28 55 28 55 19 28 19 27 13 0 14 0 53 -33 54 -33
53 -33 52 -33 0 -3 0 -3 -26 -56 -25 -56 -9 -5 -9 -5 -49 -88 -50 -87 -52
-100 -53 -100 -30 -38 -30 -38 -47 -92 -48 -92 -33 -55 -34 -55 -32 -34 -32
-34 -28 -66 -28 -66 -37 -70 -37 -70 -49 -100 -49 -100 -8 -25 -7 -25 -76
-155 -75 -155 -27 -40 -27 -40 -23 -45 -24 -45 -35 -60 -34 -60 -2 -3 -2 -2
-112 75 -112 75 -14 0 -13 0 -109 77 -108 78 -50 31 -50 31 -80 42 -80 43
-110 82 -110 83 -24 13 -23 12 -12 -14 -12 -13 -125 -148 -124 -148 -48 -62
-48 -62 -68 -70 -67 -70 -52 -61 -52 -62 0 -9 0 -10 59 -13 59 -12 14 7 13 8
-8 -8 -7 -9 57 -18 58 -18 13 5 13 5 -5 -9 -6 -9 26 -6 25 -7 11 7 11 7 -6
-10 -7 -11 16 -6 16 -6 9 6 9 5 -2 -13 -3 -13 17 1 18 2 -5 -8 -5 -8 35 -12
35 -11 11 7 12 7 -6 -10 -7 -11 31 -11 31 -11 11 7 10 6 -6 -10 -6 -10 35 -17
35 -16 11 6 11 7 -6 -10 -6 -10 35 -17 35 -16 11 6 11 7 -6 -10 -6 -10 35 -17
35 -16 11 6 11 7 -7 -11 -7 -11 21 -11 20 -11 13 7 12 7 -7 -8 -8 -8 31 -19
30 -18 12 6 12 7 -7 -7 -7 -8 33 -29 33 -29 59 -30 59 -31 14 -12 15 -12 -7
18 -7 19 12 -5 13 -4 -3 -18 -3 -17 13 8 13 9 20 -3 20 -3 -32 20 -31 20 -59
26 -58 27 -25 23 -25 23 -81 50 -82 51 -118 59 -119 59 -70 28 -70 27 -40 23
-40 23 -100 30 -100 29 -43 12 -42 12 0 8 0 9 38 44 37 44 67 70 67 70 22 29
23 30 35 41 36 40 25 30 25 30 65 79 64 80 27 29 28 29 13 -5 13 -6 115 -82
115 -83 130 -75 130 -75 27 -24 26 -25 11 7 11 6 -2 -9 -3 -10 69 -47 68 -47
23 -2 23 -1 -3 -4 -4 -3 82 -55 82 -55 16 -14 16 -14 6 7 7 6 0 -11 0 -12 13
0 12 1 32 47 31 47 23 45 23 45 41 65 41 65 71 145 71 145 7 24 7 24 48 101
47 102 24 39 25 40 43 97 44 98 36 42 36 41 27 46 27 46 41 80 42 80 34 47 34
48 72 127 72 128 19 40 19 40 32 45 31 45 24 48 24 47 8 0 9 0 0 15 0 15 -37
20 -38 20 -70 45 -70 45 -30 14 -30 14 -20 -26 -20 -25 -73 -126 -73 -126 -33
-50 -34 -50 -47 -85 -48 -85 -11 -20 -11 -20 -40 -60 -41 -60 -11 -25 -11 -25
-37 -42 -37 -43 -19 0 -20 0 -24 26 -24 26 -46 29 -46 29 -9 -5 -8 -5 -6 15
-6 16 -42 19 -43 20 -34 22 -35 22 9 -15 9 -14 -37 38 -37 37 -10 0 -11 0 7
-12 7 -13 -25 26 -25 26 -64 31 -64 31 -82 53 -82 53 -48 27 -48 28 -95 61
-95 61 -46 23 -45 23 -50 39 -49 39 -75 46 -75 45 -49 23 -49 22 -86 57 -86
58 -60 33 -60 34 -79 53 -79 53 -9 0 -8 0 0 -14z m1444 -878 l-5 -8 -10 0 -9
0 0 8 0 9 15 0 14 0 -5 -9z"/>
<path d="M2460 2983 l0 -8 -66 -120 -67 -120 -33 -38 -32 -39 -38 -71 -38 -72
-35 -60 -36 -60 -22 -47 -23 -48 4 0 4 0 50 93 50 92 47 88 48 88 25 24 24 25
69 121 69 122 0 9 0 8 10 0 9 0 28 -12 28 -12 105 -65 105 -64 33 -29 33 -28
14 0 14 0 16 -16 16 -16 -7 -21 -6 -20 -49 -85 -49 -85 0 -6 0 -6 -25 -37 -25
-37 0 -16 0 -16 -55 -96 -55 -96 4 -4 4 -4 55 98 54 98 63 125 62 125 25 41
24 42 -17 16 -16 17 -36 15 -37 15 -25 24 -25 24 -60 35 -60 35 -60 35 -60 35
-17 6 -18 7 0 -9z"/>
<path d="M2475 2910 l-18 -20 5 -6 6 -5 15 16 16 15 8 0 8 0 85 -53 85 -52 36
-27 36 -28 19 0 19 1 -32 17 -33 17 -103 67 -103 67 -15 6 -15 6 -19 -21z"/>
<path d="M0 2908 l0 -13 68 -43 67 -43 39 -28 39 -28 36 -19 36 -18 80 -45 80
-46 65 -47 65 -47 30 -21 30 -21 110 -72 110 -72 20 -12 20 -12 215 -109 215
-109 50 -27 49 -27 16 -14 17 -15 7 7 8 8 -4 -12 -3 -11 75 -51 75 -51 106
-70 106 -70 -16 -48 -16 -47 -7 -10 -7 -11 -25 -68 -26 -67 -34 -67 -35 -67
-31 -75 -31 -75 -8 -8 -8 -8 -77 46 -77 45 -4 0 -4 0 -74 45 -74 45 -54 25
-54 26 -20 12 -20 12 -50 31 -50 30 -78 45 -78 44 -52 28 -52 29 -78 49 -78
49 -4 0 -5 0 0 -11 0 -11 -20 -26 -20 -27 -51 -65 -50 -65 -12 -15 -12 -15
-48 -58 -47 -59 0 -8 0 -8 -43 -53 -42 -52 -40 -53 -40 -52 -88 -106 -88 -106
3 -17 3 -17 52 69 51 70 78 95 77 95 44 49 44 50 16 30 16 31 54 65 54 65 21
25 21 25 39 58 40 57 8 0 9 0 96 -60 96 -60 4 0 3 0 159 -97 158 -96 48 -24
48 -24 11 7 11 7 -7 -11 -7 -12 8 0 8 0 70 -45 69 -45 18 0 18 0 0 -9 0 -10
23 -7 22 -8 8 2 8 2 -5 -9 -6 -9 14 -11 13 -11 8 8 8 7 -7 -12 -6 -12 7 -4 8
-5 30 -6 31 -7 31 68 32 68 66 142 65 143 0 9 0 10 35 77 35 77 -2 2 -3 3
-105 71 -105 71 -77 55 -78 54 -21 20 -21 20 -262 132 -261 132 -140 90 -140
91 -93 65 -93 66 -67 39 -67 38 -56 29 -57 28 -43 34 -44 33 -40 24 -40 24
-22 14 -23 14 0 -14z"/>
<path d="M2443 2858 l-10 -13 -37 -65 -37 -65 -30 -50 -31 -50 -28 -30 -28
-30 -47 -95 -47 -95 -20 -28 -20 -28 5 -5 5 -5 25 43 25 43 41 82 41 82 28 33
29 33 35 55 36 55 40 73 41 72 -3 0 -4 0 -9 -12z"/>
<path d="M7 2819 l11 -11 20 -12 20 -11 44 -28 43 -29 129 -69 128 -69 57 -41
56 -40 70 -45 70 -46 70 -41 70 -41 55 -36 55 -37 230 -118 230 -118 40 -32
40 -31 130 -87 130 -87 28 -23 27 -23 -14 -47 -14 -48 -15 -23 -16 -23 -6 -39
-7 -39 -18 -31 -17 -31 -13 -38 -13 -38 -24 -54 -24 -53 -10 0 -9 0 -72 37
-73 36 -40 27 -40 26 -90 48 -90 49 -111 73 -111 73 -44 21 -44 21 -64 34 -64
35 -26 23 -26 24 -29 19 -29 18 -16 -22 -16 -23 -43 -52 -44 -52 -48 -73 -49
-73 -26 -32 -26 -32 -121 -160 -121 -160 -51 -60 -51 -60 19 15 18 14 80 101
81 100 101 134 101 133 45 67 45 67 52 63 53 63 9 16 9 16 58 -45 58 -44 61
-34 60 -33 50 -25 50 -25 99 -66 99 -66 31 -18 31 -18 65 -33 65 -33 55 -36
55 -35 65 -31 64 -32 7 8 7 7 31 75 32 75 25 52 24 52 0 15 0 14 21 49 22 48
18 50 19 50 -17 13 -17 12 -9 0 -9 0 -37 29 -36 28 -95 63 -95 63 -51 38 -51
39 -79 40 -79 41 -155 79 -154 80 -71 46 -70 46 -105 65 -105 65 -110 73 -110
73 -75 38 -75 38 -82 53 -81 53 -8 0 -8 0 11 -11z"/>
<path d="M0 2776 l0 -4 75 -44 76 -43 106 -63 107 -64 25 -20 26 -20 65 -43
65 -44 55 -26 54 -26 16 -14 16 -15 85 -51 84 -51 95 -51 95 -51 60 -30 60
-30 37 -26 37 -27 33 -14 33 -13 115 -76 115 -75 87 -63 86 -63 -50 -127 -50
-127 -23 -55 -24 -55 -24 -3 -24 -3 -84 42 -84 43 -89 58 -89 58 -11 0 -11 0
-52 43 -52 42 -138 79 -138 80 -78 53 -78 53 -13 0 -12 0 -17 -35 -17 -35 -38
-43 -39 -42 -71 -105 -72 -105 -67 -95 -66 -95 11 10 11 10 61 85 60 85 62 90
61 90 37 41 37 40 27 47 28 47 7 0 6 0 87 -57 86 -58 49 -29 48 -29 65 -35 65
-35 48 -35 47 -36 0 -7 0 -8 55 -25 55 -26 97 -62 98 -62 72 -33 72 -33 10 0
11 0 0 18 0 17 14 27 14 27 33 88 32 87 28 69 29 70 -11 13 -11 14 -10 0 -9 0
-84 63 -84 62 -76 50 -76 50 -61 33 -62 32 -45 30 -46 29 -30 13 -30 13 -90
49 -90 49 -70 41 -70 41 -35 22 -35 23 -11 9 -11 9 -49 25 -49 25 -70 46 -70
46 -40 28 -40 29 -75 45 -75 45 -51 26 -52 26 -45 31 -45 30 -6 0 -6 0 0 -4z"/>
<path d="M2803 2700 l-3 -51 -41 -55 -41 -55 -25 -50 -26 -49 5 -6 5 -5 28 53
28 53 38 55 39 55 6 33 7 32 8 6 9 5 -14 15 -15 14 -3 0 -3 0 -2 -50z"/>
<path d="M20 2710 l25 -20 140 -86 140 -86 125 -80 125 -79 68 -35 68 -35 67
-43 67 -42 55 -26 55 -25 79 -51 80 -52 9 0 8 0 42 -29 42 -29 66 -29 66 -30
84 -58 84 -58 30 -27 30 -27 35 -19 35 -19 3 -2 4 -1 -27 -73 -26 -72 4 -4 4
-3 17 47 17 48 14 32 14 32 -42 21 -42 22 -25 22 -25 23 -95 63 -95 63 -25 17
-25 17 -27 6 -26 7 -29 23 -28 23 -47 22 -47 22 -53 34 -53 33 -75 38 -75 38
-25 17 -25 18 -105 57 -105 57 -128 81 -129 82 -75 48 -75 47 -4 0 -5 0 -74
50 -74 50 -8 0 -8 0 25 -20z"/>
<path d="M0 2667 l0 -14 57 -39 57 -39 75 -40 76 -41 70 -43 70 -43 15 -13 15
-12 50 -28 50 -28 61 -32 60 -31 34 -24 34 -24 95 -50 96 -49 47 -31 46 -31
57 -35 57 -35 100 -55 99 -56 28 -26 28 -27 29 -7 29 -6 37 -25 37 -25 33 -17
33 -16 -3 -30 -3 -30 -2 -22 -2 -21 -7 4 -6 4 -12 -35 -11 -35 7 -12 7 -13 -8
8 -9 8 -11 -20 -10 -21 -30 27 -30 26 -85 41 -85 42 -40 25 -40 25 -100 54
-100 54 -120 74 -120 74 -50 33 -50 33 -41 25 -41 26 -30 -32 -31 -32 -38 -55
-38 -55 -74 -110 -74 -110 -18 -20 -18 -20 -54 -86 -53 -86 -52 -69 -53 -69
-20 -25 -20 -25 0 -24 0 -24 81 109 82 109 53 85 52 85 44 57 43 57 38 58 37
58 60 85 59 85 23 15 22 15 -7 -11 -6 -11 26 -12 27 -12 81 -53 80 -53 26 -14
25 -14 80 -52 79 -53 8 0 7 0 41 -25 40 -26 11 7 11 7 -6 -10 -7 -11 16 -6 16
-6 11 7 12 6 -7 -8 -8 -8 31 -19 30 -18 10 6 9 5 -2 -11 -3 -12 110 -56 111
-57 31 -22 31 -23 9 0 10 0 13 28 13 27 29 80 28 79 0 11 0 10 -38 25 -37 25
-43 33 -44 32 -12 0 -12 0 -65 43 -64 43 -65 33 -65 33 -15 13 -15 12 -95 58
-95 58 -100 54 -100 55 -15 13 -15 13 -125 67 -125 68 -30 21 -30 22 -75 46
-75 46 -60 31 -60 32 -50 35 -50 35 -17 10 -18 10 0 -14z"/>
<path d="M2848 2563 l-15 -18 -30 -55 -30 -55 -22 -50 -22 -50 10 10 9 10 46
90 46 90 16 23 16 22 -4 0 -5 0 -15 -17z"/>
<path d="M0 2406 l0 -12 64 -34 64 -33 49 -38 48 -37 52 -34 53 -33 0 -12 0
-13 -62 -86 -63 -85 -40 -62 -40 -62 -54 -65 -54 -65 -8 -3 -9 -4 0 -9 0 -8
18 5 17 6 -17 -12 -18 -11 0 -17 1 -17 37 41 37 42 19 27 19 28 14 -18 13 -19
0 10 0 10 -11 11 -10 10 40 61 41 61 0 9 0 10 14 11 14 12 68 99 67 99 -12 14
-11 15 -43 28 -42 29 -45 36 -45 37 -82 45 -83 46 0 -13z"/>
<path d="M2626 2348 l-37 -73 -39 -55 -39 -55 -31 -64 -31 -65 -29 -36 -28
-36 -25 -54 -24 -55 -57 -79 -56 -79 -39 -76 -38 -76 -38 -70 -37 -70 -24 -63
-24 -63 6 -11 7 -11 -11 7 -12 7 0 -10 0 -9 11 -4 11 -4 -74 -144 -73 -145
-22 -50 -23 -50 -19 -43 -20 -42 4 0 4 0 51 108 52 107 26 55 26 55 75 140 74
140 49 95 49 95 37 65 37 66 36 54 36 55 40 70 40 70 36 60 36 60 29 40 29 40
12 23 12 22 -4 0 -3 0 -46 -67 -45 -68 -68 -115 -69 -115 -58 -92 -59 -93 -15
-32 -15 -33 -28 -45 -27 -45 -12 -35 -12 -34 -41 -63 -41 -63 -5 0 -5 0 7 28
7 27 53 106 54 106 31 59 32 59 21 35 21 35 37 50 37 50 30 62 31 63 24 32 25
33 35 70 36 70 35 50 35 50 36 69 35 69 -3 4 -4 4 -37 -73z"/>
<path d="M2 2355 l5 -6 114 -74 114 -74 20 -15 20 -15 -23 -40 -23 -41 4 0 4
0 27 40 27 40 -28 25 -28 24 -9 1 -10 0 -102 70 -103 70 -7 0 -7 0 5 -5z"/>
<path d="M2716 2323 l-7 -7 -20 -45 -20 -45 -15 -18 -16 -17 4 -11 3 -11 43
80 43 81 -4 0 -4 0 -7 -7z"/>
<path d="M1 2303 l0 -8 57 -41 57 -41 48 -27 47 -28 0 -12 0 -12 -39 -60 -39
-59 -66 -68 -66 -68 0 -12 0 -12 9 13 8 13 67 72 66 72 40 60 40 60 0 6 0 7
-67 41 -68 41 -47 36 -48 36 1 -9z"/>
<path d="M2085 2259 l-16 -31 5 -5 5 -6 11 28 11 28 5 8 5 9 -5 0 -5 0 -16
-31z"/>
<path d="M0 2246 l0 -5 53 -30 52 -30 30 -25 30 -25 -12 -12 -13 -13 0 -10 0
-9 20 18 20 18 0 8 0 7 -83 56 -83 56 -7 0 -7 0 0 -4z"/>
<path d="M2985 2171 l-49 -76 0 -17 0 -17 -5 4 -4 5 -14 -20 -14 -20 7 -12 7
-11 -10 6 -10 6 -22 -30 -22 -29 6 -10 6 -10 -11 2 -12 3 -24 -40 -23 -40 5
-15 5 -14 -7 7 -7 7 -14 -27 -14 -27 6 -13 5 -14 -9 5 -9 6 -6 -26 -7 -25 7
-11 7 -11 -11 7 -11 7 -17 -28 -18 -28 -65 -99 -66 -98 -12 -22 -13 -21 -27
-60 -27 -60 1 -12 1 -13 -8 5 -8 5 -11 -30 -10 -30 -54 -73 -54 -72 -70 -105
-70 -105 -13 -25 -13 -25 -66 -102 -66 -102 -50 -87 -50 -88 -48 -65 -49 -66
-16 -14 -17 -13 13 -5 12 -5 0 -13 0 -13 75 -59 74 -58 51 -38 51 -38 17 -6
17 -7 13 -13 13 -13 20 0 19 0 0 9 0 9 -47 28 -47 27 -85 63 -85 63 -10 -6
-11 -6 8 8 7 9 -24 25 -25 26 79 130 79 130 14 31 15 31 78 121 79 121 65 102
65 103 63 85 63 84 18 36 18 36 26 50 27 50 15 35 15 35 23 32 22 31 68 106
69 107 17 47 18 47 18 40 18 40 32 40 31 40 19 29 20 28 30 48 30 48 18 25 18
26 -3 29 -3 30 -50 -77z"/>
<path d="M0 2207 l0 -15 31 -26 31 -26 13 0 14 0 5 -8 5 -8 -49 -55 -49 -54
-1 -18 0 -18 60 69 60 70 0 11 0 11 -24 10 -24 9 -36 31 -36 32 0 -15z"/>
<path d="M2581 2079 l-52 -81 -16 -27 -17 -26 11 10 11 10 61 94 61 94 -4 4
-3 4 -52 -82z"/>
<path d="M3001 2070 l-34 -65 -52 -80 -52 -80 -18 -35 -18 -35 -32 -45 -33
-45 -58 -115 -58 -115 -35 -67 -36 -67 -56 -83 -56 -83 -23 -40 -24 -40 -58
-83 -59 -84 9 6 9 6 63 87 63 88 21 40 22 40 47 71 47 72 15 12 15 12 0 17 0
16 26 45 27 45 39 75 40 75 85 145 85 145 41 62 42 62 23 37 23 37 -3 15 -3
16 -34 -64z"/>
<path d="M69 2013 l-55 -68 -9 -15 -8 -15 5 5 5 5 55 65 54 65 8 13 7 12 -3 0
-4 0 -55 -67z"/>
<path d="M194 2039 l-26 -41 -61 -75 -62 -74 -24 -32 -24 -32 42 45 42 45 42
54 42 54 23 31 23 31 10 18 10 17 -6 0 -5 0 -26 -41z"/>
<path d="M3023 2018 l-12 -14 -57 -109 -57 -110 -12 -15 -11 -15 -42 -71 -42
-70 0 -11 0 -10 -31 -43 -31 -43 -34 -71 -34 -70 0 -11 0 -10 -60 -85 -59 -85
-54 -80 -54 -80 -95 -145 -95 -145 -7 -12 -7 -13 5 0 4 0 41 63 41 62 17 25
17 25 96 145 96 145 59 85 59 85 37 88 38 87 29 38 29 37 21 45 22 45 12 20
13 20 17 26 18 27 70 123 70 123 -3 9 -3 9 -11 -14z"/>
<path d="M560 1961 l0 -8 -35 -44 -35 -44 0 -9 0 -8 -25 -32 -26 -31 -75 -100
-75 -100 -49 -75 -49 -75 -97 -129 -98 -129 10 6 10 6 92 123 93 123 49 75 49
75 96 125 96 125 20 35 19 35 24 30 25 29 28 -21 29 -20 44 -23 45 -23 74 -48
74 -49 7 0 7 0 109 -72 109 -73 125 -64 125 -64 37 -24 38 -23 10 0 11 0 37
-27 37 -28 7 -10 7 -9 4 4 4 5 6 50 5 50 -11 -35 -10 -35 -3 -3 -2 -4 -68 41
-68 41 -7 0 -8 0 -53 31 -53 32 -89 45 -90 45 -95 61 -96 62 -80 49 -80 48
-82 49 -82 48 -10 0 -11 0 0 -9z"/>
<path d="M2456 1888 l-33 -53 -13 -25 -12 -25 9 10 10 10 41 68 42 67 -5 0 -5
0 -34 -52z"/>
<path d="M2998 1832 l-37 -68 -20 -18 -19 -18 -23 -56 -23 -57 -39 -75 -39
-75 -8 -10 -8 -10 -30 -56 -30 -56 -40 -53 -40 -53 -13 -26 -13 -26 -70 -95
-71 -95 -48 -79 -48 -79 -48 -71 -47 -71 -47 -86 -47 -87 -47 -63 -47 -64 -28
-33 -28 -33 12 -19 12 -19 71 -51 70 -50 70 -47 70 -46 55 -45 55 -44 -50 46
-50 46 -70 47 -70 46 -73 55 -73 54 -6 14 -5 13 21 28 21 28 48 65 48 65 35
60 35 60 6 15 6 15 115 176 115 176 58 78 59 77 10 17 10 16 56 86 57 87 21
43 21 44 29 47 30 47 42 96 42 96 16 12 17 12 33 52 33 52 -4 16 -3 15 -37
-68z"/>
<path d="M2978 1700 l-57 -115 -1 -7 -1 -7 -30 -32 -30 -32 6 -16 6 -15 -8 7
-7 8 -16 -30 -15 -29 -20 -38 -19 -39 -113 -170 -112 -170 -42 -53 -41 -54
-28 -54 -27 -54 -32 -35 -32 -35 -19 -43 -19 -42 -45 -65 -45 -65 -28 -44 -28
-44 -32 -44 -33 -43 0 -15 0 -15 8 0 7 0 36 -33 36 -32 112 -85 112 -85 10 3
10 2 -5 -9 -6 -9 37 -31 38 -31 20 0 20 0 -49 48 -49 47 -67 50 -67 50 -74 56
-74 56 -13 15 -12 15 58 89 59 89 17 14 16 13 0 9 0 9 34 51 35 50 7 22 7 22
42 55 43 55 16 33 17 33 14 17 14 17 34 46 35 46 11 20 10 20 -7 8 -7 8 13 -7
12 -7 18 31 17 32 48 65 48 65 -5 15 -6 14 9 -5 9 -6 30 48 30 47 38 70 38 70
27 40 27 41 47 89 46 88 -3 31 -3 31 -57 -115z"/>
<path d="M2361 1718 l-30 -63 -47 -85 -47 -85 -31 -60 -32 -60 -35 -55 -36
-55 -33 -65 -34 -65 -17 -25 -16 -25 -45 -85 -44 -85 -48 -83 -48 -83 4 -4 3
-4 49 87 49 87 45 85 45 85 17 25 17 25 32 60 31 60 41 64 40 64 23 46 23 46
63 115 62 115 19 43 18 42 -4 0 -5 0 -29 -62z"/>
<path d="M1582 1535 l-12 -26 0 -4 0 -5 9 0 9 0 5 28 5 27 -2 3 -3 2 -11 -25z"/>
<path d="M174 1328 l-19 -23 23 19 22 19 0 4 0 3 -3 0 -4 0 -19 -22z"/>
<path d="M3016 1277 l-16 -43 0 -15 0 -16 20 -18 20 -18 0 76 0 77 -4 0 -3 0
-17 -43z"/>
<path d="M126 1264 l-25 -37 -50 -52 -51 -53 0 -8 0 -8 50 55 51 54 30 43 30
42 -5 0 -5 0 -25 -36z"/>
<path d="M1996 1234 l-7 -27 -90 -181 -91 -181 -13 -15 -14 -15 -10 -25 -10
-25 -68 -94 -68 -94 -10 -4 -10 -3 -75 44 -75 45 -60 31 -60 32 -128 87 -129
86 -72 45 -72 45 -129 91 -130 91 -30 16 -30 15 -30 -41 -30 -41 -68 -80 -68
-81 -17 -21 -17 -21 -60 -69 -60 -69 -83 -85 -82 -84 0 -8 0 -8 10 0 9 0 10
18 10 17 1 -16 0 -16 34 -6 34 -5 158 -62 159 -61 50 -25 50 -24 65 -40 65
-39 60 -32 60 -32 40 -27 40 -27 35 -18 35 -18 60 -30 60 -29 70 -40 70 -41
34 -20 35 -21 -7 10 -6 10 -73 44 -73 43 -125 65 -125 64 -30 22 -30 22 -100
54 -100 53 -51 33 -50 34 -69 25 -69 26 -83 40 -84 40 -29 2 -30 2 0 7 0 7
-35 12 -35 13 0 10 0 10 73 75 72 76 60 69 60 69 25 32 25 32 53 64 53 64 19
23 18 22 20 0 20 0 113 -76 114 -77 37 -31 37 -32 48 -24 48 -23 30 -24 30
-24 114 -75 114 -75 46 -23 46 -22 55 -36 55 -35 44 -23 44 -22 21 24 22 23 7
15 7 15 70 110 69 110 90 182 91 183 6 25 6 25 -5 0 -5 0 -6 -26z"/>
<path d="M620 1128 l0 -13 -45 -50 -45 -50 -70 -92 -70 -92 -90 -82 -90 -82
105 -48 104 -47 164 -81 164 -81 18 -20 18 -20 8 0 9 0 87 -50 87 -50 17 0 16
0 49 -26 49 -26 85 -57 85 -57 70 -33 70 -33 39 -20 38 -19 4 4 4 4 -116 57
-115 57 -82 56 -82 56 -62 29 -63 28 -12 0 -13 0 -105 65 -105 64 -190 94
-190 95 -62 27 -63 28 0 8 0 9 42 38 43 37 52 55 52 56 49 66 48 66 56 62 56
61 95 -64 95 -64 29 -22 28 -22 155 -99 155 -99 43 -36 44 -35 54 -27 54 -26
26 -34 25 -33 32 0 32 0 60 -38 60 -38 37 47 37 48 34 53 33 53 24 39 24 40
-10 -7 -11 -6 -46 -78 -46 -78 -28 -32 -28 -32 -10 -16 -10 -17 -68 42 -67 42
0 9 0 9 -37 0 -38 1 20 15 20 16 -22 -6 -21 -7 -39 27 -38 26 -25 10 -24 9
-51 40 -50 39 -135 88 -135 88 -36 25 -37 24 -105 73 -106 72 -6 0 -5 0 0 -12z"/>
<path d="M555 973 l-80 -98 -88 -92 -89 -91 32 -17 32 -16 6 5 5 6 -9 0 -9 1
-19 14 -19 14 94 98 94 98 39 50 40 50 29 31 29 32 86 -58 87 -57 77 -55 76
-55 79 -43 78 -43 80 -53 80 -53 85 -61 85 -61 81 -39 82 -40 13 0 14 1 37 43
36 43 52 96 52 97 -5 0 -6 0 -53 -100 -53 -101 -35 -34 -36 -35 -49 19 -50 19
-45 26 -45 27 -60 44 -60 44 -43 28 -43 28 -44 32 -43 32 -79 41 -78 41 -120
86 -120 86 -37 19 -37 19 -12 15 -11 14 -12 0 -12 0 -79 -97z"/>
<path d="M2895 1057 l-18 -14 8 -13 8 -13 -10 6 -11 7 -13 -32 -13 -33 -48
-65 -48 -65 -18 -25 -18 -25 -29 -49 -28 -50 -78 -103 -79 -103 -6 -25 -6 -25
32 -40 32 -41 5 5 5 5 40 -47 41 -47 16 -17 16 -16 49 -61 49 -60 63 -56 63
-55 6 10 6 10 -76 77 -77 77 -53 66 -52 65 -56 49 -55 49 -12 25 -11 26 21 28
21 28 -7 12 -7 11 10 -6 11 -7 59 83 59 82 64 95 63 95 32 40 32 40 17 33 17
32 15 0 16 0 38 -27 39 -28 10 -20 10 -20 0 32 1 32 -57 40 -56 41 -7 0 -6 0
-19 -13z"/>
<path d="M1512 971 l-14 -8 14 -6 15 -5 0 14 0 14 -1 0 -1 0 -13 -9z"/>
<path d="M2911 948 l-11 -31 20 18 20 18 33 -29 32 -29 17 -20 18 -20 0 9 0 9
-57 54 -58 53 -1 0 -2 0 -11 -32z"/>
<path d="M2264 853 l-27 -48 -19 -35 -20 -35 15 15 14 15 36 68 37 67 -5 0 -4
0 -27 -47z"/>
<path d="M2897 856 l-35 -42 -31 -53 -32 -53 -54 -74 -55 -74 0 -8 0 -8 -31
-49 -31 -49 16 13 16 13 26 52 26 51 49 65 49 65 21 39 21 39 36 49 36 48 6 0
6 0 52 -52 52 -52 0 10 0 10 -54 52 -54 51 -35 -43z"/>
<path d="M2864 872 l-21 -18 -38 -54 -39 -55 -27 -40 -26 -40 -41 -73 -41 -73
9 6 10 6 21 42 22 42 65 100 65 100 35 38 36 37 -4 0 -5 -1 -21 -17z"/>
<path d="M2923 839 l-11 -14 -7 -27 -7 -28 -37 -42 -37 -43 -22 -32 -22 -31
-33 -59 -34 -58 -21 -36 -22 -36 166 -169 165 -169 10 -17 10 -18 -16 0 -16 0
-82 87 -82 88 -103 103 -104 102 -6 0 -7 -1 90 -87 90 -87 117 -122 117 -123
8 0 8 0 2 66 2 66 -35 43 -36 43 -52 38 -51 39 -52 49 -53 49 0 16 0 17 18 24
17 25 37 60 37 60 26 48 25 47 6 0 5 0 54 -56 55 -56 0 29 0 28 -54 48 -55 47
-11 0 -12 0 6 -16 6 -15 -9 5 -8 5 -20 -27 -20 -27 -8 -24 -7 -24 -19 -21 -19
-20 5 -14 5 -13 -9 5 -9 6 -17 -38 -16 -37 -19 -35 -18 -35 13 -25 13 -25 44
-40 43 -41 55 -44 55 -45 3 -7 4 -8 9 5 9 6 -6 -15 -6 -15 25 -16 25 -16 5
-19 5 -20 -9 0 -10 0 -159 162 -160 162 0 17 0 16 30 41 30 42 0 6 0 6 46 74
46 75 18 12 18 12 22 38 22 37 11 0 11 0 48 -47 48 -47 0 22 0 22 -13 0 -13 0
-36 33 -36 32 -4 19 -3 19 -12 -14z"/>
<path d="M2172 698 l-19 -33 -22 -40 -22 -40 18 24 18 24 28 49 27 48 -4 0 -4
0 -20 -32z"/>
<path d="M2182 628 l-39 -63 -12 -24 -13 -23 11 7 11 6 25 47 24 47 22 33 21
32 -5 0 -5 0 -40 -62z"/>
<path d="M380 657 l0 -4 51 -32 50 -31 7 0 7 1 -20 15 -20 16 -37 19 -38 19 0
-3z"/>
<path d="M515 575 l20 -16 85 -43 85 -43 190 -98 190 -97 35 -21 35 -20 52
-34 51 -33 11 0 10 0 33 -28 33 -28 65 -29 65 -28 51 -29 51 -28 14 0 14 0
-135 68 -136 67 -28 23 -29 22 -8 0 -8 0 -73 47 -73 47 -110 56 -110 56 -200
102 -200 102 20 -15z"/>
<path d="M2076 548 l-18 -33 21 25 21 25 0 8 0 7 -3 0 -3 0 -18 -32z"/>
<path d="M3025 570 l-6 -10 10 0 11 0 0 10 0 10 -4 0 -5 0 -6 -10z"/>
<path d="M2039 493 l-14 -18 18 14 17 13 0 4 0 4 -4 0 -4 0 -13 -17z"/>
<path d="M2088 473 l-25 -38 -12 -22 -12 -23 5 0 4 0 20 33 19 34 18 26 17 27
-5 0 -4 0 -25 -37z"/>
<path d="M2599 483 l-24 -28 28 24 27 24 0 4 0 3 -3 0 -4 0 -24 -27z"/>
<path d="M1987 392 l-39 -77 10 10 10 10 32 63 32 63 -4 4 -3 4 -38 -77z"/>
<path d="M2566 443 l-7 -7 108 -106 109 -105 49 -56 50 -56 65 -58 65 -59
-110 114 -110 115 -47 50 -48 50 -31 24 -31 25 -28 37 -27 38 -7 -6z"/>
<path d="M2013 351 l-21 -28 -4 -18 -3 -18 90 -69 90 -70 30 -14 30 -14 78
-55 78 -55 -6 10 -6 10 -60 43 -61 42 -31 17 -32 18 -92 67 -92 68 -1 12 0 12
21 35 21 36 -4 0 -4 0 -21 -29z"/>
<path d="M2 345 l2 -24 28 -12 27 -11 12 8 12 7 -6 -10 -7 -11 16 -6 16 -6 10
7 11 6 -6 -10 -6 -10 42 -14 42 -14 13 3 12 3 0 -9 0 -9 26 -12 25 -11 11 6
11 7 -6 -10 -6 -9 62 -23 62 -23 22 -2 21 -1 -6 -9 -5 -9 21 5 22 6 -6 -10 -7
-11 27 5 27 5 -5 -4 -4 -4 116 -59 115 -59 10 6 10 6 -6 -10 -6 -10 32 -1 32
-1 -50 31 -50 31 -160 77 -160 76 -105 38 -105 38 -40 18 -40 18 -49 21 -49
21 -3 0 -4 0 2 -25z"/>
<path d="M0 289 l0 -8 39 -11 39 -10 103 -46 104 -46 10 -8 11 -9 99 -36 100
-36 78 -40 78 -39 -5 8 -5 9 -83 41 -83 41 -80 30 -80 29 -100 47 -100 47 -62
23 -63 23 0 -9z"/>
<path d="M1930 281 l0 -7 33 -31 32 -31 70 -48 70 -47 25 -17 25 -16 32 -22
33 -22 25 -10 26 -10 -6 10 -6 10 -10 0 -10 0 -27 19 -27 18 -101 67 -100 67
-42 38 -42 39 0 -7z"/>
<path d="M5 240 l6 -10 11 0 10 0 166 -72 167 -71 26 -19 27 -18 47 -20 48
-21 4 5 4 4 -127 62 -127 62 -130 54 -130 54 -4 0 -4 0 6 -10z"/>
<path d="M114 154 l119 -45 26 -18 26 -18 75 -37 75 -36 -23 18 -23 18 -112
56 -112 57 -74 25 -74 26 -11 -1 -11 0 119 -45z"/>
<path d="M0 157 l0 -13 36 -17 35 -17 10 5 9 6 0 -8 0 -8 51 -24 52 -23 -13
-8 -12 -7 29 0 28 1 15 -5 15 -4 0 13 0 13 -85 38 -85 38 -42 16 -43 17 0 -13z"/>
</g>
</svg>
