<?xml version="1.0" standalone="no"?>
<!DOCTYPE svg PUBLIC "-//W3C//DTD SVG 20010904//EN"
 "http://www.w3.org/TR/2001/REC-SVG-20010904/DTD/svg10.dtd">
<svg version="1.0" xmlns="http://www.w3.org/2000/svg"
   viewBox="0 0 331.000000 392.000000"
 preserveAspectRatio="xMidYMid meet">
<metadata>
Created by potrace 1.16, written by Peter Selinger 2001-2019
</metadata>
<g transform="translate(0.000000,392.000000) scale(0.100000,-0.100000)"
fill="#006400" stroke="none">
<path d="M1340 3904 l-105 -13 -109 -25 -109 -26 -133 -64 -134 -65 -57 -42
-58 -42 -84 -76 -85 -76 -51 -62 -51 -62 -15 -28 -14 -28 -44 -69 -44 -69 -24
-66 -23 -65 5 -14 5 -13 -9 5 -8 5 -17 -60 -16 -60 6 -11 7 -11 -10 6 -10 6
-17 -77 -16 -77 -14 -85 -14 -85 -1 -320 -2 -320 -20 -135 -20 -135 -9 -70 -9
-70 -5 -15 -5 -15 -6 -70 -5 -70 -6 -88 -6 -88 12 -82 11 -82 10 -55 10 -55
41 -130 41 -130 7 -5 6 -5 18 -44 17 -43 40 -59 40 -60 11 7 11 7 -8 -12 -7
-13 42 -43 43 -44 9 5 8 5 -6 -15 -6 -16 13 -1 14 -1 8 1 8 1 -6 -10 -6 -10
53 -25 53 -25 23 0 22 0 0 20 0 20 9 0 9 0 48 -36 47 -36 8 13 8 13 38 -27 39
-27 22 0 21 0 -5 14 -5 13 14 6 14 5 -1 -38 -1 -38 -6 3 -6 4 -22 -23 -23 -24
19 -10 18 -10 17 -3 16 -4 25 36 25 37 16 57 17 57 7 148 8 149 5 6 6 5 69
-38 69 -38 35 -16 35 -16 67 -31 67 -31 5 0 6 0 64 -44 64 -44 55 -20 55 -21
98 -4 99 -5 70 14 69 15 76 40 75 41 5 7 5 7 56 45 57 45 100 58 101 57 6 9 6
10 9 0 10 0 -1 -82 -1 -83 2 -105 2 -105 10 -54 10 -54 20 -44 21 -44 18 -10
19 -10 25 17 25 16 -10 18 -10 19 0 9 0 10 51 12 50 12 52 35 52 35 55 57 55
56 28 13 28 12 42 32 42 32 43 52 42 51 26 39 26 38 40 76 39 75 24 75 24 75
6 44 7 44 14 34 14 33 32 123 32 122 0 175 1 175 -18 80 -17 80 -30 180 -31
180 -15 159 -14 159 -35 171 -35 171 -44 115 -43 115 -71 146 -70 146 -42 49
-42 49 -47 55 -46 55 -35 31 -35 32 -45 36 -45 35 -80 49 -80 50 -51 25 -51
26 -89 30 -90 31 -54 10 -55 11 -135 14 -135 15 -140 -1 -140 -1 -105 -14z
m280 -79 l0 -25 8 0 7 0 26 -23 25 -24 14 -6 15 -5 -17 -1 -17 -1 -8 -13 -8
-13 -40 -12 -40 -11 -20 -16 -20 -15 60 22 60 21 17 15 17 14 88 9 87 9 11 11
10 11 -88 -4 -88 -4 23 12 23 13 48 11 47 12 5 8 5 9 -37 -6 -38 -6 -42 -18
-43 -18 0 16 0 17 -11 -11 -11 -11 -24 25 -24 24 0 5 0 5 128 -5 127 -4 77
-16 78 -17 76 -19 76 -20 61 -33 62 -33 85 -53 84 -53 47 -39 46 -38 7 7 8 7
-3 -10 -3 -10 84 -85 85 -85 43 -73 44 -73 44 -86 44 -86 0 -16 1 -16 13 -17
13 -18 5 6 6 5 -1 -13 0 -13 1 -23 2 -23 9 5 9 6 -1 -13 0 -12 1 -23 2 -23 12
7 11 7 -6 -11 -7 -10 21 -81 22 -80 10 6 10 6 -6 -11 -7 -10 13 -51 13 -52 5
5 4 4 1 -31 1 -32 12 -95 11 -95 19 -170 20 -170 12 -87 13 -87 8 5 8 5 -5
-14 -6 -13 14 -85 13 -84 3 -130 2 -130 -11 -70 -11 -70 -35 -122 -35 -123
-15 -30 -15 -30 7 -11 7 -12 -9 6 -10 6 -34 -67 -35 -66 -57 -61 -56 -60 -8 7
-7 8 25 37 24 38 17 54 17 53 0 15 0 15 -9 -4 -8 -3 -63 -78 -62 -78 -5 5 -4
4 15 29 15 29 19 77 20 77 -8 0 -8 0 -36 -45 -37 -44 -30 -22 -30 -21 -5 5 -5
5 36 52 36 52 46 86 46 87 23 74 24 73 11 114 12 114 -12 117 -12 117 -24 111
-25 110 -19 85 -19 85 -11 70 -10 70 -7 75 -6 75 -9 15 -8 15 -1 -60 0 -61 25
-154 25 -155 26 -115 25 -115 15 -105 14 -105 0 -82 0 -82 -11 -53 -10 -53
-20 -84 -20 -85 -32 -55 -32 -56 -20 -38 -20 -38 -22 -27 -22 -27 25 90 25 90
15 55 16 55 5 115 6 116 -18 99 -17 100 -18 50 -18 50 -62 150 -62 150 -20
100 -19 100 -15 125 -15 125 -10 40 -11 40 -10 13 -11 12 8 43 7 42 4 60 4 60
-8 30 -9 30 -6 -94 -6 -94 -9 -9 -9 -9 -18 66 -17 65 4 25 5 24 -8 58 -9 58
-11 60 -11 60 -25 77 -24 77 -39 59 -38 60 -13 7 -12 8 8 -14 9 -14 28 -44 28
-45 26 -85 26 -86 14 -85 14 -85 1 -136 1 -137 -17 -32 -17 -32 14 4 13 4 21
63 21 62 7 -32 6 -32 0 -34 0 -34 -16 -24 -16 -25 8 0 9 0 11 8 10 7 16 23 15
23 12 -43 11 -43 15 -130 16 -130 14 -85 13 -85 17 -50 17 -50 23 -51 23 -52
16 -56 17 -56 2 -112 2 -113 -8 -38 -8 -39 -22 6 -22 6 -125 21 -125 21 -212
-4 -212 -3 -10 -10 -10 -10 214 3 214 3 146 -26 147 -25 9 6 9 5 0 -20 0 -21
-9 0 -9 0 -59 15 -58 14 -100 11 -100 11 -173 0 -173 -1 -14 -7 -14 -8 182 -1
182 -1 103 -12 103 -11 65 -17 64 -17 0 -9 0 -9 -37 6 -38 6 -95 11 -95 10
-90 9 -90 9 -95 1 -95 0 -12 -8 -12 -7 122 -2 122 -1 170 -21 170 -21 38 -6
37 -6 -6 -10 -6 -9 -14 5 -14 5 -143 21 -142 21 -160 -2 -160 -3 4 -65 3 -66
-13 -140 -12 -140 2 -29 2 -29 -48 6 -48 6 -52 22 -53 22 0 6 0 6 -2 170 -1
170 25 12 26 13 12 30 12 30 -6 35 -7 34 -25 31 -26 30 -10 0 -10 0 26 -31 26
-31 0 -42 0 -42 -15 -21 -14 -21 -21 -5 -21 -5 -30 29 -30 29 -10 0 -11 0 -28
-29 -29 -28 -6 16 -7 16 6 373 5 372 -8 0 -8 0 -6 -182 -7 -181 0 -218 0 -217
-16 -6 -16 -6 -7 4 -8 5 5 401 5 400 -11 0 -10 0 -3 -288 -4 -287 0 -107 0
-108 -5 0 -6 0 -12 12 -12 12 -6 -7 -6 -6 26 -24 26 -24 0 -54 0 -54 -7 -82
-6 -83 -15 0 -14 0 3 93 2 92 -2 55 -2 55 -10 -25 -10 -25 1 -30 2 -30 -1 -92
-1 -93 -11 0 -11 0 3 147 4 146 -12 4 -13 5 0 -156 0 -156 -10 0 -10 0 0 154
0 155 -10 6 -10 6 0 -171 0 -172 -12 5 -13 4 -1 166 -1 167 8 0 8 0 6 20 6 20
25 6 24 6 15 -12 15 -13 8 7 7 8 -19 14 -20 14 -25 0 -26 0 -11 -8 -10 -7 -7
-18 -6 -17 -16 0 -16 0 -26 26 -25 25 6 31 6 30 24 29 25 29 6 21 7 21 -6 5
-5 6 -28 -33 -28 -32 -12 -27 -12 -26 -1 -27 0 -26 23 -29 22 -28 -5 -195 -5
-195 -40 -6 -40 -7 -4 4 -5 5 -1 127 -2 127 -2 141 -3 141 -106 11 -107 11
-155 -15 -155 -16 -69 -16 -69 -17 -4 -12 -4 -11 48 14 48 15 130 15 130 16
140 -1 139 -1 7 -8 7 -7 5 -245 5 -245 7 -16 6 -16 -15 -6 -15 -6 -20 17 -20
17 -7 60 -6 60 -6 150 -7 149 -32 7 -32 6 -88 2 -88 2 -110 -10 -111 -11 -58
-15 -59 -15 -2 2 -3 3 -7 47 -7 46 21 12 21 11 128 25 127 25 116 6 116 6 94
-7 94 -8 2 -246 2 -247 6 -32 6 -33 11 0 10 0 -5 13 -5 14 -8 272 -7 272 -9 5
-9 6 -152 5 -152 5 -75 -10 -75 -11 -95 -16 -95 -17 -33 -15 -33 -16 -4 4 -4
5 -7 119 -6 120 17 90 16 89 30 86 30 85 24 99 24 99 35 101 35 101 35 80 35
80 10 3 9 3 7 -20 6 -21 8 0 8 0 -12 48 -13 47 9 56 9 56 15 44 16 44 35 64
35 63 -4 11 -3 10 -35 -54 -36 -54 -21 -47 -22 -47 -10 -43 -10 -43 0 -39 0
-39 -34 -61 -33 -61 -37 -95 -36 -95 -24 -88 -25 -89 -5 -6 -6 -5 5 119 6 119
16 160 17 160 0 27 1 26 6 -4 7 -4 6 38 6 38 19 60 19 59 20 50 20 50 42 73
41 74 -3 4 -4 4 -22 -29 -22 -30 -29 -58 -29 -58 -26 -61 -25 -62 -20 -73 -19
-74 -16 -100 -15 -100 -5 -45 -6 -45 -6 -185 -6 -185 -8 -65 -8 -65 -23 -87
-24 -88 -5 0 -6 0 -27 153 -26 152 -6 45 -6 45 0 131 1 132 15 103 14 104 26
95 25 95 15 53 14 52 7 12 7 11 -10 -6 -11 -7 -30 -97 -31 -98 -20 -71 -21
-70 -15 -128 -15 -127 6 -127 6 -127 29 -155 30 -155 6 -85 5 -85 -15 -50 -15
-50 -47 -125 -46 -125 -20 -95 -20 -95 6 -82 7 -83 13 -47 12 -48 27 -58 27
-57 13 0 14 0 32 -37 32 -38 -7 25 -6 25 -6 70 -6 70 37 -33 37 -32 9 0 9 0
16 -16 16 -16 4 4 4 4 -14 39 -14 40 0 30 0 30 19 -24 20 -23 0 -23 0 -23 21
-68 21 -69 19 -37 19 -37 22 -21 22 -20 7 -63 7 -62 7 -29 8 -29 -13 5 -13 4
-18 34 -19 35 -21 58 -20 57 -15 0 -14 0 0 -37 0 -38 14 -60 13 -60 8 -17 7
-18 -13 0 -12 0 -43 47 -43 47 -10 28 -10 28 9 0 9 0 11 -17 11 -18 -7 35 -7
35 -3 110 -2 110 -1 9 -1 10 -11 -11 -11 -11 4 -111 3 -111 -10 3 -9 3 -17 48
-16 47 -22 22 -21 21 0 -16 0 -17 20 -86 20 -87 11 -20 11 -20 -14 4 -13 5
-32 44 -32 44 -22 28 -21 28 -5 -5 -4 -4 21 -72 21 -72 -4 -4 -4 -4 -41 30
-41 29 -52 73 -51 73 -35 75 -35 75 -10 25 -10 25 -20 65 -19 65 -15 105 -15
105 0 160 0 160 10 95 11 95 10 80 10 80 11 88 11 87 8 0 8 0 6 -37 6 -38 10
-365 9 -365 20 -105 19 -105 16 -43 16 -44 31 -59 32 -59 63 -67 63 -67 6 6 7
6 -24 34 -23 33 -36 42 -37 43 -35 68 -35 67 -11 41 -11 41 -14 84 -15 84 -10
90 -11 90 1 220 1 220 -7 70 -7 70 -15 85 -15 85 -5 226 -6 225 12 100 12 99
34 140 33 140 32 95 32 95 77 109 76 110 65 66 65 66 80 60 80 60 65 41 65 42
95 34 95 34 110 26 110 26 50 9 50 10 113 1 112 1 0 -25z m1143 -2265 l15 -60
-8 0 -7 0 -12 43 -12 42 -5 18 -5 17 9 0 10 0 15 -60z m-3 -160 l-23 -50 -4 4
-4 3 7 68 7 67 20 -21 21 -20 -24 -51z m-2236 -50 l7 -85 20 -98 19 -97 -16
-25 -16 -25 -22 0 -22 0 -22 16 -22 15 -20 39 -20 39 0 33 0 33 35 105 36 105
11 28 11 29 7 -14 7 -13 7 -85z m2270 -48 l-5 -33 -12 4 -12 4 -3 18 -4 17 13
47 13 46 8 -35 8 -35 -6 -33z m-18 -70 l15 -8 -11 -66 -12 -66 -30 -6 -30 -6
-10 6 -9 6 5 41 4 42 12 69 13 70 18 -37 19 -36 16 -9z m-1646 -41 l0 -96 11
-64 10 -64 -9 -9 -10 -10 -7 94 -8 93 1 47 1 47 -14 11 -15 12 -142 0 -143 1
-90 -17 -90 -17 -28 -9 -28 -9 3 22 3 22 55 12 55 12 100 9 100 9 123 1 122 0
0 -97z m617 84 l5 -16 30 -15 29 -15 -1 -137 -2 -137 -5 -27 -5 -28 -9 6 -9 5
0 152 0 152 -10 15 -10 15 0 -157 0 -158 -10 0 -10 0 0 68 0 67 -7 83 -6 82
-8 0 -7 0 4 -132 5 -133 3 -17 4 -17 -14 -5 -14 -5 0 154 0 154 -11 6 -11 7
23 24 22 24 9 0 9 0 6 -15z m733 -12 l115 -15 43 -5 42 -5 0 -15 0 -15 -27 5
-28 6 -75 16 -75 17 -175 1 -175 2 -7 10 -7 9 -4 -4 -5 -5 -7 -132 -7 -132 -7
-75 -7 -75 28 -6 28 -7 58 1 57 0 105 -15 105 -15 23 -6 22 -5 0 -10 0 -10
-27 6 -28 6 -144 10 -143 10 -54 17 -54 18 -4 12 -5 11 10 69 11 68 1 137 2
137 25 4 25 4 125 -4 125 -4 115 -16z m-1094 -73 l2 -45 -5 -132 -6 -133 -8 0
-9 0 0 181 0 181 11 -4 12 -4 3 -44z m1166 26 l67 -15 28 -15 28 -15 -5 -1 -6
0 -94 22 -95 21 -177 1 -178 1 0 14 0 14 183 -6 182 -6 67 -15z m-1492 8 l-45
-4 -142 -10 -143 -11 -57 -15 -57 -15 -14 -11 -14 -12 -8 15 -9 14 8 8 9 9
103 18 104 17 155 0 155 0 -45 -3z m620 -51 l1 -48 1 -65 0 -65 -1 -45 -1 -44
-9 9 -10 10 -1 140 -1 140 0 8 1 7 10 0 10 0 0 -47z m-580 -40 l1 -68 9 -100
10 -99 15 -15 15 -15 0 17 0 18 10 -6 10 -6 0 -18 0 -18 -41 -7 -40 -6 -109
-6 -108 -6 -64 -13 -63 -14 -18 21 -18 21 4 11 3 10 70 13 69 14 100 7 100 7
-2 35 -2 35 -7 99 -7 99 -106 -6 -106 -5 -95 -17 -95 -17 -18 -10 -19 -10 -3
4 -3 3 -7 26 -6 25 58 18 58 17 95 13 95 14 108 1 107 1 0 -67z m541 55 l4
-13 -3 -138 -3 -138 -27 3 -27 3 0 147 0 148 26 0 27 0 3 -12z m824 -3 l90
-14 53 -16 53 -16 -3 -17 -3 -17 -55 3 -55 3 -55 9 -55 9 -125 6 -125 7 -6 4
-6 3 -7 -61 -6 -61 0 -57 0 -57 113 -6 112 -7 78 -14 78 -14 7 -6 6 -7 -11
-17 -11 -17 -23 1 -24 1 -130 17 -130 16 -64 0 -64 0 7 48 6 47 7 117 6 117
21 4 21 4 105 2 105 1 90 -15z m-176 -71 l4 -4 -36 0 -35 0 -16 -6 -16 -6 0
16 0 16 48 -7 47 -6 4 -3z m-1269 -8 l0 -13 -127 -6 -128 -6 -60 -15 -60 -14
-22 -7 -23 -7 0 15 0 16 53 10 52 10 65 11 65 10 30 3 30 4 63 2 62 1 0 -14z
m-605 -35 l15 -29 30 -22 31 -22 35 -1 35 -1 8 13 9 13 5 -8 5 -9 20 -55 19
-55 46 -75 46 -75 -12 -4 -11 -4 -38 42 -37 43 -18 39 -17 39 -8 0 -8 0 0 -53
0 -52 10 -34 10 -35 -6 -5 -6 -6 -22 28 -23 29 -31 76 -31 77 -6 32 -7 33 -9
5 -9 6 0 -25 0 -24 20 -64 20 -63 0 -84 0 -83 -15 12 -15 12 -27 55 -27 56
-12 64 -12 65 2 77 2 76 8 13 7 12 4 0 4 0 16 -29z m2220 7 l10 -9 -60 7 -60
7 -45 8 -45 8 95 -6 95 -5 10 -10z m-138 -14 l141 -17 -5 -14 -5 -13 -12 0
-11 0 -78 15 -78 15 -130 1 -130 2 -6 10 -6 9 14 9 14 9 75 -4 75 -5 142 -17z
m-1479 -2 l4 -12 -24 0 -23 0 -140 -15 -140 -14 -35 -11 -35 -10 -7 0 -8 0 0
11 0 10 33 14 34 14 119 14 119 13 49 0 49 -1 5 -13z m1677 -12 l6 -10 25 0
24 0 0 -8 0 -9 -20 -58 -20 -58 -9 -11 -9 -11 -26 -66 -26 -66 0 -29 1 -29 34
38 35 37 19 0 19 0 -29 -72 -29 -73 -22 -40 -21 -40 -50 -63 -49 -63 -5 5 -6
5 32 80 33 79 -4 28 -3 28 -55 -73 -55 -72 -2 8 -3 9 41 94 42 95 2 66 3 66
12 24 12 24 18 20 18 20 12 40 11 40 11 28 10 27 9 0 8 0 6 -10z m-177 -37
l102 -17 0 -7 0 -8 -9 -5 -9 -6 -98 15 -99 15 -110 6 -110 6 -4 3 -3 4 7 12 8
12 111 -6 111 -6 103 -18z m-1498 8 l0 -11 -57 -1 -58 0 -29 -4 -30 -4 -67
-10 -68 -11 -26 -10 -26 -10 -15 0 -14 0 0 15 0 15 8 0 7 1 125 18 125 17 63
3 62 2 0 -10z m3 -44 l5 -13 -97 -1 -96 -1 -75 -16 -75 -15 -22 -7 -23 -6 0
10 0 11 23 7 22 8 95 17 95 17 71 1 72 1 5 -13z m1477 -12 l94 -16 5 -5 5 -4
-11 -11 -10 -10 -29 11 -29 11 -125 15 -125 14 -47 0 -48 0 0 12 0 11 113 -6
112 -7 95 -15z m-1470 -28 l0 -14 -127 -7 -128 -6 -55 -15 -55 -15 -2 0 -3 0
0 15 0 15 26 6 26 7 91 12 92 13 68 1 67 1 0 -13z m1375 -3 l50 -5 55 -12 55
-11 -24 -4 -25 -4 -60 12 -60 12 -65 3 -66 4 -42 0 -43 1 0 11 0 12 88 -7 87
-6 50 -6z m-842 -41 l48 -17 62 16 62 16 50 -26 50 -27 30 -12 30 -11 -21 -1
-21 -1 -55 11 -56 11 -52 -17 -52 -17 -60 22 -61 22 -56 -11 -56 -10 -42 -5
-42 -4 -5 6 -6 5 81 27 80 27 6 7 6 6 16 0 16 0 48 -17z m-523 0 l0 -8 -57 3
-58 3 -105 -20 -105 -19 -14 -3 -13 -4 -5 11 -4 11 43 12 43 11 50 3 50 3 88
2 87 2 0 -7z m2059 -90 l-21 -58 -39 -80 -40 -80 -27 -36 -27 -36 -43 -51 -43
-50 -60 -27 -61 -27 -4 5 -5 5 31 28 31 29 30 42 29 42 0 10 0 10 -57 -39 -56
-40 -13 0 -14 0 30 47 30 47 0 13 0 13 -8 0 -7 0 -13 -21 -13 -21 -5 4 -4 4
20 100 19 101 10 25 10 26 31 22 31 22 5 -4 4 -5 -41 -82 -40 -81 3 -23 4 -22
62 63 63 62 5 0 4 0 -25 -50 -25 -49 -3 -19 -3 -19 -17 -18 -18 -17 5 -5 5 -5
25 6 25 6 80 80 80 79 27 53 26 53 10 13 10 12 4 0 4 0 -21 -57z m-1561 23
l27 -13 35 -7 36 -6 53 16 54 16 62 -11 62 -11 47 0 48 0 16 -20 17 -19 77
-31 76 -30 64 0 63 0 35 -9 35 -9 29 -7 29 -6 -10 -10 -10 -10 -44 10 -44 9
-95 7 -95 7 -55 24 -54 25 -16 13 -15 13 -22 6 -23 5 0 -7 0 -8 18 -16 18 -16
55 -25 55 -26 135 -15 134 -16 9 -9 9 -9 -33 -19 -32 -20 -31 8 -32 9 -80 5
-80 5 -41 14 -41 15 -56 32 -57 32 -55 -23 -55 -23 -59 11 -60 12 -70 -11 -71
-10 -49 16 -50 16 -12 0 -12 0 17 -19 17 -18 -98 -40 -98 -40 -28 -7 -28 -7
-85 -14 -85 -15 -39 27 -40 28 0 11 0 11 77 7 76 6 46 0 46 0 69 25 68 24 19
17 19 17 -4 4 -4 4 -29 -14 -29 -15 -64 -22 -65 -22 -98 -5 -98 -4 -25 -10
-26 -9 -9 6 -9 5 0 9 0 8 68 11 67 10 85 5 85 6 40 14 39 14 4 11 4 11 -6 0
-7 0 -58 -20 -59 -20 -124 -10 -123 -11 -25 -2 -25 -2 -3 10 -3 10 38 7 38 7
101 0 100 1 55 16 54 16 15 14 14 14 -10 0 -10 0 -57 -20 -57 -20 -103 0 -103
0 -52 -13 -52 -14 -5 5 -5 5 0 7 0 7 83 11 82 12 90 4 90 4 26 11 26 10 7 24
6 24 102 1 103 0 45 10 45 10 8 1 8 1 27 -14z m589 -25 l38 -9 100 -6 100 -6
58 -6 57 -7 0 -8 0 -8 -9 -5 -9 -6 -53 11 -54 10 -109 4 -110 4 -38 17 -38 17
0 10 0 9 14 -5 15 -6 38 -10z m-82 -11 l30 -20 40 -11 40 -12 60 2 60 1 80
-11 80 -11 4 -4 5 -4 -11 -11 -11 -11 -89 16 -88 16 -54 0 -54 0 -74 35 -73
35 0 5 0 5 13 0 12 0 30 -20z m-873 -2 l-12 -12 -57 -7 -58 -7 -65 -1 -65 -1
-60 -16 -60 -15 -15 -2 -14 -2 -4 16 -3 16 78 12 78 12 105 8 105 8 30 2 29 1
-12 -12z m1337 -143 l-42 -107 -33 -54 -33 -54 3 0 3 0 45 20 45 20 28 40 28
40 3 0 4 0 -20 -50 -20 -51 -21 -42 -21 -42 -16 -17 -15 -18 18 -7 18 -6 66
69 66 69 38 58 39 58 4 -3 3 -4 -19 -63 -19 -64 -23 -24 -22 -24 12 -8 12 -7
-41 -43 -41 -42 -76 -50 -77 -50 -9 132 -9 132 19 17 19 16 3 14 4 15 28 65
28 65 13 55 13 55 16 22 15 21 3 -23 3 -22 -42 -108z m-1816 84 l22 -12 3 -2
2 -2 14 -79 14 -79 11 -27 10 -27 -9 -6 -9 -5 -4 7 -5 8 -35 85 -35 85 -7 33
-7 32 7 0 6 0 22 -11z m125 -93 l52 -50 0 -98 0 -98 -8 0 -8 0 -23 30 -22 31
-15 42 -15 42 -20 72 -19 73 0 10 0 11 13 -7 12 -8 53 -50z m1095 25 l52 -29
50 -15 50 -16 65 -6 65 -5 32 -6 33 -6 -6 -9 -5 -9 -82 6 -82 5 -57 14 -58 15
-37 19 -38 20 -28 19 -27 19 7 6 6 7 4 0 3 0 53 -29z m523 -66 l-35 -75 -6 0
-6 0 3 50 4 50 34 35 35 36 3 -11 4 -11 -36 -74z m-976 56 l0 -9 -25 -16 -26
-17 -119 -40 -118 -39 -56 -11 -57 -10 -22 7 -22 7 20 8 20 8 46 0 47 1 66 20
66 21 64 28 64 29 6 11 7 11 20 0 19 0 0 -9z m223 -21 l32 -30 96 -50 95 -49
88 -17 88 -18 -16 -11 -16 -12 -28 4 -27 5 -80 25 -79 26 -57 34 -58 33 -31
26 -31 26 -5 -5 -5 -5 23 -26 23 -25 58 -35 58 -34 72 -26 72 -25 38 -6 39 -6
-17 -19 -16 -18 -52 13 -52 12 -65 31 -65 30 -80 50 -79 50 -38 -24 -38 -24
-53 -24 -52 -24 -60 -25 -60 -25 -38 -7 -37 -7 0 9 0 9 48 13 47 12 80 36 80
36 47 34 48 33 27 1 28 1 -12 5 -13 5 0 14 0 14 -4 0 -4 0 -80 -53 -79 -54
-104 -36 -104 -36 -28 -6 -29 -6 4 18 3 18 67 12 66 12 58 25 59 24 60 36 60
37 15 14 14 15 34 0 33 0 32 -30z m168 10 l28 -21 48 -21 47 -21 56 -13 55
-13 35 -1 35 -1 20 -9 20 -9 -50 1 -50 0 -70 9 -70 9 -92 47 -93 46 6 8 5 9
21 0 20 0 29 -20z m-301 5 l0 -5 -82 -41 -83 -42 -54 -18 -54 -19 -26 1 -26 1
70 22 70 23 45 23 45 23 24 18 24 19 23 0 24 0 0 -5z m223 -22 l42 -27 40 -22
40 -22 51 -15 51 -15 67 -7 66 -7 0 -11 0 -10 -64 7 -64 6 -61 21 -62 20 -62
31 -62 31 -28 24 -29 23 16 0 16 0 43 -27z m-104 -112 l58 -40 88 -40 88 -41
26 0 26 0 15 -10 15 -10 -47 0 -47 0 -74 29 -75 29 -66 42 -66 43 0 8 0 8 -77
-41 -77 -41 -70 -23 -70 -24 -15 0 -16 0 113 46 114 46 46 29 46 29 4 0 3 0
58 -39z m-449 4 l0 -5 -22 -9 -23 -8 -22 -7 -23 -7 0 9 0 9 33 11 32 10 13 1
12 1 0 -5z m-105 -25 l-6 -10 -10 0 -9 0 0 10 0 10 16 0 15 0 -6 -10z m474
-18 l-24 -18 -55 -26 -55 -26 -49 -16 -48 -17 -21 7 -20 6 69 23 69 22 65 31
65 30 14 1 14 1 -24 -18z m96 -32 l40 -27 70 -27 70 -28 40 -8 40 -8 -41 -1
-41 -1 -54 19 -54 19 -35 19 -35 18 -37 24 -38 23 6 9 5 9 12 -7 12 -6 40 -27z
m-61 -9 l21 -20 71 -35 71 -35 29 -6 29 -7 19 -5 19 -5 -15 -9 -15 -8 -64 -10
-64 -10 -71 -6 -72 -7 -63 17 -64 16 -39 25 -38 26 65 23 65 22 43 26 44 25 4
1 5 1 20 -19z m1106 -31 l-10 -20 -23 -11 -22 -12 -5 -7 -5 -7 -105 -92 -105
-91 -22 0 -23 0 0 10 0 10 9 0 9 0 75 51 75 50 42 50 41 49 37 20 37 19 3 1 3
0 -11 -20z m-46 -128 l-60 -58 -38 -18 -37 -18 -25 -4 -25 -5 73 64 73 64 30
16 30 16 20 0 20 0 -61 -57z"/>
<path d="M1453 3769 l-33 -10 0 -4 0 -5 43 6 42 6 78 -16 78 -16 11 6 11 7
-59 18 -59 19 -40 -1 -40 -1 -32 -9z"/>
<path d="M1886 3343 l7 -18 28 -110 28 -110 12 -105 12 -105 1 -130 1 -130 -7
-40 -7 -40 16 35 16 35 2 130 3 130 -9 85 -8 85 -26 110 -26 110 -19 42 -19
43 -7 0 -6 0 8 -17z"/>
<path d="M2070 3233 l50 -98 20 -70 20 -69 16 -96 17 -95 1 -105 0 -105 -7
-40 -7 -40 9 15 9 15 12 71 13 72 -6 68 -6 69 -10 70 -10 70 -25 75 -24 75
-17 39 -17 40 -40 68 -41 68 -4 0 -3 0 50 -97z"/>
<path d="M1626 3215 l-7 -100 -5 -75 -5 -75 -10 -100 -9 -100 -9 -89 -10 -88
-6 -6 -5 -5 0 15 0 15 -21 67 -21 67 -4 -3 -3 -4 18 -82 18 -82 7 -8 8 -7 14
19 14 20 0 25 0 26 10 33 9 34 15 161 15 162 5 105 6 105 -8 35 -8 35 -8 -100z"/>
<path d="M2467 3250 l12 -15 39 -105 40 -105 11 -65 11 -65 5 -35 6 -35 5 -85
5 -85 -8 -107 -9 -108 3 0 2 0 18 33 17 32 0 155 1 155 -18 94 -17 94 -51 118
-51 118 -16 13 -17 13 12 -15z"/>
<path d="M1487 3123 l-5 -8 -17 -135 -17 -135 -20 -107 -20 -106 4 -24 4 -23
8 30 7 30 8 30 9 30 1 -65 1 -65 9 -14 8 -13 6 173 6 174 10 114 11 114 -4 4
-4 4 -5 -8z"/>
<path d="M1181 3020 l-40 -82 -30 -81 -30 -82 -16 -65 -17 -65 4 -67 4 -68 10
-10 10 -10 -4 60 -4 61 13 62 13 62 13 -78 14 -79 20 -40 20 -40 4 4 3 3 -25
75 -25 75 4 95 4 95 38 90 37 90 16 32 17 32 -6 7 -7 6 -40 -82z"/>
<path d="M2391 2762 l-1 -74 -16 -56 -15 -57 -16 -43 -15 -43 5 -6 6 -5 19 39
19 38 17 57 16 56 -1 59 -1 58 -8 25 -8 25 -1 -73z"/>
<path d="M1636 2809 l6 -11 24 -101 24 -102 0 -35 1 -35 10 19 11 18 -16 90
-17 89 -15 40 -16 39 -10 0 -9 0 7 -11z"/>
<path d="M1931 2770 l-2 -35 -18 -90 -19 -90 4 -4 4 -4 14 34 14 34 9 70 9 70
-7 25 -7 25 -1 -35z"/>
<path d="M2105 2773 l8 -18 13 -50 14 -49 0 -40 0 -40 12 12 13 13 0 37 -1 37
-23 58 -23 57 -10 0 -10 0 7 -17z"/>
<path d="M1756 2735 l-7 -40 -14 -70 -14 -70 -4 -27 -4 -28 6 0 6 0 18 40 17
40 0 28 0 27 10 41 9 40 -8 30 -8 29 -7 -40z"/>
<path d="M1258 2743 l-15 -18 -23 -49 -23 -49 -5 -47 -4 -47 9 -6 9 -6 1 22 2
22 12 45 13 45 24 38 25 38 7 -8 7 -8 13 -60 12 -60 10 -15 9 -15 -5 30 -5 30
-7 48 -7 49 -13 5 -14 5 0 14 0 14 -8 0 -9 0 -15 -17z"/>
<path d="M1793 2742 l19 -21 23 -73 23 -73 1 35 1 35 -28 54 -27 54 -15 5 -15
5 18 -21z"/>
<path d="M995 2729 l-8 -12 -5 -68 -5 -69 17 -45 18 -45 10 0 10 0 -11 14 -12
14 -9 60 -10 59 9 49 9 49 -3 3 -3 3 -7 -12z"/>
<path d="M933 2673 l-29 -48 -12 -34 -12 -34 0 -31 1 -31 22 65 23 65 26 48
27 47 -9 0 -8 0 -29 -47z"/>
<path d="M1025 2277 l-40 -14 -57 -32 -58 -33 -7 -11 -6 -10 19 8 19 9 56 4
55 4 55 -12 54 -11 85 -9 85 -9 35 -10 34 -11 9 9 8 8 -43 43 -43 43 -45 20
-45 19 -65 4 -65 4 -40 -13z m177 -18 l37 -10 42 -32 42 -32 5 -13 4 -12 -29
11 -28 11 -65 3 -65 3 -60 16 -60 15 -40 1 -39 0 24 17 25 18 55 12 55 12 30
-6 30 -5 37 -9z"/>
<path d="M1950 2267 l-35 -12 -30 -17 -30 -16 -34 -36 -34 -35 -7 -48 -8 -48
4 -4 4 -5 28 27 27 26 35 14 35 15 45 7 44 7 36 30 37 29 60 11 61 11 68 -11
68 -11 5 5 5 5 -14 9 -15 10 -55 21 -55 22 -105 3 -105 3 -35 -12z m248 -13
l22 -6 0 -9 0 -8 -13 5 -13 5 -68 -15 -68 -14 -27 -26 -28 -26 -58 -10 -58 -9
-39 -21 -39 -20 -8 0 -9 0 5 19 5 18 29 36 29 35 45 22 45 22 47 8 48 9 65 -5
65 -4 23 -6z"/>
<path d="M2006 2120 l-28 -9 -19 -17 -19 -17 0 -19 0 -19 28 20 27 20 59 9 59
10 66 -14 66 -14 53 -21 52 -21 0 -9 0 -8 -42 16 -43 15 -75 0 -75 0 -55 -19
-55 -20 -50 -24 -50 -24 -3 -17 -3 -17 48 -24 48 -24 40 -22 40 -21 57 -10 56
-11 59 20 58 20 88 42 87 41 0 18 0 18 -53 39 -52 40 -35 18 -34 18 -59 13
-59 14 -10 -6 -11 -7 6 10 7 10 -47 7 -46 6 -26 -1 -26 -1 -29 -8z m243 -110
l35 -10 8 -12 8 -13 0 -31 0 -31 -23 -34 -23 -34 -38 -3 -39 -3 -10 10 -11 11
-26 0 -27 0 -13 24 -13 24 7 29 7 28 11 28 10 27 52 0 51 0 34 -10z m-169 -7
l0 -8 -10 -36 -10 -37 10 -27 11 -28 -6 -5 -5 -5 -37 25 -38 25 -37 12 -38 13
0 7 0 8 58 25 57 26 15 5 15 5 8 1 7 1 0 -7z m334 -55 l26 -14 -64 -31 -63
-31 1 57 1 58 37 -13 37 -13 25 -13z"/>
<path d="M968 2106 l-47 -13 -38 -28 -38 -29 -61 -53 -61 -53 0 -14 0 -14 30
-6 29 -6 9 6 9 5 0 -9 0 -9 48 -16 47 -16 58 -21 59 -21 62 0 63 -1 41 11 41
12 29 24 28 24 42 16 42 17 0 8 0 9 -57 26 -57 26 -16 14 -16 14 -64 17 -65
16 -62 -5 -63 -6 -72 -30 -72 -31 -3 4 -4 4 53 45 54 46 24 9 25 9 66 7 66 7
97 -36 96 -36 10 6 10 6 0 12 0 12 -48 21 -47 22 -100 5 -100 6 -47 -13z m194
-114 l16 -17 2 -15 2 -15 -1 -27 -1 -26 -27 -32 -27 -32 -58 6 -59 6 -28 15
-29 14 -6 16 -6 17 0 28 0 29 10 25 9 25 38 4 38 5 55 -5 55 -4 17 -17z m-236
-57 l-1 -65 -5 0 -5 0 -53 20 -52 20 -20 0 -20 0 0 8 1 7 77 37 77 36 1 1 2 1
-2 -65z m348 14 l56 -22 0 -7 0 -8 -25 -6 -25 -6 -45 -32 -45 -32 -6 6 -6 6
12 22 12 22 -4 39 -4 39 12 0 12 0 56 -21z"/>
<path d="M1440 1981 l0 -8 27 -49 27 -48 4 12 4 12 -27 45 -26 45 -4 0 -5 0 0
-9z"/>
<path d="M1752 1978 l-10 -13 -16 -32 -16 -32 0 -16 0 -15 8 0 8 0 12 34 13
34 14 6 15 5 0 21 0 20 -9 0 -9 0 -10 -12z"/>
<path d="M2460 1863 l15 -5 43 -19 42 -18 0 8 0 9 -40 16 -40 16 -18 -1 -17
-1 15 -5z"/>
<path d="M720 1852 l-15 -7 -22 -15 -23 -15 0 -8 0 -9 34 21 33 21 16 0 16 0
6 10 6 10 -18 -1 -18 0 -15 -7z"/>
<path d="M2421 1846 l4 -3 33 -17 32 -17 0 9 0 9 -25 11 -26 12 -11 0 -11 0 4
-4z"/>
<path d="M693 1799 l-33 -21 0 -4 0 -4 8 0 8 0 34 25 34 25 -10 0 -9 0 -32
-21z"/>
<path d="M1490 1535 l0 -20 -15 -29 -15 -29 6 -6 6 -6 14 20 15 20 6 23 6 23
-12 12 -11 11 0 -19z"/>
<path d="M1705 1513 l6 -28 15 -15 14 -14 0 10 0 11 -11 32 -11 31 -10 0 -10
0 7 -27z"/>
<path d="M1951 1198 l0 -197 -7 -65 -7 -66 11 0 11 0 4 23 4 22 2 -25 1 -25 9
-14 9 -14 6 44 5 44 11 100 10 100 1 93 1 93 -6 6 -6 6 -1 -39 0 -39 -4 -20
-3 -20 -7 -87 -7 -88 -6 -4 -7 -4 -1 167 -1 167 -11 20 -11 19 0 -197z"/>
<path d="M844 1350 l-81 -8 -88 -16 -88 -15 -11 -12 -11 -12 30 7 30 6 95 14
95 15 183 7 182 6 2 -208 1 -209 -1 -17 -1 -16 13 -11 14 -12 -4 113 -4 113
-4 123 -4 123 -4 4 -5 5 -129 4 -129 5 -81 -9z"/>
<path d="M1860 1066 l0 -175 10 -6 10 -6 0 180 0 181 -10 0 -10 0 0 -174z"/>
<path d="M1337 660 l-17 -20 9 0 9 0 12 15 13 15 -5 5 -4 4 -17 -19z"/>
</g>
</svg>
