<?xml version="1.0" standalone="no"?>
<!DOCTYPE svg PUBLIC "-//W3C//DTD SVG 20010904//EN"
 "http://www.w3.org/TR/2001/REC-SVG-20010904/DTD/svg10.dtd">
<svg version="1.0" xmlns="http://www.w3.org/2000/svg"
   viewBox="0 0 303.000000 364.000000"
 preserveAspectRatio="xMidYMid meet">
<metadata>
Created by potrace 1.16, written by Peter Selinger 2001-2019
</metadata>
<g transform="translate(0.000000,364.000000) scale(0.100000,-0.100000)"
fill="#000000" stroke="none">
<path d="M955 3626 l-40 -13 -27 -17 -26 -17 -16 -40 -16 -39 0 -33 -1 -32
-42 -26 -42 -27 -72 -12 -72 -12 -46 -30 -46 -31 -24 23 -25 23 0 18 0 18 27
25 27 25 30 7 30 7 4 -12 4 -11 9 0 9 0 0 24 0 25 -22 15 -22 16 -37 0 -36 0
-34 -11 -34 -12 -33 -24 -32 -24 -16 -31 -16 -30 0 -47 0 -46 -30 -63 -30 -64
5 -24 4 -23 -8 5 -9 5 0 -14 0 -14 15 -44 16 -43 22 -24 22 -24 -17 -11 -16
-12 -55 -40 -56 -39 -30 -61 -31 -60 -3 -40 -4 -40 8 -73 8 -74 15 -24 16 -23
0 -16 0 -15 -26 -41 -26 -41 -1 -33 -2 -33 -6 3 -5 4 -26 -66 -25 -65 1 -48 1
-48 -7 5 -8 4 0 -28 0 -28 9 13 8 14 6 -43 6 -44 10 -3 11 -4 0 -23 0 -23 -20
-48 -21 -48 5 -13 6 -14 -10 6 -9 6 -7 -36 -6 -35 6 -15 6 -16 -10 6 -10 6 -1
-8 -2 -8 -2 -25 -3 -25 12 -14 11 -15 -14 9 -14 8 6 -24 7 -24 0 -28 0 -28 8
5 8 5 1 -17 1 -17 5 -22 5 -21 15 -29 15 -29 7 -37 7 -37 -16 -41 -17 -41 12
-14 11 -14 -10 0 -11 0 5 -17 6 -18 15 -34 16 -35 -18 -31 -17 -32 3 -54 3
-53 19 -41 20 -40 12 -26 13 -27 -19 -28 -19 -29 0 -55 0 -55 11 -38 10 -38
11 7 11 7 -5 -9 -6 -9 22 -40 23 -40 39 -27 39 -27 65 -24 65 -25 95 -12 95
-12 15 -5 15 -6 5 1 5 0 -1 -60 -2 -60 -7 -83 -7 -83 13 -19 12 -20 21 21 20
20 0 61 0 60 -7 100 -7 99 -13 14 -14 13 -64 5 -64 4 -60 11 -60 10 -57 21
-57 20 -45 44 -46 44 0 10 0 10 43 1 42 2 90 5 90 5 60 0 60 -1 55 -22 55 -22
65 -19 65 -20 65 -15 65 -14 3 10 4 10 47 0 48 0 94 21 94 20 48 6 47 6 0 6 0
7 18 1 17 1 28 3 27 3 0 8 0 8 35 0 34 0 28 11 28 12 40 17 40 18 17 19 17 19
20 44 20 45 21 90 21 90 10 40 11 40 19 43 19 43 0 9 0 10 -24 0 -23 0 -32 11
-31 11 0 9 0 9 -18 0 -19 0 -59 24 -59 24 -30 16 -30 16 -8 0 -8 0 -72 34 -72
35 -32 6 -33 7 0 9 0 9 -20 0 -20 0 0 11 0 10 -10 -6 -11 -7 -69 22 -69 22
-12 -8 -12 -7 7 11 7 12 -33 0 -33 1 -200 4 -200 5 -44 4 -44 3 -51 -9 -51 -8
-72 12 -73 12 0 32 0 33 -13 8 -13 8 -17 25 -17 24 0 -15 0 -16 20 -23 20 -23
0 -9 0 -8 -9 0 -10 0 -15 16 -16 16 -12 21 -12 22 -7 45 -6 45 -2 -40 -1 -40
23 -37 22 -36 26 -21 26 -20 -5 -28 -5 -28 -18 -29 -18 -30 5 -8 5 -8 -11 0
-12 0 7 68 6 67 -33 20 -33 19 -2 -2 -3 -2 -9 0 -9 0 -8 43 -8 42 -1 55 0 55
6 10 6 10 6 30 6 30 13 45 13 45 5 5 5 5 3 15 4 15 9 3 9 4 0 22 0 23 -6 6 -7
6 2 103 2 103 -5 -6 -6 -5 -4 -45 -5 -44 0 -39 -1 -39 -7 7 -7 7 -3 17 -3 17
-1 35 -2 35 8 45 8 45 14 22 15 22 -1 8 0 8 11 38 12 38 20 15 20 14 -14 0
-15 1 20 11 20 11 70 65 69 64 33 58 32 59 26 76 25 75 0 14 0 14 34 45 34 44
12 24 13 24 -22 -19 -21 -19 0 9 0 9 -13 -25 -13 -25 -49 -35 -49 -35 -46 -45
-46 -45 -16 -26 -17 -26 -25 -63 -26 -63 1 -26 0 -26 18 50 17 50 32 55 32 55
0 -11 0 -12 -26 -57 -27 -58 0 -53 0 -53 -19 -21 -19 -20 -10 5 -9 6 4 8 5 7
-24 69 -23 70 5 7 4 8 -12 0 -11 0 9 13 10 12 7 53 7 53 17 37 17 37 15 19 15
19 40 39 40 38 22 0 21 0 19 6 18 6 -67 -64 -66 -63 -26 -54 -26 -55 0 -13 0
-13 8 1 7 0 29 62 30 62 57 57 57 57 42 7 43 7 -24 19 -24 18 -25 6 -25 7 -32
24 -32 23 -7 38 -7 37 11 52 11 53 17 22 17 23 30 -27 29 -28 9 6 9 5 -34 42
-34 42 -7 27 -7 27 12 36 12 36 29 30 28 29 11 0 10 0 0 -9 0 -9 -15 -35 -15
-36 -10 -6 -10 -6 0 -10 0 -10 9 5 8 5 -4 -23 -5 -24 35 -27 34 -28 -25 -44
-24 -44 4 -34 4 -34 -8 6 -9 5 7 -29 7 -28 31 -42 31 -42 8 -1 7 0 0 15 0 15
13 0 12 1 -18 10 -19 11 -15 37 -15 36 -5 40 -4 40 20 39 20 39 -5 8 -5 9 14
-6 15 -5 14 19 13 20 35 20 35 20 58 7 57 7 23 18 22 17 45 17 45 16 86 -2 87
-3 -4 -4 -3 -4 63 -22 63 -22 49 -34 49 -34 8 3 8 2 -5 -8 -6 -9 19 -17 18
-16 5 6 6 5 -1 -18 -2 -18 13 3 13 2 -6 -10 -7 -11 20 -22 21 -22 36 -74 37
-74 5 -33 6 -34 13 0 14 0 0 29 0 29 -14 34 -15 34 62 -4 62 -5 18 -20 17 -20
0 13 0 13 -22 46 -22 46 -25 28 -25 27 -6 0 -7 0 -41 40 -42 39 -43 11 -42 11
-52 35 -53 34 -4 0 -4 0 -84 39 -83 39 -78 6 -79 6 -9 6 -9 5 0 29 0 29 11 24
11 24 28 16 28 17 17 0 16 0 -5 9 -6 9 20 -5 19 -5 12 -15 12 -14 -13 3 -14 3
-7 -43 -8 -43 19 -19 20 -20 10 0 11 0 62 20 62 21 20 9 20 10 76 8 77 8 -5
-11 -4 -12 -54 -17 -55 -17 0 -15 0 -14 10 0 9 0 54 24 54 24 51 7 51 7 66
-17 66 -16 17 13 16 13 -8 -12 -7 -13 29 0 28 0 95 -16 94 -16 68 -25 67 -24
12 7 11 7 -6 -10 -6 -10 61 -28 61 -28 35 -31 34 -31 26 -27 25 -27 10 6 10 6
-6 -10 -7 -10 19 -17 18 -16 8 7 8 8 -7 -12 -6 -11 32 -23 33 -23 39 -33 40
-33 16 0 17 0 23 -25 24 -26 14 6 13 5 -6 -10 -6 -10 33 -18 33 -17 40 -40 39
-40 9 3 8 2 -5 -8 -5 -9 29 -28 30 -29 0 -10 0 -11 28 -43 29 -42 8 7 8 8 -7
-12 -7 -12 15 -23 14 -23 31 -154 31 -154 0 -24 0 -24 11 7 11 6 -11 -20 -11
-21 0 -41 0 -41 -9 -17 -9 -17 -5 -32 -5 -32 9 -78 9 -78 14 -50 14 -50 7 -30
6 -30 -10 10 -10 10 -27 50 -28 50 -31 62 -31 62 -50 58 -49 58 -30 29 -30 29
-70 47 -70 46 -90 44 -89 43 -136 39 -135 39 -64 35 -63 35 -5 -5 -5 -4 45
-26 44 -26 64 -26 64 -26 90 -28 90 -27 103 -52 103 -52 52 -36 52 -36 97
-101 98 -101 11 -35 12 -35 13 -15 13 -15 29 -60 30 -60 12 -60 12 -61 -4 -54
-4 -53 -17 -3 -17 -2 0 36 0 37 -29 96 -29 97 -16 30 -16 31 0 10 0 11 -27 38
-27 38 -60 41 -60 42 -5 -5 -4 -4 40 -34 40 -35 51 -74 51 -74 3 -14 3 -14 5
-5 6 -5 28 -87 29 -88 0 -43 0 -43 -12 -55 -13 -54 -10 -27 -10 -28 -13 0 -13
0 -33 -43 -33 -44 -44 -29 -43 -29 -37 -54 -36 -54 1 -61 1 -61 26 -68 25 -68
-6 -30 -6 -29 -9 -6 -9 -6 -20 18 -19 17 -1 -64 -2 -64 -2 -20 -3 -20 -4 -42
-3 -41 -7 5 -8 4 0 -20 0 -19 -25 -30 -25 -30 -44 -15 -44 -15 -8 21 -7 22 -9
-95 -8 -95 -3 -22 -2 -21 -4 4 -4 4 -16 -14 -16 -15 -85 -35 -85 -36 -13 17
-13 18 36 6 35 6 24 22 23 22 12 40 12 41 -5 6 -6 5 0 -10 0 -10 -25 -29 -26
-29 -10 -13 -10 -12 -39 0 -39 0 -10 19 -10 18 -11 49 -11 49 -1 66 0 66 27
154 28 154 17 85 18 85 -8 9 -8 8 -6 -18 -5 -19 -27 -95 -26 -95 -20 -145 -19
-145 3 -100 3 -100 28 -55 28 -56 47 -32 47 -32 20 0 20 0 87 42 86 43 6 35 6
35 0 37 0 36 39 31 39 31 9 0 10 0 35 38 36 39 18 34 17 34 5 75 4 75 19 20
18 20 10 27 10 27 -20 68 -19 68 0 12 0 11 47 16 46 16 59 62 59 63 16 30 16
30 13 49 13 50 -6 42 -5 42 21 23 22 24 16 17 16 17 3 28 3 28 9 45 8 45 -3
65 -3 65 -14 75 -15 75 -6 52 -7 51 1 44 0 43 16 64 17 64 -6 96 -7 96 -15 65
-15 65 -9 46 -8 45 -12 43 -11 43 -33 62 -33 61 -36 56 -36 56 -51 56 -52 57
-61 48 -62 48 -38 18 -38 17 -57 46 -57 46 -63 63 -62 64 -7 0 -6 0 -16 14
-16 14 -65 35 -65 35 -40 12 -40 13 -45 22 -45 22 -165 12 -165 12 -86 30 -86
29 -54 0 -54 -1 -80 -39 -80 -40 -27 0 -26 0 -16 6 -16 6 0 17 0 17 12 12 12
12 19 0 18 0 -3 17 -3 17 -25 13 -25 13 -30 -1 -30 0 -40 -13z m464 -398 l36
-21 34 -36 33 -36 14 -20 14 -19 0 -8 0 -8 -17 -1 -18 -1 25 -8 25 -8 -26 -1
-26 -1 -33 6 -32 7 -26 56 -27 56 -21 20 -21 20 4 13 5 12 10 0 11 0 36 -22z
m-1015 -523 l-25 -80 -16 -33 -16 -32 -34 -40 -35 -40 -7 5 -8 4 8 51 8 51 14
27 13 27 19 30 20 30 -18 -14 -17 -13 0 7 0 8 17 19 16 18 15 0 15 0 -6 7 -7
6 33 23 32 22 2 -2 2 -1 -25 -80z m2512 -1268 l-6 -64 -20 -41 -20 -42 -10 0
-9 0 19 43 18 42 12 63 13 62 5 0 5 0 -7 -63z m-70 -173 l-6 -16 25 4 25 5 0
-14 0 -14 -15 -37 -16 -37 -26 -38 -26 -37 -61 -44 -61 -43 -15 -5 -15 -5 -12
13 -13 13 0 10 0 11 21 45 21 44 81 80 82 81 8 0 9 0 -6 -16z m-2653 -87 l47
-23 51 10 50 10 65 -17 64 -16 74 -51 74 -50 12 -15 12 -15 -17 0 -17 0 -68
35 -67 36 -69 7 -69 7 -45 -5 -45 -5 25 -7 25 -8 66 0 67 0 38 -16 39 -16 58
-29 58 -29 30 0 30 0 -6 -10 -6 -9 -42 -12 -42 -11 -75 -25 -75 -25 -107 25
-107 25 -60 -4 -60 -4 -6 21 -7 21 18 42 19 41 11 11 11 12 49 -5 49 -4 -20
16 -20 16 -38 -3 -37 -2 -14 20 -14 19 -2 25 -2 25 1 8 1 7 23 0 22 0 48 -23z
m131 -352 l37 -25 16 0 16 0 -7 -7 -7 -7 -21 -3 -21 -3 -12 17 -13 18 -8 -8
-7 -7 11 0 12 0 0 -11 0 -10 -42 3 -43 3 -3 33 -3 32 29 0 29 0 37 -25z"/>
<path d="M1510 3226 l0 -4 38 -39 38 -38 27 -38 28 -37 6 -35 6 -35 12 0 13 0
-15 53 -16 52 -30 44 -30 44 39 -7 39 -8 45 -7 45 -7 57 -32 57 -33 61 -61 60
-61 0 9 0 9 -20 25 -20 25 0 13 0 13 -45 41 -45 41 -41 19 -41 18 -64 10 -64
10 -50 -1 -51 -2 -11 11 -12 12 -8 0 -8 0 0 -4z"/>
<path d="M1086 3199 l6 -11 22 6 21 6 45 -16 45 -16 25 -11 25 -11 52 -44 53
-43 -8 19 -7 20 -48 40 -49 39 -50 17 -50 16 -45 0 -44 0 7 -11z"/>
<path d="M1914 3170 l39 -43 34 -71 34 -71 -6 40 -6 40 -47 70 -47 70 -20 4
-19 3 38 -42z"/>
<path d="M2015 3183 l10 -9 47 -37 46 -37 52 -65 52 -66 34 -67 34 -67 0 11 0
10 -17 50 -16 49 -25 40 -24 40 -32 34 -31 33 -55 37 -55 38 -15 8 -15 8 10
-10z"/>
<path d="M1816 3048 l29 -21 28 -26 27 -25 -1 10 0 9 -45 38 -45 37 -11 0 -11
0 29 -22z"/>
<path d="M685 3007 l-30 -14 -14 -17 -14 -17 -2 -36 -2 -35 4 -19 5 -19 9 0 9
0 0 16 0 15 16 50 17 50 15 -6 15 -6 8 12 7 12 74 0 73 0 44 -22 44 -23 24
-26 25 -27 25 -32 25 -32 -7 -11 -6 -10 -37 29 -37 29 -45 15 -45 15 -46 7
-45 7 -33 -14 -32 -13 78 0 78 0 45 -23 45 -24 35 -26 35 -27 8 3 8 2 -6 -9
-6 -10 18 -38 17 -38 4 38 3 39 -11 50 -10 51 -31 38 -30 38 -57 33 -57 32
-90 3 -90 3 -30 -13z"/>
<path d="M2290 3004 l0 -3 48 -87 47 -87 37 -41 37 -41 1 18 0 18 -29 28 -29
28 -7 24 -7 24 -31 57 -31 57 -18 4 -18 5 0 -4z"/>
<path d="M1250 2918 l15 -15 41 -11 41 -12 41 -27 41 -28 53 -51 53 -51 58
-62 59 -61 32 -25 33 -25 58 -20 58 -20 4 0 4 0 -5 9 -5 8 -64 31 -63 30 -95
94 -94 95 -59 48 -58 47 -52 23 -51 24 -30 7 -30 6 15 -14z"/>
<path d="M1118 2893 l41 -28 52 -45 53 -45 17 -18 17 -19 12 -46 12 -47 8 -60
8 -60 21 -56 21 -55 31 -32 31 -32 10 0 9 0 -31 38 -30 38 -10 33 -9 32 -7 67
-6 67 -9 11 -9 11 5 5 5 5 -20 46 -20 46 -63 54 -62 54 -44 32 -44 31 -15 0
-15 0 41 -27z"/>
<path d="M1320 2813 l0 -11 66 -68 65 -69 10 3 10 2 -5 -9 -6 -9 15 -12 14
-11 -5 -12 -4 -12 77 -80 78 -80 55 -27 55 -26 41 -11 41 -11 9 0 9 1 -65 26
-65 26 -53 40 -53 40 -72 95 -72 94 -25 34 -25 33 -35 17 -35 16 -12 16 -13
16 0 -11z"/>
<path d="M1710 2475 l14 -17 45 -23 46 -23 60 -15 60 -16 71 -15 72 -16 18 -6
19 -7 -11 12 -10 11 -140 35 -139 35 -60 31 -59 31 14 -17z"/>
<path d="M745 2378 l-30 -11 -30 -20 -30 -20 -12 -15 -13 -16 0 -35 1 -36 15
-25 15 -25 -5 18 -6 19 -6 23 -6 23 16 34 17 35 37 17 37 18 75 5 76 6 99 -43
100 -43 38 -29 37 -29 0 8 -1 8 -22 26 -22 27 -45 15 -45 16 -74 30 -74 31
-56 -1 -56 -1 -30 -10z"/>
<path d="M218 2337 l-46 -22 -12 -19 -12 -19 34 21 33 20 42 12 42 13 30 -13
30 -12 5 -17 5 -16 6 -32 7 -33 -6 0 -6 0 -20 12 -19 12 -53 -17 -53 -17 -45
-3 -45 -4 62 -1 62 -2 25 12 26 11 40 -12 40 -12 0 -32 0 -32 -10 -15 -9 -15
-13 16 -13 17 -28 6 -28 7 -41 -12 -42 -11 -28 -30 -28 -30 1 -32 1 -31 5 13
5 12 9 -6 9 -5 0 30 0 31 9 0 9 0 0 -25 0 -25 12 -15 12 -15 27 0 26 0 14 -9
13 -9 -7 -23 -8 -24 -6 -5 -6 -5 -20 -40 -19 -40 -30 -45 -29 -45 -39 -42 -38
-43 0 -12 0 -12 45 48 45 48 35 52 34 51 20 25 21 25 0 26 0 26 38 59 37 59
13 37 13 38 -5 82 -6 82 -15 16 -15 17 -39 11 -38 12 -9 -1 -9 -1 -47 -21z
m122 -235 l22 -18 -21 -42 -21 -41 -33 6 -32 6 -18 9 -18 9 2 37 3 37 3 8 4 7
43 0 44 0 22 -18z"/>
<path d="M1400 2342 l0 -8 13 -19 14 -20 13 -50 13 -50 34 -53 33 -53 10 6 10
6 -6 -14 -5 -14 16 -17 16 -16 12 -1 12 -1 8 1 8 1 -5 -8 -5 -9 37 -11 37 -11
75 -6 75 -7 100 -30 100 -30 38 -20 39 -19 5 5 5 5 -34 17 -33 17 -119 39
-118 38 -7 -4 -6 -4 -63 14 -62 14 -45 32 -45 32 0 8 0 8 -36 51 -35 51 5 5 5
6 38 -10 38 -9 30 7 30 7 37 1 37 1 6 10 6 10 -98 -2 -98 -2 -31 16 -31 17
-36 40 -37 41 0 -8z"/>
<path d="M1484 2342 l7 -12 57 -16 56 -17 191 -2 190 -2 59 -12 60 -13 80 -39
81 -40 -20 17 -20 16 -61 29 -61 29 -74 16 -74 16 -190 3 -190 3 -30 10 -30
10 -19 8 -19 7 7 -11z"/>
<path d="M2787 2265 l3 -65 31 -77 31 -78 5 -5 5 -5 -7 30 -7 30 11 -15 11
-15 0 8 0 8 -21 62 -21 62 -9 11 -10 12 -6 51 -6 51 -6 0 -7 0 3 -65z m60
-167 l-5 -13 0 25 0 25 5 -12 5 -13 -5 -12z"/>
<path d="M761 2266 l-54 -33 10 -6 10 -6 34 29 34 29 13 1 12 0 0 10 0 10 -3
0 -3 0 -53 -34z"/>
<path d="M869 2276 l13 -16 74 0 74 0 43 -33 43 -33 33 -13 32 -14 5 6 6 6 -5
8 -5 8 -49 25 -48 25 -10 11 -10 12 -25 5 -25 6 -80 6 -79 7 13 -16z"/>
<path d="M1820 2253 l0 -8 53 -13 53 -12 32 0 32 0 0 -10 0 -10 34 0 35 0 73
-16 73 -16 18 0 17 1 -5 -10 -6 -9 30 0 31 0 0 -9 0 -9 43 -20 42 -21 32 -33
31 -33 24 -25 24 -25 53 -50 53 -49 44 -66 43 -66 10 -44 9 -45 12 -112 12
-111 -25 -69 -25 -68 -12 -38 -12 -37 4 -12 4 -12 23 75 23 74 14 33 14 33 0
84 0 84 -10 74 -11 74 -46 86 -46 86 -58 64 -58 63 -58 39 -58 39 -42 34 -43
33 0 -5 0 -5 -42 15 -43 16 -55 15 -55 14 -53 9 -54 9 -56 6 -57 6 -32 5 -33
5 0 -8z"/>
<path d="M741 2191 l-11 -20 0 -20 0 -21 9 0 10 0 3 28 3 27 71 -2 71 -2 58
-16 57 -17 14 -17 15 -16 34 -40 35 -40 0 12 0 11 -35 42 -35 42 0 7 0 7 -32
11 -33 11 -50 10 -50 11 -62 6 -62 6 -10 -20z"/>
<path d="M799 2144 l-17 -19 -6 -23 -7 -22 -20 -10 -19 -11 0 -8 0 -8 68 -16
67 -16 50 -7 50 -7 9 -5 9 -5 36 -4 36 -3 47 -3 46 -4 -5 14 -5 13 -14 0 -13
0 -27 35 -27 36 -4 -5 -5 -5 21 -22 21 -23 0 -8 0 -8 -42 0 -43 0 -12 8 -13 8
30 33 30 33 -6 9 -5 9 -31 16 -30 15 -5 -4 -5 -5 21 -7 21 -6 0 -12 -1 -12
-12 -16 -12 -16 -22 -11 -22 -12 -23 0 -23 0 -32 20 -32 19 2 38 2 38 30 -1
30 0 35 -7 35 -8 -16 10 -16 11 -54 6 -54 6 -16 -18z m16 -84 l13 0 6 -15 5
-15 -27 6 -27 7 -3 3 -4 3 8 33 8 33 4 -27 3 -28 14 0z"/>
<path d="M682 2100 l0 -35 5 18 4 17 -4 18 -5 17 0 -35z"/>
<path d="M2867 2041 l-5 -19 9 -13 9 -14 0 33 0 32 -4 0 -4 0 -5 -19z"/>
<path d="M1554 2024 l6 -16 0 -4 0 -4 10 0 10 0 0 14 0 14 -16 6 -16 6 6 -16z"/>
<path d="M611 1981 l-1 -35 16 -58 17 -58 23 -25 23 -25 43 1 43 0 20 10 20 9
-58 -6 -59 -6 -18 17 -19 17 -16 49 -17 49 -8 48 -8 47 -1 -34z"/>
<path d="M814 1993 l7 -8 42 -12 41 -12 4 3 3 4 -47 16 -48 16 -4 0 -5 0 7 -7z"/>
<path d="M1790 1951 l145 -38 85 -26 85 -25 28 -11 29 -11 46 -32 47 -32 -15
18 -14 18 -57 39 -58 39 -16 -6 -16 -6 -72 26 -72 26 -132 30 -131 30 -14 -1
-13 -1 145 -37z"/>
<path d="M205 1970 l-6 -10 20 0 21 0 0 10 0 10 -14 0 -15 0 -6 -10z"/>
<path d="M1540 1970 l0 -15 21 -54 20 -55 21 -30 21 -31 36 -38 36 -39 48 -24
48 -25 121 -35 122 -35 3 -2 2 -3 -24 -37 -25 -37 -6 -29 -6 -29 13 -23 12
-24 11 -10 11 -11 19 -7 20 -8 49 18 49 18 26 26 27 26 11 18 10 18 19 -10 19
-11 58 -58 58 -58 0 -13 0 -12 -26 -18 -26 -18 -46 -40 -45 -40 -32 -50 -32
-50 -8 -25 -7 -25 -27 -28 -26 -29 -39 -20 -40 -20 -48 5 -49 6 -30 21 -29 22
-16 30 -16 31 0 56 -1 57 37 75 36 76 -1 49 -1 49 -8 -41 -8 -41 -33 -63 -34
-63 -3 -69 -4 -68 12 -33 13 -32 23 -32 24 -31 51 -17 51 -17 30 6 30 6 42 19
42 18 42 86 42 85 48 49 47 48 39 33 39 32 7 0 7 0 13 -25 13 -25 4 4 4 4 -17
35 -17 35 23 32 22 31 4 -3 3 -4 12 -74 11 -75 9 -15 8 -15 0 70 1 70 -10 45
-10 45 -21 41 -20 40 -47 50 -48 50 -76 32 -77 32 -9 0 -9 0 -79 26 -79 25
-92 24 -92 23 -75 43 -76 43 -50 50 -50 50 0 -11 0 -11 64 -59 64 -58 63 -32
64 -33 60 -15 60 -16 100 -30 100 -30 61 -20 61 -20 33 -24 34 -25 -15 0 -14
0 -31 19 -30 18 -90 27 -89 26 -77 14 -77 15 -68 20 -69 21 -69 46 -70 46 -26
24 -25 24 -8 0 -7 0 23 -22 23 -23 58 -43 58 -43 47 -23 47 -23 50 -13 50 -12
20 -4 20 -5 60 -10 60 -10 70 -21 70 -20 57 -29 57 -28 5 10 5 9 -4 -12 -3
-13 29 -30 29 -30 19 -40 19 -40 -8 -15 -9 -15 -13 -18 -13 -17 -81 79 -80 79
-76 36 -76 36 -11 0 -11 0 -18 10 -17 9 -45 10 -45 9 -75 22 -75 21 -50 25
-50 25 -22 21 -23 21 -35 52 -36 51 -24 60 -25 59 0 -15z m600 -419 l35 -17
23 -15 22 -14 0 -11 0 -10 -27 -27 -28 -26 -37 -15 -37 -16 -27 0 -27 0 -19
17 -18 16 0 21 0 21 31 53 30 53 22 -7 22 -6 35 -17z"/>
<path d="M2599 1962 l11 -21 11 -7 11 -6 -11 20 -11 21 -11 7 -11 6 11 -20z"/>
<path d="M1160 1943 l0 -8 35 -22 34 -23 5 9 5 8 -24 11 -25 12 0 10 0 10 -15
0 -15 0 0 -7z"/>
<path d="M710 1932 l0 -10 35 -53 35 -54 0 27 0 27 -13 8 -13 8 -22 29 -22 29
0 -11z"/>
<path d="M2664 1868 l17 -23 28 -60 28 -60 12 -78 11 -78 1 -77 1 -77 9 35 9
35 -5 75 -6 75 -5 25 -5 25 -22 60 -21 60 -28 43 -29 42 -6 0 -5 0 16 -22z"/>
<path d="M2400 1773 l0 -11 8 -4 8 -3 62 -73 62 -72 18 -38 19 -37 18 -54 18
-55 -6 -140 -7 -141 -5 -30 -5 -30 16 40 17 40 1 130 1 130 -14 50 -14 50 -23
50 -24 51 -75 79 -74 80 -1 -12z"/>
<path d="M400 1680 l-15 -10 52 2 53 1 25 -17 25 -16 13 -28 14 -27 7 -37 7
-37 -15 -30 -16 -29 -12 -5 -13 -5 22 -1 22 -1 11 19 10 20 0 36 0 36 17 -3
18 -3 17 -35 17 -35 1 14 0 15 12 -12 12 -12 8 0 9 0 -11 21 -11 20 -46 29
-46 30 -21 37 -21 38 -35 17 -35 18 -30 0 -30 0 -15 -10z"/>
<path d="M310 1526 l0 -15 26 -20 27 -21 10 0 10 0 -16 18 -17 19 0 12 0 12
23 -6 22 -7 18 -5 19 -5 -5 -24 -4 -24 12 0 13 0 5 14 6 14 -17 15 -17 16 -28
10 -28 11 -30 0 -29 0 0 -14z"/>
<path d="M2239 1392 l-35 -27 -25 -17 -24 -17 11 0 11 -1 45 30 46 31 6 14 5
15 -2 -1 -2 0 -36 -27z"/>
<path d="M1971 1277 l-12 -36 -20 -25 -20 -26 -1 -49 -1 -50 13 -15 12 -16 33
0 33 0 9 13 10 12 7 40 6 40 6 33 7 34 -22 21 -22 22 -13 19 -13 20 -12 -37z
m44 -31 l26 -25 -10 -20 -11 -20 0 -30 0 -29 -6 -16 -6 -16 -27 0 -27 0 -12
12 -12 12 0 21 0 20 27 57 28 57 2 1 2 0 26 -24z"/>
<path d="M2380 1229 l0 -46 21 -66 20 -66 12 -10 12 -9 30 -7 30 -7 -15 11
-15 11 13 0 13 0 -6 11 -7 10 -5 -5 -6 -5 -18 10 -19 10 -15 28 -15 29 -6 59
-7 58 -8 15 -8 15 -1 -46z"/>
<path d="M2324 1155 l5 -40 31 -62 31 -63 29 -15 29 -15 10 0 10 0 -4 13 -5
12 -30 17 -30 17 -29 63 -28 63 -12 25 -11 25 4 -40z"/>
<path d="M2247 1071 l1 -78 12 -44 12 -44 31 -58 31 -58 32 -27 32 -27 16 -39
16 -39 16 -59 15 -60 -20 -18 -21 -17 0 -12 0 -11 8 0 8 0 35 43 36 42 8 25 8
24 -2 53 -1 54 -11 45 -12 45 -8 -8 -8 -8 14 -47 13 -46 -3 -40 -3 -41 -16
-23 -16 -22 0 27 0 27 -20 56 -19 56 -65 68 -64 68 -7 22 -7 22 5 4 4 4 43
-59 43 -59 30 -6 30 -6 5 5 5 4 -24 10 -25 9 -37 38 -38 39 -19 41 -20 40 0
18 0 17 -12 -7 -11 -7 7 65 6 66 -16 6 -16 6 -1 0 -2 0 2 -79z"/>
<path d="M2517 1114 l6 -39 8 -9 8 -9 -6 39 -6 39 -8 9 -8 9 6 -39z"/>
<path d="M1792 912 l-23 -100 -26 -51 -25 -52 -60 -48 -60 -49 -54 -17 -54
-17 -5 -9 -6 -8 -52 -16 -52 -16 -70 -13 -70 -14 -40 -7 -40 -8 -20 -3 -20 -4
-160 -21 -160 -20 -35 -6 -35 -5 24 -11 23 -11 162 24 161 23 40 -2 40 -3 27
-2 26 -1 -4 -5 -5 -4 53 -13 53 -12 31 -1 32 0 37 -16 38 -15 10 10 11 11 2
39 2 40 22 38 21 38 65 34 65 34 45 51 44 51 21 54 20 55 15 64 15 65 -3 24
-3 24 -23 -99z"/>
</g>
</svg>
