<?xml version="1.0" standalone="no"?>
<!DOCTYPE svg PUBLIC "-//W3C//DTD SVG 20010904//EN"
 "http://www.w3.org/TR/2001/REC-SVG-20010904/DTD/svg10.dtd">
<svg version="1.0" xmlns="http://www.w3.org/2000/svg"
   viewBox="0 0 265.000000 142.000000"
 preserveAspectRatio="xMidYMid meet">
<metadata>
Created by potrace 1.16, written by Peter Selinger 2001-2019
</metadata>
<g transform="translate(0.000000,142.000000) scale(0.100000,-0.100000)"
fill="#9E1A1A" stroke="none">
<path d="M32 1407 l-23 -13 7 -6 6 -7 16 6 17 5 -22 -16 -23 -17 0 -19 0 -19
10 -6 10 -6 0 -10 0 -10 -9 5 -9 6 2 -17 3 -18 -11 -8 -11 -9 18 6 17 5 0 -9
0 -9 -11 -7 -11 -6 13 -9 14 -9 -12 0 -12 0 6 -17 6 -16 -10 6 -10 6 1 -22 1
-22 12 0 11 0 8 -7 7 -8 -23 0 -22 0 12 -15 13 -16 14 5 13 5 0 -4 0 -4 -21
-12 -21 -11 6 10 6 11 -8 5 -9 5 0 -59 0 -59 7 4 7 4 -10 -44 -10 -45 19 -15
19 -15 -15 2 -15 3 0 -35 0 -35 15 3 15 3 -13 -12 -12 -13 0 -19 0 -19 12 4
12 4 4 14 5 13 -14 -9 -14 -8 14 17 13 17 -5 21 -6 21 6 -6 5 -5 16 15 15 15
6 -8 6 -8 32 -3 31 -3 7 10 6 11 10 0 10 0 -5 -9 -6 -9 28 -5 27 -5 25 3 25 4
37 6 37 6 -11 30 -11 31 6 49 6 50 -9 -6 -9 -5 -6 11 -7 11 -27 -24 -26 -23
24 27 24 27 9 -2 10 -2 4 30 3 29 -12 8 -12 8 -7 0 -8 0 3 -11 2 -11 -17 -3
-18 -3 -5 8 -6 9 -17 -6 -17 -6 19 15 19 15 -6 10 -7 11 14 11 14 12 14 -20
15 -21 6 7 7 6 0 -11 0 -11 15 5 15 6 0 -10 0 -9 25 5 25 4 0 17 0 16 -9 -13
-8 -14 -19 4 -19 5 29 12 29 12 -7 6 -6 6 15 17 16 17 -83 -14 -83 -14 -7 -12
-8 -12 4 -17 4 -18 -12 0 -13 0 -11 -25 -12 -26 0 -4 0 -4 23 -4 22 -5 -54 5
-53 5 6 -11 7 -11 -7 0 -6 0 -38 21 -38 21 3 69 3 69 -10 -6 -9 -6 5 -6 6 -5
-11 -14 -11 -13 -12 0 -11 0 14 9 15 9 2 19 3 18 10 3 11 4 0 9 0 10 -10 -6
-10 -6 0 10 0 11 10 0 10 0 0 22 0 22 -13 -19 -14 -18 -8 13 -8 13 11 -7 12
-7 1 13 1 13 -1 7 -1 7 18 -6 17 -7 -12 16 -13 15 6 6 7 6 3 31 4 30 -11 0
-10 0 6 10 6 10 -3 0 -3 -1 -23 -12z m23 -46 l-6 -5 -14 -2 -15 -2 5 7 4 8 16
0 15 0 -5 -6z m-15 -25 l0 -5 -10 -6 -10 -6 0 10 0 11 10 0 10 0 0 -4z m321
-170 l-1 -6 -7 -2 -8 -1 -13 -16 -13 -16 7 15 7 15 10 13 10 12 4 -4 5 -4 -1
-6z m-48 -4 l5 13 1 -12 1 -12 -9 -5 -9 -6 -13 18 -14 17 17 -13 16 -13 5 13z
m-7 -101 l-18 -20 -22 13 -21 14 -18 -3 -17 -3 5 8 5 9 21 -4 21 -4 13 -11 14
-12 13 21 12 20 5 -4 4 -5 -17 -19z m-235 -18 l13 -18 -14 12 -14 13 -15 -13
-16 -12 14 18 13 17 3 0 3 0 13 -17z m103 -11 l5 -9 -14 0 -15 0 0 9 0 8 9 0
10 0 5 -8z m-49 -22 l-6 -9 37 4 36 5 11 7 10 6 -7 -11 -7 -12 -15 0 -15 0 5
-9 6 -9 -20 -5 -19 -5 -12 14 -12 14 -13 -17 -13 -18 -1 9 0 8 -14 -11 -14
-12 -7 11 -6 10 8 -1 8 -1 9 1 8 1 -13 18 -13 17 14 -12 14 -13 9 0 9 0 -13
17 -14 17 12 -7 12 -7 6 10 6 10 10 -6 9 -5 -5 -9z m161 -35 l21 2 0 -14 0
-14 -11 11 -10 10 -10 0 -9 0 18 -20 18 -20 10 7 10 6 -7 -12 -7 -11 -12 7
-12 7 -15 1 -15 0 -12 -8 -11 -8 -8 12 -7 12 11 -7 11 -6 6 9 6 10 17 -6 17
-6 -25 29 -25 28 15 -10 15 -10 21 1z m-86 -4 l0 -10 -21 -6 -20 -7 12 -14 12
-14 16 12 16 13 -12 -16 -13 -16 8 -9 7 -9 -27 24 -28 24 0 -8 0 -8 18 -21 17
-21 -21 17 -20 18 -13 -13 -14 -12 17 27 17 26 -21 7 -22 7 5 5 5 5 19 -10 18
-10 20 14 19 14 3 0 3 0 0 -9z m-118 -34 l-22 -24 -20 2 -20 1 -6 6 -6 6 26
-2 26 -3 0 13 0 12 13 5 12 5 9 1 9 1 -21 -23z m36 -11 l-13 -14 -4 3 -3 4 7
10 6 11 10 0 10 0 -13 -14z m124 -21 l5 6 20 3 20 4 0 -12 0 -12 -37 0 -37 0
0 13 0 13 12 -10 12 -10 5 5z m-195 -27 l-5 -13 -1 19 -1 19 6 -6 6 -6 -5 -13z
m97 -10 l-5 -7 -14 6 -15 5 0 3 0 4 19 -2 20 -1 -5 -8z m120 0 l-4 -7 -20 2
-19 1 4 6 4 6 20 0 20 0 -5 -8z m46 6 l0 -3 -9 -6 -10 -5 -5 8 -5 9 14 0 15 0
0 -3z"/>
<path d="M485 1399 l-7 -21 11 -11 11 -11 19 18 19 18 21 -12 21 -11 0 15 0
15 18 10 17 10 -22 1 -23 0 0 -15 0 -14 -16 6 -16 6 12 7 11 7 -35 1 -35 1 -6
-20z m30 -9 l-18 -20 -5 5 -5 5 13 15 12 15 11 0 10 0 -18 -20z"/>
<path d="M1073 1400 l4 -25 -7 -15 -8 -15 -10 -26 -10 -26 -46 7 -46 7 0 -7 0
-7 -47 10 -47 11 -3 -11 -4 -12 -26 10 -26 10 -16 -17 -16 -17 13 7 12 7 0 -5
0 -5 -9 -23 -9 -23 -6 -18 -5 -17 -1 -5 0 -5 7 3 8 2 3 15 3 15 1 12 1 11 33
-4 33 -4 10 32 9 33 1 -21 1 -22 15 -6 15 -5 -1 7 -1 7 1 14 1 15 16 -20 15
-19 -6 13 -6 12 10 0 11 0 0 -10 0 -10 30 0 30 0 0 9 0 8 -26 -3 -26 -2 6 5 6
6 35 3 35 2 0 -10 0 -9 -12 7 -11 7 7 -11 7 -12 34 0 34 0 15 16 16 15 0 6 0
6 -20 -18 -21 -19 6 20 7 19 -15 -17 -14 -18 -14 0 -14 0 25 20 25 20 -14 0
-13 0 11 14 12 14 -3 12 -3 12 22 4 22 4 -4 -20 -4 -20 -6 -10 -6 -10 9 0 10
0 11 43 12 42 5 15 6 15 -11 -15 -11 -15 0 10 0 11 -21 1 -20 2 4 -12 4 -12
18 3 17 3 -6 -10 -6 -10 -20 2 -19 1 4 6 4 6 -10 14 -9 15 3 -25z m-230 -123
l7 6 0 -11 0 -11 -9 -6 -10 -5 -6 11 -7 10 -12 -4 -12 -5 0 18 0 18 21 -14 22
-14 6 7z"/>
<path d="M1532 1390 l-33 -30 6 -10 6 -10 -15 6 -15 6 -27 -21 -27 -21 14 0
14 -1 -32 -14 -31 -13 -7 -21 -6 -21 -13 0 -12 0 -31 -35 -31 -34 6 -6 5 -5
17 0 17 0 16 18 17 19 -7 6 -6 7 22 0 22 0 42 22 42 21 33 8 32 7 0 -10 0 -10
28 2 27 2 5 -2 5 -2 29 -4 29 -5 18 -9 17 -10 5 14 5 13 -26 25 -27 24 -14 9
-14 8 6 -16 6 -16 -13 5 -14 5 5 18 5 19 -25 -5 -26 -5 6 -14 5 -14 11 7 10 6
-8 -12 -7 -13 -11 11 -11 11 -9 0 -8 0 7 -12 7 -13 -12 11 -13 12 4 18 3 19
23 -3 22 -3 0 8 0 9 -22 -1 -23 0 -13 -8 -13 -9 6 -19 6 -19 -17 7 -17 6 7
-14 8 -14 -20 22 -20 22 -7 -7 -8 -7 7 13 7 12 20 -10 19 -11 0 15 0 14 30 14
30 13 0 9 0 8 20 -23 20 -24 -2 15 -3 14 23 2 22 1 0 -9 0 -10 -15 6 -15 5 0
-7 0 -7 10 -15 10 -15 0 13 0 13 21 7 21 8 -33 17 -33 16 -13 -11 -13 -11 2
24 3 24 -20 2 -20 3 -33 -30z m38 -4 l0 -5 -10 -6 -10 -6 0 10 0 11 10 0 10 0
0 -4z m-132 -119 l12 -8 10 6 10 6 0 -10 0 -11 -14 0 -15 0 -6 10 -6 10 -9 -5
-9 -5 -5 9 -6 9 12 -2 13 -2 13 -7z m236 -8 l-5 -9 -10 6 -9 5 6 10 5 9 10 -6
9 -5 -6 -10z m-253 -16 l4 2 -12 -15 -13 -14 -12 12 -12 12 13 0 12 0 -7 13
-8 12 16 -12 15 -13 4 3z m279 7 l0 -10 -11 0 -10 0 6 10 6 10 5 0 4 0 0 -10z
m-344 -36 l-16 -16 5 -8 5 -8 -15 -6 -15 -5 0 5 0 5 16 24 16 25 10 0 9 0 -15
-16z"/>
<path d="M1940 1405 l0 -15 4 0 4 0 6 15 5 15 -9 0 -10 0 0 -15z"/>
<path d="M1963 1388 l-13 -34 0 -8 0 -7 10 6 10 6 -5 9 -5 8 15 -2 14 -2 7 -7
7 -7 -15 0 -15 0 0 -27 0 -27 13 -13 13 -13 14 0 14 0 -1 -22 -1 -23 12 2 12
3 -5 -14 -5 -14 8 -5 9 -6 2 24 2 23 -13 24 -12 23 -15 -1 -15 0 -12 9 -13 9
0 8 0 7 14 0 14 0 -5 -14 -5 -13 14 5 14 6 1 19 2 19 -21 -4 -22 -5 12 12 12
12 -14 15 -14 16 -3 19 -4 19 -12 -35z"/>
<path d="M2130 1405 l-10 -12 24 -21 25 -21 10 13 11 13 -8 8 -7 8 13 -7 12
-7 0 18 0 18 -30 1 -30 1 -10 -12z m40 -17 l0 -8 -15 0 -15 0 0 8 0 9 15 0 15
0 0 -9z"/>
<path d="M2540 1412 l0 -9 15 0 14 0 -5 9 -5 8 -10 0 -9 0 0 -8z"/>
<path d="M2589 1413 l-1 -8 0 -5 1 -6 -22 -1 -22 -2 -3 -11 -4 -10 -9 6 -9 5
0 -9 0 -10 -17 2 -18 1 2 -12 3 -12 -25 9 -24 9 -6 -9 -6 -10 -11 0 -10 0 13
18 14 17 -18 -14 -18 -15 -37 -2 -37 -3 20 9 20 9 -36 -4 -37 -3 -27 14 -27
14 -19 -3 -19 -3 -11 -11 -11 -11 33 -18 34 -17 7 -11 8 -11 0 23 0 23 -12 -7
-11 -7 7 11 7 12 5 0 4 0 10 -24 9 -24 35 0 36 0 10 17 9 16 1 -23 0 -23 20
11 21 11 -7 12 -7 12 21 -19 21 -19 31 6 30 7 24 -10 24 -9 12 14 12 14 -5 13
-5 13 -2 -20 -1 -20 -9 20 -9 20 0 -17 -1 -16 -15 2 -14 2 -6 7 -5 7 6 -4 6
-5 13 12 13 12 -6 10 -6 10 16 -13 16 -13 6 10 7 10 15 -6 16 -6 -10 -6 -10
-6 15 -14 14 -13 -2 13 -1 14 1 15 1 15 18 -22 17 -23 1 50 0 50 -28 0 -28 0
-1 -7z m21 -37 l0 -5 -10 -6 -10 -6 0 10 0 11 10 0 10 0 0 -4z m27 -11 l0 -14
-9 5 -8 5 0 10 0 9 8 0 9 0 0 -15z m-397 -11 l0 -3 -9 -6 -10 -5 -5 8 -5 9 14
0 15 0 0 -3z m246 -26 l9 7 -8 -9 -8 -10 -13 -2 -13 -2 0 14 0 14 12 -10 12
-10 9 8z m-152 -7 l-4 -4 -25 -2 -25 -1 0 8 0 8 30 -2 29 -2 -5 -5z"/>
<path d="M2210 1394 l0 -15 10 6 10 6 -5 10 -6 9 -5 0 -4 0 0 -16z"/>
<path d="M527 1369 l-17 -10 5 -10 6 -9 -15 6 -16 6 0 -11 0 -11 -25 -10 -25
-10 0 -12 0 -13 9 14 9 14 10 -7 10 -6 12 15 12 15 9 -5 8 -5 10 17 10 18 1
-11 0 -12 -17 -13 -16 -14 -4 3 -3 2 3 -7 2 -8 6 2 7 2 -6 -21 -5 -22 -9 24
-9 23 -11 -11 -12 -12 -20 0 -21 0 14 -9 15 -10 20 11 21 11 -14 -17 -14 -17
-13 5 -13 5 -7 -11 -7 -11 11 7 12 7 0 -10 0 -10 -16 -15 -15 -16 8 0 8 0 -25
-20 -25 -20 17 0 16 0 6 13 5 12 -2 -19 -2 -18 22 -9 22 -8 17 16 16 17 -16
12 -17 12 17 6 16 6 9 -6 9 -5 0 11 0 11 9 -6 10 -5 10 17 10 18 1 -18 0 -19
-21 -5 -21 -6 14 -8 13 -9 -13 0 -13 0 6 -10 6 -10 -15 6 -16 6 0 -9 0 -9 19
-1 19 -2 12 30 12 29 10 0 10 0 -6 16 -6 15 9 -5 9 -6 6 31 6 32 0 7 0 7 -26
-3 -26 -2 -14 -19 -15 -18 10 21 10 21 -5 5 -5 5 26 -2 25 -3 6 9 5 9 12 -7
12 -7 -14 18 -15 18 12 7 11 7 -9 14 -10 15 0 -18 0 -18 -15 -5 -15 -6 6 -9 5
-9 -10 0 -11 0 0 10 0 9 17 9 16 10 -19 10 -20 10 -17 -9z m63 -99 l0 -9 -17
6 -18 7 12 -15 12 -15 -22 -1 -22 -2 15 9 15 10 -8 0 -8 0 6 10 6 10 15 0 14
0 0 -10z m-66 -32 l-4 -6 7 -5 8 -4 -12 3 -12 3 -5 -12 -4 -12 -1 18 -1 19
-12 -4 -12 -4 -4 -14 -5 -13 13 8 13 8 -7 -12 -7 -11 -9 5 -8 5 -6 -15 -5 -15
-13 1 -13 1 13 5 12 5 -6 9 -5 9 11 0 11 0 -6 9 -5 10 16 9 17 10 23 -2 22 -1
-4 -7z m-44 -80 l0 -7 -20 2 -20 1 0 8 0 7 20 -2 20 -1 0 -8z"/>
<path d="M467 1353 l-7 -6 0 -11 0 -10 12 12 12 12 -5 5 -6 5 -6 -7z"/>
<path d="M1085 1335 l0 -23 8 -6 7 -6 -5 6 -4 7 9 17 10 18 -13 5 -13 5 1 -23z"/>
<path d="M1660 1324 l0 -15 9 5 9 6 5 -12 5 -13 1 16 1 17 -15 6 -15 5 0 -15z"/>
<path d="M2571 1297 l-13 -22 18 17 18 18 -5 4 -5 5 -13 -22z"/>
<path d="M2613 1305 l-12 -13 25 -5 24 -4 -12 16 -12 16 -1 1 0 2 -12 -13z"/>
<path d="M2580 1270 l0 -10 19 0 20 0 5 8 5 8 -25 2 -24 2 0 -10z"/>
<path d="M1727 1230 l-5 -21 49 -24 48 -25 -6 -17 -6 -16 10 6 11 7 5 19 4 18
-16 -1 -16 -1 3 13 2 13 -12 -2 -13 -1 -15 1 -15 1 14 9 13 9 -11 6 -11 7 0
-10 0 -11 -11 0 -11 0 5 15 6 14 -8 6 -9 5 -5 -20z"/>
<path d="M796 1227 l-4 -12 -11 -34 -11 -35 10 -6 11 -7 -7 -27 -7 -28 30 5
29 5 1 -19 2 -18 -25 9 -25 10 -5 0 -5 0 13 -13 13 -12 28 -13 28 -12 -6 10
-6 9 -1 46 -1 45 -14 0 -15 0 11 -14 12 -14 -16 2 -16 2 -1 10 -1 9 24 12 24
13 -20 1 -20 2 -18 0 -17 0 11 14 12 14 11 -11 10 -10 6 0 7 0 1 13 1 12 7 23
7 24 -21 -13 -21 -13 12 -8 11 -7 -5 -5 -5 -5 -14 10 -15 9 18 14 18 14 -16 6
-16 6 -3 -13z"/>
<path d="M2069 1219 l-1 -4 -2 -23 -3 -22 12 -10 11 -9 0 28 -1 29 -7 8 -8 7
-1 -4z"/>
<path d="M495 1180 l6 -10 10 0 10 0 -6 10 -6 10 -10 0 -10 0 6 -10z"/>
<path d="M2094 1159 l-2 -29 17 2 16 3 -2 -25 -2 -25 5 18 6 17 8 -5 9 -6 -9
-23 -9 -24 17 2 16 1 2 -15 1 -15 2 -10 1 -10 11 15 11 15 -6 -30 -5 -30 5 12
6 13 19 -10 19 -11 0 10 0 9 -16 6 -15 6 6 10 6 10 -13 1 -13 1 -10 -2 -10 -1
12 11 11 12 -31 44 -31 44 -8 0 -8 0 0 14 0 15 -8 5 -7 4 -1 -29z"/>
<path d="M2460 1161 l14 -10 7 5 8 4 5 -9 6 -10 -10 -6 -10 -6 -22 15 -22 16
-21 -1 -20 -1 29 -12 29 -13 -12 -7 -11 -7 6 -10 6 -10 14 18 13 18 1 -12 0
-13 13 3 12 2 8 19 8 19 -13 9 -13 8 -20 0 -20 0 15 -9z"/>
<path d="M1844 1152 l5 -8 -9 -13 -8 -14 37 -33 36 -34 -12 0 -13 0 0 -10 0
-10 12 3 12 2 1 -20 2 -20 8 -23 7 -22 14 17 13 18 1 23 0 22 -10 0 -10 0 0
20 0 19 -14 -5 -15 -6 6 23 6 22 -12 -7 -11 -7 -9 23 -10 23 0 -12 -1 -13 -8
0 -9 0 0 15 0 15 9 0 9 0 -6 10 -6 10 -10 0 -10 0 5 -8z m47 -69 l14 -18 -17
14 -18 13 0 4 0 4 4 0 4 0 13 -17z m29 -43 l0 -10 -4 0 -5 0 -6 10 -6 10 10 0
11 0 0 -10z m17 -41 l-1 -17 -11 5 -12 4 0 13 0 13 13 0 13 0 -2 -18z"/>
<path d="M259 1147 l-1 -7 -1 -22 -1 -21 16 -3 16 -2 -4 21 -4 21 -10 10 -10
10 -1 -7z"/>
<path d="M398 1143 l12 -5 -6 -10 -7 -11 11 7 12 7 0 10 0 9 -17 -1 -18 -1 13
-5z"/>
<path d="M1256 1141 l-6 -9 22 6 21 5 -7 -11 -7 -12 15 6 16 6 0 9 0 9 -24 0
-25 0 -5 -9z"/>
<path d="M2373 1142 l-12 -8 31 -13 30 -14 -13 -8 -14 -9 -10 0 -10 0 13 9 14
8 -17 7 -17 6 -9 -6 -10 -6 2 -21 1 -22 -1 -10 -1 -10 -10 15 -9 15 2 -22 1
-22 16 14 17 15 8 0 8 0 -15 -17 -15 -18 -7 -19 -6 -19 16 14 16 13 12 -16 12
-17 13 21 12 20 5 -5 5 -5 -10 -19 -10 -18 -5 -18 -6 -19 -13 5 -12 4 3 24 3
24 -13 -13 -12 -12 14 -24 13 -25 10 2 11 2 1 -13 0 -12 28 -15 27 -14 0 9 0
8 -12 6 -13 5 40 -6 40 -5 5 -7 5 -6 18 -3 19 -3 -6 18 -6 18 11 15 10 15 -3
-20 -3 -20 23 -3 22 -3 0 10 0 10 -19 -4 -20 -4 5 14 6 14 14 -6 14 -5 0 21 0
21 8 0 8 0 13 -12 12 -13 -6 18 -7 17 -14 0 -13 0 -9 -17 -10 -17 -43 -1 -44
-1 -12 -7 -13 -8 -1 18 -1 18 1 8 1 8 -10 -6 -10 -6 7 32 6 32 -11 -7 -11 -7
5 -13 5 -13 -15 -6 -16 -6 0 -20 0 -20 -9 -6 -10 -5 -6 10 -6 10 10 0 11 0 0
25 0 25 10 0 10 0 0 14 0 15 21 15 21 14 -21 12 -22 11 6 10 6 9 15 -15 15
-15 5 0 5 0 -6 9 -5 10 12 7 12 7 -20 7 -19 8 -11 -9 -11 -9 -11 12 -10 13 -1
10 -1 10 -12 0 -13 0 -5 7 -6 7 -11 -7z m2 -42 l-6 -10 15 -6 16 -6 15 12 15
12 1 -3 1 -4 3 -19 4 -19 13 -8 13 -9 -18 0 -18 0 7 -12 7 -13 -8 8 -8 7 -16
-14 -16 -14 -18 13 -19 13 24 13 23 13 13 -2 12 -3 0 10 0 10 -22 -4 -23 -4
-14 8 -14 9 6 16 6 16 6 0 6 0 -6 -10z m95 -164 l0 -11 -10 15 -10 15 0 -16 0
-17 19 -5 19 -5 12 12 13 11 4 -12 4 -12 17 6 17 7 -14 -18 -14 -17 -6 9 -6 8
-47 -1 -48 -2 0 9 0 9 10 -6 10 -6 0 32 0 31 15 -12 15 -12 0 -12z"/>
<path d="M2394 1035 l-6 -16 3 -3 4 -4 12 13 13 14 -10 6 -10 6 -6 -16z"/>
<path d="M2105 1119 l-7 -10 5 -5 5 -5 5 16 6 15 -4 0 -4 0 -6 -11z"/>
<path d="M1229 1107 l-16 -12 4 -12 5 -13 -21 0 -20 0 -5 -8 -5 -9 17 2 17 1
15 9 15 10 7 0 6 0 9 9 8 9 -12 -7 -13 -7 0 17 0 16 20 -5 20 -5 -6 9 -5 9
-12 0 -12 -1 -16 -12z"/>
<path d="M550 1039 l0 -10 -20 6 -20 6 -1 -10 -1 -11 -2 -12 -2 -13 9 -6 9 -6
-16 -32 -17 -32 6 -8 5 -9 -12 -5 -13 -5 17 -17 17 -18 15 12 16 13 -6 9 -5 9
-10 0 -9 0 0 -16 0 -15 -10 6 -11 7 12 14 11 14 -7 0 -7 0 12 15 12 15 -6 0
-7 0 21 29 20 30 -9 5 -9 6 -4 -12 -4 -12 -7 16 -6 17 60 -2 61 -3 4 8 5 8 8
-4 7 -5 28 -5 28 -5 7 -7 6 -7 -37 6 -38 6 -6 -10 -6 -10 -14 12 -14 11 0 -13
0 -14 -10 15 -10 15 0 -17 0 -18 58 3 58 3 13 8 12 8 13 -11 13 -11 17 6 16 6
0 8 0 8 6 15 5 15 -25 6 -24 6 -23 -8 -22 -9 -39 7 -38 7 0 -9 0 -9 -19 11
-20 10 -20 0 -21 0 0 -11z m230 -25 l0 -14 -10 0 -10 0 -7 2 -8 2 3 15 4 15
-15 -13 -15 -12 -6 10 -6 9 17 4 18 4 18 -4 17 -4 0 -14z"/>
<path d="M1470 1032 l-35 -4 -12 -10 -13 -10 -15 6 -15 5 -6 -24 -6 -24 -14
-5 -13 -5 -6 9 -6 10 15 0 16 0 0 10 0 10 -15 0 -15 0 0 -10 0 -10 -14 0 -14
0 -12 -16 -13 -15 14 3 14 3 7 10 8 10 0 -20 0 -20 8 10 7 10 20 3 20 3 -20
-14 -20 -14 -17 0 -18 0 0 7 0 6 -20 1 -20 2 0 -20 0 -20 -9 5 -9 6 -6 -16 -6
-15 -10 6 -10 6 0 -11 0 -12 18 6 17 6 -19 -15 -20 -15 -9 0 -8 0 6 -20 6 -20
-14 6 -15 5 -7 -28 -8 -28 -3 -13 -2 -14 6 7 7 7 1 6 2 7 7 22 7 23 18 -10 19
-10 7 0 6 0 -9 13 -10 12 0 18 0 17 13 0 12 0 5 13 5 12 1 -11 1 -12 -15 -12
-15 -12 0 -9 0 -9 17 0 16 0 -6 7 -7 6 11 13 11 14 8 -5 8 -5 12 15 12 14 -20
-4 -21 -4 -12 16 -13 15 37 -7 37 -7 0 10 0 11 -21 -4 -20 -4 4 12 4 12 19 -3
19 -3 30 -3 30 -3 23 20 22 20 0 -12 0 -13 15 5 14 6 6 -9 6 -10 10 0 9 0 0
14 0 14 15 6 15 5 0 -7 -1 -7 -14 -19 -14 -19 -14 6 -15 5 -12 -11 -13 -12 8
14 8 14 -13 -5 -14 -4 -4 -12 -4 -12 29 1 28 1 25 7 25 7 12 -15 12 -16 -2 22
-1 21 -18 -3 -18 -4 0 8 0 8 6 6 7 6 21 -11 21 -12 9 2 9 3 -13 -17 -14 -16
19 -14 19 -14 13 0 13 0 0 11 0 10 11 -7 11 -6 -9 -7 -9 -6 1 -12 0 -11 8 -8
7 -7 0 15 0 16 15 12 15 12 -6 9 -5 9 -9 -5 -9 -5 -7 11 -7 12 -13 -17 -12
-17 -7 11 -6 10 -10 -5 -9 -6 0 6 0 7 23 19 22 18 -20 2 -20 1 -8 -1 -8 -1 7
11 7 12 -16 -6 -16 -6 -5 8 -5 8 6 6 6 6 19 -10 18 -10 12 7 11 7 -28 11 -28
11 16 13 15 13 8 -12 7 -12 -13 8 -13 8 7 -11 7 -11 13 5 13 5 17 -16 16 -16
0 8 0 8 8 -10 7 -10 28 -18 28 -18 11 7 11 7 -7 -11 -7 -12 10 0 11 0 0 -11 0
-10 -9 6 -10 5 -5 -9 -6 -9 16 -6 16 -6 3 0 3 0 4 23 4 22 -18 18 -18 17 0
-12 0 -11 -7 7 -8 8 0 11 0 12 -23 -1 -23 -1 6 18 6 19 -13 2 -13 1 -13 1 -13
1 -10 15 -11 15 6 -19 6 -19 -12 11 -13 10 -35 9 -35 8 -35 -3z m0 -16 l0 -5
-10 -6 -10 -6 0 10 0 11 10 0 10 0 0 -4z m70 -4 l0 -3 -10 -20 -11 -19 -17 3
-17 3 -12 7 -12 7 -5 -9 -6 -10 10 -6 10 -6 0 -15 0 -15 -10 6 -10 6 6 11 7
11 -15 -5 -15 -6 -12 7 -12 8 16 17 16 16 -12 0 -12 0 6 6 6 6 12 -8 13 -8 25
-1 26 -2 10 6 10 5 -25 7 -25 7 33 -1 32 -1 0 -4z m-144 -57 l-15 -29 -16 -2
-16 -2 13 15 12 15 2 16 3 15 13 8 13 8 3 -8 3 -8 -15 -28z m249 35 l6 -10
-10 0 -10 0 -6 10 -6 10 10 0 10 0 6 -10z"/>
<path d="M807 1016 l-7 -18 0 -2 0 -3 25 5 25 4 -6 9 -5 9 -9 -5 -8 -5 -4 12
-4 12 -7 -18z"/>
<path d="M1140 1015 l-12 -15 10 0 10 0 6 15 5 15 -3 0 -4 0 -12 -15z"/>
<path d="M561 994 l10 -12 -12 -8 -12 -7 7 14 8 14 -20 -25 -20 -24 4 -8 4 -7
-10 -6 -10 -6 21 -18 21 -17 -17 -17 -16 -17 -20 0 -20 0 6 -21 7 -22 -10 7
-10 6 -6 -26 -7 -25 6 -9 6 -10 15 0 15 0 -6 10 -6 10 -10 -5 -9 -6 0 16 0 16
12 -7 11 -7 -7 11 -7 12 16 -7 17 -6 -12 -7 -12 -7 10 -7 11 -7 -6 -17 -6 -17
9 8 9 8 1 31 2 30 10 7 10 6 8 30 7 30 6 10 6 10 2 30 1 30 7 26 7 26 -16 0
-16 0 11 -13z m-3 -95 l-4 -13 -7 23 -6 24 11 -11 10 -10 -4 -13z m-24 -64
l-6 -15 -4 0 -4 0 0 15 0 15 10 0 9 0 -5 -15z m-24 -15 l0 -20 -9 0 -9 0 5 20
5 20 4 0 4 0 0 -20z"/>
<path d="M1086 981 l-5 -8 24 5 25 4 0 4 0 4 -19 0 -20 0 -5 -9z"/>
<path d="M1952 969 l-13 -21 10 7 11 6 0 -6 0 -6 -15 -15 -15 -15 1 -17 1 -17
5 18 4 17 8 0 8 0 -2 -25 -3 -25 9 6 9 5 0 -11 0 -11 10 6 10 6 0 -10 0 -10
-10 -6 -10 -6 0 9 0 9 -15 0 -15 0 0 -9 0 -8 15 0 15 0 0 -6 0 -5 -9 -17 -9
-17 28 0 28 -1 -1 53 -1 52 -13 -11 -13 -10 0 11 0 12 -10 -6 -10 -6 0 11 0
12 15 -6 15 -5 -1 27 -1 27 -5 -17 -4 -18 -9 0 -9 0 6 35 6 35 -4 0 -4 0 -13
-21z m42 -147 l5 -9 -14 0 -14 0 5 9 5 8 4 0 4 0 5 -8z"/>
<path d="M2200 970 l0 -20 11 0 10 0 -7 12 -7 11 11 -7 11 -7 -3 -27 -3 -27 4
13 4 12 9 0 9 0 7 -12 7 -11 -13 8 -13 8 4 -12 5 -12 9 0 10 0 3 9 3 10 -14
13 -14 14 5 14 5 14 -11 -7 -10 -6 -6 15 -5 15 -11 0 -10 0 0 -20z"/>
<path d="M1592 975 l8 -8 -10 -12 -11 -13 18 -7 18 -8 13 -3 13 -2 -4 11 -4
12 -12 -2 -11 -3 0 14 0 15 -12 7 -13 7 7 -8z"/>
<path d="M2385 960 l6 -10 5 0 4 0 0 10 0 10 -11 0 -10 0 6 -10z"/>
<path d="M1076 948 l5 -8 10 5 9 6 0 3 0 3 -15 0 -14 0 5 -9z"/>
<path d="M1020 930 l0 -9 15 5 15 6 0 -12 0 -11 10 6 10 6 0 7 0 8 -25 2 -25
2 0 -10z"/>
<path d="M1654 932 l6 -10 -12 -5 -13 -4 18 -20 18 -20 -16 -13 -15 -12 0 -10
0 -9 13 6 12 6 -16 -13 -16 -13 6 -17 6 -17 15 9 15 10 -14 0 -13 0 12 15 12
15 -5 13 -5 13 24 0 24 0 0 -8 0 -8 -15 0 -15 0 0 -9 0 -10 28 4 27 4 -13 -5
-12 -6 6 -9 5 -9 -11 0 -11 0 6 -10 6 -10 9 0 10 0 6 25 6 25 8 0 8 0 4 25 5
25 -5 0 -5 0 -18 -22 -19 -21 0 16 0 17 -19 0 -20 0 -7 12 -7 11 10 -6 11 -7
11 14 12 14 -17 6 -16 6 5 -13 5 -14 -13 0 -12 0 4 18 5 17 -13 7 -12 8 7 -11z"/>
<path d="M2620 925 l0 -15 16 0 16 0 -12 15 -12 15 -4 0 -4 0 0 -15z"/>
<path d="M1399 915 l-15 -16 -30 -2 -29 -2 -18 -28 -18 -29 -14 6 -14 5 -7
-11 -7 -11 11 7 12 7 0 -10 0 -10 -21 -11 -21 -12 7 -16 6 -16 -19 17 -19 17
-6 0 -7 0 -15 -36 -15 -36 7 -11 6 -10 -11 7 -12 7 0 -8 0 -9 9 -10 9 -9 -14
-30 -14 -30 5 33 5 33 -10 -6 -10 -6 0 -24 0 -24 8 -5 8 -5 -2 -30 -2 -31 9 6
9 5 0 -10 0 -11 -10 0 -9 0 5 -14 6 -15 13 5 14 6 -4 19 -4 19 10 5 9 6 -6 10
-6 10 -13 -11 -13 -11 2 18 3 18 19 -4 19 -3 -20 22 -20 23 28 -7 27 -6 0 17
0 18 -10 -15 -10 -15 0 13 0 13 -10 -6 -10 -6 0 5 0 5 25 27 25 27 -10 12 -10
12 8 8 7 8 -14 -8 -14 -8 5 13 4 14 12 4 12 4 0 -16 0 -16 9 0 10 0 6 20 6 20
10 -5 9 -6 -6 15 -6 16 14 0 15 0 16 18 17 19 -7 6 -6 7 16 0 17 0 0 18 0 17
10 -15 10 -15 0 12 0 12 14 -5 13 -5 17 25 16 26 -3 0 -3 0 -15 -15z m-199
-184 l0 -9 -6 -16 -6 -16 -8 0 -7 0 5 25 4 25 9 0 9 0 0 -9z"/>
<path d="M1590 905 l-12 -15 10 0 11 0 6 11 7 10 -5 5 -4 4 -13 -15z"/>
<path d="M963 877 l-6 -12 8 7 8 7 18 -10 19 -10 0 9 0 10 -20 5 -20 5 -7 -11z"/>
<path d="M2245 829 l2 -57 7 -11 7 -11 9 5 9 5 6 -9 5 -10 -25 5 -25 4 0 -29
0 -30 9 -5 8 -5 7 6 7 7 22 2 22 3 -13 -5 -12 -6 7 -11 7 -12 -16 13 -16 13
-6 -9 -6 -10 13 -9 12 -9 15 0 15 1 0 30 0 30 -10 -2 -10 -1 -1 50 -2 49 -6 6
-6 7 -12 -12 -12 -12 20 -16 19 -15 -22 11 -23 11 0 9 0 9 10 6 11 7 -13 16
-12 17 14 -12 14 -13 6 0 7 0 -5 29 -4 30 -18 -2 -18 -1 3 -57z m12 -121 l-5
-13 -1 19 -1 19 6 -6 6 -6 -5 -13z"/>
<path d="M2470 880 l0 -10 15 0 15 0 0 4 0 4 -15 6 -15 5 0 -9z"/>
<path d="M932 848 l3 -12 -12 -2 -13 -1 -10 -2 -10 -1 0 -7 0 -8 35 -2 35 -3
0 11 0 10 -10 -6 -10 -6 0 10 0 10 9 6 10 5 6 -10 6 -10 10 5 9 6 0 7 0 8 -30
2 -30 2 2 -12z"/>
<path d="M1748 803 l-26 -58 5 -8 5 -8 18 16 17 16 14 -3 14 -3 2 25 3 25 -10
-20 -10 -20 3 27 4 27 -9 -5 -9 -6 7 26 6 26 -3 0 -4 0 -27 -57z m8 -31 l-18
-17 13 22 13 22 5 -5 5 -4 -18 -18z"/>
<path d="M1577 828 l-5 -19 14 -6 15 -5 -10 -12 -9 -11 -10 -37 -10 -38 9 0 9
0 0 16 0 16 12 -4 12 -4 4 -15 5 -14 -8 7 -7 7 -14 -14 -14 -13 -20 5 -20 5
-5 -14 -6 -15 -27 4 -27 3 23 -11 22 -12 0 -6 0 -6 -10 -15 -10 -15 0 24 0 23
-16 -13 -16 -13 16 -11 16 -12 -5 -5 -5 -5 23 -21 23 -22 34 -6 35 -7 -8 9 -8
9 -17 0 -17 0 0 13 0 13 -14 8 -14 9 -16 -5 -16 -6 13 14 12 13 20 -12 20 -12
0 10 0 10 -10 0 -10 0 0 10 0 11 18 -9 17 -9 14 5 14 5 -5 -14 -5 -14 -11 -1
-12 -1 -7 -2 -7 -1 19 -14 20 -14 7 4 8 5 0 -11 0 -11 11 6 10 7 10 25 9 25
14 -11 14 -12 4 13 4 12 8 -12 7 -12 -10 0 -10 0 5 -15 6 -15 17 1 16 1 -12 5
-13 5 0 7 0 8 25 -5 25 -4 0 15 0 16 -10 6 -9 6 6 14 5 15 14 0 14 0 0 -10 0
-10 -7 1 -8 1 -10 -1 -10 -1 14 -9 13 -9 20 20 20 20 -6 6 -6 5 0 -7 0 -8 -25
16 -26 17 -14 -33 -14 -33 15 -3 14 -3 0 -10 0 -9 -12 3 -13 2 -12 15 -11 15
9 6 9 5 4 20 4 19 7 17 7 17 -24 -1 -23 -1 -15 2 -15 1 15 10 15 10 -22 0 -23
0 1 -7 1 -8 -1 -12 -1 -13 -8 0 -8 0 0 20 0 20 8 0 8 0 -1 8 -1 7 1 15 2 15
10 -17 10 -18 10 0 10 0 -5 8 -5 8 10 14 10 15 -3 -17 -3 -17 9 0 9 -1 2 33 2
34 -13 0 -13 0 5 -8 5 -8 -13 -20 -12 -20 -13 11 -13 11 -8 -7 -7 -8 0 -11 0
-12 -17 -3 -17 -3 12 25 12 26 13 0 12 0 0 9 0 9 -15 12 -15 12 5 7 4 8 -14 0
-14 0 -4 -19z m33 -18 l0 -9 -15 5 -15 6 6 9 5 9 10 -5 9 -6 0 -9z m44 -132
l-7 -22 -14 -14 -14 -14 5 -5 5 -5 14 14 14 14 7 21 7 21 19 5 20 5 0 -4 0 -3
-22 -21 -22 -20 7 -7 7 -6 0 11 0 12 12 0 11 0 -23 -25 -23 -25 -5 5 -5 4 -18
-9 -18 -10 -9 16 -10 17 -17 -6 -17 -7 4 12 5 13 11 1 12 2 6 1 5 1 -6 10 -7
11 -12 -10 -12 -11 -12 12 -11 11 -10 -26 -11 -27 -4 0 -5 0 11 30 10 31 19
-6 19 -6 17 10 18 10 19 -17 19 -17 -6 17 -6 16 6 6 6 6 9 0 9 0 -7 -22z m-99
-27 l5 -10 -10 -6 -10 -6 0 15 0 16 4 0 5 0 6 -9z m63 -69 l4 -12 -16 6 -16 6
0 10 0 10 12 -4 12 -4 4 -12z m-90 -17 l-6 -6 -6 18 -7 18 12 -12 13 -13 -6
-5z"/>
<path d="M1603 650 l-2 -20 10 0 9 0 0 20 0 20 -8 0 -8 0 -1 -20z"/>
<path d="M842 800 l-32 -20 0 -5 0 -6 12 7 11 7 -6 -11 -7 -10 -18 4 -17 4
-25 -19 -25 -20 17 3 17 2 7 7 7 7 11 0 11 -1 -17 -10 -18 -10 -4 3 -4 3 -21
-19 -22 -20 6 20 7 19 -14 -16 -13 -16 -22 -7 -21 -7 -12 -14 -12 -15 7 0 8 0
20 18 20 17 -14 -22 -14 -23 -15 -1 -15 -1 -8 1 -8 1 -26 -20 -26 -20 16 0 15
0 6 16 6 15 10 -6 10 -6 -12 -12 -13 -12 -29 -15 -29 -15 -20 3 -20 4 6 -16 6
-16 -26 -25 -27 -24 -3 3 -3 3 6 17 6 16 14 0 14 0 0 10 0 10 -4 0 -4 0 -63
-62 -63 -63 -9 3 -8 2 6 -10 7 -11 -13 3 -14 3 -3 -10 -3 -10 27 -3 26 -4 -7
11 -6 11 20 0 21 0 0 10 0 10 20 0 20 0 0 11 0 10 9 -5 9 -6 25 9 25 10 21 22
21 23 0 -9 0 -9 -21 -22 -21 -23 21 -13 21 -13 0 -11 0 -12 16 -6 17 -6 13 11
13 11 6 16 5 17 20 13 20 12 0 -5 0 -4 -21 -20 -21 -19 11 -6 10 -7 13 21 13
20 8 0 8 0 -6 -10 -6 -10 10 0 10 0 6 9 5 10 -14 8 -15 8 0 8 -1 7 0 5 0 6
-22 -13 -23 -12 -10 -1 -10 -1 3 -13 2 -12 -11 7 -12 7 6 -16 6 -16 -15 -11
-14 -12 0 11 0 11 11 0 10 0 -6 10 -6 10 -8 -5 -8 -4 -19 15 -19 15 21 -10 20
-10 15 10 14 9 -7 1 -8 2 -10 1 -10 1 -1 8 0 8 4 12 5 12 1 -13 1 -13 10 6 10
6 -1 -8 -1 -8 1 -8 1 -8 14 13 14 13 -11 13 -10 13 11 11 12 12 0 -8 0 -8 18
13 17 14 -14 -17 -13 -18 -9 6 -9 5 0 -6 0 -6 14 -14 14 -14 5 5 5 5 32 5 31
5 -3 -18 -3 -18 12 2 13 3 -3 -12 -2 -12 15 -1 15 0 7 20 7 20 -2 -25 -2 -25
-22 0 -22 -1 -6 -6 -7 -6 20 -11 19 -10 8 7 8 7 -7 -13 -7 -12 -10 5 -9 6 0
-11 0 -12 20 -25 20 -26 0 13 0 13 16 18 16 17 -12 22 -12 22 6 14 6 14 -20
20 -20 20 0 23 0 23 11 11 11 11 -7 21 -6 21 -12 -5 -12 -6 23 17 22 16 0 10
0 9 35 30 35 31 0 17 0 18 25 23 25 23 0 10 0 10 -7 -6 -6 -7 -12 10 -11 9
-32 -19z m25 -4 l-18 -14 1 -6 2 -6 -6 -13 -5 -12 3 23 2 24 15 9 14 9 5 0 5
-1 -18 -13z m-47 -70 l0 -4 -14 -11 -14 -12 -8 12 -7 12 11 -7 11 -6 6 10 6
10 5 0 4 0 0 -4z m30 1 l0 -4 -22 -19 -23 -19 19 23 19 22 4 0 3 0 0 -3z
m-130 -50 l0 -4 -22 -19 -23 -19 19 23 19 22 4 0 3 0 0 -3z m90 -2 l0 -3 -15
-5 -14 -6 -5 7 -5 8 20 1 19 2 0 -4z m-39 -22 l14 -18 -17 14 -18 13 0 4 0 4
4 0 4 0 13 -17z m-24 -16 l0 -13 -24 0 -23 0 0 9 0 9 15 -5 14 -6 6 9 6 10 3
0 3 0 0 -13z m-66 -41 l-11 -13 18 -17 19 -16 6 5 7 5 -5 -7 -6 -7 -14 -2 -14
-2 2 10 2 11 -14 5 -14 5 8 -14 8 -14 -8 7 -8 8 -14 -11 -13 -11 0 7 0 7 -14
-11 -14 -12 -8 12 -7 12 11 -7 12 -7 0 11 0 11 13 -3 13 -3 -1 10 0 10 -8 -3
-8 -2 6 10 7 11 14 -12 14 -11 0 9 0 9 -12 14 -13 14 18 -14 18 -13 6 24 7 23
4 -12 4 -13 -11 -13z m59 8 l0 -3 -9 -6 -10 -5 -5 8 -5 9 14 0 15 0 0 -3z
m-25 -24 l6 -10 -15 6 -16 6 0 4 0 4 9 0 10 0 6 -10z m-177 -35 l-6 -6 -6 18
-7 18 12 -12 13 -13 -6 -5z m60 -36 l4 -14 -10 13 -9 14 -7 -2 -6 -1 -13 5
-12 5 24 -3 25 -3 4 -14z m126 10 l-4 -7 -18 3 -17 2 -20 -10 -20 -10 13 15
12 16 29 -2 29 -1 -4 -6z m-214 -30 l0 -20 -21 6 -22 7 9 -13 8 -14 -17 13
-16 14 -12 -8 -12 -7 7 11 7 12 29 -4 30 -3 0 13 0 14 5 0 5 0 0 -21z m-90
-22 l0 -4 -20 -18 -20 -18 0 6 0 6 16 15 15 16 5 0 4 0 0 -3z m370 -81 l0 -4
-14 -11 -14 -12 -8 12 -7 12 11 -7 11 -6 6 10 6 10 5 0 4 0 0 -4z"/>
<path d="M425 774 l20 -16 -22 7 -23 6 -1 -13 -1 -13 0 -6 1 -6 -13 0 -12 0
-2 21 -1 21 8 -13 8 -14 6 16 7 16 -58 -1 -57 -2 -10 -7 -10 -8 -7 -1 -8 -1
-10 0 -10 0 0 -17 0 -18 11 15 11 15 -5 -21 -4 -21 10 -18 10 -18 -12 7 -11 7
-4 -13 -4 -13 -6 -26 -6 -27 -22 -7 -23 -7 -22 -2 -23 -2 0 8 0 8 -11 0 -10 0
5 -9 6 -9 -12 -4 -12 -4 -23 10 -23 11 0 8 0 8 -10 -6 -11 -7 6 31 5 30 -10 6
-10 6 0 -11 0 -11 -12 7 -13 7 20 -23 20 -23 -12 6 -12 7 -5 -9 -6 -9 15 -12
15 -13 -9 -11 -9 -11 -7 -36 -7 -37 11 -6 10 -7 -9 -23 -9 -24 25 -5 24 -4 0
13 0 14 47 -7 46 -6 -7 11 -7 12 23 -8 23 -7 20 0 20 1 33 8 33 8 10 25 9 24
0 11 0 10 -13 -5 -13 -5 -13 20 -13 20 -10 -10 -10 -10 -14 5 -14 5 0 -11 0
-11 11 0 10 0 -6 -9 -5 -10 10 -6 10 -6 0 15 0 15 9 5 9 6 -5 -20 -5 -20 -10
-6 -9 -6 13 -16 13 -15 -27 17 -28 18 -1 -8 -1 -9 1 -7 0 -6 -17 2 -17 3 3 9
2 9 9 0 9 0 7 7 7 7 16 -6 15 -6 -7 12 -8 13 -18 -5 -19 -5 -22 16 -22 15 8
-14 9 -14 -18 14 -18 15 2 -15 2 -14 -7 -22 -7 -22 -18 2 -19 1 6 10 6 9 -15
-6 -16 -6 2 14 2 14 18 20 18 19 -15 -2 -15 -2 -16 -13 -16 -13 7 -11 6 -10
-12 7 -12 8 12 14 12 14 -7 7 -6 6 16 18 16 18 18 -11 17 -11 19 8 19 8 23 -2
23 -3 14 12 14 12 11 -7 10 -6 0 12 0 12 6 -6 7 -7 -12 -14 -12 -14 10 -6 10
-6 6 10 7 11 15 -13 15 -12 19 -3 19 -3 0 11 0 10 -10 -6 -10 -6 0 10 0 10 10
6 10 6 -6 10 -5 9 -11 -6 -11 -7 7 12 7 11 10 -5 9 -6 0 16 0 16 19 38 20 38
-24 -1 -24 -2 -7 -7 -7 -7 -11 0 -10 0 19 14 19 13 53 -4 53 -3 0 14 0 14 25
0 25 0 0 -9 0 -8 -20 4 -20 4 0 -10 0 -9 35 0 35 0 0 11 0 10 -10 -6 -10 -6 0
9 0 8 -20 22 -21 22 -12 0 -12 -1 20 -15z m-65 -20 l0 -14 -9 0 -10 0 -6 10
-7 11 -14 -12 -14 -11 0 10 0 10 11 4 12 4 18 1 19 2 0 -15z m-80 -19 l-13
-15 -6 5 -5 6 14 9 15 10 4 0 3 0 -12 -15z m38 -46 l-17 -10 5 -13 5 -14 -12
-8 -12 -7 7 11 7 12 -6 11 -7 11 -22 -21 -23 -21 0 14 0 15 8 -4 7 -5 12 15
12 15 8 -5 9 -5 6 10 6 10 12 0 12 -1 -17 -10z m-41 -52 l0 -14 -14 0 -13 0
11 14 11 13 3 0 2 0 0 -13z m3 -62 l0 -10 -10 15 -10 15 0 10 0 10 10 -15 10
-15 0 -10z m0 -65 l0 -9 -15 5 -15 6 0 4 0 4 15 0 15 0 0 -10z m-137 -15 l-5
-16 -5 5 -5 5 7 10 6 11 4 0 4 0 -6 -15z m122 -5 l6 -10 -15 6 -16 6 0 4 0 4
9 0 10 0 6 -10z m-148 -22 l-5 -13 -1 19 -1 19 6 -6 6 -6 -5 -13z m-73 -9 l-5
-9 -10 5 -9 6 0 9 0 9 15 -5 15 -6 -6 -9z"/>
<path d="M1970 779 l0 -9 13 -1 12 -1 8 1 8 1 -5 -9 -6 -9 -23 5 -22 5 25 -22
25 -21 -21 10 -22 11 -6 -23 -5 -23 6 -22 5 -22 -11 0 -12 0 5 -9 5 -8 -12
-27 -12 -26 -7 0 -8 0 0 -15 0 -15 -12 -23 -13 -22 -19 -22 -18 -22 7 -10 6
-11 -10 0 -11 0 0 11 0 10 -10 -6 -10 -6 -1 -22 -1 -22 -4 11 -5 12 -32 -29
-31 -29 -33 -6 -33 -6 0 -7 0 -7 -52 -3 -53 -2 -15 -16 -15 -17 18 13 17 13 0
-10 0 -10 -15 -5 -14 -6 -6 9 -6 10 -16 0 -16 0 -19 -17 -19 -17 6 20 7 19
-18 -20 -17 -20 6 17 6 16 -6 6 -6 6 -14 -18 -14 -17 3 19 3 19 -54 18 -54 19
-12 10 -12 10 -8 -8 -8 -7 7 13 7 12 -15 6 -16 6 0 16 0 15 -6 -6 -6 -6 -24 9
-24 10 0 -10 0 -10 10 0 9 0 -6 -17 -7 -18 16 13 16 13 8 -12 7 -12 -12 8 -13
7 4 -23 3 -24 13 3 12 2 0 -10 0 -10 11 0 10 0 -5 8 -5 9 13 0 13 0 0 -13 0
-13 -9 5 -8 5 0 -14 0 -15 36 -21 37 -22 5 6 5 5 -11 0 -12 0 0 9 0 9 20 -5
20 -5 7 -11 6 -10 -11 7 -12 7 0 -10 0 -10 30 4 30 4 0 -10 0 -9 13 0 12 0 30
15 30 15 -24 -20 -23 -20 15 0 15 0 12 15 12 15 12 0 11 0 -15 -10 -15 -10 28
0 27 0 0 8 0 7 55 0 55 -1 0 13 0 13 8 -1 7 -1 19 1 18 1 -4 25 -5 25 10 7 10
6 -6 -9 -6 -10 8 -12 8 -13 29 16 29 15 -15 0 -16 0 -12 -12 -12 -12 0 10 0 9
8 10 7 10 25 3 25 3 8 14 8 15 8 -4 8 -5 11 24 11 25 -3 12 -3 13 4 -7 5 -8
10 0 10 0 -5 14 -6 15 14 11 15 12 -7 11 -6 10 10 -6 11 -7 6 16 6 16 -5 8 -5
8 20 -5 20 -5 0 11 0 12 -10 -6 -10 -6 0 14 0 15 15 6 15 5 -6 16 -6 15 11 0
10 0 -6 17 -6 16 10 -6 11 -7 12 48 12 47 5 18 4 17 -8 1 -8 1 -17 3 -18 3 0
-9z m16 -71 l7 -11 -13 8 -12 8 6 -24 7 -24 -11 18 -11 17 6 10 6 10 4 0 4 0
7 -12z m-136 -282 l0 -5 -10 -6 -10 -6 0 10 0 11 10 0 10 0 0 -4z m-35 -36
l-6 -10 -10 5 -9 6 0 -10 0 -11 -11 0 -11 0 12 15 12 15 15 0 14 0 -6 -10z
m-445 -54 l0 -5 -10 -6 -10 -6 0 10 0 11 10 0 10 0 0 -4z m-45 -16 l6 -10 -15
6 -16 6 0 4 0 4 9 0 10 0 6 -10z m312 4 l-6 -6 -13 5 -13 5 19 1 19 1 -6 -6z
m37 -6 l-5 -8 -10 0 -9 0 0 8 0 9 15 0 14 0 -5 -9z m-137 -14 l-6 -6 -13 5
-13 5 19 1 19 1 -6 -6z m108 -6 l8 7 -6 -12 -7 -11 -18 3 -17 3 -3 1 -3 1 6
10 7 11 12 -10 13 -11 8 8z"/>
<path d="M1703 767 l6 -16 -13 -10 -13 -11 -5 5 -5 5 0 -12 0 -13 36 0 36 0
10 7 11 7 13 -9 14 -8 -19 -10 -19 -9 -12 4 -11 4 -8 -12 -7 -12 10 6 10 6 19
-13 18 -14 13 5 14 5 -12 14 -11 14 10 0 10 0 5 21 6 21 -14 -6 -14 -5 -4 12
-4 12 -20 -17 -19 -18 -11 11 -11 11 4 13 5 13 -12 8 -12 7 6 -16z"/>
<path d="M25 752 l-10 -7 -3 -27 -3 -28 13 0 13 0 2 35 3 35 -3 0 -2 0 -10 -8z"/>
<path d="M2504 681 l-24 -36 0 -11 0 -12 18 -7 17 -8 13 -3 13 -2 18 20 19 20
7 -12 7 -11 -12 -14 -11 -14 -15 6 -14 5 0 -11 0 -11 16 0 16 0 -10 -13 -11
-13 8 -13 8 -13 7 1 6 1 10 0 10 0 0 -11 0 -10 -10 6 -10 6 0 -10 0 -10 19 2
19 1 -8 17 -9 16 6 7 6 6 -18 20 -19 21 22 6 22 5 0 10 0 9 -12 -7 -11 -7 7
12 7 11 9 -5 9 -5 -2 -19 -1 -18 -20 5 -19 5 7 -12 7 -11 9 5 9 5 7 -11 7 -12
-13 8 -13 8 7 -12 8 -12 7 6 6 7 0 16 1 17 8 23 8 23 -11 13 -11 13 6 16 5 15
-11 7 -11 7 -16 -14 -17 -13 7 12 7 12 -11 7 -12 7 7 -11 7 -12 -12 0 -11 0
12 -14 11 -15 15 6 14 5 -6 9 -5 9 10 0 11 0 0 -10 0 -9 -17 -10 -18 -10 8 -2
7 -1 12 -2 11 -1 5 -13 4 -14 -21 11 -21 12 0 -7 0 -6 -14 11 -14 12 -14 -18
-13 -18 -22 -3 -21 -3 -8 12 -7 12 21 -5 22 -6 25 20 25 20 -5 9 -6 9 -25 0
-25 0 5 9 6 9 20 -5 20 -5 0 9 0 9 -21 0 -21 0 -24 -35z m47 -14 l-7 -7 -22
-5 -22 -4 0 8 0 8 6 5 5 6 24 -2 24 -1 -8 -8z m44 -117 l6 -10 -15 6 -16 6 0
4 0 4 9 0 10 0 6 -10z"/>
<path d="M2240 635 l0 -35 13 -1 12 -1 8 1 8 1 -6 -10 -7 -11 -13 5 -13 5 -6
-22 -6 -22 0 -12 0 -13 11 0 10 0 -6 21 -7 21 21 -11 21 -12 0 -5 0 -5 -10 6
-10 6 -1 -23 0 -23 -4 -28 -4 -28 17 13 16 13 -8 -12 -7 -13 10 0 11 0 0 9 0
9 25 6 25 6 0 10 0 10 -8 0 -8 0 -12 -12 -12 -12 -1 7 -1 7 -2 8 -1 7 -9 15
-9 15 21 -19 22 -19 0 8 0 8 -13 16 -14 16 13 25 14 25 0 -17 0 -17 -10 -6
-10 -6 6 -11 7 -11 9 22 8 23 -6 39 -7 39 -8 1 -9 2 -9 1 -10 1 -12 13 -13 12
-8 0 -8 0 0 -35z m43 -10 l7 5 -5 -7 -6 -7 -14 -2 -15 -2 0 21 1 22 13 -17 13
-18 6 5z m11 -64 l-9 -9 -20 9 -20 9 23 -4 22 -4 0 11 0 10 7 -6 7 -7 -10 -9z"/>
<path d="M2566 613 l-7 -18 12 12 13 13 -6 5 -6 6 -6 -18z"/>
<path d="M0 600 l0 -10 11 0 10 0 -6 10 -6 10 -5 0 -4 0 0 -10z"/>
<path d="M540 600 l0 -10 10 0 10 0 0 10 0 10 -10 0 -10 0 0 -10z"/>
<path d="M2497 593 l-7 -6 0 -16 1 -16 10 18 11 19 -4 4 -5 4 -6 -7z"/>
<path d="M2520 595 l-1 -10 -4 -33 -3 -33 22 -10 21 -9 25 -17 25 -17 -18 21
-19 22 8 12 7 12 -11 -7 -11 -7 -12 23 -12 23 3 0 4 0 -12 20 -11 20 -1 -10z
m28 -67 l13 -16 -20 5 -21 5 0 7 0 8 7 6 6 7 1 -2 2 -3 12 -17z"/>
<path d="M190 575 l-12 -15 10 0 10 0 6 15 5 15 -3 0 -4 0 -12 -15z"/>
<path d="M1637 570 l-5 -20 9 0 9 0 0 11 0 10 11 -7 12 -7 -5 13 -4 14 -11 3
-10 4 -6 -21z"/>
<path d="M35 560 l-6 -10 10 0 10 0 6 10 6 10 -10 0 -10 0 -6 -10z"/>
<path d="M102 552 l-17 -13 19 9 19 9 18 -4 19 -5 0 -9 0 -9 15 0 15 0 0 10 0
10 -12 -2 -13 -3 2 11 2 10 -25 0 -26 0 -16 -14z"/>
<path d="M1183 555 l0 -15 9 0 8 0 0 9 0 10 -8 5 -9 5 0 -14z"/>
<path d="M62 517 l-11 -13 21 -13 20 -12 -6 9 -6 10 16 6 15 6 -6 10 -7 11
-16 -13 -16 -13 8 13 7 12 -4 0 -5 0 -10 -13z"/>
<path d="M1170 515 l-12 -15 11 -14 12 -15 20 2 19 1 0 13 0 13 -12 -2 -13 -3
-6 -8 -6 -9 -6 16 -6 16 7 -1 7 -1 13 1 13 1 -6 10 -6 10 -8 0 -9 0 -12 -15z"/>
<path d="M770 510 l0 -10 11 0 10 0 -6 10 -6 10 -5 0 -4 0 0 -10z"/>
<path d="M1899 483 l-14 -16 23 12 22 12 0 4 0 5 -9 0 -9 0 -13 -17z"/>
<path d="M2517 480 l-17 -20 0 -6 0 -5 12 7 11 7 -7 -12 -8 -12 -14 12 -14 11
0 -10 0 -11 -20 -6 -20 -6 0 -13 0 -13 -15 0 -15 0 0 9 0 8 8 0 7 0 25 20 25
19 -23 -6 -22 -5 -6 -9 -5 -9 -15 0 -14 0 0 11 0 10 12 -7 11 -7 -7 11 -7 12
-16 0 -16 0 6 -7 7 -6 -9 -11 -8 -11 -6 -17 -6 -18 9 0 10 0 1 18 1 17 5 -14
5 -13 9 13 9 14 0 -17 0 -18 16 0 16 0 27 19 27 20 28 -3 29 -4 4 19 5 19 8
-5 9 -5 5 9 6 9 -17 13 -17 14 7 -11 6 -11 -13 0 -14 0 5 14 5 13 -4 0 -4 0
-17 -20z m20 -42 l-5 -13 -1 19 -1 19 6 -6 6 -6 -5 -13z"/>
<path d="M2230 455 l0 -25 10 0 10 0 -9 -17 -8 -18 -28 -57 -28 -58 -9 0 -9 0
6 -10 6 -10 -15 0 -15 0 -41 -21 -40 -21 -41 -5 -41 -6 -4 -12 -5 -12 -25 5
-25 4 -50 -31 -50 -31 -19 0 -19 0 -6 -10 -6 -10 -9 5 -10 6 -21 -12 -21 -11
5 9 5 8 -163 0 -164 1 5 -8 4 -7 -32 10 -33 9 -13 0 -13 0 6 -9 5 -10 -11 -7
-12 -7 7 11 6 11 -9 5 -9 6 -6 -15 -6 -16 26 -9 25 -10 11 0 10 0 -13 18 -14
17 15 -11 15 -10 23 2 22 2 3 2 2 2 17 3 16 3 -8 -29 -9 -29 10 5 9 6 35 -12
35 -13 11 11 11 11 -13 7 -12 8 6 -10 6 -10 -14 0 -15 0 0 9 0 9 -9 -6 -10 -5
-6 10 -6 10 -12 -7 -12 -7 14 17 14 18 17 -16 17 -15 8 0 7 0 -10 13 -11 13
24 0 24 0 -11 -13 -10 -13 9 0 9 0 24 17 25 17 -15 -19 -15 -18 15 5 15 5 19
-9 18 -10 11 11 11 11 33 0 33 0 0 9 0 9 20 -5 20 -5 0 11 0 12 11 -6 10 -7
25 6 25 7 -6 8 -5 9 22 -6 21 -5 -7 19 -7 19 12 -12 13 -13 27 0 28 0 7 12 7
11 -13 -8 -13 -8 7 12 8 12 13 -11 14 -12 11 7 10 6 -4 7 -4 7 14 20 14 19 0
-10 0 -10 -12 -12 -12 -12 27 0 27 0 0 16 0 16 15 -12 14 -12 16 16 16 16 15
0 14 0 0 11 0 10 20 -6 20 -6 6 15 6 16 10 0 9 0 -6 -10 -6 -10 8 2 8 2 38 -7
37 -8 0 -9 0 -10 10 0 10 0 -2 8 -2 7 8 23 7 22 11 0 10 0 -12 -15 -12 -15 9
0 9 0 12 12 12 12 13 -13 12 -14 -15 5 -16 6 -18 -14 -19 -13 10 -13 10 -13 0
-17 0 -17 -8 4 -7 5 -6 -16 -6 -16 -13 9 -12 9 -12 -2 -13 -1 -12 -2 -13 -1
15 -10 15 -9 -14 -13 -14 -13 8 14 8 14 -14 -5 -14 -5 3 -12 2 -11 -11 0 -10
0 6 -9 5 -10 -10 -6 -10 -6 0 18 0 19 17 23 16 24 -13 -5 -14 -4 -9 -28 -9
-28 13 -24 12 -24 19 0 18 0 0 10 0 9 -14 -5 -14 -5 -6 9 -6 9 20 18 20 18 0
-8 0 -7 18 13 17 13 -13 -14 -13 -15 -11 0 -11 0 -5 -14 -5 -14 11 6 10 7 12
-15 12 -15 14 0 14 0 0 9 0 10 -9 5 -9 6 -5 -12 -5 -13 -1 11 -1 12 16 12 15
13 -3 -14 -3 -14 14 3 13 3 -4 -13 -5 -13 38 -1 38 0 21 38 21 38 -10 0 -11 0
1 7 1 8 -1 13 -1 13 -22 -12 -23 -12 25 24 25 24 3 -15 4 -15 6 -7 7 -7 0 24
0 25 -7 1 -8 2 -12 1 -13 2 -10 -5 -10 -5 -13 -2 -12 -2 6 9 5 9 9 -5 8 -5 12
15 12 15 10 -6 10 -6 -11 19 -10 20 -35 17 -34 16 -11 0 -11 0 0 -9 0 -9 -30
11 -30 12 -22 -14 -21 -13 6 24 7 23 0 13 0 13 10 -6 10 -6 10 6 11 7 -13 16
-13 16 18 -7 18 -7 6 16 6 16 -14 9 -14 9 11 0 10 0 11 -11 10 -10 7 26 7 26
19 19 20 20 9 0 9 0 -6 -22 -5 -21 12 7 11 7 -5 9 -5 8 15 6 15 5 -6 16 -6 15
-12 -7 -11 -7 -15 -3 -14 -2 -12 -15 -11 -16 -7 8 -8 7 -11 0 -12 0 1 23 1 22
-9 0 -8 0 0 -25z m35 -67 l10 -8 -17 0 -18 0 0 17 0 16 8 -9 7 -9 10 -7z
m-115 -164 l0 -15 -10 6 -10 6 5 10 6 9 5 0 4 0 0 -16z m103 1 l17 -7 0 -10 0
-10 -15 12 -15 12 0 -7 0 -7 -13 11 -14 11 -8 -8 -8 -7 6 12 7 11 13 -2 12 -3
18 -8z m-178 -24 l-6 -5 -14 -2 -15 -2 5 7 4 8 16 0 15 0 -5 -6z m295 0 l0 -9
-14 -5 -15 -6 6 15 5 14 9 0 9 0 0 -9z m-48 -23 l-12 -12 0 10 0 11 7 6 6 7 6
-5 5 -5 -12 -12z m-375 -13 l0 -14 -9 5 -8 5 5 10 6 9 3 0 3 0 0 -15z m306
-62 l-5 -13 -3 0 -3 0 -5 13 -5 14 13 0 13 0 -5 -14z m67 2 l9 5 5 -9 6 -9
-17 3 -18 3 -8 1 -8 1 7 12 8 12 4 -12 4 -12 8 5z m-650 -2 l-15 -6 -21 -19
-22 -20 -7 13 -8 12 10 -6 10 -7 18 20 18 20 16 -1 16 -1 -15 -5z m707 -15 l2
-23 -15 -23 -15 -23 -14 11 -14 12 25 34 26 34 2 0 2 0 1 -22z m-67 -26 l0 -9
-15 0 -14 0 5 9 5 8 10 0 9 0 0 -8z"/>
<path d="M2341 56 l-12 -14 13 -8 13 -7 -7 8 -8 8 18 13 17 13 -11 1 -12 0
-11 -14z"/>
<path d="M708 459 l12 -16 -14 -12 -14 -12 -13 3 -14 3 2 -11 2 -11 -26 1 -26
1 -4 -12 -4 -11 31 -7 31 -7 6 6 6 6 -24 1 -24 1 25 8 25 8 25 -5 25 -5 -13
10 -14 9 -1 5 -2 5 13 15 12 15 -17 14 -18 14 13 -16z"/>
<path d="M1191 462 l-11 -4 0 -16 1 -17 9 17 10 16 20 -5 20 -5 0 10 0 11 -19
-2 -18 -1 -12 -4z"/>
<path d="M2480 410 l0 -10 15 0 15 0 0 4 0 4 -15 6 -15 5 0 -9z"/>
<path d="M292 403 l-12 -5 6 -10 7 -11 -11 6 -10 7 -17 -6 -16 -7 6 -16 6 -16
-12 13 -13 12 -9 0 -8 0 -31 -32 -32 -33 13 18 13 17 -10 0 -10 0 -12 -15 -12
-14 7 -11 6 -10 -16 0 -16 0 7 13 7 12 -25 -22 -24 -23 -9 0 -8 0 -13 18 -14
17 6 -17 6 -18 -11 0 -11 0 0 23 0 23 12 14 13 14 -18 -14 -19 -14 5 -33 6
-33 -10 5 -9 6 0 -10 0 -11 10 0 10 0 -10 -26 -10 -26 6 -9 6 -10 14 12 14 12
7 -7 6 -6 -12 0 -12 0 7 -12 7 -11 -11 7 -11 6 -6 -10 -7 -11 6 -24 6 -24 20
4 20 4 0 -5 0 -4 -24 -10 -23 -9 -5 -25 -5 -26 9 -6 8 -5 -5 -9 -5 -8 15 2 14
2 8 8 8 8 1 6 1 7 7 25 7 26 -9 42 -10 42 9 -6 9 -5 0 13 0 14 -10 12 -10 12
12 -10 11 -9 19 10 19 10 -5 8 -5 8 22 -1 22 -1 0 -28 0 -28 15 -10 15 -10
-22 6 -23 6 0 -13 0 -14 13 -27 12 -27 13 -5 13 -5 25 16 24 17 -6 -17 -6 -16
-9 6 -9 5 6 -15 6 -16 5 0 4 0 14 14 14 14 -4 6 -5 6 11 -9 11 -9 17 6 16 6 7
10 8 11 0 -13 0 -13 -22 -8 -23 -9 29 -11 29 -12 16 4 16 5 -24 1 -23 1 11 13
11 14 -8 8 -7 8 12 -7 12 -6 5 9 6 9 -28 5 -27 5 -15 -8 -15 -8 -37 18 -37 18
-7 -7 -7 -6 5 15 5 15 -12 15 -13 15 -3 25 -3 25 8 23 7 22 12 -7 12 -6 -20
24 -19 24 14 -12 14 -13 15 0 15 0 -20 15 -19 15 17 -6 17 -6 25 19 25 18 1
12 0 12 12 7 11 7 -7 -11 -7 -12 16 0 16 0 -4 8 -5 7 14 13 14 13 0 -11 0 -11
10 6 11 7 -12 14 -11 14 -7 -1 -6 -1 -13 -5z m-81 -80 l14 -18 -17 14 -18 13
0 4 0 4 4 0 4 0 13 -17z m-95 -55 l7 -11 -10 6 -10 7 -18 -20 -18 -20 13 0 13
0 -6 -6 -6 -6 -11 7 -12 7 23 24 22 24 3 0 3 0 7 -12z m-71 -28 l-1 -21 -18
-17 -18 -17 10 20 11 20 5 18 5 17 4 0 4 0 -2 -20z m100 10 l6 -10 -10 0 -11
0 0 10 0 10 4 0 5 0 6 -10z m17 -119 l9 14 -3 -20 -3 -20 11 2 11 2 0 -15 0
-14 -8 0 -7 0 -16 25 -16 24 1 8 1 8 5 -14 5 -13 10 13z m-105 -57 l-6 -6 -13
5 -13 5 19 1 19 1 -6 -6z m-7 -24 l0 -10 -10 0 -10 0 0 -11 0 -10 12 7 11 7
-7 -12 -8 -12 -13 11 -14 12 12 13 12 14 8 1 7 0 0 -10z"/>
<path d="M12 380 l0 -25 5 13 5 12 -5 13 -5 12 0 -25z"/>
<path d="M802 368 l-12 -12 1 -35 0 -36 9 23 9 22 5 0 5 0 -5 -15 -6 -15 23
-20 24 -19 12 4 12 4 -4 -17 -3 -17 -16 -37 -16 -37 0 -6 0 -6 16 15 16 16 9
-5 8 -6 -32 -29 -32 -29 13 -1 12 0 0 -11 0 -10 -9 6 -9 5 -14 -14 -14 -13
-32 3 -33 4 6 -9 5 -10 -9 -5 -9 -6 -12 16 -13 15 -11 -4 -12 -5 0 19 0 18 16
-12 15 -12 7 -10 8 -10 0 16 0 17 -36 17 -37 17 -9 -15 -9 -16 -13 5 -13 5 -7
-17 -6 -17 11 -13 11 -13 -7 -11 -6 -10 10 0 11 0 0 13 0 12 20 13 20 12 0
-10 0 -10 18 0 18 0 11 -11 12 -12 18 8 18 8 17 3 16 4 -5 -20 -5 -20 -14 17
-13 18 3 -20 3 -20 16 -3 17 -3 0 18 0 19 16 20 16 19 -6 -17 -6 -18 -6 -14
-6 -15 21 6 21 5 -12 16 -13 16 17 -7 17 -6 16 16 16 16 -5 12 -5 13 15 6 14
5 0 12 0 12 -20 -18 -20 -18 0 7 0 7 11 20 10 20 8 -5 8 -6 0 18 0 17 2 23 1
22 10 0 9 0 -6 -17 -7 -18 16 13 16 13 7 -11 6 -10 8 5 8 5 18 -20 18 -20 10
7 10 6 -8 -13 -8 -13 21 5 21 6 -6 -14 -5 -14 -18 10 -19 10 -6 10 -6 10 -10
-6 -9 -5 2 8 3 8 -6 0 -6 0 -18 15 -18 15 5 -15 5 -15 63 -33 64 -33 14 18 15
18 -7 -19 -7 -19 13 -9 13 -8 12 0 12 0 -6 18 -6 17 16 -20 16 -20 1 20 2 20
5 -15 6 -15 11 -7 11 -8 22 0 21 0 5 13 5 12 1 -19 1 -18 15 12 15 12 0 8 0 8
-22 7 -23 8 -51 3 -51 2 -95 46 -95 47 -11 23 -11 24 -21 7 -20 6 5 9 6 9 -21
11 -20 11 0 17 0 17 -10 -15 -10 -15 0 17 0 17 -8 5 -9 5 -11 -11z m58 -59 l0
-8 -19 2 -20 1 4 6 4 7 16 0 15 0 0 -8z m47 -70 l-16 -22 2 21 1 21 8 -5 8 -5
0 12 0 12 6 -6 6 -6 -15 -22z m-10 -49 l-1 -19 -8 5 -8 5 7 12 7 12 -17 -14
-17 -13 0 5 0 5 6 16 6 15 13 -5 14 -6 -2 -18z m180 -45 l0 -14 -9 5 -8 5 5
10 6 9 3 0 3 0 0 -15z m-213 -19 l-5 -14 10 -6 10 -7 -6 -14 -5 -15 -13 0 -14
0 -6 10 -6 10 17 -7 17 -6 -6 25 -7 25 7 7 6 6 3 0 3 0 -5 -14z m368 -3 l-12
-5 5 -8 5 -8 -15 2 -15 2 -10 10 -9 9 32 1 32 1 -13 -4z m-554 -38 l-4 -4 -13
8 -14 9 8 12 8 13 9 -17 10 -18 -4 -3z m-42 -13 l-18 -4 -5 5 -5 6 7 11 7 11
15 -13 16 -13 -17 -3z"/>
<path d="M406 272 l-6 -10 -20 5 -20 5 0 -11 0 -12 9 6 10 5 6 -9 6 -10 -21 4
-20 4 -10 -19 -10 -19 1 -13 0 -13 9 20 8 20 10 -25 10 -25 -12 -15 -11 -15
17 14 18 13 15 -5 14 -6 6 9 6 10 -10 1 -11 2 -9 1 -9 1 -9 9 -8 9 14 -8 14
-8 -5 14 -5 14 -12 -2 -11 -3 0 10 0 10 8 0 8 0 12 -12 12 -12 1 12 2 12 1 8
1 7 9 13 8 13 -5 5 -5 5 -6 -9z"/>
<path d="M424 263 l-11 -18 3 -17 2 -18 -9 0 -9 0 0 -9 0 -10 22 4 23 5 3 9 3
9 22 -4 22 -4 -13 6 -13 6 12 14 12 15 -19 14 -19 14 -10 1 -10 0 -11 -17z
m56 -19 l0 -5 -9 5 -9 6 -5 -12 -5 -13 -1 19 -1 18 -17 -13 -18 -14 14 17 13
18 19 -11 19 -10 0 -5z m-40 -24 l0 -10 -4 0 -5 0 -6 10 -6 10 10 0 11 0 0
-10z"/>
<path d="M822 260 l13 -20 12 -4 12 -5 6 9 6 10 -16 0 -16 0 -5 15 -6 15 -9 0
-9 0 12 -20z"/>
<path d="M125 212 l-10 -7 -3 -25 -3 -25 16 19 15 20 0 13 0 13 -2 0 -3 0 -10
-8z"/>
<path d="M443 193 l-13 -5 0 -10 0 -10 20 5 20 5 6 -9 5 -9 -10 0 -10 0 -6
-20 -6 -20 -12 3 -11 2 -2 -12 -1 -13 -2 -12 -2 -13 -10 18 -10 17 -10 -5 -9
-6 7 -12 7 -12 -16 12 -15 13 -18 -20 -18 -20 11 0 11 0 5 8 5 8 31 -2 30 -2
11 20 11 21 9 -14 9 -14 0 24 0 23 13 -5 12 -4 0 36 -1 36 -14 2 -15 2 -12 -6z"/>
<path d="M415 162 l-6 -7 -17 0 -17 0 0 -15 -1 -15 -12 2 -12 3 0 -14 0 -14
15 2 14 2 7 7 7 7 15 -13 16 -12 -7 12 -7 12 11 7 11 7 -13 9 -14 9 23 -6 22
-6 0 9 0 10 -14 5 -14 6 -7 -7z m-12 -25 l5 -14 -13 0 -13 0 5 14 5 13 3 0 3
0 5 -13z"/>
<path d="M2280 162 l0 -12 -22 -1 -23 -1 19 -5 18 -5 11 11 11 11 -7 7 -7 6 0
-11z"/>
<path d="M325 120 l-6 -10 10 0 11 0 0 10 0 10 -4 0 -5 0 -6 -10z"/>
<path d="M1405 80 l-6 -10 -8 4 -8 5 0 -13 0 -14 16 3 16 2 3 16 3 17 -5 0 -5
0 -6 -10z"/>
<path d="M250 55 l0 -15 10 0 9 0 -5 15 -6 15 -4 0 -4 0 0 -15z"/>
<path d="M368 58 l10 -10 13 4 13 4 -23 7 -24 6 11 -11z"/>
<path d="M653 53 l-13 -5 0 -8 0 -9 20 4 20 4 0 -16 0 -15 15 12 15 12 0 -10
0 -10 15 -6 15 -5 9 18 10 18 -24 -5 -25 -4 0 11 0 12 -10 -6 -11 -7 -12 10
-12 9 -12 -4z"/>
<path d="M1540 50 l0 -10 28 1 27 0 -20 9 -20 9 -7 0 -8 1 0 -10z"/>
</g>
</svg>
