<?xml version="1.0" standalone="no"?>
<!DOCTYPE svg PUBLIC "-//W3C//DTD SVG 20010904//EN"
 "http://www.w3.org/TR/2001/REC-SVG-20010904/DTD/svg10.dtd">
<svg version="1.0" xmlns="http://www.w3.org/2000/svg"
   viewBox="0 0 81.000000 120.000000"
 preserveAspectRatio="xMidYMid meet">
<metadata>
Created by potrace 1.16, written by Peter Selinger 2001-2019
</metadata>
<g transform="translate(0.000000,120.000000) scale(0.100000,-0.100000)"
fill="#000000" stroke="none">
<path d="M164 1191 l-30 -8 -51 -33 -51 -34 -16 -56 -16 -56 0 -56 0 -55 10
-54 10 -53 31 -75 30 -76 28 -50 27 -50 43 -30 43 -30 23 29 23 29 5 30 4 31
-22 20 -22 21 -23 45 -23 45 -34 95 -35 95 -5 38 -5 37 16 24 15 24 36 12 35
12 35 -12 36 -12 28 -24 29 -24 7 -267 8 -268 1 -195 1 -194 31 -21 31 -21 69
-13 69 -13 35 10 35 11 38 14 38 14 16 16 16 16 13 33 12 33 16 42 16 43 11
72 11 73 -5 70 -5 70 -22 80 -21 80 -35 56 -34 56 -15 13 -15 12 0 18 0 18
-32 10 -33 10 -28 6 -28 7 -14 -34 -14 -34 5 -29 5 -29 24 -18 25 -19 0 -16 0
-17 8 12 8 12 10 -7 11 -7 16 -31 16 -31 15 -96 16 -97 0 -98 0 -98 -37 -34
-38 -34 -66 -4 -67 -4 -4 43 -4 44 8 120 8 120 1 230 2 230 -22 55 -21 56 -42
40 -43 41 -35 20 -35 21 -40 5 -40 5 -31 -7z m142 -37 l29 -18 43 -40 43 -41
18 -60 18 -60 -3 -230 -3 -230 -5 -40 -5 -39 -2 -114 -1 -114 10 -10 10 -10
71 4 71 4 41 40 41 41 -1 114 -1 114 -5 45 -6 45 -10 45 -11 45 -15 37 -16 38
-18 5 -17 6 -26 20 -26 20 0 15 0 14 12 0 11 0 53 -25 54 -26 21 -41 21 -41
22 -106 22 -106 -17 -125 -17 -125 -11 -27 -10 -27 -39 -26 -39 -25 -34 -2
-34 -1 -55 8 -55 7 -15 8 -15 8 5 268 5 269 -6 167 -5 167 -27 40 -27 41 -40
20 -39 20 -65 0 -64 0 -30 -25 -30 -25 -16 -34 -16 -34 0 -32 0 -32 20 -100
21 -100 22 -46 23 -47 27 -43 28 -43 24 -11 25 -11 0 -8 0 -8 -11 -7 -11 -6
-32 17 -32 18 -42 81 -41 81 -24 70 -24 70 -6 71 -7 71 15 58 16 59 21 15 22
16 40 23 41 22 56 -4 56 -4 29 -18z m-6 -66 l44 -23 19 -27 20 -27 8 -98 9
-98 -4 -361 -3 -361 36 -1 36 -2 55 -9 54 -9 40 15 40 14 24 22 24 22 14 33
14 33 10 77 10 77 6 41 6 40 -21 104 -21 104 -24 53 -25 52 -33 21 -33 20 -37
12 -38 11 0 7 0 8 13 10 13 11 38 -11 38 -12 17 -25 16 -25 20 -22 20 -22 24
-47 24 -48 18 -81 18 -81 1 -80 0 -80 -14 -66 -14 -67 -25 -48 -25 -49 -19
-17 -19 -17 -66 -21 -65 -20 -54 10 -54 10 -31 15 -32 15 -4 42 -5 43 2 120 2
120 -9 290 -9 290 -5 23 -5 23 -32 19 -32 20 -34 10 -34 9 -35 -15 -35 -14
-19 -22 -20 -23 5 -55 4 -55 31 -85 32 -85 27 -62 27 -62 18 -4 18 -5 0 -22 0
-22 -32 20 -33 21 -38 63 -37 62 -20 66 -19 65 -7 58 -6 59 -1 24 0 24 17 34
17 35 11 8 12 7 36 7 35 7 30 1 31 1 44 -22z"/>
<path d="M626 1173 l6 -28 13 -40 13 -40 11 -41 11 -40 51 -85 51 -84 11 -25
10 -25 4 18 5 18 -58 96 -57 96 -19 66 -19 66 -12 38 -11 37 -8 0 -8 0 6 -27z"/>
<path d="M670 1195 l0 -5 22 -67 22 -68 27 -40 26 -40 22 -40 21 -40 0 21 0
20 -45 68 -45 69 0 12 0 13 -17 51 -16 51 -9 0 -8 0 0 -5z"/>
<path d="M725 1178 l7 -23 34 -74 34 -74 7 6 6 7 -31 62 -31 63 -6 28 -7 27
-10 0 -9 0 6 -22z"/>
<path d="M10 381 l15 -11 13 0 14 0 58 -37 58 -38 21 -30 20 -30 17 -64 16
-64 -6 -56 -7 -56 12 19 12 19 -6 78 -6 78 -16 38 -16 38 -22 23 -22 24 -53
35 -54 34 -31 5 -32 6 15 -11z"/>
<path d="M0 311 l0 -9 24 -6 24 -6 59 -65 60 -64 12 -41 12 -42 1 -41 1 -42
10 23 10 22 -16 60 -17 59 -25 37 -25 37 -39 34 -39 33 -26 10 -26 10 0 -9z"/>
<path d="M0 246 l0 -15 19 -6 18 -5 25 -29 26 -28 17 -27 18 -27 13 -57 14
-57 -5 59 -6 59 -38 54 -39 55 -31 19 -31 19 0 -14z"/>
</g>
</svg>
