<?xml version="1.0" standalone="no"?>
<!DOCTYPE svg PUBLIC "-//W3C//DTD SVG 20010904//EN"
 "http://www.w3.org/TR/2001/REC-SVG-20010904/DTD/svg10.dtd">
<svg version="1.0" xmlns="http://www.w3.org/2000/svg"
   viewBox="0 0 99.000000 123.000000"
 preserveAspectRatio="xMidYMid meet">
<metadata>
Created by potrace 1.16, written by Peter Selinger 2001-2019
</metadata>
<g transform="translate(0.000000,123.000000) scale(0.100000,-0.100000)"
fill="#006400" stroke="none">
<path d="M925 1219 l-40 -8 -207 -7 -206 -7 5 -13 4 -12 7 -144 7 -143 63 -3
62 -3 0 -28 0 -29 -22 -6 -23 -6 -78 0 -78 0 -4 13 -4 12 -5 185 -5 185 -1 0
0 0 -122 -2 -123 -2 -77 0 -77 -1 4 -77 5 -78 5 -345 4 -345 7 -102 7 -102 8
4 7 5 -6 -25 -7 -24 3 -54 4 -55 46 4 47 3 151 1 151 0 -5 175 -5 175 19 1 19
2 38 -2 37 -3 0 13 0 13 11 -11 11 -11 5 -113 6 -114 11 -14 11 -15 -12 8 -13
7 0 -30 0 -31 40 0 40 0 0 13 0 12 8 -12 8 -13 89 4 90 4 74 -7 73 -7 -6 91
-7 90 -4 494 -5 495 -3 1 -2 1 -40 -7z m-190 -151 l93 5 1 -144 2 -143 12 -8
12 -8 -10 0 -10 0 3 -270 3 -270 -55 0 -55 0 -5 18 -5 17 -7 137 -6 137 -172
-5 -171 -5 -35 1 -35 1 2 -76 2 -75 6 -9 5 -10 -10 -6 -11 -7 13 -16 13 -16
-12 7 -12 8 -3 -93 -3 -93 -51 -3 -51 -3 -7 223 -6 223 -6 230 -7 230 27 13
27 12 -6 -10 -6 -10 25 0 26 0 0 -195 0 -195 263 2 262 3 -1 65 -1 65 -1 112
-2 111 -74 -5 -73 -6 -5 36 -4 36 14 -8 14 -8 93 5z m-335 -92 l0 -4 -16 -6
-15 -6 6 10 6 10 10 0 9 0 0 -4z"/>
</g>
</svg>
