<?xml version="1.0" standalone="no"?>
<!DOCTYPE svg PUBLIC "-//W3C//DTD SVG 20010904//EN"
 "http://www.w3.org/TR/2001/REC-SVG-20010904/DTD/svg10.dtd">
<svg version="1.0" xmlns="http://www.w3.org/2000/svg"
   viewBox="0 0 477.000000 413.000000"
 preserveAspectRatio="xMidYMid meet">
<metadata>
Created by potrace 1.16, written by Peter Selinger 2001-2019
</metadata>
<g transform="translate(0.000000,413.000000) scale(0.100000,-0.100000)"
fill="#006400" stroke="none">
<path d="M2251 4078 l-43 -53 -38 -66 -39 -66 -15 -13 -16 -12 0 -10 0 -10
-18 -26 -19 -27 -18 -45 -18 -45 -18 -50 -19 -50 0 -16 0 -17 13 -10 12 -10
155 14 155 14 175 -6 175 -6 264 0 265 0 13 18 13 18 0 18 0 18 -14 17 -15 18
-26 33 -27 32 -10 -7 -11 -6 7 11 7 12 -67 82 -66 83 -97 107 -96 108 -40 0
-41 0 77 -80 78 -79 51 -62 52 -63 35 -35 35 -36 -6 12 -6 12 9 6 10 6 -4 -22
-4 -21 54 -67 54 -66 -132 -5 -132 -5 -180 8 -180 9 -237 -6 -238 -5 0 10 0
10 22 52 22 52 54 85 55 85 26 40 26 40 5 5 5 5 43 52 42 52 0 5 0 6 -38 0
-38 0 -43 -52z"/>
<path d="M2442 4018 l-60 -93 -26 -52 -26 -51 -7 -32 -6 -32 14 -9 14 -9 107
0 107 0 103 11 103 10 28 11 27 10 0 20 0 20 -142 144 -143 144 -16 0 -16 0
-61 -92z m200 -95 l99 -98 -48 -7 -48 -6 -122 -1 -123 -1 0 5 0 6 25 47 24 47
35 45 34 45 -4 7 -5 8 17 0 17 0 99 -97z"/>
<path d="M3720 3960 l15 -10 15 0 15 0 -15 10 -15 10 -15 0 -15 0 15 -10z"/>
<path d="M4430 3950 l0 -10 11 0 10 0 -6 10 -6 10 -5 0 -4 0 0 -10z"/>
<path d="M3940 3859 l-45 -20 -55 -27 -55 -26 -45 -34 -45 -33 -44 -37 -44
-37 -54 -50 -54 -49 -45 -63 -44 -63 -41 -88 -41 -87 -13 -35 -13 -35 -6 -27
-6 -28 -28 0 -27 0 -270 15 -270 14 -469 21 -469 21 -9 5 -8 5 0 16 0 15 -38
82 -39 81 -40 50 -40 50 -54 42 -54 42 -79 25 -79 26 -61 0 -61 -1 -80 -18
-80 -18 -34 -18 -34 -17 17 -10 17 -10 17 15 17 14 63 17 63 17 68 6 69 6 72
-18 71 -18 59 -39 59 -39 47 -62 47 -62 29 -63 30 -62 -1 -93 -2 -92 -3 -50
-4 -50 -7 -130 -6 -130 -15 -270 -14 -270 -15 -265 -15 -265 -10 -180 -9 -180
-6 -135 -6 -135 -5 -95 -5 -95 -19 -43 -19 -42 -44 -58 -45 -57 -47 -40 -47
-40 -27 -15 -26 -15 -5 -6 -5 -6 -45 -16 -45 -16 -42 -15 -41 -15 -119 -7
-118 -7 -75 12 -75 12 -55 15 -55 16 -51 24 -50 25 -67 55 -66 55 -31 45 -30
45 0 4 0 4 -31 66 -30 66 -14 67 -13 67 -3 40 -3 40 8 40 8 40 21 45 21 45 75
75 76 76 42 32 41 32 66 25 66 25 104 0 103 0 54 -19 54 -18 53 -27 53 -27 39
-36 40 -35 0 -10 0 -9 19 -21 20 -21 35 -67 36 -68 21 -68 21 -69 -5 -62 -6
-62 -26 -52 -27 -52 -31 -31 -32 -32 -25 -15 -25 -15 -45 -17 -45 -16 -65 -7
-66 -6 -79 21 -80 22 -65 32 -64 32 -31 31 -31 31 -22 46 -21 46 -5 50 -5 51
10 0 10 0 -6 10 -6 10 22 40 23 40 7 0 8 0 13 13 13 12 79 39 78 40 47 0 46 0
51 -26 51 -26 28 -23 27 -24 23 -40 24 -40 6 -35 6 -36 -16 -41 -16 -40 -44
-32 -43 -31 -46 0 -47 0 -34 15 -35 14 -10 26 -10 26 0 29 0 28 16 6 17 6 1
-2 2 -3 16 -26 17 -27 35 -4 35 -4 11 30 10 29 0 23 0 22 -32 27 -32 27 -32
-5 -33 -6 -34 -16 -35 -16 -6 -22 -6 -22 0 -31 0 -31 23 -33 22 -33 28 -21 28
-20 68 -4 69 -4 44 33 45 34 17 23 17 23 4 40 4 41 -20 54 -20 53 -54 50 -55
49 -62 21 -63 20 -43 -9 -42 -10 -76 -37 -75 -37 -29 -32 -28 -33 -17 -56 -16
-56 4 -27 3 -27 29 -58 29 -59 30 -30 31 -29 70 -34 70 -33 80 -22 80 -22 71
6 71 5 61 31 61 30 6 0 7 0 29 29 29 29 0 7 0 6 20 21 20 22 21 55 21 56 -4
65 -5 65 -32 83 -33 82 -58 88 -58 88 -39 27 -40 28 -84 36 -84 37 -130 0
-130 1 -55 -24 -55 -23 -65 -51 -65 -51 -53 -50 -54 -51 -24 -41 -24 -41 -11
-54 -11 -54 1 -44 1 -44 15 -70 15 -71 50 -101 50 -100 43 -42 42 -43 44 -35
44 -36 51 -23 51 -22 30 -12 30 -11 90 -16 90 -15 75 0 75 1 70 9 70 9 79 31
78 30 46 33 47 32 50 51 50 50 20 28 20 28 12 13 12 13 -6 6 -6 6 10 0 11 0 6
24 6 24 62 5 63 4 410 1 410 2 326 6 326 7 12 -39 12 -39 22 -45 22 -44 45
-41 45 -40 83 -83 84 -83 54 -34 54 -35 97 -34 98 -33 77 -18 76 -18 77 10 77
11 75 38 75 39 45 38 44 39 15 32 15 31 16 30 16 30 7 5 8 5 22 109 22 110 0
80 -1 81 -15 58 -16 58 0 20 0 20 -32 61 -31 60 -84 89 -85 88 -51 25 -52 25
-65 11 -65 10 -50 0 -50 0 -83 -15 -82 -15 -33 -16 -32 -17 -37 -30 -38 -30
-35 -52 -36 -52 -20 -62 -19 -63 0 -55 0 -54 24 -73 25 -73 23 -39 23 -39 61
-60 61 -60 55 -33 55 -33 60 -11 59 -11 75 17 74 16 28 24 27 23 15 35 14 35
16 69 16 69 -4 80 -4 80 -15 35 -15 35 -51 62 -51 61 -47 16 -48 16 -30 0 -31
0 -40 -11 -39 -11 -32 -32 -32 -32 -12 -43 -12 -44 0 -61 0 -61 16 -40 17 -40
36 -37 36 -37 44 -7 43 -6 31 13 31 12 19 31 19 31 0 73 0 73 -11 21 -11 20
-33 14 -34 14 -24 0 -24 0 -16 -18 -17 -19 0 -19 0 -19 35 -30 36 -30 6 -37 5
-37 -6 -27 -7 -26 -47 6 -47 7 -31 33 -32 33 -10 49 -10 49 4 40 5 40 3 27 3
26 16 26 17 26 24 16 24 15 54 6 54 5 53 -23 53 -22 40 -50 39 -50 16 -31 15
-30 5 -80 5 -81 -11 -57 -10 -57 -22 -50 -21 -50 -45 -22 -44 -21 -82 -2 -82
-1 -58 29 -57 29 -58 46 -57 47 -47 79 -48 80 -16 55 -16 55 4 71 5 70 27 58
27 57 22 26 22 26 25 24 25 25 50 24 50 23 91 12 90 12 83 -10 83 -11 62 -31
62 -30 62 -63 62 -63 34 -51 34 -50 12 -45 11 -44 9 -30 8 -30 12 -59 12 -59
-7 -66 -7 -66 -19 -88 -18 -87 -40 -68 -39 -67 -29 -27 -28 -27 -78 -44 -77
-45 -73 -10 -72 -11 -70 14 -69 15 -80 26 -79 25 -65 32 -65 32 -141 132 -141
133 -28 50 -27 51 -2 32 -2 32 8 185 7 185 4 135 5 135 5 210 6 210 4 85 4 85
6 170 6 170 4 58 4 58 11 287 12 287 9 11 8 10 -5 21 -6 22 18 53 17 53 54
110 53 110 0 -9 0 -8 46 61 46 61 9 0 9 0 0 17 0 16 6 -6 6 -6 26 24 27 23 50
43 50 42 50 32 50 31 75 34 75 34 54 4 53 5 57 -13 56 -12 40 -23 40 -23 25
-28 25 -29 32 -50 31 -50 21 -45 22 -45 10 -70 11 -70 -6 -70 -6 -70 -18 -50
-17 -50 -8 -10 -9 -10 -21 -40 -22 -39 -25 -12 -25 -12 -25 -10 -25 -11 -39
-12 -39 -12 -62 6 -63 5 -63 31 -64 32 -31 22 -31 23 -50 51 -51 50 -32 36
-31 36 -4 46 -4 46 20 45 19 46 56 53 57 53 54 21 55 21 39 0 40 0 63 -16 64
-16 30 -31 31 -32 9 -43 10 -43 -12 -12 -13 -12 -6 -44 -5 -44 -14 -12 -13
-13 -52 -7 -51 -7 -10 19 -10 19 1 19 2 20 22 24 22 25 -5 8 -5 8 -29 15 -29
15 -31 -7 -32 -6 -19 -31 -18 -30 5 -26 6 -25 10 -27 10 -27 41 -16 42 -17 50
0 50 -1 42 12 42 12 16 51 15 52 0 58 0 59 -14 27 -14 27 -29 27 -28 27 -45
16 -45 16 -68 6 -67 6 -61 -24 -61 -24 -37 -35 -37 -35 -34 -43 -35 -43 -7
-22 -6 -22 -1 -51 -1 -52 48 -53 47 -54 40 -39 40 -38 40 -30 40 -29 65 -31
65 -31 73 -5 73 -5 22 11 22 10 20 6 20 5 37 13 37 14 19 25 18 24 39 80 39
80 4 106 4 106 -11 54 -12 54 -22 45 -22 45 -42 62 -42 61 -37 30 -36 30 -64
21 -64 21 -73 0 -72 0 -45 -21z m74 -434 l-19 -14 -9 -1 -10 0 20 15 19 14 9
1 10 0 -20 -15z m20 -20 l-6 -15 -10 0 -10 0 12 15 12 15 4 0 3 0 -5 -15z
m-61 -48 l-4 -7 -9 5 -8 5 6 22 5 22 7 -20 7 -19 -4 -8z m257 -57 l0 -10 -17
0 -18 0 15 10 15 10 3 0 2 0 0 -10z m-2015 -155 l50 -4 170 -6 170 -6 335 -15
335 -16 7 -7 7 -6 -10 -220 -9 -220 -5 -174 -6 -174 -3 -6 -4 -6 -7 -260 -7
-260 -3 -55 -3 -55 -7 -255 -7 -255 -7 -153 -8 -152 -4 -4 -4 -4 -787 -8 -788
-7 -2 49 -2 49 1 20 0 20 7 170 7 170 4 60 4 60 6 125 6 125 5 90 5 90 9 145
9 145 6 105 5 105 5 105 6 105 5 50 4 50 4 55 5 55 6 145 7 145 9 49 9 49 0 5
0 4 208 -6 207 -7 50 -4z m-1384 -2116 l-23 -9 -31 -22 -31 -22 8 13 8 13 32
19 31 19 15 -1 15 0 -24 -10z m3076 5 l-6 -6 -13 5 -13 5 19 1 19 1 -6 -6z
m-3032 -34 l6 -10 -16 0 -16 0 6 10 6 10 4 0 4 0 6 -10z m3125 -10 l0 -20 -10
0 -10 0 0 4 0 4 -6 16 -6 16 16 0 16 0 0 -20z m-112 -15 l-6 -6 -6 18 -7 18
12 -12 13 -13 -6 -5z m34 3 l-12 -12 -7 8 -7 7 14 9 14 9 5 -5 5 -4 -12 -12z
m-3028 -8 l-10 -10 -21 -5 -21 -4 -5 13 -5 12 29 -2 29 -2 0 11 0 10 7 -6 7
-7 -10 -10z m3066 -11 l0 -9 -10 0 -10 0 0 16 0 15 10 -6 10 -6 0 -10z m-3066
-17 l5 -8 -27 -1 -27 -2 20 9 20 9 2 0 2 1 5 -8z m3066 -16 l-10 -10 -10 10
-10 10 20 0 20 0 -10 -10z"/>
<path d="M1870 2813 l0 -57 -10 -85 -9 -86 -11 -185 -11 -185 -20 -245 -19
-245 -21 -240 -21 -240 -1 -60 0 -60 8 -78 8 -78 326 6 326 6 85 4 85 4 202 7
202 7 9 6 10 6 6 80 5 80 6 150 5 150 5 85 5 85 5 195 5 195 5 145 5 145 6
213 6 212 3 31 2 31 14 8 13 9 -25 5 -24 5 -145 6 -145 5 -320 10 -320 10
-127 0 -128 0 0 -57z m410 23 l365 -6 170 -6 170 -5 34 -5 34 -5 -7 -112 -6
-112 -5 -220 -5 -220 -11 -355 -11 -355 -5 -8 -5 -9 -10 10 -10 10 -3 96 -3
95 -7 21 -6 20 -64 0 -64 0 -5 8 -5 9 -11 119 -11 119 -10 23 -9 22 -42 -1
-43 0 -72 -13 -71 -13 -6 96 -6 96 -8 35 -7 35 -35 12 -35 12 -66 0 -66 1 -6
58 -5 57 -18 75 -17 75 -9 10 -9 10 -87 0 -87 0 -5 95 -5 95 -8 13 -8 12 -85
0 -84 0 0 60 0 59 13 -4 12 -3 365 -6z m-262 -250 l3 -100 11 -13 10 -13 88 0
87 0 12 -41 13 -41 9 -96 10 -97 12 -7 12 -8 96 0 96 0 7 -127 7 -128 14 -14
14 -14 78 12 78 11 31 5 31 5 7 -72 7 -73 10 -77 11 -78 72 0 72 0 -4 -40 -4
-40 12 -85 12 -84 35 -7 36 -7 -7 -96 -6 -96 0 -70 0 -71 -72 -2 -73 -2 -320
-10 -320 -10 -203 -3 -203 -2 -8 14 -9 14 -6 101 -7 101 15 160 15 160 6 85 5
85 5 35 5 35 16 215 16 215 3 60 4 60 5 45 5 45 6 115 6 115 5 18 6 18 61 -3
62 -3 3 -99z"/>
<path d="M2300 2744 l-25 -4 -52 -12 -53 -11 0 -23 0 -22 50 -42 50 -41 11 7
12 7 -7 -11 -6 -11 37 -28 38 -28 11 -10 12 -10 92 -85 93 -85 10 -4 10 -4 -7
11 -6 11 9 6 10 6 -4 -22 -4 -21 67 -74 67 -74 7 20 7 20 5 0 6 0 -10 -25 -9
-24 25 -31 26 -30 11 7 12 6 -7 -8 -8 -8 27 -36 26 -36 36 -37 36 -38 8 0 8 0
-6 20 -6 20 10 0 11 0 0 -15 0 -15 8 0 7 0 -1 283 -1 282 -12 60 -12 60 -6 38
-6 38 -19 10 -18 10 -273 4 -272 4 -25 -5z m447 -60 l102 -6 15 -71 15 -72 4
-160 4 -160 -6 -73 -6 -72 -75 87 -75 88 -109 113 -110 112 -9 0 -8 0 5 -8 5
-8 -10 -14 -9 -15 4 26 4 27 -26 25 -27 25 -98 76 -98 76 13 5 13 4 45 3 45 3
145 -2 145 -2 102 -7z m-227 -254 l0 -10 -10 0 -10 0 0 10 0 10 10 0 10 0 0
-10z m397 -71 l0 -31 -9 15 -8 15 6 16 6 16 2 0 3 0 0 -31z m-302 -18 l5 -10
-8 -5 -9 -5 0 14 0 15 3 0 3 0 6 -9z m20 -30 l-5 -10 20 -6 20 -6 11 -21 11
-20 -7 -6 -7 -7 -10 19 -10 18 -19 16 -18 16 5 8 5 8 5 0 5 0 -6 -9z m85 -92
l0 -8 -9 -5 -9 -6 -5 13 -5 14 14 0 14 0 0 -8z m64 -81 l-5 -8 -10 0 -9 0 0 8
0 9 15 0 14 0 -5 -9z m71 -78 l6 -10 -10 0 -11 0 0 10 0 10 4 0 5 0 6 -10z"/>
<path d="M2568 2612 l-26 -3 -6 -14 -5 -14 42 -48 42 -48 49 -52 49 -53 17 0
18 0 13 16 13 16 4 93 4 94 -38 10 -39 10 -55 -2 -55 -2 -27 -3z m92 -67 l13
-15 -4 -4 -4 -4 -24 19 -23 19 15 0 15 0 12 -15z m60 -71 l0 -15 -10 6 -10 6
5 10 6 9 5 0 4 0 0 -16z"/>
<path d="M2585 2200 l6 -10 5 0 4 0 0 10 0 10 -11 0 -10 0 6 -10z"/>
<path d="M1870 2256 l0 -16 10 0 10 0 0 9 0 10 -10 6 -10 6 0 -15z"/>
<path d="M1993 2244 l-6 -16 9 -76 8 -77 1 -330 0 -330 7 -11 7 -10 2 -122 2
-122 12 -10 13 -11 73 -4 74 -5 155 1 155 1 22 0 22 0 6 19 6 19 11 0 10 0 -4
-18 -5 -18 34 4 35 4 6 18 7 18 13 -14 13 -14 -11 0 -10 0 0 -9 0 -10 48 6 47
5 25 2 25 3 18 1 17 2 0 18 0 18 -21 23 -21 22 7 7 8 7 4 -12 5 -13 9 0 9 0 0
13 0 13 -40 60 -40 59 -33 50 -34 50 -52 69 -52 69 -14 13 -13 14 -5 12 -4 13
-14 -12 -13 -13 10 0 11 0 12 -26 12 -27 -4 -4 -5 -4 -20 33 -21 32 11 13 10
13 -9 13 -9 12 -84 108 -83 108 -10 -10 -9 -9 -14 5 -15 5 -10 19 -10 19 5 0
5 0 20 -21 19 -21 6 11 7 10 -57 68 -58 68 -30 36 -31 36 -55 62 -55 63 -27
14 -27 14 -6 0 -6 0 -6 -16z m104 -131 l34 -38 118 -145 118 -145 17 -14 16
-13 0 -9 0 -9 38 -48 37 -48 43 -55 42 -54 8 -10 7 -10 71 -100 71 -100 28
-50 28 -50 14 -12 14 -11 -88 -8 -88 -8 -262 -1 -261 0 -6 6 -7 6 -9 109 -9
109 -7 130 -7 130 1 10 2 10 6 165 6 165 -9 68 -10 67 6 0 5 0 33 -37z m163
-144 l0 -9 -9 0 -9 0 -5 14 -6 15 15 -6 14 -5 0 -9z m34 -28 l6 -9 -20 5 -20
5 0 4 0 4 14 0 15 0 5 -9z m86 -123 l11 -23 -14 17 -14 18 -8 -8 -8 -7 7 13 7
12 4 0 4 0 11 -22z m78 -74 l3 -2 -10 -6 -10 -7 -12 23 -12 23 19 -15 19 -14
3 -2z m-410 -6 l-4 -12 -12 -4 -12 -4 0 16 0 16 16 0 16 0 -4 -12z m460 -79
l10 -16 -11 0 -12 0 -22 28 -23 27 24 -11 24 -12 10 -16z m-464 0 l6 -31 -10
-18 -9 -17 5 -6 5 -5 -10 -7 -11 -6 0 20 0 20 10 6 10 6 0 17 0 17 -10 -15
-10 -15 0 33 0 32 9 0 9 0 6 -31z m2 -127 l1 -29 -11 0 -12 0 2 26 1 26 2 3 1
2 8 0 7 0 1 -28z m568 -13 l18 -31 -21 12 -22 11 6 10 6 9 -15 0 -16 0 0 10 0
10 13 0 13 0 18 -31z m-570 -50 l-6 -10 12 -14 12 -15 -6 -15 -5 -15 -13 0
-13 0 15 11 15 11 -12 5 -13 5 0 29 0 30 10 -6 10 -6 -6 -10z m609 -6 l-6 -16
13 8 13 8 -8 -12 -7 -13 -10 10 -10 10 6 11 7 11 4 0 4 0 -6 -17z m47 -65 l0
-10 -15 12 -15 12 0 4 0 3 15 -5 15 -6 0 -10z m-650 -30 l0 -23 -10 15 -10 15
0 8 0 7 10 0 10 0 0 -22z m-3 -60 l-5 -13 0 25 0 25 5 -12 5 -13 -5 -12z m6
-33 l-5 -16 -5 5 -5 5 7 10 6 11 4 0 4 0 -6 -15z m72 -125 l6 -10 -10 0 -11 0
0 10 0 10 4 0 5 0 6 -10z m502 4 l-6 -6 -13 5 -13 5 19 1 19 1 -6 -6z m-414
-11 l-13 -5 -12 5 -13 5 25 0 25 0 -12 -5z m227 3 l0 -4 -20 -5 -20 -5 0 9 0
9 20 0 20 0 0 -4z"/>
<path d="M2150 1814 l-11 -28 4 -135 5 -136 22 -68 22 -68 28 -14 29 -15 68
-10 68 -10 52 0 52 0 6 20 6 20 10 -5 9 -6 0 27 0 26 -39 47 -38 46 -18 35
-18 35 -81 119 -81 119 -6 9 -6 9 -36 6 -37 6 -10 -29z m258 -279 l-6 -6 -6
18 -7 18 12 -12 13 -13 -6 -5z m-148 -121 l0 -15 -10 6 -10 6 0 10 0 9 10 0
10 0 0 -16z"/>
<path d="M1430 3820 l-15 -10 35 6 35 7 4 3 4 4 -24 0 -24 0 -15 -10z"/>
<path d="M1240 3800 l0 -10 11 0 10 0 -6 10 -6 10 -5 0 -4 0 0 -10z"/>
<path d="M1200 3790 l15 -10 8 0 8 0 -6 10 -6 10 -17 0 -17 0 15 -10z"/>
<path d="M1390 3790 l15 -10 24 0 24 0 -4 4 -4 3 -35 7 -35 6 15 -10z"/>
<path d="M825 3750 l-6 -10 10 0 10 0 6 10 6 10 -10 0 -10 0 -6 -10z"/>
<path d="M898 3753 l13 -5 6 6 6 6 -19 -1 -19 -1 13 -5z"/>
<path d="M3525 3700 l-6 -10 10 0 11 0 0 10 0 10 -4 0 -5 0 -6 -10z"/>
<path d="M958 3683 l13 -5 6 6 6 6 -19 -1 -19 -1 13 -5z"/>
<path d="M1552 3665 l0 -30 5 18 5 17 -5 13 -5 12 0 -30z"/>
<path d="M1631 3677 l4 -3 20 -14 20 -15 -14 18 -13 17 -11 0 -10 0 4 -3z"/>
<path d="M741 3648 l-1 -28 15 0 15 0 0 10 0 10 -9 0 -10 0 -4 18 -5 17 -1
-27z"/>
<path d="M1714 3661 l6 -9 -10 -5 -10 -5 12 2 12 2 4 12 4 12 -12 0 -11 0 5
-9z"/>
<path d="M1588 3653 l13 -5 6 6 6 6 -19 -1 -19 -1 13 -5z"/>
<path d="M3360 3655 l0 -10 10 -15 10 -15 0 10 0 10 -10 15 -10 15 0 -10z"/>
<path d="M1759 3615 l9 -30 6 -15 6 -15 -5 35 -5 34 -10 10 -11 11 10 -30z"/>
<path d="M4585 3620 l18 -20 5 0 5 0 -18 20 -18 20 -5 0 -5 0 18 -20z"/>
<path d="M1608 3623 l12 -5 13 5 12 5 -25 0 -25 0 13 -5z"/>
<path d="M1668 3623 l12 -5 13 5 12 5 -25 0 -25 0 13 -5z"/>
<path d="M3350 3621 l0 -10 10 -6 10 -6 -6 15 -6 16 -4 0 -4 0 0 -9z"/>
<path d="M761 3594 l1 -19 5 13 5 13 -6 6 -6 6 1 -19z"/>
<path d="M736 3585 l6 -15 4 0 4 0 0 15 0 15 -10 0 -9 0 5 -15z"/>
<path d="M705 3550 l-6 -10 10 0 11 0 0 10 0 10 -4 0 -5 0 -6 -10z"/>
<path d="M920 3522 l-33 -28 7 -12 7 -12 8 0 8 0 13 25 13 25 18 0 18 0 5 9 6
9 -16 6 -16 6 -2 0 -2 0 -34 -28z"/>
<path d="M4642 3515 l0 -30 5 18 5 17 -5 13 -5 12 0 -30z"/>
<path d="M3290 3519 l0 -10 10 6 10 6 0 5 0 4 -10 0 -10 0 0 -11z"/>
<path d="M3340 3489 l0 -10 10 6 10 6 0 5 0 4 -10 0 -10 0 0 -11z"/>
<path d="M1765 3480 l6 -10 5 0 4 0 0 10 0 10 -11 0 -10 0 6 -10z"/>
<path d="M822 3424 l-62 -56 -41 -86 -42 -85 -9 -36 -10 -36 -13 -67 -12 -67
13 -78 14 -78 36 -75 37 -75 43 -35 44 -35 62 -22 63 -22 58 0 57 -1 18 9 17
10 49 22 48 22 42 42 41 42 24 29 24 29 19 43 19 43 6 22 6 22 4 48 5 49 -32
63 -32 63 -31 32 -31 31 -25 14 -26 13 -54 11 -53 11 -55 -25 -54 -25 7 -11 7
-12 -9 6 -10 6 -10 -7 -10 -7 -36 -45 -36 -45 -17 -34 -17 -35 6 -59 6 -59 16
-27 17 -28 27 -17 28 -16 46 0 45 0 46 16 46 15 20 20 19 19 0 10 0 10 8 0 9
0 11 25 12 26 0 25 0 25 -15 28 -14 29 -26 6 -26 7 -34 -17 -35 -16 -15 -51
-15 -51 0 -22 0 -23 -26 -20 -27 -21 -16 0 -16 0 -31 19 -31 19 -8 57 -7 56
11 13 11 13 2 26 2 26 7 -5 7 -4 22 33 22 32 57 44 56 43 56 -5 55 -5 42 -21
41 -21 24 -32 25 -33 14 -30 15 -30 7 -37 7 -37 -16 -63 -17 -62 -15 -29 -14
-29 -27 -31 -27 -32 -40 -37 -39 -37 -31 -12 -30 -11 -24 -12 -24 -11 -51 1
-51 1 -58 12 -57 13 -42 31 -42 32 -32 55 -32 55 -17 73 -18 74 6 71 6 72 22
65 22 65 19 33 18 33 -6 12 -7 12 7 -7 8 -7 35 52 35 52 14 8 14 8 -6 11 -7
11 11 -7 12 -7 22 21 22 20 -10 10 -11 11 -61 -57z m275 -486 l-5 -13 -1 19
-1 19 6 -6 6 -6 -5 -13z m82 -20 l0 -23 -9 20 -8 20 -7 -17 -7 -18 -11 7 -10
6 18 14 19 13 8 0 8 0 -1 -22z m-105 -24 l6 -15 -10 6 -10 6 0 10 0 9 4 0 4 0
6 -16z m36 -39 l-23 -25 -14 0 -13 0 0 11 0 10 9 -5 9 -6 23 20 24 19 4 1 4 0
-23 -25z"/>
<path d="M1835 3470 l6 -10 5 0 4 0 0 10 0 10 -11 0 -10 0 6 -10z"/>
<path d="M1876 3453 l-7 -18 12 12 13 13 -6 5 -6 6 -6 -18z"/>
<path d="M1715 3430 l-6 -10 10 0 11 0 0 10 0 10 -4 0 -5 0 -6 -10z"/>
<path d="M2658 3413 l13 -5 6 6 6 6 -19 -1 -19 -1 13 -5z"/>
<path d="M4640 3410 l-15 -10 10 0 10 0 15 10 15 10 -10 0 -10 0 -15 -10z"/>
<path d="M1922 3390 l0 -25 5 13 5 12 -5 13 -5 12 0 -25z"/>
<path d="M1892 3380 l0 -25 5 13 5 12 -5 13 -5 12 0 -25z"/>
<path d="M1988 3393 l12 -5 13 5 12 5 -25 0 -25 0 13 -5z"/>
<path d="M4680 3390 l15 -10 10 0 10 0 -15 10 -15 10 -10 0 -10 0 15 -10z"/>
<path d="M2048 3383 l12 -5 13 5 12 5 -25 0 -25 0 13 -5z"/>
<path d="M1928 3343 l12 -5 13 5 12 5 -25 0 -25 0 13 -5z"/>
<path d="M2910 3320 l0 -10 11 0 10 0 -6 10 -6 10 -5 0 -4 0 0 -10z"/>
<path d="M4751 3214 l1 -19 5 13 5 13 -6 6 -6 6 1 -19z"/>
<path d="M590 3179 l0 -10 10 6 10 6 0 5 0 4 -10 0 -10 0 0 -11z"/>
<path d="M535 3120 l-6 -10 10 0 11 0 0 10 0 10 -4 0 -5 0 -6 -10z"/>
<path d="M495 3069 l-7 -10 5 -5 5 -5 5 16 6 15 -4 0 -4 0 -6 -11z"/>
<path d="M480 2928 l-5 -57 8 8 8 8 -3 49 -3 49 -5 -57z"/>
<path d="M3570 2960 l15 -10 24 0 24 0 -4 4 -4 3 -35 7 -35 6 15 -10z"/>
<path d="M3625 2940 l-20 -9 23 0 22 -1 0 10 0 10 -2 -1 -3 0 -20 -9z"/>
<path d="M3832 2910 l0 -25 5 13 5 12 -5 13 -5 12 0 -25z"/>
<path d="M3485 2880 l6 -10 5 0 4 0 0 10 0 10 -11 0 -10 0 6 -10z"/>
<path d="M3533 2845 l0 -40 4 23 4 22 -4 18 -5 17 1 -40z"/>
<path d="M510 2810 l11 -20 5 0 5 0 -11 20 -11 20 -5 0 -5 0 11 -20z"/>
<path d="M3501 2814 l1 -19 5 13 5 13 -6 6 -6 6 1 -19z"/>
<path d="M4150 2806 l0 -4 16 -6 15 -6 -6 10 -6 10 -10 0 -9 0 0 -4z"/>
<path d="M550 2740 l0 -10 11 0 10 0 -6 10 -6 10 -5 0 -4 0 0 -10z"/>
<path d="M604 2730 l0 -20 10 10 10 10 -10 10 -10 10 0 -20z"/>
<path d="M3455 2680 l-20 -9 17 0 17 -1 6 10 6 10 -3 -1 -3 0 -20 -9z"/>
<path d="M3703 2683 l-21 -4 -5 -47 -5 -47 -1 -290 -1 -290 -10 -105 -10 -105
0 -37 0 -37 29 -15 28 -15 61 19 62 18 82 35 83 35 90 37 90 37 126 63 126 63
19 10 19 9 40 22 40 22 85 41 85 42 7 10 7 10 -10 18 -10 18 -23 0 -23 0 -64
33 -64 33 -60 38 -60 39 -96 63 -96 64 -54 24 -54 24 -135 57 -134 57 -49 15
-48 14 -6 15 -5 14 -7 -1 -6 -2 -22 -4z m197 -133 l105 -48 80 -33 80 -33 62
-37 62 -38 51 -36 50 -35 9 0 9 0 4 -8 3 -8 93 -56 93 -55 -83 -47 -83 -47
-170 -84 -170 -83 -115 -47 -115 -46 -40 -18 -40 -19 -34 -7 -33 -7 8 108 7
109 0 318 0 318 31 -7 31 -6 105 -48z"/>
<path d="M3886 2434 l-6 -16 0 -25 0 -25 -20 -79 -20 -79 -15 -77 -14 -78 -2
-50 -2 -50 2 -17 1 -18 23 1 22 0 30 19 30 19 70 35 71 36 84 29 85 29 55 20
55 20 3 29 3 28 -86 48 -86 48 -67 48 -67 48 -61 36 -62 37 -10 0 -10 0 -6
-16z m74 -89 l12 -15 8 5 8 5 4 -7 3 -8 32 -22 32 -23 10 0 9 0 4 -8 3 -8 34
-23 33 -24 51 -28 51 -28 -30 -7 -29 -7 -45 -17 -45 -18 -70 -28 -70 -28 -48
-28 -48 -28 -6 0 -6 0 6 51 6 51 32 129 32 129 7 0 8 0 12 -15z"/>
<path d="M1506 2655 l6 -15 4 0 4 0 0 15 0 15 -10 0 -9 0 5 -15z"/>
<path d="M1440 2620 l0 -10 10 0 10 0 0 10 0 10 -10 0 -10 0 0 -10z"/>
<path d="M581 2574 l1 -19 5 13 5 13 -6 6 -6 6 1 -19z"/>
<path d="M1388 2583 l13 -5 6 6 6 6 -19 -1 -19 -1 13 -5z"/>
<path d="M1437 2526 l-6 -15 15 6 14 5 0 -13 0 -12 5 5 5 5 -6 17 -6 16 -8 0
-8 0 -5 -14z"/>
<path d="M638 2513 l13 -5 6 6 6 6 -19 -1 -19 -1 13 -5z"/>
<path d="M1270 2516 l0 -4 16 -6 15 -6 -6 10 -6 10 -10 0 -9 0 0 -4z"/>
<path d="M838 2503 l12 -5 13 5 12 5 -25 0 -25 0 13 -5z"/>
<path d="M1188 2503 l13 -5 6 6 6 6 -19 -1 -19 -1 13 -5z"/>
<path d="M3502 2490 l0 -25 5 13 5 12 -5 13 -5 12 0 -25z"/>
<path d="M1469 2483 l-14 -18 16 12 16 13 6 -7 7 -6 0 11 0 12 -9 0 -9 0 -13
-17z"/>
<path d="M718 2453 l13 -5 6 6 6 6 -19 -1 -19 -1 13 -5z"/>
<path d="M895 2450 l6 -10 5 0 4 0 0 10 0 10 -11 0 -10 0 6 -10z"/>
<path d="M958 2433 l12 -5 13 5 12 5 -25 0 -25 0 13 -5z"/>
<path d="M978 2393 l13 -5 6 6 6 6 -19 -1 -19 -1 13 -5z"/>
<path d="M1235 2370 l-6 -10 -21 0 -20 0 -101 -34 -102 -34 -75 -22 -75 -22
-105 -33 -105 -34 -50 -19 -50 -20 -37 -16 -36 -15 -16 -16 -16 -16 0 -18 0
-18 73 -33 72 -33 85 -42 85 -42 110 -41 110 -41 60 -15 60 -15 77 -15 77 -16
25 11 25 12 5 14 6 14 -10 212 -10 212 6 52 7 51 -7 26 -6 26 -15 0 -14 0 -6
-10z m-9 -308 l0 -248 -85 18 -86 18 -100 31 -100 31 -50 23 -50 22 -105 52
-106 51 -12 0 -12 0 0 9 0 10 78 30 78 30 124 36 125 36 130 44 130 44 20 4
20 5 0 1 0 1 1 -248z"/>
<path d="M995 2149 l-50 -9 -70 -17 -70 -16 -7 -11 -8 -11 0 -17 0 -18 60 -30
59 -30 76 -30 76 -30 24 0 24 0 5 8 4 7 7 93 7 92 -12 15 -12 15 -32 -1 -31
-1 -50 -9z m91 -76 l-6 -38 0 -19 0 -18 -31 6 -30 6 -66 29 -66 29 54 11 54
12 40 8 40 9 9 1 9 1 -7 -37z"/>
<path d="M1422 2345 l0 -30 5 18 5 17 -5 13 -5 12 0 -30z"/>
<path d="M1381 2334 l1 -19 5 13 5 13 -6 6 -6 6 1 -19z"/>
<path d="M3481 2210 l0 -15 9 -20 9 -20 0 15 0 15 -9 20 -9 20 0 -15z"/>
<path d="M1398 2110 l-7 -24 4 -5 5 -4 6 5 6 6 -4 24 -3 23 -7 -25z"/>
<path d="M1391 2054 l1 -19 5 13 5 13 -6 6 -6 6 1 -19z"/>
<path d="M1435 2000 l6 -10 17 0 17 0 -15 10 -15 10 -8 0 -8 0 6 -10z"/>
<path d="M3425 1990 l6 -10 5 0 4 0 0 10 0 10 -11 0 -10 0 6 -10z"/>
<path d="M1455 1960 l6 -10 22 0 22 0 -15 10 -15 10 -13 0 -13 0 6 -10z"/>
<path d="M3430 1920 l0 -10 11 0 10 0 -6 10 -6 10 -5 0 -4 0 0 -10z"/>
<path d="M3451 1874 l1 -19 5 13 5 13 -6 6 -6 6 1 -19z"/>
<path d="M810 1766 l0 -4 15 -6 15 -5 0 9 0 10 -15 0 -15 0 0 -4z"/>
<path d="M1400 1760 l0 -5 21 -13 21 -13 6 5 5 6 -12 0 -13 0 5 14 6 15 -20
-2 -19 -1 0 -6z"/>
<path d="M766 1745 l-20 -15 11 0 11 0 12 15 12 15 -3 0 -4 -1 -19 -14z"/>
<path d="M828 1723 l13 -5 6 6 6 6 -19 -1 -19 -1 13 -5z"/>
<path d="M905 1710 l-6 -10 10 0 10 0 6 10 6 10 -10 0 -10 0 -6 -10z"/>
<path d="M1450 1710 l-15 -10 10 0 10 0 15 10 15 10 -10 0 -10 0 -15 -10z"/>
<path d="M630 1690 l15 -10 10 0 10 0 -15 10 -15 10 -10 0 -10 0 15 -10z"/>
<path d="M1120 1690 l0 -10 11 0 10 0 -6 10 -6 10 -5 0 -4 0 0 -10z"/>
<path d="M1513 1685 l0 -15 13 0 13 0 -5 15 -6 15 -7 0 -8 0 0 -15z"/>
<path d="M3406 1665 l-6 -17 1 -11 0 -12 10 24 9 24 -4 4 -4 4 -6 -16z"/>
<path d="M1004 1649 l-6 -11 -32 6 -31 6 15 -10 15 -10 15 0 15 1 19 14 20 15
-11 0 -12 0 -7 -11z"/>
<path d="M3905 1570 l-6 -10 15 6 16 6 0 4 0 4 -9 0 -10 0 -6 -10z"/>
<path d="M1313 1555 l0 -13 14 5 13 5 0 3 0 3 -13 5 -14 5 0 -13z"/>
<path d="M230 1556 l0 -4 16 -6 15 -6 -6 10 -6 10 -10 0 -9 0 0 -4z"/>
<path d="M1228 1553 l13 -5 6 6 6 6 -19 -1 -19 -1 13 -5z"/>
<path d="M220 1531 l0 -10 10 -6 10 -6 0 10 0 10 -10 6 -10 6 0 -10z"/>
<path d="M3426 1525 l-5 -15 9 0 10 0 0 15 0 15 -4 0 -4 0 -6 -15z"/>
<path d="M4355 1520 l-6 -10 10 0 11 0 0 10 0 10 -4 0 -5 0 -6 -10z"/>
<path d="M1420 1500 l-15 -10 10 1 10 0 20 9 20 9 -15 0 -15 1 -15 -10z"/>
<path d="M1478 1483 l12 -5 13 5 12 5 -25 0 -25 0 13 -5z"/>
<path d="M175 1470 l-6 -10 10 0 10 0 6 10 6 10 -10 0 -10 0 -6 -10z"/>
<path d="M1380 1410 l-15 -10 18 0 17 0 0 10 0 10 -2 0 -3 0 -15 -10z"/>
<path d="M155 1380 l6 -10 5 0 4 0 0 10 0 10 -11 0 -10 0 6 -10z"/>
<path d="M3535 1370 l-6 -10 10 0 11 0 0 10 0 10 -4 0 -5 0 -6 -10z"/>
<path d="M170 1310 l0 -10 10 0 10 0 0 10 0 10 -10 0 -10 0 0 -10z"/>
<path d="M138 1263 l13 -5 6 6 6 6 -19 -1 -19 -1 13 -5z"/>
<path d="M4693 852 l17 -19 -7 -8 -8 -8 13 7 13 8 -17 19 -17 19 -5 0 -5 0 16
-18z"/>
<path d="M52 740 l0 -25 5 13 5 12 -5 13 -5 12 0 -25z"/>
<path d="M2875 710 l-6 -10 15 6 15 6 -4 -21 -4 -21 11 -6 11 -7 -8 13 -8 12
24 -7 24 -7 -24 26 -24 26 -8 0 -8 0 -6 -10z"/>
<path d="M65 700 l6 -10 5 0 4 0 0 10 0 10 -11 0 -10 0 6 -10z"/>
<path d="M1910 690 l0 -10 16 0 15 0 -6 10 -6 10 -10 0 -9 0 0 -10z"/>
<path d="M2850 680 l-15 -10 12 0 12 0 6 10 6 10 -3 0 -3 0 -15 -10z"/>
<path d="M2230 665 l13 -15 4 4 5 5 -7 10 -6 11 -11 0 -10 0 12 -15z"/>
<path d="M2584 655 l20 -15 10 0 10 0 -20 15 -19 14 -10 0 -10 0 19 -14z"/>
<path d="M1677 654 l-7 -7 0 -9 0 -9 25 3 26 3 2 10 2 10 -20 3 -21 3 -7 -7z
m40 -10 l-6 -6 -13 5 -13 5 19 1 19 1 -6 -6z"/>
<path d="M3015 650 l-30 -8 5 -2 5 -2 21 -2 20 -2 12 13 13 13 -8 -1 -8 -1
-30 -8z"/>
<path d="M1917 636 l-18 -14 8 -4 8 -5 18 19 17 18 -7 0 -8 -1 -18 -13z"/>
<path d="M1977 643 l-5 -8 24 -1 24 -2 -6 9 -5 9 -14 0 -14 0 -4 -7z"/>
<path d="M2755 640 l-6 -10 15 6 16 6 0 4 0 4 -9 0 -10 0 -6 -10z"/>
<path d="M3075 640 l6 -10 5 0 4 0 0 10 0 10 -11 0 -10 0 6 -10z"/>
<path d="M170 629 l0 -10 10 6 10 6 0 5 0 4 -10 0 -10 0 0 -11z"/>
<path d="M2273 625 l-12 -13 15 -13 14 -12 7 7 6 6 -12 0 -12 0 6 20 6 20 -3
0 -3 -1 -12 -14z"/>
<path d="M2051 620 l-13 -7 23 -6 23 -6 2 2 2 2 -13 12 -12 11 -12 -8z"/>
<path d="M2560 620 l-14 -9 4 -5 5 -4 19 14 20 14 -10 0 -9 0 -15 -10z"/>
<path d="M1849 618 l-1 -3 -3 -18 -3 -17 9 6 9 5 -5 10 -6 9 15 -6 16 -6 -7
-12 -7 -11 18 14 17 14 -13 8 -13 9 -12 0 -13 0 -1 -2z"/>
<path d="M2316 612 l-6 -11 10 -6 10 -6 -6 -11 -6 -10 21 11 21 12 0 6 0 6 -7
-6 -6 -7 -12 17 -12 16 -7 -11z"/>
<path d="M3070 613 l0 -8 -9 -39 -9 -38 8 8 8 9 6 38 7 37 -6 0 -5 0 0 -7z"/>
<path d="M250 595 l0 -11 20 0 20 0 0 11 0 11 -20 0 -20 0 0 -11z"/>
<path d="M2668 603 l13 -5 6 6 6 6 -19 -1 -19 -1 13 -5z"/>
<path d="M2738 603 l13 -5 6 6 6 6 -19 -1 -19 -1 13 -5z"/>
<path d="M2158 593 l13 -5 6 6 6 6 -19 -1 -19 -1 13 -5z"/>
<path d="M2495 590 l-6 -10 10 0 10 0 6 10 6 10 -10 0 -10 0 -6 -10z"/>
<path d="M1768 583 l13 -5 6 6 6 6 -19 -1 -19 -1 13 -5z"/>
<path d="M2366 582 l-5 -8 20 -1 19 -2 0 4 0 3 -15 5 -14 6 -5 -7z"/>
<path d="M2698 583 l13 -5 6 6 6 6 -19 -1 -19 -1 13 -5z"/>
<path d="M2428 553 l13 -5 6 6 6 6 -19 -1 -19 -1 13 -5z"/>
<path d="M2498 553 l13 -5 6 6 6 6 -19 -1 -19 -1 13 -5z"/>
<path d="M3206 543 l-7 -18 12 12 13 13 -6 5 -6 6 -6 -18z"/>
<path d="M2398 538 l10 -10 13 4 13 4 -23 7 -24 6 11 -11z"/>
<path d="M3098 543 l22 -4 18 4 17 5 -40 -1 -40 0 23 -4z"/>
<path d="M3123 503 l17 -5 13 5 12 5 -30 0 -30 0 18 -5z"/>
<path d="M1840 467 l0 -18 53 -52 52 -52 70 -61 70 -62 50 -40 50 -41 75 -70
75 -70 77 0 77 1 37 57 37 56 42 45 43 45 53 61 54 60 26 31 27 30 16 25 17
26 -11 23 -11 24 -489 0 -490 0 0 -18z m910 -48 l0 -6 -52 -60 -53 -59 -45
-54 -45 -54 -23 -20 -24 -21 -45 -67 -46 -68 -6 0 -6 1 -34 29 -34 29 -9 -5
-8 -5 2 11 3 12 -99 90 -99 89 -13 -5 -14 -5 3 8 2 8 -87 77 -88 77 0 4 0 5
410 -2 410 -3 0 -6z"/>
<path d="M2410 377 l-55 -8 -92 3 -93 4 0 -22 0 -22 87 -79 88 -78 13 -12 13
-13 13 0 13 0 28 43 28 42 49 56 48 56 -6 17 -6 16 -22 4 -21 5 -15 -2 -15 -1
-55 -9z m-3 -100 l-35 -42 -9 0 -9 0 -47 41 -47 41 91 1 90 0 -34 -41z"/>
<path d="M323 474 l7 -7 -11 -13 -10 -12 12 -8 12 -7 -7 11 -6 11 16 9 16 9
-18 7 -18 7 7 -7z"/>
<path d="M1500 469 l0 -9 20 0 20 0 0 4 0 4 -20 5 -20 5 0 -9z"/>
<path d="M370 440 l-15 -10 12 0 12 0 6 10 6 10 -3 0 -3 0 -15 -10z"/>
<path d="M3201 434 l1 -19 5 13 5 13 -6 6 -6 6 1 -19z"/>
<path d="M450 431 l0 -10 10 -6 10 -6 0 10 0 10 -10 6 -10 6 0 -10z"/>
<path d="M3352 345 l0 -30 5 18 5 17 -5 13 -5 12 0 -30z"/>
<path d="M1270 340 l0 -10 11 0 10 0 -6 10 -6 10 -5 0 -4 0 0 -10z"/>
<path d="M1310 320 l0 -10 11 0 10 0 -6 10 -6 10 -5 0 -4 0 0 -10z"/>
<path d="M950 289 l0 -10 10 6 10 6 0 5 0 4 -10 0 -10 0 0 -11z"/>
<path d="M990 295 l0 -6 25 -24 24 -25 6 0 7 0 -24 29 -23 30 -7 0 -8 1 0 -5z"/>
<path d="M1288 293 l12 -5 13 5 12 5 -25 0 -25 0 13 -5z"/>
<path d="M545 280 l-6 -10 10 0 11 0 0 10 0 10 -4 0 -5 0 -6 -10z"/>
<path d="M918 223 l13 -5 6 6 6 6 -19 -1 -19 -1 13 -5z"/>
<path d="M750 210 l-15 -10 12 0 12 0 6 10 6 10 -3 0 -3 0 -15 -10z"/>
<path d="M805 200 l-6 -10 15 6 16 6 0 4 0 4 -9 0 -10 0 -6 -10z"/>
<path d="M3453 203 l17 -5 13 5 12 5 -30 0 -30 0 18 -5z"/>
<path d="M3805 70 l-6 -10 10 0 11 0 0 10 0 10 -4 0 -5 0 -6 -10z"/>
</g>
</svg>
