<?xml version="1.0" standalone="no"?>
<!DOCTYPE svg PUBLIC "-//W3C//DTD SVG 20010904//EN"
 "http://www.w3.org/TR/2001/REC-SVG-20010904/DTD/svg10.dtd">
<svg version="1.0" xmlns="http://www.w3.org/2000/svg"
   viewBox="0 0 717.000000 475.000000"
 preserveAspectRatio="xMidYMid meet">
<metadata>
Created by potrace 1.16, written by Peter Selinger 2001-2019
</metadata>
<g transform="translate(0.000000,475.000000) scale(0.100000,-0.100000)"
fill="#000000" stroke="none">
<path d="M566 4740 l10 -10 36 -17 36 -18 142 -135 142 -135 9 3 9 2 -2 -7 -3
-8 216 -212 215 -213 55 -40 54 -41 75 -72 76 -72 72 -68 73 -68 12 4 12 4 8
44 8 44 -11 75 -10 75 -5 218 -4 217 -5 9 -6 9 -10 173 -11 174 -8 8 -8 8
-144 4 -144 5 -165 5 -165 6 -125 4 -125 4 -49 16 -49 15 -111 0 -110 0 10
-10z m334 -130 l0 -9 -15 5 -15 6 0 4 0 4 15 0 15 0 0 -10z m617 -282 l-5 -13
0 25 0 25 5 -12 5 -13 -5 -12z"/>
<path d="M3650 4734 l-65 -16 -60 -2 -60 -3 -69 -13 -69 -13 -81 6 -81 6 -250
-11 -250 -10 -10 1 -10 0 -94 4 -95 4 -28 -7 -27 -8 -38 -3 -38 -3 3 12 2 13
-15 5 -15 6 -15 -12 -15 -12 -2 -42 -1 -41 -4 40 -4 40 -8 8 -7 7 -113 1 -113
0 -7 -7 -6 -7 13 -4 12 -5 0 -23 0 -24 20 -11 20 -11 -1 -17 -1 -17 -5 18 -4
17 -8 0 -7 0 -1 -20 -2 -20 15 0 14 0 0 -20 0 -20 -11 0 -10 0 6 9 5 10 -10 6
-10 6 0 -71 0 -71 -10 6 -10 6 0 -22 0 -22 6 6 7 6 18 -10 19 -10 0 -11 0 -10
-13 10 -12 10 2 -71 2 -72 4 -88 4 -87 -7 -5 -7 -5 5 -25 4 -25 22 0 21 -1
-17 -10 -18 -10 0 -17 0 -17 -10 15 -9 15 3 -188 4 -188 5 -5 4 -5 -5 -44 -5
-45 14 0 14 0 -12 -8 -12 -8 7 -147 7 -147 -5 0 -6 0 -2 -57 -2 -58 -6 -17 -5
-18 -19 0 -18 0 -7 27 -6 27 -9 -14 -8 -14 -18 15 -17 14 -6 -2 -6 -3 0 9 0 9
-8 8 -7 7 0 -11 0 -12 -10 0 -9 0 6 17 6 16 -9 -5 -9 -6 0 23 0 23 12 -10 13
-10 -7 -12 -6 -11 8 8 9 7 28 -27 28 -27 0 11 0 11 -40 33 -41 34 -40 38 -40
37 -9 0 -10 0 0 16 0 16 -15 -6 -15 -5 0 14 0 15 -10 0 -10 0 0 15 0 14 -68
59 -68 58 -128 127 -127 128 -10 -6 -9 -6 -1 13 -1 13 1 8 1 7 -14 0 -14 0 -5
-7 -4 -8 3 11 2 11 -6 9 -7 9 -56 37 -56 36 -26 29 -27 28 -75 78 -75 78 0 8
0 9 -20 5 -20 5 5 14 6 14 -60 56 -59 56 -31 23 -31 23 -6 18 -5 18 -30 17
-29 17 0 13 0 13 -27 17 -28 18 -60 60 -61 60 -32 28 -32 27 -14 0 -14 0 -6
-12 -6 -13 6 22 5 21 -21 7 -20 6 0 10 0 9 -15 0 -14 0 4 13 5 12 -32 26 -33
25 -30 17 -30 17 -30 12 -30 12 -22 2 -23 3 0 -10 0 -9 16 0 15 0 -6 -10 -6
-10 32 -14 32 -13 -12 -7 -11 -7 0 -10 0 -9 20 12 20 12 12 -12 12 -12 -7 -7
-7 -6 -23 -2 -22 -2 3 -6 2 -7 0 -11 0 -10 10 6 10 6 0 -11 0 -12 -37 4 -36 3
-4 -11 -4 -12 13 1 13 0 20 -2 20 -2 -19 -14 -20 -15 32 0 32 0 0 -10 0 -10
-10 0 -10 0 0 -9 0 -9 30 -7 31 -7 12 -19 12 -19 12 0 13 0 0 7 0 7 -37 38
-37 38 6 5 5 6 49 -45 49 -45 -20 -15 -20 -16 18 -11 17 -10 20 -21 20 -22 7
7 7 7 -22 20 -22 21 0 10 0 10 24 -18 25 -18 10 -23 11 -23 35 -20 36 -21 10
-19 10 -19 -14 0 -13 0 -42 40 -42 41 0 -14 0 -15 15 -12 15 -12 0 -29 0 -28
9 -5 9 -6 -6 22 -6 23 19 -18 18 -18 10 10 11 11 22 0 22 0 12 -15 12 -15 -11
0 -11 0 0 13 -1 12 -14 -19 -15 -20 0 -14 0 -14 13 11 14 11 6 -6 6 -6 -6 -14
-5 -14 10 0 10 0 6 13 6 12 -5 -20 -5 -20 20 -12 19 -13 6 11 7 10 14 -12 14
-11 1 18 1 19 5 -13 5 -13 -13 -15 -13 -16 20 4 19 3 -2 -12 -3 -13 41 -6 41
-7 -6 -31 -6 -31 10 15 10 15 0 -20 0 -20 11 15 11 15 -5 -20 -5 -20 -7 -18
-7 -17 15 6 15 5 7 -20 6 -21 15 0 15 0 -6 -10 -6 -10 16 0 16 0 -6 10 -6 10
10 0 11 0 0 -15 0 -15 15 0 15 0 0 -15 0 -15 8 0 9 0 13 -25 13 -25 19 -6 18
-5 0 -15 0 -15 9 6 10 6 11 -21 11 -21 12 7 12 7 -7 -8 -7 -7 14 -14 14 -14
11 0 11 0 -5 -9 -6 -9 28 -17 27 -18 17 -17 17 -18 -7 -6 -6 -7 14 6 15 5 20
-27 20 -28 30 -29 30 -29 -3 -10 -3 -10 22 -23 22 -23 8 5 9 5 0 -15 0 -15 15
-8 14 -8 67 -60 67 -60 21 -22 20 -23 13 0 13 0 0 -13 0 -14 34 -31 34 -31 5
-13 5 -13 16 20 17 20 -3 -21 -3 -20 38 -39 37 -38 0 16 0 17 9 0 9 0 -5 -20
-5 -20 12 -15 12 -15 9 6 9 5 0 -11 0 -12 17 6 17 7 -17 -19 -17 -18 11 -11
11 -11 17 6 16 6 -14 -17 -13 -17 10 0 11 0 6 10 6 10 -10 19 -11 19 20 -5 21
-5 -7 -22 -6 -21 -10 -12 -10 -13 10 0 10 0 4 11 3 10 30 -11 30 -11 -17 -10
-18 -10 0 -12 0 -13 59 -58 60 -59 33 0 33 0 -18 -4 -17 -5 7 -11 7 -12 -20
14 -19 15 23 -25 23 -24 9 15 10 15 0 -27 0 -28 9 0 9 0 84 -85 83 -85 13 0
12 0 0 25 0 25 -10 0 -10 0 0 16 0 15 10 -6 10 -6 -4 54 -4 54 9 14 9 14 0
-152 0 -153 -60 -2 -60 -2 -32 0 -33 -1 -1 90 -1 90 -7 24 -8 24 -87 -8 -86
-7 -38 -4 -37 -3 -9 -5 -9 -6 -6 16 -6 16 0 35 0 36 -12 38 -11 39 -66 -1 -66
0 -48 -8 -48 -8 -6 10 -7 11 -3 80 -3 81 0 21 0 21 -58 -8 -57 -7 -62 -6 -62
-6 -15 16 -16 15 0 91 0 90 -96 -7 -96 -8 -9 14 -9 14 0 92 0 92 -12 8 -13 8
-55 2 -55 1 -73 1 -73 1 5 121 5 120 -6 15 -5 14 -104 0 -104 0 0 116 0 116
-107 -4 -108 -3 -6 60 -7 60 -1 58 -1 58 -82 -2 -83 -2 -3 106 -3 106 -17 5
-17 5 -65 -7 -65 -7 2 -12 2 -11 1 -195 1 -195 18 -18 18 -19 64 -52 64 -51
61 -49 61 -48 103 -95 104 -95 52 -54 52 -54 12 8 13 8 -7 -11 -7 -11 53 -41
53 -42 20 -16 20 -17 35 -25 35 -24 45 -46 45 -45 78 -59 78 -58 118 -112 119
-111 69 -61 68 -61 60 -48 60 -47 87 -89 86 -89 -201 -1 -202 -2 -73 1 -73 1
-287 -15 -287 -15 -105 -5 -105 -5 -186 -2 -186 -2 -16 -14 -17 -13 0 -24 0
-23 29 9 30 8 5 -14 5 -14 43 -28 43 -27 31 -30 31 -30 29 -24 29 -24 75 -67
75 -66 85 -65 85 -65 24 -19 24 -20 76 -65 76 -65 72 -58 71 -58 174 -175 173
-175 169 -137 169 -137 11 -10 11 -10 85 -70 84 -70 51 -45 50 -45 120 -120
121 -120 18 -28 18 -29 35 -39 35 -39 29 0 29 0 0 -80 0 -80 -120 0 -120 0 -2
38 -2 37 2 29 3 30 -12 54 -11 54 -129 -7 -129 -7 -1 4 -1 3 -7 104 -6 103
-132 -1 -131 -2 -8 13 -8 13 1 105 2 105 -126 -9 -126 -9 -12 17 -13 17 -8 77
-8 77 -2 30 -2 30 -1 31 -1 31 -37 -3 -38 -3 -66 -6 -67 -7 -6 10 -5 9 -18
123 -17 122 -117 -7 -118 -7 -7 27 -7 27 7 88 6 87 -6 17 -6 16 -53 0 -52 0
-91 6 -92 7 0 89 0 89 -14 5 -14 5 -72 2 -73 2 -12 50 -12 50 -13 64 -13 63
-63 -4 -63 -4 -16 41 -15 41 -3 42 -2 42 -15 -2 -15 -3 0 -440 0 -440 3 -182
4 -183 14 0 14 0 6 25 6 25 41 35 41 35 12 0 12 0 4 8 3 7 60 19 60 19 70 5
70 4 62 -16 62 -15 73 -37 73 -36 65 -38 65 -38 50 -49 50 -48 32 -27 31 -27
40 -53 40 -53 30 -95 31 -95 20 -75 20 -75 4 -75 5 -75 -11 -52 -11 -53 -22 0
-21 0 -60 6 -60 7 8 41 8 41 -6 145 -6 145 -19 75 -18 75 -27 69 -26 69 -48
49 -48 49 -63 28 -63 29 -63 21 -64 20 -101 7 -102 6 -60 -37 -60 -36 -38 -42
-39 -42 -20 -45 -21 -45 -1 -150 -1 -150 22 -45 21 -45 26 -28 25 -27 11 0 10
0 0 -12 0 -13 35 -24 35 -24 72 -23 72 -24 51 0 50 0 -15 10 -15 10 30 -5 30
-5 48 30 48 31 -7 11 -7 11 10 -6 10 -7 15 18 16 17 22 44 22 44 5 72 6 72
-26 54 -26 54 -19 22 -20 23 -76 16 -76 17 -40 -12 -41 -12 -29 -31 -30 -31
-1 -31 -1 -31 -3 -17 -3 -16 20 -22 20 -21 21 -8 22 -8 48 -7 48 -7 6 -15 5
-14 -6 -25 -6 -24 -19 -10 -18 -10 -57 16 -57 16 -29 27 -28 26 -11 40 -11 39
-5 50 -6 50 28 49 28 50 45 24 45 24 81 -6 81 -6 43 -15 43 -15 15 -13 15 -12
32 -50 32 -50 18 -70 17 -70 -5 -62 -6 -63 -27 -75 -27 -76 -31 -23 -31 -23
-30 -11 -30 -11 -225 -7 -225 -8 -93 2 -92 2 0 -35 0 -34 33 6 32 7 485 -1
485 -2 190 -5 190 -5 265 -5 265 -4 18 16 18 16 8 -12 7 -12 308 3 308 2 -6
35 -6 35 0 11 0 12 -62 6 -63 6 -51 6 -52 6 -5 31 -5 32 0 495 0 495 -11 78
-11 79 1 299 0 299 9 0 10 0 77 -72 76 -73 41 -41 41 -40 106 -110 106 -109
59 -65 59 -65 15 0 15 0 0 -15 0 -15 59 -57 59 -57 10 6 10 6 -6 -10 -7 -11
33 -25 32 -26 50 -45 50 -46 13 5 13 5 -5 -9 -5 -8 32 -32 32 -31 102 -98 101
-97 45 -38 46 -39 163 -162 163 -163 165 -171 165 -172 12 -12 12 -13 18 -15
17 -15 156 -3 155 -2 15 9 15 10 -1 61 -1 61 -22 29 -21 29 0 123 0 124 13 19
13 20 14 35 13 35 35 50 35 50 46 48 45 47 9 0 9 0 47 33 46 33 40 16 40 17
28 6 28 6 82 -11 82 -11 64 -32 63 -32 41 -45 40 -45 20 -44 20 -45 -6 -90 -5
-91 -22 -55 -21 -55 -18 -21 -17 -22 -55 -27 -54 -28 -60 -4 -60 -4 -55 28
-55 29 -32 54 -33 54 0 53 0 52 17 34 18 34 23 17 24 18 39 5 39 6 0 -30 0
-30 -36 -46 -37 -47 6 -36 6 -37 22 -23 22 -23 42 -7 43 -6 31 7 31 7 32 26
31 26 18 41 19 40 0 51 0 50 -39 60 -39 59 -31 28 -31 27 -43 17 -42 18 -60
-1 -60 0 -65 -38 -65 -38 -45 -66 -45 -67 -17 -51 -17 -50 10 -70 10 -69 3
-20 4 -20 7 -37 7 -36 19 -21 19 -20 0 -9 0 -9 28 -24 27 -25 30 -22 30 -22
50 -15 50 -15 81 0 82 0 53 16 54 16 42 15 43 14 9 -6 10 -6 54 36 55 36 30
38 31 38 30 59 29 59 19 55 18 55 -1 120 0 120 -36 70 -35 70 -64 65 -64 65
-35 27 -35 26 -39 22 -40 22 -65 23 -66 24 -62 10 -62 10 -58 -6 -58 -5 -65
-19 -65 -20 -50 -22 -50 -22 -12 -11 -12 -12 7 -7 7 -8 -11 6 -11 7 -25 -23
-25 -22 -36 -32 -36 -33 -3 0 -3 0 3 97 4 98 51 41 52 41 34 18 35 17 135 13
136 13 80 -9 80 -10 34 -9 33 -9 72 -42 71 -42 5 -7 5 -7 35 -18 34 -18 20
-25 19 -24 27 -12 27 -11 44 -40 44 -40 40 -50 40 -50 8 -3 7 -4 0 -14 0 -14
8 0 7 0 13 -32 14 -33 13 -30 14 -30 11 -102 11 -102 -11 -63 -12 -63 -26 -69
-27 -69 -35 -37 -35 -38 -48 -17 -47 -17 -11 -20 -11 -21 13 -8 14 -9 40 6 40
5 25 9 25 8 165 13 165 13 253 -1 252 -1 14 14 15 14 4 0 5 0 5 -21 6 -22 23
8 23 8 120 7 120 6 18 8 17 8 0 27 0 26 -8 12 -7 11 -78 0 -78 1 -29 6 -29 6
1 57 1 57 -5 40 -5 40 -8 17 -7 17 -21 7 -22 7 -76 -2 -77 -2 -36 6 -36 7 0
103 0 103 -34 6 -33 6 -108 -15 -108 -15 -7 0 -7 0 -13 68 -13 67 -1 45 -1 45
-116 -4 -116 -3 -16 17 -17 16 -1 57 -2 57 2 33 3 32 -16 6 -15 6 -11 -7 -11
-7 -47 -3 -47 -3 -27 -7 -28 -7 0 22 0 23 -10 36 -9 36 -7 99 -6 98 -38 -6
-38 -6 -31 6 -31 7 0 46 0 46 -15 69 -15 70 -10 10 -10 10 -84 -3 -83 -3 -7
32 -6 33 0 31 0 31 -11 38 -10 37 -73 0 -73 0 -7 43 -7 42 -10 38 -10 37 -79
0 -80 0 0 8 -1 7 -8 73 -9 73 -7 7 -7 7 -69 0 -70 0 2 90 2 90 -33 6 -33 7
-14 -5 -13 -5 0 66 0 66 45 0 45 0 0 -10 0 -10 38 -19 37 -19 110 -104 110
-103 130 -125 129 -125 231 -229 230 -229 85 -71 85 -70 140 -132 140 -132 80
-68 80 -68 200 -198 200 -197 106 -107 106 -107 19 7 18 7 -14 9 -15 10 15 0
15 0 0 128 -1 127 7 160 7 160 6 103 7 103 9 42 9 42 14 68 14 68 2 72 2 72 9
55 9 55 11 195 10 195 1 240 0 241 -13 39 -13 40 -112 -4 -112 -3 -3 68 -3 69
-29 14 -30 14 -72 -1 -71 -1 4 84 5 83 -10 18 -10 19 -94 1 -93 1 -22 7 -23 7
2 60 2 60 8 5 8 5 0 23 0 23 -6 6 -6 6 -24 -9 -24 -10 -81 12 -81 11 -9 24 -9
24 0 75 0 74 -7 1 -8 0 -25 5 -25 4 -80 21 -80 21 -22 5 -23 5 0 77 0 76 -8
-12 -8 -12 -62 9 -62 9 -50 16 -49 16 6 62 5 62 -23 3 -24 3 -95 7 -95 7 3 82
3 83 -10 17 -10 18 -1 -10 0 -10 -97 6 -98 7 -19 1 -18 1 5 94 6 95 -12 4 -12
5 -93 -6 -94 -5 3 99 3 99 -34 2 -35 3 -45 14 -45 14 3 84 3 85 -16 13 -15 13
-63 -7 -62 -7 -25 -2 -25 -2 -3 85 -2 85 -5 23 -5 22 -25 0 -24 0 1 -267 1
-268 -54 -84 -54 -85 -55 -59 -55 -60 -78 -58 -78 -59 -42 -11 -42 -11 -105 5
-105 5 -84 22 -85 21 -26 14 -27 14 -38 42 -38 42 -37 81 -37 81 -18 67 -18
68 6 73 6 73 17 51 17 52 22 21 22 21 94 33 95 34 90 7 91 7 69 -17 69 -17 21
-13 21 -13 40 -41 40 -41 18 -59 18 -59 -5 -60 -4 -60 -28 -37 -28 -36 -46
-34 -47 -35 -55 0 -55 0 -35 21 -35 21 -27 26 -28 26 0 33 0 34 25 24 24 25
35 0 34 0 21 -35 20 -35 33 -20 33 -20 17 0 16 0 31 26 31 26 0 49 0 48 -30
34 -30 35 -58 28 -57 29 -105 0 -105 0 -45 -25 -44 -24 -37 -37 -38 -38 -10
-38 -11 -38 0 -35 0 -35 14 -50 13 -50 23 -40 23 -40 33 -40 32 -40 54 -33 54
-32 51 -13 50 -13 77 7 78 8 94 36 94 37 14 14 15 14 5 0 6 0 35 39 36 39 22
34 22 34 17 29 16 30 7 55 7 55 -11 79 -11 78 -36 61 -35 62 -33 45 -33 45
-29 20 -29 20 -37 28 -36 28 -63 10 -64 10 -50 11 -50 11 -170 3 -170 4 -65
-16z m507 -72 l122 -22 27 -23 28 -22 39 -40 39 -40 40 -67 40 -67 10 -76 10
-76 -6 -43 -7 -43 -34 -51 -34 -52 7 0 6 0 -44 -41 -45 -40 -71 -35 -71 -35
-80 -16 -80 -17 -54 12 -54 13 -40 23 -40 23 3 12 2 12 -9 -5 -9 -6 -12 15
-12 14 -36 58 -37 58 0 87 0 87 30 31 30 32 40 21 40 20 78 5 77 5 64 -32 64
-31 11 -32 11 -31 -15 -24 -15 -23 -10 0 -9 0 -32 48 -33 47 -10 7 -11 8 -54
0 -55 0 -33 -22 -33 -23 -10 -29 -10 -30 6 -35 7 -36 9 -18 10 -19 31 -29 32
-29 45 -22 44 -22 66 0 65 -1 56 37 56 37 31 35 31 35 10 38 11 38 -1 45 0 45
-22 67 -22 67 -29 35 -28 36 -47 33 -46 34 -60 19 -60 19 -111 -3 -111 -2 -84
-30 -84 -30 -45 -23 -45 -22 -22 -33 -22 -33 -11 -55 -12 -56 -1 -76 0 -77 12
-55 13 -55 48 -100 48 -100 49 -49 48 -48 25 -10 25 -10 90 -26 90 -25 140 0
140 -1 43 17 43 17 55 46 54 46 -7 11 -6 10 12 -8 13 -7 65 63 65 64 26 50 27
50 5 -130 5 -130 -8 -33 -8 -34 -57 -53 -57 -53 -45 -36 -45 -36 -17 0 -16 0
-4 -8 -3 -8 -46 -21 -46 -22 -60 -15 -61 -16 -66 0 -66 0 -72 11 -73 11 -24
12 -25 11 -110 72 -111 73 -10 8 -10 8 -42 29 -41 30 -32 47 -32 46 -24 49
-23 48 -1 13 0 13 -10 -6 -10 -6 0 21 0 21 -29 122 -29 122 -6 50 -6 50 14 52
14 52 55 84 54 84 64 30 64 31 60 16 60 16 35 4 35 4 130 -2 130 -2 122 -22z
m-2088 -12 l-11 -30 -9 6 -9 5 3 7 4 7 6 18 6 17 10 0 10 0 -10 -30z m61 11
l0 -20 -10 -6 -10 -6 0 25 0 26 10 0 10 0 0 -19z m60 4 l13 -15 -7 -7 -7 -7
-16 10 -17 10 -4 12 -4 12 15 0 15 0 12 -15z m55 -5 l6 -10 -23 0 -23 0 15 10
15 10 2 0 2 0 6 -10z m-1924 -80 l-7 -35 -8 22 -7 22 -15 -6 -14 -5 0 11 0 11
25 0 25 0 0 10 0 10 -10 0 -10 0 0 12 0 12 14 -14 15 -15 -8 -35z m-37 41 l6
-9 -26 -6 -26 -7 -6 6 -5 5 16 0 17 0 0 10 0 10 9 0 10 0 5 -9z m1928 -31 l-4
-32 -10 10 -9 9 7 26 6 27 7 -5 8 -4 -5 -31z m176 -23 l47 -43 60 -39 60 -39
5 -5 5 -6 90 -81 90 -81 110 -83 110 -84 5 -6 5 -5 37 -27 36 -28 14 -13 13
-13 50 -34 50 -34 230 -229 230 -230 65 -42 65 -42 30 -33 30 -32 50 -36 50
-37 17 -15 17 -15 96 -80 96 -80 57 -60 57 -60 41 -40 40 -40 120 -116 120
-116 22 -7 22 -7 0 -70 0 -69 -87 0 -88 0 -37 -6 -38 -7 1 39 2 39 -8 72 -8
71 -26 -9 -25 -10 -88 7 -88 7 0 86 0 86 -6 21 -5 20 -62 0 -62 1 -46 7 -46 7
-5 125 -5 124 -5 5 -4 4 -95 -11 -94 -11 -39 -1 -39 -1 -13 50 -14 50 0 48 0
47 -12 1 -13 1 -10 -2 -10 -2 -109 -2 -108 -2 6 91 7 92 -12 25 -11 26 -99 -5
-99 -6 0 72 0 71 -17 1 -18 0 -95 2 -95 2 0 120 0 119 -125 16 -125 15 -5 110
-5 110 -25 -4 -25 -5 -65 0 -65 -1 -10 97 -11 97 -8 8 -7 8 -52 5 -52 5 -3 98
-3 97 11 0 11 0 47 -43z m-256 1 l-12 -12 0 24 0 24 12 -12 12 -12 -12 -12z
m121 -3 l-5 -16 -5 5 -5 5 7 10 6 11 4 0 4 0 -6 -15z m-1868 -6 l7 -10 -4 -5
-4 -4 -20 15 -19 14 17 1 17 0 6 -11z m72 -35 l-6 -6 -13 5 -13 5 19 1 19 1
-6 -6z m-58 -44 l-13 -9 -9 6 -8 5 18 13 18 14 4 -11 3 -10 -13 -8z m129 -35
l24 -7 -5 -4 -4 -5 -27 10 -26 11 0 12 0 13 8 -11 7 -11 23 -8z m1602 -61 l0
-24 -15 0 -15 0 0 23 0 24 6 6 7 6 8 -5 9 -5 0 -25z m-1563 -4 l17 -20 8 0 7
0 -6 18 -7 17 17 -14 17 -14 -12 -16 -12 -16 -3 -4 -3 -4 -30 33 -30 34 0 3 0
3 10 0 10 0 17 -20z m1672 -72 l0 -23 -9 -20 -9 -20 0 43 -1 42 10 0 10 0 -1
-22z m-1479 -78 l0 -10 -9 0 -10 0 -6 10 -6 10 15 0 16 0 0 -10z m1307 -22
l-5 -13 -1 19 -1 19 6 -6 6 -6 -5 -13z m160 -45 l-4 -28 0 50 0 50 4 -22 4
-23 -4 -27z m-102 47 l6 -10 -10 0 -11 0 0 10 0 10 4 0 5 0 6 -10z m-1508 -47
l-17 -17 -7 7 -7 7 20 14 19 14 4 -4 5 -4 -17 -17z m148 8 l5 -10 -10 -6 -10
-6 0 15 0 16 4 0 5 0 6 -9z m55 -12 l0 -9 -10 0 -10 0 0 16 0 15 10 -6 10 -6
0 -10z m1447 -11 l-5 -13 0 25 0 25 5 -12 5 -13 -5 -12z m2488 -30 l20 -17 37
-28 37 -28 68 -56 68 -57 22 -18 21 -19 78 -60 77 -60 61 -47 61 -48 114 -92
114 -93 81 -77 81 -76 60 -40 60 -41 70 -64 70 -63 111 -95 111 -94 53 -40 53
-40 54 -47 53 -48 8 0 7 0 52 -47 52 -48 63 -60 63 -60 -155 -6 -155 -6 -505
-16 -505 -16 -280 -11 -280 -11 -32 -5 -33 -5 4 788 5 788 0 54 1 53 17 -13
17 -14 21 -17z m-4047 10 l12 -12 0 -15 0 -14 -20 18 -20 18 0 9 0 8 8 0 8 0
12 -12z m1559 -70 l-4 -23 0 45 0 45 4 -22 4 -23 -4 -22z m-1370 26 l3 -19 -7
15 -6 15 -11 8 -11 9 15 -5 15 -4 2 -19z m1316 10 l6 -6 -6 -14 -5 -14 -9 0
-9 0 0 20 0 20 8 0 9 0 6 -6z m-53 -44 l0 -10 -15 0 -15 0 0 10 0 10 15 0 15
0 0 -10z m-1231 -26 l5 -4 -12 -12 -12 -12 -22 22 -22 21 29 -5 30 -5 4 -5z
m1161 -4 l0 -10 -17 0 -18 0 15 10 15 10 3 0 2 0 0 -10z m-1253 -32 l-5 -13
-1 19 -1 19 6 -6 6 -6 -5 -13z m-2 -46 l-5 -6 -13 13 -12 12 18 -7 18 -6 -6
-6z m50 -2 l6 -10 -10 0 -11 0 0 10 0 10 4 0 5 0 6 -10z m1242 -32 l-5 -13 -1
19 -1 19 6 -6 6 -6 -5 -13z m150 -30 l-4 -23 0 40 -1 40 5 -17 4 -18 -4 -22z
m-81 5 l-6 -6 -6 6 -6 6 8 12 8 13 4 -13 4 -12 -6 -6z m-116 1 l0 -15 -10 6
-10 6 0 10 0 9 10 0 10 0 0 -16z m-1005 -34 l6 -10 -10 0 -11 0 0 10 0 10 4 0
5 0 6 -10z m40 0 l6 -10 -10 0 -11 0 0 10 0 10 4 0 5 0 6 -10z m45 -55 l0 -15
15 0 15 0 0 -11 0 -11 14 5 14 6 5 -20 5 -19 14 0 15 0 13 -25 14 -25 -12 -12
-12 -12 0 22 0 22 -10 0 -10 0 0 -17 0 -18 -17 35 -17 35 -12 13 -13 12 -15 0
-16 0 0 10 0 10 -16 0 -16 0 6 16 6 16 -20 -5 -20 -5 0 8 0 9 18 4 17 4 18 -9
17 -9 0 -14z m924 -25 l13 10 -4 -66 -4 -66 -10 -21 -9 -22 6 41 5 42 -10 7
-11 6 0 12 0 12 10 -15 10 -15 0 23 0 23 -10 -6 -10 -6 1 43 2 43 4 -28 4 -28
13 11z m116 15 l0 -15 -10 0 -9 0 5 15 6 15 4 0 4 0 0 -15z m87 -32 l-5 -18 0
30 0 30 5 -12 5 -13 -5 -17z m-123 -205 l5 -157 -8 -6 -9 -5 -7 65 -7 64 6 9
5 8 -8 80 -7 79 4 45 5 45 8 -35 7 -35 6 -157z m25 127 l-1 -40 -8 30 -8 30
-1 25 -1 25 10 -15 10 -15 -1 -40z m-851 -25 l12 -19 -23 8 -22 8 -3 17 -3 16
13 -5 13 -5 13 -20z m929 8 l-5 -13 -1 19 -1 19 6 -6 6 -6 -5 -13z m-937 -68
l0 -10 -4 0 -5 0 -6 10 -6 10 10 0 11 0 0 -10z m750 -37 l-12 -18 6 18 6 19 1
16 1 17 5 -17 4 -17 -11 -18z m-770 10 l30 -26 0 -9 0 -8 -11 0 -11 0 -28 29
-29 29 6 6 6 6 4 0 3 0 30 -27z m80 17 l0 -10 -4 0 -5 0 -6 10 -6 10 10 0 11
0 0 -10z m37 -15 l0 -14 -9 5 -8 5 0 10 0 9 8 0 9 0 0 -15z m-57 -10 l0 -15
-4 0 -4 0 -6 15 -5 15 9 0 10 0 0 -15z m96 -26 l6 -11 -12 -11 -13 -12 8 14 8
13 -14 9 -14 9 12 0 12 0 7 -11z m811 -9 l-5 -20 8 -5 8 -5 1 -195 2 -195 -5
0 -5 0 -12 21 -11 21 10 -6 10 -6 -1 100 0 101 -14 -5 -13 -5 0 11 0 12 -12
-12 -12 -12 10 -39 10 -38 -8 -23 -8 -23 -6 6 -5 5 -3 87 -2 87 28 -6 28 -5 0
7 0 8 -34 2 -34 3 -5 -18 -5 -18 -1 48 -1 48 10 -6 10 -6 0 -20 0 -19 16 0 15
0 -6 20 -6 20 10 17 10 18 1 -18 0 -18 11 7 11 7 -6 37 -6 37 7 6 6 7 5 0 4 0
-5 -20z m-907 -34 l0 -14 -17 3 -18 3 -10 2 -10 1 20 9 20 9 8 0 7 1 0 -14z
m46 -8 l-17 -9 -12 5 -12 4 18 1 17 1 0 11 0 10 11 -7 12 -7 -17 -9z m130 -25
l7 -18 -2 -12 -2 -13 23 -1 23 -1 6 0 6 1 29 -30 29 -30 -25 9 -25 9 0 11 0
10 -7 8 -8 7 0 -11 0 -12 -32 19 -33 19 3 12 3 12 -12 14 -11 14 10 0 10 0 8
-17z m-89 1 l-6 -6 -13 5 -13 5 19 1 19 1 -6 -6z m633 -56 l0 -51 -7 7 -8 8 0
48 0 48 7 -4 8 -5 0 -51z m630 37 l55 -14 75 -21 75 -22 45 -21 45 -21 35 -28
35 -28 11 0 12 0 72 -67 72 -68 13 -7 13 -8 22 -57 23 -58 10 -12 9 -12 5 -59
5 -58 -11 -88 -12 -89 -21 -44 -21 -45 -14 -5 -13 -5 0 -10 0 -9 -22 -22 -23
-22 -65 -41 -65 -41 -35 -11 -35 -10 -333 -6 -333 -6 4 208 4 207 11 50 10 51
23 39 23 40 30 29 31 28 35 15 35 15 10 2 10 2 14 8 14 9 66 1 66 2 49 -8 49
-7 6 -10 6 -9 42 -12 42 -13 -5 -8 -5 -9 16 0 16 0 5 -15 6 -15 14 0 13 0 -5
-15 -6 -15 11 0 11 0 0 -17 1 -18 14 -19 15 -20 0 -38 0 -37 15 5 15 6 0 -8 0
-9 -11 -45 -10 -45 -31 -32 -31 -32 -49 -21 -50 -22 -52 7 -51 7 -21 9 -22 8
-35 31 -35 30 -12 50 -12 50 26 35 27 35 25 0 25 0 -7 -49 -6 -50 25 -25 26
-26 19 0 20 0 33 14 34 14 22 24 22 23 10 28 11 28 0 30 0 30 -12 22 -11 22
-24 22 -24 23 -20 10 -20 11 -74 13 -75 13 -51 -8 -51 -8 -43 -33 -43 -33 -21
-45 -20 -45 -12 -48 -12 -48 6 -57 5 -57 25 -44 25 -44 31 -32 30 -33 52 -26
51 -27 54 -9 54 -9 113 19 114 19 50 26 51 25 11 0 12 0 39 40 40 41 30 64 30
64 0 29 0 29 -14 94 -14 94 -8 20 -7 20 -51 60 -51 60 -37 33 -37 34 -69 33
-69 33 -71 16 -71 16 -55 0 -56 0 -97 -31 -98 -31 -40 -32 -40 -31 -3 -7 -4
-8 -9 0 -9 0 0 80 0 80 14 0 15 0 14 21 15 20 68 24 69 24 60 0 60 0 55 -14z
m-1266 -42 l7 -16 -12 -11 -12 -11 7 13 8 13 -12 14 -12 15 10 0 10 0 6 -17z
m56 7 l14 -9 -7 -7 -7 -8 -17 17 -17 17 9 0 10 0 15 -10z m40 -29 l0 -10 -10
-6 -10 -6 0 15 0 16 10 0 10 0 0 -9z m606 -48 l-6 -6 -6 6 -6 6 7 18 8 18 4
-18 5 -19 -6 -5z m-576 11 l0 -15 -10 6 -10 6 0 10 0 9 10 0 10 0 0 -16z m617
-6 l-5 -13 -1 19 -1 19 6 -6 6 -6 -5 -13z m-110 -20 l-5 -13 0 25 0 25 5 -12
5 -13 -5 -12z m-400 -20 l-5 -13 0 25 0 25 5 -12 5 -13 -5 -12z m-157 12 l0
-10 -4 0 -5 0 -6 10 -6 10 10 0 11 0 0 -10z m195 0 l6 -10 -15 0 -16 0 0 10 0
10 9 0 10 0 6 -10z m535 -6 l0 -15 -10 6 -10 6 0 10 0 9 10 0 10 0 0 -16z
m-96 -36 l-5 -18 18 0 18 0 -15 -10 -14 -9 -8 12 -8 12 0 30 0 30 10 -15 10
-15 -6 -17z m-604 16 l0 -15 -10 6 -10 6 5 10 6 9 5 0 4 0 0 -16z m1302 -20
l58 -15 37 -24 38 -25 12 -10 12 -10 10 0 10 0 70 -80 71 -80 0 -8 1 -7 13
-103 14 -104 -11 -31 -11 -32 -26 -45 -26 -45 -75 -37 -75 -38 -104 -16 -104
-15 -71 16 -71 15 -51 45 -51 44 -27 53 -27 52 6 55 6 56 17 48 17 47 7 0 7 0
31 25 30 26 48 6 49 5 59 -12 60 -12 32 -21 33 -22 10 -31 11 -31 -10 -25 -9
-25 -27 -17 -27 -18 -24 11 -24 11 0 18 0 18 11 11 12 12 -7 26 -7 26 -25 9
-25 10 -23 0 -22 0 -42 -36 -42 -35 -11 -40 -12 -39 12 -68 12 -67 47 -32 47
-32 65 -15 65 -15 50 13 50 13 31 16 30 16 33 33 33 33 15 30 16 30 11 7 11 7
0 88 0 88 -28 47 -27 46 -35 33 -34 33 -40 26 -39 27 -61 13 -62 13 -102 -5
-103 -6 -39 -21 -40 -21 -12 0 -11 0 -56 -51 -55 -50 -6 -20 -6 -19 -11 0 -10
0 7 43 6 42 10 32 10 33 41 34 40 34 71 27 72 27 50 7 50 7 55 -9 55 -8 57
-15z m-1175 -6 l-5 -13 -1 19 -1 19 6 -6 6 -6 -5 -13z m28 12 l6 -10 -10 0
-11 0 0 10 0 10 4 0 5 0 6 -10z m-121 -19 l20 -8 -10 -5 -9 -6 -20 14 -19 14
10 -1 9 0 19 -8z m232 -41 l14 0 0 -11 0 -11 -16 6 -16 6 -4 0 -4 0 1 18 1 17
5 -12 5 -13 14 0z m411 -102 l-4 -33 0 60 0 60 4 -27 4 -28 -4 -32z m-377 57
l0 -15 -4 0 -4 0 -6 15 -5 15 9 0 10 0 0 -15z m328 -37 l2 42 10 0 11 0 -1
-62 -1 -63 7 -35 7 -35 12 -20 13 -20 -8 -20 -9 -20 0 15 -1 15 -16 30 -15 30
4 17 5 18 -9 -6 -9 -5 0 30 0 31 -11 0 -10 0 6 -44 7 -44 -27 5 -26 6 7 16 6
16 9 25 9 25 7 50 7 50 7 -45 6 -45 1 43z m-423 22 l-6 -10 -12 0 -12 0 15 10
15 10 3 0 3 0 -6 -10z m-55 -15 l12 -15 -16 0 -16 0 0 15 0 15 4 0 4 0 12 -15z
m569 -72 l0 -8 -9 -20 -9 -20 0 28 -1 27 10 0 10 0 -1 -7z m-339 -28 l0 -15
-4 0 -4 0 -6 15 -5 15 9 0 10 0 0 -15z m307 -7 l-5 -13 -1 19 -1 19 6 -6 6 -6
-5 -13z m-257 -49 l0 -9 -9 0 -9 0 -5 21 -5 20 14 -12 14 -11 0 -9z m286 -77
l-6 -5 -6 6 -6 6 8 48 9 48 3 -49 3 -48 -5 -6z m-321 -21 l5 -10 -9 -6 -10 -6
-20 17 -20 18 5 8 5 8 19 -10 19 -10 6 -9z m1105 -2 l0 -9 -10 0 -10 0 0 16 0
15 10 -6 10 -6 0 -10z m-862 -37 l12 12 0 -22 0 -23 15 -5 15 -6 0 -24 0 -24
-10 0 -10 0 0 10 0 10 -20 0 -21 0 2 13 1 12 -7 23 -7 23 -19 -6 -19 -6 0 21
0 21 28 -20 29 -20 11 11z m-233 -3 l7 -10 -3 -4 -4 -3 -13 14 -13 14 10 0 10
0 6 -11z m35 1 l0 -10 -4 0 -5 0 -6 10 -6 10 10 0 11 0 0 -10z m290 -77 l0
-28 -10 15 -10 15 0 13 0 12 10 0 10 0 0 -27z m-33 -55 l-5 -13 0 25 0 25 5
-12 5 -13 -5 -12z m-63 -86 l6 -13 -25 18 -24 18 -5 13 -6 13 25 -18 24 -18 5
-13z m1796 23 l12 -15 -8 0 -9 1 -19 14 -20 15 16 0 16 0 12 -15z m3100 -151
l4 -5 0 -222 0 -222 -8 -135 -7 -135 -9 -130 -9 -130 -10 -117 -10 -118 -37
-32 -38 -33 -24 -23 -25 -22 -9 0 -9 0 -19 -18 -19 -17 -88 -25 -88 -25 -90 1
-90 1 -65 21 -65 20 -55 26 -55 26 -50 34 -50 35 -25 20 -25 20 -35 28 -35 28
-18 20 -19 20 -37 40 -37 40 -26 35 -26 35 -32 63 -32 63 -24 72 -25 72 -29
87 -28 87 -8 103 -8 103 2 55 3 55 11 50 11 50 24 43 25 42 51 1 52 1 126 6
126 7 -4 -12 -5 -12 -19 -6 -18 -6 -55 -60 -54 -60 -26 -70 -26 -69 -20 -105
-21 -104 10 -89 10 -89 25 -79 26 -80 60 -93 61 -93 56 -59 57 -60 35 -21 36
-21 36 -24 36 -24 87 -29 88 -30 45 0 45 0 62 16 61 16 58 30 57 31 58 53 59
53 24 48 24 48 7 6 8 5 11 57 10 58 4 107 4 107 6 36 6 36 -20 74 -19 74 -17
40 -17 40 -43 66 -43 66 -76 51 -75 50 -55 7 -54 7 -44 -7 -43 -6 -50 -16 -50
-15 -52 -25 -52 -25 -15 -22 -14 -23 -36 -33 -35 -33 -21 -49 -21 -49 -6 -49
-6 -50 13 -47 13 -48 14 -29 15 -28 28 -32 29 -31 42 -48 42 -47 21 5 21 5
-13 -6 -14 -6 43 -26 44 -26 87 1 88 1 47 24 47 23 32 32 33 33 7 35 6 36 -17
57 -17 57 -10 27 -10 28 -44 44 -44 44 -31 6 -31 6 -38 0 -37 0 -26 -23 -27
-23 0 -34 0 -34 36 -33 37 -33 12 0 13 0 5 -27 6 -28 -17 -12 -16 -13 -45 0
-45 0 -42 46 -43 46 0 61 0 62 20 43 21 42 9 0 10 0 75 36 76 36 44 -17 44
-17 42 -39 42 -39 7 0 7 0 12 -37 12 -38 32 -55 31 -55 -1 -80 0 -80 -17 -35
-17 -35 -23 -27 -23 -27 -20 -26 -19 -26 -50 -38 -50 -39 -50 -11 -50 -11 -85
2 -85 2 -40 17 -41 16 -73 79 -74 79 -19 45 -20 45 -12 30 -13 30 -13 77 -13
76 12 64 11 63 5 38 6 37 9 0 10 0 0 21 0 22 22 36 21 36 36 38 35 37 8 0 8 0
27 29 28 28 53 28 52 27 6 9 5 8 32 15 32 15 30 5 30 4 265 -5 265 -5 5 -4z
m-749 -19 l-53 -25 -55 -50 -55 -50 -8 0 -8 0 -33 -52 -33 -52 -23 -48 -22
-49 -17 -95 -17 -94 17 -91 17 -90 20 -56 19 -56 34 -52 35 -52 67 -63 68 -63
55 -25 56 -25 80 -1 80 0 66 20 66 21 34 23 34 24 24 25 23 26 32 35 32 35 23
33 23 33 15 56 15 57 -7 60 -7 61 -25 43 -24 43 6 19 6 20 -23 31 -23 31 -35
34 -35 34 -50 34 -50 35 -47 12 -46 13 -39 -16 -38 -16 -50 -19 -49 -19 -43
-63 -43 -62 0 -52 0 -52 9 -32 9 -32 33 -41 33 -41 31 -18 30 -19 50 -7 50 -6
36 15 36 15 12 15 13 16 -7 37 -7 38 -49 46 -49 45 0 17 0 16 34 6 34 7 30
-16 30 -16 21 -26 21 -27 15 -50 15 -51 0 -37 0 -38 -33 -25 -33 -25 -37 -16
-36 -15 -70 0 -70 0 -47 29 -46 30 -22 29 -22 30 -32 33 -33 33 -14 50 -15 50
0 35 0 36 17 48 17 47 61 64 60 63 75 29 75 28 86 1 85 0 50 -30 49 -31 50
-66 50 -67 16 -43 16 -43 12 -50 11 -50 -9 -185 -10 -185 -35 -66 -36 -66 -56
-49 -57 -49 -11 -4 -11 -4 -25 -17 -25 -17 -61 -16 -60 -17 -45 0 -44 0 -40
11 -40 11 -51 23 -51 23 -55 36 -55 35 -54 60 -55 60 -52 88 -52 87 -21 70
-21 69 -1 106 -2 106 20 85 19 85 26 60 27 60 44 42 44 42 30 23 29 23 31 17
30 17 75 0 75 1 -54 -25z m-1761 -45 l0 -10 -27 -1 -28 0 -20 -9 -20 -9 12 0
13 -1 -3 -20 -3 -19 -6 -7 -7 -6 -6 36 -7 36 -22 0 -21 0 14 -9 13 -8 -10 -20
-11 -20 11 -11 10 -10 -6 -11 -7 -11 -25 0 -24 0 0 10 0 10 11 0 11 0 -11 14
-11 13 -25 -5 -25 -4 0 10 0 11 -65 -4 -65 -3 0 11 0 12 -8 -12 -7 -12 -63 -3
-62 -3 0 -6 0 -6 -25 -26 -26 -25 -19 5 -20 5 -16 -13 -16 -13 -13 17 -12 17
-42 0 -41 0 0 -6 0 -6 23 -19 22 -18 13 -1 12 0 0 8 0 7 43 -1 42 -1 15 -1 14
-2 -12 -12 -12 -12 0 -5 0 -6 68 1 67 1 45 9 45 8 10 1 10 1 10 6 10 6 57 6
58 7 6 10 5 9 10 -5 9 -6 0 -10 0 -9 -25 0 -25 0 0 -8 0 -8 28 1 27 0 1 -45 2
-45 6 -85 6 -85 6 -340 6 -340 9 -10 9 -9 1 9 1 10 3 18 3 18 -8 30 -9 31 19
21 20 21 0 -17 0 -16 -10 -6 -10 -6 5 -9 6 -9 14 6 15 5 0 -23 0 -22 4 4 3 4
7 28 7 29 -12 -8 -12 -7 6 33 7 33 0 19 0 19 11 -6 10 -7 -5 -14 -5 -14 7 0 8
0 -4 -37 -4 -38 6 6 7 7 1 53 0 53 9 -16 8 -15 -6 -132 -6 -131 -9 0 -8 0 -2
78 -1 77 -4 -37 -4 -38 -15 0 -14 0 -1 43 -1 42 -14 -45 -14 -45 10 -28 9 -28
-11 7 -11 7 8 -19 9 -19 2 -41 1 -42 7 -46 7 -47 18 23 18 23 2 60 2 60 5 4 4
4 7 -6 6 -7 -11 -76 -10 -77 -12 -7 -12 -8 4 -13 5 -14 16 30 16 30 1 -50 0
-50 6 -25 6 -25 -11 15 -11 15 0 -20 0 -20 -9 14 -8 13 -7 -11 -7 -11 1 -33 2
-32 -1 -34 -1 -35 -11 11 -12 12 5 60 4 61 -8 0 -8 0 -1 -27 -1 -28 -7 25 -7
25 6 5 7 5 -2 22 -1 23 -7 6 -7 7 0 9 0 9 8 -5 8 -5 -1 22 0 22 -8 13 -9 13 6
16 6 16 -9 11 -10 12 -4 59 -3 60 0 -227 1 -226 -7 -8 -8 -7 -24 28 -24 28 -5
-24 -4 -24 -2 35 -2 35 -9 -20 -9 -20 0 13 -1 12 -41 40 -41 40 -10 0 -10 0 5
15 6 14 -9 6 -8 5 -6 -12 -6 -13 6 23 5 22 -9 0 -10 0 -5 -7 -4 -8 3 11 2 12
-11 11 -11 11 -18 0 -18 0 0 -10 0 -10 -15 0 -15 0 0 10 0 9 33 10 32 9 -23 8
-23 7 5 12 5 13 -21 5 -20 6 6 9 6 10 -35 23 -35 24 5 12 4 12 -13 8 -13 8
-18 28 -17 27 -12 0 -12 0 -1 21 -2 22 -20 19 -21 19 0 -12 0 -11 -15 12 -15
12 6 9 5 9 -11 0 -11 0 5 23 6 22 -6 -12 -6 -13 -9 0 -9 0 0 19 0 19 8 5 7 4
-14 -4 -14 -3 -13 11 -14 11 0 10 0 10 16 -6 15 -6 -6 11 -7 10 -17 -6 -18 -5
-12 14 -13 15 7 10 6 11 -16 -7 -17 -6 4 24 3 24 -35 5 -35 5 12 8 11 7 18 -7
17 -6 -7 11 -7 12 -15 0 -14 0 0 18 0 17 -11 15 -11 15 5 -22 5 -22 -12 2 -11
2 3 -13 2 -13 4 -22 3 -22 29 -6 29 -7 -8 -1 -9 -1 36 -36 37 -37 -20 -14 -20
-14 -19 18 -20 18 -25 20 -26 20 -1 13 0 12 -10 0 -10 0 -1 23 0 22 -8 -19 -8
-20 -6 18 -7 17 -9 -5 -9 -6 -6 31 -6 30 -10 -6 -10 -6 0 8 0 8 -33 35 -33 35
-19 33 -19 32 -13 0 -13 0 0 8 0 9 -25 29 -25 29 0 13 0 12 9 0 9 0 6 -15 5
-15 11 0 11 0 -20 22 -21 21 -22 2 -22 2 -7 26 -7 27 18 -10 19 -10 6 0 6 0
-6 10 -6 10 17 0 18 0 -12 12 -13 13 -10 -15 -10 -15 -29 34 -30 35 11 7 12 7
-32 -2 -31 -1 5 -13 5 -12 -20 10 -19 10 -6 -19 -6 -19 7 -26 6 -26 -23 0 -24
0 10 8 10 7 1 60 1 60 14 0 14 1 7 -10 7 -10 26 -2 26 -1 6 10 6 10 -11 -7
-12 -7 -2 13 -1 13 -1 12 -1 12 -40 41 -39 40 9 0 10 1 -27 15 -27 14 5 15 6
15 5 0 5 0 -5 -14 -6 -15 20 -6 20 -7 17 -26 17 -27 32 -35 31 -35 25 -30 25
-30 6 6 6 6 -83 100 -84 99 -7 12 -7 11 22 -4 21 -4 51 10 51 9 6 10 6 9 79 2
79 2 -18 13 -18 13 -32 -5 -31 -6 15 11 15 11 13 0 14 0 34 -16 34 -16 -6 -9
-5 -9 10 0 10 0 6 9 5 9 -16 16 -15 16 15 0 16 0 6 -25 6 -25 9 0 9 0 0 11 0
11 25 -4 25 -5 0 8 0 9 29 0 30 0 15 -15 15 -15 17 0 16 0 -12 15 -12 15 52 0
53 0 -24 21 -24 21 -4 -18 -3 -17 -9 14 -8 14 -67 -4 -66 -3 4 19 3 18 35 6
35 6 -24 10 -25 10 27 5 27 5 0 -18 0 -19 9 0 9 0 16 -6 16 -6 0 21 0 21 10 1
10 0 43 1 43 1 38 -13 37 -12 25 6 24 6 0 10 0 10 -19 0 -20 0 -6 10 -6 10 50
0 51 0 0 15 0 15 -30 0 -30 0 0 -9 0 -9 -37 3 -37 4 -20 -11 -21 -11 -90 -4
-90 -4 10 10 10 9 25 5 25 4 -35 -3 -35 -3 -124 -11 -123 -11 -229 -2 -228 -2
9 9 10 10 227 3 228 3 195 16 195 16 240 7 240 8 98 1 97 2 0 -10z m40 -192
l0 -191 -6 6 -6 6 -2 185 -1 186 8 0 7 0 0 -192z m-2533 176 l-6 -6 -13 5 -13
5 19 1 19 1 -6 -6z m772 -38 l-5 -5 -31 -3 -31 -2 6 -16 6 -15 -15 11 -14 11
-22 -3 -22 -4 -6 10 -6 10 -9 0 -8 0 5 -20 5 -20 9 0 9 0 5 3 4 2 23 -31 23
-31 14 5 14 5 -6 -15 -5 -16 32 -31 32 -31 7 0 7 0 0 9 0 10 -20 6 -20 6 5 9
6 9 43 -26 43 -26 29 -43 29 -44 5 -1 5 -1 18 -3 18 -3 -4 11 -4 12 -13 0 -13
0 -5 15 -5 15 8 -7 8 -8 13 18 13 17 1 -16 0 -17 15 -6 15 -5 0 -21 0 -20 14
0 15 0 -2 -20 -1 -20 -11 0 -11 0 -13 13 -13 12 -5 -14 -5 -13 -9 13 -8 13 -7
-7 -7 -7 13 -15 13 -15 5 5 5 5 23 -25 23 -25 6 0 5 0 0 18 0 17 9 -15 10 -14
-5 -8 -5 -8 14 0 15 0 6 -17 7 -17 10 14 10 15 -7 -29 -7 -29 14 5 13 4 44
-50 43 -51 15 -8 14 -8 -5 -9 -5 -8 25 -6 25 -6 0 -20 0 -20 15 0 15 0 0 -8 0
-9 36 -46 37 -47 13 0 14 0 0 -13 0 -14 20 -18 20 -18 4 4 4 4 -9 23 -8 22
-10 0 -10 0 5 15 6 15 -27 0 -26 0 6 11 7 11 -21 19 -21 20 0 19 0 19 8 5 9 5
33 -37 32 -37 22 -12 21 -12 -15 -1 -15 0 40 -36 40 -35 -12 6 -13 6 -11 -6
-10 -7 28 -15 28 -14 3 10 4 11 13 0 13 0 -5 -20 -5 -19 22 -31 21 -30 25 0
24 0 0 -15 0 -15 14 0 15 0 6 -11 7 -10 -21 -18 -21 -18 0 -12 0 -11 10 0 10
0 0 14 0 14 15 12 14 12 11 -7 10 -6 -21 -30 -21 -30 6 -6 6 -6 25 27 25 27
19 -11 20 -10 11 0 12 0 -5 13 -5 12 -10 -2 -10 -2 -6 14 -5 15 9 0 9 0 6 -10
6 -10 10 6 11 6 -4 -28 -3 -29 -20 2 -20 2 -7 -12 -8 -12 0 20 -1 20 -13 -18
-14 -18 -9 -1 -8 -1 -12 -4 -11 -5 -7 -15 -6 -16 42 -39 41 -38 8 0 9 0 6 10
6 10 -18 0 -19 0 -17 20 -17 20 0 11 0 10 23 -7 22 -6 16 -14 16 -14 22 0 22
0 -13 -14 -13 -14 -9 6 -9 5 6 -10 7 -10 26 0 26 0 10 -11 10 -10 -21 -7 -20
-6 12 -20 12 -19 8 0 9 0 -5 13 -4 12 13 12 13 13 6 -10 6 -10 -10 0 -11 0 12
-19 12 -20 7 5 8 4 7 -22 8 -23 -2 -8 -2 -8 10 6 11 7 19 -22 19 -22 5 -11 4
-12 10 14 10 13 8 -13 8 -13 -12 -4 -11 -3 6 -15 5 -14 10 6 9 6 26 -23 25
-24 4 3 4 2 10 0 10 0 0 -11 0 -12 22 -18 21 -19 14 11 13 11 0 -10 0 -11 -9
-5 -9 -6 -5 -20 -5 -21 13 11 13 11 6 -17 6 -16 0 -9 0 -10 -22 6 -23 7 27
-26 27 -26 -4 -29 -4 -30 9 -6 9 -5 6 10 6 10 10 -5 9 -6 0 -10 0 -10 -10 6
-10 6 0 -8 0 -9 20 -17 20 -17 16 0 16 0 -6 25 -6 25 10 0 10 0 0 -35 0 -35
10 0 10 0 0 -12 1 -13 20 -24 20 -25 10 15 10 14 -6 -24 -7 -24 10 7 11 6 6
-10 6 -10 10 0 9 0 0 15 0 15 10 0 10 0 0 -10 0 -10 15 0 15 0 0 -8 0 -8 -17
-23 -16 -24 11 7 12 7 0 -13 0 -14 -12 -12 -12 -12 12 0 11 0 25 -27 25 -27
-6 23 -6 24 -19 4 -18 5 0 10 0 9 11 -7 11 -7 9 14 9 14 0 31 0 30 -10 10 -11
11 9 24 9 24 -1 147 -1 147 7 -7 7 -7 3 -347 4 -346 -29 -6 -30 -6 -93 0 -93
0 -11 19 -10 19 1 24 1 23 -2 131 -2 132 -158 3 -158 4 -8 8 -8 8 -1 150 0
150 -154 -2 -153 -2 -8 13 -8 12 3 159 2 158 -14 6 -15 5 -129 0 -130 0 2 144
2 143 -8 13 -7 12 -127 -3 -126 -3 0 142 0 142 -65 -6 -65 -5 -42 -4 -41 -3
-7 87 -7 86 -7 35 -7 35 -117 -1 -117 -2 0 83 0 83 -6 31 -7 31 -24 6 -24 6
-77 -11 -77 -11 -31 -6 -31 -6 -5 53 -5 52 4 18 5 18 27 3 26 3 225 3 225 4
-6 -6z m81 0 l0 -4 -25 -4 -25 -5 0 8 0 9 25 0 25 0 0 -4z m68 -3 l-18 -4 -22
4 -23 4 40 0 40 1 -17 -5z m-701 -50 l10 -48 -1 -206 -1 -207 -17 -19 -18 -20
0 -13 0 -14 -36 -73 -36 -73 -33 -28 -32 -27 -29 -23 -29 -23 -40 -11 -40 -12
-91 1 -91 1 -39 18 -39 18 -57 44 -57 43 -19 27 -19 27 -23 60 -22 60 -2 71
-1 71 42 56 43 56 32 24 33 25 62 17 63 18 56 -5 56 -5 33 -36 33 -36 11 -51
11 -51 0 -19 0 -18 -11 -50 -12 -50 -37 -21 -38 -21 -19 0 -19 0 -18 13 -18
14 6 20 7 21 34 44 35 43 0 25 0 26 -16 22 -15 22 -45 0 -45 0 -32 -16 -31
-17 -12 -11 -12 -12 -29 -25 -28 -24 -23 -32 -22 -31 0 -61 0 -61 24 -38 24
-38 33 -25 34 -25 20 -8 20 -7 46 -9 46 -9 68 10 68 9 51 26 51 25 39 37 38
37 26 40 26 40 0 100 0 100 -23 60 -22 60 -14 31 -14 30 -51 47 -51 47 -14 0
-13 0 -4 11 -4 11 -104 8 -105 7 -35 -3 -35 -4 25 9 25 8 234 6 234 6 5 6 5 5
12 0 11 0 11 -47z m1383 37 l0 -10 -17 0 -18 0 15 10 15 10 3 0 2 0 0 -10z
m-335 -27 l20 -12 -48 2 -47 2 0 -12 0 -13 -9 0 -9 0 -6 16 -6 15 -12 -8 -13
-8 -33 -2 -33 -2 3 17 3 17 35 5 35 5 50 -5 50 -6 20 -11z m291 14 l7 -7 -25
0 -26 0 -5 -20 -5 -20 -34 -1 -33 -1 -10 2 -10 2 -23 2 -22 3 -7 7 -7 7 14 9
15 10 33 -6 32 -6 13 10 12 10 25 4 25 4 12 -1 12 -1 7 -7z m574 -1 l0 -5 -10
-6 -10 -6 0 10 0 11 10 0 10 0 0 -4z m77 -2 l-6 -6 -13 5 -13 5 19 1 19 1 -6
-6z m-2582 -14 l-6 -10 -37 0 -38 0 -69 -33 -70 -34 -55 -55 -56 -55 -37 -70
-37 -71 -14 -73 -13 -74 2 -110 2 -110 8 -35 8 -35 33 -50 34 -50 44 -47 45
-48 10 0 10 0 14 -14 14 -15 74 -24 74 -24 54 -13 54 -13 116 6 116 6 69 15
70 16 90 50 89 50 2 -3 2 -2 6 -96 5 -96 -41 -20 -42 -21 -70 -25 -70 -25 -40
-7 -40 -7 -130 1 -129 0 -56 11 -55 11 -20 8 -20 8 -77 38 -76 38 -59 44 -58
43 -47 46 -48 46 -16 32 -16 31 -29 95 -30 95 -9 75 -9 75 2 116 2 116 11 14
11 14 13 35 14 35 35 54 34 55 45 43 46 42 150 4 151 3 33 2 33 2 -6 -10z
m5412 -12 l-5 -13 -1 19 -1 19 6 -6 6 -6 -5 -13z m-4266 -6 l-13 -4 -10 10
-11 11 24 -6 23 -7 -13 -4z m559 8 l0 -10 -11 0 -10 0 6 10 6 10 5 0 4 0 0
-10z m728 1 l14 -8 -15 -6 -16 -6 -11 15 -12 14 13 0 14 0 13 -9z m234 -13
l-10 -10 -12 7 -12 8 13 8 13 8 9 -6 9 -5 -10 -10z m-42 -3 l0 -11 -17 -1 -18
0 -70 -8 -70 -8 13 16 13 16 22 4 22 3 53 0 52 0 0 -11z m-251 -16 l13 -22
-17 7 -17 6 -9 0 -8 0 5 15 6 15 7 0 6 0 14 -21z m-630 -17 l-10 -4 -17 7 -16
6 13 9 14 8 12 -11 13 -12 -9 -3z m-616 7 l-11 -11 5 -14 5 -14 -10 0 -10 0 2
13 2 12 7 13 8 12 7 0 6 0 -11 -11z m257 2 l0 -10 -10 -6 -10 -6 0 15 0 16 10
0 10 0 0 -9z m44 0 l6 -9 20 5 20 5 0 -14 0 -14 -12 -12 -12 -12 -7 0 -8 0
-15 30 -14 30 8 0 9 0 5 -9z m145 -6 l3 -4 -7 -10 -6 -11 -15 0 -14 0 0 15 0
15 -14 0 -14 0 -5 -12 -5 -13 -1 19 -1 18 38 -7 37 -7 4 -3z m371 5 l0 -10 15
0 15 0 0 -8 0 -9 -29 5 -30 4 6 14 5 14 9 0 9 0 0 -10z m911 -26 l-9 -29 -1
26 -1 26 7 6 6 7 3 -3 3 -3 -8 -30z m-2609 10 l36 -5 57 -52 56 -52 29 -74 30
-73 0 -78 0 -79 -9 -24 -10 -25 -32 -37 -32 -36 -49 -25 -49 -25 -77 -6 -78
-6 -45 21 -44 21 -15 13 -16 13 -17 25 -17 24 0 49 0 48 50 49 50 50 33 8 32
9 8 -4 7 -4 0 -13 0 -13 -30 -38 -30 -38 -10 -38 -11 -39 10 -19 11 -19 34
-22 35 -21 42 11 42 12 38 24 39 24 19 39 20 39 7 64 6 65 -15 54 -16 54 -43
48 -43 48 -40 9 -40 9 -40 -5 -40 -6 -60 -14 -60 -15 -32 -17 -33 -17 0 -7 0
-8 -17 0 -16 0 6 -7 7 -6 -18 -13 -18 -12 -41 -69 -40 -68 -8 -42 -7 -42 10
-33 10 -33 16 -50 16 -50 0 -28 0 -28 17 -27 17 -27 25 -20 25 -20 25 -25 26
-26 18 -13 17 -13 63 -14 62 -13 93 -1 92 0 55 19 55 20 43 32 42 33 36 38 36
39 22 44 22 45 6 0 5 0 -7 -122 -7 -123 -22 -23 -21 -24 -34 -14 -33 -14 13
-18 14 -17 -17 13 -17 13 -29 -15 -29 -15 -74 -18 -74 -18 -125 0 -125 0 -69
23 -69 23 -51 26 -51 25 -57 61 -58 61 -15 32 -15 32 -7 52 -8 53 7 119 6 119
35 72 34 73 31 36 32 35 -7 7 -7 7 17 -7 17 -6 0 9 0 10 48 25 47 26 55 11 55
11 35 3 35 3 75 -3 75 -3 37 -6z m1605 10 l-6 -6 -13 5 -13 5 19 1 19 1 -6 -6z
m-627 -16 l0 -8 -9 0 -10 0 -5 8 -5 9 14 0 15 0 0 -9z m447 6 l-6 -6 -13 5
-13 5 19 1 19 1 -6 -6z m340 0 l-6 -6 -13 5 -13 5 19 1 19 1 -6 -6z m450 0
l-6 -6 -13 5 -13 5 19 1 19 1 -6 -6z m-1122 -25 l7 -10 -4 -5 -4 -4 -20 15
-19 14 17 1 17 0 6 -11z m240 -18 l-6 -11 -20 0 -20 0 6 10 6 9 14 -6 15 -5 0
13 0 12 6 -6 6 -6 -7 -10z m1178 -33 l6 -37 -13 5 -12 5 4 35 4 35 3 -3 2 -3
6 -37z m47 6 l0 -16 -15 12 -15 12 0 4 0 4 15 0 15 0 0 -16z m2620 -4 l-15
-10 -7 0 -8 0 0 10 0 10 23 0 22 0 -15 -10z m-879 -37 l-10 -18 -1 7 0 6 6 17
6 16 5 -5 5 -4 -11 -19z m-1737 -18 l-5 -12 -14 0 -15 0 0 4 0 4 11 21 11 21
8 -13 8 -13 -4 -12z m-1358 -30 l27 -25 -8 -8 -8 -7 -4 13 -5 12 -13 0 -13 0
-5 20 -5 20 3 0 4 0 27 -25z m1330 -5 l14 0 0 -15 0 -15 -13 0 -13 0 -11 11
-11 11 6 21 6 22 4 -17 3 -18 15 0z m78 -12 l-2 -23 -1 -9 -1 -10 -11 11 -11
11 7 21 6 21 8 0 8 0 -3 -22z m-1284 -49 l0 -9 -5 0 -6 0 -26 24 -25 24 7 13
8 12 24 -27 23 -27 0 -10z m40 -33 l0 -11 -9 14 -9 13 -5 -13 -4 -14 1 28 1
27 13 -17 12 -17 0 -10z m1252 9 l5 -25 -8 0 -9 0 0 25 0 25 4 0 4 0 4 -25z
m-99 -10 l-5 -15 -4 0 -4 0 0 21 0 20 10 -6 9 -6 -6 -14z m-1281 -16 l30 -21
-11 -11 -11 -11 -16 22 -15 22 -15 0 -15 0 6 10 6 10 6 0 5 0 30 -21z m1399
-99 l-9 -105 0 100 1 100 5 14 6 15 3 -10 3 -9 -9 -105z m-121 56 l0 -21 0
-45 0 -45 -6 -30 -5 -30 8 11 8 12 1 -130 2 -131 12 -7 12 -7 -15 -6 -14 -5 0
-27 0 -27 -10 -9 -9 -9 -1 253 0 253 -8 24 -8 25 16 -14 17 -13 0 -22z m2044
28 l6 -15 -10 6 -10 6 0 10 0 9 4 0 4 0 6 -16z m-1967 -36 l-5 -13 -1 19 -1
19 6 -6 6 -6 -5 -13z m-50 -20 l-5 -13 -1 19 -1 19 6 -6 6 -6 -5 -13z m70 -10
l-5 -13 -1 19 -1 19 6 -6 6 -6 -5 -13z m2009 7 l15 -15 -9 0 -10 0 -12 15 -12
15 6 0 7 0 15 -15z m-4376 -29 l0 -5 -10 -6 -10 -6 0 10 0 11 10 0 10 0 0 -4z
m1082 -38 l-10 -10 -6 11 -7 11 10 0 11 0 1 18 1 17 5 -19 5 -18 -10 -10z
m1258 2 l0 -10 -4 0 -5 0 -6 10 -6 10 10 0 11 0 0 -10z m2367 -62 l-4 -23 0
45 0 45 4 -22 4 -23 -4 -22z m-4726 19 l-24 -22 9 15 8 15 11 11 10 12 4 -4 5
-5 -23 -22z m1129 12 l0 -9 -15 0 -15 0 0 8 0 9 6 6 7 6 8 -5 9 -5 0 -10z m65
1 l6 -10 -15 0 -16 0 0 10 0 10 9 0 10 0 6 -10z m1135 -30 l0 -30 -4 0 -4 0
-4 30 -5 30 9 0 8 0 0 -30z m2277 -2 l-5 -13 -1 19 -1 19 6 -6 6 -6 -5 -13z
m-4927 -8 l15 -10 -10 0 -10 0 -15 10 -15 10 10 0 10 0 15 -10z m2720 -136 l0
-125 -8 5 -9 5 4 102 5 101 -9 -5 -9 -6 4 29 4 30 9 -6 9 -5 0 -125z m-73 54
l-5 -13 0 25 0 25 5 -12 5 -13 -5 -12z m-2397 18 l0 -4 -15 -6 -15 -5 0 9 0
10 15 0 15 0 0 -4z m4987 -48 l-5 -13 -1 19 -1 19 6 -6 6 -6 -5 -13z m-2600
-10 l-5 -13 -1 19 -1 19 6 -6 6 -6 -5 -13z m2494 -48 l-9 -25 3 40 4 40 2 5 2
5 4 -20 4 -21 -10 -24z m-2451 -12 l0 -28 -10 0 -10 0 0 43 0 42 10 -15 10
-15 0 -27z m1962 40 l-12 -12 -12 12 -12 12 24 0 24 0 -12 -12z m-3676 -98 l0
-20 -9 9 -9 9 6 11 7 11 2 0 3 0 0 -20z m1724 10 l0 -10 -11 0 -10 0 6 10 6
10 5 0 4 0 0 -10z m2260 7 l0 -4 -22 -19 -23 -19 19 23 19 22 4 0 3 0 0 -3z
m270 -147 l0 -10 -4 0 -5 0 -6 10 -6 10 10 0 11 0 0 -10z m-3180 -85 l0 -15
-20 0 -20 0 0 15 0 15 20 0 20 0 0 -15z m-60 -20 l0 -16 -35 7 -35 6 -15 -12
-15 -13 -7 7 -7 6 20 15 19 14 38 1 37 0 0 -15z m110 -40 l0 -5 15 -17 16 -18
55 -59 55 -60 -5 -11 -4 -12 30 -23 30 -22 -4 -4 -4 -4 -27 13 -26 12 -13 24
-13 25 -46 48 -46 48 -12 0 -11 0 0 11 0 10 -10 -6 -10 -6 0 28 0 29 -11 11
-11 11 6 11 7 10 19 -19 20 -20 0 -5z m557 -37 l-5 -13 -1 19 -1 19 6 -6 6 -6
-5 -13z m23 -70 l0 -8 -10 0 -10 0 0 23 0 22 10 -15 10 -15 0 -7z m-529 -51
l-12 -12 7 18 6 18 6 -6 6 -5 -13 -13z m513 7 l6 -15 -10 6 -10 6 0 10 0 9 4
0 4 0 6 -16z m-454 -44 l0 -10 -10 0 -10 0 0 10 0 10 10 0 10 0 0 -10z m1198
-16 l67 -15 63 -32 63 -32 57 -50 57 -49 37 -47 36 -46 20 -39 20 -39 12 -56
12 -55 -10 -75 -10 -74 -27 -60 -27 -59 -42 -56 -41 -55 -10 -10 -10 -11 -55
-23 -55 -23 -20 -13 -20 -12 -70 -18 -70 -18 -88 2 -88 2 -42 23 -42 24 -36
67 -37 67 -7 46 -8 47 -1 70 -1 70 50 75 50 75 43 28 43 29 40 5 39 6 46 -18
46 -17 29 -29 29 -28 0 -6 0 -6 20 -27 20 -27 5 -38 6 -38 -11 -33 -10 -33
-28 -25 -27 -26 -21 -6 -21 -7 -27 10 -26 11 0 28 0 29 30 38 29 37 6 19 6 19
-18 38 -18 37 -41 14 -40 14 -25 -6 -24 -6 -42 -27 -41 -27 -28 -54 -27 -54 6
-53 5 -53 25 -50 26 -50 35 -31 35 -31 46 -20 46 -20 48 -7 48 -6 57 16 57 17
47 26 47 26 12 16 13 16 24 50 24 50 17 80 16 80 -6 54 -7 54 -11 26 -11 26
-34 45 -35 45 -26 23 -26 24 -68 33 -68 33 -72 12 -71 13 -62 -6 -61 -6 -54
-24 -54 -24 -65 -46 -65 -46 -46 -48 -46 -48 -27 -45 -26 -45 0 111 0 111 53
54 52 54 45 36 45 36 35 16 35 16 70 21 70 22 10 3 10 3 63 1 63 1 67 -16z
m-1058 -83 l0 -10 16 -15 15 -16 -8 0 -9 0 -17 20 -17 20 0 5 0 5 10 0 10 0 0
-9z m-3664 -72 l49 -9 40 -17 40 -17 45 -19 45 -20 36 -28 35 -28 32 -63 32
-63 21 -75 21 -75 7 -131 8 -131 -5 -61 -4 -62 -83 0 -83 0 -16 -6 -16 -6 0 8
1 9 32 20 32 20 21 55 22 55 10 25 10 25 6 62 6 62 -15 85 -15 85 -23 40 -22
39 -30 33 -31 34 -24 12 -25 13 -43 15 -44 15 -83 1 -84 1 -55 -25 -55 -25
-31 -44 -32 -43 -14 -35 -15 -35 4 -50 5 -50 17 -50 18 -50 21 -23 21 -24 73
-35 73 -35 42 7 42 7 18 16 17 15 15 30 15 30 0 37 0 37 -18 16 -17 16 -46 10
-46 10 -26 10 -25 10 -6 19 -7 19 10 26 10 25 31 7 31 7 52 -12 52 -12 26 -25
27 -25 17 -54 17 -54 -7 -37 -7 -38 -21 -44 -22 -44 -36 -29 -35 -29 -51 -6
-51 -6 -74 23 -73 22 -65 66 -65 67 -14 45 -13 44 1 66 0 65 7 65 7 65 13 25
13 25 34 36 34 37 21 6 22 7 0 10 0 10 10 -6 10 -6 0 9 0 10 73 0 74 0 49 -9z
m4001 -11 l-5 -13 -1 19 -1 19 6 -6 6 -6 -5 -13z m-218 -44 l52 -57 -6 -5 -6
-6 -19 12 -20 12 0 -9 0 -9 13 -5 12 -5 -17 -1 -16 -1 -5 -12 -4 -13 -14 13
-13 12 16 0 16 0 5 22 6 22 -9 11 -10 12 7 6 6 7 -25 0 -26 0 -6 16 -6 16 0 9
0 9 8 0 9 0 52 -56z m221 -61 l-12 -18 6 18 6 19 1 16 1 17 5 -17 4 -17 -11
-18z m-250 27 l0 -10 -10 0 -10 0 0 10 0 10 10 0 10 0 0 -10z m2734 -5 l5 -15
-14 0 -14 0 5 15 6 15 3 0 3 0 6 -15z m-2664 -44 l0 -9 20 -5 20 -5 0 -9 0 -9
-20 -1 -20 -2 0 15 0 14 -10 0 -10 0 0 10 0 10 10 0 10 0 0 -9z m-20 -26 l0
-13 -15 -6 -15 -5 0 8 0 9 6 16 6 16 9 -6 9 -5 0 -14z m67 -65 l13 -19 -10 -6
-10 -6 0 11 0 11 -9 -6 -10 -5 -6 10 -6 10 6 10 6 10 7 0 7 0 12 -20z m68 -49
l-10 -8 -28 -7 -28 -7 13 15 13 15 25 1 24 0 -9 -9z m48 -26 l6 -14 -9 -6 -9
-5 -5 9 -6 9 -20 -5 -20 -5 0 9 0 10 7 6 6 7 23 0 22 0 5 -15z m27 -91 l0 -15
-10 6 -10 6 0 10 0 9 10 0 10 0 0 -16z m-4240 -84 l0 -10 -11 0 -10 0 6 10 6
10 5 0 4 0 0 -10z m6420 -32 l0 -8 -7 0 -8 0 -15 10 -15 9 23 -2 22 -1 0 -8z
m-6545 -18 l-6 -10 -12 0 -12 0 15 10 15 10 3 0 3 0 -6 -10z m390 -9 l5 -10
-8 -5 -9 -5 0 14 0 15 3 0 3 0 6 -9z m-362 -36 l-5 -15 -10 0 -10 0 11 13 11
14 -8 8 -7 8 12 -7 12 -7 -6 -14z m242 -137 l30 1 -22 -9 -22 -9 -38 15 -38
14 30 -7 30 -6 30 1z m6375 -42 l0 -4 -16 -6 -15 -6 6 10 6 10 10 0 9 0 0 -4z
m150 -13 l0 -18 -9 14 -9 14 -21 -6 -21 -5 0 9 0 9 30 0 30 0 0 -17z m-85 -3
l6 -10 -23 0 -23 0 15 10 15 10 2 0 2 0 6 -10z m0 -30 l6 -10 -16 0 -16 0 6
10 6 10 4 0 4 0 6 -10z m69 -3 l-4 -13 -20 0 -20 0 0 3 0 4 23 9 22 9 2 0 2 1
-5 -13z m-116 -4 l-18 -4 -22 4 -23 4 40 0 40 1 -17 -5z m-128 -13 l0 -9 -15
5 -15 6 0 4 0 4 15 0 15 0 0 -10z"/>
<path d="M4809 3815 l-1 -10 1 -7 0 -6 6 -63 6 -62 11 -20 10 -19 -11 6 -10 7
-1 -153 0 -153 -4 -65 -3 -65 -8 -57 -8 -56 7 -36 7 -36 14 0 15 0 0 25 0 25
-10 0 -10 0 0 28 0 27 14 -27 15 -28 3 -32 3 -33 -22 3 -23 3 0 -94 0 -94 6
-32 6 -31 9 5 8 5 6 -10 6 -10 -13 0 -14 0 0 -21 0 -20 26 7 25 7 17 -1 18 -1
-1 7 -1 7 1 13 1 12 14 0 14 0 -5 -21 -6 -21 22 7 21 6 0 -8 0 -8 28 -1 27 -1
254 -8 254 -8 -8 13 -8 13 11 -7 12 -7 17 10 18 10 -22 1 -22 0 -6 10 -6 10 8
0 8 0 26 -14 26 -13 89 -2 89 -1 25 -4 25 -4 20 -1 20 -1 -15 -10 -15 -10 23
0 23 0 -7 11 -6 11 32 -17 32 -17 -6 11 -7 11 15 0 16 0 0 14 0 15 -10 6 -10
6 0 -15 0 -16 -6 0 -6 0 -20 25 -20 25 -9 -5 -9 -6 0 18 0 19 31 -2 30 -2 6
-6 6 -6 -17 0 -17 0 6 -10 7 -11 11 3 12 2 40 -25 40 -24 -27 -3 -28 -3 0 -7
0 -7 46 -2 46 -2 -18 20 -17 19 9 1 9 0 -25 11 -25 10 13 5 14 5 27 -26 27
-26 7 7 7 6 0 -9 0 -10 -10 -12 -10 -12 12 10 12 10 9 0 8 0 -7 -11 -7 -12 13
5 14 4 2 10 3 9 -50 35 -50 35 -45 33 -44 33 0 8 0 9 -22 5 -22 6 -8 -12 -7
-11 -7 7 -7 7 13 15 12 15 -11 0 -11 0 0 -8 0 -8 -19 -1 -20 -2 -3 22 -3 22
-22 10 -23 10 0 16 0 17 -61 56 -62 56 -14 0 -14 0 6 10 6 10 -24 11 -25 11
-12 22 -12 21 -30 24 -31 25 11 -20 11 -21 -13 0 -13 0 4 36 4 35 -7 -6 -7 -7
-71 65 -71 65 -4 -12 -3 -11 12 -8 13 -8 -8 -13 -8 -13 -6 17 -6 16 -15 -9
-15 -10 15 -10 15 -9 -12 -20 -12 -20 12 -4 12 -4 -7 -8 -7 -7 -23 16 -23 16
23 6 22 6 0 9 0 9 -10 0 -10 0 0 20 0 21 15 5 15 6 0 14 0 14 -10 0 -11 0 -5
-15 -6 -15 -9 0 -9 0 16 25 16 24 -44 47 -44 47 -25 -12 -24 -12 18 14 17 15
-35 31 -36 31 -10 0 -10 0 6 -22 6 -23 -10 15 -11 15 6 16 5 17 -38 30 -38 29
-30 16 -30 15 -40 41 -39 41 -12 0 -13 0 -4 -47 -3 -48 -2 58 -2 58 -25 37
-25 37 -1 -10z m35 -91 l6 -15 -10 6 -10 6 0 10 0 9 4 0 4 0 6 -16z m75 -35
l31 -31 0 -4 0 -4 -17 0 -17 0 19 -14 18 -13 17 4 17 5 14 -14 14 -14 18 -7
18 -7 -5 -9 -6 -9 12 -5 13 -4 -28 1 -27 1 17 13 17 12 -10 0 -9 0 -15 -10
-15 -9 -22 21 -22 20 -10 -7 -11 -6 0 16 0 16 -22 9 -23 9 18 0 17 1 0 5 0 5
-20 20 -20 20 0 10 0 10 4 0 4 0 31 -31z m-22 -101 l-5 -13 -1 19 -1 19 6 -6
6 -6 -5 -13z m78 -26 l5 -14 -16 6 -16 6 -9 0 -9 0 0 9 0 10 20 -2 19 -1 6
-14z m111 -24 l7 -11 -11 7 -12 7 0 -11 0 -11 -10 6 -10 6 5 10 6 9 9 0 9 0 7
-12z m-106 -36 l0 -13 -10 6 -10 6 0 22 0 22 10 -15 10 -15 0 -13z m170 2 l0
-5 -15 -15 -15 -15 0 4 0 5 6 16 6 16 9 0 9 0 0 -6z m-213 -46 l-5 -13 -1 19
-1 19 6 -6 6 -6 -5 -13z m98 -43 l64 -65 13 -1 13 -1 8 1 7 1 -2 -12 -3 -13
28 -3 28 -3 -10 -13 -11 -13 24 -22 23 -22 17 26 16 25 15 0 15 0 0 -15 0 -14
-19 -11 -19 -10 2 -12 2 -13 8 -13 8 -13 12 10 13 11 6 -7 7 -6 0 -22 0 -21
35 -34 35 -34 0 9 0 9 -25 26 -25 26 12 32 12 32 8 0 8 0 0 -3 0 -2 -9 -33
-10 -32 19 0 19 0 -5 -15 -6 -15 10 0 11 0 11 18 10 17 -6 -26 -6 -27 11 -7
11 -6 -5 -10 -6 -9 20 0 21 0 0 -9 0 -8 -20 1 -19 1 -15 20 -15 20 -1 -12 0
-12 11 -6 10 -7 -5 -13 -5 -14 12 -4 12 -4 10 13 10 12 20 -8 20 -9 -17 0 -18
-1 0 -22 0 -23 9 13 8 13 17 -16 16 -16 0 8 0 7 29 -32 30 -32 17 0 16 0 -12
-15 -13 -15 4 -3 4 -3 30 -23 30 -23 -3 -6 -3 -6 18 -7 18 -8 -22 0 -23 -1 0
9 0 10 -232 -1 -233 -1 -30 -13 -30 -13 35 -1 35 -1 20 -9 20 -9 -51 0 -52 -1
-14 -21 -14 -21 -38 16 -38 16 -24 -6 -24 -6 0 12 0 13 56 -6 55 -6 -4 12 -4
12 -35 3 -36 3 -5 20 -5 19 11 -7 12 -8 35 -2 34 -2 13 11 14 11 11 -11 10
-10 15 5 15 6 -14 8 -13 9 -62 0 -63 0 0 8 0 7 -10 173 -10 172 -4 125 -4 125
10 0 10 0 63 -65z m113 25 l-12 -19 -5 4 -4 5 13 15 12 15 4 0 4 0 -12 -20z
m92 -24 l0 -9 -18 16 -19 17 -8 -7 -8 -8 7 12 7 13 19 -13 20 -12 0 -9z m-305
14 l6 -10 -10 0 -11 0 0 10 0 10 4 0 5 0 6 -10z m-40 -28 l-5 -6 -13 13 -12
12 18 -7 18 -6 -6 -6z m305 4 l-10 -10 -10 10 -10 10 20 0 20 0 -10 -10z m-80
-17 l-12 -21 -4 5 -4 4 6 17 6 16 9 0 10 0 -11 -21z m160 2 l0 -8 -6 -6 -6 -6
-13 12 -13 12 4 7 5 7 14 -6 15 -5 0 -7z m-46 -56 l5 -15 -9 0 -10 0 0 15 0
15 4 0 4 0 6 -15z m-387 -17 l0 -13 6 -25 7 -25 -14 30 -14 30 5 8 4 7 3 0 3
0 0 -12z m100 -10 l-5 -13 -1 19 -1 19 6 -6 6 -6 -5 -13z m273 -24 l0 -15 -10
6 -10 6 0 15 0 15 10 -6 10 -6 0 -15z m-320 -5 l0 -9 -10 0 -10 0 0 16 0 15
10 -6 10 -6 0 -10z m463 -14 l-18 -24 -7 -1 -8 0 0 8 0 8 17 21 17 21 8 -4 8
-5 -17 -24z m-426 -7 l-5 -13 0 25 0 25 5 -12 5 -13 -5 -12z m463 2 l-15 -10
-10 0 -10 1 19 14 20 15 5 -6 5 -5 -14 -9z m-553 -32 l-5 -13 -1 19 -1 19 6
-6 6 -6 -5 -13z m558 12 l-6 -10 -17 1 -17 0 20 9 20 9 3 0 3 1 -6 -10z m-455
-53 l0 -22 -10 15 -10 15 0 13 0 13 10 -6 10 -6 0 -22z m520 19 l0 -5 -10 -6
-10 -6 0 10 0 11 10 0 10 0 0 -4z m-587 -56 l-6 -21 -5 5 -4 5 5 16 6 15 5 0
4 0 -5 -20z m73 -93 l2 -92 -8 20 -9 20 0 79 -1 79 7 -7 7 -7 2 -92z m494 64
l0 -10 -11 -6 -10 -7 -6 5 -5 6 7 10 6 11 10 0 9 0 0 -9z m60 -101 l0 -10 -15
0 -15 0 0 10 0 10 15 0 15 0 0 -10z m108 -17 l3 -20 -15 -6 -15 -6 5 13 5 14
-10 7 -11 6 6 10 6 10 11 -4 12 -4 3 -20z m-58 -13 l15 -10 -15 0 -15 0 15
-10 15 -10 -19 0 -18 0 5 14 6 15 -12 5 -12 4 10 1 10 1 15 -10z m-693 -89 l0
-70 -11 -4 -12 -5 1 83 0 83 11 -9 11 -9 0 -69z m824 2 l-11 -18 4 25 5 25 1
5 2 5 4 -12 5 -12 -10 -18z m-84 13 l0 -13 -20 5 -19 5 14 8 13 9 6 0 6 0 0
-14z m38 -6 l-6 -10 -12 0 -12 0 15 10 15 10 3 0 3 0 -6 -10z m-818 -57 l-5
-18 0 35 0 35 5 -17 4 -18 -4 -17z m853 22 l15 -20 -16 12 -16 13 -6 -7 -7 -6
0 10 0 10 7 6 6 7 1 -2 2 -3 14 -20z m60 0 l0 -15 -9 0 -9 0 -6 15 -5 15 14 0
15 0 0 -15z m190 -79 l-1 -11 -19 24 -20 23 -15 -12 -15 -12 0 6 0 7 13 14 12
13 23 -21 22 -20 0 -11z m-449 21 l-11 -11 -16 16 -16 16 27 -6 26 -5 -10 -10z
m-238 6 l-23 -4 -22 4 -23 4 45 0 45 0 -22 -4z m67 -3 l0 -10 -11 0 -10 0 6
10 6 10 5 0 4 0 0 -10z m60 -16 l0 -15 -10 6 -10 6 5 10 6 9 5 0 4 0 0 -16z
m190 12 l0 -5 -10 -6 -10 -6 0 10 0 11 10 0 10 0 0 -4z m-145 -16 l-6 -10 -10
0 -9 0 0 10 0 10 16 0 15 0 -6 -10z m-545 -25 l12 -15 -16 0 -16 0 0 15 0 15
4 0 4 0 12 -15z m615 5 l6 -10 -15 0 -16 0 0 10 0 10 9 0 10 0 6 -10z m481 -5
l15 -15 -4 0 -5 0 -16 6 -16 6 0 9 0 9 6 0 5 0 15 -15z m-798 -2 l-28 -4 -27
4 -28 4 55 0 55 0 -27 -4z m102 -15 l0 -23 -8 12 -8 12 -24 10 -25 10 33 0 32
1 0 -22z m47 -1 l1 -12 8 -20 8 -20 -16 15 -15 16 -7 22 -7 22 14 -5 14 -6 0
-12z m53 13 l0 -10 -17 0 -18 0 15 10 15 10 3 0 2 0 0 -10z m395 -28 l-2 -3
-28 13 -27 12 19 7 18 6 12 -16 11 -16 -3 -3z m-761 19 l6 -9 -20 -5 -20 -5 0
7 0 8 7 6 6 7 8 0 8 0 5 -9z m99 -15 l6 -14 -15 -6 -16 -6 -41 7 -42 6 40 13
40 12 11 1 12 1 5 -14z m41 6 l4 -8 41 3 41 2 0 -11 0 -10 -27 5 -27 5 -22 -8
-22 -9 -5 20 -5 19 8 0 9 0 5 -8z m656 4 l0 -5 -10 -6 -10 -6 0 10 0 11 10 0
10 0 0 -4z m-925 -16 l6 -10 -21 0 -21 0 6 10 6 10 9 0 9 0 6 -10z m485 0 l0
-10 -10 0 -10 0 0 10 0 10 10 0 10 0 0 -10z m34 -11 l-6 -10 29 6 28 5 -20 -9
-20 -10 -7 0 -7 -1 -11 20 -10 20 15 -6 15 -6 -6 -9z m473 5 l-6 -6 -13 5 -13
5 19 1 19 1 -6 -6z m-650 -20 l-6 -6 -13 5 -13 5 19 1 19 1 -6 -6z"/>
<path d="M4972 3604 l18 -18 6 6 6 6 -24 12 -23 12 17 -18z"/>
<path d="M5281 3184 l1 -19 5 13 5 13 -6 6 -6 6 1 -19z"/>
<path d="M5510 2936 l0 -4 15 -6 15 -5 0 9 0 10 -15 0 -15 0 0 -4z"/>
<path d="M5060 2740 l-15 -10 17 0 17 0 6 10 6 10 -8 0 -8 0 -15 -10z"/>
<path d="M5780 2930 l15 -10 8 0 8 0 -6 10 -6 10 -17 0 -17 0 15 -10z"/>
<path d="M5623 2703 l17 -5 13 5 12 5 -30 0 -30 0 18 -5z"/>
<path d="M5713 2703 l29 -4 -6 -15 -6 -15 10 6 10 6 0 15 0 14 -32 -1 -33 -2
28 -4z"/>
<path d="M2235 3361 l-5 -10 21 -6 21 -7 5 5 5 5 -21 11 -20 11 -6 -9z"/>
<path d="M6668 1533 l13 -5 6 6 6 6 -19 -1 -19 -1 13 -5z"/>
<path d="M4400 2400 l15 -10 8 0 7 0 0 10 0 10 -22 0 -23 0 15 -10z"/>
<path d="M4118 2373 l13 -5 6 6 6 6 -19 -1 -19 -1 13 -5z"/>
<path d="M4400 2370 l15 -10 8 0 7 0 0 10 0 10 -22 0 -23 0 15 -10z"/>
<path d="M3918 2252 l-17 -7 24 -12 25 -11 10 16 9 17 1 -12 0 -13 15 0 15 0
0 9 0 9 -22 6 -23 6 -10 -1 -10 0 -17 -7z"/>
<path d="M4295 2240 l-6 -10 16 0 16 0 -6 10 -6 10 -4 0 -4 0 -6 -10z"/>
<path d="M4233 2233 l17 -5 13 5 12 5 -30 0 -30 0 18 -5z"/>
<path d="M3895 2220 l-6 -10 10 0 11 0 0 10 0 10 -4 0 -5 0 -6 -10z"/>
<path d="M3833 2213 l17 -5 13 5 12 5 -30 0 -30 0 18 -5z"/>
<path d="M3740 2023 l-25 -3 -32 -6 -33 -5 0 -14 0 -14 19 -6 19 -6 40 -52 40
-52 49 -50 49 -50 89 -105 89 -105 65 -70 66 -71 64 -69 64 -70 -6 30 -6 30
-10 180 -10 180 -6 65 -5 65 -6 95 -6 95 -5 5 -5 5 -236 1 -237 1 -25 -4z
m497 -29 l-6 -6 -13 5 -13 5 19 1 19 1 -6 -6z m-402 -152 l-5 -6 -13 13 -12
12 18 -7 18 -6 -6 -6z m343 -73 l-4 -13 -7 23 -6 24 11 -11 10 -10 -4 -13z"/>
<path d="M3430 1941 l0 -10 10 -6 10 -6 0 15 0 16 -10 0 -10 0 0 -9z"/>
<path d="M3460 1879 l0 -9 0 -5 0 -5 8 -2 7 -2 19 -17 18 -17 -7 -12 -7 -11
15 3 16 3 0 -8 0 -9 18 -14 18 -13 -10 -1 -10 0 15 -11 15 -11 -12 -4 -12 -5
6 -15 5 -14 13 0 12 0 16 18 17 19 0 8 0 9 -15 -20 -14 -19 -1 14 0 14 -37 46
-37 46 -28 27 -28 27 0 -10z"/>
<path d="M3475 1820 l6 -10 5 0 4 0 0 10 0 10 -11 0 -10 0 6 -10z"/>
<path d="M3495 1760 l-7 -11 18 -14 19 -14 8 -1 7 0 0 8 0 9 -19 17 -19 17 -7
-11z"/>
<path d="M3587 1693 l-7 -6 0 -16 1 -16 12 17 13 16 26 -28 26 -28 -5 -6 -5
-5 -15 14 -14 15 -12 -1 -12 -1 13 -5 12 -5 0 -14 0 -14 10 0 9 0 15 -27 14
-28 -1 34 -2 34 11 4 11 4 -5 -27 -5 -27 13 5 14 4 4 12 3 11 -43 46 -43 45
-16 0 -16 0 -6 -7z"/>
<path d="M3751 1460 l23 -30 3 4 4 3 -12 27 -12 26 -14 0 -14 0 22 -30z"/>
<path d="M3840 1460 l0 -10 11 0 10 0 -6 10 -6 10 -5 0 -4 0 0 -10z"/>
<path d="M4450 1260 l0 -20 10 0 10 0 0 20 0 20 -10 0 -10 0 0 -20z"/>
<path d="M4481 1164 l1 -19 5 13 5 13 -6 6 -6 6 1 -19z"/>
<path d="M4510 1008 l0 -17 10 -6 10 -6 0 8 0 8 -10 15 -10 15 0 -17z"/>
<path d="M4510 954 l0 -15 10 6 10 6 -5 10 -6 9 -5 0 -4 0 0 -16z"/>
<path d="M2884 2179 l-6 -11 58 -59 58 -59 10 10 10 10 -6 6 -6 6 -19 3 -18 3
-5 1 -5 1 15 11 15 11 -17 -5 -16 -6 -18 27 -18 27 -2 8 -1 7 -2 10 -1 10 -9
0 -10 0 -7 -11z"/>
<path d="M3020 2070 l0 -9 9 -6 10 -5 5 9 6 9 -15 6 -15 5 0 -9z"/>
<path d="M3525 1539 l-7 -10 6 -6 6 -6 0 11 0 11 18 4 17 5 -17 1 -17 1 -6
-11z"/>
<path d="M3540 1521 l0 -9 25 -16 25 -16 0 10 0 10 -10 0 -10 0 0 15 0 15 -15
0 -15 0 0 -9z"/>
<path d="M3600 1472 l0 -8 12 -12 12 -12 -19 0 -18 0 6 -6 5 -6 21 7 21 6 0 7
0 7 -20 13 -20 12 0 -8z"/>
<path d="M3628 1416 l-17 -12 20 -17 19 -17 5 0 5 0 0 15 0 15 11 0 10 0 -5
-17 -6 -18 11 -15 11 -15 -6 19 -6 19 10 12 11 13 -20 7 -21 6 0 10 0 9 -7 0
-8 -1 -17 -13z m32 -10 l0 -5 -9 -6 -10 -5 -6 10 -6 10 15 0 16 0 0 -4z"/>
<path d="M3835 1190 l-6 -10 10 0 11 0 0 10 0 10 -4 0 -5 0 -6 -10z"/>
<path d="M3997 1025 l-4 -24 11 -4 11 -4 18 6 18 7 -25 21 -24 21 -5 -23z"/>
<path d="M4045 960 l18 -20 5 5 4 4 -5 16 -6 15 -17 0 -17 0 18 -20z"/>
<path d="M4120 913 l15 -6 7 -11 7 -10 8 7 7 8 -14 9 -15 10 -15 -1 -15 -1 15
-5z"/>
<path d="M4125 870 l-6 -10 10 0 11 0 0 10 0 10 -4 0 -5 0 -6 -10z"/>
<path d="M4185 840 l6 -10 5 0 4 0 0 10 0 10 -11 0 -10 0 6 -10z"/>
<path d="M4220 775 l1 -10 14 -19 15 -20 7 8 7 7 -22 22 -22 21 0 -9z"/>
<path d="M4495 510 l6 -10 5 0 4 0 0 10 0 10 -11 0 -10 0 6 -10z"/>
<path d="M4940 4693 l-35 -4 -14 -5 -14 -5 24 -25 24 -26 11 28 11 27 12 -22
12 -22 17 3 17 3 -2 -31 -3 -31 30 -26 29 -26 4 12 5 12 11 -27 11 -28 5 0 6
0 -5 9 -5 8 14 19 15 19 -4 -42 -5 -41 19 -17 19 -17 11 7 10 6 -1 -8 -1 -8 1
-11 1 -11 26 -12 26 -12 18 6 18 6 7 -11 6 -10 -15 0 -16 0 0 -5 0 -6 18 -20
19 -20 18 7 18 7 -7 -11 -7 -12 30 -30 29 -30 16 6 16 6 0 -11 0 -11 -12 0
-11 0 6 -6 6 -7 25 16 24 16 6 -14 5 -14 -13 5 -13 5 -6 -14 -5 -14 73 -62 73
-61 10 0 10 0 5 -12 4 -13 7 6 7 6 -26 24 -27 24 -16 17 -17 17 -30 12 -30 13
29 4 28 4 19 -21 20 -21 9 0 10 0 24 -21 25 -22 -6 -27 -5 -28 28 -24 27 -23
18 -17 17 -16 6 6 6 5 0 -14 0 -15 30 -22 30 -23 0 -16 0 -15 33 6 32 6 -14
-9 -14 -9 14 -17 14 -17 27 -26 28 -27 55 -53 56 -54 15 6 15 6 -6 -11 -7 -10
18 -20 17 -19 18 5 19 6 17 -11 18 -10 -27 6 -28 6 0 -11 0 -11 15 0 15 0 1
-12 1 -13 45 -39 44 -40 8 13 9 13 6 -11 7 -11 -13 0 -13 0 30 -25 30 -26 33
-27 33 -27 14 -25 14 -25 1 13 0 12 9 0 9 0 -4 -17 -4 -18 47 -35 46 -35 35
-33 34 -33 6 7 7 7 -12 4 -12 4 11 25 11 24 13 0 13 0 10 -17 10 -18 18 18 18
18 -15 -6 -16 -6 -23 24 -22 24 26 5 25 5 6 -9 6 -9 15 5 14 6 -6 -10 -6 -10
15 -15 15 -15 10 0 10 0 -3 -25 -3 -25 -8 -8 -8 -7 5 27 5 27 -15 6 -15 5 -16
-12 -16 -12 -4 -3 -4 -2 17 -25 16 -25 -9 -6 -10 -5 -6 10 -6 10 8 1 8 1 -29
9 -30 8 -5 -5 -5 -5 39 -37 38 -37 11 -1 11 -2 10 -1 10 -1 -15 -10 -15 -10
15 -10 15 -10 7 0 6 0 -5 20 -5 20 15 0 16 0 6 -10 6 -10 -14 0 -15 0 2 -16 1
-16 73 -71 73 -72 15 3 16 3 -7 -10 -6 -11 33 -28 33 -27 55 -55 55 -55 30
-25 30 -26 11 -7 11 -7 -15 35 -16 35 -9 0 -8 0 6 -10 6 -10 -8 0 -9 0 -12 12
-12 12 0 7 0 7 17 -2 17 -1 4 16 3 17 -18 -2 -18 -1 3 13 2 12 -17 0 -18 0 14
9 13 9 -4 41 -4 41 3 0 2 0 16 -34 17 -35 -7 -10 -6 -11 10 0 11 0 8 2 7 2 -3
13 -3 13 6 0 6 0 8 -22 8 -23 11 55 10 55 1 -25 1 -25 -10 -35 -10 -36 9 -59
9 -60 1 65 2 65 9 74 10 75 -11 7 -11 7 11 3 11 4 6 103 7 104 -9 6 -10 7 4
52 4 53 9 -6 9 -5 0 20 0 21 -7 0 -8 0 -12 27 -13 27 0 35 0 36 10 -15 10 -15
0 33 0 33 -11 21 -11 20 9 -5 9 -6 -4 37 -4 37 11 -10 10 -10 4 -105 4 -105
-3 215 -4 215 -2 225 -1 225 -7 -113 -7 -113 -10 -10 -9 -9 3 -62 4 -62 -8 7
-7 8 -2 55 -2 54 8 5 7 5 -5 25 -4 25 12 15 12 15 -10 0 -11 0 -6 -10 -6 -10
-8 4 -8 5 5 30 4 30 12 10 12 11 -6 52 -7 53 9 34 10 33 -13 12 -12 11 6 -17
6 -16 -11 -36 -11 -36 -15 0 -14 0 4 8 4 7 14 28 14 28 -17 17 -17 16 0 -12 0
-12 10 0 10 0 0 -15 0 -15 -7 0 -8 0 -11 25 -12 24 7 6 6 7 0 26 0 27 18 -3
17 -3 0 10 0 10 -11 7 -11 6 5 20 5 19 -11 -4 -12 -4 3 -21 3 -20 -11 -7 -10
-6 -4 13 -4 13 -6 33 -5 32 14 0 15 0 0 -10 0 -10 10 0 10 0 0 34 0 35 -12 7
-12 7 -32 2 -33 1 -5 -19 -4 -18 14 12 15 12 12 -12 11 -11 -17 -29 -17 -29 0
-19 -1 -18 -9 16 -10 17 -25 6 -25 6 0 11 0 10 -21 -11 -21 -12 -5 5 -5 5 12
22 12 22 -10 -6 -10 -6 -6 26 -7 26 5 5 5 5 13 -8 13 -9 17 3 16 3 7 -22 7
-21 11 12 12 13 -12 4 -13 5 0 10 0 9 18 -5 17 -6 15 11 15 10 -63 -3 -62 -3
0 13 0 13 -17 -3 -18 -4 2 -29 2 -30 11 -175 10 -175 9 -69 9 -69 14 -9 13
-10 -12 -5 -13 -5 0 -54 0 -54 9 0 10 0 4 23 4 22 2 -25 1 -26 20 -14 20 -14
0 -9 0 -9 -15 12 -15 13 -7 -7 -6 -6 22 -19 22 -19 -21 -15 -20 -14 16 -14 16
-13 -22 -8 -21 -8 6 -10 6 -10 19 10 19 10 7 -45 6 -46 -5 -28 -6 -28 8 -9 8
-9 7 -30 7 -30 -9 13 -9 13 0 -59 -1 -59 -11 -22 -12 -21 7 -68 6 -67 5 -7 4
-8 -8 -12 -7 -13 -2 -77 -2 -77 17 -5 16 -5 -25 2 -25 2 -8 10 -9 10 -5 -12
-5 -13 -9 0 -9 0 -40 26 -40 27 0 13 0 14 -14 0 -14 0 -29 29 -29 29 -44 52
-43 51 -14 -5 -14 -6 -21 13 -21 12 -4 -12 -5 -13 -19 0 -19 0 0 8 0 7 -25 28
-26 27 9 0 10 0 12 -15 12 -15 14 0 13 0 -5 -15 -6 -15 11 0 12 0 5 15 6 15 8
0 9 0 16 -16 16 -16 7 7 7 7 -25 20 -25 20 -40 34 -39 34 -9 0 -8 0 7 12 7 11
-21 -5 -21 -6 6 14 5 13 -54 51 -53 51 -22 5 -23 6 6 9 5 9 -17 0 -17 0 7 7 7
7 -68 68 -67 68 -9 0 -9 0 6 -16 6 -15 -11 6 -10 7 5 13 4 12 -39 39 -39 38 0
-6 0 -7 -75 72 -75 73 -54 -3 -54 -2 5 20 5 19 9 0 9 0 0 -14 0 -15 30 1 30 1
-11 14 -11 13 -13 0 -13 0 -35 40 -34 40 -16 -5 -15 -6 -7 10 -6 11 -9 0 -8 0
5 -20 5 -20 23 6 23 6 6 -11 7 -11 -27 0 -27 0 5 -6 6 -6 19 -3 18 -3 8 -1 7
-1 0 -10 0 -10 -25 6 -26 6 2 -8 1 -9 -2 -20 -2 -20 -13 45 -12 45 -8 -19 -8
-18 14 -9 14 -8 -13 -13 -12 -12 0 12 0 11 -15 -5 -15 -6 0 11 0 11 -18 0 -18
0 -12 12 -12 12 0 18 0 18 25 -12 25 -11 5 -19 6 -18 9 0 8 0 4 29 4 30 -7 -4
-6 -5 -29 25 -29 25 -7 0 -8 0 0 15 0 15 -15 0 -16 0 -24 27 -23 28 5 7 4 8
10 0 9 0 0 -21 0 -20 22 7 23 7 -14 -17 -14 -16 16 6 15 6 5 12 5 13 -6 9 -7
9 -11 0 -10 0 -33 27 -32 28 6 10 6 10 -18 -7 -18 -6 17 19 18 18 25 -24 25
-23 -5 -5 -5 -5 -17 14 -18 14 14 -18 14 -18 14 5 13 5 0 -15 0 -15 8 5 8 5
14 -19 14 -19 10 6 9 6 -6 -16 -6 -16 14 6 15 5 6 -17 7 -16 -12 -12 -12 -12
-19 23 -19 22 -5 -9 -6 -10 23 -25 24 -26 7 0 6 0 10 25 9 24 33 -29 32 -29 4
4 5 5 -84 82 -84 83 -122 108 -121 107 -6 0 -6 0 0 -22 0 -21 6 6 6 5 18 -16
19 -17 15 -13 16 -13 0 -9 0 -10 -10 0 -10 0 -20 20 -20 20 -11 0 -10 0 6 9 5
10 -16 9 -16 9 11 21 11 20 -90 82 -89 82 -10 -6 -9 -6 -6 15 -5 15 -78 -2
-78 -1 -35 -4z m-15 -31 l-5 -6 -13 13 -12 12 18 -7 18 -6 -6 -6z m90 8 l-6
-10 -14 0 -14 0 -6 10 -6 10 26 0 26 0 -6 -10z m116 -17 l19 5 11 -19 10 -20
11 7 11 7 -7 -12 -8 -12 17 3 18 3 4 -15 5 -15 -9 10 -8 10 -18 0 -19 0 -13
-18 -13 -18 -5 13 -6 13 -15 -19 -16 -20 0 18 0 17 -11 -6 -10 -7 -14 18 -14
19 -1 -29 0 -29 -6 5 -6 6 7 56 7 55 30 -15 30 -16 19 5z m1919 -85 l0 -10
-12 4 -12 4 -4 12 -4 12 16 -6 16 -6 0 -10z m-1850 -10 l0 -23 -9 15 -10 14 5
8 5 8 5 0 4 0 0 -22z m56 7 l6 -15 7 4 6 3 24 -22 23 -23 -10 -5 -9 -6 -37 32
-36 33 0 7 0 7 10 0 11 0 5 -15z m-6 -47 l0 -9 -15 15 -15 15 0 7 0 6 15 -12
15 -12 0 -10z m-89 15 l0 -8 4 -30 3 -30 -5 13 -5 12 -10 0 -9 0 6 -22 7 -23
-15 20 -15 19 22 19 21 19 -25 -7 -25 -8 14 17 13 16 9 0 9 0 1 -7z m69 -28
l0 -15 -10 0 -10 0 0 15 0 15 10 0 10 0 0 -15z m1710 -29 l0 -13 -30 -7 -30
-6 6 -55 7 -55 -12 0 -11 0 0 49 0 49 6 16 6 16 19 0 19 0 0 10 0 10 10 0 10
0 0 -14z m-1740 -41 l0 -10 -10 15 -10 15 0 10 0 10 10 -15 10 -15 0 -10z
m1776 6 l-6 -9 28 -7 27 -7 -12 -5 -12 -4 6 -15 5 -14 -32 0 -31 0 8 13 7 12
-3 23 -2 22 11 0 11 0 -5 -9z m-1677 -51 l-1 -15 -5 15 -6 15 -10 6 -10 7 8
13 8 13 8 -20 8 -19 0 -15z m1633 21 l-9 -6 -11 -20 -12 -20 2 31 2 31 19 -5
19 -5 -10 -6z m-1476 -23 l19 -21 -10 5 -10 6 -1 -29 -2 -30 6 5 5 6 24 -28
24 -27 10 -13 11 -13 -6 -6 -6 -6 -25 11 -24 11 -28 43 -27 43 -25 28 -25 27
10 0 9 -1 17 -13 18 -13 -8 -8 -7 -8 13 7 12 7 -5 10 -6 9 6 10 6 10 3 0 3 0
19 -22z m-166 -28 l0 -10 -4 0 -5 0 -6 10 -6 10 10 0 11 0 0 -10z m66 0 l14 0
0 -17 0 -17 -12 12 -12 12 -18 0 -18 0 0 11 0 11 16 -6 16 -6 14 0z m140 -13
l-3 -12 4 8 5 7 9 0 9 0 0 -9 0 -9 -15 -6 -14 -5 -16 16 -16 16 12 8 13 8 8
-5 7 -5 -3 -12z m1484 -2 l0 -25 -18 18 -18 17 10 7 11 8 8 0 7 0 0 -25z m42
-32 l1 -38 -2 -15 -1 -15 1 -60 1 -60 -1 -30 -1 -29 12 -7 11 -7 -17 -17 -17
-17 -2 3 -3 4 -17 50 -17 50 0 12 0 12 15 -5 15 -6 0 31 0 31 -11 0 -11 0 11
13 11 14 -4 42 -4 43 5 19 5 19 9 0 9 0 2 -37z m-121 -7 l9 5 0 -25 0 -26 -11
0 -10 0 6 9 5 10 -10 6 -10 6 1 17 1 17 5 -13 5 -12 9 6z m25 -78 l-10 -7 -3
2 -2 3 6 24 6 24 7 -20 7 -19 -11 -7z m-1446 -3 l12 -15 -20 0 -21 0 -5 9 -5
8 6 7 6 6 7 0 8 0 12 -15z m1420 -11 l0 -15 8 4 7 5 -1 -34 -1 -34 -6 -7 -7
-6 -4 14 -5 14 -5 43 -6 43 10 -6 10 -6 0 -15z m182 -16 l-11 -23 2 32 1 33
10 -10 9 -9 -11 -23z m-25 10 l-5 -13 -1 19 -1 19 6 -6 6 -6 -5 -13z m3 -69
l0 -19 -10 0 -10 0 0 26 0 25 10 -6 10 -6 0 -20z m-136 -34 l-6 -15 -4 0 -4 0
0 15 0 15 10 0 9 0 -5 -15z m25 -27 l0 -43 -9 22 -9 21 6 21 5 21 4 0 4 0 -1
-42z m98 -100 l-5 -13 -1 19 -1 19 6 -6 6 -6 -5 -13z m-1147 2 l0 -10 -17 0
-16 0 4 -4 4 -3 28 -7 29 -7 -8 13 -7 13 18 -17 17 -16 -3 -10 -4 -11 -50 24
-50 23 25 10 25 11 3 0 2 1 0 -10z m-122 -16 l16 -16 -19 3 -18 4 -5 13 -4 12
7 0 6 0 17 -16z m1201 -46 l-1 -43 -14 34 -15 34 13 8 13 9 3 0 2 0 -1 -42z
m75 9 l5 -22 11 -135 11 -135 -6 -81 -7 -81 -9 -14 -8 -13 -5 14 -4 15 -7 37
-6 37 18 11 18 11 -12 5 -13 6 1 31 0 32 9 -20 9 -20 2 20 2 20 -2 15 -1 15
-5 45 -4 45 -6 84 -6 85 -11 13 -11 13 16 -5 15 -6 6 -22z m-1144 -29 l0 -8
-7 0 -8 1 -22 18 -23 19 0 7 0 6 30 -18 30 -17 0 -8z m100 -21 l0 -10 -20 23
-20 23 0 5 0 5 20 -18 20 -18 0 -10z m-30 -16 l0 -19 20 -5 20 -5 -6 -16 -6
-16 -14 0 -14 0 0 8 0 7 -9 37 -9 38 9 -6 9 -5 0 -18z m110 -40 l25 -23 -22
11 -22 11 -6 -10 -6 -10 -17 1 -17 0 25 10 25 10 -27 15 -28 15 0 16 0 16 22
-19 22 -19 26 -24z m1021 32 l1 -28 3 -60 2 -60 8 -18 7 -17 -15 -32 -15 -31
1 39 2 39 -8 98 -8 97 10 0 11 0 1 -27z m-1151 7 l0 -10 -10 0 -10 0 0 10 0
10 10 0 10 0 0 -10z m1020 -28 l0 -17 -10 15 -10 15 0 8 0 8 10 -6 10 -6 0
-17z m-1077 3 l6 -14 -9 -6 -9 -6 -11 21 -11 20 15 0 14 0 5 -15z m57 -40 l0
-3 -15 -6 -15 -5 0 14 0 14 15 -5 15 -6 0 -3z m1070 -31 l0 -45 -10 6 -10 6 0
33 0 33 7 6 6 7 4 0 3 0 0 -46z m-958 -37 l7 -17 2 -8 1 -7 9 -12 10 -11 -12
-8 -12 -7 7 11 7 12 -10 0 -10 0 -6 20 -7 21 -18 -6 -18 -6 5 19 5 19 16 -1
17 -1 7 -18z m86 15 l15 13 -5 -15 -5 -15 -13 0 -13 0 -3 13 -2 13 5 -11 5
-11 16 13z m-44 -14 l-5 -8 -10 0 -9 0 0 8 0 9 15 0 14 0 -5 -9z m-109 -8 l6
-10 -10 0 -10 0 -6 10 -6 10 10 0 10 0 6 -10z m195 2 l0 -9 -15 0 -14 0 5 9 5
8 10 0 9 0 0 -8z m-146 -48 l6 -17 -15 13 -15 12 0 4 0 4 9 0 9 0 6 -16z m191
6 l6 -10 -15 6 -16 6 0 4 0 4 9 0 10 0 6 -10z m-61 -29 l6 -9 -15 -5 -14 -6 6
15 5 14 3 0 4 0 5 -9z m61 -1 l6 -10 -15 6 -16 6 0 4 0 4 9 0 10 0 6 -10z
m-105 -10 l0 -10 -11 0 -10 0 6 10 6 10 5 0 4 0 0 -10z m-10 -24 l0 -5 -9 -6
-10 -5 -6 10 -6 10 15 0 16 0 0 -4z m42 -28 l-12 -12 0 10 0 11 7 6 6 7 6 -5
5 -5 -12 -12z m836 -78 l-4 -90 -7 -7 -7 -6 -1 31 0 32 -1 48 0 47 7 18 7 17
5 0 5 0 -4 -90z m-698 70 l0 -10 -4 0 -5 0 -6 10 -6 10 10 0 11 0 0 -10z m-80
-20 l0 -10 -11 0 -10 0 6 10 6 10 5 0 4 0 0 -10z m100 0 l0 -10 -11 0 -10 0 6
10 6 10 5 0 4 0 0 -10z m-67 -47 l-5 -13 -19 0 -19 0 0 11 0 11 16 -6 16 -6
-5 14 -6 14 7 6 6 6 7 -11 7 -12 -5 -14z m77 -5 l0 -10 14 5 15 6 11 -15 12
-14 -7 0 -7 0 28 -37 28 -38 6 -5 6 -5 -7 -25 -7 -25 -2 15 -2 15 2 14 2 14
-16 -6 -16 -6 0 14 0 15 -10 0 -10 0 0 13 0 14 -22 10 -23 11 -18 30 -17 30
20 -5 20 -5 0 -10z m80 -10 l0 12 12 0 11 0 -17 -19 -17 -19 13 -5 13 -4 -7
-8 -8 -8 -5 5 -6 6 -5 28 -4 29 10 -15 10 -15 0 13z m674 -74 l-5 -86 10 7 11
6 -1 -33 0 -33 -9 20 -9 20 0 -23 -1 -23 -9 5 -9 6 5 87 4 88 5 23 4 22 5 0 5
0 -6 -86z m-757 13 l12 -22 1 -8 0 -9 -34 35 -33 34 -13 5 -14 4 8 12 7 12 27
-21 27 -21 12 -21z m630 -9 l-5 -13 -1 19 -1 19 6 -6 6 -6 -5 -13z m30 -90
l-4 -23 0 45 0 45 4 -22 4 -23 -4 -22z m-30 20 l-5 -13 0 25 0 25 5 -12 5 -13
-5 -12z m-487 8 l0 -5 -10 -6 -10 -6 0 10 0 11 10 0 10 0 0 -4z m27 -85 l-13
-20 -12 20 -12 19 11 0 10 0 -6 23 -7 22 21 -23 22 -22 -14 -19z m460 -33 l-5
-13 0 25 0 25 5 -12 5 -13 -5 -12z m56 12 l5 -20 16 0 16 0 0 -10 0 -11 -21
12 -22 11 -8 -13 -8 -13 -7 6 -6 7 6 26 6 25 9 0 9 0 5 -20z m84 -12 l-5 -13
-1 19 -1 19 6 -6 6 -6 -5 -13z m-407 -25 l1 -8 38 -24 38 -23 -4 -19 -5 -19
-10 0 -10 0 5 20 5 20 -7 0 -8 0 -18 -40 -18 -40 -11 0 -10 0 12 12 12 12 0 7
0 8 -16 15 -15 16 11 0 11 0 6 -16 6 -16 13 23 13 24 1 8 0 8 -11 -6 -10 -7
-20 18 -19 17 0 9 0 8 10 0 10 0 0 -7z m403 -9 l6 -7 -11 -20 -11 -21 12 -4
11 -4 -4 -7 -5 -7 -3 -60 -3 -61 -17 5 -18 4 0 29 0 28 11 6 10 7 -2 26 -2 27
1 33 2 32 8 0 9 0 6 -6z m-88 -13 l5 -10 -10 -6 -10 -6 0 15 0 16 4 0 5 0 6
-9z m-1 -63 l5 -23 -8 -8 -9 -9 -4 31 -5 31 8 0 7 0 6 -22z m33 -15 l-5 -18 0
30 0 30 5 -12 5 -13 -5 -17z m-221 -25 l7 -11 -11 7 -12 7 0 -10 0 -9 10 -5
11 -5 -13 2 -13 3 -3 16 -3 17 10 0 10 0 7 -12z m104 -8 l0 -10 -7 0 -8 0 -15
10 -15 10 23 0 22 0 0 -10z m-182 -18 l-18 -3 0 -8 0 -7 10 -12 10 -12 -15 13
-16 13 6 17 7 16 16 -7 17 -6 -17 -4z m42 -22 l11 -20 -8 0 -8 0 -14 9 -14 9
7 11 7 11 4 0 4 0 11 -20z m230 -5 l0 -13 -14 -11 -14 -11 -5 22 -6 21 5 8 5
8 14 -6 15 -5 0 -13z m-170 0 l0 -15 -4 0 -4 0 -6 15 -5 15 9 0 10 0 0 -15z
m50 -11 l0 -15 -10 6 -10 6 0 15 0 15 10 -6 10 -6 0 -15z m60 -4 l0 -10 -10 0
-10 0 0 10 0 10 10 0 10 0 0 -10z m-153 -40 l2 -20 -14 13 -13 12 12 7 11 8 0
0 1 0 1 -20z m293 -10 l0 -20 -8 0 -8 0 -11 -37 -10 -38 -2 48 -1 48 10 -6 10
-6 -6 15 -6 16 16 0 16 0 0 -20z m-225 -19 l0 -14 13 -5 13 -4 -3 18 -3 19 14
0 14 0 2 -22 2 -23 -19 0 -19 0 6 -21 7 -22 -15 14 -15 14 5 8 4 7 -15 0 -15
0 5 15 6 15 -11 0 -11 0 0 11 0 10 18 -3 17 -3 0 -14z m55 -81 l0 -10 -10 0
-10 0 0 10 0 10 10 0 10 0 0 -10z m50 0 l0 -10 -10 0 -10 0 0 10 0 10 10 0 10
0 0 -10z"/>
<path d="M5130 4620 l0 -20 8 0 8 0 0 20 0 20 -8 0 -8 0 0 -20z"/>
<path d="M27 4683 l-7 -6 0 -11 0 -10 12 12 12 12 -5 5 -6 5 -6 -7z"/>
<path d="M46 4664 l-6 -17 5 -5 5 -5 6 17 6 17 -5 5 -5 5 -6 -17z"/>
<path d="M114 4668 l-8 -12 12 -4 12 -4 0 -19 0 -19 -14 0 -14 0 -4 11 -4 11
-19 -4 -20 -5 27 -11 26 -11 7 -11 7 -11 13 24 13 25 -5 26 -5 26 -9 0 -8 0
-7 -12z"/>
<path d="M5522 4673 l-32 -4 14 -21 14 -20 131 -117 130 -116 298 -274 298
-274 100 -98 100 -97 39 -36 39 -36 18 0 19 0 0 50 0 50 -19 93 -20 92 -15 85
-16 85 -10 145 -11 145 -9 159 -10 159 4 6 4 6 -136 0 -137 1 -355 6 -356 7
-24 4 -25 4 -33 -4z m695 -265 l-5 -13 -1 19 -1 19 6 -6 6 -6 -5 -13z"/>
<path d="M161 4654 l1 -19 5 13 5 13 -6 6 -6 6 1 -19z"/>
<path d="M7024 4638 l-5 -8 40 0 41 0 0 8 0 7 -36 1 -35 1 -5 -9z"/>
<path d="M4946 4632 l-6 -10 16 -17 16 -16 5 5 5 5 -15 21 -15 21 -6 -9z"/>
<path d="M160 4611 l0 -10 11 -6 10 -7 4 3 3 4 -14 13 -14 13 0 -10z"/>
<path d="M7085 4540 l0 -78 8 -8 7 -7 2 44 2 44 -2 25 -1 25 11 -19 11 -20 0
-105 0 -106 7 95 7 95 -3 10 -2 10 -6 27 -6 27 -18 10 -17 9 0 -78z"/>
<path d="M6965 4550 l6 -10 5 0 4 0 0 10 0 10 -11 0 -10 0 6 -10z"/>
<path d="M7081 4426 l-14 -16 4 -5 5 -4 13 8 13 9 -4 12 -4 12 -13 -16z"/>
<path d="M2022 4345 l0 -30 5 18 5 17 -5 13 -5 12 0 -30z"/>
<path d="M7132 4305 l0 -30 5 18 5 17 -5 13 -5 12 0 -30z"/>
<path d="M500 4240 l0 -10 10 0 10 0 0 10 0 10 -10 0 -10 0 0 -10z"/>
<path d="M5686 4133 l-7 -18 12 12 13 13 -6 5 -6 6 -6 -18z"/>
<path d="M6920 3715 l0 -55 10 0 10 0 0 55 0 55 -10 0 -10 0 0 -55z"/>
<path d="M966 3746 l6 -16 16 0 15 0 -4 3 -4 3 -18 13 -17 14 6 -17z"/>
<path d="M1000 3716 l0 -4 15 -12 15 -12 0 10 0 10 -15 6 -15 5 0 -3z"/>
<path d="M10 3543 l0 -146 4 4 5 5 2 41 3 42 9 -6 9 -6 -6 -43 -5 -43 19 -6
20 -6 0 -15 0 -14 10 0 10 0 0 14 0 14 6 16 6 16 -12 0 -11 0 6 -12 7 -13 -22
24 -21 25 15 8 15 8 31 -30 31 -31 -6 -29 -6 -28 -17 -7 -17 -6 -3 10 -4 11
-9 -6 -9 -5 17 -17 16 -17 5 13 4 12 16 0 17 0 -10 -8 -11 -7 13 -35 12 -35 0
18 1 18 10 -6 9 -6 -6 -14 -5 -15 9 0 10 0 41 -40 42 -39 0 6 0 7 20 -22 20
-21 0 -11 0 -11 8 5 8 5 29 -25 29 -25 8 16 9 15 -15 16 -16 15 0 17 0 16 15
-20 14 -19 1 8 0 8 21 -11 21 -12 -6 -24 -6 -24 10 0 10 0 0 15 0 15 10 0 10
0 0 -15 0 -15 9 0 10 0 6 10 6 10 8 0 8 0 -5 -25 -4 -25 -14 0 -14 0 0 10 0
10 -14 0 -14 0 -6 -16 -6 -16 1 -16 0 -17 7 17 7 17 20 -16 20 -16 -18 6 -17
7 11 -21 11 -21 4 5 5 5 25 -23 24 -22 0 -16 0 -15 29 -13 30 -13 -5 -8 -5 -7
26 -17 25 -16 0 -13 0 -14 15 -14 14 -15 -62 -10 -62 -11 -70 -6 -70 -6 -110
-4 -110 -5 -72 -4 -72 -4 -9 -6 -9 -5 5 -30 4 -30 15 14 15 15 17 10 18 9 -1
-22 -1 -22 -13 0 -13 0 -9 -15 -10 -15 0 -7 0 -8 15 0 15 0 0 13 0 14 15 0 15
0 0 -8 0 -8 -15 -15 -15 -15 0 -7 0 -6 12 9 13 9 20 -1 20 -1 37 -8 37 -8 77
17 76 17 11 -11 11 -11 8 0 9 0 -12 21 -11 21 11 11 11 11 0 13 0 13 -19 0
-20 0 -4 8 -5 7 64 -3 64 -4 0 15 0 14 41 -3 41 -4 17 9 17 9 1 -16 1 -17 -50
4 -51 3 -8 -13 -8 -13 -34 1 -35 1 -6 -22 -6 -21 0 -7 0 -7 32 -15 31 -16 9 0
8 0 0 17 0 16 20 -18 20 -18 0 -14 0 -13 -10 0 -10 0 0 10 0 10 -15 0 -15 0 0
-14 0 -13 -77 -7 -76 -6 -49 0 -48 0 0 8 0 8 33 1 32 2 83 0 82 0 0 12 0 12
-114 -5 -114 -4 -16 -13 -16 -13 0 -13 0 -12 167 4 167 3 18 17 19 17 -6 -17
-7 -16 54 0 53 1 36 -7 36 -7 6 16 6 16 -9 0 -9 0 -6 -10 -6 -10 -15 15 -15
15 -20 0 -19 0 0 9 0 9 16 6 15 6 -5 9 -6 9 6 16 6 16 32 -1 31 -2 -23 -4 -22
-4 5 -10 6 -9 -10 0 -11 0 0 -20 0 -20 55 0 55 0 0 -10 0 -10 -21 0 -20 0 6
-10 6 -10 60 0 60 0 -6 20 -6 19 30 -2 31 -2 0 -6 0 -7 -22 -7 -23 -8 29 -4
29 -5 8 14 9 13 9 -13 8 -14 54 9 54 9 -1 17 -2 17 13 0 13 0 -5 -21 -6 -22
56 5 56 5 -5 -9 -5 -8 9 0 10 0 6 26 7 26 -3 3 -3 2 -48 42 -48 41 -11 0 -10
0 12 -15 12 -15 -11 0 -11 0 0 10 0 10 -15 0 -15 0 0 10 0 10 -26 10 -25 10 5
9 6 9 -15 12 -15 12 0 11 0 11 17 -24 18 -25 -3 -7 -2 -8 14 0 15 0 5 8 5 9
-34 33 -33 32 -11 -6 -11 -7 6 14 5 13 -108 97 -108 97 -29 30 -29 30 -9 0 -8
0 0 -10 0 -9 18 -10 17 -10 -12 -1 -12 0 -6 10 -6 10 -10 -5 -9 -6 6 15 6 15
-24 -5 -23 -4 20 9 20 8 9 -5 9 -5 -5 14 -4 13 -25 7 -24 7 10 1 10 2 -34 29
-33 28 -14 -5 -14 -5 6 15 6 16 -70 68 -70 68 -59 55 -59 55 -40 35 -40 35
-10 16 -9 15 -54 44 -54 45 -51 47 -51 48 -7 0 -8 0 0 -147z m44 92 l20 -15
-7 -6 -7 -7 -17 14 -18 14 17 -21 18 -20 -12 -12 -12 -12 -9 0 -9 0 10 13 11
13 -9 14 -10 15 0 13 0 12 8 0 7 -1 19 -14z m32 -41 l-6 -16 0 -9 0 -9 -9 0
-9 0 3 18 3 17 1 8 1 7 11 0 11 0 -6 -16z m49 -54 l6 -10 -10 0 -10 0 -6 10
-6 10 10 0 10 0 6 -10z m50 -20 l6 -10 -10 0 -11 0 0 10 0 10 4 0 5 0 6 -10z
m-125 -10 l14 -9 -6 -7 -7 -6 -16 5 -15 6 0 11 0 10 8 0 7 0 15 -10z m95 -10
l6 -10 -20 0 -20 0 -6 10 -6 10 20 0 20 0 6 -10z m-72 -25 l-5 -16 -5 5 -5 5
7 10 6 11 4 0 4 0 -6 -15z m162 5 l6 -10 -16 0 -16 0 6 10 6 10 4 0 4 0 6 -10z
m-58 -25 l0 -14 -14 -5 -13 -5 0 7 0 8 12 12 12 12 1 0 2 0 0 -15z m73 -15
l15 -11 -30 7 -30 7 -4 3 -4 4 19 0 19 0 15 -10z m-25 -21 l7 -10 -6 -6 -5 -5
-16 16 -16 16 15 0 15 0 6 -11z m65 -45 l0 -4 -21 0 -20 0 6 10 6 9 14 -6 15
-5 0 -4z m60 -24 l0 -10 -12 0 -11 0 6 7 7 6 -18 14 -17 14 23 -11 22 -11 0
-9z m-107 -10 l5 -20 -9 6 -9 5 0 15 0 14 4 0 4 0 5 -20z m71 5 l5 -15 -8 0
-9 0 -6 15 -5 15 8 0 9 0 6 -15z m66 -26 l0 -10 -10 6 -10 6 0 10 0 10 10 -6
10 -6 0 -10z m-214 -26 l-6 -6 -6 6 -6 6 7 18 8 18 4 -18 5 -19 -6 -5z m237
12 l-5 -16 -5 5 -5 5 7 10 6 11 4 0 4 0 -6 -15z m-118 -5 l6 -10 -10 0 -11 0
0 10 0 10 4 0 5 0 6 -10z m-82 -50 l-5 -15 10 15 11 14 -5 11 -5 10 16 -20 16
-20 4 3 5 2 0 -7 0 -7 -33 -3 -34 -2 3 22 2 22 2 15 1 15 8 -20 8 -20 -4 -15z
m236 14 l7 5 11 -18 10 -17 -18 0 -19 0 0 13 0 13 -9 0 -9 0 -5 -12 -5 -13 -1
17 -1 16 13 5 12 4 3 -9 4 -8 7 4z m-93 -21 l-5 -5 -10 7 -11 6 0 11 0 10 15
-12 15 -13 -4 -4z m-68 -30 l-18 -4 0 -7 0 -7 30 -13 30 -14 0 -19 0 -19 -9 0
-10 0 -3 23 -3 22 -10 0 -10 1 -20 12 -20 12 15 10 15 10 15 -1 15 -1 -17 -5z
m252 -28 l34 -35 -12 0 -12 0 0 8 0 7 -30 20 -30 20 0 8 0 7 8 0 8 0 34 -35z
m-193 -47 l-5 -13 -1 19 -1 19 6 -6 6 -6 -5 -13z m178 -28 l18 -20 14 0 13 0
0 -20 0 -20 -14 0 -14 0 -16 6 -15 6 5 13 5 12 -20 6 -21 5 0 16 0 16 13 0 14
0 18 -20z m108 -8 l16 -18 -19 0 -19 0 4 5 5 4 -11 14 -11 13 9 0 10 0 16 -18z
m-29 -61 l6 -9 -20 -5 -20 -5 0 7 0 8 7 6 6 7 8 0 8 0 5 -9z m-74 -31 l0 -10
11 0 10 0 35 -36 34 -37 0 -3 0 -4 -18 0 -17 0 -13 20 -12 20 -25 0 -24 0 5
15 6 15 -11 0 -11 0 0 15 0 15 15 0 15 0 0 -10z m160 -14 l0 -5 -9 -6 -10 -5
-6 10 -6 10 15 0 16 0 0 -4z m-135 -76 l6 -10 -10 0 -11 0 0 10 0 10 4 0 5 0
6 -10z m285 -10 l0 -10 -4 0 -5 0 -6 10 -6 10 10 0 11 0 0 -10z m-60 -50 l0
-9 -15 5 -15 6 0 4 0 4 15 0 15 0 0 -10z m93 -2 l-8 -13 4 -19 3 -18 -11 6
-11 7 0 13 0 12 12 12 12 12 4 0 3 0 -8 -12z m83 -75 l-5 -13 8 0 9 0 5 13 5
12 1 -12 1 -12 -11 -7 -11 -6 -16 17 -17 18 13 -7 12 -7 0 8 0 9 -12 14 -13
14 18 -14 18 -13 -5 -14z m-56 -17 l0 -5 -10 -6 -10 -6 0 10 0 11 10 0 10 0 0
-4z m-110 -46 l0 -10 -16 0 -15 0 6 10 6 10 10 0 9 0 0 -10z m-70 -10 l0 -10
-10 0 -10 0 0 10 0 10 10 0 10 0 0 -10z m-60 -4 l0 -5 -9 -6 -10 -5 -6 10 -6
10 15 0 16 0 0 -4z m-450 -16 l0 -9 -15 5 -15 6 0 4 0 4 15 0 15 0 0 -10z m77
4 l-6 -6 -13 5 -13 5 19 1 19 1 -6 -6z m543 -3 l4 -1 -11 -11 -11 -11 -44 8
-43 7 25 8 25 7 25 -3 25 -3 5 -1z m71 -8 l14 -17 -18 7 -19 7 -9 0 -9 0 0 10
0 10 14 0 14 0 13 -17z m-366 -13 l6 -10 -20 0 -21 0 0 10 0 10 14 0 15 0 6
-10z m-395 -10 l0 -10 -4 0 -5 0 -6 10 -6 10 10 0 11 0 0 -10z m40 0 l0 -10
-10 0 -10 0 0 10 0 10 10 0 10 0 0 -10z m140 0 l0 -10 -10 0 -10 0 0 10 0 10
10 0 10 0 0 -10z m257 -16 l-6 -6 -10 7 -11 6 6 11 6 10 11 -11 11 -11 -7 -6z
m-297 7 l0 -10 -10 -6 -10 -6 -11 7 -11 7 13 8 14 9 8 0 7 0 0 -9z m490 -1 l0
-10 -20 0 -20 0 0 10 0 10 20 0 20 0 0 -10z m250 6 l0 -5 -10 -6 -10 -6 0 10
0 11 10 0 10 0 0 -4z m-208 -37 l-4 -31 -27 7 -26 7 -7 11 -7 12 37 11 37 12
1 1 1 1 -5 -31z m-279 10 l-11 -11 -43 10 -44 10 55 1 54 1 -11 -11z m92 1
l-6 -10 -15 0 -14 0 0 -9 0 -9 20 5 20 5 0 -11 0 -11 -23 0 -23 0 -12 12 -12
12 0 8 0 7 14 -5 14 -5 7 10 6 11 15 0 15 0 -6 -10z m373 -23 l17 6 -20 -16
-20 -15 -14 20 -14 20 14 9 14 8 3 -19 3 -19 17 6z m-858 13 l0 -10 -10 0 -10
0 0 10 0 10 10 0 10 0 0 -10z m952 -8 l25 5 0 -12 0 -12 -23 3 -23 2 -10 7
-11 6 0 12 0 12 9 -14 9 -14 24 5z m95 -46 l-6 -16 -16 6 -15 6 -14 -11 -14
-12 5 20 5 21 14 0 14 0 0 18 0 17 -9 -14 -8 -13 -7 11 -7 11 11 0 11 0 -7 13
-7 12 28 -27 28 -26 -6 -16z m-447 29 l0 -15 -22 1 -23 1 18 5 17 4 0 10 0 9
5 0 5 0 0 -15z m-186 -11 l6 -17 -4 -4 -4 -5 -12 21 -11 21 10 0 9 0 6 -16z
m346 8 l0 -9 -30 5 -30 4 0 4 0 4 30 0 30 0 0 -8z m-275 -32 l6 -10 -25 0 -26
0 0 10 0 10 19 0 20 0 6 -10z m215 1 l0 -9 -20 -5 -20 -5 0 7 0 8 7 6 6 7 14
0 13 0 0 -9z m200 -11 l15 -10 -27 0 -27 0 -6 10 -6 10 18 0 18 0 15 -10z"/>
<path d="M6920 3629 l0 -10 10 6 10 6 0 5 0 4 -10 0 -10 0 0 -11z"/>
<path d="M6941 3523 l1 -48 3 10 4 10 3 38 4 37 -8 0 -8 0 1 -47z"/>
<path d="M395 3078 l-7 -18 6 -15 5 -15 11 0 10 0 -1 13 0 12 -9 20 -8 20 -7
-17z"/>
<path d="M1860 2910 l-15 -10 12 0 12 0 6 10 6 10 -3 0 -3 0 -15 -10z"/>
<path d="M1095 2670 l-6 -10 10 0 10 0 6 10 6 10 -10 0 -10 0 -6 -10z"/>
<path d="M20 2578 l0 -8 20 0 20 0 0 8 0 8 -20 0 -20 0 0 -8z"/>
<path d="M116 2561 l-6 -9 30 -11 30 -10 0 10 0 9 -15 0 -15 0 0 10 0 10 -9 0
-10 0 -5 -9z"/>
<path d="M20 2540 l0 -10 20 0 20 0 0 10 0 10 -20 0 -20 0 0 -10z"/>
<path d="M70 2541 l0 -10 10 -6 10 -6 0 15 0 16 -10 0 -10 0 0 -9z"/>
<path d="M155 2510 l-6 -10 16 0 16 0 -6 10 -6 10 -4 0 -4 0 -6 -10z"/>
<path d="M2650 1216 l0 -134 17 -13 17 -14 -8 20 -8 20 -5 110 -4 110 13 -15
13 -15 28 -18 27 -17 0 5 0 6 -45 45 -45 44 0 -134z"/>
<path d="M2707 1234 l6 -15 11 4 12 5 -1 -24 -2 -24 -6 -7 -7 -6 0 19 -1 19
-14 -25 -15 -25 2 -58 1 -57 -6 -7 -7 -6 0 12 0 12 -10 -6 -9 -6 5 -14 6 -15
9 6 9 5 0 -10 0 -11 -10 0 -10 0 0 -39 0 -40 -10 -6 -10 -6 1 -22 1 -22 8 25
8 25 1 -17 1 -18 10 0 10 0 0 -17 0 -18 -10 15 -10 15 4 -65 4 -65 3 -30 3
-30 5 70 6 70 18 -32 17 -33 0 -5 0 -5 0 -35 0 -35 25 -10 25 -10 0 -9 0 -10
-9 -6 -10 -5 5 -98 4 -97 1 -20 1 -20 14 55 14 55 -10 28 -9 27 20 0 20 0 -6
10 -6 10 -22 1 -22 1 30 8 30 8 -18 1 -19 1 5 13 5 12 11 -3 11 -2 0 10 0 11
-15 5 -16 6 10 12 10 12 7 84 7 84 8 -19 8 -20 0 53 1 53 -9 -5 -8 -5 20 40
20 40 13 -19 13 -19 37 -28 37 -29 -7 12 -7 12 15 -6 15 -6 -5 -11 -4 -12 25
-27 25 -27 0 -6 0 -5 -19 3 -20 3 -33 35 -33 35 -20 9 -20 8 -12 3 -13 2 0 -8
0 -9 23 -6 22 -7 53 -51 52 -51 0 11 0 11 20 5 20 5 0 19 0 18 10 15 11 15 -7
-27 -6 -27 16 -23 16 -22 0 -13 0 -12 -15 5 -15 6 0 -9 0 -9 35 -34 35 -34 0
17 0 17 -15 0 -15 0 -1 10 -2 10 -1 12 -1 11 18 3 19 2 -6 -14 -5 -14 24 -6
25 -6 0 -14 0 -14 14 0 15 0 6 -10 6 -10 -16 6 -15 6 6 -16 7 -17 13 5 14 5 0
-7 0 -7 21 -14 22 -13 8 13 7 13 17 2 16 2 -3 -16 -3 -16 -25 -7 -25 -7 20 -2
20 -2 15 1 15 0 -12 -5 -13 -6 0 -9 0 -9 21 0 20 0 20 10 19 11 0 -9 0 -10
-22 -7 -23 -6 30 -14 30 -14 20 3 20 3 -12 -4 -12 -4 5 -14 5 -13 -11 -7 -12
-8 13 -8 13 -8 17 9 17 10 12 -15 12 -15 -11 0 -11 0 0 11 0 10 -11 -6 -11 -7
30 -29 29 -29 53 -7 53 -8 5 -14 5 -14 -27 7 -26 6 0 -9 0 -9 23 -6 22 -6 17
23 18 22 0 11 0 12 -20 5 -20 5 0 17 0 17 18 -13 17 -14 40 -41 40 -40 6 0 6
1 61 -61 61 -61 -17 0 -16 0 -18 21 -17 21 -1 12 0 12 -25 -3 -25 -3 -7 -6 -6
-7 24 -1 24 0 -20 -9 -20 -9 -12 0 -13 -1 0 15 0 15 -10 0 -10 0 -27 30 -26
30 -9 0 -8 0 0 -8 0 -8 40 -30 40 -29 0 -7 0 -8 -16 0 -15 0 6 -10 7 -11 15
13 16 13 -7 -20 -6 -21 33 -19 32 -19 18 -20 18 -20 6 22 5 22 19 0 19 0 0 10
0 10 -4 0 -5 0 -24 -9 -25 -10 5 22 4 22 -14 -18 -14 -17 -17 6 -17 7 3 16 3
16 19 3 18 4 22 -21 22 -21 10 10 11 11 13 -16 12 -15 -10 -13 -10 -12 13 -18
13 -18 15 21 14 20 17 -6 17 -6 15 -29 15 -29 -21 0 -20 0 0 -13 0 -13 13 -13
12 -12 -25 4 -25 4 13 -4 12 -4 0 -15 0 -14 23 -1 22 -1 -25 -8 -25 -8 45 0
45 0 -17 5 -18 4 0 10 0 9 -17 0 -18 0 11 8 11 7 6 15 6 15 6 -22 7 -22 13 5
13 5 7 -10 6 -11 9 5 9 6 -6 17 -6 17 16 -20 16 -20 1 12 0 12 -53 53 -53 53
-108 100 -108 100 -50 48 -49 48 -12 -7 -12 -7 8 8 7 9 -47 48 -47 48 -7 0 -7
0 -6 -16 -6 -15 9 6 10 5 6 -10 6 -10 -26 0 -26 0 6 10 6 10 -15 0 -15 0 -6
21 -7 20 -14 -12 -14 -12 -8 8 -7 8 13 4 13 5 -18 15 -18 15 18 -6 18 -6 -6 9
-5 10 10 6 10 6 -1 -8 -1 -8 1 -12 1 -13 14 0 15 0 14 -20 14 -20 6 7 7 6 0 6
0 7 -76 63 -75 64 -12 -12 -11 -11 17 0 17 0 1 -12 1 -13 -1 -15 -2 -15 9 13
9 13 14 -17 14 -18 -12 7 -11 7 -5 -12 -4 -13 -16 14 -17 13 0 13 0 13 -12 10
-13 10 -22 6 -23 7 0 -14 0 -15 -22 -6 -23 -6 -7 0 -8 0 0 10 0 10 14 0 15 0
23 23 24 22 -4 20 -4 20 15 -20 16 -20 -10 -3 -9 -4 0 -9 0 -9 19 0 20 0 7 12
7 11 -29 24 -29 23 -5 0 -5 0 -15 -10 -15 -10 14 -9 14 -9 -16 -16 -15 -16 2
35 3 35 -18 5 -19 6 0 11 0 10 26 -17 26 -17 6 6 5 6 -4 3 -4 2 -31 17 -32 18
-6 -16 -6 -16 -13 4 -12 5 -6 34 -5 34 -10 -34 -10 -35 -13 -4 -12 -4 -6 20
-5 21 -14 5 -14 5 0 16 0 16 22 -21 22 -20 8 0 8 0 0 13 0 13 -12 13 -13 14
13 4 12 5 -62 62 -63 62 -18 7 -18 7 4 8 5 7 -12 15 -11 15 -22 19 -23 19 -15
-13 -16 -13 22 -24 22 -23 -5 0 -6 0 -32 14 -33 13 12 8 12 7 -16 18 -17 18
21 12 21 11 0 -9 0 -8 -11 -11 -11 -11 11 -6 10 -7 11 20 10 20 -22 15 -22 15
-13 -11 -13 -10 0 10 0 11 10 6 11 7 -25 19 -25 20 -6 -1 -7 -1 -17 20 -18 21
-5 -5 -5 -6 -26 10 -26 10 6 -15z m56 -38 l6 -15 -15 6 -14 5 0 9 0 9 9 0 9 0
5 -14z m60 -41 l-5 -16 -5 5 -5 5 7 10 6 11 4 0 4 0 -6 -15z m-86 -47 l-5 -13
-1 19 -1 19 6 -6 6 -6 -5 -13z m30 -50 l-5 -13 -1 19 -1 19 6 -6 6 -6 -5 -13z
m-41 -15 l-6 -6 -6 6 -6 6 8 12 8 13 4 -13 4 -12 -6 -6z m254 -7 l0 -5 -10 -6
-10 -6 0 10 0 11 10 0 10 0 0 -4z m-37 -68 l5 -13 11 15 11 15 0 -28 0 -28 10
6 10 6 0 -10 0 -11 -15 0 -15 0 0 16 0 16 -20 -5 -20 -5 0 9 0 9 -1 8 -1 7 -9
16 -8 16 -26 -4 -25 -5 0 12 0 11 20 -6 20 -6 0 12 0 12 24 -26 24 -26 5 -13z
m24 36 l-6 -6 -13 5 -13 5 19 1 19 1 -6 -6z m43 -44 l0 -10 -10 0 -10 0 0 10
0 10 10 0 10 0 0 -10z m40 -11 l0 -9 -10 0 -10 0 0 16 0 15 10 -6 10 -6 0 -10z
m-363 -41 l-5 -13 -1 19 -1 19 6 -6 6 -6 -5 -13z m378 12 l-6 -10 -12 0 -12 0
15 10 15 10 3 0 3 0 -6 -10z m-295 -80 l9 0 -6 17 -6 16 10 -6 11 -7 15 15 16
15 4 0 4 0 0 -15 0 -14 -9 5 -8 5 0 -11 0 -11 -9 6 -10 5 -6 -21 -7 -21 11
-11 11 -11 0 -14 0 -13 -10 6 -10 6 0 -50 0 -51 -15 0 -15 0 0 65 0 65 -10 0
-10 0 0 11 0 10 10 -6 10 -6 0 10 0 11 -8 0 -8 0 1 28 0 27 10 11 10 12 3 -39
3 -39 9 0z m250 30 l0 -10 -10 0 -10 0 0 10 0 10 10 0 10 0 0 -10z m-300 -21
l0 -10 -10 6 -10 6 0 10 0 10 10 -6 10 -6 0 -10z m446 -86 l-6 -6 -6 6 -6 6 8
12 8 13 4 -13 4 -12 -6 -6z m47 -34 l12 -1 8 1 7 1 0 -4 0 -4 -6 -16 -6 -16
-14 0 -14 0 0 14 0 14 -16 6 -16 6 -19 0 -19 0 0 9 0 10 33 3 32 3 3 -12 3
-13 12 -1z m343 -226 l13 -18 1 -10 0 -10 -9 14 -9 14 -11 -22 -12 -21 16 -6
15 -6 -6 -9 -5 -9 -10 5 -9 6 0 -12 0 -11 -15 12 -16 13 14 16 14 16 7 12 7
13 -15 -6 -16 -6 0 15 0 15 13 5 12 5 4 1 4 1 13 -17z m312 -293 l13 -21 -6
-10 -6 -9 -10 6 -9 5 6 10 6 10 -12 14 -12 15 8 0 9 0 13 -20z m125 -115 l18
-25 -21 0 -20 0 0 16 0 15 -10 -6 -10 -6 6 15 6 16 7 0 6 -1 18 -24z"/>
<path d="M2672 1185 l0 -30 5 18 5 17 -5 13 -5 12 0 -30z"/>
<path d="M3185 830 l6 -10 5 0 4 0 0 10 0 10 -11 0 -10 0 6 -10z"/>
<path d="M3027 792 l-17 -19 0 -6 0 -7 17 0 16 0 -6 7 -7 6 12 14 11 13 -5 5
-5 5 -16 -18z"/>
<path d="M2672 668 l4 -12 12 -4 12 -4 -6 16 -6 16 -10 0 -10 0 4 -12z"/>
<path d="M3130 671 l0 -11 16 0 15 0 -6 -10 -6 -10 10 0 10 0 24 -26 25 -26 5
10 6 9 -37 30 -37 29 -12 8 -13 7 0 -10z"/>
<path d="M2708 628 l12 -12 0 -10 0 -10 -12 12 -12 12 -5 0 -6 0 -1 -54 0 -55
8 5 8 5 0 -11 0 -11 9 6 10 5 6 -10 6 -10 -6 -20 -6 -20 -10 5 -9 6 0 -10 0
-11 10 0 10 0 0 -19 0 -20 -10 -6 -10 -6 0 23 0 23 -9 13 -8 14 -7 -17 -6 -17
1 -31 0 -32 8 -20 8 -20 -10 -22 -10 -23 -8 0 -8 0 -4 22 -4 23 6 -45 5 -45
-1 -38 -1 -37 9 0 9 0 0 10 0 10 9 0 9 0 -3 -33 -3 -32 -1 -7 -1 -8 -11 0 -10
0 6 23 6 22 -11 -18 -11 -17 15 -31 15 -30 -5 -17 -6 -17 10 14 10 13 5 -13 5
-14 1 17 1 17 -10 6 -10 6 0 20 0 19 8 0 7 -1 18 -24 18 -25 -6 -10 -6 -10 15
0 16 0 0 10 0 10 -1 6 -1 5 17 26 17 26 -8 6 -9 6 -3 65 -3 65 -8 10 -8 10 3
105 3 105 1 35 0 35 -8 2 -7 3 1 40 1 40 -21 0 -20 0 12 -12z m9 -100 l-5 -13
-1 19 -1 19 6 -6 6 -6 -5 -13z m-7 -159 l0 -9 -15 0 -15 0 0 21 0 21 15 -12
15 -12 0 -9z m-3 -76 l-5 -18 0 30 0 30 5 -12 5 -13 -5 -17z m13 -53 l0 -18
-12 -5 -13 -4 8 -9 8 -8 9 14 9 14 7 -19 8 -20 0 -32 0 -33 -12 -12 -11 -11 5
39 5 39 -16 -30 -15 -30 3 33 4 32 -8 0 -7 0 -6 17 -7 16 11 11 10 10 0 19 0
18 10 -6 10 -6 0 -19z"/>
<path d="M2651 573 l1 -58 3 10 3 10 5 48 5 47 -9 0 -9 0 1 -57z"/>
<path d="M3280 540 l53 -50 6 0 7 0 12 12 12 12 0 -13 0 -12 10 6 10 6 0 10 0
9 -32 -2 -31 -3 -5 13 -4 12 -11 0 -12 0 -19 25 -19 25 -15 0 -15 0 53 -50z"/>
<path d="M2821 503 l-13 -14 6 -6 6 -7 11 11 11 11 -3 10 -4 10 -14 -15z"/>
<path d="M2650 500 l0 -10 10 0 10 0 0 10 0 10 -10 0 -10 0 0 -10z"/>
<path d="M3360 470 l0 -9 9 -6 10 -5 5 9 6 9 -15 6 -15 5 0 -9z"/>
<path d="M2640 416 l0 -55 8 -4 7 -5 -2 49 -2 49 9 0 10 0 0 10 0 10 -15 0
-15 0 0 -54z"/>
<path d="M2836 452 l-5 -8 10 -14 9 -15 0 23 0 22 -4 0 -5 0 -5 -8z"/>
<path d="M3390 445 l0 -5 30 -27 30 -28 13 -10 13 -10 23 -20 24 -20 -18 28
-18 28 -19 10 -19 10 7 11 7 11 -12 -7 -12 -8 -14 12 -15 12 6 9 5 9 -15 0
-16 0 0 -5z"/>
<path d="M2853 350 l0 -55 4 28 4 27 -4 28 -4 27 0 -55z"/>
<path d="M3634 389 l-6 -11 25 -24 26 -24 9 -17 10 -17 15 12 15 13 5 -13 4
-13 9 8 8 8 -14 9 -14 9 -10 -6 -9 -6 6 16 6 16 -14 -5 -13 -6 -12 22 -12 22
-15 -6 -15 -6 6 15 5 15 -4 0 -4 0 -7 -11z"/>
<path d="M2780 359 l0 -10 10 6 10 6 0 5 0 4 -10 0 -10 0 0 -11z"/>
<path d="M3530 320 l0 -10 10 0 10 0 0 10 0 10 -10 0 -10 0 0 -10z"/>
<path d="M2797 305 l-6 -14 9 -6 10 -6 0 20 0 21 -4 0 -4 0 -5 -15z"/>
<path d="M3570 300 l0 -10 10 0 10 0 0 10 0 10 -10 0 -10 0 0 -10z"/>
<path d="M3592 283 l-13 -5 17 -19 17 -19 13 11 14 11 -5 9 -6 8 -16 -6 -16
-6 7 11 7 12 -3 -1 -3 -1 -13 -5z"/>
<path d="M2848 248 l-2 -33 1 -55 1 -55 -8 35 -9 35 3 -35 3 -35 8 -19 8 -19
-12 8 -13 7 11 -21 12 -21 -11 0 -10 0 0 -8 0 -9 13 0 13 0 2 129 3 128 -6 0
-5 0 -2 -32z"/>
<path d="M2787 264 l-7 -7 0 -21 0 -21 20 -25 19 -25 -13 40 -14 40 6 10 6 10
8 -25 7 -25 -2 24 -2 24 -11 4 -10 3 -7 -6z"/>
<path d="M3630 232 l0 -7 20 -13 20 -12 0 8 0 8 -12 12 -12 12 -8 0 -8 0 0 -8z"/>
<path d="M3680 191 l0 -10 21 -6 20 -7 -5 -14 -5 -14 15 0 15 0 26 -30 25 -30
20 -11 20 -11 20 20 20 20 -11 6 -11 7 -6 -15 -6 -16 -10 0 -9 0 2 18 1 17 -1
19 -1 18 -25 -6 -25 -6 -25 24 -24 24 -21 7 -20 6 0 -10z"/>
<path d="M3869 138 l-12 -23 22 19 21 19 0 -9 0 -10 -12 -12 -12 -12 11 0 11
0 13 16 13 16 -15 9 -14 9 -7 0 -7 0 -12 -22z"/>
<path d="M3875 20 l6 -10 10 0 10 0 -6 10 -6 10 -10 0 -10 0 6 -10z"/>
<path d="M4035 20 l-6 -10 15 0 16 0 0 10 0 10 -9 0 -10 0 -6 -10z"/>
</g>
</svg>
