<?xml version="1.0" standalone="no"?>
<!DOCTYPE svg PUBLIC "-//W3C//DTD SVG 20010904//EN"
 "http://www.w3.org/TR/2001/REC-SVG-20010904/DTD/svg10.dtd">
<svg version="1.0" xmlns="http://www.w3.org/2000/svg"
   viewBox="0 0 127.000000 70.000000"
 preserveAspectRatio="xMidYMid meet">
<metadata>
Created by potrace 1.16, written by Peter Selinger 2001-2019
</metadata>
<g transform="translate(0.000000,70.000000) scale(0.100000,-0.100000)"
fill="#000000" stroke="none">
<path d="M2 664 l-1 -34 13 0 14 0 12 15 13 16 13 -5 13 -5 5 10 5 10 -3 -13
-3 -13 -19 3 -19 3 19 -16 20 -15 -10 0 -10 0 -13 13 -13 12 4 -15 5 -15 39
-2 39 -1 25 27 25 27 -14 -18 -14 -18 7 -7 7 -7 8 13 8 13 4 -3 4 -2 23 7 22
7 0 9 0 8 6 15 5 15 -119 0 -119 -1 -1 -33z m84 19 l-4 -5 -16 -2 -15 -2 -19
-17 -19 -17 0 14 0 15 11 -2 11 -2 -2 10 -1 10 29 1 30 2 -5 -5z m21 -15 l-5
-13 -1 19 -1 19 6 -6 6 -6 -5 -13z m26 7 l-5 -16 -5 5 -5 5 7 10 6 11 4 0 4 0
-6 -15z m84 -1 l0 -12 -14 5 -13 5 0 7 0 8 13 0 14 0 0 -13z m-96 -47 l-12
-12 7 18 6 18 6 -6 6 -5 -13 -13z"/>
<path d="M604 690 l-21 -5 -31 -36 -32 -36 7 -7 6 -6 -13 0 -13 0 6 -7 7 -6
-10 -12 -10 -12 -10 -49 -10 -49 -3 -10 -3 -10 -5 -10 -6 -10 -7 -27 -6 -28
10 0 10 0 1 13 1 12 -1 7 -1 7 20 6 20 6 -6 10 -6 10 -16 -13 -17 -13 15 19
14 18 3 17 3 16 2 28 1 28 8 -13 9 -13 1 15 2 15 3 25 4 25 2 12 1 12 8 -5 8
-5 -6 -17 -7 -17 17 14 17 13 -5 9 -5 8 26 -5 27 -5 -13 15 -12 16 -8 -5 -9
-5 -7 11 -7 12 13 -8 13 -8 -8 13 -8 13 13 -8 13 -8 -7 11 -7 12 26 10 27 10
11 -7 12 -7 13 -2 12 -2 0 9 0 9 11 0 10 0 -8 -12 -7 -13 -1 -15 0 -15 -12 3
-13 2 0 -16 0 -16 25 16 26 17 10 -7 11 -7 9 14 9 14 0 -14 0 -14 20 23 20 23
-5 7 -4 7 14 0 15 0 0 -21 0 -21 -8 12 -8 12 -13 -20 -12 -21 9 6 10 6 4 -31
5 -30 -9 -5 -8 -5 5 -9 5 -9 -10 -6 -10 -6 0 -8 0 -9 23 -6 22 -6 -17 -14 -18
-13 0 -15 0 -14 33 0 32 1 -1 22 0 22 17 -10 18 -9 5 0 6 0 -1 18 -1 17 -4
-12 -5 -12 -25 11 -24 11 13 15 12 16 -12 -8 -13 -7 7 17 6 16 -21 -6 -20 -7
-7 10 -6 11 15 -6 16 -6 0 9 0 9 -12 13 -13 14 13 -7 12 -7 0 10 0 9 -12 5
-13 5 13 1 12 1 0 26 0 25 9 -6 10 -5 6 9 5 10 22 -4 22 -5 10 -10 10 -10 8 0
8 0 0 9 0 9 -49 17 -50 16 -103 -2 -103 -3 -21 -6z m140 -12 l-5 -8 10 0 9 0
6 13 6 12 -3 -20 -2 -20 -6 5 -6 5 -18 -15 -19 -15 9 14 8 14 -16 -6 -17 -6 0
7 0 8 10 10 11 11 14 0 14 0 -5 -9z m83 -153 l2 -20 3 -20 3 -20 -15 0 -15 -1
-8 3 -7 4 15 15 15 15 -12 19 -12 19 -10 -6 -9 -6 6 9 6 10 18 0 19 0 1 -21z"/>
<path d="M1179 684 l-11 -14 12 -31 13 -31 24 -9 24 -9 14 0 14 0 -2 20 -1 20
-9 0 -9 0 5 -13 5 -14 -13 0 -13 0 6 16 6 16 -16 -13 -15 -12 -13 15 -13 16
23 22 24 22 -17 -21 -17 -21 0 -7 0 -7 35 28 35 28 0 5 0 5 -40 1 -40 1 -11
-13z m31 2 l0 -4 -17 -13 -18 -14 14 18 13 17 4 0 4 0 0 -4z"/>
<path d="M608 672 l-18 -7 21 -14 22 -13 -7 17 -6 18 15 -13 16 -13 -11 -11
-10 -10 -12 12 -12 12 -10 0 -11 -1 19 -14 18 -14 -7 -11 -7 -11 -13 5 -13 5
-17 -19 -18 -20 -10 7 -10 6 7 -11 7 -12 -15 -32 -15 -33 -5 -27 -5 -28 10 -6
11 -6 -21 -20 -21 -19 5 -9 5 -8 -14 -5 -13 -5 -7 -27 -7 -26 -36 -57 -36 -57
-39 -34 -38 -33 -12 -1 -13 0 -47 1 -48 2 0 14 0 15 -17 5 -18 5 -44 6 -44 7
7 -10 6 -10 -19 5 -19 5 -7 -12 -7 -11 11 -13 11 -13 -17 -14 -18 -14 15 19
15 19 -15 -5 -15 -5 -3 -30 -3 -31 23 -8 23 -8 6 1 6 2 0 -13 0 -13 -13 0 -13
0 4 8 5 7 -15 6 -15 5 0 -8 0 -9 13 -10 12 -9 48 -7 47 -7 0 11 0 11 -10 -6
-10 -6 0 10 0 10 23 7 22 7 8 11 9 11 -5 -17 -6 -16 15 -19 14 -18 -6 18 -6
17 20 0 20 0 11 13 11 14 27 -2 28 -2 10 6 10 6 29 0 29 0 5 13 4 12 -44 -6
-43 -6 -28 -3 -28 -3 -18 -16 -18 -16 0 14 0 15 6 -2 6 -1 21 12 21 11 5 -4 5
-5 18 20 18 20 13 0 13 0 7 12 7 11 -13 -8 -13 -8 7 12 7 11 10 -5 9 -6 0 13
0 13 9 -14 8 -13 16 23 16 22 -5 9 -5 8 11 0 11 0 -6 10 -6 9 20 12 19 13 -2
10 -3 11 4 -8 5 -7 8 5 9 6 -6 14 -5 15 11 14 11 13 -7 7 -7 6 25 -4 24 -3 13
9 12 10 0 11 0 11 -12 -12 -12 -12 -18 0 -18 0 0 9 0 9 18 -3 17 -2 13 10 12
9 0 10 0 10 -14 -11 -14 -12 -8 12 -7 12 13 -8 13 -8 -7 11 -6 10 16 -2 16 -2
9 -15 9 -14 0 14 0 14 -17 14 -18 15 20 -6 20 -6 -16 13 -16 12 13 12 13 12 4
-12 4 -12 0 28 1 27 -25 -27 -25 -28 10 20 9 20 -2 18 -3 17 9 -6 9 -5 1 28 2
28 4 -25 5 -25 9 -10 10 -10 9 15 9 14 6 -6 6 -6 -14 -13 -13 -14 -6 -23 -7
-24 15 6 15 6 -7 -48 -7 -47 -1 -20 -2 -20 -18 -28 -19 -28 7 -6 7 -7 6 22 5
22 9 -6 9 -5 -7 -12 -7 -12 -4 -15 -3 -15 -1 -12 -1 -12 -11 6 -11 7 11 -15
11 -14 0 -17 0 -18 -11 0 -11 0 -15 10 -14 9 8 8 9 8 4 -13 5 -12 9 6 9 5 0
11 0 11 -6 -6 -7 -6 -16 8 -16 9 -12 -24 -11 -24 16 0 17 0 14 -9 15 -9 -13
-16 -13 -16 6 0 6 0 -10 -26 -10 -26 12 4 11 4 4 24 4 24 15 24 15 23 -2 22
-3 22 9 35 8 35 2 25 2 25 8 79 7 78 -11 -6 -11 -7 0 9 0 10 14 5 13 5 5 47 6
46 14 17 15 17 7 29 7 30 10 -15 11 -14 -5 15 -4 15 -10 0 -11 0 -8 8 -7 7 -6
-1 -6 0 -17 -7z m19 -77 l-19 -13 -3 -19 -3 -18 -1 -12 -1 -11 -20 5 -20 5 6
9 5 9 9 -5 9 -5 6 10 6 10 -18 1 -18 1 -8 -1 -8 -1 6 9 6 10 14 -5 15 -6 22
25 23 26 5 -6 5 -5 -18 -13z m-243 -420 l-6 -15 -9 0 -9 0 0 9 0 9 13 5 12 5
2 1 2 1 -5 -15z m-214 -48 l0 -12 -9 14 -8 13 -7 -11 -7 -11 -10 0 -9 0 0 11
0 10 9 -6 10 -5 6 10 6 10 10 -5 9 -6 0 -12z m37 -18 l-2 -7 10 2 10 1 -2 6
-2 6 27 -5 27 -6 -20 -4 -20 -4 -11 -9 -11 -9 -17 18 -16 19 14 0 15 0 -2 -8z
m-104 -74 l-5 -16 -5 5 -5 5 7 10 6 11 4 0 4 0 -6 -15z"/>
<path d="M842 657 l-9 -12 -6 -17 -6 -16 6 -6 6 -5 18 10 19 10 0 -10 0 -11
-25 -6 -25 -6 20 -25 19 -24 -6 -15 -5 -14 15 0 16 0 7 12 7 11 -15 -5 -14 -6
0 28 0 27 16 -4 16 -4 0 -44 -1 -44 -12 -13 -13 -12 0 15 0 14 -19 -28 -19
-29 -6 10 -6 10 -20 -5 -20 -5 0 -10 0 -9 10 6 10 6 0 -10 0 -11 -12 0 -13 0
14 -9 15 -9 -11 -14 -12 -13 1 -68 0 -67 8 0 8 0 -3 17 -2 18 8 17 9 17 -9 5
-9 6 2 13 2 12 8 13 8 13 -6 6 -5 6 10 20 11 19 -10 -6 -10 -6 6 22 5 22 6
-15 6 -14 15 0 15 0 -3 20 -4 20 17 -20 16 -20 -11 22 -10 23 14 -6 15 -6 -4
-19 -4 -19 10 -6 10 -6 -7 -20 -6 -21 11 7 11 7 0 20 0 19 -11 0 -10 0 6 10 6
10 8 70 7 70 -7 0 -8 0 11 31 11 31 -15 14 -14 14 -21 5 -22 4 -9 -12z m59
-12 l10 -7 -9 -11 -9 -12 2 -16 3 -16 -14 0 -14 0 0 9 0 8 11 0 11 0 -12 14
-11 15 -15 -6 -14 -5 0 12 0 11 12 -7 11 -7 -6 16 -6 16 20 -4 19 -4 11 -6z
m-44 -70 l0 -14 -9 5 -8 5 5 10 6 9 3 0 3 0 0 -15z"/>
<path d="M870 640 l0 -10 15 0 15 0 0 4 0 4 -15 6 -15 5 0 -9z"/>
<path d="M1235 645 l-30 -27 15 8 15 8 13 2 14 2 5 6 5 5 -4 12 -4 12 -29 -28z"/>
<path d="M870 549 l0 -10 10 6 10 6 0 5 0 4 -10 0 -10 0 0 -11z"/>
<path d="M547 428 l13 -15 -7 -6 -6 -7 12 0 12 0 -11 -20 -11 -21 -9 6 -10 6
5 -14 6 -13 -21 -19 -20 -18 0 7 0 7 -21 -12 -21 -11 5 -19 5 -19 -15 -16 -15
-15 4 -5 5 -5 24 22 24 21 -15 -7 -15 -6 18 14 18 15 -10 6 -9 6 -5 -10 -5
-11 2 13 3 13 14 1 14 0 19 -9 18 -9 11 11 11 11 2 28 2 28 5 30 5 31 -22 13
-21 13 12 -15z m10 -87 l-1 -20 -7 5 -8 4 -6 -10 -6 -10 18 0 18 0 -15 -10
-15 -9 -3 9 -4 10 -11 -7 -12 -7 25 31 25 32 2 0 2 1 -2 -19z"/>
<path d="M860 410 l0 -12 -15 6 -15 5 -11 -21 -11 -20 14 5 13 5 -2 8 -1 9 23
0 24 0 -14 -22 -15 -22 0 -7 0 -6 14 11 14 12 8 -12 7 -12 -11 7 -10 6 -4 -10
-3 -11 -15 -2 -15 -3 -11 -6 -11 -7 0 14 0 14 10 -2 10 -2 4 13 5 12 -11 0
-10 0 -8 -12 -7 -13 -2 -12 -2 -13 9 -6 9 -5 -11 -21 -11 -20 13 4 12 4 3 18
2 18 8 6 7 7 -6 -17 -6 -16 14 -6 14 -5 6 9 5 8 -12 5 -13 5 13 13 13 14 -3
-14 -3 -13 16 -3 16 -3 12 20 12 19 -21 -11 -20 -11 0 10 0 10 20 6 20 6 0 9
0 8 -17 -2 -18 -1 2 22 2 21 -14 12 -15 12 0 -12z"/>
<path d="M840 369 l0 -10 10 6 10 6 0 5 0 4 -10 0 -10 0 0 -11z"/>
<path d="M902 288 l-12 -12 0 8 0 8 -15 -12 -15 -12 0 -10 0 -10 15 12 15 12
0 -8 1 -9 14 19 15 20 0 -11 0 -11 15 -5 14 -6 7 12 7 12 -8 -8 -8 -7 -17 15
-16 15 -12 -12z"/>
<path d="M502 285 l7 -8 -16 -28 -17 -29 -13 0 -13 0 0 -8 0 -9 15 0 15 0 0 8
0 7 20 5 20 5 0 -14 0 -13 -15 5 -15 6 -10 -26 -10 -26 -5 0 -6 0 6 23 7 22
-12 -12 -13 -12 6 -15 6 -16 11 0 10 0 10 25 10 26 20 -11 20 -10 -6 15 -6 15
10 0 10 0 6 15 5 15 -12 -3 -12 -2 0 18 0 18 -20 11 -20 11 7 -8z m23 -25 l-7
-11 14 -17 13 -17 -17 13 -17 14 -13 -8 -13 -7 19 21 19 22 4 0 4 0 -6 -10z"/>
<path d="M1150 280 l0 -11 9 6 10 5 6 -9 6 -10 -21 4 -21 4 -14 -6 -15 -5 0
-10 0 -10 18 13 17 14 -13 -17 -13 -17 -15 6 -15 5 5 -25 4 -25 -13 2 -13 2
-13 11 -14 10 -29 7 -28 7 -23 -15 -22 -15 2 -25 3 -25 -6 0 -7 1 -5 -2 -5 -2
-18 -3 -18 -3 11 13 12 14 10 -2 11 -2 5 14 5 14 -14 -9 -14 -8 15 19 15 20
20 17 20 17 -20 -3 -20 -3 -11 8 -11 9 -23 -3 -22 -3 -8 -14 -9 -14 17 -13 17
-13 -20 7 -20 7 14 -18 14 -17 16 6 16 6 -12 -12 -13 -13 -23 22 -24 22 -17
-19 -17 -19 10 -6 10 -6 8 15 9 16 20 -23 19 -23 -17 14 -17 13 -11 -7 -10 -6
6 -10 5 -9 8 4 8 5 0 -15 0 -14 -21 19 -21 20 -13 -8 -13 -8 13 -10 13 -10 28
-7 27 -6 0 17 0 18 8 -11 7 -11 18 3 17 2 0 -9 0 -9 15 0 15 0 0 11 0 10 -10
-6 -10 -6 0 11 0 12 14 -5 15 -6 4 7 4 7 -3 -12 -3 -11 26 -7 26 -6 7 11 8 12
6 -11 7 -11 15 0 15 0 9 23 9 22 0 -14 1 -13 14 11 14 12 17 -18 18 -17 16 -3
16 -3 21 5 22 5 16 34 16 34 0 14 -1 13 -13 -25 -14 -25 1 27 2 26 5 0 5 0 13
1 12 1 0 15 0 15 -16 0 -15 0 7 -12 7 -11 -11 6 -10 7 5 18 4 18 -23 1 -23 2
-22 6 -23 5 0 -10z m-224 -52 l-1 -21 -13 -3 -12 -2 10 5 10 5 0 10 0 10 -15
-5 -14 -6 -6 9 -5 9 22 4 23 4 1 2 1 1 -1 -22z m100 -20 l9 7 -8 -10 -9 -10
-2 5 -3 5 -18 -15 -19 -15 9 14 8 14 -19 -6 -19 -7 19 15 19 15 12 -10 12 -10
9 8z m30 -20 l7 -13 -8 8 -8 7 -18 -16 -17 -15 -8 12 -7 12 10 -6 11 -7 12 15
12 15 4 0 3 0 7 -12z m15 -31 l-11 -14 6 -6 7 -6 -23 4 -23 4 -5 6 -5 5 11 1
12 2 9 1 9 1 8 8 7 7 5 0 4 0 -11 -13z m-64 -29 l-5 -13 -1 19 -1 19 6 -6 6
-6 -5 -13z m190 7 l23 2 -6 -6 -6 -6 -27 -1 -28 0 0 13 0 13 11 -9 11 -8 22 2z"/>
<path d="M818 256 l-18 -13 7 -6 6 -7 13 11 12 10 7 -11 6 -10 -15 -1 -16 -1
-10 -3 -10 -2 -11 -2 -10 -1 3 -27 3 -26 15 -5 15 -5 -15 18 -15 19 11 -7 11
-7 18 20 18 20 6 -5 7 -4 1 20 2 19 -10 0 -10 0 6 10 6 10 -8 0 -8 -1 -17 -13z
m7 -46 l-6 -10 -17 1 -17 0 20 9 20 9 3 0 3 1 -6 -10z"/>
<path d="M420 230 l-2 -5 -3 -19 -4 -19 -20 -28 -21 -28 0 -8 0 -8 11 15 11
15 -4 -14 -4 -14 -25 -3 -24 -3 13 5 12 6 0 10 0 11 -18 -16 -19 -17 -10 0
-11 0 -13 -17 -14 -17 11 7 12 7 40 5 41 5 6 -10 7 -11 -11 -13 -11 -13 -27 2
-28 2 -10 -6 -10 -6 -29 0 -29 0 -4 -12 -5 -13 36 0 37 0 6 16 6 16 8 -13 7
-12 60 -4 61 -3 5 9 6 9 19 -5 18 -5 6 24 6 23 1 10 2 10 9 12 10 11 -8 5 -8
4 -17 -2 -18 -3 0 9 0 10 -8 -5 -9 -5 -13 23 -12 24 6 10 5 9 -14 19 -14 19
-1 -5z m14 -45 l-6 -15 -10 0 -10 0 12 15 12 15 4 0 3 0 -5 -15z m9 -42 l-3
-12 20 -6 20 -6 0 -10 0 -10 23 11 22 11 -18 -14 -18 -15 9 -3 8 -4 -13 -25
-13 -25 0 19 0 20 -14 -19 -13 -18 -17 -3 -16 -2 0 9 0 10 -12 -8 -13 -7 -12
-2 -13 -2 0 8 0 8 18 8 17 7 8 2 7 3 5 2 5 3 9 1 9 1 9 9 8 9 -27 -5 -27 -5 5
8 5 9 16 0 16 0 19 -17 18 -16 0 10 0 11 -14 11 -14 12 -20 4 -21 4 -11 -15
-12 -14 -10 6 -9 6 11 13 11 13 -2 8 -1 9 1 6 1 6 23 -1 22 -2 -2 -11z"/>
<path d="M407 137 l5 -8 -12 -14 -12 -15 4 0 4 0 22 24 21 25 -19 -2 -19 -1 6
-9z"/>
<path d="M453 64 l-6 -16 -7 12 -7 12 -7 -10 -6 -10 15 -6 15 -5 10 19 11 20
-6 0 -6 0 -6 -16z"/>
<path d="M1070 209 l0 -10 10 6 10 6 0 5 0 4 -10 0 -10 0 0 -11z"/>
<path d="M1110 130 l0 -10 11 0 10 0 -6 10 -6 10 -5 0 -4 0 0 -10z"/>
<path d="M135 20 l6 -10 10 0 9 0 0 10 0 10 -16 0 -15 0 6 -10z"/>
</g>
</svg>
