<?xml version="1.0" standalone="no"?>
<!DOCTYPE svg PUBLIC "-//W3C//DTD SVG 20010904//EN"
 "http://www.w3.org/TR/2001/REC-SVG-20010904/DTD/svg10.dtd">
<svg version="1.0" xmlns="http://www.w3.org/2000/svg"
   viewBox="0 0 133.000000 120.000000"
 preserveAspectRatio="xMidYMid meet">
<metadata>
Created by potrace 1.16, written by Peter Selinger 2001-2019
</metadata>
<g transform="translate(0.000000,120.000000) scale(0.100000,-0.100000)"
fill="#9E1A1A" stroke="none">
<path d="M270 1190 l0 -11 10 6 10 6 0 -10 0 -11 -8 0 -8 0 -11 11 -11 11 -8
-34 -8 -33 -3 -30 -2 -30 -4 -36 -4 -36 -8 -13 -7 -12 10 -10 10 -10 -1 18 -2
19 13 1 12 2 13 1 13 1 0 18 0 17 7 35 7 35 -7 -15 -6 -15 -15 -9 -14 -8 13
-9 14 -9 -17 0 -18 0 0 -11 0 -10 12 7 11 7 -7 -11 -7 -12 -10 0 -9 0 0 19 0
19 15 12 15 13 -11 13 -11 14 11 0 11 0 0 -12 1 -13 19 40 19 40 1 16 0 16 31
-5 32 -5 -7 12 -7 11 5 0 5 0 25 -10 25 -9 6 9 6 10 -8 1 -8 0 -24 5 -24 4
-13 -11 -14 -11 0 9 0 9 -30 2 -30 2 0 -10z m10 -34 l0 -4 -15 -6 -15 -5 0 9
0 10 15 0 15 0 0 -4z m-4 -28 l-1 -13 -8 -2 -7 -3 -12 0 -13 1 19 14 20 15 2
0 2 0 -2 -12z"/>
<path d="M445 1190 l20 -9 8 0 7 -1 0 8 0 8 -27 1 -28 2 20 -9z"/>
<path d="M772 1182 l11 -12 -17 6 -17 7 -20 -21 -19 -21 16 -9 17 -9 -12 -7
-11 -7 0 10 0 10 -17 -6 -18 -6 -28 -26 -28 -25 5 -13 5 -12 -13 5 -12 5 -25
-23 -24 -23 -18 -25 -18 -25 7 15 7 15 -26 -24 -27 -25 6 -20 5 -21 -10 15
-11 15 -6 -22 -6 -23 -17 0 -18 0 -13 -25 -13 -25 -13 0 -13 0 6 -17 6 -16 19
23 18 22 0 -9 0 -9 28 -2 27 -2 11 -15 12 -16 6 16 5 15 23 1 23 1 -18 5 -17
5 6 11 6 12 -19 -22 -18 -22 -17 13 -18 13 0 7 0 7 20 -6 20 -6 0 15 0 16 10
0 10 0 0 19 0 19 23 -4 22 -4 -12 6 -13 6 0 15 0 15 15 -12 16 -13 12 13 12
13 -17 -6 -18 -6 3 12 2 12 -13 -3 -13 -2 6 10 6 10 12 -7 12 -7 16 -1 16 -1
-5 19 -5 19 32 -16 31 -17 0 8 0 8 9 -14 10 -15 -11 -19 -10 -19 6 -5 6 -6
-11 -14 -11 -13 16 0 16 0 1 23 1 22 4 20 5 20 2 32 2 31 7 -4 8 -5 0 18 0 19
-12 12 -12 12 13 0 13 0 -6 15 -5 15 8 -3 7 -2 30 30 31 30 1 8 2 7 0 11 0 10
10 -6 10 -6 0 9 0 10 -24 -2 -24 -1 10 -13z m-2 -27 l0 -3 -14 -12 -15 -12 2
20 1 20 13 -5 13 -5 0 -3z m-77 -66 l-11 -11 -7 13 -8 12 11 -7 12 -7 0 12 0
12 7 -6 7 -7 -11 -11z m-20 -35 l-18 -13 18 -1 19 0 -4 -12 -5 -13 -13 0 -13
0 -3 17 -2 18 9 6 9 5 -5 10 -6 9 16 -6 16 -6 -18 -14z m-10 -53 l14 -11 7 5
6 5 -9 -11 -9 -11 -21 7 -21 6 6 11 7 11 -15 -5 -15 -6 -14 9 -14 9 32 -4 33
-3 13 -12z m-69 -22 l-5 -9 -10 6 -9 5 6 10 5 9 10 -6 9 -5 -6 -10z m-88 -108
l-16 -15 -6 6 -6 7 6 9 5 9 16 0 16 0 -15 -16z m-52 -16 l-6 -15 -10 6 -10 7
13 8 14 9 2 0 2 0 -5 -15z"/>
<path d="M1039 1191 l25 -7 2 -12 3 -12 -6 10 -5 10 -33 0 -33 0 -5 -13 -5
-12 34 1 34 2 0 -9 0 -9 -22 5 -23 6 -20 -16 -20 -17 17 6 17 5 -21 -35 -20
-35 5 -33 5 -34 -15 -21 -14 -21 2 -51 3 -50 -15 -11 -14 -10 19 6 20 7 -18
-20 -17 -19 11 -7 10 -6 -4 -8 -5 -7 -20 -51 -20 -51 29 2 29 2 -5 -8 -5 -8
10 0 11 0 1 23 1 22 -1 8 -1 8 15 5 15 6 -6 10 -6 9 -21 -18 -22 -18 19 22 19
23 8 -6 9 -5 0 16 0 17 -17 -6 -17 -7 18 20 18 20 -7 11 -7 11 -14 -12 -14
-11 6 -9 5 -9 -16 6 -16 6 23 17 23 16 8 -3 7 -2 0 30 0 30 1 5 0 5 9 27 9 28
15 48 15 48 -9 -6 -10 -6 -1 -17 -1 -17 -5 13 -5 13 12 14 12 15 15 0 14 0 -5
-8 -5 -9 12 -1 12 -1 30 -7 30 -7 -10 11 -10 11 -22 4 -22 3 -8 7 -7 7 20 14
19 14 -6 6 -5 6 -22 -20 -21 -20 -6 10 -6 10 -8 -4 -7 -5 -14 10 -15 9 34 -5
34 -6 -13 15 -12 16 17 6 16 7 22 -10 22 -10 25 3 25 4 -13 -8 -13 -9 16 -13
15 -12 1 8 1 9 -1 8 -1 8 16 22 16 22 -5 -17 -6 -17 16 -12 15 -13 16 -2 15
-3 7 -11 7 -12 7 1 6 1 13 0 12 0 -15 -10 -15 -9 -9 9 -10 10 -8 0 -8 0 0 -19
0 -19 -37 18 -36 17 -21 -5 -21 -6 18 -4 18 -4 -5 -15 -6 -15 12 5 13 4 -3 13
-3 13 13 -10 13 -10 23 -6 22 -5 10 16 9 17 1 -12 0 -13 20 0 19 0 10 18 10
17 1 -13 0 -13 11 6 10 7 -18 13 -18 14 17 6 17 7 -1 29 -1 29 -13 0 -12 0 -4
11 -4 12 -77 5 -78 5 -13 -18 -13 -18 -8 13 -8 13 11 -7 12 -7 0 11 0 12 -13
-5 -13 -5 -19 14 -19 14 -20 -1 -21 -1 24 -7z m234 -32 l17 0 0 -11 0 -11 -7
6 -6 7 -15 -13 -16 -12 8 13 7 12 -9 0 -10 0 -12 -15 -12 -15 23 -1 24 -1 8 1
8 1 -6 -10 -6 -10 18 0 18 0 -15 -10 -15 -9 -3 9 -4 10 -10 -6 -11 -7 7 12 8
12 -26 -5 -26 -5 5 10 6 9 -10 0 -11 0 0 10 0 10 8 -2 7 -3 0 10 0 10 -13 2
-14 1 -5 6 -6 5 39 -5 39 -5 18 0z m-133 -15 l32 5 -6 -7 -7 -6 -17 -3 -17 -3
-22 5 -23 5 0 11 0 11 14 -11 15 -12 31 5z m-123 -26 l-5 -13 -1 19 -1 19 6
-6 6 -6 -5 -13z m-5 -52 l11 7 -7 -12 -7 -11 -10 5 -9 6 1 12 1 12 5 -13 5
-12 10 6z m-22 -21 l13 -15 -17 6 -16 6 0 9 0 9 4 0 4 0 12 -15z m14 -57 l-5
-8 -9 5 -9 6 6 15 6 16 8 -13 8 -13 -5 -8z m-25 -40 l-24 -20 17 5 17 6 -4
-21 -4 -21 -7 -6 -7 -6 6 18 6 17 -8 0 -9 0 -6 -12 -5 -13 3 22 2 21 12 14 12
15 -7 7 -7 7 18 -7 18 -7 -23 -19z m-8 -91 l-12 -12 7 18 6 18 6 -6 6 -5 -13
-13z"/>
<path d="M1055 1110 l-6 -10 10 0 11 0 0 10 0 10 -4 0 -5 0 -6 -10z"/>
<path d="M1174 1112 l8 -13 -12 -14 -12 -15 11 0 11 0 8 -1 7 -1 11 -9 12 -10
6 17 6 16 -25 -4 -25 -5 10 12 10 12 -17 14 -17 14 8 -13z"/>
<path d="M1086 1082 l-16 -19 27 3 28 2 14 1 13 1 -12 15 -12 15 -13 0 -12 0
-17 -18z"/>
<path d="M1286 1015 l-16 -24 0 -6 0 -6 12 7 11 7 -8 -12 -7 -13 -11 11 -10
10 14 17 14 18 -18 -7 -19 -7 -4 0 -5 0 9 -17 10 -18 -4 -32 -4 -33 10 0 10 0
-2 11 -3 12 15 4 15 5 -11 -9 -11 -8 3 -17 2 -18 -8 -5 -9 -6 5 -17 6 -17 -10
13 -9 14 -6 -15 -5 -15 11 -12 12 -13 -13 7 -12 7 -6 -16 -6 -16 6 -7 7 -6 9
14 10 15 0 -13 0 -14 -20 -5 -20 -5 0 -15 0 -15 15 12 15 12 0 -5 0 -6 -16
-15 -15 -16 13 0 13 -1 -18 -13 -18 -14 -1 -9 0 -8 -10 -25 -10 -25 -3 -40 -4
-40 -7 -34 -7 -34 18 7 19 7 -19 -21 -18 -20 9 0 10 0 10 10 11 11 0 -15 0
-15 -9 5 -8 5 0 -11 0 -11 -9 6 -10 5 -7 -22 -8 -23 -2 -45 -1 -45 -41 -87
-41 -86 -18 -11 -18 -10 15 -1 15 0 -15 -10 -15 -10 -8 0 -8 0 5 9 5 8 -25 -5
-25 -4 3 -3 3 -2 33 -11 33 -11 -5 8 -5 7 27 16 27 16 8 1 7 1 0 5 0 5 0 12 0
12 -14 -20 -14 -19 -8 8 -7 7 11 0 12 0 0 15 0 15 10 0 10 0 0 18 1 17 16 20
16 20 -6 -17 -6 -16 5 -5 5 -5 33 8 34 7 -3 -11 -3 -11 -7 -22 -7 -22 -15 -5
-14 -6 5 -9 6 -8 -21 -19 -21 -19 -6 3 -6 3 -2 -16 -2 -15 -16 -16 -16 -15 0
6 0 6 9 18 10 18 -19 -2 -20 -1 -7 -9 -8 -8 11 6 11 6 0 -14 0 -15 -17 15 -17
16 -11 -14 -12 -14 8 -8 7 -8 -12 7 -13 7 0 -10 0 -11 8 -1 7 -1 47 -3 48 -2
-7 11 -6 11 20 -18 20 -17 17 0 17 0 15 36 15 36 5 35 4 36 -13 -9 -13 -9 18
17 19 17 -3 50 -3 51 -10 1 -10 2 -13 19 -13 18 -11 -6 -11 -7 7 12 8 12 19
-17 19 -17 0 9 0 10 -12 13 -13 12 18 -6 17 -7 0 17 0 16 -12 -7 -11 -7 7 12
7 11 10 -5 9 -6 0 10 0 10 -9 5 -8 5 -7 -6 -7 -7 -13 -2 -13 -2 3 27 2 26 2 5
2 5 -1 8 -1 8 9 -5 10 -6 6 11 7 10 13 -5 14 -5 -3 25 -3 24 -6 7 -7 6 16 25
17 26 4 65 3 64 6 41 5 41 4 38 4 37 10 33 11 32 5 54 5 55 11 12 10 12 -9 6
-10 6 -16 -25z m-43 -317 l-8 -13 -1 -7 -1 -8 -2 -6 -1 -5 -11 6 -10 7 17 19
17 19 4 0 4 0 -8 -12z m-9 -64 l5 -13 -16 6 -16 6 7 -11 7 -12 -10 0 -11 0 0
18 0 19 15 0 14 0 5 -13z m4 -35 l-3 -10 -10 -1 -10 0 -11 -9 -11 -9 0 16 0
15 19 -4 18 -5 0 9 0 9 6 0 6 0 -4 -11z m-22 -44 l-15 -16 5 -17 6 -17 -11 15
-11 15 0 -14 0 -14 -6 5 -6 6 17 26 17 26 10 0 9 0 -15 -15z m-39 -289 l8 -8
-15 4 -15 3 2 -12 3 -12 -17 6 -17 7 12 4 12 4 -5 8 -5 8 15 -2 14 -2 8 -8z
m33 -28 l0 -8 -21 0 -20 0 5 8 5 9 16 0 15 0 0 -9z m-14 -140 l7 -11 -10 6
-10 6 -22 -15 -21 -15 6 -10 6 -10 20 18 21 18 -14 -22 -14 -23 -5 0 -6 0 -18
13 -18 14 33 21 34 22 2 0 2 0 7 -12z m-151 -57 l5 -10 -8 -5 -9 -5 0 14 0 15
3 0 3 0 6 -9z"/>
<path d="M230 971 l0 -4 17 -21 17 -21 -14 12 -14 13 -15 -14 -16 -15 -7 0 -8
-1 0 -7 0 -8 9 0 9 0 8 -7 7 -8 14 0 13 0 0 16 0 15 9 -5 9 -6 6 23 6 22 0 12
0 13 -25 -2 -25 -2 0 -5z m10 -51 l0 -10 -11 0 -10 0 6 10 6 10 5 0 4 0 0 -10z"/>
<path d="M165 936 l-30 -13 -13 5 -13 4 -15 -6 -15 -6 6 -10 6 -10 22 11 22
10 -17 -14 -18 -14 8 -8 7 -8 -22 14 -23 14 0 7 0 8 -32 0 -33 0 15 -9 14 -10
7 4 6 5 19 -23 19 -22 -19 15 -18 14 -24 3 -24 4 0 -10 0 -9 13 -5 12 -5 -15
-11 -15 -11 16 0 17 0 6 16 6 15 10 -6 10 -6 -6 -11 -6 -10 20 11 21 11 20 0
20 0 7 12 7 11 -14 -8 -14 -9 15 18 14 18 26 11 25 10 7 1 6 1 8 8 7 7 -14 0
-14 -1 -30 -13z"/>
<path d="M656 924 l-7 -27 -12 12 -11 11 -13 0 -13 0 0 -17 0 -18 10 15 9 15
13 -13 12 -12 14 0 13 0 -6 10 -6 10 11 20 11 20 -10 0 -9 0 -6 -26z"/>
<path d="M147 904 l-6 -7 5 -8 5 -9 24 0 24 0 6 10 6 10 -15 -6 -16 -6 0 11 0
11 -13 0 -14 0 -6 -6z"/>
<path d="M1240 888 l0 -8 9 0 10 0 5 8 5 9 -14 0 -15 0 0 -9z"/>
<path d="M547 876 l-6 -15 14 6 15 5 -6 9 -5 9 -4 0 -3 0 -5 -14z"/>
<path d="M564 854 l-19 -15 12 5 11 6 4 -12 4 -12 6 22 6 22 -2 0 -2 0 -20
-16z"/>
<path d="M640 861 l0 -6 20 -13 20 -12 0 12 0 11 6 -5 6 -6 -12 -21 -11 -22
-10 7 -10 6 5 14 5 14 -9 0 -10 0 0 -31 0 -30 10 -19 10 -20 -16 7 -17 6 6 -9
6 -10 -9 -14 -8 -14 -16 14 -16 13 -6 -6 -6 -5 22 -12 22 -12 20 18 19 18 -3
-14 -3 -15 -9 -7 -10 -6 14 -19 14 -18 -13 12 -13 11 -14 -5 -14 -5 6 -9 5 -9
10 5 9 6 -7 -17 -6 -17 10 6 11 7 -8 -35 -8 -34 7 -6 6 -7 -13 4 -14 3 -11
-17 -12 -17 11 -11 11 -11 31 -5 31 -5 20 18 21 17 0 8 0 8 -11 0 -10 0 7 -12
7 -11 -11 7 -12 7 0 15 0 14 -14 0 -14 0 -5 14 -6 15 16 -6 15 -6 -11 21 -11
21 0 12 0 13 16 -20 16 -19 -9 20 -8 20 0 71 0 71 14 17 13 16 -5 14 -5 13
-26 5 -26 5 0 -6z"/>
<path d="M607 843 l-7 -6 0 -11 0 -10 12 12 12 12 -5 5 -6 5 -6 -7z"/>
<path d="M409 803 l-12 -13 -12 10 -13 11 -21 -22 -21 -22 12 -14 11 -13 5 4
5 5 19 -10 19 -10 -6 -10 -6 -9 -10 0 -9 0 0 16 0 15 -11 -7 -11 -7 -9 14 -9
14 -15 -19 -14 -19 6 -11 6 -11 -14 13 -13 12 -10 0 -11 0 15 -10 14 -9 -17
-7 -17 -6 6 -10 6 -9 -19 -5 -20 -5 -16 -28 -16 -28 2 -4 2 -4 -12 14 -12 14
-7 -16 -6 -17 -11 7 -10 6 6 -9 6 -10 -30 -13 -29 -13 0 -14 0 -14 -16 0 -16
0 -27 -29 -27 -29 26 -15 26 -16 14 9 15 10 -16 0 -17 0 -12 15 -12 15 11 0
11 0 0 -9 0 -10 25 2 24 2 1 10 0 10 -22 0 -21 0 -4 13 -5 12 9 0 9 0 12 -12
12 -12 0 8 0 8 14 -11 13 -11 24 1 24 0 38 -1 37 0 0 11 0 10 -8 -5 -8 -5 -14
9 -14 9 -13 -10 -12 -11 -18 4 -18 3 19 19 19 19 -6 -17 -7 -18 12 4 11 4 2
25 2 24 -4 7 -4 7 -33 -36 -33 -36 -8 13 -8 13 11 -7 11 -6 27 34 28 35 13
-11 13 -10 0 7 0 7 46 -26 46 -26 9 6 9 5 -6 -14 -5 -15 -19 5 -18 5 -7 -12
-8 -13 49 8 49 8 30 1 30 0 23 -8 22 -7 0 15 0 15 10 6 10 6 -2 -13 -3 -13 45
-2 45 -1 18 -1 18 -1 -6 -10 -6 -10 10 0 11 0 0 8 -1 7 -15 20 -15 20 -6 -3
-7 -3 -2 16 -2 15 8 -5 8 -5 5 14 6 14 18 -4 19 -5 2 25 2 25 -11 7 -11 7 6
-21 7 -20 -12 -8 -12 -7 7 11 7 12 -23 0 -23 0 15 -10 15 -10 -7 -1 -8 -1 -9
-2 -9 -1 -29 -30 -30 -30 -14 -3 -14 -2 20 15 20 16 -27 -5 -28 -5 -5 10 -6 9
-15 0 -14 0 0 -10 0 -10 15 0 15 0 0 -10 0 -10 -9 0 -10 0 -6 10 -6 10 -11 -6
-11 -7 5 15 6 15 -34 1 -33 1 -5 -8 -6 -8 -25 5 -25 4 0 7 0 8 6 6 7 6 18 -9
18 -10 6 10 6 10 -21 0 -21 0 5 9 6 9 -26 0 -26 0 12 -8 13 -8 -7 -10 -6 -10
-25 11 -25 12 0 13 0 13 10 -6 10 -6 1 13 1 13 -1 15 -2 15 10 -15 10 -14 -7
-11 -6 -10 17 14 17 13 0 10 0 9 -12 -7 -13 -7 8 9 9 9 6 0 7 0 26 27 27 26
-11 11 -11 11 39 -19 40 -19 4 11 4 12 10 19 9 19 -16 -6 -16 -6 0 15 0 16 25
-5 26 -4 -17 18 -16 18 19 -5 20 -5 0 14 0 14 -14 0 -13 0 -11 -14z m-39 -33
l-14 -9 -5 5 -5 5 14 9 14 9 5 -5 5 -5 -14 -9z m20 -235 l0 -3 -29 -4 -29 -4
5 11 4 12 25 -5 24 -4 0 -3z m165 -5 l6 -10 -15 6 -16 6 0 4 0 4 9 0 10 0 6
-10z"/>
<path d="M537 778 l-18 -31 5 -4 5 -5 16 32 16 32 -3 3 -3 4 -18 -31z"/>
<path d="M447 752 l-17 -47 15 19 15 20 26 -14 25 -14 -15 -11 -15 -11 10 -15
9 -14 0 17 0 17 10 6 11 7 14 -12 14 -12 15 37 16 37 15 -5 14 -6 5 8 5 8 -17
-2 -17 -1 -17 -8 -18 -8 0 -19 0 -19 -5 0 -4 0 -25 12 -26 11 6 23 6 22 -19
11 -19 10 -17 -47z m43 7 l0 -9 -15 0 -15 0 0 8 0 9 6 6 7 6 8 -5 9 -5 0 -10z"/>
<path d="M462 711 l-14 -8 1 -9 1 -9 -16 0 -15 0 -9 -14 -8 -15 -16 13 -16 13
0 -8 0 -8 -12 12 -12 12 -14 0 -13 0 6 -9 5 -9 31 -7 30 -7 -5 -31 -6 -32 9
20 8 20 8 -24 7 -23 -13 -9 -14 -9 13 0 13 0 5 15 6 15 12 -6 11 -5 -17 14
-18 14 0 7 0 7 16 -3 17 -3 4 13 5 12 -26 -10 -26 -10 0 8 1 7 13 17 12 17 29
-15 28 -14 -12 14 -12 15 11 20 11 21 -3 0 -3 0 -13 -9z"/>
<path d="M570 684 l0 -15 10 6 10 6 -5 10 -6 9 -5 0 -4 0 0 -16z"/>
<path d="M970 681 l0 -19 -15 -12 -15 -12 0 11 0 11 -31 0 -30 0 6 -10 6 -10
10 6 10 6 -6 -31 -5 -30 17 5 18 6 -14 -10 -14 -10 -14 5 -14 5 12 14 11 14
-10 0 -10 0 -6 -16 -6 -16 6 -9 5 -9 -15 -6 -16 -6 0 -22 -1 -21 -14 -19 -15
-20 0 -18 0 -18 11 0 11 0 -5 13 -5 13 19 12 19 12 0 -10 0 -10 -10 0 -10 0 2
-7 2 -8 -12 -21 -11 -21 6 -7 6 -6 -12 0 -12 0 6 -10 6 -10 -10 -1 -11 -1 -11
-2 -10 -1 -25 -24 -24 -24 9 26 10 25 -5 5 -5 5 13 -1 13 0 15 1 15 2 13 21
13 21 -12 -7 -12 -8 6 9 6 10 -10 14 -10 15 3 -17 3 -17 -9 1 -9 0 -9 -16 -9
-16 -19 0 -19 0 6 -16 6 -15 -27 7 -26 6 -6 -15 -6 -16 -14 6 -14 5 0 -10 0
-10 -19 5 -19 5 -8 -13 -7 -12 16 6 16 6 13 -17 13 -16 -15 9 -15 9 -15 2 -15
2 -21 7 -21 6 -17 -25 -17 -26 26 -10 26 -10 32 3 32 3 23 -8 24 -8 10 6 11 7
-17 9 -16 9 -9 -6 -10 -5 -5 9 -6 9 25 4 24 5 -6 -10 -6 -10 12 4 13 5 1 9 2
10 -22 10 -23 10 0 8 0 8 19 -11 20 -10 7 0 6 0 -12 15 -13 15 7 7 6 6 0 -11
0 -11 21 4 21 4 -18 -20 -18 -19 11 -11 12 -11 26 -1 26 0 -5 -4 -4 -5 -26 -2
-26 -3 0 9 0 9 -11 -6 -10 -7 5 -6 6 -5 -11 -13 -10 -12 8 -5 8 -5 35 -5 35
-4 -17 4 -18 4 1 17 1 17 5 -13 5 -13 16 13 16 13 -9 -14 -8 -14 17 6 18 7 -6
-15 -5 -15 27 1 27 0 -19 8 -20 8 10 5 9 5 43 -9 42 -9 -5 -10 -6 -9 17 0 18
0 -12 12 -12 12 0 8 0 9 20 -11 20 -11 0 35 0 35 -9 5 -8 5 3 -27 4 -27 -9 25
-8 25 11 10 11 10 4 15 3 15 8 32 8 32 -9 46 -9 47 11 20 11 20 -6 24 -6 24
10 0 11 0 -6 10 -6 10 -10 -5 -9 -6 6 15 6 16 9 -6 9 -5 0 15 0 14 6 16 6 16
-11 0 -11 0 0 -19z m-35 -50 l5 -10 -10 -6 -10 -6 0 15 0 16 4 0 5 0 6 -9z
m-12 -62 l-11 -11 2 -12 3 -11 -4 8 -5 7 -9 0 -9 0 0 -14 0 -14 13 -5 12 -4
-14 -16 -13 -17 8 -1 9 -1 8 1 8 1 -6 -10 -6 -10 -9 5 -9 6 -9 -18 -9 -18 4
-12 5 -13 -16 0 -17 0 16 31 16 31 -5 15 -6 15 -18 -6 -17 -6 19 14 18 15 -8
12 -7 12 12 -7 12 -8 -3 18 -3 19 17 0 17 0 7 8 7 7 6 0 5 0 -11 -11z m37 -4
l0 -15 -10 0 -9 0 5 15 6 15 4 0 4 0 0 -15z m-12 -88 l-2 -24 -11 0 -12 0 11
24 11 23 2 0 3 0 -2 -23z m-8 -49 l0 12 11 0 10 0 -8 -12 -7 -13 -2 -10 -1
-10 -1 -18 -2 -19 -12 5 -13 4 -17 -8 -17 -9 -7 12 -7 11 11 -7 11 -7 18 20
17 20 8 -5 8 -5 0 9 0 9 -7 6 -7 7 -25 -22 -25 -23 25 31 24 31 7 -11 8 -11 0
13z m-140 -22 l0 -4 -16 -6 -15 -6 6 10 6 10 10 0 9 0 0 -4z m66 -21 l-6 -15
-7 -17 -6 -16 11 7 11 6 7 -11 7 -12 -11 7 -12 7 0 -15 0 -16 -11 0 -11 0 6
18 6 17 -21 -25 -22 -25 7 23 7 22 -10 0 -10 0 -15 -16 -16 -15 0 13 0 13 10
15 9 15 13 1 13 0 12 -8 11 -9 7 11 6 10 -10 0 -10 0 5 15 6 15 15 0 15 0 -6
-15z m48 -60 l-16 -25 -4 0 -3 0 -7 12 -7 11 10 -6 11 -7 5 20 5 20 11 0 11 0
-16 -25z m-334 1 l0 -4 -16 -6 -15 -6 6 10 6 10 10 0 9 0 0 -4z m44 -27 l-4
-7 -18 -4 -19 -5 0 11 0 11 23 0 22 0 -4 -6z m256 -29 l0 -10 -4 0 -5 0 -6 10
-6 10 10 0 11 0 0 -10z m-150 -10 l0 -10 -11 0 -10 0 6 10 6 10 5 0 4 0 0 -10z"/>
<path d="M876 511 l-6 -10 9 -5 10 -6 5 9 6 10 -9 5 -10 6 -5 -9z"/>
<path d="M515 670 l6 -10 5 0 4 0 0 10 0 10 -11 0 -10 0 6 -10z"/>
<path d="M315 650 l6 -10 10 0 10 0 -6 10 -6 10 -10 0 -10 0 6 -10z"/>
<path d="M547 638 l-6 -22 3 -4 4 -4 7 21 6 21 10 0 9 0 0 -11 0 -10 11 7 11
7 -13 8 -14 9 -11 0 -12 0 -5 -22z"/>
<path d="M505 640 l6 -10 10 0 10 0 -6 10 -6 10 -10 0 -10 0 6 -10z"/>
<path d="M336 621 l-17 -19 12 -8 12 -7 -6 10 -7 11 14 11 13 11 6 -7 7 -6 0
11 0 12 -8 0 -9 0 -17 -19z"/>
<path d="M471 616 l4 -3 33 -17 32 -17 0 5 0 5 -30 16 -29 15 -7 0 -7 0 4 -4z"/>
<path d="M357 589 l13 -13 5 6 6 6 -18 6 -18 7 12 -12z"/>
<path d="M450 590 l0 -10 11 0 10 0 -6 10 -6 10 -5 0 -4 0 0 -10z"/>
<path d="M480 575 l0 -15 10 0 9 0 -5 15 -6 15 -4 0 -4 0 0 -15z"/>
<path d="M579 553 l-14 -16 23 12 22 12 0 4 0 5 -9 0 -9 0 -13 -17z"/>
<path d="M216 543 l-6 -6 0 -8 0 -7 25 -4 25 -5 12 14 12 15 -19 -3 -20 -4
-11 7 -11 7 -7 -6z"/>
<path d="M1237 503 l6 -16 -13 8 -13 8 9 -14 8 -14 2 -32 1 -33 -8 0 -7 0 -5
13 -5 12 -23 -24 -24 -24 15 9 15 8 -13 -16 -13 -16 10 -6 10 -6 14 20 14 20
16 -6 16 -6 0 66 0 66 -9 0 -9 0 6 -17z"/>
<path d="M700 500 l0 -10 11 0 10 0 -6 10 -6 10 -5 0 -4 0 0 -10z"/>
<path d="M648 483 l13 -5 6 6 6 6 -19 -1 -19 -1 13 -5z"/>
<path d="M7 453 l-7 -6 0 -8 0 -8 18 5 17 6 -17 -12 -18 -11 0 -14 0 -15 11 0
10 0 -6 9 -5 10 20 6 20 6 0 8 0 7 -12 12 -12 12 -6 0 -7 0 -6 -7z"/>
<path d="M1225 360 l18 -20 -12 0 -12 0 6 -20 6 -20 -10 0 -11 0 0 -15 0 -15
10 0 9 0 11 41 11 41 -5 14 -5 14 -17 0 -17 0 18 -20z"/>
<path d="M70 349 l0 -10 12 7 11 7 -7 -12 -8 -12 -14 12 -14 12 -18 -17 -19
-16 -6 7 -7 6 0 -11 0 -12 15 0 15 0 0 -11 0 -10 9 6 10 6 -6 -23 -6 -23 -3
-35 -3 -35 0 -23 -1 -23 -10 6 -10 6 0 -15 0 -15 9 -6 10 -6 9 18 9 18 -4 15
-5 15 9 -10 8 -11 27 -2 27 -2 6 10 6 10 -20 1 -21 2 -9 1 -9 1 -7 7 -7 7 28
-5 29 -5 13 -4 12 -4 0 8 0 9 -17 8 -18 7 -7 1 -6 1 -8 7 -7 7 22 -4 21 -4 11
21 11 20 -22 -7 -23 -7 8 11 7 12 16 -2 17 -1 18 1 18 1 -5 8 -5 8 -30 -2 -31
-2 6 9 5 9 -14 0 -15 0 -12 15 -12 15 -8 -5 -9 -5 -5 9 -6 9 14 -2 14 -2 15
-12 15 -13 21 -2 21 -1 0 -8 0 -9 18 9 17 9 28 7 28 7 -21 -21 -20 -20 6 -14
6 -15 -18 -30 -18 -30 -7 5 -8 4 -6 -19 -6 -20 -19 -6 -20 -6 -10 6 -10 6 0
-11 0 -11 -10 6 -10 6 0 -19 0 -20 22 6 21 5 -6 -10 -6 -10 12 0 12 0 25 -6
25 -6 -27 11 -28 12 0 7 0 7 14 11 14 12 8 -12 7 -12 -11 7 -11 6 -5 -9 -6 -9
17 -4 18 -4 12 16 12 15 13 -13 13 -13 -17 6 -18 7 0 -11 0 -11 15 0 15 0 0
-10 0 -10 23 9 22 8 20 -4 20 -5 35 -1 35 -1 8 -10 9 -11 -6 18 -5 17 24 -16
24 -16 18 4 18 3 -37 18 -38 18 0 4 0 4 18 -6 17 -6 12 -10 13 -9 14 5 15 6
-6 -15 -5 -14 28 -2 29 -1 15 -2 15 -1 50 -9 50 -8 35 -3 35 -4 105 -4 104 -4
4 -11 4 -11 19 0 20 0 -6 10 -6 10 24 0 24 0 18 20 18 20 -6 7 -7 6 0 -7 0 -7
-20 11 -20 11 0 -11 0 -10 18 0 17 0 -15 -10 -14 -9 -7 10 -6 10 -21 2 -21 1
6 9 5 8 14 -5 14 -5 0 9 0 10 -14 0 -14 0 -12 -15 -13 -15 -13 11 -14 11 0
-12 0 -12 -30 6 -30 6 -26 -10 -25 -10 5 -8 4 -8 -26 2 -27 1 5 9 5 9 18 -3
17 -3 0 10 0 10 -62 1 -63 1 -30 2 -30 2 3 -13 2 -13 -10 6 -10 6 5 9 5 8 -47
10 -48 11 -14 -12 -15 -12 7 11 7 12 -43 8 -42 8 -20 2 -20 2 -49 8 -49 7 6
-10 6 -10 -13 0 -13 0 4 21 5 21 -10 -14 -10 -14 -10 7 -11 7 6 16 6 16 -15
-6 -16 -6 -6 6 -6 6 16 24 15 24 1 30 1 29 21 1 21 2 37 -2 37 -1 6 10 6 10
-14 -6 -15 -5 -6 10 -6 10 11 7 12 7 -8 -13 -8 -13 15 6 16 5 8 -7 9 -8 28 -7
27 -6 1 22 1 23 5 -17 4 -17 34 -7 34 -6 10 7 11 6 0 -10 0 -11 11 0 10 0 -6
9 -5 10 10 6 10 6 0 8 0 8 -42 7 -43 7 -12 -17 -13 -18 0 17 0 17 -17 1 -18 1
-23 2 -23 3 -5 -9 -5 -8 -10 5 -9 6 -57 4 -57 5 -18 6 -18 5 0 -10 0 -10 -32
10 -33 9 -12 0 -13 0 0 -11z m73 -24 l17 3 -5 -8 -5 -8 -18 3 -17 3 -5 2 -5 2
-8 -1 -8 -1 6 10 7 11 11 -9 12 -9 18 2z m128 -2 l14 -18 -17 14 -18 13 0 4 0
4 4 0 4 0 13 -17z m108 -3 l-12 -8 -14 5 -13 5 0 8 0 7 26 -5 26 -5 -13 -7z
m91 0 l15 -10 -17 0 -17 0 -6 10 -6 10 8 0 8 0 15 -10z m-216 -8 l5 -9 -14 0
-14 0 5 9 5 8 4 0 4 0 5 -8z m-173 -55 l-12 -12 7 18 6 18 6 -6 6 -5 -13 -13z
m85 -99 l7 -11 -11 7 -12 7 0 -12 0 -12 -6 6 -6 6 7 10 6 11 4 0 4 0 7 -12z
m47 -36 l17 -19 -15 0 -15 0 5 5 5 5 -11 14 -11 13 4 0 5 0 16 -18z m120 -6
l19 2 -7 -6 -7 -7 -2 5 -3 5 -18 -15 -19 -15 7 11 7 12 -14 5 -14 5 -13 -11
-13 -12 13 17 13 18 17 -9 16 -8 18 3z m291 -44 l5 -9 -14 0 -14 0 5 9 5 8 4
0 4 0 5 -8z m213 -18 l-6 -6 -13 5 -13 5 19 1 19 1 -6 -6z m93 -25 l0 -10 -10
6 -10 6 0 10 0 10 10 -6 10 -6 0 -10z"/>
<path d="M6 281 l-8 -12 6 -6 6 -6 6 6 6 6 -4 12 -4 13 -8 -13z"/>
<path d="M165 280 l6 -10 5 0 4 0 0 10 0 10 -11 0 -10 0 6 -10z"/>
<path d="M170 250 l0 -9 -12 4 -13 4 -19 -26 -19 -26 10 6 11 7 4 -12 4 -11
22 23 22 24 0 13 0 13 -5 0 -5 0 0 -10z m-10 -24 l0 -5 -10 -6 -10 -6 0 10 0
11 10 0 10 0 0 -4z"/>
<path d="M6 194 l-7 -26 5 -5 5 -5 7 26 6 27 -5 5 -5 5 -6 -27z"/>
<path d="M1122 205 l7 -8 -9 -17 -10 -18 17 -13 17 -14 -7 12 -7 12 21 15 22
15 8 -5 8 -4 6 11 7 11 -28 -3 -29 -3 -15 8 -15 9 7 -8z"/>
<path d="M1160 170 l-15 -9 0 -11 0 -11 -15 -9 -15 -9 11 -11 11 -11 13 16 12
15 -7 0 -8 0 18 20 18 20 -4 5 -5 4 -14 -9z"/>
<path d="M1076 102 l-5 -8 20 -1 19 -2 0 10 0 9 -14 0 -15 0 -5 -8z"/>
</g>
</svg>
