<?xml version="1.0" standalone="no"?>
<!DOCTYPE svg PUBLIC "-//W3C//DTD SVG 20010904//EN"
 "http://www.w3.org/TR/2001/REC-SVG-20010904/DTD/svg10.dtd">
<svg version="1.0" xmlns="http://www.w3.org/2000/svg"
   viewBox="0 0 82.000000 135.000000"
 preserveAspectRatio="xMidYMid meet">
<metadata>
Created by potrace 1.16, written by Peter Selinger 2001-2019
</metadata>
<g transform="translate(0.000000,135.000000) scale(0.100000,-0.100000)"
fill-opacity="0.2" fill="#006400" stroke="none">
<path d="M114 1308 l-19 -43 -37 -60 -38 -60 -10 -12 -10 -12 0 -18 0 -17 17
16 16 17 28 48 28 48 35 68 35 67 -13 0 -13 0 -19 -42z"/>
<path d="M193 1305 l-33 -44 -23 -53 -24 -53 -56 -79 -57 -78 0 -11 0 -12 34
52 34 52 25 33 25 33 30 62 31 63 27 35 27 36 -4 3 -4 4 -32 -43z"/>
<path d="M227 1278 l-45 -73 -35 -60 -34 -60 -57 -89 -56 -89 0 -16 1 -16 32
60 32 60 38 60 39 60 50 85 50 85 20 33 20 32 -5 0 -5 0 -45 -72z"/>
<path d="M316 1325 l-16 -25 -16 -27 -16 -28 20 24 20 25 16 28 17 28 -4 0 -5
0 -16 -25z"/>
<path d="M345 1310 l-26 -41 7 -11 7 -11 -11 7 -12 7 0 -9 0 -8 -46 -72 -46
-71 8 -12 7 -12 -11 7 -11 7 -21 -38 -20 -38 -9 -15 -9 -15 -76 -155 -76 -155
0 -20 0 -20 20 25 20 25 0 6 0 7 50 103 49 104 28 50 28 51 33 51 34 52 -8 12
-7 12 11 -6 10 -7 46 77 46 78 -5 13 -5 13 9 -5 8 -5 22 29 22 30 -21 0 -20 0
-25 -40z"/>
<path d="M675 1340 l-6 -10 7 -12 7 -11 -10 6 -10 6 -22 -30 -22 -29 6 -10 6
-10 -11 2 -12 3 -24 -40 -23 -40 5 -15 5 -14 -7 7 -7 7 -14 -27 -14 -27 6 -13
5 -14 -9 5 -9 6 -6 -26 -7 -25 7 -11 7 -11 -11 7 -11 7 -17 -28 -18 -28 -65
-99 -66 -98 -12 -22 -13 -21 -27 -60 -27 -60 1 -12 1 -13 -8 5 -8 5 -11 -30
-10 -30 -54 -73 -54 -72 -57 -84 -56 -84 0 -25 0 -25 86 129 86 129 33 40 32
40 20 40 20 40 26 50 27 50 15 35 15 35 23 32 22 31 68 106 69 107 17 47 18
47 18 40 19 40 29 38 30 39 23 34 23 34 -19 0 -19 0 -6 -10z"/>
<path d="M729 1296 l-34 -54 -44 -74 -44 -73 -37 -55 -37 -55 -59 -115 -58
-115 -35 -67 -36 -67 -56 -83 -56 -83 -23 -40 -24 -40 -58 -83 -59 -84 9 6 9
6 63 87 63 88 21 40 22 40 47 71 47 72 15 12 15 12 0 17 0 16 26 45 27 45 39
75 39 75 82 140 81 140 37 50 37 50 12 23 12 24 -5 4 -4 5 -34 -55z"/>
<path d="M797 1324 l-18 -25 -56 -107 -56 -107 -12 -15 -11 -15 -42 -71 -42
-70 0 -11 0 -10 -31 -43 -31 -43 -34 -71 -34 -70 0 -11 0 -10 -60 -85 -59 -85
-54 -80 -54 -80 -95 -145 -95 -145 -7 -12 -7 -13 5 0 4 0 41 62 41 63 17 25
17 25 96 145 96 145 59 85 59 85 37 88 38 87 29 38 29 37 21 45 22 45 12 20
13 20 17 26 17 26 76 133 76 132 -3 8 -3 8 -18 -24z"/>
<path d="M226 1188 l-33 -53 -13 -25 -12 -25 9 10 10 10 41 68 42 67 -5 0 -5
0 -34 -52z"/>
<path d="M780 1155 l-35 -70 -28 -31 -27 -32 -16 -38 -16 -39 -26 -55 -26 -55
-29 -50 -30 -50 -28 -51 -27 -51 -40 -53 -40 -53 -13 -26 -13 -26 -70 -95 -71
-95 -46 -76 -46 -76 -42 -63 -42 -63 4 -4 4 -4 100 153 99 153 60 79 59 78 10
17 10 16 56 86 57 87 21 43 21 44 29 47 30 47 42 96 42 96 17 12 16 12 38 62
38 61 -4 19 -3 18 -35 -70z"/>
<path d="M746 998 l-55 -113 -1 -7 -1 -7 -30 -32 -30 -32 6 -16 6 -15 -8 7 -7
8 -16 -30 -15 -29 -20 -38 -19 -39 -113 -170 -112 -170 -42 -53 -41 -54 -27
-53 -27 -53 -37 -42 -37 -43 0 -8 0 -9 9 0 9 0 42 53 42 52 19 38 20 38 14 17
14 17 34 46 35 46 11 20 10 20 -7 8 -7 8 13 -7 12 -7 18 31 17 32 48 65 48 65
-5 15 -6 14 9 -5 9 -6 30 48 30 47 38 70 38 70 28 43 29 42 50 97 49 97 0 18
0 18 -9 0 -10 0 -55 -112z"/>
<path d="M131 1018 l-30 -63 -51 -94 -51 -94 4 -3 4 -4 67 126 67 126 14 34
14 34 -4 0 -5 0 -29 -62z"/>
<path d="M791 589 l-21 -52 0 -17 0 -17 19 -17 18 -16 6 82 7 82 -4 3 -3 3
-22 -51z"/>
<path d="M665 357 l-18 -14 8 -13 8 -13 -10 6 -11 7 -13 -33 -13 -32 -32 -40
-31 -40 -29 -44 -29 -44 -27 -41 -26 -41 -1 -7 -1 -8 13 0 12 0 55 82 55 82
36 46 37 46 16 32 17 32 15 0 16 0 38 -27 39 -28 10 -20 10 -20 0 32 1 32 -57
40 -56 41 -7 0 -6 0 -19 -13z"/>
<path d="M681 248 l-11 -31 20 18 20 18 33 -29 32 -29 17 -20 18 -20 0 9 0 9
-57 54 -58 53 -1 0 -2 0 -11 -32z"/>
<path d="M30 148 l-30 -53 0 -9 0 -9 3 4 3 4 32 58 32 57 -5 0 -5 0 -30 -52z"/>
<path d="M667 156 l-35 -42 -32 -53 -31 -53 5 -5 5 -5 21 43 22 42 36 49 36
48 6 0 6 0 52 -52 52 -52 0 10 0 10 -54 52 -54 51 -35 -43z"/>
<path d="M627 165 l-27 -26 -17 -27 -17 -27 -29 -38 -29 -38 4 -4 5 -5 38 57
39 58 35 38 35 37 -5 0 -4 0 -28 -25z"/>
<path d="M694 139 l-12 -14 -7 -25 -7 -25 -30 -38 -30 -39 20 13 20 13 22 38
21 38 12 0 11 0 48 -47 48 -47 0 22 0 22 -13 0 -13 0 -36 33 -36 32 -4 19 -3
19 -11 -14z"/>
<path d="M684 35 l5 -15 -11 3 -10 2 -5 -11 -4 -11 47 -1 46 0 -23 24 -22 24
-15 0 -14 0 6 -15z"/>
</g>
</svg>
