<?xml version="1.0" standalone="no"?>
<!DOCTYPE svg PUBLIC "-//W3C//DTD SVG 20010904//EN"
 "http://www.w3.org/TR/2001/REC-SVG-20010904/DTD/svg10.dtd">
<svg version="1.0" xmlns="http://www.w3.org/2000/svg"
   viewBox="0 0 637.000000 473.000000"
 preserveAspectRatio="xMidYMid meet">
<metadata>
Created by potrace 1.16, written by Peter Selinger 2001-2019
</metadata>
<g transform="translate(0.000000,473.000000) scale(0.100000,-0.100000)"
fill-opacity="0.2" fill="#006400" stroke="none">
<path d="M2986 4705 l-16 -16 -9 6 -10 5 -8 -12 -8 -13 -6 -125 -6 -125 -16
-215 -16 -215 -1 -155 -1 -155 -30 85 -29 85 -40 80 -40 80 -36 50 -36 50 -9
-2 -8 -3 5 13 4 12 -114 112 -115 111 -53 25 -54 26 -99 29 -100 29 -125 6
-125 7 -65 -16 -65 -15 -100 -20 -100 -21 -40 -18 -40 -17 -56 -16 -55 -16
-35 -25 -34 -25 -35 -17 -35 -18 -7 -10 -7 -10 -20 18 -21 19 0 12 0 13 -44
49 -45 50 -63 31 -63 31 -92 20 -93 21 -44 0 -44 0 -83 -16 -84 -16 -10 -7
-10 -7 -77 -24 -78 -24 -83 -61 -84 -60 -29 -25 -29 -25 -58 -74 -57 -73 0
-89 0 -89 10 0 9 0 38 -26 38 -25 -3 -5 -3 -5 28 -23 28 -23 23 -7 22 -7 0 -9
0 -8 -9 -4 -9 -3 14 -13 14 -13 0 16 0 15 11 0 11 0 -5 -14 -6 -15 15 6 14 5
-6 -18 -6 -19 11 15 10 15 -24 25 -25 26 0 43 0 42 16 32 16 32 42 55 41 55
11 10 11 10 80 62 79 61 65 20 65 20 56 7 55 7 58 -12 58 -12 82 -38 81 -39
40 -44 39 -44 28 -34 27 -33 0 -8 0 -8 14 0 14 0 56 36 56 37 67 24 68 24 95
30 95 29 99 20 98 20 51 0 50 0 66 -11 66 -11 45 -16 45 -16 95 -61 95 -62 33
-19 32 -18 32 -53 32 -53 7 0 7 0 22 -57 22 -58 10 -25 10 -25 30 -90 30 -90
9 -104 9 -104 -15 -104 -15 -103 -26 -55 -25 -56 7 -11 7 -11 -10 6 -10 6 -30
-47 -31 -47 -15 -30 -16 -30 -53 -56 -53 -57 -55 -31 -55 -32 -19 -12 -20 -12
-25 -22 -26 -23 -12 0 -13 0 0 -8 0 -7 -42 -22 -43 -22 -45 -19 -45 -20 -40
-17 -40 -17 -20 -8 -20 -9 -61 -20 -60 -21 -52 0 -52 0 0 -14 0 -14 14 -34 14
-33 46 -50 46 -49 0 -4 0 -4 22 -25 23 -25 55 -57 55 -57 80 -90 80 -89 28
-29 29 -28 -11 -11 -11 -11 0 -10 1 -11 14 19 15 20 6 -7 6 -6 -10 -30 -11
-31 5 0 5 0 7 21 8 21 145 -144 144 -145 90 -94 91 -94 42 -37 42 -37 0 -8 0
-9 18 -20 17 -19 29 -43 30 -43 23 6 23 5 0 -88 0 -89 -14 -104 -13 -104 -2
-175 -2 -175 -11 -67 -12 -68 -171 5 -171 4 -17 7 -17 6 0 184 0 183 -162 -2
-163 -2 -9 100 -8 100 -2 82 -1 83 -15 1 -15 0 -162 2 -161 2 -8 8 -7 7 -12
138 -12 137 9 30 8 30 0 5 0 5 -10 15 -9 15 -168 5 -167 5 -18 140 -17 140 -1
45 0 45 -10 15 -9 15 -58 -3 -58 -3 -122 6 -123 7 0 137 -1 136 -9 73 -10 73
-14 14 -14 14 -5 -6 -6 -5 -124 7 -124 7 -7 91 -8 92 -6 110 -7 110 -7 11 -8
11 -127 3 -128 4 -46 -1 -46 -1 -8 131 -8 132 -2 93 -2 93 -16 16 -16 16 -60
1 -61 2 2 -345 3 -345 60 -19 60 -19 57 6 58 6 36 15 37 15 5 -4 4 -5 -19 -34
-20 -33 -23 -68 -23 -69 6 -54 6 -54 33 -47 34 -46 64 -33 65 -33 64 0 63 0
-6 -22 -7 -23 -11 -69 -11 -69 17 -74 18 -74 25 -30 26 -30 37 -19 37 -19 94
-15 94 -14 58 3 59 4 -6 -16 -7 -16 -9 -42 -9 -42 6 -39 6 -39 23 -46 23 -46
27 -32 26 -31 42 -24 41 -24 65 -11 65 -11 53 9 53 8 -7 -16 -8 -16 -4 -52 -4
-52 17 -57 17 -58 29 -42 29 -43 57 -22 58 -22 61 -5 62 -4 48 14 49 14 0
-100 0 -101 26 -50 25 -50 34 -23 33 -22 41 -11 41 -11 55 -3 55 -2 -2 -24 -1
-24 -6 -55 -6 -55 17 -35 18 -35 32 -20 32 -20 1 -17 0 -17 38 -10 37 -11 30
0 30 0 120 -21 120 -21 233 -5 232 -6 0 -9 0 -9 18 10 19 10 8 123 9 123 0
253 1 252 6 -17 6 -18 12 -40 12 -40 9 -20 9 -20 25 -58 26 -58 0 -9 0 -10 10
0 10 0 0 -15 0 -15 8 0 7 0 19 -35 19 -35 77 -77 77 -76 4 4 4 4 15 -13 15
-12 26 -24 27 -23 98 -32 99 -32 70 -10 70 -10 107 -8 108 -9 102 9 103 8 95
10 95 11 55 15 55 16 39 10 39 10 91 49 91 49 -3 11 -2 11 9 -6 10 -6 29 15
29 15 32 36 31 36 -5 9 -6 10 14 -6 14 -5 30 48 30 48 25 45 25 45 18 53 19
52 13 0 12 0 49 -19 49 -19 82 -13 83 -12 57 6 56 5 55 21 55 21 64 57 64 57
25 56 24 55 14 47 15 47 -7 26 -6 26 -17 -3 -16 -4 -19 18 -20 18 -27 12 -26
12 -17 30 -17 31 -34 22 -35 23 -10 0 -10 0 0 10 0 10 -16 0 -16 0 5 -20 5
-20 -9 6 -9 5 0 -25 0 -25 -20 -52 -21 -52 -40 -46 -41 -46 -26 -17 -27 -18
-52 -15 -51 -15 -37 0 -36 0 -45 11 -45 12 -18 23 -19 24 -11 0 -11 0 0 28 0
29 -19 17 -20 18 -10 -7 -11 -6 0 -19 0 -18 -8 -4 -8 -3 -23 -75 -23 -75 -18
-40 -19 -41 -7 -29 -7 -30 -23 -36 -22 -35 -42 -43 -43 -43 -61 -45 -61 -45 3
-10 2 -9 -9 6 -10 6 -39 -26 -38 -25 -94 -16 -95 -16 -85 -8 -85 -8 -35 -6
-35 -6 -63 -5 -62 -4 -70 15 -69 14 -73 26 -73 26 -49 25 -49 25 -11 9 -11 8
-60 49 -61 49 -40 49 -41 49 -31 60 -32 60 -20 70 -21 70 -5 110 -6 110 16
125 17 125 20 80 20 80 19 60 19 60 21 59 20 59 0 28 0 27 30 58 31 57 71 84
71 84 71 63 71 63 32 18 32 19 -6 9 -6 10 12 -7 12 -8 44 27 45 26 51 25 51
26 51 9 52 8 32 7 32 6 5 15 6 15 -31 36 -31 35 -29 25 -30 24 6 18 6 18 -10
7 -11 6 6 -15 6 -16 -7 0 -7 0 -59 51 -59 52 7 10 6 10 -17 -6 -17 -7 -62 45
-62 45 -42 37 -42 36 5 9 5 8 27 -6 27 -6 -11 9 -11 8 -5 15 -5 15 -19 0 -19
0 0 12 0 11 -9 9 -9 8 7 -12 7 -13 -9 0 -10 0 -7 27 -7 28 -10 -19 -11 -19 19
-14 19 -14 -3 -15 -3 -14 8 1 8 1 15 -1 14 -1 -13 -12 -12 -13 -26 30 -25 30
-20 23 -19 24 20 -7 21 -6 0 8 0 9 -12 12 -12 12 -9 0 -8 0 6 -10 6 -10 -9 0
-9 0 -6 7 -7 6 18 14 17 15 -17 -6 -18 -5 3 11 2 10 -14 6 -14 5 6 -17 6 -16
-9 0 -9 0 -26 12 -27 12 -38 38 -38 38 6 0 5 0 -37 32 -37 31 5 14 5 13 -16 0
-17 0 13 13 13 12 5 -12 5 -13 -1 -5 -1 -5 22 -25 22 -26 14 6 13 5 -6 -11 -7
-10 13 -15 13 -16 6 18 7 18 -33 31 -32 30 -49 46 -48 45 -48 37 -49 37 -14 0
-14 0 0 -10 0 -10 8 2 7 2 30 -19 30 -20 5 -5 5 -6 33 -23 32 -22 0 -11 0 -10
-48 40 -48 40 -38 19 -39 18 6 145 6 145 11 170 11 169 12 121 12 120 45 6 45
7 54 15 53 15 -5 -32 -6 -31 -10 -56 -9 -56 8 -64 9 -64 9 -30 10 -30 16 -35
16 -35 19 -23 20 -23 58 -21 58 -20 81 6 81 6 29 6 29 5 2 -96 2 -97 22 -66
22 -65 38 -42 38 -41 53 -27 53 -27 40 0 40 0 55 9 55 9 18 7 17 7 0 -16 0
-16 -10 0 -11 0 6 -47 6 -48 16 -50 16 -49 27 -46 26 -45 7 -18 7 -18 8 5 9 5
12 -22 12 -22 46 -28 45 -27 46 -11 47 -11 88 7 87 7 0 -9 0 -9 -12 -12 -11
-11 0 -43 1 -43 16 -50 17 -50 16 -35 15 -35 27 -28 26 -29 48 -24 49 -25 101
1 102 2 -4 -14 -4 -13 0 -40 1 -40 21 -57 22 -58 31 -30 30 -30 44 -26 44 -26
57 -5 58 -5 63 15 62 14 0 -41 0 -41 15 -50 15 -49 27 -38 26 -38 9 0 9 0 -7
-11 -7 -12 13 5 13 4 36 -36 36 -35 20 -12 20 -13 40 -22 40 -22 92 -4 93 -4
-7 -27 -8 -26 1 -28 1 -27 16 -38 15 -37 12 -32 12 -33 9 6 9 5 7 -18 6 -18
21 -18 21 -18 47 -25 48 -24 30 2 30 2 0 14 0 14 -25 -6 -24 -6 -40 16 -41 16
-44 51 -45 50 -16 68 -15 68 0 30 0 29 26 31 26 31 -10 0 -11 0 -13 -13 -13
-13 -95 1 -95 2 -45 23 -45 23 -44 31 -45 31 -34 33 -34 32 -29 68 -28 67 -1
46 0 45 12 12 12 12 -7 6 -6 7 -33 -16 -33 -15 -39 -12 -39 -12 -56 6 -56 7
-42 20 -43 21 -34 39 -33 40 -18 55 -18 56 6 53 5 53 -104 -6 -105 -5 -47 22
-48 23 -32 46 -31 47 -17 40 -17 40 -3 50 -2 50 13 48 14 48 -109 -7 -108 -7
-67 24 -67 23 -47 52 -46 51 -19 39 -18 39 -10 18 -9 18 -6 84 -6 84 13 16 13
15 -5 5 -4 5 -50 -20 -51 -19 -59 -6 -59 -7 -42 11 -42 12 -43 32 -43 33 -35
64 -35 65 0 129 0 128 -45 -8 -45 -9 -112 0 -112 0 -28 20 -28 21 -35 69 -34
70 -4 73 -4 74 12 60 12 61 15 24 16 24 -6 5 -5 5 -116 -22 -115 -23 -5 5 -4
4 -8 108 -7 107 14 -4 14 -5 199 -5 199 -6 6 -6 6 -6 -1 -106 -1 -107 -4 -122
-4 -121 7 -8 7 -7 128 2 128 1 75 -11 75 -12 18 -111 17 -111 6 -112 7 -113
26 7 26 7 152 0 152 1 10 -10 9 -10 21 -140 21 -140 0 -64 0 -64 53 6 52 6
121 7 121 7 35 -7 36 -7 17 -51 16 -51 13 -126 13 -126 -1 -25 -1 -25 10 2 10
1 166 13 166 12 15 -6 16 -6 6 -148 7 -148 4 -21 5 -21 214 1 214 1 6 -6 7 -6
9 -57 9 -56 7 -150 7 -149 45 -7 44 -7 62 7 61 6 76 7 76 6 8 -13 7 -12 9 -61
9 -62 9 -109 10 -108 6 -6 6 -6 21 13 21 13 8 -14 9 -13 0 298 0 298 -11 -7
-11 -6 11 20 11 21 -6 15 -6 15 -46 23 -47 23 -86 0 -85 0 0 90 1 90 -29 59
-29 59 -35 33 -36 34 -43 20 -43 20 -62 0 -63 0 -46 -14 -46 -14 -7 70 -6 71
-19 41 -18 41 -34 32 -34 31 -45 12 -45 12 -70 7 -70 6 0 80 0 80 -35 70 -35
69 -65 53 -65 52 -45 13 -45 13 -53 -2 -54 -2 -49 -26 -49 -25 0 47 0 48 -20
73 -19 74 -37 49 -36 50 -41 21 -41 20 -61 8 -61 8 -44 -8 -45 -7 -17 -8 -18
-7 1 88 1 89 -17 48 -16 48 -44 66 -44 65 -31 23 -31 23 -69 22 -70 22 -61 -4
-60 -4 5 20 6 21 6 76 7 76 -13 54 -13 54 -17 35 -18 35 -33 30 -34 31 -35 21
-35 21 -50 13 -50 12 -17 8 -17 9 -314 5 -315 6 -16 -16z m458 -1554 l-4 -5
-18 18 -17 18 22 -13 22 -13 -5 -5z m-569 -190 l7 -60 -6 -118 -6 -118 -6
-285 -6 -285 -8 -85 -9 -85 -11 -84 -11 -85 -4 -7 -5 -7 -1 -63 0 -64 -6 -31
-5 -32 -41 24 -42 23 -59 60 -60 60 -15 -11 -16 -12 12 13 11 13 -73 87 -74
86 -131 125 -131 125 -14 8 -15 8 0 8 0 7 53 19 52 18 60 43 60 42 67 69 66
68 72 83 71 82 11 0 10 0 -6 16 -6 15 9 -5 9 -6 24 38 25 37 31 52 32 53 31
67 30 68 2 42 2 43 7 0 6 0 7 -59z m370 -105 l29 -21 98 -94 97 -94 28 -23 28
-23 63 -59 62 -60 0 -16 0 -16 -10 0 -9 0 -65 -62 -65 -63 -28 -37 -28 -37
-56 -73 -56 -73 -27 -50 -27 -50 -29 -45 -30 -45 -16 -34 -16 -35 -11 -48 -12
-48 -7 0 -8 0 0 58 0 57 10 290 9 290 1 223 1 223 22 -7 22 -7 30 -21z m660
-506 l-6 -10 -12 0 -12 0 15 10 15 10 3 0 3 0 -6 -10z m-25 -24 l0 -4 -16 -6
-15 -6 6 10 6 10 10 0 9 0 0 -4z m-429 -399 l-12 -12 7 18 6 18 6 -6 6 -5 -13
-13z m2846 -114 l-5 -18 0 30 0 30 5 -12 5 -13 -5 -17z m33 -33 l0 -10 -9 0
-10 0 -4 -22 -4 -23 -2 33 -1 32 15 0 15 0 0 -10z m-1 -171 l-13 -8 -6 6 -5 6
13 4 12 5 1 16 1 17 5 -19 5 -19 -13 -8z m-517 -721 l-12 -12 0 10 0 11 7 6 6
7 6 -5 5 -5 -12 -12z m-92 -147 l0 -9 -15 -5 -14 -6 -7 11 -7 11 11 -7 11 -6
6 10 6 10 5 0 4 0 0 -9z m-1005 -281 l-6 -10 -12 0 -12 0 15 10 15 10 3 0 3 0
-6 -10z"/>
<path d="M3998 4678 l6 -23 4 16 3 16 82 -4 81 -4 -5 5 -5 6 -86 5 -86 5 6
-22z"/>
<path d="M4040 4662 l0 -10 20 -23 19 -24 1 8 0 9 -20 25 -20 26 0 -11z"/>
<path d="M4080 4655 l0 -3 15 -5 14 -6 5 7 5 8 -20 1 -19 2 0 -4z"/>
<path d="M4300 4650 l0 -10 10 0 10 0 0 10 0 10 -10 0 -10 0 0 -10z"/>
<path d="M4200 4640 l0 -10 11 0 10 0 -6 10 -6 10 -5 0 -4 0 0 -10z"/>
<path d="M4368 4643 l13 -5 6 6 6 6 -19 -1 -19 -1 13 -5z"/>
<path d="M5323 4643 l-13 -5 0 -9 0 -9 35 -45 34 -46 12 -42 11 -42 -6 -42 -6
-43 -21 -43 -22 -42 -18 -20 -19 -20 -17 -20 -18 -21 -34 -24 -34 -23 -55 -29
-56 -28 -17 0 -17 0 -5 -12 -5 -13 -42 43 -42 42 -10 0 -10 0 32 -30 32 -30
-5 -14 -6 -15 12 4 12 5 48 -45 47 -44 0 -16 0 -15 9 0 9 0 5 13 4 12 21 -25
22 -25 10 -13 11 -12 -7 -12 -7 -11 16 6 16 6 6 -20 7 -20 13 4 13 5 11 -24
11 -24 -10 0 -10 0 -1 13 0 12 -9 -20 -8 -20 10 -10 9 -10 9 15 9 14 7 -7 7
-6 -24 -21 -24 -21 39 16 40 15 7 -12 8 -12 -3 -6 -4 -5 34 -22 34 -22 0 12 0
13 -37 36 -38 35 -20 11 -20 11 17 1 17 0 71 26 71 27 45 45 45 44 21 42 21
41 7 5 6 5 18 45 18 45 14 73 14 74 0 44 0 44 43 1 42 1 125 7 125 7 120 -9
120 -9 7 -6 6 -7 4 -268 3 -267 -15 6 -15 6 -50 5 -50 5 -65 -16 -65 -17 -85
-41 -85 -41 -5 -6 -5 -6 -67 -53 -67 -53 -26 -47 -27 -47 -3 -23 -2 -22 23
-26 24 -25 0 -10 0 -9 10 0 10 0 45 -46 45 -47 0 -8 0 -9 20 0 20 0 0 -9 0
-10 23 -25 24 -26 6 7 6 6 -19 25 -20 25 0 13 0 13 24 56 25 55 51 54 51 54
52 23 52 23 70 0 70 1 53 -8 52 -8 0 505 0 504 -57 6 -58 6 -195 5 -195 6
-140 10 -140 9 -108 7 -107 6 -6 8 -5 9 -7 -1 -7 -1 -12 -5z m997 -883 l0 -10
-11 0 -10 0 6 10 6 10 5 0 4 0 0 -10z"/>
<path d="M4405 4630 l6 -10 15 0 14 0 0 -17 0 -18 9 14 9 14 13 -8 14 -8 -10
10 -10 10 -33 11 -33 11 6 -9z"/>
<path d="M4090 4599 l0 -12 26 -23 25 -24 20 0 19 0 0 11 0 11 20 -5 20 -5 5
8 6 9 -21 11 -20 11 -6 -16 -6 -15 -15 0 -14 0 -14 13 -14 12 -16 13 -15 13 0
-12z"/>
<path d="M4128 4603 l13 -5 6 6 6 6 -19 -1 -19 -1 13 -5z"/>
<path d="M4499 4587 l11 -14 -8 -8 -7 -8 10 6 11 6 64 -60 63 -60 -11 -11 -12
-12 0 -10 0 -10 21 23 21 22 -28 29 -29 29 -7 1 -8 0 -41 45 -42 45 -9 0 -10
0 11 -13z"/>
<path d="M4431 4544 l1 -19 5 13 5 13 -6 6 -6 6 1 -19z"/>
<path d="M4460 4552 l0 -8 29 -11 30 -11 -5 -18 -4 -19 9 -14 9 -14 11 7 11 7
0 11 0 10 -16 -6 -15 -6 6 19 6 19 -30 21 -29 21 -6 0 -6 0 0 -8z"/>
<path d="M4260 4541 l0 -10 10 -6 10 -6 0 10 0 10 -10 6 -10 6 0 -10z"/>
<path d="M4178 4523 l12 -5 0 -10 0 -10 32 -29 31 -30 9 9 9 9 -45 36 -44 37
-9 -1 -8 -1 13 -5z"/>
<path d="M4328 4523 l-18 -4 0 -9 0 -8 -17 2 -17 1 -4 -17 -3 -18 16 0 16 0
21 11 21 11 -14 10 -14 9 20 -3 20 -3 3 -28 3 -27 17 -1 17 -1 9 1 9 2 -12
-14 -12 -15 -9 -31 -9 -31 9 0 9 0 11 -20 11 -20 -6 0 -5 0 -58 60 -59 60 5 5
5 5 -11 0 -11 0 -6 -10 -6 -10 32 -28 33 -27 37 -35 36 -35 27 -24 26 -23 0 4
0 5 -16 32 -16 33 11 11 11 11 0 8 0 8 -27 -5 -28 -5 13 6 12 6 0 21 0 22 8
13 9 13 14 -4 14 -4 -6 4 -5 3 4 29 4 29 -9 4 -8 5 -25 -7 -25 -7 28 -8 27 -7
0 -9 0 -9 -36 0 -36 0 5 21 6 22 -14 13 -14 14 -3 -1 -3 -1 -17 -5z"/>
<path d="M4235 4510 l6 -10 10 0 9 0 0 10 0 10 -16 0 -15 0 6 -10z"/>
<path d="M4470 4493 l0 -18 10 -15 10 -15 0 27 0 27 -10 6 -10 6 0 -18z"/>
<path d="M4156 4485 l6 -15 10 0 10 0 -12 15 -12 15 -4 0 -3 0 5 -15z"/>
<path d="M4570 4476 l0 -16 10 0 10 0 0 9 0 10 -10 6 -10 6 0 -15z"/>
<path d="M4500 4425 l0 -25 -10 0 -10 0 0 -10 0 -11 -20 -21 -20 -22 0 -18 0
-19 10 6 10 6 -6 10 -5 9 12 -2 12 -3 6 23 6 23 8 0 7 -1 19 -4 20 -4 6 -36 7
-36 17 0 17 0 -4 43 -4 42 -12 7 -11 7 -22 -6 -23 -5 0 10 0 11 20 6 20 6 0
10 0 9 -15 0 -15 0 0 10 0 10 -10 0 -10 0 0 -25z"/>
<path d="M4320 4430 l0 -10 15 0 15 0 0 10 0 10 -15 0 -15 0 0 -10z"/>
<path d="M4230 4420 l0 -10 11 0 10 0 -6 10 -6 10 -5 0 -4 0 0 -10z"/>
<path d="M4693 4402 l27 -28 -7 -7 -6 -7 10 0 10 0 6 7 7 7 -27 28 -27 28 -10
0 -10 0 27 -28z"/>
<path d="M4603 4364 l-6 -15 10 -10 11 -10 0 25 0 26 -5 0 -4 0 -6 -16z"/>
<path d="M4486 4322 l-4 -7 5 -28 5 -27 10 0 10 0 -6 15 -5 15 9 0 10 0 0 14
0 14 -15 5 -14 6 -5 -7z"/>
<path d="M4627 4306 l-6 -14 17 -8 17 -7 13 2 12 2 0 -26 0 -25 15 0 15 0 -15
37 -16 37 -12 8 -12 8 -11 0 -12 0 -5 -14z"/>
<path d="M4726 4285 l6 -15 4 0 4 0 0 15 0 15 -10 0 -9 0 5 -15z"/>
<path d="M4810 4290 l15 -10 10 0 10 0 -15 10 -15 10 -10 0 -10 0 15 -10z"/>
<path d="M4770 4279 l0 -10 10 6 10 6 0 5 0 4 -10 0 -10 0 0 -11z"/>
<path d="M4602 4267 l-11 -13 7 -9 7 -10 18 -1 17 -2 0 10 0 9 -14 14 -14 14
-10 -12z"/>
<path d="M4808 4264 l-8 -7 0 -26 1 -26 10 18 10 18 -3 15 -3 16 -7 -8z"/>
<path d="M4840 4261 l0 -10 10 -6 10 -6 0 10 0 10 -10 6 -10 6 0 -10z"/>
<path d="M4460 4252 l0 -8 33 -32 33 -32 7 6 7 7 0 -11 0 -11 30 -33 30 -32 0
28 0 29 -6 -6 -7 -6 -26 28 -26 28 -12 -4 -13 -5 0 18 0 17 -17 13 -18 13 -7
1 -8 0 0 -8z"/>
<path d="M4759 4240 l-6 -15 7 -50 6 -50 8 25 7 25 -9 40 -8 40 -5 -15z"/>
<path d="M4855 4210 l6 -10 5 0 4 0 0 10 0 10 -11 0 -10 0 6 -10z"/>
<path d="M4883 4214 l6 -7 -10 -18 -10 -19 11 -18 11 -17 -5 20 -6 20 10 14 9
15 20 -25 20 -24 0 10 0 10 -18 23 -19 22 -13 0 -12 0 6 -6z"/>
<path d="M4585 4190 l-6 -10 10 0 11 0 0 10 0 10 -4 0 -5 0 -6 -10z"/>
<path d="M4510 4140 l0 -10 11 0 10 0 -6 10 -6 10 -5 0 -4 0 0 -10z"/>
<path d="M4660 4140 l0 -10 0 -5 0 -5 6 1 7 1 8 -13 8 -13 8 8 8 8 -17 12 -18
13 7 6 6 7 -11 0 -12 0 0 -10z"/>
<path d="M4840 4140 l0 -10 16 0 15 0 -6 10 -6 10 -10 0 -9 0 0 -10z"/>
<path d="M4620 4115 l0 -13 6 -16 6 -16 11 7 10 6 -5 -20 -5 -20 18 4 19 5 0
-10 0 -11 23 -23 22 -23 32 -29 31 -28 12 7 11 7 -18 13 -18 13 -6 -4 -7 -4
-5 20 -5 20 -16 0 -16 0 0 15 0 15 -14 0 -15 0 -6 20 -6 20 -30 29 -29 29 0
-13z"/>
<path d="M4800 4096 l0 -15 11 -7 11 -6 11 11 12 12 -15 9 -15 10 -7 0 -8 0 0
-14z"/>
<path d="M4920 4101 l0 -10 10 -6 10 -6 0 10 0 10 -10 6 -10 6 0 -10z"/>
<path d="M4705 4070 l-6 -10 15 -6 15 -6 11 4 10 3 -19 12 -20 13 -6 -10z"/>
<path d="M4590 4061 l0 -10 10 -6 10 -6 0 10 0 10 -10 6 -10 6 0 -10z"/>
<path d="M5010 4035 l-12 -15 10 0 10 0 12 15 12 15 -10 0 -10 0 -12 -15z"/>
<path d="M4970 3985 l0 -15 10 0 9 0 -5 15 -6 15 -4 0 -4 0 0 -15z"/>
<path d="M1815 3979 l-30 -9 -19 4 -19 5 -76 -26 -76 -25 -60 -32 -60 -33 -48
-29 -47 -29 4 -24 4 -23 -18 -5 -19 -5 6 -14 5 -14 -13 0 -12 0 -20 -17 -20
-18 12 23 12 22 -8 0 -8 0 33 20 32 20 0 10 0 10 -9 0 -10 0 -50 -50 -50 -50
-26 -54 -26 -54 -11 -55 -12 -55 13 -56 12 -56 47 -37 47 -37 15 -16 15 -16
76 -37 76 -37 70 0 69 0 45 15 44 16 54 37 54 38 16 23 15 24 -24 -8 -25 -7
20 15 20 15 7 -11 7 -11 20 23 21 24 0 10 0 10 15 11 15 11 6 50 5 50 -13 24
-13 24 -37 19 -38 20 -35 -12 -35 -11 -32 -55 -33 -54 -8 0 -8 0 -23 -25 -23
-25 -10 0 -10 0 -32 -16 -32 -16 -34 6 -33 7 -15 22 -15 23 -4 19 -4 20 22 53
23 53 -5 17 -6 17 10 -14 9 -13 17 23 16 23 -11 7 -12 7 8 12 8 12 7 -11 7
-12 13 16 12 15 -13 1 -14 0 20 9 20 9 -23 0 -23 1 -25 -25 -25 -25 8 -13 7
-12 -24 16 -24 16 -4 14 -3 14 16 -20 16 -20 5 23 6 22 9 -5 8 -6 10 19 10 18
35 -4 36 -4 15 12 15 12 0 10 0 9 -19 -6 -19 -6 -8 12 -7 12 39 -6 39 -6 14 8
14 9 -8 12 -8 12 22 -7 21 -6 -6 15 -6 16 11 0 11 0 0 -12 0 -13 9 13 8 13 32
1 31 1 11 13 11 14 8 -5 8 -5 6 16 6 15 9 -5 8 -6 -4 -24 -5 -24 46 -7 47 -7
-4 -5 -5 -4 -51 7 -51 7 5 8 5 8 -11 6 -11 7 -11 -11 -11 -11 15 -1 14 -1 -30
-8 -30 -8 40 -1 40 -1 52 -14 53 -14 50 -31 51 -31 11 6 11 7 -6 -22 -5 -22
21 -22 22 -22 16 -25 16 -25 8 -45 8 -45 -1 -50 0 -50 -7 -42 -8 -43 -10 0 -9
0 5 -30 6 -29 -14 6 -15 5 0 -17 0 -16 -10 6 -10 6 0 -9 0 -9 -20 -24 -21 -24
-24 -27 -25 -26 6 -16 6 -16 -12 0 -11 0 6 10 6 10 -9 0 -10 0 5 -42 6 -41
-18 7 -18 6 17 -25 16 -25 -10 0 -11 0 -4 13 -5 12 -45 1 -45 1 11 -13 11 -14
-26 -10 -26 -10 0 -5 0 -6 13 7 12 7 -12 -13 -12 -13 -16 13 -16 13 13 8 13 9
25 1 25 1 -30 9 -30 9 -42 -20 -43 -20 -9 0 -8 0 -60 -19 -60 -19 -91 -3 -91
-3 -7 7 -7 7 -34 0 -33 0 -63 30 -64 30 -31 6 -32 7 -6 8 -5 9 -11 -6 -11 -7
7 11 7 12 22 -11 22 -12 -20 20 -20 20 -7 -4 -8 -4 6 14 5 15 -20 14 -21 15
-24 35 -24 36 -7 21 -6 21 -8 0 -8 0 -12 -22 -11 -23 6 23 5 22 -15 53 -15 52
1 15 1 15 -1 28 -2 28 -10 -6 -10 -6 0 10 0 9 9 4 8 3 6 80 6 79 -9 -14 -10
-15 0 -25 0 -25 -10 -15 -9 -14 1 51 0 52 19 17 19 17 0 -11 0 -12 9 0 9 0 16
40 16 40 0 46 0 45 -11 22 -11 22 -21 22 -20 22 -11 22 -11 21 -59 25 -60 25
-52 5 -53 6 -63 -12 -63 -12 -40 -27 -40 -27 -12 -12 -13 -12 0 -8 0 -8 -32
-39 -31 -38 10 -6 10 -7 -10 -25 -10 -25 -7 30 -7 30 -7 -25 -6 -25 -4 -45 -3
-45 14 -34 14 -33 -5 -14 -5 -14 9 0 10 0 0 13 1 12 25 -30 26 -30 -6 13 -7
12 10 0 11 0 0 -17 0 -18 10 15 10 15 0 -18 0 -18 14 -5 15 -6 -6 -15 -6 -15
22 11 22 12 -35 37 -36 36 0 8 0 8 6 0 5 0 20 -11 21 -11 -6 -14 -5 -14 12 0
12 -1 28 -24 27 -24 0 -7 0 -6 -27 6 -28 6 17 -10 18 -11 0 -17 0 -17 9 13 8
14 9 1 9 2 -2 8 -3 7 11 0 11 0 5 -20 5 -20 10 0 9 0 -6 -22 -7 -21 18 7 18 7
-8 -8 -8 -8 -26 -1 -27 0 -5 6 -5 7 -25 8 -25 8 19 -22 20 -22 25 2 26 2 22
-1 21 -2 14 -30 13 -30 9 0 8 0 -6 16 -6 17 15 -13 15 -12 -6 -9 -5 -9 10 0 9
0 4 12 4 12 13 -8 13 -8 -13 -9 -14 -9 33 6 32 7 0 -17 0 -16 25 -6 25 -6 -1
-22 -1 -21 -5 13 -5 12 -12 0 -12 0 -18 22 -19 21 -13 -17 -12 -18 16 -17 17
-18 7 4 8 4 -6 -15 -6 -16 16 0 16 0 37 -35 38 -36 0 -7 1 -7 73 -72 72 -73 8
0 8 0 36 -41 37 -41 0 -4 0 -4 46 -48 45 -47 10 -18 11 -19 -21 12 -21 11 0
-11 0 -10 13 -1 12 -2 15 -2 15 -2 15 -2 15 -1 -15 -11 -15 -10 21 6 22 6 103
4 103 5 31 -12 32 -11 29 8 29 7 -17 7 -17 6 8 14 9 13 21 -7 22 -7 -3 12 -3
12 23 9 22 8 0 -9 0 -9 23 -4 22 -4 -22 -2 -23 -1 0 -9 0 -10 -22 -4 -23 -4
45 4 45 5 9 9 10 9 25 0 26 0 15 10 15 10 -15 0 -15 0 50 25 50 24 15 1 15 0
-14 -9 -13 -9 13 -6 14 -6 -30 5 -30 5 -19 -15 -20 -15 7 -6 6 -6 53 17 53 17
10 10 10 9 -25 19 -24 18 24 21 25 22 38 17 37 17 0 12 0 13 -11 -3 -12 -2 -4
13 -5 12 22 0 22 0 -10 13 -10 12 -7 34 -7 34 11 -7 11 -7 0 -26 0 -25 26 6
26 7 -8 -23 -7 -23 -8 -3 -9 -4 0 -29 0 -29 -7 2 -8 3 -38 -22 -37 -23 -7 -15
-6 -16 10 -10 10 -10 39 26 39 26 9 16 8 15 7 -10 7 -11 34 21 35 21 -24 9
-24 8 -6 -6 -6 -7 13 -4 12 -5 -6 -9 -5 -9 -9 0 -8 0 -7 27 -6 27 17 13 17 12
9 -5 9 -6 18 24 19 23 8 -7 7 -8 -23 -20 -23 -20 -9 0 -8 0 0 -11 0 -11 14 5
15 6 3 -10 3 -10 18 7 17 6 -2 17 -3 16 18 -3 17 -3 6 15 6 16 8 -5 8 -5 24
32 23 33 12 23 12 23 -10 -7 -10 -6 7 29 7 28 3 4 4 4 0 -18 0 -18 7 7 7 7 3
24 4 25 -16 -6 -15 -6 0 11 0 11 20 0 20 0 0 10 0 10 -10 0 -10 0 1 23 0 22 8
-19 8 -20 6 17 6 17 0 145 0 146 -8 -6 -9 -5 5 20 5 20 -7 17 -8 18 2 18 2 17
-10 0 -11 0 0 22 0 22 -17 46 -16 45 -33 45 -32 45 -30 27 -30 26 -20 11 -20
11 -14 13 -13 13 -36 22 -37 22 -53 9 -54 9 -60 5 -60 5 -30 -9z m62 -5 l-6
-6 -13 5 -13 5 19 1 19 1 -6 -6z m58 -44 l15 0 0 -10 0 -10 -27 12 -28 12 -4
2 -3 3 7 12 8 12 9 -17 9 -16 14 0z m-126 6 l11 -13 -12 -10 -13 -10 -27 -7
-28 -6 0 10 0 10 30 0 30 0 0 10 0 11 -52 -2 -53 -2 -15 -8 -15 -8 -19 -5 -18
-6 6 -26 7 -25 -20 11 -20 10 -6 11 -7 10 -19 -17 -19 -17 0 9 0 9 9 13 8 14
4 -3 4 -4 50 19 50 19 7 6 7 6 55 2 55 2 10 -13z m214 7 l-13 -5 -17 5 -18 5
30 0 30 0 -12 -5z m64 -16 l6 -10 -17 6 -18 7 -9 0 -9 0 0 9 0 9 20 -5 20 -5
7 -11z m-227 -23 l0 -15 -10 6 -10 6 0 15 0 15 10 -6 10 -6 0 -15z m187 10
l-6 -6 -13 5 -13 5 19 1 19 1 -6 -6z m-1322 -14 l7 -11 -27 7 -27 7 -8 -14 -8
-13 -24 12 -23 13 16 -5 16 -4 14 9 14 9 22 0 22 0 6 -10z m1433 -16 l32 -27
0 -12 0 -13 17 2 17 1 10 -30 11 -30 9 -7 9 -6 15 6 15 5 -5 -20 -5 -20 18
-13 18 -13 6 -25 6 -24 -12 -14 -12 -14 7 -7 7 -7 9 14 9 15 0 -30 -1 -30 7
-22 7 -23 -10 0 -10 0 1 13 1 12 -19 38 -19 38 12 8 13 8 -7 16 -6 17 -8 0 -9
0 -7 23 -8 22 2 8 2 8 -10 -6 -11 -7 -20 18 -19 17 0 13 0 13 -15 15 -16 15
-13 -5 -14 -5 -7 10 -6 11 11 0 12 0 -30 25 -30 25 -18 0 -19 0 15 10 15 10
11 0 10 0 32 -26z m-448 6 l-11 -7 2 -9 1 -9 -1 -10 -1 -9 -15 21 -16 22 -17
-5 -17 -6 13 9 13 10 30 0 30 0 -11 -7z m-930 -4 l0 -5 -9 -6 -10 -5 -6 10 -6
10 15 0 16 0 0 -4z m65 -6 l7 -11 14 12 14 11 0 -16 0 -16 -17 0 -18 1 -19 14
-20 15 16 0 17 0 6 -10z m1032 -32 l-5 -13 0 25 0 25 5 -12 5 -13 -5 -12z
m-77 8 l0 -15 -9 -5 -9 -6 -11 14 -12 14 13 5 13 5 8 1 7 1 0 -14z m185 4 l6
-10 -15 0 -16 0 0 10 0 10 9 0 10 0 6 -10z m-1405 -4 l0 -5 -10 -6 -10 -6 0
10 0 11 10 0 10 0 0 -4z m940 -5 l0 -9 -15 -5 -14 -6 -6 9 -5 8 12 5 13 5 8 1
7 1 0 -9z m126 -38 l-6 -6 -6 6 -6 6 8 12 8 13 4 -13 4 -12 -6 -6z m-1053 -11
l-5 -22 -9 0 -9 0 0 13 0 13 12 12 12 12 2 -3 3 -3 -6 -22z m884 22 l-6 -6
-13 5 -13 5 19 1 19 1 -6 -6z m-840 -10 l-6 -6 -13 5 -13 5 19 1 19 1 -6 -6z
m323 -4 l0 -10 13 3 12 2 -1 -17 -2 -18 9 0 8 0 -6 -17 -6 -16 11 7 12 7 0
-10 0 -9 -12 -5 -13 -5 14 -10 14 -10 -6 -38 -6 -37 -11 -11 -10 -10 1 55 1
54 -4 25 -5 25 -14 22 -13 22 -16 5 -15 4 23 1 22 1 0 -10z m532 -22 l-5 -33
-4 13 -5 12 -14 0 -14 0 0 8 0 9 23 11 22 11 1 0 1 1 -5 -32z m500 10 l-12
-12 -12 12 -12 12 24 0 24 0 -12 -12z m-552 -8 l0 -10 -21 0 -20 0 6 10 6 10
15 0 14 0 0 -10z m688 -12 l3 -16 -20 5 -21 5 0 15 0 14 17 -3 18 -3 3 -17z
m-1623 -8 l18 -20 -6 -7 -7 -6 0 11 0 11 -20 6 -20 6 0 10 0 9 8 0 9 0 18 -20z
m1545 -17 l0 -13 -7 0 -8 0 -2 27 -1 26 9 -14 9 -14 0 -12z m140 -1 l-12 -4
-9 13 -9 14 0 9 0 9 21 -19 21 -18 -12 -4z m-1240 24 l0 -5 -10 -6 -10 -6 0
10 0 11 10 0 10 0 0 -4z m1065 -6 l6 -10 -15 6 -16 6 0 4 0 4 9 0 10 0 6 -10z
m-1315 -12 l0 -8 -26 0 -25 0 5 8 5 8 20 0 21 0 0 -8z m1442 -26 l-10 -3 14
-27 14 -27 0 -14 0 -13 15 5 14 6 7 -10 6 -11 -22 4 -23 3 -18 34 -19 35 -15
8 -15 9 0 9 0 8 19 -5 19 -5 8 13 8 13 4 -14 5 -14 -11 -4z m-722 9 l0 -10
-11 -7 -11 -6 -11 12 -12 13 13 -7 12 -7 0 10 0 11 10 0 10 0 0 -9z m60 -1 l0
-10 -9 0 -10 0 -6 10 -6 10 15 0 16 0 0 -10z m87 -6 l-6 -6 -13 5 -13 5 19 1
19 1 -6 -6z m658 0 l17 -7 -12 -7 -12 -8 7 -21 6 -21 10 5 9 6 0 -21 0 -21
-21 12 -21 11 4 34 4 34 -8 0 -8 0 0 -12 0 -11 -6 6 -6 6 7 10 6 11 4 0 3 0
17 -6z m-1375 -19 l12 -15 -6 0 -7 0 -15 15 -15 15 9 0 10 0 12 -15z m521 -38
l-11 -11 -6 7 -7 7 14 16 13 16 4 -12 4 -12 -11 -11z m-851 13 l0 -10 -10 0
-10 0 0 10 0 10 10 0 10 0 0 -10z m280 -22 l0 -10 -12 4 -12 4 -4 12 -4 12 16
-6 16 -6 0 -10z m63 -25 l-17 -13 -7 12 -8 12 10 19 11 19 13 -19 14 -18 -16
-12z m427 37 l0 -10 -10 0 -10 0 0 10 0 10 10 0 10 0 0 -10z m-876 -15 l-6
-15 -4 0 -4 0 0 15 0 15 10 0 9 0 -5 -15z m1876 -6 l0 -9 -10 0 -10 0 0 16 0
15 10 -6 10 -6 0 -10z m-1493 -31 l-5 -13 -1 19 -1 19 6 -6 6 -6 -5 -13z m173
8 l0 -5 -10 -6 -10 -6 0 10 0 11 10 0 10 0 0 -4z m-35 -15 l5 -10 -10 -6 -10
-6 0 15 0 16 4 0 5 0 6 -9z m306 -24 l-10 -25 -9 -6 -9 -6 15 35 16 34 3 -3 4
-3 -10 -26z m1039 -2 l0 -10 -10 15 -10 15 0 10 0 10 10 -15 10 -15 0 -10z
m77 13 l-5 -13 -1 19 -1 19 6 -6 6 -6 -5 -13z m-1924 -19 l-5 -19 -3 0 -3 0
-4 24 -5 24 12 -5 13 -4 -5 -20z m847 -15 l0 -15 -10 6 -10 6 0 10 0 9 10 0
10 0 0 -16z m185 7 l5 -10 -10 -6 -10 -6 0 15 0 16 4 0 5 0 6 -9z m380 -1 l6
-10 -15 6 -16 6 0 4 0 4 9 0 10 0 6 -10z m-510 -30 l-7 -12 -9 13 -8 13 6 9 5
9 10 -10 10 -10 -7 -12z m474 4 l-11 -14 11 0 11 0 0 -10 0 -10 -15 0 -15 0 0
13 0 12 -25 -30 -24 -30 -1 12 0 12 32 35 32 35 8 -5 9 -6 -12 -14z m461 -1
l0 -27 -11 11 -12 12 6 15 6 16 6 0 5 0 0 -27z m-1800 13 l0 -4 6 -16 6 -16
-15 0 -15 0 -5 20 -5 20 14 0 14 0 0 -4z m1423 -22 l18 -22 -15 -5 -15 -6 5
13 5 13 -23 7 -23 6 15 9 14 10 1 -2 0 -2 18 -21z m-1071 -13 l16 -19 -15 -7
-16 -6 -9 13 -8 13 0 13 0 12 8 0 8 0 16 -19z m426 -31 l0 -50 -8 -5 -8 -5 -5
33 -4 32 8 23 9 22 4 0 4 0 0 -50z m202 20 l0 -10 -10 0 -10 0 0 10 0 10 10 0
10 0 0 -10z m763 -10 l5 -20 -9 0 -9 0 0 20 0 20 4 0 4 0 5 -20z m97 9 l0 -10
10 6 10 6 0 -15 0 -16 10 0 10 0 0 11 0 10 11 -7 12 -7 -17 -9 -16 -9 -25 18
-24 18 -1 8 0 7 10 0 10 0 0 -11z m-1543 -71 l-5 -13 0 25 0 25 5 -12 5 -13
-5 -12z m-31 -3 l-6 -25 11 -23 12 -22 11 -7 11 -7 -13 -13 -12 -12 0 17 0 17
-10 0 -10 0 0 15 0 15 -11 0 -10 0 5 9 6 9 -15 6 -15 5 0 16 0 15 13 -2 12 -3
7 -10 8 -10 0 18 0 17 6 0 6 0 -6 -25z m1169 -5 l0 -30 -13 5 -13 5 5 -9 5 -8
-14 -19 -14 -19 -1 25 -1 25 -8 -20 -8 -20 -5 33 -5 33 23 -5 23 -6 11 20 11
20 2 0 2 0 0 -30z m404 -17 l1 -13 -10 0 -10 0 1 33 0 32 9 -20 9 -20 0 -12z
m-1649 16 l0 -10 -10 6 -10 6 0 10 0 10 10 -6 10 -6 0 -10z m782 -8 l4 -30 -8
5 -8 5 0 25 0 24 4 0 4 0 4 -29z m288 -3 l0 -6 -22 5 -23 5 15 -11 15 -11 -22
0 -23 0 0 -8 0 -8 -47 -13 -48 -13 -20 -4 -20 -4 35 15 35 16 37 17 38 17 0 8
0 7 15 0 15 0 0 13 0 12 10 -15 10 -15 0 -7z m65 22 l7 -11 -13 -15 -12 -15
-10 10 -10 10 6 15 6 16 10 0 10 0 6 -10z m-1105 -58 l0 -17 -10 15 -10 15 0
8 0 8 10 -6 10 -6 0 -17z m536 16 l7 -11 -11 7 -12 7 0 -12 0 -12 -6 6 -6 6 7
10 6 11 4 0 4 0 7 -12z m59 2 l-6 -10 -12 0 -12 0 15 10 15 10 3 0 3 0 -6 -10z
m105 -12 l0 -11 16 -18 15 -17 -10 -6 -9 -6 -16 16 -17 16 -14 -6 -15 -5 0 12
0 13 12 12 12 12 13 0 13 0 0 -12z m-150 -33 l12 -15 -10 0 -10 0 -6 15 -5 15
3 0 4 0 12 -15z m237 9 l-6 -6 -13 5 -13 5 19 1 19 1 -6 -6z m283 -4 l0 -10
-10 0 -10 0 0 10 0 10 10 0 10 0 0 -10z m607 -22 l-5 -13 0 25 0 25 5 -12 5
-13 -5 -12z m-1530 0 l-5 -13 -1 19 -1 19 6 -6 6 -6 -5 -13z m697 7 l5 -15
-10 0 -10 0 -15 15 -15 15 19 0 20 0 6 -15z m-804 -10 l12 -15 -16 0 -16 0 0
15 0 15 4 0 4 0 12 -15z m740 -5 l0 -10 -4 0 -5 0 -6 10 -6 10 10 0 11 0 0
-10z m-136 -12 l-5 -8 -15 0 -15 0 5 8 5 9 15 0 15 0 -5 -9z m78 -12 l14 -13
32 -17 32 -16 39 6 38 6 8 -12 7 -11 -3 -3 -4 -3 -60 -7 -60 -7 15 10 14 10
-6 6 -6 7 -14 2 -13 2 -32 19 -33 19 0 8 0 8 9 0 10 0 13 -14z m288 4 l0 -10
-10 0 -10 0 0 10 0 10 10 0 10 0 0 -10z m-345 -30 l21 -8 12 -14 12 -15 -34
11 -35 11 5 4 4 5 -27 13 -28 13 25 -6 25 -7 20 -7z m445 10 l0 -10 -17 0 -18
0 15 10 15 10 3 0 2 0 0 -10z m-850 -21 l0 -10 -10 6 -10 6 0 10 0 10 10 -6
10 -6 0 -10z m709 8 l11 -14 -13 0 -14 0 0 14 0 13 2 0 3 0 11 -13z m716 1 l8
7 -6 -18 -7 -19 0 -24 0 -24 -20 0 -20 0 0 -20 0 -20 -10 0 -10 0 0 20 0 20
20 20 20 20 -7 28 -6 27 15 -12 15 -13 8 8z m-765 -8 l0 -10 -10 0 -10 0 0 10
0 10 10 0 10 0 0 -10z m-697 -43 l-5 -9 -9 13 -9 14 0 15 1 15 14 -19 14 -19
-6 -10z m810 19 l6 -15 -14 -11 -13 -11 3 18 3 18 1 8 1 7 4 0 4 0 5 -14z
m-773 -42 l0 -16 -15 12 -15 12 0 4 0 4 15 0 15 0 0 -16z m725 5 l5 -6 -41
-12 -41 -12 -6 6 -6 6 23 6 23 6 -13 8 -13 8 32 -3 31 -2 6 -5z m-183 -8 l3
10 29 -10 28 -11 10 6 11 7 -7 -11 -7 -12 -43 0 -44 0 -13 17 -14 16 22 -11
21 -12 4 11z m731 -16 l-5 -16 -5 5 -5 5 7 10 6 11 4 0 4 0 -6 -15z m-101 -27
l-11 -11 -15 6 -16 6 0 11 0 10 14 0 14 0 5 -12 5 -13 2 20 2 20 5 -13 5 -14
-10 -10z m232 -30 l-5 -43 -11 -37 -11 -38 -9 0 -9 0 5 -8 4 -7 -13 -19 -14
-18 -10 7 -11 6 0 9 0 9 15 -5 15 -6 -5 15 -6 14 20 37 21 37 0 38 0 38 7 6 6
7 8 0 7 0 -4 -42z m-1384 22 l0 -10 -4 0 -5 0 -6 10 -6 10 10 0 11 0 0 -10z
m1110 -5 l0 -15 -15 0 -15 0 0 -10 0 -10 15 0 15 0 0 -10 0 -10 -14 0 -14 0
-6 15 -6 16 13 19 12 20 7 0 8 0 0 -15z m70 -31 l0 -15 -10 6 -10 6 0 10 0 9
10 0 10 0 0 -16z m-1122 -20 l19 6 0 -15 0 -15 -21 6 -21 6 -13 11 -14 11 -9
-15 -9 -14 0 7 0 6 6 17 6 16 19 -16 18 -17 19 6z m1272 -4 l0 -20 -9 0 -9 0
5 20 5 20 4 0 4 0 0 -20z m-270 -11 l0 -10 -10 6 -10 6 0 10 0 10 10 -6 10 -6
0 -10z m220 11 l0 -10 -11 0 -10 0 6 10 6 10 5 0 4 0 0 -10z m-1168 -55 l-9
-17 -6 16 -7 17 10 -6 10 -6 0 12 0 12 6 -6 6 -5 -10 -17z m1018 15 l0 -10
-15 0 -15 0 0 10 0 10 15 0 15 0 0 -10z m47 -66 l-6 -6 -10 7 -11 6 6 11 6 10
11 -11 11 -11 -7 -6z m-94 -20 l-6 -15 -15 3 -15 3 -4 12 -4 11 18 4 18 4 7
-3 7 -4 -6 -15z m-273 -38 l-35 -10 -13 -13 -13 -13 -36 0 -35 0 6 -15 5 -15
-4 0 -5 0 -20 20 -20 20 24 0 25 0 6 11 7 10 21 -3 22 -2 0 8 0 8 30 13 30 12
20 -10 20 -11 -35 -10z m-640 20 l0 -5 -9 -6 -10 -5 -6 10 -6 10 15 0 16 0 0
-4z m800 0 l0 -5 -9 -6 -10 -5 -6 10 -6 10 15 0 16 0 0 -4z m47 -13 l4 -11
-16 -5 -15 -6 0 20 0 21 12 -4 12 -4 3 -11z m-785 -7 l13 7 -12 -13 -12 -13
-15 6 -16 6 0 12 0 11 15 -12 14 -12 13 8z m678 -28 l0 12 34 0 35 0 4 -7 5
-8 -35 -23 -35 -23 5 16 6 15 -16 0 -16 0 6 -7 7 -6 -11 -14 -11 -13 12 0 12
0 -11 -14 -11 -13 6 -17 6 -16 -10 0 -10 0 -5 27 -5 28 10 19 10 18 -5 26 -5
27 14 -20 14 -19 0 12z m150 -3 l-13 -15 -4 4 -5 5 7 10 6 11 11 0 10 0 -12
-15z m-802 -23 l4 -12 -21 0 -20 0 6 15 5 16 11 -4 11 -3 4 -12z m322 -2 l34
-10 6 10 7 11 16 -7 17 -6 0 -15 0 -15 -15 12 -15 12 0 -10 0 -10 -39 0 -40
-1 6 15 5 14 -31 0 -32 0 -27 -17 -27 -17 7 9 8 8 -11 14 -11 13 53 0 54 0 35
-10z m423 -15 l-5 -15 -9 0 -9 0 0 4 0 4 6 16 6 16 9 -5 8 -6 -6 -14z m-223
-8 l0 -9 25 4 25 5 -10 -12 -11 -13 -25 -5 -26 -5 -19 5 -19 5 0 9 0 9 15 0
15 0 0 8 0 9 15 0 15 0 0 -10z m187 -13 l-6 -6 -13 5 -13 5 19 1 19 1 -6 -6z
m-42 -24 l6 -10 -10 0 -11 0 0 10 0 10 4 0 5 0 6 -10z m30 -20 l6 -10 -16 0
-16 0 6 10 6 10 4 0 4 0 6 -10z m-245 -4 l0 -4 -15 -12 -15 -13 6 17 6 16 9 0
9 0 0 -4z m90 -6 l0 -10 -35 0 -35 0 0 10 0 10 35 0 35 0 0 -10z m115 -20 l-6
-10 -17 1 -17 0 20 9 20 9 3 0 3 1 -6 -10z m-405 -10 l0 -10 -57 1 -58 0 20 9
20 9 38 0 37 1 0 -10z m357 -6 l-6 -6 -13 5 -13 5 19 1 19 1 -6 -6z m-547 -19
l12 -15 -10 0 -10 0 -6 15 -5 15 3 0 4 0 12 -15z m55 -5 l6 -10 -10 0 -10 0
-6 10 -6 10 10 0 10 0 6 -10z m184 -20 l-14 -8 -20 -2 -20 -2 -13 1 -13 1 6
11 7 10 12 -4 11 -4 20 7 20 7 9 -5 9 -5 -14 -7z m304 13 l-13 -5 -12 5 -13 5
25 0 25 0 -12 -5z m-411 -20 l-12 -5 6 -9 5 -9 -6 0 -6 0 -15 15 -15 15 28 -1
28 -1 -13 -5z m198 -26 l0 -8 -22 3 -23 3 -3 17 -3 17 25 -12 26 -12 0 -8z"/>
<path d="M5040 3983 l-25 -5 -8 -7 -8 -8 32 5 32 5 -7 -11 -6 -11 21 -6 21 -7
-5 -18 -5 -19 14 6 13 5 21 -20 22 -20 16 2 17 3 0 9 -1 9 -14 28 -13 27 -9 0
-8 0 0 -21 0 -20 -10 6 -10 6 5 9 6 9 -21 11 -20 11 0 14 0 15 -12 -1 -13 -2
-25 -4z"/>
<path d="M4905 3936 l-18 -13 10 -6 11 -7 12 15 13 15 -5 5 -4 5 -19 -14z"/>
<path d="M5035 3930 l-6 -10 10 0 11 0 0 10 0 10 -4 0 -5 0 -6 -10z"/>
<path d="M4981 3914 l1 -19 5 13 5 13 -6 6 -6 6 1 -19z"/>
<path d="M4863 3855 l64 -65 11 0 12 0 0 -9 0 -8 54 -57 54 -56 12 0 11 0 -6
-10 -6 -10 9 2 10 3 21 -24 22 -25 -5 -13 -5 -13 21 -11 20 -11 -7 12 -7 12
19 -10 20 -11 12 -15 12 -14 -11 -7 -10 -6 0 -10 0 -10 10 6 10 6 30 -13 30
-13 0 -13 0 -13 10 6 10 6 0 -21 0 -22 15 6 15 5 0 -9 0 -10 20 0 21 0 -11 19
-10 19 -2 36 -3 35 -13 -13 -14 -14 11 -20 11 -21 0 -6 0 -6 -22 20 -21 21 16
18 17 19 -1 29 -1 29 -14 -32 -14 -33 -11 0 -10 0 7 -12 7 -13 -24 25 -25 25
-22 14 -21 15 2 7 2 8 -48 40 -47 39 -13 5 -12 4 7 8 8 8 15 -13 16 -13 12 13
12 13 -18 -6 -18 -7 -6 15 -5 16 -19 -6 -19 -6 0 14 0 15 -26 6 -26 7 14 16
13 16 -23 -8 -24 -7 13 24 12 23 -17 -14 -16 -14 -7 6 -6 7 13 15 12 15 -10 0
-10 0 -5 -12 -5 -13 -17 23 -17 23 -14 -5 -14 -5 0 9 0 10 11 0 11 0 -12 14
-11 15 -16 -6 -16 -6 6 16 6 17 -18 0 -19 0 -6 15 -5 15 -16 0 -16 0 64 -65z"/>
<path d="M4912 3894 l-13 -14 10 0 10 0 6 11 7 10 -3 4 -4 3 -13 -14z"/>
<path d="M5050 3879 l0 -10 10 6 10 6 0 5 0 4 -10 0 -10 0 0 -11z"/>
<path d="M4984 3859 l-6 -11 11 -11 11 -11 0 16 0 16 13 5 12 5 -17 1 -17 1
-7 -11z"/>
<path d="M5046 3834 l-6 -16 6 -9 5 -9 -10 0 -11 0 0 -9 0 -9 23 2 23 1 -4 28
-4 27 -8 5 -8 5 -6 -16z"/>
<path d="M5080 3831 l0 -21 45 0 45 0 0 15 0 15 -9 0 -10 0 -6 -10 -6 -10 -14
0 -14 0 -15 16 -16 15 0 -20z"/>
<path d="M5210 3843 l0 -8 9 -14 9 -14 10 7 11 7 -6 14 -5 15 -14 0 -14 0 0
-7z"/>
<path d="M5005 3810 l6 -10 10 0 9 0 0 10 0 10 -16 0 -15 0 6 -10z"/>
<path d="M5160 3779 l0 -12 -22 -18 -21 -19 16 0 17 0 0 9 0 9 25 6 24 6 -5
15 -6 15 -14 0 -14 0 0 -11z"/>
<path d="M4935 3750 l6 -10 5 0 4 0 0 10 0 10 -11 0 -10 0 6 -10z"/>
<path d="M5297 3746 l-18 -14 24 2 24 1 0 13 0 12 -6 0 -6 -1 -18 -13z"/>
<path d="M4920 3730 l0 -10 15 0 15 0 0 4 0 4 -15 6 -15 5 0 -9z"/>
<path d="M252 3705 l0 -30 5 18 5 17 -5 13 -5 12 0 -30z"/>
<path d="M3210 3720 l0 -10 25 -12 24 -11 -5 -9 -6 -9 31 -10 31 -11 0 -9 0
-10 -22 12 -23 12 14 -17 14 -17 13 5 13 5 29 -27 30 -27 21 -17 21 -18 9 0 9
0 5 -12 4 -13 9 8 8 7 -21 15 -21 14 -45 43 -45 43 -40 36 -39 37 -22 7 -21 6
0 -11z"/>
<path d="M5133 3723 l-23 -4 0 -10 0 -9 14 0 14 0 33 15 34 14 -25 -1 -25 -1
-22 -4z"/>
<path d="M5308 3685 l-6 -30 4 -4 4 -4 6 5 6 6 -4 29 -3 28 -7 -30z"/>
<path d="M310 3675 l23 -25 4 0 3 0 0 15 0 15 -15 0 -15 0 0 10 0 10 -12 0
-11 0 23 -25z"/>
<path d="M5160 3685 l0 -14 33 -10 32 -9 -17 -1 -18 -1 0 -8 0 -8 29 -17 29
-17 6 0 6 0 0 15 0 15 15 0 15 0 0 11 0 11 -19 -5 -18 -4 4 17 5 18 -19 10
-18 9 -32 1 -33 1 0 -14z"/>
<path d="M5334 3689 l-6 -11 10 -10 10 -10 11 6 10 7 -6 14 -5 15 -8 0 -9 0
-7 -11z"/>
<path d="M5420 3696 l0 -5 69 -71 69 -72 -3 -35 -4 -34 24 15 24 16 6 -10 6
-10 10 0 9 0 0 11 0 10 -10 -6 -10 -6 0 8 0 8 -88 93 -88 92 -7 0 -7 0 0 -4z
m164 -187 l-5 -9 -10 6 -9 5 6 10 5 9 10 -6 9 -5 -6 -10z"/>
<path d="M0 3680 l0 -10 10 0 10 0 0 10 0 10 -10 0 -10 0 0 -10z"/>
<path d="M280 3673 l0 -12 23 -25 23 -24 0 19 0 19 -13 0 -12 0 -10 18 -10 17
-1 -12z"/>
<path d="M5400 3655 l13 -15 4 4 5 5 -7 10 -6 11 -11 0 -10 0 12 -15z"/>
<path d="M47 3641 l22 -21 6 0 6 0 -6 10 -6 10 -22 11 -22 11 22 -21z"/>
<path d="M339 3648 l-2 -3 -1 -27 -2 -28 4 0 5 0 12 17 13 17 -5 13 -5 13 -9
0 -9 0 -1 -2z"/>
<path d="M5427 3633 l-7 -6 0 -9 0 -8 23 1 22 1 -18 5 -17 5 5 9 6 9 -4 0 -4
0 -6 -7z"/>
<path d="M5300 3616 l0 -14 -25 -16 -24 -16 -18 -1 -18 -1 25 -7 25 -7 5 5 5
6 22 13 23 12 20 0 20 0 0 10 0 10 -26 10 -25 10 -5 0 -4 0 0 -14z"/>
<path d="M85 3609 l-7 -10 3 -4 4 -3 13 14 13 14 -10 0 -10 0 -6 -11z"/>
<path d="M356 3584 l-6 -15 9 6 9 5 5 -17 5 -18 1 22 1 22 -9 5 -9 6 -6 -16z"/>
<path d="M5468 3583 l12 -5 13 5 12 5 -25 0 -25 0 13 -5z"/>
<path d="M133 3558 l-2 -20 7 8 7 9 8 6 9 6 -14 6 -14 5 -1 -20z"/>
<path d="M5410 3570 l-14 -9 5 -5 5 -6 20 15 19 14 -10 1 -10 0 -15 -10z"/>
<path d="M5523 3545 l-12 -13 -13 -5 -13 -4 7 -8 8 -8 15 13 15 12 0 -12 0
-13 -16 -18 -16 -18 4 -12 4 -12 18 27 17 27 -3 29 -3 28 -12 -13z"/>
<path d="M157 3543 l-7 -6 0 -7 0 -6 30 -34 30 -33 5 5 5 5 -30 33 -29 33 5 8
5 9 -4 0 -4 0 -6 -7z"/>
<path d="M5411 3520 l-13 -7 17 -7 17 -6 9 0 9 0 0 9 0 9 -13 5 -14 5 -12 -8z"/>
<path d="M3467 3504 l-6 -7 31 -26 31 -26 56 -55 57 -55 42 -37 42 -37 0 6 0
6 -98 96 -97 96 -26 23 -25 22 -7 -6z"/>
<path d="M228 3475 l4 -25 9 -5 8 -5 6 10 6 10 -11 0 -11 0 3 16 3 17 -11 4
-11 4 5 -26z"/>
<path d="M5360 3464 l0 -25 10 6 10 6 0 17 1 17 10 -19 11 -18 9 13 9 14 0 8
0 7 -30 0 -30 0 0 -26z"/>
<path d="M3461 3464 l1 -19 5 13 5 13 -6 6 -6 6 1 -19z"/>
<path d="M476 3445 l19 -14 8 -1 8 0 -15 15 -15 15 -12 0 -13 0 20 -15z"/>
<path d="M5447 3453 l-7 -6 0 -18 0 -18 -20 -6 -20 -6 0 -10 0 -9 19 11 18 12
19 -8 19 -8 -17 -4 -18 -4 0 -9 0 -8 18 -4 18 -5 2 28 2 29 -10 0 -10 0 6 25
6 25 -9 0 -10 0 -6 -7z"/>
<path d="M5540 3435 l0 -14 21 -11 21 -12 4 4 4 4 -16 22 -15 22 -10 0 -9 0 0
-15z"/>
<path d="M5631 3428 l-13 -20 11 -11 11 -11 0 17 0 16 18 -6 17 -7 -15 20 -14
19 -1 2 -1 2 -13 -21z"/>
<path d="M5390 3429 l0 -12 -17 -12 -17 -12 25 -31 24 -31 13 0 13 -1 -6 -10
-6 -10 8 0 8 1 19 14 20 15 -20 0 -19 0 -30 25 -30 25 18 14 17 13 0 12 0 11
-10 0 -10 0 0 -11z"/>
<path d="M315 3404 l20 -16 -12 -5 -13 -5 0 -9 0 -10 11 6 10 7 -3 -15 -3 -16
10 2 10 1 -3 13 -3 13 11 0 10 0 1 -12 1 -13 -2 -10 -1 -10 12 12 13 13 -34
35 -34 35 -10 0 -11 -1 20 -15z"/>
<path d="M0 3390 l0 -22 24 -28 24 -29 -8 -40 -7 -41 52 0 53 0 34 -14 35 -15
36 -40 36 -40 27 -52 26 -52 5 -93 6 -93 -12 -14 -11 -14 74 -5 75 -5 55 -28
56 -28 0 -8 0 -8 20 -6 19 -6 38 -77 38 -76 0 -88 0 -89 40 8 40 8 55 -1 55 0
41 -28 41 -27 30 -37 29 -37 18 -64 18 -63 5 -74 6 -73 -13 -31 -12 -30 -9 0
-9 0 0 -15 0 -15 28 6 27 6 35 11 35 10 55 1 55 0 42 -28 41 -27 42 -56 41
-55 14 -81 14 -82 -4 -58 -4 -57 18 9 17 10 68 12 68 11 38 -11 37 -11 27 -21
27 -21 33 -67 33 -66 18 -54 18 -54 -6 -56 -5 -57 89 4 89 4 47 -13 47 -13 43
-45 43 -44 22 -46 22 -46 0 -35 -1 -35 -8 -52 -8 -53 15 0 14 0 58 15 59 15
33 -6 34 -6 37 -38 38 -38 28 -54 27 -55 0 -37 0 -37 -15 -28 -14 -29 -16 -5
-15 -6 0 -15 0 -14 56 19 56 20 29 -6 29 -7 30 -30 31 -30 5 4 5 5 -12 26 -12
26 -36 14 -36 14 -37 -5 -38 -4 0 10 0 11 10 6 10 6 0 47 -1 47 -17 36 -17 36
-34 49 -35 50 -25 20 -26 19 -93 0 -93 0 8 40 7 40 0 26 -1 26 -24 48 -24 49
-52 55 -53 54 0 -8 0 -7 -16 13 -15 13 -108 4 -107 4 4 29 4 29 -11 48 -12 47
-26 70 -27 70 -10 14 -11 14 -34 33 -34 34 -34 11 -34 11 -57 -5 -57 -6 -16
-6 -16 -6 -6 98 -5 98 -31 75 -31 75 -27 23 -28 23 -29 15 -29 16 -58 8 -58 8
-58 -13 -58 -13 -2 2 -2 2 11 37 11 36 -11 81 -12 80 -15 55 -16 54 -57 52
-57 52 -35 15 -35 14 -62 -5 -63 -5 0 42 0 42 -15 59 -15 60 -20 40 -19 40
-34 35 -34 35 -15 10 -14 10 -21 12 -21 12 -33 6 -34 6 -20 4 -20 3 -27 1 -28
1 0 59 0 58 -10 54 -10 54 -21 41 -21 41 -44 46 -44 46 -37 10 -38 11 -40 0
-40 0 3 43 3 42 -35 39 -36 39 0 -23z"/>
<path d="M270 3406 l0 -4 16 -6 15 -6 -6 10 -6 10 -10 0 -9 0 0 -4z"/>
<path d="M550 3394 l0 -15 10 6 10 6 0 10 0 9 -10 0 -10 0 0 -16z"/>
<path d="M5270 3390 l23 -20 5 0 5 0 -18 20 -18 20 -10 0 -10 0 23 -20z"/>
<path d="M622 3368 l4 -12 12 -4 12 -4 0 16 0 16 -16 0 -16 0 4 -12z"/>
<path d="M5590 3360 l0 -10 20 0 20 0 0 10 0 10 -20 0 -20 0 0 -10z"/>
<path d="M5700 3350 l-22 -22 5 -4 4 -5 27 12 26 12 0 8 0 8 -10 6 -9 6 -21
-21z"/>
<path d="M5495 3344 l-15 -15 0 -5 0 -5 10 6 10 6 0 -20 0 -21 -10 0 -9 0 -10
18 -10 17 -1 -7 0 -7 10 -27 11 -27 6 6 6 6 25 -29 26 -30 8 0 8 0 0 15 0 15
-13 0 -12 0 -12 18 -11 18 5 27 5 27 24 0 24 0 0 -12 0 -11 6 6 6 5 -6 19 -6
18 -30 2 -29 2 -16 -15z"/>
<path d="M380 3324 l-13 -15 9 -9 10 -10 12 20 12 19 -9 5 -9 6 -12 -16z"/>
<path d="M5750 3321 l0 -20 10 -6 10 -6 0 20 0 20 -10 6 -10 6 0 -20z"/>
<path d="M5600 3319 l0 -10 10 6 10 6 0 5 0 4 -10 0 -10 0 0 -11z"/>
<path d="M5541 3304 l1 -19 5 13 5 13 -6 6 -6 6 1 -19z"/>
<path d="M409 3308 l-2 -3 -1 -27 -2 -27 13 11 13 11 20 -18 20 -18 -6 -21 -7
-21 18 15 19 15 -7 -19 -7 -19 16 -25 16 -25 9 14 9 14 11 -18 10 -17 10 5 9
6 0 -6 0 -6 -10 -20 -11 -19 5 0 5 0 11 20 11 21 -28 28 -28 28 -45 49 -45 49
-14 -3 -14 -4 6 16 6 16 -4 0 -5 0 -1 -2z m105 -124 l6 -16 0 -5 0 -4 -15 15
-15 15 0 5 0 6 9 0 9 0 6 -16z"/>
<path d="M636 3302 l-6 -11 11 -6 10 -7 4 4 4 4 -8 13 -8 13 -7 -10z"/>
<path d="M670 3290 l0 -10 10 0 10 0 0 10 0 10 -10 0 -10 0 0 -10z"/>
<path d="M5560 3267 l0 -22 10 15 10 15 0 -12 0 -13 10 0 10 0 0 14 0 14 -20
5 -20 5 0 -21z"/>
<path d="M5612 3266 l-12 -27 0 -14 0 -15 9 0 10 0 7 11 7 11 -13 8 -12 8 12
4 12 4 -3 19 -4 19 -13 -28z"/>
<path d="M5773 3265 l-11 -18 37 -36 37 -36 -1 -47 0 -47 6 7 7 7 3 40 3 41
-8 13 -9 13 14 9 14 9 -22 19 -23 19 0 12 0 11 -12 -7 -11 -7 21 -18 22 -17 0
-11 0 -11 -13 0 -12 0 -16 37 -16 36 -10 -18z"/>
<path d="M675 3250 l6 -10 5 0 4 0 0 10 0 10 -11 0 -10 0 6 -10z"/>
<path d="M991 3244 l1 -19 5 13 5 13 -6 6 -6 6 1 -19z"/>
<path d="M430 3232 l12 -24 6 6 6 6 -18 18 -18 17 12 -23z"/>
<path d="M700 3235 l0 -6 20 -21 20 -22 0 10 -1 9 -13 18 -13 17 -7 0 -6 0 0
-5z"/>
<path d="M5906 3215 l6 -15 4 0 4 0 0 15 0 15 -10 0 -9 0 5 -15z"/>
<path d="M5644 3203 l-5 -18 -11 -19 -10 -18 12 -12 11 -11 -7 18 -6 17 31 11
32 11 -3 17 -3 16 -18 3 -17 3 -6 -18z"/>
<path d="M5584 3184 l6 -16 0 -4 0 -4 11 0 11 0 -11 13 -11 14 7 6 6 7 -12 0
-13 0 6 -16z"/>
<path d="M5930 3198 l0 -6 32 -36 32 -36 13 0 14 0 -23 23 -24 22 -22 19 -22
19 0 -5z"/>
<path d="M780 3146 l0 -16 10 0 10 0 0 9 0 10 -10 6 -10 6 0 -15z"/>
<path d="M5694 3125 l-11 -34 8 -13 8 -12 4 4 4 5 6 30 6 31 -7 11 -7 12 -11
-34z"/>
<path d="M5871 3104 l1 -19 5 13 5 13 -6 6 -6 6 1 -19z"/>
<path d="M5961 3113 l-1 -12 9 -6 10 -5 7 11 7 12 -11 -7 -10 -6 -5 12 -5 13
-1 -12z"/>
<path d="M6014 3098 l-7 -11 12 7 12 8 14 -18 14 -19 1 11 0 10 -12 12 -12 12
-7 0 -8 0 -7 -12z"/>
<path d="M877 3079 l13 -13 5 6 6 6 -18 6 -18 7 12 -12z"/>
<path d="M3490 3081 l0 -10 10 -6 10 -6 0 10 0 10 -10 6 -10 6 0 -10z"/>
<path d="M1939 3064 l-14 -18 18 7 17 6 0 -11 0 -11 6 6 6 5 -9 17 -10 16 -14
-17z"/>
<path d="M3930 3070 l0 -9 23 -12 22 -12 -19 22 -19 21 -4 0 -3 0 0 -10z"/>
<path d="M580 3066 l0 -4 15 -12 15 -12 0 16 0 16 -15 0 -15 0 0 -4z"/>
<path d="M860 3060 l0 -10 11 0 10 0 -6 10 -6 10 -5 0 -4 0 0 -10z"/>
<path d="M905 3060 l-6 -10 10 0 11 0 0 10 0 10 -4 0 -5 0 -6 -10z"/>
<path d="M3525 3060 l-6 -10 15 0 16 0 0 10 0 10 -9 0 -10 0 -6 -10z"/>
<path d="M6070 3060 l0 -10 11 0 10 0 -6 10 -6 10 -5 0 -4 0 0 -10z"/>
<path d="M3556 3043 l-7 -18 12 12 13 13 -6 5 -6 6 -6 -18z"/>
<path d="M640 3042 l0 -8 12 -12 12 -12 -7 0 -8 0 11 -21 11 -20 15 12 14 11
0 10 0 10 -14 -11 -14 -12 -6 10 -6 9 8 4 8 3 -18 18 -18 17 0 -8z"/>
<path d="M1902 3038 l-12 -12 0 -6 0 -6 20 0 20 0 0 13 0 12 -8 5 -9 5 -11
-11z"/>
<path d="M5901 2995 l-13 -44 7 -10 6 -11 13 0 13 0 -2 50 -2 50 -4 5 -5 4
-13 -44z"/>
<path d="M3980 3025 l0 -4 23 -12 22 -12 -14 16 -13 17 -9 0 -9 0 0 -5z"/>
<path d="M5747 3024 l-6 -6 30 -25 30 -25 6 5 6 6 -24 26 -24 25 -6 0 -6 0 -6
-6z"/>
<path d="M900 3016 l0 -4 16 -6 15 -6 -6 10 -6 10 -10 0 -9 0 0 -4z"/>
<path d="M960 3001 l0 -10 10 -6 10 -6 -6 15 -6 16 -4 0 -4 0 0 -9z"/>
<path d="M5950 3000 l0 -10 11 0 10 0 -6 10 -6 10 -5 0 -4 0 0 -10z"/>
<path d="M6048 3003 l12 -5 13 5 12 5 -25 0 -25 0 13 -5z"/>
<path d="M5847 2993 l-7 -6 0 -19 0 -18 8 0 8 0 2 25 2 25 -3 0 -4 0 -6 -7z"/>
<path d="M940 2980 l0 -10 11 0 10 0 -6 10 -6 10 -5 0 -4 0 0 -10z"/>
<path d="M6156 2981 l-7 -11 15 -6 16 -6 0 -15 0 -14 9 5 9 6 5 -12 5 -13 1
11 1 11 -24 28 -23 27 -7 -11z"/>
<path d="M4045 2970 l-6 -10 10 0 11 0 0 10 0 10 -4 0 -5 0 -6 -10z"/>
<path d="M5958 2960 l-7 -24 4 -5 5 -4 6 5 6 6 -4 24 -3 23 -7 -25z"/>
<path d="M690 2953 l0 -11 15 -12 15 -13 4 4 3 4 -18 19 -19 19 0 -10z"/>
<path d="M4067 2953 l-7 -6 21 -15 20 -14 3 3 3 4 -17 17 -17 18 -6 -7z"/>
<path d="M990 2930 l0 -11 25 -25 25 -25 0 -3 0 -4 45 -45 45 -46 0 9 0 9 -10
6 -10 6 5 22 6 23 -25 24 -26 23 0 -13 0 -13 22 -18 21 -19 -7 -8 -8 -7 -23
30 -24 30 -25 27 -25 27 12 4 12 5 -17 1 -18 1 0 -10z"/>
<path d="M5850 2922 l0 -8 12 -12 12 -12 8 0 7 0 -5 14 -6 14 -14 6 -14 5 0
-7z"/>
<path d="M735 2909 l-7 -10 7 -7 8 -7 4 12 5 13 15 -16 15 -15 6 5 5 6 -13 15
-12 15 -14 0 -13 0 -6 -11z"/>
<path d="M4120 2902 l0 -7 20 -13 21 -13 -6 -9 -6 -10 17 7 17 6 -7 -11 -7
-12 15 0 14 0 27 -31 26 -32 7 8 7 7 -40 35 -40 35 -27 24 -26 24 -6 0 -6 0 0
-8z"/>
<path d="M5926 2894 l-6 -15 -9 5 -9 6 5 -20 5 -19 24 -16 24 -16 6 16 7 16
14 -5 14 -6 -7 11 -6 11 -24 -6 -24 -6 0 15 0 15 3 0 2 0 40 15 40 14 -46 1
-47 0 -6 -16z"/>
<path d="M6148 2873 l13 -5 6 6 6 6 -19 -1 -19 -1 13 -5z"/>
<path d="M6015 2850 l6 -10 5 0 4 0 0 10 0 10 -11 0 -10 0 6 -10z"/>
<path d="M3806 2826 l-5 -20 4 -5 5 -4 0 11 0 12 11 0 11 0 -6 -16 -6 -16 14
5 15 6 -6 -16 -6 -16 22 6 22 5 -10 -12 -10 -12 20 -12 20 -13 9 6 10 6 0 -15
0 -16 22 0 22 0 -35 33 -35 32 -41 36 -41 36 -6 -21z m104 -76 l0 -10 -10 0
-10 0 0 10 0 10 10 0 10 0 0 -10z"/>
<path d="M6040 2840 l0 -10 9 0 10 0 6 10 6 10 -15 0 -16 0 0 -10z"/>
<path d="M6322 2830 l0 -25 5 13 5 12 -5 13 -5 12 0 -25z"/>
<path d="M1130 2820 l0 -10 15 0 15 0 0 4 0 4 -15 6 -15 5 0 -9z"/>
<path d="M5970 2815 l0 -15 10 0 10 0 0 15 0 15 -10 0 -10 0 0 -15z"/>
<path d="M860 2796 l0 -4 18 -13 17 -14 -14 18 -13 17 -4 0 -4 0 0 -4z"/>
<path d="M1158 2783 l13 -5 6 6 6 6 -19 -1 -19 -1 13 -5z"/>
<path d="M4270 2771 l0 -10 10 -6 10 -6 0 10 0 10 -10 6 -10 6 0 -10z"/>
<path d="M6026 2755 l16 -25 4 0 4 0 0 13 0 12 -20 13 -21 13 17 -26z"/>
<path d="M6160 2766 l0 -4 20 -5 20 -5 0 9 0 9 -20 0 -20 0 0 -4z"/>
<path d="M920 2733 l0 -8 10 -15 9 -14 7 6 6 7 -16 16 -16 16 0 -8z"/>
<path d="M1170 2737 l0 -6 31 -33 31 -33 -11 22 -11 22 6 18 6 18 -10 -14 -10
-15 -16 13 -16 13 0 -5z"/>
<path d="M4305 2730 l6 -10 10 0 10 0 -6 10 -6 10 -10 0 -10 0 6 -10z"/>
<path d="M6060 2720 l0 -10 11 0 10 0 -6 10 -6 10 -5 0 -4 0 0 -10z"/>
<path d="M890 2716 l0 -4 16 -6 15 -6 -6 10 -6 10 -10 0 -9 0 0 -4z"/>
<path d="M4340 2696 l0 -4 15 -12 15 -13 -6 17 -6 16 -9 0 -9 0 0 -4z"/>
<path d="M6112 2693 l-12 -5 6 -9 5 -9 9 0 8 0 6 15 5 15 -7 -1 -7 -1 -13 -5z"/>
<path d="M3980 2675 l12 -15 10 0 10 0 -12 15 -12 15 -10 0 -10 0 12 -15z"/>
<path d="M980 2649 l0 -10 10 6 10 6 0 5 0 4 -10 0 -10 0 0 -11z"/>
<path d="M1245 2650 l6 -10 10 0 9 0 0 10 0 10 -16 0 -15 0 6 -10z"/>
<path d="M1353 2653 l17 -5 13 5 12 5 -30 0 -30 0 18 -5z"/>
<path d="M1413 2653 l17 -5 13 5 12 5 -30 0 -30 0 18 -5z"/>
<path d="M1528 2653 l12 -5 13 5 12 5 -25 0 -25 0 13 -5z"/>
<path d="M4400 2653 l0 -11 15 -12 15 -13 5 5 5 5 -20 18 -20 18 0 -10z"/>
<path d="M4030 2635 l0 -17 11 4 11 4 0 9 0 10 -11 3 -11 4 0 -17z"/>
<path d="M1015 2620 l18 -20 -9 0 -10 0 -12 10 -12 10 15 -17 15 -17 11 11 12
12 -16 15 -16 16 -7 0 -7 0 18 -20z"/>
<path d="M1322 2568 l4 -12 12 -4 12 -4 0 10 0 10 -16 6 -16 6 4 -12z"/>
<path d="M6215 2570 l6 -10 10 0 9 0 0 10 0 10 -16 0 -15 0 6 -10z"/>
<path d="M1041 2554 l11 -14 9 0 9 0 0 9 0 9 -21 5 -20 5 12 -14z"/>
<path d="M4162 2510 l13 -20 7 0 7 0 6 10 6 10 -15 0 -16 0 0 10 0 10 -10 0
-10 0 12 -20z"/>
<path d="M1130 2510 l0 -10 11 0 10 0 -6 10 -6 10 -5 0 -4 0 0 -10z"/>
<path d="M1380 2500 l0 -10 10 0 10 0 0 10 0 10 -10 0 -10 0 0 -10z"/>
<path d="M4201 2480 l-1 -15 9 -13 8 -13 13 16 13 15 -16 -6 -15 -5 -5 18 -5
18 -1 -15z"/>
<path d="M1450 2431 l0 -9 14 -5 15 -6 -6 15 -5 14 -9 0 -9 0 0 -9z"/>
<path d="M4280 2422 l0 -10 15 -12 15 -12 0 10 0 10 -15 12 -15 12 0 -10z"/>
<path d="M1230 2406 l0 -4 18 -13 17 -14 -14 18 -13 17 -4 0 -4 0 0 -4z"/>
<path d="M1530 2390 l11 -20 12 1 12 1 -12 5 -13 5 0 14 0 14 -10 0 -11 0 11
-20z"/>
<path d="M1530 2354 l0 -6 41 -40 40 -39 -11 21 -11 20 -19 13 -20 12 0 12 0
13 -10 0 -10 0 0 -6z"/>
<path d="M4350 2352 l0 -8 12 -12 12 -12 8 0 7 0 -5 14 -6 14 -14 6 -14 5 0
-7z"/>
<path d="M4790 2290 l15 -10 10 0 10 0 -15 10 -15 10 -10 0 -10 0 15 -10z"/>
<path d="M4460 2250 l39 -40 8 0 8 1 -24 19 -23 20 7 0 8 0 -26 20 -25 20 -6
0 -5 0 39 -40z"/>
<path d="M1310 2272 l0 -12 8 0 7 0 16 -26 16 -27 6 10 6 10 -29 28 -30 29 0
-12z"/>
<path d="M1360 2261 l0 -10 10 -6 10 -6 0 10 0 10 -10 6 -10 6 0 -10z"/>
<path d="M4825 2260 l6 -10 10 0 10 0 -6 10 -6 10 -10 0 -10 0 6 -10z"/>
<path d="M1642 2226 l23 -34 7 5 8 4 -22 29 -23 29 -8 0 -7 1 22 -34z"/>
<path d="M4525 2190 l6 -10 10 0 10 0 -6 10 -6 10 -10 0 -10 0 6 -10z"/>
<path d="M1690 2178 l1 -13 13 -17 13 -18 6 7 7 6 0 9 0 9 -10 -6 -10 -6 0 15
0 15 -10 6 -10 6 0 -13z"/>
<path d="M4560 2162 l0 -8 30 -22 30 -23 0 6 0 6 -26 24 -27 25 -3 0 -4 0 0
-8z"/>
<path d="M1750 2099 l0 -10 10 6 10 6 0 -18 0 -18 10 15 9 14 -12 8 -12 8 -7
0 -8 0 0 -11z"/>
<path d="M4640 2095 l0 -7 72 -68 72 -69 9 6 9 6 -33 26 -34 26 -30 30 -30 30
-18 14 -17 13 0 -7z"/>
<path d="M12 2060 l3 -25 13 3 12 2 0 -15 0 -15 15 0 15 0 0 -9 0 -9 20 -5 20
-5 -10 18 -10 19 -20 6 -19 6 -22 27 -21 27 4 -25z"/>
<path d="M4323 2065 l-113 -11 -7 -7 -7 -7 20 -15 19 -14 -10 -1 -11 0 -9 9
-10 9 -47 -5 -48 -6 0 -13 0 -14 -10 0 -10 0 0 11 0 10 -22 -6 -23 -7 -10 -11
-10 -10 17 6 16 6 6 -16 6 -15 -50 7 -50 7 0 -29 0 -28 -8 11 -7 10 -19 8 -20
7 17 -19 17 -19 0 -5 0 -6 -16 -6 -15 -6 6 9 5 10 -10 6 -10 6 0 -10 0 -11
-10 0 -10 0 0 18 -1 17 -13 -17 -13 -18 -10 0 -11 0 -16 -25 -17 -26 -10 6 -9
6 -7 -17 -6 -17 11 -18 12 -19 0 -15 0 -16 25 26 26 25 19 0 18 0 4 8 3 7 38
17 37 18 0 -10 0 -10 10 0 10 0 0 25 0 25 12 0 11 0 -5 6 -6 6 -22 -12 -21
-11 13 20 13 21 20 0 21 0 12 -12 12 -12 12 12 12 12 13 0 13 0 0 -9 0 -10
-19 -6 -20 -6 6 -15 5 -14 -17 0 -16 0 5 -9 5 -8 -35 -19 -35 -19 -7 11 -7 12
-45 -21 -45 -21 -10 -11 -10 -11 -27 -17 -27 -17 -6 0 -5 0 0 16 0 16 -15 -12
-15 -12 4 -7 4 -6 -13 -18 -13 -19 -21 12 -21 11 0 9 0 10 9 0 10 0 6 -10 6
-10 9 5 9 6 -15 18 -16 18 -24 -5 -25 -5 -16 -24 -16 -25 16 -28 17 -29 -9 -5
-9 -6 -6 23 -6 22 -26 -28 -26 -29 10 -21 10 -22 6 -17 5 -18 -28 -29 -28 -29
-5 -18 -6 -19 -7 -17 -7 -18 11 0 11 0 -1 8 -1 7 1 14 1 15 10 -10 11 -11 8
-51 8 -52 -13 0 -14 0 0 13 0 12 -10 -15 -9 -15 -15 20 -15 20 -1 -17 0 -18
-11 0 -11 0 6 16 6 16 1 36 2 37 7 -35 7 -35 2 42 1 42 -9 5 -9 6 -5 -23 -6
-22 -6 -65 -6 -65 15 19 16 20 0 -15 0 -14 -10 -35 -11 -35 0 -62 0 -63 7 -45
6 -46 -12 3 -13 3 -4 -15 -5 -15 11 15 11 15 1 -20 1 -20 14 35 14 35 -6 -31
-5 -31 8 -29 7 -29 7 50 6 50 -9 17 -9 18 -4 97 -5 98 10 -15 10 -15 0 -25 0
-25 10 -15 10 -15 0 53 0 52 -10 0 -10 0 0 21 0 21 13 -5 12 -4 0 -129 0 -129
8 -12 8 -13 -15 6 -15 6 -3 -49 -3 -48 28 -29 28 -28 -17 -19 -17 -19 9 0 10
0 11 11 11 11 12 -7 11 -7 -17 -12 -17 -13 12 -22 12 -22 12 4 12 4 3 18 4 17
-11 -7 -11 -6 5 -10 6 -9 -10 0 -11 0 0 9 0 9 13 10 13 11 13 -8 13 -8 -1 -7
-1 -6 0 -10 0 -10 19 0 20 0 13 -13 13 -12 31 -17 31 -17 7 6 6 6 0 -19 0 -20
13 -16 12 -16 45 -6 45 -6 3 -10 4 -10 9 0 9 0 -11 19 -12 18 -11 0 -11 0 -25
2 -25 2 19 14 20 15 -25 0 -26 0 0 18 0 17 9 6 9 6 51 -9 51 -9 19 4 18 5 0
-14 0 -15 30 -5 30 -6 0 -14 0 -14 -20 0 -20 0 0 -19 0 -20 10 -6 10 -6 54 -2
54 -2 -12 -7 -11 -8 -62 1 -61 1 -11 -6 -10 -6 -6 10 -6 10 33 1 33 1 -30 7
-30 6 -3 19 -4 18 11 -7 11 -6 -5 -10 -6 -9 14 0 14 0 -2 22 -2 22 -36 12 -37
13 0 -8 0 -9 14 -11 14 -12 4 -24 5 -24 -11 -5 -11 -4 13 -1 13 -1 -5 -9 -6
-8 83 4 82 4 30 1 30 0 45 5 45 5 -20 8 -20 7 -17 -8 -17 -9 -16 0 -16 0 5 9
5 8 -42 14 -42 14 -17 -3 -18 -3 0 10 0 10 28 3 27 3 3 25 3 25 -11 -17 -11
-18 -9 0 -10 0 0 14 0 14 34 12 34 11 8 -2 9 -2 33 8 32 8 6 8 5 9 -15 0 -16
0 0 12 0 11 6 -6 6 -6 34 20 35 19 19 0 20 0 -12 20 -13 20 -40 -5 -40 -4 -65
-7 -65 -7 -33 -14 -33 -14 4 -12 3 -12 27 -13 27 -13 0 -10 0 -10 -27 3 -28 3
-3 20 -4 20 -16 13 -16 12 -27 0 -28 0 -9 -16 -8 -15 -25 6 -25 6 -30 25 -29
25 25 -6 25 -6 -26 15 -27 15 -5 14 -5 14 8 12 7 13 7 -17 6 -17 16 6 17 6 26
-17 26 -18 40 -12 40 -11 -40 -3 -40 -3 -25 2 -25 1 19 -14 20 -15 14 0 13 0
-6 10 -6 10 45 0 45 0 -5 14 -5 14 -47 13 -47 13 -56 55 -56 56 -16 30 -15 31
-16 61 -16 61 0 32 0 32 -15 -12 -15 -12 0 10 0 11 11 7 11 6 -6 29 -5 29 9 0
9 0 10 38 10 37 -1 32 -1 33 -14 -11 -13 -11 0 10 0 10 9 4 9 3 7 33 7 32 -9
0 -8 0 -12 -27 -12 -28 -15 -37 -15 -37 -6 -45 -7 -44 21 -7 21 -6 0 -9 0 -9
-27 14 -27 14 -12 -17 -12 -17 -7 7 -7 7 18 29 17 30 -16 17 -17 16 0 40 0 39
11 0 11 0 -3 -34 -3 -35 6 -6 6 -6 6 36 7 37 -9 11 -10 12 -6 23 -7 22 10 0 9
0 7 -30 7 -30 9 0 9 0 -5 43 -5 42 8 -20 9 -20 7 22 7 23 -5 8 -5 9 17 -2 17
-1 32 -17 33 -17 7 -3 8 -2 -3 -25 -3 -25 21 30 20 30 -15 3 -15 4 5 8 5 8
-20 -5 -20 -5 0 11 0 11 15 0 15 0 0 10 0 10 -15 0 -15 0 0 -9 0 -9 -21 -5
-21 -6 -5 20 -5 19 -9 -6 -9 -5 0 20 0 20 10 6 10 6 0 15 0 15 -21 -6 -22 -7
7 11 7 11 16 0 15 0 70 65 70 65 13 0 12 0 24 18 24 18 23 1 22 2 0 -14 0 -15
-25 -6 -24 -6 -12 -14 -12 -15 11 -11 12 -12 22 20 23 20 29 14 29 15 4 16 5
17 61 -14 60 -15 11 5 11 4 -21 1 -22 1 -5 14 -6 14 25 6 24 6 0 10 0 10 -28
0 -28 0 -10 -10 -11 -11 -29 -4 -29 -4 12 5 12 5 -5 14 -5 13 23 8 23 7 52 -1
51 0 20 -6 20 -7 6 10 7 10 14 -6 15 -5 6 31 7 31 8 0 9 0 0 -19 0 -19 53 -17
52 -17 10 -3 11 -3 22 18 21 18 -32 15 -32 16 16 6 15 6 27 -14 27 -14 -7 -6
-6 -7 6 0 6 0 26 10 27 10 11 -7 11 -6 -20 -9 -19 -8 28 5 27 5 0 -10 0 -11
10 6 10 6 20 -11 20 -11 0 -13 0 -14 30 -12 30 -12 0 -11 0 -11 -12 12 -12 12
-18 0 -18 0 0 9 0 10 -29 14 -29 15 -26 -5 -27 -5 -18 16 -18 16 -23 -20 -23
-20 17 -6 17 -7 11 11 10 10 46 -24 45 -24 12 0 13 0 6 -16 6 -16 0 -3 0 -4
-21 4 -21 4 -16 -16 -16 -16 21 7 21 7 6 -16 6 -16 10 6 10 6 -5 9 -5 8 15 6
14 5 6 -9 6 -9 -6 -28 -5 -28 9 20 9 20 13 -32 13 -33 8 0 8 0 0 8 0 8 -12 12
-12 12 13 0 12 0 13 -13 13 -12 -5 -13 -4 -12 10 0 10 0 5 8 4 7 -3 -12 -3
-13 23 0 24 0 6 -15 5 -15 21 0 20 0 0 -10 0 -10 -18 0 -18 0 -17 20 -18 21
-9 -6 -10 -6 -16 15 -15 16 -12 0 -12 0 25 -20 25 -20 13 5 12 4 0 -12 0 -12
27 -25 27 -25 -8 13 -7 12 22 0 22 0 -6 -37 -6 -38 8 13 8 14 29 -27 28 -26
-2 -37 -3 -37 16 23 17 23 -5 13 -5 13 10 14 10 14 5 -14 6 -14 18 -18 19 -19
0 -14 0 -14 6 -16 6 -16 9 6 9 5 0 -18 0 -19 13 -14 12 -14 -27 17 -28 17 0
-5 0 -6 10 -19 10 -18 -15 -12 -15 -12 11 -22 11 -21 -13 13 -13 12 -6 0 -7 0
5 -32 5 -33 8 20 8 20 0 -20 0 -20 -8 -20 -8 -20 -8 35 -9 35 2 12 3 11 -11 7
-10 6 0 -23 0 -23 22 -52 22 -53 8 0 8 0 -12 20 -12 20 12 12 13 13 -3 -15 -3
-15 24 -3 23 -4 9 11 9 11 -6 -5 -7 -5 -14 11 -13 11 0 -8 0 -9 -10 15 -10 15
1 25 1 25 5 -19 5 -19 9 14 9 14 0 -26 0 -27 30 -5 30 -6 0 -11 0 -11 -10 6
-10 6 6 -16 7 -16 25 3 25 3 5 14 5 14 -22 -6 -21 -5 0 5 0 4 15 16 15 15 -5
9 -6 9 10 0 11 0 1 -10 2 -10 1 -12 1 -13 16 -3 15 -3 14 26 13 25 14 0 13 0
1 -17 1 -18 9 33 10 32 24 0 24 0 6 20 6 20 9 0 8 0 5 -12 4 -13 -15 -23 -15
-23 6 -5 6 -6 10 7 11 6 -5 10 -6 9 13 1 13 1 7 -1 7 -1 -5 14 -5 14 18 -1 18
-2 3 24 4 23 -12 -7 -11 -7 5 -14 6 -15 -18 3 -17 3 -17 19 -18 19 6 8 5 9 14
0 13 0 4 -10 3 -9 13 7 12 8 -32 34 -33 33 -30 19 -30 18 -9 0 -8 0 6 -15 5
-15 -36 20 -36 19 -9 13 -8 13 0 9 0 8 20 -23 19 -24 1 15 1 15 12 -15 12 -15
25 -1 24 -1 -23 16 -22 16 -26 23 -26 22 -14 0 -14 0 6 10 6 10 -31 0 -31 0 5
8 5 9 -27 14 -27 14 -20 25 -20 25 -17 17 -18 18 -15 -6 -15 -6 0 11 0 11 -16
0 -15 0 7 13 8 12 -15 -12 -14 -11 -16 11 -15 12 -7 18 -6 17 -15 0 -15 0 -6
21 -7 21 13 9 14 8 29 -30 29 -29 6 6 6 7 -13 4 -12 5 6 9 5 9 -15 0 -16 0 0
14 0 14 -20 5 -20 5 0 -8 0 -8 -15 -6 -15 -5 -15 5 -15 6 0 10 0 10 15 -6 15
-5 0 9 0 9 -10 6 -10 6 5 9 6 10 -10 19 -10 19 -26 6 -25 6 0 11 0 10 -10 -6
-10 -6 6 15 6 15 -7 11 -7 11 -14 -12 -14 -11 0 25 0 25 -15 12 -15 12 0 -6 0
-7 11 -21 11 -20 -10 -10 -9 -9 -6 30 -6 31 -16 0 -15 0 0 30 0 29 -14 -5 -14
-5 -6 -31 -6 -30 -14 11 -14 12 5 19 5 20 -11 14 -11 14 -23 1 -22 2 -40 2
-40 2 -5 5 -5 6 -112 -11z m12 -35 l-20 -9 -23 0 -23 -1 5 -8 5 -8 -19 0 -19
0 4 5 5 4 -9 11 -9 11 61 2 62 2 -20 -9z m182 4 l-6 -6 -13 5 -13 5 19 1 19 1
-6 -6z m47 -42 l-5 -17 -52 2 -52 2 50 -9 50 -9 11 -16 12 -16 14 15 15 14 36
0 37 0 0 -9 0 -9 -7 -1 -8 -1 -27 -2 -26 -1 -7 -6 -6 -6 42 -7 41 -7 -6 -15
-6 -16 20 5 20 5 0 -19 0 -19 -14 0 -14 0 -31 26 -30 25 -20 2 -20 1 -5 13 -5
13 -30 0 -30 0 -5 9 -6 8 -32 9 -33 8 -15 2 -15 2 -13 1 -13 1 6 10 6 9 34 -1
34 -1 13 11 13 10 35 4 35 3 7 -2 6 -3 -4 -18z m-416 -15 l11 -13 -3 -17 -2
-16 -6 -7 -7 -6 -35 13 -36 13 0 8 0 8 25 0 25 0 0 15 0 15 9 0 9 0 10 -13z
m212 3 l0 -10 -14 0 -15 0 -6 10 -6 10 20 0 21 0 0 -10z m-350 -30 l0 -10 -14
0 -15 0 -6 10 -6 10 20 0 21 0 0 -10z m358 -11 l12 -16 -13 -11 -13 -11 -2 31
-3 32 4 -5 3 -4 12 -16z m-308 -9 l0 -10 -20 0 -20 0 0 10 0 10 20 0 20 0 0
-10z m193 -40 l-4 -4 -9 14 -9 14 6 10 6 10 7 -20 7 -19 -4 -5z m157 15 l0
-15 -10 0 -10 0 0 15 0 15 10 0 10 0 0 -15z m-210 -5 l0 -10 -22 0 -23 0 15
10 15 10 8 0 7 0 0 -10z m-317 -13 l5 -13 -24 -2 -24 -2 0 9 0 9 13 5 12 5 6
1 7 1 5 -13z m-27 -42 l3 -10 -25 -19 -26 -18 -10 10 -10 10 12 22 11 21 21
-3 21 -3 3 -10z m754 -5 l0 -10 -11 0 -10 0 6 10 6 10 5 0 4 0 0 -10z m157
-94 l-15 -15 -5 13 -5 14 11 11 11 11 9 -9 10 -10 -16 -15z m-1107 -46 l0 -10
-4 0 -5 0 -6 10 -6 10 10 0 11 0 0 -10z m31 -38 l-23 -4 -6 7 -6 6 14 9 14 9
15 -12 14 -12 -22 -3z m1179 3 l12 -15 -13 0 -14 0 15 -10 15 -10 -22 0 -23 0
0 25 0 25 9 0 9 0 12 -15z m50 -50 l0 -15 -10 0 -10 0 0 15 0 15 10 0 10 0 0
-15z m-1280 -22 l0 -28 -10 15 -10 15 0 -14 0 -14 -6 6 -6 5 7 21 6 21 10 0 9
0 0 -27z m1300 -28 l0 -4 -12 -25 -11 -26 -13 18 -12 17 10 12 10 13 14 0 14
0 0 -5z m80 -61 l0 -14 -10 0 -10 0 0 21 0 20 10 -6 10 -6 0 -15z m-60 -4 l0
-10 -10 0 -10 0 0 10 0 10 10 0 10 0 0 -10z m-1368 -39 l4 -30 -17 10 -17 9 3
17 3 18 1 3 1 2 9 0 9 0 4 -29z m1582 -17 l7 -26 29 -11 30 -11 0 -7 0 -8 32
-15 31 -16 4 0 3 0 1 18 1 17 5 -13 5 -12 9 6 9 5 0 -16 0 -16 -9 6 -10 5 -5
-8 -5 -8 20 -14 19 -14 0 -13 0 -13 -5 0 -6 0 -22 23 -22 22 -27 14 -28 14 0
14 0 13 -19 0 -20 0 -6 10 -6 10 -22 0 -22 0 15 10 15 10 -16 0 -17 0 -6 16
-6 16 6 9 5 9 14 0 13 0 6 -26z m-74 -4 l0 -8 28 -29 27 -30 15 -6 15 -5 -22
-1 -22 -1 -19 25 -20 25 -11 0 -11 0 0 -5 0 -6 20 -21 20 -22 0 -8 0 -8 -10 0
-9 0 -12 23 -12 22 -11 8 -11 9 13 5 12 5 0 24 0 25 10 -6 10 -6 0 -9z m-1370
-95 l0 -15 -10 0 -9 0 5 15 6 15 4 0 4 0 0 -15z m1447 -11 l-6 -6 -13 5 -13 5
19 1 19 1 -6 -6z m74 -23 l10 -28 24 -13 23 -12 11 6 11 7 0 -11 0 -11 -27 3
-28 3 -12 -15 -12 -15 -7 20 -7 20 -15 18 -15 17 9 0 9 0 -15 11 -15 11 23 -5
22 -5 0 8 0 8 -12 5 -13 5 13 1 13 1 10 -29z m-1531 -6 l0 -15 -10 0 -10 0 0
15 0 15 10 0 10 0 0 -15z m1390 -35 l0 -9 -15 5 -15 6 0 4 0 4 15 0 15 0 0
-10z m57 -47 l-5 -18 0 30 0 30 5 -12 5 -13 -5 -17z m-1564 -115 l4 -56 -7
-12 -7 -12 -6 15 -6 15 6 56 6 56 3 -2 2 -3 5 -57z m64 40 l-5 -13 -1 19 -1
19 6 -6 6 -6 -5 -13z m30 -15 l-5 -18 0 30 0 30 5 -12 5 -13 -5 -17z m-130
-35 l-5 -13 -1 19 -1 19 6 -6 6 -6 -5 -13z m153 -27 l0 -13 -14 12 -15 11 6
16 6 15 8 -14 9 -13 0 -14z m-20 -21 l0 -10 -14 0 -15 0 -6 10 -6 10 20 0 21
0 0 -10z m21 -27 l-10 -18 -1 16 0 16 7 6 6 7 5 -4 4 -4 -11 -19z m-76 -31
l-7 -17 -7 20 -8 19 11 12 11 12 3 -15 4 -14 -7 -17z m-40 18 l6 -10 -10 0
-11 0 0 10 0 10 4 0 5 0 6 -10z m133 -55 l-6 -45 18 0 18 0 5 -20 5 -20 -7 0
-7 0 -29 30 -29 30 13 0 13 0 -6 25 -7 26 6 9 6 10 6 0 6 0 -5 -45z m-98 -66
l0 -8 -11 -7 -11 -6 -24 26 -25 26 -10 0 -10 0 6 10 6 10 40 -22 39 -22 0 -7z
m38 17 l4 -18 -26 17 -26 17 0 9 0 8 23 -8 22 -8 3 -17z m126 -2 l6 -15 -10 6
-10 6 0 10 0 9 4 0 4 0 6 -16z m-69 -38 l23 -25 -16 -3 -17 -3 -17 20 -16 20
5 7 4 8 6 0 6 0 22 -24z m105 4 l0 -10 -10 0 -10 0 0 10 0 10 10 0 10 0 0 -10z
m-189 -23 l-11 -11 -6 7 -6 6 7 10 6 11 11 -6 10 -6 -11 -11z m589 -52 l0 -15
-16 0 -16 0 12 15 12 15 4 0 4 0 0 -15z m-40 -6 l0 -9 -37 -1 -38 -1 -45 -3
-45 -3 20 5 20 5 7 7 8 7 55 0 55 1 0 -8z m-450 -13 l0 -4 -15 -6 -15 -5 0 9
0 10 15 0 15 0 0 -4z m216 -31 l-6 -16 -10 6 -11 7 12 14 12 14 5 -4 4 -5 -6
-16z m217 18 l-13 -5 -17 5 -18 5 30 0 30 0 -12 -5z m-63 -17 l0 -4 -16 -6
-15 -6 6 10 6 10 10 0 9 0 0 -4z"/>
<path d="M4911 1544 l1 -19 5 13 5 13 -6 6 -6 6 1 -19z"/>
<path d="M1810 2029 l11 -19 14 0 15 0 0 9 0 10 -12 8 -13 7 -12 2 -13 2 10
-19z"/>
<path d="M4660 2045 l0 -10 10 -15 10 -15 0 10 0 10 -10 15 -10 15 0 -10z"/>
<path d="M1860 2001 l0 -10 11 -6 10 -7 4 3 3 4 -14 13 -14 13 0 -10z"/>
<path d="M1578 1977 l16 -18 14 6 15 5 21 -17 21 -18 -19 23 -19 22 -19 -6
-18 -5 0 9 0 10 13 5 12 4 -27 -1 -27 -1 17 -18z"/>
<path d="M13 1973 l3 -22 7 -7 7 -7 0 14 0 14 -10 15 -10 15 3 -22z"/>
<path d="M120 1972 l0 -9 20 -23 20 -23 7 7 7 7 -27 25 -27 25 0 -9z"/>
<path d="M1880 1950 l11 -21 10 6 9 6 0 4 0 4 -21 11 -21 12 12 -22z"/>
<path d="M70 1940 l0 -10 10 0 10 0 0 10 0 10 -10 0 -10 0 0 -10z"/>
<path d="M1610 1943 l0 -10 20 -18 20 -18 0 10 0 10 -20 18 -20 18 0 -10z"/>
<path d="M1921 1927 l-12 -15 15 -5 15 -6 5 7 5 8 -8 12 -8 13 -12 -14z"/>
<path d="M175 1901 l-5 -10 19 2 20 1 -5 8 -5 8 -9 0 -9 0 -6 -9z"/>
<path d="M11 1833 l-1 -62 8 -5 9 -5 -4 57 -5 57 -3 10 -3 10 -1 -62z"/>
<path d="M1970 1870 l0 -10 10 0 10 0 0 10 0 10 -10 0 -10 0 0 -10z"/>
<path d="M216 1856 l6 -16 10 0 10 0 -4 12 -4 12 -12 4 -12 4 6 -16z"/>
<path d="M1734 1855 l15 -15 7 0 6 0 -12 15 -12 15 -10 0 -9 0 15 -15z"/>
<path d="M4279 1849 l-1 -14 1 -12 2 -12 -18 -4 -18 -4 30 4 30 5 63 5 62 5 0
8 0 7 -42 7 -43 6 -32 6 -33 6 -1 -13z"/>
<path d="M1990 1839 l0 -10 10 6 10 6 0 5 0 4 -10 0 -10 0 0 -11z"/>
<path d="M4910 1842 l0 -7 20 -13 20 -12 0 8 0 8 -12 12 -12 12 -8 0 -8 0 0
-8z"/>
<path d="M71 1833 l-1 -11 -6 -19 -6 -18 11 15 11 15 0 -14 0 -14 5 5 5 5 -9
24 -10 24 0 -12z"/>
<path d="M247 1826 l-6 -15 14 5 15 6 11 -26 12 -26 24 -16 25 -15 -6 -16 -6
-16 14 12 15 12 -45 46 -44 47 0 8 0 8 -9 0 -9 0 -5 -14z"/>
<path d="M4846 1825 l-5 -15 9 0 9 0 6 9 5 10 -9 5 -9 6 -6 -15z"/>
<path d="M3736 1806 l6 -16 10 0 10 0 -4 12 -4 12 -12 4 -12 4 6 -16z"/>
<path d="M160 1801 l0 -10 12 -7 11 -7 -8 14 -9 14 16 -13 16 -13 6 -25 7 -25
9 6 10 6 0 18 0 18 -18 16 -19 17 -16 0 -17 0 0 -9z"/>
<path d="M4480 1799 l15 -11 -70 6 -70 6 15 -10 15 -9 55 -12 55 -12 23 -3 22
-2 -6 9 -5 9 33 -2 33 -3 0 15 0 15 -17 3 -18 3 5 -13 5 -13 -42 -2 -43 -2 33
14 32 14 0 3 0 4 -42 1 -43 2 15 -10z"/>
<path d="M4198 1793 l12 -5 13 5 12 5 -25 0 -25 0 13 -5z"/>
<path d="M3685 1780 l-6 -10 10 0 11 0 0 10 0 10 -4 0 -5 0 -6 -10z"/>
<path d="M3710 1780 l0 -10 16 0 15 0 -6 10 -6 10 -10 0 -9 0 0 -10z"/>
<path d="M4288 1783 l12 -5 13 5 12 5 -25 0 -25 0 13 -5z"/>
<path d="M71 1764 l1 -19 5 13 5 13 -6 6 -6 6 1 -19z"/>
<path d="M257 1773 l-7 -6 0 -11 0 -10 12 12 12 12 -5 5 -6 5 -6 -7z"/>
<path d="M4078 1758 l27 -18 8 0 8 0 -7 11 -7 11 11 7 11 6 -39 0 -39 0 27
-17z"/>
<path d="M4175 1770 l-30 -8 38 -1 38 -1 -6 10 -6 10 -2 -1 -2 -1 -30 -8z"/>
<path d="M4017 1743 l-7 -6 13 -15 12 -15 -20 10 -20 10 -12 -4 -13 -5 0 -10
0 -9 23 7 22 6 -7 -7 -7 -8 -46 -2 -45 -2 -24 -22 -24 -23 -6 10 -6 9 20 23
20 23 -4 5 -5 4 -37 -22 -36 -23 -39 -39 -39 -40 5 -9 6 -8 29 6 30 6 0 -12 0
-11 -12 0 -12 0 19 -14 20 -14 9 5 9 6 -7 -27 -6 -26 9 0 9 0 22 37 22 38 19
13 19 13 0 11 0 10 -14 -11 -13 -11 -17 6 -16 6 0 14 0 14 8 0 8 0 13 -12 14
-13 -6 18 -6 17 9 0 9 0 13 -14 14 -13 22 17 21 18 -6 6 -6 6 -18 -16 -17 -15
-6 10 -6 10 22 15 22 15 13 -10 13 -11 39 29 40 29 -20 12 -19 12 -3 0 -4 0
-6 -7z m-183 -107 l-19 -15 33 -11 32 -12 0 -5 0 -5 -19 -24 -19 -24 -6 15 -5
15 5 15 6 14 -26 7 -26 6 11 19 10 19 21 0 22 0 -20 -14z"/>
<path d="M1817 1719 l7 -23 4 13 4 13 -10 10 -11 11 6 -24z"/>
<path d="M2103 1718 l-2 -20 7 8 7 9 8 6 9 6 -14 6 -14 5 -1 -20z"/>
<path d="M366 1705 l6 -15 9 6 9 5 -5 10 -6 9 -9 0 -9 0 5 -15z"/>
<path d="M1860 1695 l-12 -15 11 0 11 0 0 11 0 10 12 -7 11 -7 -7 11 -7 12 -3
0 -4 0 -12 -15z"/>
<path d="M2131 1694 l1 -19 5 13 5 13 -6 6 -6 6 1 -19z"/>
<path d="M252 1671 l-23 -31 13 0 13 0 13 9 14 8 -4 23 -3 22 -23 -31z"/>
<path d="M295 1669 l-7 -10 6 -6 6 -7 11 11 11 11 -10 6 -11 6 -6 -11z"/>
<path d="M417 1666 l-6 -14 14 -5 13 -6 -2 14 -2 14 -6 6 -6 6 -5 -15z"/>
<path d="M2150 1667 l0 -14 14 0 14 0 -5 14 -5 13 -9 0 -9 0 0 -13z"/>
<path d="M1930 1642 l12 -24 6 6 6 6 -18 18 -18 17 12 -23z"/>
<path d="M260 1625 l0 -15 10 0 10 0 0 15 0 15 -10 0 -10 0 0 -15z"/>
<path d="M2207 1614 l5 -14 9 0 9 0 0 9 0 9 -14 5 -15 6 6 -15z"/>
<path d="M470 1616 l0 -7 20 -21 20 -22 5 6 5 5 -25 23 -25 23 0 -7z"/>
<path d="M1960 1602 l0 -11 -17 5 -18 6 15 -11 15 -10 9 9 10 10 -7 7 -7 6 0
-11z"/>
<path d="M2231 1586 l-11 -13 26 0 26 0 -8 6 -9 6 -6 8 -6 7 -12 -14z"/>
<path d="M3570 1593 l0 -11 -6 -16 -6 -16 10 0 10 0 6 17 7 16 -11 11 -10 10
0 -11z"/>
<path d="M270 1565 l0 -15 10 0 9 0 -5 15 -6 15 -4 0 -4 0 0 -15z"/>
<path d="M472 1566 l13 -14 4 3 3 4 -7 10 -6 11 -10 0 -10 0 13 -14z"/>
<path d="M310 1566 l0 -4 15 -5 14 -6 6 9 6 10 -20 0 -21 0 0 -4z"/>
<path d="M2286 1542 l-5 -9 14 0 14 0 -5 9 -5 8 -4 0 -4 0 -5 -8z"/>
<path d="M260 1531 l0 -10 10 -6 10 -6 -6 15 -6 16 -4 0 -4 0 0 -9z"/>
<path d="M540 1537 l0 -3 50 -54 50 -54 6 7 7 6 -51 51 -50 50 -6 0 -6 0 0 -3z"/>
<path d="M3532 1520 l-12 -20 0 -22 1 -23 15 34 15 34 -3 9 -3 8 -13 -20z"/>
<path d="M5270 1530 l0 -10 11 0 10 0 -6 10 -6 10 -5 0 -4 0 0 -10z"/>
<path d="M4183 1524 l7 -12 -58 -8 -57 -7 18 -4 17 -4 0 -8 0 -8 26 3 26 2 30
13 30 12 6 -10 7 -11 24 -3 24 -4 4 -12 4 -12 -68 1 -68 2 -27 -6 -28 -7 0 15
0 14 -15 0 -15 0 0 10 0 10 -10 0 -10 0 0 -11 0 -10 15 -15 15 -15 0 -12 0
-12 -20 25 -20 25 -14 -17 -13 -18 -8 8 -8 7 7 -19 6 -18 -15 6 -15 5 0 -14 0
-15 -8 0 -8 0 -17 -72 -17 -73 0 -37 0 -38 15 0 15 0 -5 28 -5 27 10 -20 10
-20 -5 30 -6 30 1 29 1 29 7 13 7 12 3 -76 3 -77 9 -9 10 -10 0 -23 0 -23 -9
0 -9 0 -6 -15 -5 -15 18 0 19 0 -2 16 -1 17 13 5 14 4 -4 -33 -3 -33 18 -4 19
-4 29 12 29 12 0 38 0 38 17 13 17 14 -8 -20 -7 -20 -6 -29 -6 -29 10 6 10 7
7 38 6 39 45 42 45 41 67 0 68 1 -30 14 -30 13 25 1 25 0 40 -14 40 -15 5 0 5
1 -24 20 -24 20 28 -5 28 -5 8 -13 8 -13 -9 -3 -10 -4 0 -10 0 -10 15 12 15
13 4 -4 4 -4 6 -21 7 -22 -21 -5 -20 -5 1 -34 2 -33 4 25 5 25 9 10 9 9 0 -47
0 -47 13 0 12 0 -14 -9 -14 -9 7 -11 7 -11 10 0 10 0 -6 9 -5 10 10 6 10 6 0
20 0 19 -11 0 -12 0 5 65 6 64 -22 15 -21 15 15 10 14 10 8 -5 8 -5 -6 15 -6
16 -8 0 -8 0 11 24 12 24 12 -17 12 -18 7 -28 7 -28 -10 6 -11 7 -1 -85 -1
-85 9 0 9 0 5 -27 5 -27 -5 -13 -5 -13 -15 0 -14 0 5 -8 5 -8 -9 -14 -9 -15
-16 20 -15 20 3 29 2 29 -12 4 -13 5 0 -56 0 -56 -37 -42 -38 -41 21 11 21 11
12 15 12 15 16 -6 15 -6 -7 21 -6 22 9 0 10 0 6 -16 6 -16 -21 -19 -22 -19 11
0 11 0 -5 -15 -6 -15 11 0 11 0 0 -20 0 -20 -15 0 -14 0 -16 30 -15 29 -14 -5
-14 -6 -6 -14 -6 -15 -11 6 -10 7 6 15 5 16 -15 -13 -16 -13 11 -7 12 -7 -16
-6 -15 -6 -3 10 -4 11 -27 -13 -28 -12 13 -10 13 -9 -30 7 -30 6 20 -15 20
-15 8 -1 8 0 14 14 14 14 -5 5 -5 5 29 -3 29 -2 23 -20 22 -21 -4 -24 -4 -23
-8 20 -8 20 -11 22 -10 23 -13 -10 -12 -11 5 -19 5 -19 14 -12 13 -11 -14 -14
-14 -14 -10 0 -10 0 -6 -10 -6 -10 6 -10 7 -11 14 12 14 11 0 -20 0 -21 -11
-7 -11 -7 -8 12 -7 12 -17 -16 -16 -16 0 7 0 8 -13 -18 -13 -17 -17 7 -17 6 0
14 0 14 13 1 12 1 20 2 20 1 -4 15 -4 15 1 18 1 17 -16 0 -15 0 6 -16 6 -15
-14 -14 -13 -14 -39 -7 -39 -7 -11 -8 -11 -9 -24 2 -24 3 0 -25 0 -25 25 -2
25 -1 13 -1 13 -1 -5 -8 -5 -9 32 2 32 2 26 11 26 10 7 17 6 16 11 -6 11 -7
-5 -19 -5 -19 4 0 3 0 36 20 36 20 13 0 14 0 12 15 12 15 -6 0 -6 0 -18 -9
-17 -8 -32 -17 -33 -17 0 27 0 26 13 -11 14 -11 22 24 21 23 30 -2 30 -2 0 14
0 13 18 0 17 1 -20 15 -19 14 -13 -4 -13 -5 1 12 0 12 7 15 7 15 17 1 18 2 -6
-9 -5 -9 11 0 11 0 -6 -10 -6 -10 12 0 12 0 -7 40 -6 40 14 0 14 0 5 13 4 12
7 -6 6 -6 -15 -29 -15 -29 0 -16 0 -17 16 -6 16 -6 6 0 7 0 -14 9 -13 9 7 31
7 31 8 0 9 0 6 -10 7 -11 -13 -15 -12 -14 7 -7 7 -7 10 14 9 15 -5 35 -6 35
10 -15 10 -14 5 14 4 15 5 20 5 20 7 20 7 20 -19 -20 -18 -21 -16 -6 -16 -6 0
14 0 14 11 0 11 0 -15 10 -15 10 12 0 12 0 7 -11 7 -11 8 13 9 14 0 15 0 15
-11 -15 -11 -15 7 20 8 20 4 48 5 47 -11 0 -11 0 0 27 0 27 15 -20 14 -19 -11
32 -12 33 -21 -6 -20 -6 20 16 20 15 -11 1 -12 0 -5 27 -5 27 11 17 11 18 13
-17 13 -17 -17 42 -16 43 -35 41 -35 40 -22 -21 -21 -20 -7 6 -6 6 -31 -31
-32 -31 -18 0 -18 0 -4 -11 -3 -10 -20 -3 -20 -3 2 -14 3 -14 -45 -3 -44 -2
-6 10 -6 10 36 0 36 0 -3 18 -3 17 -23 1 -22 2 20 -5 20 -4 0 -10 0 -9 -18 0
-18 0 -22 25 -22 25 -12 0 -11 0 7 7 7 7 15 2 15 2 6 -14 5 -14 14 0 15 0 5
14 5 13 24 -4 23 -5 5 -19 5 -19 11 0 11 0 0 10 0 10 25 0 25 0 0 10 0 10 -36
0 -35 0 7 11 6 11 30 -6 29 -6 19 13 20 12 0 8 0 8 -11 -6 -10 -7 -27 7 -27 7
18 9 17 10 31 -15 31 -16 10 6 10 7 -13 8 -14 9 -25 1 -25 1 13 5 12 5 -6 9
-5 9 -15 -15 -15 -15 -10 0 -9 0 -6 26 -6 25 -14 -5 -13 -5 -7 10 -6 11 -32
14 -31 13 15 1 15 0 -14 9 -14 9 -25 -9 -24 -9 -16 12 -16 13 7 -11z m2 -84
l-6 -10 -10 0 -9 0 0 10 0 10 16 0 15 0 -6 -10z m163 -10 l12 -20 -19 0 -20 0
-6 10 -6 10 6 10 6 10 7 0 7 0 13 -20z m-48 -10 l0 -10 -15 0 -15 0 -1 -17 -1
-18 -5 13 -5 13 6 14 5 15 16 0 15 0 0 -10z m-189 -14 l-25 -14 -15 6 -16 6
30 7 30 7 10 0 10 1 -24 -13z m71 7 l-12 -5 7 -11 7 -12 -17 14 -17 13 0 4 0
4 23 -1 22 -1 -13 -5z m66 -26 l3 -17 -15 0 -16 0 0 21 0 21 13 -4 12 -5 3
-16z m-218 -8 l0 -9 -12 -21 -13 -22 13 -4 12 -5 0 -15 0 -15 -14 5 -14 5 -11
-11 -11 -11 0 15 0 15 11 11 10 10 -15 16 -16 16 0 10 0 10 17 9 17 10 13 -5
13 -5 0 -9z m485 -18 l-6 -21 -10 0 -9 0 0 10 0 11 13 13 12 14 3 -3 4 -3 -7
-21z m-446 -38 l12 -26 -8 -8 -8 -8 -11 7 -11 7 -7 28 -6 27 13 0 14 0 12 -27z
m73 -8 l-27 -24 -9 9 -9 9 6 15 6 16 15 -6 14 -5 7 10 6 11 10 -5 9 -6 -28
-24z m344 21 l14 -15 0 -4 0 -4 -37 3 -38 2 -5 1 -5 1 25 14 25 14 3 1 3 1 15
-14z m99 -56 l-7 -22 -5 5 -5 5 7 22 7 22 5 -5 5 -5 -7 -22z m-558 -47 l-10
-23 11 -25 12 -26 0 -5 0 -5 -10 6 -10 6 0 -13 0 -13 -8 13 -8 12 2 48 3 47
-9 -15 -10 -15 0 11 0 11 5 4 4 5 19 0 20 0 -11 -23z m99 15 l15 -13 19 -17
19 -17 6 9 6 10 -9 0 -10 0 -6 15 -6 15 20 -10 19 -10 8 0 8 0 -14 9 -13 9 9
5 9 6 12 -8 12 -7 -39 -38 -39 -38 -6 11 -7 11 10 0 11 0 -12 19 -12 20 -7 -5
-8 -4 -10 17 -10 18 -7 -18 -7 -19 -8 13 -8 13 12 8 12 8 8 0 8 0 15 -12z
m-68 -53 l-1 -34 -9 5 -8 5 0 23 0 23 7 6 6 7 3 0 3 0 -1 -35z m82 8 l0 -8
-22 -35 -22 -35 -7 25 -7 25 -1 -23 -1 -23 15 -5 15 -6 0 -19 0 -18 -20 -11
-21 -11 -18 6 -19 6 5 19 5 20 11 -7 10 -6 -6 16 -6 17 17 30 17 30 13 0 12 0
0 10 0 10 15 0 15 0 0 -7z m309 -344 l-14 -8 -6 17 -6 17 4 8 4 7 16 -16 16
-16 -14 -9z m-19 -113 l0 -15 -10 -6 -10 -6 0 20 0 21 10 0 10 0 0 -14z m-240
-96 l0 -10 -15 0 -15 0 0 10 0 10 15 0 15 0 0 -10z m30 -5 l0 -15 -10 0 -10 0
0 15 0 15 10 0 10 0 0 -15z"/>
<path d="M4058 1073 l13 -5 6 6 6 6 -19 -1 -19 -1 13 -5z"/>
<path d="M345 1510 l6 -10 5 0 4 0 0 10 0 10 -11 0 -10 0 6 -10z"/>
<path d="M2317 1513 l-7 -6 0 -11 0 -10 12 12 12 12 -5 5 -6 5 -6 -7z"/>
<path d="M4355 1490 l-6 -10 24 0 25 0 41 -23 41 -24 -5 -5 -6 -6 17 -6 17 -6
-15 22 -15 23 -34 17 -34 16 -22 6 -21 7 -7 -11z"/>
<path d="M5325 1480 l18 -20 10 0 10 0 -23 20 -23 20 -5 0 -5 0 18 -20z"/>
<path d="M537 1483 l12 -4 -6 -15 -5 -14 15 0 16 0 6 11 7 10 -4 4 -3 3 -25 5
-25 4 12 -4z"/>
<path d="M3746 1456 l1 -31 2 -10 2 -10 9 20 9 20 0 16 1 17 -12 5 -13 4 1
-31z"/>
<path d="M2340 1470 l0 -10 11 0 10 0 -6 10 -6 10 -5 0 -4 0 0 -10z"/>
<path d="M4370 1450 l0 -10 9 0 10 0 6 10 6 10 -15 0 -16 0 0 -10z"/>
<path d="M520 1429 l0 -10 10 6 10 6 0 5 0 4 -10 0 -10 0 0 -11z"/>
<path d="M2115 1430 l6 -10 5 0 4 0 0 10 0 10 -11 0 -10 0 6 -10z"/>
<path d="M598 1413 l-18 -4 0 -10 0 -9 8 0 7 1 25 14 25 14 -15 -1 -15 0 -17
-5z"/>
<path d="M666 1413 l11 -8 6 -15 7 -15 -3 19 -2 19 -15 4 -15 5 11 -9z"/>
<path d="M2407 1404 l5 -14 9 0 9 0 0 9 0 9 -14 5 -15 6 6 -15z"/>
<path d="M427 1378 l-6 -22 4 -5 5 -4 0 11 0 12 16 0 16 0 -4 12 -4 12 -11 3
-10 4 -6 -23z"/>
<path d="M496 1386 l6 -16 10 0 10 0 -4 12 -4 12 -12 4 -12 4 6 -16z"/>
<path d="M2140 1390 l-15 -10 23 0 23 0 -6 10 -6 10 -2 0 -2 0 -15 -10z"/>
<path d="M700 1370 l0 -10 16 0 15 0 -6 10 -6 10 -10 0 -9 0 0 -10z"/>
<path d="M549 1353 l-1 -8 0 -5 0 -5 6 -40 6 -40 15 -11 15 -11 0 -12 0 -11
25 -12 25 -11 0 -9 0 -9 10 6 10 6 -10 19 -11 20 -27 14 -27 15 15 2 15 1 10
-2 10 -1 -12 12 -13 13 -12 -12 -12 -12 -5 0 -6 0 0 25 0 25 13 -5 12 -4 0 7
0 8 19 1 20 2 12 -15 11 -14 12 0 11 0 -13 9 -14 8 -12 24 -12 24 -15 3 -16 3
-6 -21 -6 -21 -19 18 -19 18 4 8 4 7 -5 0 -6 0 -1 -7z"/>
<path d="M2471 1334 l1 -19 5 13 5 13 -6 6 -6 6 1 -19z"/>
<path d="M441 1337 l4 -3 20 -14 20 -15 -14 18 -13 17 -11 0 -10 0 4 -3z"/>
<path d="M722 1321 l12 -19 14 6 15 5 -7 -11 -7 -12 15 6 16 6 0 -13 0 -14 51
-53 51 -54 5 6 5 5 -20 25 -19 25 -7 -6 -6 -6 0 9 0 10 11 11 10 10 -28 19
-28 18 -8 -2 -9 -3 -5 20 -5 19 -24 -3 -24 -2 0 8 0 9 -10 0 -10 0 12 -19z
m114 -68 l-3 -3 -17 6 -16 6 0 16 0 15 20 -18 20 -18 -4 -4z"/>
<path d="M5002 1310 l0 -25 5 13 5 12 -5 13 -5 12 0 -25z"/>
<path d="M423 1313 l-13 -5 0 -18 0 -18 8 -4 7 -3 24 -34 23 -33 -6 -40 -7
-40 -14 -29 -15 -28 -38 -40 -37 -39 -57 -26 -57 -26 -56 0 -56 0 -27 14 -27
14 -24 26 -24 26 -9 0 -8 0 0 -408 0 -408 30 -18 31 -18 332 -13 332 -14 87
-3 87 -3 12 12 12 12 -7 16 -6 17 -18 -13 -17 -13 12 13 11 13 -24 48 -24 48
0 23 0 24 10 37 11 37 75 125 76 126 23 22 22 21 -19 19 -18 18 0 15 0 15 10
0 9 0 10 -17 10 -18 1 23 0 22 -10 0 -9 0 5 14 6 15 13 -5 13 -5 7 10 6 11
-15 6 -16 6 0 14 0 14 -22 0 -23 0 15 -10 15 -10 -11 0 -11 0 2 -22 2 -23 -9
-12 -10 -12 -34 16 -34 16 11 13 10 12 -11 7 -10 6 0 -13 0 -12 -29 31 -28 31
-15 -16 -15 -17 -37 -28 -37 -28 -23 -38 -24 -38 -55 -104 -55 -104 -17 -52
-17 -52 -26 -5 -27 -6 -120 -4 -120 -5 -64 -21 -64 -20 -3 0 -3 0 0 48 0 47
-10 75 -10 75 -1 82 0 82 40 24 40 24 -7 7 -7 7 15 -6 16 -6 54 24 54 24 68
40 67 40 49 46 49 46 23 33 24 32 0 37 1 37 -13 -5 -12 -5 -24 39 -25 38 -42
43 -42 44 6 6 6 6 12 -12 12 -12 8 0 8 0 0 15 0 15 -23 0 -23 0 -11 -11 -11
-11 -6 11 -7 11 -12 -1 -12 -1 -12 -5z m-326 -560 l-5 -18 0 35 0 35 5 -17 4
-18 -4 -17z"/>
<path d="M2500 1291 l0 -11 8 0 7 0 45 -45 45 -44 9 -1 9 0 -24 26 -24 26 -37
30 -38 30 0 -11z"/>
<path d="M5560 1292 l0 -10 15 -12 15 -12 0 10 0 10 -15 12 -15 12 0 -10z"/>
<path d="M3472 1240 l0 -35 5 18 4 17 -4 18 -5 17 0 -35z"/>
<path d="M720 1236 l0 -15 10 -6 10 -6 0 20 0 21 -10 0 -10 0 0 -14z"/>
<path d="M4616 1215 l4 -20 0 -12 0 -13 14 0 14 0 -5 20 -5 20 -8 0 -9 0 -4
13 -4 12 3 -20z"/>
<path d="M5635 1215 l30 -25 10 0 10 0 -30 25 -30 24 -10 0 -10 0 30 -24z"/>
<path d="M2310 1216 l0 -4 18 -13 17 -14 -14 18 -13 17 -4 0 -4 0 0 -4z"/>
<path d="M751 1193 l-1 -23 33 1 32 2 -27 4 -27 4 -4 17 -5 17 -1 -22z"/>
<path d="M693 1185 l0 -15 9 0 8 0 0 9 0 10 -8 5 -9 5 0 -14z"/>
<path d="M920 1176 l0 -4 16 -6 15 -6 -6 10 -6 10 -10 0 -9 0 0 -4z"/>
<path d="M672 1140 l0 -35 5 18 4 17 -4 18 -5 17 0 -35z"/>
<path d="M712 1148 l-10 -10 5 -14 5 -14 19 0 19 0 0 19 0 19 -14 5 -14 5 -10
-10z"/>
<path d="M3950 1146 l0 -11 10 -15 10 -15 1 10 1 10 3 16 3 16 -14 0 -14 0 0
-11z"/>
<path d="M5250 1152 l0 -10 15 -5 14 -6 7 10 6 10 -6 6 -6 6 0 -13 0 -12 -15
12 -15 12 0 -10z"/>
<path d="M939 1138 l13 -18 -5 -14 -6 -15 13 5 14 5 21 -27 21 -26 17 7 18 8
-18 4 -17 5 6 10 7 11 -10 -6 -11 -7 -38 38 -38 37 13 -17z"/>
<path d="M975 1130 l18 -20 5 0 5 0 -18 20 -18 20 -5 0 -5 0 18 -20z"/>
<path d="M2657 1139 l13 -13 5 6 6 6 -18 6 -18 7 12 -12z"/>
<path d="M3463 1110 l0 -45 4 23 4 22 -4 23 -4 22 0 -45z"/>
<path d="M5737 1133 l18 -16 18 -20 17 -19 0 10 0 11 -27 26 -28 25 -8 0 -8 0
18 -17z"/>
<path d="M760 1124 l0 -15 10 6 10 6 0 10 0 9 -10 0 -10 0 0 -16z"/>
<path d="M5291 1113 l-13 -14 5 -5 4 -4 13 15 13 15 -4 4 -4 4 -14 -15z"/>
<path d="M5050 1100 l-11 -20 14 0 13 0 1 20 2 20 -4 0 -4 0 -11 -20z"/>
<path d="M5080 1112 l0 -10 25 -4 25 -5 0 8 0 9 -9 0 -9 0 -16 6 -16 6 0 -10z"/>
<path d="M5230 1110 l0 -10 10 0 10 0 0 10 0 10 -10 0 -10 0 0 -10z"/>
<path d="M817 1104 l-6 -6 6 -14 5 -14 9 0 9 0 0 14 0 15 -9 5 -8 5 -6 -5z"/>
<path d="M4633 1079 l-2 -19 10 0 9 0 0 14 0 15 -8 5 -8 5 -1 -20z"/>
<path d="M5140 1096 l0 -4 30 -4 30 -5 0 9 0 8 -30 0 -30 0 0 -4z"/>
<path d="M690 1065 l23 -25 5 5 5 5 -23 20 -23 20 -5 0 -5 0 23 -25z"/>
<path d="M915 1080 l6 -10 5 0 4 0 0 10 0 10 -11 0 -10 0 6 -10z"/>
<path d="M5086 1081 l-6 -10 9 -5 9 -6 18 7 17 6 -7 -11 -7 -12 33 0 33 0 15
10 15 10 -20 1 -20 2 -25 2 -25 2 -16 7 -17 7 -6 -10z m91 -17 l-6 -6 -13 5
-13 5 19 1 19 1 -6 -6z"/>
<path d="M5230 1080 l-15 -10 15 0 15 0 15 10 15 10 -15 0 -15 0 -15 -10z"/>
<path d="M5800 1080 l0 -10 11 0 10 0 -6 10 -6 10 -5 0 -4 0 0 -10z"/>
<path d="M2738 1053 l12 -5 -6 -9 -5 -9 15 0 15 0 -5 15 -6 15 -17 -1 -16 -1
13 -5z"/>
<path d="M5852 1030 l32 -30 9 0 8 0 -34 30 -35 30 -6 0 -7 0 33 -30z"/>
<path d="M4065 1030 l-20 -9 17 0 17 -1 6 10 6 10 -3 -1 -3 0 -20 -9z"/>
<path d="M858 1015 l6 -10 1 -15 0 -15 20 2 20 2 8 -15 8 -14 14 0 15 0 0 13
0 12 -9 13 -8 14 -24 -4 -24 -3 1 17 2 17 -19 -2 -18 -1 7 -11z"/>
<path d="M1080 1011 l0 -14 21 -34 22 -35 8 14 9 13 0 7 0 7 -14 -5 -13 -5
-16 33 -17 33 0 -14z"/>
<path d="M815 1000 l6 -10 5 0 4 0 0 10 0 10 -11 0 -10 0 6 -10z"/>
<path d="M842 990 l0 -25 5 13 5 12 -5 13 -5 12 0 -25z"/>
<path d="M968 973 l-3 -38 -47 1 -47 1 17 -13 17 -13 3 10 4 10 14 -12 14 -11
0 12 0 13 18 -16 19 -17 13 0 13 0 -6 -46 -5 -47 9 14 9 14 0 43 0 43 -16 16
-15 15 6 29 7 29 -11 0 -10 0 -3 -37z"/>
<path d="M1040 1000 l0 -10 11 0 10 0 -6 10 -6 10 -5 0 -4 0 0 -10z"/>
<path d="M4650 980 l0 -20 10 0 10 0 0 20 0 20 -10 0 -10 0 0 -20z"/>
<path d="M5910 986 l0 -4 18 -13 17 -14 -14 18 -13 17 -4 0 -4 0 0 -4z"/>
<path d="M1027 962 l-17 -19 7 -6 6 -7 8 0 7 0 4 25 5 25 -2 0 -2 0 -16 -18z"/>
<path d="M3480 954 l0 -11 25 -49 25 -49 0 22 0 21 -8 4 -8 3 -17 35 -17 35 0
-11z"/>
<path d="M820 936 l0 -7 19 -20 19 -21 13 8 12 7 -6 -16 -6 -17 9 0 10 0 0 13
0 12 -10 15 -10 15 0 -14 0 -14 -25 23 -25 23 0 -7z"/>
<path d="M1150 922 l0 -8 12 -12 12 -12 8 0 9 0 -11 20 -11 20 -9 0 -10 0 0
-8z"/>
<path d="M1042 896 l3 -17 10 0 10 1 0 12 0 11 -13 5 -14 4 4 -16z"/>
<path d="M2581 891 l-13 -8 10 -7 10 -6 6 15 5 15 -2 0 -2 0 -14 -9z"/>
<path d="M1151 853 l-13 -14 6 -6 6 -7 11 11 11 11 -3 10 -4 10 -14 -15z"/>
<path d="M1215 860 l-6 -10 10 0 11 0 0 10 0 10 -4 0 -5 0 -6 -10z"/>
<path d="M3546 845 l-6 -17 1 -11 0 -12 10 24 9 24 -4 4 -4 4 -6 -16z"/>
<path d="M2642 836 l13 -14 4 3 3 4 -7 10 -6 11 -10 0 -10 0 13 -14z"/>
<path d="M1244 816 l-6 -15 4 -11 3 -10 12 19 13 20 -10 6 -10 6 -6 -15z"/>
<path d="M4345 820 l6 -10 5 0 4 0 0 10 0 10 -11 0 -10 0 6 -10z"/>
<path d="M2685 790 l18 -20 4 0 3 0 -12 20 -13 20 -9 0 -9 0 18 -20z"/>
<path d="M1270 792 l0 -9 27 -12 28 -13 -19 21 -19 21 -9 0 -8 0 0 -8z"/>
<path d="M3560 780 l11 -20 5 0 5 0 -11 20 -11 20 -5 0 -5 0 11 -20z"/>
<path d="M1109 783 l-1 -8 -3 -17 -3 -18 11 -1 12 -1 12 1 11 1 -2 -25 -3 -25
14 0 14 0 -6 -22 -6 -23 12 20 12 20 3 4 4 4 15 -13 15 -12 0 6 0 6 -20 20
-20 20 -6 -1 -6 0 -17 32 -16 33 -12 4 -13 4 -1 -9z"/>
<path d="M4330 780 l0 -8 14 -5 14 -6 6 6 6 6 0 7 0 6 -20 1 -20 2 0 -9z"/>
<path d="M1250 753 l0 -8 10 -15 9 -15 -15 -16 -15 -17 -4 -38 -5 -39 11 43
10 42 9 0 9 0 11 19 10 20 -6 15 -6 16 -14 0 -14 0 0 -7z"/>
<path d="M2727 746 l-7 -18 0 -7 0 -8 15 0 15 0 -1 6 0 6 -8 19 -8 20 -6 -18z"/>
<path d="M1321 743 l-1 -11 -6 -19 -6 -18 12 18 11 18 -5 12 -4 12 -1 -12z"/>
<path d="M4536 725 l-20 -15 11 0 11 0 12 15 12 15 -3 0 -4 -1 -19 -14z"/>
<path d="M1344 706 l-10 -11 -12 -34 -12 -34 0 -8 0 -8 23 22 23 22 -3 23 -3
22 9 0 9 0 36 -42 35 -43 6 6 6 7 -29 28 -29 29 -19 17 -19 16 -11 -12z"/>
<path d="M3700 701 l0 -10 -22 -4 -23 -3 50 -1 50 -1 -19 14 -20 14 -8 0 -8 0
0 -9z"/>
<path d="M1086 681 l-6 -9 20 5 20 5 0 -11 0 -11 18 0 17 1 -19 14 -20 15 -12
0 -13 0 -5 -9z"/>
<path d="M1187 654 l-6 -6 6 -14 5 -14 9 0 9 0 0 14 0 15 -9 5 -8 5 -6 -5z"/>
<path d="M3720 650 l0 -10 11 0 10 0 -6 10 -6 10 -5 0 -4 0 0 -10z"/>
<path d="M1360 625 l0 -15 15 0 14 0 10 -17 10 -18 -2 22 -1 22 -8 -5 -8 -5
-6 15 -6 16 -9 0 -9 0 0 -15z"/>
<path d="M3785 621 l-5 -10 9 -5 9 -6 6 15 5 15 -9 0 -9 0 -6 -9z"/>
<path d="M1435 610 l-20 -9 22 0 22 -1 6 10 6 10 -8 -1 -8 0 -20 -9z"/>
<path d="M1196 595 l6 -15 9 6 9 5 -5 10 -6 9 -9 0 -9 0 5 -15z"/>
<path d="M1255 600 l-6 -10 15 0 16 0 0 10 0 10 -9 0 -10 0 -6 -10z"/>
<path d="M3820 601 l0 -11 25 0 25 0 0 -12 0 -13 8 11 7 12 25 5 25 4 -42 2
-41 1 -16 6 -16 6 0 -11z"/>
<path d="M1165 590 l6 -10 5 0 4 0 0 10 0 10 -11 0 -10 0 6 -10z"/>
<path d="M1430 570 l0 -10 10 0 10 0 0 10 0 10 -10 0 -10 0 0 -10z"/>
<path d="M1490 564 l0 -15 10 6 10 6 -5 10 -6 9 -5 0 -4 0 0 -16z"/>
<path d="M3898 573 l12 -5 13 5 12 5 -25 0 -25 0 13 -5z"/>
<path d="M1317 553 l-7 -6 0 -9 0 -8 23 1 22 1 -18 5 -17 5 5 9 6 9 -4 0 -4 0
-6 -7z"/>
<path d="M1385 520 l6 -10 5 0 4 0 0 10 0 10 -11 0 -10 0 6 -10z"/>
<path d="M1570 503 l0 -10 20 -18 20 -18 0 10 0 10 -20 18 -20 18 0 -10z"/>
<path d="M1366 462 l-6 -10 21 -5 20 -5 -4 11 -3 11 -11 3 -11 4 -6 -9z"/>
<path d="M1560 441 l0 -21 4 0 4 0 5 15 6 14 -9 6 -10 6 0 -20z"/>
<path d="M1448 443 l13 -5 6 6 6 6 -19 -1 -19 -1 13 -5z"/>
<path d="M1640 444 l0 -9 10 -15 9 -14 5 4 4 5 -14 19 -14 20 0 -10z"/>
<path d="M1496 381 l-6 -9 14 -11 14 -12 7 11 6 10 -6 10 -6 10 -9 0 -9 0 -5
-9z"/>
<path d="M1445 369 l-7 -10 5 -5 5 -5 5 16 6 15 -4 0 -4 0 -6 -11z"/>
<path d="M1710 360 l20 -20 0 -9 0 -9 21 -5 22 -6 -6 -20 -5 -21 9 6 9 5 0 12
0 12 -39 38 -38 37 -7 0 -6 0 20 -20z"/>
<path d="M1665 300 l-6 -10 10 0 11 0 0 10 0 10 -4 0 -5 0 -6 -10z"/>
<path d="M1620 280 l0 -10 9 0 10 0 6 10 6 10 -15 0 -16 0 0 -10z"/>
<path d="M1797 276 l-6 -14 16 -6 16 -6 3 2 2 3 -13 18 -13 18 -5 -15z"/>
<path d="M1525 270 l6 -10 5 0 4 0 0 10 0 10 -11 0 -10 0 6 -10z"/>
<path d="M1674 209 l0 -19 13 0 12 0 5 8 5 8 -18 11 -17 10 0 -18z"/>
<path d="M1801 214 l1 -19 5 13 5 13 -6 6 -6 6 1 -19z"/>
<path d="M1840 221 l0 -9 16 -6 16 -6 5 0 4 0 -15 15 -15 15 -5 0 -6 0 0 -9z"/>
<path d="M1880 179 l0 -10 10 6 9 6 17 -26 16 -25 9 0 9 0 -27 30 -26 30 -9 0
-8 0 0 -11z"/>
<path d="M1670 150 l0 -10 10 0 10 0 0 10 0 10 -10 0 -10 0 0 -10z"/>
<path d="M1744 98 l-5 -8 73 1 73 2 -20 3 -20 3 -48 3 -49 3 -4 -7z"/>
</g>
</svg>
