<?xml version="1.0" standalone="no"?>
<!DOCTYPE svg PUBLIC "-//W3C//DTD SVG 20010904//EN"
 "http://www.w3.org/TR/2001/REC-SVG-20010904/DTD/svg10.dtd">
<svg version="1.0" xmlns="http://www.w3.org/2000/svg"
   viewBox="0 0 104.000000 114.000000"
 preserveAspectRatio="xMidYMid meet">
<metadata>
Created by potrace 1.16, written by Peter Selinger 2001-2019
</metadata>
<g transform="translate(0.000000,114.000000) scale(0.100000,-0.100000)"
fill-opacity="0.2" fill="#006400" stroke="none">
<path d="M411 1124 l1 -19 5 13 5 13 -6 6 -6 6 1 -19z"/>
<path d="M463 1133 l17 -4 0 -15 0 -14 -16 0 -15 0 7 13 7 12 -25 -22 -24 -23
-13 0 -13 0 5 -12 4 -13 -9 -18 -10 -19 -13 6 -14 5 -5 -8 -6 -8 33 -5 32 -5
35 1 35 1 3 20 3 20 -10 -15 -10 -14 -25 -2 -26 -1 0 7 0 8 16 6 15 6 -5 -8
-5 -9 14 0 15 0 -17 19 -17 19 -13 -17 -12 -16 2 19 1 19 18 1 18 2 5 -10 6
-9 17 0 17 0 -13 9 -13 8 16 13 15 12 0 24 0 24 -22 -1 -23 -1 18 -5z m1 -54
l-5 -9 -10 0 -9 0 0 15 0 14 15 -5 15 -6 -6 -9z"/>
<path d="M731 1131 l-14 -9 7 -11 7 -11 12 1 12 1 -14 5 -13 5 13 9 13 8 -5 5
-5 5 -13 -8z"/>
<path d="M759 1130 l-1 -10 -2 -12 -1 -13 -15 1 -15 2 -20 8 -20 8 12 -16 13
-15 -4 -4 -5 -4 -5 -28 -5 -27 11 0 10 0 -6 15 -6 16 23 -3 22 -3 2 10 2 10
-14 -3 -13 -3 -7 11 -6 10 22 -3 23 -4 12 11 12 11 -10 12 -10 13 16 6 16 6
15 -12 15 -12 0 7 0 8 18 -16 19 -17 6 7 7 6 0 -17 0 -17 -12 8 -13 7 -12 2
-13 2 0 -9 0 -9 18 0 17 -1 18 -13 18 -14 -10 -6 -10 -6 -9 15 -9 16 -12 -15
-13 -16 8 -1 9 -2 35 -1 35 -1 7 10 8 10 0 -16 0 -16 25 5 25 4 -5 9 -6 8 -17
-5 -17 -6 15 11 15 10 9 -9 8 -8 13 4 12 5 14 -17 14 -18 -11 7 -12 7 -11 -14
-11 -13 7 -6 6 -7 -26 2 -26 2 5 8 5 8 13 0 14 0 12 15 12 15 -5 0 -6 0 -33
-19 -33 -18 -13 14 -13 13 -18 -10 -18 -9 -8 7 -8 7 7 -12 7 -13 -15 6 -16 6
0 9 0 9 -8 0 -8 0 0 -20 0 -20 13 4 12 5 6 -8 5 -9 -20 -5 -20 -5 0 11 0 12
-10 -15 -10 -15 0 -7 0 -6 20 5 20 5 0 -10 0 -11 -12 -7 -11 -7 7 11 6 11 -20
-2 -20 -1 0 -11 0 -12 -15 0 -14 0 5 9 5 8 -17 0 -16 0 6 23 6 22 0 8 0 7 10
0 9 0 -6 -17 -6 -18 21 19 22 19 0 6 0 6 -22 1 -23 2 -21 5 -21 5 -14 -17 -14
-17 -2 -22 -3 -22 10 0 10 0 1 13 1 12 2 15 1 15 18 3 17 3 -1 -18 -1 -18 -5
13 -5 12 -9 -6 -10 -6 13 -16 13 -16 -11 7 -12 7 -8 -18 -7 -17 1 -7 2 -8 -8
0 -7 0 0 -39 0 -38 17 1 18 1 0 8 0 7 0 10 0 10 -10 0 -9 0 5 -17 6 -18 -10
14 -11 15 9 17 9 16 -4 5 -5 5 14 0 14 0 -3 -17 -3 -17 9 -14 9 -14 1 15 1 15
-1 8 -1 8 10 -6 10 -6 0 10 0 11 11 0 10 0 -27 -35 -26 -35 21 0 22 0 -6 9 -5
9 21 37 21 36 22 -7 21 -7 13 -4 12 -5 0 11 0 11 30 -6 30 -6 0 21 0 22 10 -6
10 -6 0 10 0 10 -20 6 -20 6 0 10 0 9 -11 0 -10 0 7 -12 7 -11 -11 7 -12 7 0
-16 0 -16 10 6 10 6 0 -13 0 -13 10 15 10 15 0 -24 0 -23 -15 12 -16 13 -11
-11 -12 -12 -7 0 -8 0 2 19 1 20 8 -5 8 -5 0 13 0 13 9 14 9 14 46 -22 45 -23
11 7 10 6 -2 -13 -3 -13 13 2 12 3 0 -10 0 -10 -15 0 -15 0 0 11 0 11 -17 -13
-16 -14 -6 3 -5 3 -4 -9 -3 -9 28 5 28 5 -14 -16 -13 -17 -12 7 -11 7 14 -17
13 -17 8 5 8 5 -2 -17 -3 -17 -14 -4 -14 -4 15 11 15 11 -17 0 -18 0 0 -15 0
-15 23 -1 22 -1 -20 -5 -20 -5 -8 -7 -7 -7 27 0 28 1 7 25 7 25 -2 -30 -2 -30
-12 2 -13 3 0 -10 0 -10 20 0 20 0 1 38 2 37 2 50 3 50 -12 7 -11 8 18 0 17 0
-1 23 0 22 -8 40 -9 40 -1 -22 -1 -23 -11 0 -10 0 6 22 7 21 -17 -6 -17 -7 -5
0 -5 0 13 -17 14 -18 -17 13 -16 13 -7 -11 -7 -12 -19 5 -18 5 -5 -12 -4 -11
-1 13 -1 12 -15 0 -14 0 5 15 6 15 15 0 14 0 -6 11 -7 10 -6 -5 -5 -6 -20 17
-19 18 -4 -2 -4 -3 -2 1 -3 0 -37 5 -38 5 -1 -11z m271 -134 l0 -5 -10 -6 -10
-6 0 10 0 11 10 0 10 0 0 -4z m-300 -66 l0 -10 -17 0 -18 0 15 10 15 10 3 0 2
0 0 -10z m290 -14 l0 -4 -17 -13 -18 -14 14 18 13 17 4 0 4 0 0 -4z m-9 -49
l-12 -12 7 18 6 18 6 -6 6 -5 -13 -13z"/>
<path d="M883 1126 l0 -15 8 4 7 5 12 -15 12 -15 -18 -7 -19 -7 30 -6 30 -6
24 18 24 18 16 0 16 1 -18 10 -17 10 -21 -6 -22 -7 6 8 5 9 -21 1 -22 1 -16 7
-16 7 0 -15z m73 -28 l7 -11 -11 7 -12 7 0 -12 0 -12 -6 6 -6 6 7 10 6 11 4 0
4 0 7 -12z"/>
<path d="M775 1110 l6 -10 10 5 9 6 0 -6 0 -7 -22 -19 -23 -18 12 -1 12 0 6
10 6 10 11 -6 11 -7 -7 11 -7 12 13 1 13 1 8 -1 8 -1 -6 10 -6 10 -9 -5 -9 -5
-6 10 -6 10 -15 0 -15 0 6 -10z"/>
<path d="M260 1070 l14 -9 -28 -7 -28 -7 26 -16 26 -16 0 -7 0 -7 18 6 17 6
-12 -13 -12 -13 -17 13 -16 14 4 -24 3 -25 -25 2 -25 2 17 -5 17 -5 -10 -26
-10 -26 6 -5 5 -5 0 14 0 14 9 -14 10 -15 -15 -28 -15 -29 6 -9 6 -9 14 6 15
5 -6 -16 -6 -17 -19 6 -19 6 0 -10 0 -11 8 3 7 2 2 -10 2 -10 -16 3 -16 4 18
-19 19 -18 -17 -3 -17 -3 0 -18 0 -17 -20 -2 -20 -2 -12 -1 -13 -2 -33 7 -32
8 0 -17 0 -16 -22 15 -22 16 -13 0 -13 0 0 -11 0 -10 9 6 9 5 16 -16 16 -15 0
5 0 5 30 -9 30 -9 10 17 10 17 7 -11 8 -11 65 -1 64 -1 -14 9 -14 9 -8 -5 -8
-5 0 9 0 9 7 6 6 7 14 -11 13 -11 -1 23 0 24 9 43 9 42 -8 6 -9 5 0 10 0 10 9
-5 9 -6 5 33 5 32 -4 4 -4 4 -5 -4 -5 -5 -3 -20 -3 -19 -8 -14 -8 -13 -9 13
-8 13 12 8 12 7 1 11 2 10 1 10 1 10 13 0 12 0 2 37 2 36 25 22 26 22 0 7 0 7
-10 -6 -10 -6 0 10 0 11 20 0 19 0 -6 -17 -6 -16 11 7 12 7 0 13 0 14 -29 4
-30 4 2 -5 2 -6 -10 0 -10 0 2 6 2 6 -32 1 -31 1 14 -9z m41 -20 l19 -11 0 -9
0 -10 -16 0 -15 0 -21 11 -21 11 14 9 14 9 3 0 3 0 20 -10z m-18 -81 l-11 -11
5 -17 5 -16 -11 15 -11 15 -1 -30 0 -30 -9 20 -8 20 21 23 20 22 6 0 5 0 -11
-11z m-9 -164 l-6 -15 -9 0 -8 0 5 15 6 15 9 0 8 0 -5 -15z m-12 -42 l-9 -18
2 -18 3 -17 -8 5 -9 5 -15 -22 -16 -22 0 15 0 15 15 20 14 21 -6 7 -6 6 12 0
12 0 -6 10 -6 10 16 0 16 0 -9 -17z m-152 -79 l0 -4 -15 0 -15 0 0 10 0 9 15
-5 15 -6 0 -4z m75 6 l6 -10 -16 0 -16 0 6 10 6 10 4 0 4 0 6 -10z"/>
<path d="M771 1051 l-24 -18 7 -12 8 -12 18 6 18 6 7 -11 7 -11 -22 -24 -23
-24 -8 5 -9 5 0 -10 0 -11 10 0 10 0 5 0 5 0 2 8 2 7 18 20 18 19 -4 12 -4 12
15 23 16 24 -8 -7 -8 -7 -16 9 -17 8 -23 -17z m39 -11 l0 -10 -9 0 -10 0 -6
10 -6 10 15 0 16 0 0 -10z"/>
<path d="M226 1014 l-7 -18 13 -13 14 -13 -1 25 -2 25 -5 5 -6 6 -6 -17z"/>
<path d="M683 804 l-5 -13 5 -13 5 -13 10 25 11 25 0 -12 1 -11 18 3 17 3 8 1
7 1 0 8 0 7 -36 1 -36 1 -5 -13z"/>
<path d="M956 785 l-6 -17 0 -22 0 -23 25 2 25 3 -4 -21 -3 -20 -16 -3 -17 -2
0 9 0 9 10 0 10 0 0 11 0 11 -15 -12 -15 -12 0 -24 0 -24 11 0 10 0 -6 9 -5
10 9 5 9 6 6 -15 5 -15 -19 -10 -20 -11 0 -35 0 -35 10 6 10 6 0 -16 0 -16 -9
6 -10 5 -5 -9 -6 -9 15 -6 16 -6 9 23 9 22 0 -14 1 -14 7 7 8 7 -25 19 -25 19
8 8 8 7 9 -14 9 -14 4 4 4 5 7 28 6 27 -10 0 -11 0 7 12 8 13 3 37 4 38 -13 1
-13 1 -10 -1 -11 -1 -1 20 -2 20 15 -15 15 -15 10 0 9 0 0 10 0 10 -15 0 -14
0 -9 16 -9 16 -7 -17z m35 -168 l-11 -11 -10 10 -10 10 22 1 21 2 -12 -12z"/>
<path d="M750 776 l0 -15 -10 -6 -10 -6 5 13 5 14 -20 1 -20 2 1 -7 1 -7 -1
-15 -1 -15 -9 14 -9 14 1 -24 0 -24 -5 -15 -5 -15 4 7 5 8 29 -15 29 -16 0 -9
0 -10 -9 0 -10 0 -6 10 -6 10 -20 0 -20 0 13 -14 13 -13 14 5 14 5 -8 -13 -8
-13 11 7 12 7 0 -11 0 -12 -29 7 -28 6 -11 -40 -10 -41 8 5 8 5 7 30 6 29 15
-6 14 -5 0 -9 0 -9 -11 2 -11 3 -5 -13 -5 -13 14 3 13 3 13 20 12 20 -4 -33
-4 -33 -10 -12 -10 -12 0 -8 0 -9 -6 -5 -6 -6 0 16 0 17 3 8 2 7 8 -2 7 -3 0
9 0 10 -9 5 -9 6 -12 -15 -12 -15 5 -14 6 -15 -14 5 -13 5 -7 -21 -7 -22 11
-11 11 -11 18 17 19 17 5 0 5 0 0 -15 0 -14 -8 5 -8 5 -26 -17 -25 -16 0 -10
0 -10 18 13 17 14 -14 -17 -13 -18 -10 6 -9 6 5 14 5 13 -8 6 -9 5 -4 -25 -5
-24 16 -7 16 -7 12 -3 12 -2 6 29 6 29 7 -1 7 -1 14 1 13 1 -6 15 -5 15 11 0
12 0 -11 11 -12 12 15 23 16 23 -3 33 -2 33 7 33 8 33 -11 13 -12 14 -19 -5
-20 -5 0 10 0 11 30 -4 30 -4 0 9 0 10 -20 0 -20 0 0 16 0 15 13 -8 12 -7 13
-2 12 -2 0 24 0 24 -5 0 -5 0 0 -14z"/>
<path d="M4 655 l2 -24 8 -8 9 -8 -7 13 -7 12 19 8 20 7 -12 10 -12 10 -10 2
-11 2 1 -24z"/>
<path d="M9 608 l-1 -3 -4 -39 -3 -38 7 7 7 7 1 34 1 34 -3 0 -4 0 -1 -2z"/>
<path d="M973 515 l-21 -15 -4 11 -3 10 -11 -40 -11 -40 6 1 6 0 9 -1 8 -1
-11 -14 -12 -14 16 -6 15 -5 0 24 0 25 12 0 11 0 -6 7 -7 6 9 11 8 11 6 23 5
22 -2 0 -2 0 -21 -15z m7 -12 l0 -8 -20 -25 -19 -25 2 16 3 15 14 17 15 16 3
1 2 0 0 -7z"/>
<path d="M969 418 l-1 -23 1 -8 1 -8 -12 7 -13 8 -12 2 -13 2 0 -15 0 -15 15
12 15 13 -6 -17 -6 -17 8 3 9 3 0 -10 0 -10 -13 -1 -12 -2 5 7 4 8 -14 0 -15
0 0 -8 0 -7 14 -5 15 -6 -4 -23 -5 -24 20 -1 20 -2 0 15 0 15 -10 -6 -10 -6 0
10 0 11 13 0 12 0 3 60 3 60 -6 0 -5 0 -1 -22z"/>
<path d="M690 428 l-2 -8 -2 -7 -1 -8 -8 -12 -7 -11 -18 3 -17 3 -2 2 -3 3
-12 1 -13 2 -12 -9 -12 -8 6 -16 6 -16 -12 7 -12 8 -19 -17 -20 -18 6 -8 5 -9
9 0 9 0 -5 14 -5 14 10 6 10 7 24 -16 24 -15 6 7 7 6 0 -12 0 -12 12 7 11 7
-7 -11 -6 -11 10 -6 10 -6 0 19 0 20 -16 6 -16 6 -19 0 -20 0 6 9 5 10 21 -4
20 -4 5 13 5 13 15 0 16 0 -22 -17 -22 -17 16 -6 16 -6 15 36 16 37 -4 16 -5
15 -2 -7z m-56 -46 l5 -8 -27 -1 -27 -2 20 9 20 9 2 0 2 1 5 -8z"/>
<path d="M563 315 l0 -14 12 -4 11 -5 1 19 2 19 -13 0 -13 0 0 -15z"/>
<path d="M599 316 l-1 -6 -2 -7 -1 -8 -8 -12 -8 -13 5 0 5 0 15 16 16 15 0
-11 0 -11 13 7 12 8 -13 -16 -13 -16 -29 2 -29 2 -8 9 -8 8 13 -7 12 -7 0 7 0
7 -17 13 -18 13 -27 1 -27 0 -6 -10 -6 -10 18 6 18 6 -15 -10 -14 -11 -12 10
-11 9 -17 -6 -16 -6 7 -12 6 -11 -14 13 -13 12 -25 0 -24 0 -19 -17 -19 -17 3
13 3 14 -32 4 -33 4 0 -11 0 -11 -10 6 -10 6 -25 5 -24 4 -5 -9 -6 -8 -25 5
-25 4 0 -16 0 -16 -16 0 -15 0 5 -9 6 -9 18 3 17 3 -2 10 -2 10 17 -3 17 -3
12 -1 12 -1 -2 -19 -1 -20 -8 5 -8 5 5 10 6 9 -22 0 -22 0 17 -19 17 -19 18
-5 18 -4 -5 23 -4 23 23 -6 23 -6 -15 15 -14 16 -9 -6 -9 -5 8 12 7 13 11 -11
11 -11 18 0 18 0 1 -22 0 -23 9 21 8 22 34 -3 33 -3 25 21 25 22 -23 -26 -23
-26 16 -7 17 -6 19 0 20 0 -5 9 -6 9 -23 -5 -22 -4 25 15 25 14 5 -7 5 -8 22
-12 22 -11 17 0 16 0 -12 15 -13 16 -8 -13 -9 -13 0 13 0 13 -12 -7 -11 -7 7
11 6 11 22 -4 22 -5 15 13 16 12 -13 -17 -13 -16 43 1 43 0 15 -4 15 -4 7 -10
7 -9 11 28 11 29 -3 2 -3 1 -32 23 -33 22 -1 -5z m-142 -41 l0 -14 -9 5 -8 5
5 10 6 9 3 0 3 0 0 -15z m-151 -7 l6 -6 -16 2 -15 2 -7 6 -6 6 16 -2 15 -2 7
-6z m354 -3 l0 -4 -22 -12 -23 -12 14 16 13 17 9 0 9 0 0 -5z"/>
<path d="M905 310 l6 -10 10 0 10 0 -6 10 -6 10 -10 0 -10 0 6 -10z"/>
<path d="M70 292 l0 -9 -24 4 -24 5 -7 -13 -8 -12 11 7 12 7 0 -13 0 -13 8 12
8 12 14 -9 15 -10 -19 0 -20 0 11 -11 11 -11 14 8 13 8 14 3 14 2 8 13 8 12
-4 4 -3 4 -22 -12 -22 -12 6 10 6 11 -10 6 -10 6 0 -9z"/>
<path d="M902 283 l-12 -5 5 -8 5 -9 -21 -40 -21 -41 -12 0 -11 0 15 -10 15
-10 8 0 8 0 -6 9 -5 10 11 25 12 26 9 0 8 0 -2 11 -3 12 13 3 13 3 -11 -6 -10
-5 6 -10 6 -9 -16 -12 -17 -12 -2 -30 -2 -30 -8 3 -7 2 -2 1 -3 0 -22 5 -23 4
0 -23 0 -22 10 15 10 15 0 -11 0 -11 19 2 19 1 16 13 16 13 0 -11 0 -12 12 7
11 7 -7 -11 -7 -11 -14 5 -13 6 3 -19 3 -18 1 -4 1 -4 20 18 20 18 0 24 0 23
10 0 10 0 0 15 0 15 -11 0 -10 0 7 -12 7 -13 -14 14 -14 13 13 5 12 5 0 14 0
15 -12 -7 -11 -7 7 12 7 11 11 -6 10 -6 -4 18 -3 19 -10 0 -10 0 -10 6 -10 6
-13 -4z m10 -95 l-5 -21 10 6 10 6 0 -13 0 -14 -18 11 -18 11 10 18 10 18 3 0
4 0 -6 -22z"/>
<path d="M10 250 l0 -10 14 0 14 0 6 -16 6 -17 7 7 6 6 -18 20 -18 20 -9 0 -8
0 0 -10z"/>
<path d="M77 243 l-7 -6 0 -19 0 -18 -8 0 -8 0 -12 12 -12 12 -15 2 -15 2 0
-9 0 -9 10 0 10 0 0 -15 0 -15 -12 0 -13 0 29 -15 28 -15 9 0 9 0 0 18 0 17
10 15 10 15 8 -10 7 -11 20 0 20 0 8 11 9 10 -5 -17 -6 -16 16 -6 15 -6 10 6
11 7 -5 -14 -6 -14 -13 4 -14 4 -12 0 -12 0 6 10 6 10 -13 -8 -13 -8 8 14 8
14 -13 -12 -13 -12 -17 9 -18 10 -4 -25 -5 -25 13 0 13 0 -3 13 -3 12 5 -8 4
-8 15 13 16 13 -7 -25 -7 -25 10 15 11 15 0 -10 0 -10 10 15 10 15 0 -16 0
-17 -16 -6 -17 -6 -13 11 -14 11 -1 -23 -1 -24 -5 17 -4 18 -10 0 -10 0 7 -12
7 -13 -20 18 -20 17 -17 -6 -16 -6 0 12 0 11 12 -7 11 -7 -7 11 -7 12 -10 0
-9 0 0 -21 0 -21 25 5 26 4 -6 -5 -6 -6 23 -13 23 -12 -16 -1 -17 0 -11 -14
-12 -14 9 -6 10 -6 5 14 5 13 21 6 21 5 -5 -8 -5 -9 10 -6 10 -6 1 18 1 18 0
6 -1 7 23 4 24 5 -6 -15 -5 -15 12 7 12 8 -2 11 -1 12 1 11 1 11 15 0 15 0 0
-9 0 -8 -9 0 -9 0 -8 -27 -7 -28 1 -7 2 -7 -18 6 -17 6 16 -17 15 -17 31 -2
31 -2 -5 -7 -4 -8 10 0 11 0 0 15 0 15 11 0 10 0 -6 -9 -5 -10 10 -6 10 -6 0
9 0 10 20 -5 20 -5 17 13 17 14 -6 -10 -6 -10 44 -3 44 -3 0 11 0 10 11 0 10
0 -5 -8 -5 -8 35 -2 34 -3 0 10 0 9 -25 -3 -25 -2 0 9 0 9 30 -5 30 -4 6 9 5
9 -65 -3 -66 -2 10 -3 10 -4 0 -7 0 -8 -15 0 -15 0 0 11 0 11 -10 -15 -10 -15
0 11 0 12 -30 4 -31 5 -6 -10 -6 -10 13 8 13 8 -7 -11 -6 -10 -31 15 -31 16
-10 -14 -10 -14 5 23 5 22 -11 1 -12 1 -12 -1 -13 -2 6 16 6 16 22 -6 21 -6
-14 9 -14 10 6 21 5 20 -14 12 -14 12 -7 -7 -6 -6 -11 23 -12 22 -20 0 -21 0
-15 12 -15 13 -6 -7z m24 -20 l14 -18 -17 14 -18 13 0 4 0 4 4 0 4 0 13 -17z
m-41 -42 l0 -8 -15 0 -15 0 0 13 0 13 15 -5 15 -6 0 -7z m147 -109 l-1 -19
-13 0 -13 0 0 14 0 14 10 -6 10 -6 0 10 0 11 4 0 5 0 -2 -18z"/>
<path d="M555 229 l6 -9 26 0 26 0 -4 4 -4 5 -28 5 -27 5 5 -10z"/>
<path d="M318 223 l13 -5 6 6 6 6 -19 -1 -19 -1 13 -5z"/>
<path d="M789 124 l-14 -18 12 7 11 7 15 -15 16 -15 17 0 16 0 -12 15 -12 15
-9 -5 -8 -5 -9 15 -9 16 -14 -17z"/>
<path d="M866 108 l5 -8 10 5 9 6 0 3 0 3 -15 0 -14 0 5 -9z"/>
<path d="M15 102 l-10 -7 0 -17 0 -18 15 -14 15 -14 23 -7 22 -6 0 18 0 18
-10 -15 -10 -15 0 11 0 11 6 6 6 6 22 -14 21 -14 5 0 5 0 28 -10 28 -11 5 0 4
0 0 10 0 10 -7 -1 -8 -1 -18 1 -17 1 2 13 3 12 -20 1 -20 1 -19 8 -18 8 -10
-16 -9 -17 -19 12 -19 12 20 14 19 13 -5 10 -6 9 -7 0 -7 0 -10 -8z"/>
<path d="M725 91 l-40 -14 -60 -3 -60 -3 -15 -3 -15 -4 -12 -7 -13 -8 0 -10 0
-10 23 13 22 12 15 1 15 0 13 -9 12 -8 0 8 1 9 14 -19 15 -20 52 -1 53 -2 26
-7 27 -8 6 11 7 11 -18 -6 -18 -6 23 16 22 17 0 10 0 10 -10 -6 -9 -6 -30 16
-30 15 -5 -9 -6 -9 12 -6 13 -5 -42 1 -42 2 5 8 5 8 9 -5 10 -6 22 13 23 12
10 1 10 1 5 -7 5 -7 18 13 18 13 -23 4 -23 4 -40 -15z m-85 -32 l0 -10 10 6
10 6 -6 -16 -6 -16 -12 15 -11 14 -15 5 -15 5 23 1 22 1 0 -11z m139 -29 l-12
-8 -14 5 -15 6 13 7 12 8 14 -5 15 -6 -13 -7z m-73 -3 l7 -6 -23 4 -23 4 -5 6
-6 5 22 -3 21 -3 7 -7z"/>
<path d="M125 89 l-7 -10 6 -6 6 -7 11 11 11 11 -10 6 -11 6 -6 -11z"/>
<path d="M920 89 l0 -11 -15 6 -15 5 0 -15 0 -16 13 5 14 5 0 -14 0 -14 -9 0
-8 0 3 -12 2 -12 -21 -2 -21 -1 0 11 0 11 -4 15 -4 15 13 -2 12 -3 0 15 0 15
-10 0 -9 0 -9 -16 -9 -17 -7 12 -7 11 -22 -1 -22 -1 15 -5 15 -5 14 -4 14 -4
-17 -19 -17 -19 10 -7 11 -6 10 6 10 6 0 -10 0 -11 29 0 29 0 12 14 12 15 -3
23 -3 23 7 13 8 12 -10 0 -11 0 0 -11z"/>
<path d="M877 53 l-7 -6 0 -8 0 -7 14 -5 14 -6 -2 14 -2 14 -5 6 -6 5 -6 -7z"/>
<path d="M547 43 l-7 -6 0 -9 0 -9 36 3 35 2 6 11 6 10 -8 -7 -8 -8 -14 11
-13 11 0 -12 0 -12 -13 11 -14 11 -6 -7z"/>
</g>
</svg>
