<?xml version="1.0" standalone="no"?>
<!DOCTYPE svg PUBLIC "-//W3C//DTD SVG 20010904//EN"
 "http://www.w3.org/TR/2001/REC-SVG-20010904/DTD/svg10.dtd">
<svg version="1.0" xmlns="http://www.w3.org/2000/svg"
   viewBox="0 0 672.000000 504.000000"
 preserveAspectRatio="xMidYMid meet">
<metadata>
Created by potrace 1.16, written by Peter Selinger 2001-2019
</metadata>
<g transform="translate(0.000000,504.000000) scale(0.100000,-0.100000)"
fill-opacity="0.2" fill="#000000" stroke="none">
<path d="M5815 5024 l-30 -4 -68 -11 -69 -11 -56 -23 -57 -23 -75 -39 -75 -40
-25 -14 -25 -14 -16 -17 -16 -18 -6 0 -6 0 -23 -22 -23 -23 -36 -45 -36 -45
-67 -137 -67 -137 -6 -36 -6 -35 -8 -6 -9 -5 0 20 0 20 -31 63 -31 63 -27 52
-26 53 -7 0 -8 0 0 14 0 14 -40 42 -40 42 -1 7 0 6 -72 63 -72 63 -74 35 -73
35 -82 24 -82 24 -110 7 -110 7 -73 -13 -74 -12 -36 -15 -36 -15 -25 -17 -25
-17 -42 -13 -43 -12 0 -9 0 -10 -18 0 -18 0 -22 -20 -21 -20 -7 0 -6 0 -63
-45 -63 -44 -56 -62 -56 -62 0 -13 0 -12 -10 -4 -11 -3 -14 -55 -15 -55 0 -42
0 -43 -9 0 -9 0 -10 28 -11 27 -23 55 -23 55 -33 45 -33 45 -67 70 -68 70 -6
4 -6 3 -60 59 -61 59 -40 17 -41 18 0 12 0 13 -10 0 -10 0 0 -13 0 -14 23 -20
22 -20 38 -22 37 -23 0 -9 0 -9 33 -30 32 -29 12 -1 12 0 6 -20 6 -20 17 0 16
0 -11 -11 -11 -11 -11 6 -11 7 0 16 0 16 -6 -5 -5 -6 -26 24 -26 24 -8 -6 -9
-5 0 15 0 16 -19 0 -19 0 5 19 5 20 -39 7 -38 8 -8 -2 -9 -3 6 18 6 18 -8 10
-7 11 -75 29 -74 30 -166 0 -165 0 -75 -28 -75 -29 -46 -13 -47 -13 -58 -43
-59 -44 -90 -75 -89 -75 -23 -19 -23 -20 -24 -40 -24 -41 -26 -78 -26 -77 0
-15 0 -15 -9 0 -8 0 -5 51 -5 51 -10 7 -9 6 -12 42 -13 42 -12 13 -13 13 -2 8
-2 7 -16 33 -16 32 -47 43 -46 44 -62 49 -61 49 -59 28 -58 27 -255 0 -255 0
-75 -34 -75 -34 -6 -10 -7 -10 -10 7 -10 6 -12 -15 -13 -15 -31 -16 -31 -15
-47 -43 -48 -43 0 -11 0 -12 -8 0 -8 0 -80 -77 -80 -78 -31 -47 -32 -48 -16
-47 -17 -48 -9 -60 -10 -60 -10 -70 -9 -70 -1 -56 -1 -57 11 -33 10 -34 21
-70 21 -70 27 -55 26 -55 37 -56 38 -56 33 -27 33 -28 25 -19 25 -20 67 -49
67 -50 8 0 8 0 25 -21 25 -20 37 -24 38 -25 45 0 45 0 0 -8 0 -8 -27 -2 -27
-2 -61 -16 -60 -17 -50 -26 -50 -26 -5 -5 -5 -5 -43 -29 -43 -30 -12 -20 -11
-21 2 -8 2 -8 -8 5 -9 5 -38 -42 -38 -42 -14 -35 -14 -35 -30 -65 -30 -65 -8
-16 -9 -15 -25 -65 -25 -64 -6 -21 -7 -22 -3 -28 -4 -29 -7 -61 -7 -60 12 -65
12 -64 23 -68 23 -68 6 -6 6 -6 0 -19 0 -18 10 0 10 0 0 -15 0 -15 13 -22 12
-22 30 -35 30 -35 55 -56 55 -55 45 -37 45 -36 44 -21 45 -21 20 -1 21 0 -37
-14 -37 -13 -58 -38 -58 -37 -69 -66 -68 -66 -38 -55 -37 -55 -27 -57 -26 -58
-7 -32 -6 -33 -12 -15 -12 -15 -31 -80 -30 -80 4 -65 5 -65 14 -56 15 -57 0
-19 0 -19 25 -50 25 -49 31 -50 30 -50 6 -14 6 -13 46 -52 45 -51 59 -57 59
-57 36 -12 37 -12 22 -14 22 -15 12 8 12 7 -7 -11 -7 -11 63 -19 63 -20 135
-21 135 -22 52 4 53 3 3 -10 3 -9 20 11 19 11 -10 1 -10 1 59 24 59 25 14 0
13 0 115 55 116 55 5 0 6 0 35 32 34 33 39 66 39 66 14 12 15 12 23 62 23 62
18 30 18 30 0 -37 0 -36 8 -4 7 -3 17 -30 17 -30 38 -46 38 -46 53 -39 52 -39
22 -18 22 -18 23 -5 23 -6 0 -13 0 -12 78 -36 78 -37 15 0 15 0 10 -8 9 -9 69
-12 69 -12 97 -6 98 -6 53 18 54 17 40 13 40 13 32 7 32 6 41 20 40 20 45 28
44 28 -12 14 -12 14 9 -8 10 -7 14 0 13 0 -6 10 -6 10 8 0 9 0 45 43 44 43 22
30 22 29 30 33 31 33 0 5 0 5 31 64 30 64 8 48 8 48 11 -28 12 -28 0 -10 0 -9
10 0 10 0 0 -10 0 -10 30 -63 29 -62 24 -40 23 -39 30 -17 29 -16 9 5 9 5 -7
-11 -6 -11 37 -28 38 -28 55 -45 55 -45 5 -6 5 -6 25 -13 25 -13 70 -41 70
-40 5 -2 5 -1 15 -5 15 -6 55 -16 55 -16 51 -9 50 -10 35 9 34 8 35 12 35 12
70 26 70 25 5 7 5 6 65 28 65 28 34 16 34 17 97 95 97 95 40 80 41 80 20 65
20 65 9 35 10 35 14 -30 14 -30 10 -11 10 -11 65 -80 65 -80 64 -51 65 -51
125 -49 126 -49 44 -12 43 -13 86 -3 86 -4 61 14 60 14 45 12 45 12 60 27 60
27 67 46 66 46 23 18 22 18 34 32 34 33 10 0 11 0 -5 14 -6 15 12 -5 12 -4 38
55 37 55 0 9 0 8 26 39 27 39 17 55 17 55 14 65 14 65 0 120 0 120 -27 56 -27
57 6 21 5 21 -15 0 -15 0 -8 18 -7 17 -1 5 -1 5 -45 64 -45 64 2 9 3 8 -8 0
-8 0 -57 55 -57 56 0 9 0 10 -15 0 -16 0 -5 15 -6 14 -61 31 -60 30 -16 0 -16
0 -14 9 -13 9 63 31 64 30 -9 1 -9 0 49 27 49 26 41 21 40 21 56 40 56 39 23
38 24 38 7 0 8 0 0 9 0 10 32 48 32 48 5 5 6 5 12 25 11 25 11 30 10 30 16 78
15 78 6 72 6 72 -26 102 -26 102 -42 80 -43 80 -35 43 -35 42 -19 16 -20 15
-20 24 -21 23 -42 46 -43 45 0 8 0 9 29 0 29 0 4 8 3 8 64 42 63 42 -8 0 -9 0
33 21 32 21 0 9 0 8 28 33 29 33 30 60 31 60 16 38 17 37 14 73 15 72 6 117 7
117 -12 78 -13 78 -25 55 -26 55 -42 65 -41 65 -18 28 -17 28 -12 -7 -12 -7 7
7 7 8 -46 56 -46 57 -51 51 -51 50 -35 14 -35 13 -15 12 -15 12 -44 22 -44 22
-91 19 -91 20 -50 -2 -50 -1 -30 -3z m120 -111 l-7 -78 -50 -103 -51 -104 -21
-26 -21 -27 -50 -73 -49 -73 -50 -42 -51 -42 -30 -15 -30 -14 -15 -12 -15 -11
-42 -23 -42 -23 -41 27 -40 27 -73 9 -72 9 -57 1 -58 0 0 37 0 37 12 35 11 36
28 55 27 55 28 55 29 55 61 61 62 61 118 60 119 60 45 17 45 16 95 14 95 14
49 1 48 1 -7 -77z m160 42 l50 -15 25 -12 25 -13 5 -6 5 -6 50 -26 50 -25 55
-54 55 -55 20 -29 20 -29 28 -28 27 -29 25 -42 24 -41 20 -21 19 -21 36 -69
36 -69 6 -37 6 -36 -33 -10 -34 -10 -60 -22 -60 -22 -42 -24 -42 -24 -22 0
-22 0 -47 29 -48 30 -7 -7 -6 -6 7 17 6 17 -7 0 -8 0 -14 -17 -15 -18 6 18 5
17 -15 0 -16 0 -5 19 -5 20 -16 -6 -15 -6 6 10 7 11 -10 27 -10 26 -9 -6 -10
-5 -5 8 -5 8 18 1 17 1 29 -51 29 -51 4 12 4 12 -70 112 -70 113 -45 87 -45
87 -17 50 -17 51 10 32 10 33 7 58 6 57 22 0 22 0 50 -15z m-3469 -15 l34 0 0
-9 0 -9 -42 5 -43 6 -10 10 -10 10 18 -7 19 -6 34 0z m133 -14 l12 -14 -20 5
-21 5 0 9 0 9 9 0 9 0 11 -14z m1295 -28 l11 -8 -22 0 -22 0 -6 -10 -6 -10
-10 0 -9 0 0 11 0 10 9 -6 10 -5 6 10 6 10 -15 0 -16 0 0 8 0 9 7 6 6 7 13
-18 13 -17 2 25 1 25 5 -20 5 -20 12 -7z m-1244 8 l0 -5 -9 -6 -10 -5 -6 10
-6 10 15 0 16 0 0 -4z m1157 -21 l0 -14 -9 5 -8 5 0 10 0 9 8 0 9 0 0 -15z
m-1102 -6 l7 -10 -3 -3 -4 -3 -25 14 -25 13 22 0 22 0 6 -11z m1457 -4 l72
-16 21 -18 20 -19 85 -40 85 -39 45 -41 45 -41 43 -33 44 -33 21 -40 22 -40 8
-3 7 -4 0 -13 0 -13 8 -4 7 -3 23 -45 22 -45 0 -17 0 -16 12 -4 12 -4 -7 -17
-6 -16 -38 -10 -38 -9 -95 -17 -95 -16 -110 11 -110 11 -55 20 -55 20 -89 42
-89 42 -11 10 -11 11 -37 22 -36 23 -20 38 -20 38 -7 94 -7 94 -13 47 -13 46
5 6 6 6 21 0 21 1 50 24 50 24 67 0 67 1 73 -15z m-1897 -12 l-7 -18 1 -57 2
-57 -30 -71 -31 -72 0 -12 0 -13 -50 -102 -50 -103 -58 -57 -57 -56 -52 -44
-52 -44 -41 -23 -42 -24 -41 -14 -42 -14 -73 -5 -72 -5 0 40 0 40 11 121 11
122 28 57 28 57 41 53 40 54 45 33 45 34 -4 7 -4 7 12 0 12 0 80 54 80 53 20
18 20 19 25 5 25 6 20 8 20 9 20 4 20 5 54 1 53 1 -7 -17z m195 -11 l55 -16
10 -8 9 -8 16 0 16 0 42 -20 41 -20 11 0 11 0 39 -20 39 -20 15 0 15 0 58 -34
58 -35 50 -48 50 -48 33 -38 32 -39 0 -4 0 -5 19 -21 20 -21 35 -72 36 -71 0
-13 0 -12 20 -39 20 -39 0 -35 0 -34 -86 -7 -85 -7 -90 7 -91 7 -56 19 -57 19
-62 32 -63 32 0 8 0 8 -20 0 -21 0 -94 93 -94 92 -47 80 -46 80 -1 75 0 75 5
35 6 35 1 31 1 32 48 -5 47 -4 55 -17z m116 13 l19 -14 -15 0 -15 0 -19 14
-20 15 15 0 15 0 20 -15z m1149 5 l6 -10 -16 0 -16 0 6 10 6 10 4 0 4 0 6 -10z
m-35 -21 l0 -7 -25 -4 -25 -5 0 12 0 13 25 -2 25 -1 0 -6z m668 -9 l15 0 -6
-6 -6 -6 -28 6 -27 7 15 9 14 9 3 -9 4 -10 16 0z m-3408 0 l125 -2 64 -31 64
-32 42 -40 42 -40 29 -20 29 -20 31 -31 31 -32 27 -58 27 -58 15 -42 14 -41
20 -98 20 -97 0 -62 0 -61 -43 3 -43 4 -54 -12 -55 -12 -45 -5 -45 -4 -89 41
-89 41 -56 38 -56 39 -57 56 -58 57 -26 34 -26 35 -11 -7 -10 -6 7 11 6 11
-55 73 -55 73 0 45 -1 45 -23 95 -24 95 5 5 5 5 56 5 57 5 40 -2 40 -1 125 -2z
m1714 1 l6 -9 -15 2 -14 2 -7 7 -7 7 16 0 16 0 5 -9z m1107 -28 l1 -18 -2 -46
-1 -46 16 -78 16 -78 -6 -31 -6 -31 -26 -69 -26 -68 -49 -74 -49 -73 -38 -31
-39 -30 -35 -15 -35 -15 -59 -5 -58 -5 -52 12 -51 11 -4 56 -4 56 8 35 8 35 9
91 9 91 14 24 13 23 10 13 10 12 39 53 39 53 61 45 61 45 51 21 51 21 46 7 47
7 5 10 6 9 10 0 9 0 1 -17z m-1061 -3 l0 -10 -17 0 -18 0 15 10 15 10 3 0 2 0
0 -10z m-2170 -24 l0 -25 9 -5 9 -6 7 -27 6 -27 19 -37 18 -38 12 -50 12 -49
-23 -82 -22 -81 -36 -47 -37 -47 -21 -35 -22 -35 -28 -26 -28 -25 -50 -26 -50
-26 -52 -21 -53 -21 -84 -4 -84 -5 -36 -7 -37 -6 7 43 6 44 9 35 9 35 0 31 0
31 19 75 18 75 10 18 10 17 98 102 98 101 6 8 6 7 26 23 25 22 38 29 39 29 56
28 56 28 18 0 17 1 0 -24z m3925 3 l7 -10 -5 -5 -4 -4 -13 15 -12 15 10 0 11
0 6 -11z m40 -29 l6 -10 -16 0 -16 0 6 10 6 10 4 0 4 0 6 -10z m30 -21 l-7
-10 23 -20 22 -19 -23 0 -23 0 -13 18 -13 17 -1 8 0 8 10 -6 10 -6 0 10 0 11
11 0 10 0 -6 -11z m-1542 -69 l12 0 -15 -10 -15 -10 -8 0 -8 0 5 9 6 9 -7 5
-8 4 13 -4 14 -3 11 0z m1599 -5 l0 -9 -11 -2 -11 -2 11 5 11 5 -13 10 -14 10
13 -4 14 -3 0 -10z m-2351 -48 l-12 -12 7 18 6 18 6 -6 6 -5 -13 -13z m789 3
l15 -10 -22 0 -23 0 0 10 0 10 8 0 7 0 15 -10z m10 -30 l0 -10 -4 0 -5 0 -6
10 -6 10 10 0 11 0 0 -10z m2830 -56 l0 -14 -9 0 -9 0 -4 25 -5 25 13 -11 14
-11 0 -14z m-3630 7 l0 -10 -11 -6 -10 -7 -6 5 -5 6 7 10 6 11 10 0 9 0 0 -9z
m878 -31 l8 0 1 -21 2 -21 -12 10 -12 10 -19 34 -19 33 22 -22 22 -23 7 0z
m-908 -20 l0 -20 -9 0 -9 0 5 20 5 20 4 0 4 0 0 -20z m-1530 1 l0 -10 -10 -6
-10 -6 0 15 0 16 10 0 10 0 0 -9z m5070 0 l0 -10 -10 -6 -10 -6 0 15 0 16 10
0 10 0 0 -9z m-2596 -46 l-6 -15 10 0 10 0 5 -26 5 -26 -12 14 -12 13 -12 28
-12 27 15 0 14 0 -5 -15z m-2414 -33 l0 -13 -10 6 -10 6 0 22 0 22 10 -15 10
-15 0 -13z m1630 24 l0 -15 53 -50 52 -51 20 -14 20 -15 -17 3 -18 2 -65 66
-65 66 0 11 0 11 10 0 10 0 0 -14z m890 -7 l0 -20 -10 6 -9 6 6 14 5 15 4 0 4
0 0 -21z m556 -13 l-6 -25 -26 -26 -26 -26 -6 5 -5 6 26 20 26 21 -5 14 -6 14
14 14 13 15 4 -4 3 -3 -6 -25z m-3059 -38 l-5 -13 -1 19 -1 19 6 -6 6 -6 -5
-13z m-37 2 l0 -10 -4 0 -5 0 -6 10 -6 10 10 0 11 0 0 -10z m3300 -31 l0 -9
-4 0 -4 0 -16 6 -16 6 0 8 0 8 20 -5 20 -5 0 -9z m-4033 -21 l-5 -13 -1 19 -1
19 6 -6 6 -6 -5 -13z m4078 2 l6 -10 -10 0 -11 0 0 10 0 10 4 0 5 0 6 -10z
m-312 -15 l-5 -16 -5 5 -5 5 7 10 6 11 4 0 4 0 -6 -15z m372 -5 l6 -10 -15 6
-16 6 0 4 0 4 9 0 10 0 6 -10z m-3282 -21 l22 -21 -27 13 -28 12 0 9 0 8 5 0
6 0 22 -21z m3330 4 l-13 -5 -12 5 -13 5 25 0 25 0 -12 -5z m1223 -2 l-6 -9
-20 -5 -20 -5 0 4 0 5 23 9 22 9 3 0 3 1 -5 -9z m-438 -35 l28 -14 83 -13 84
-12 52 -27 51 -27 50 -53 49 -53 50 -52 50 -52 15 -29 15 -29 26 -40 27 -40
30 -66 30 -65 11 -40 11 -39 0 -6 0 -6 -72 -7 -71 -6 -79 -21 -79 -20 -43 31
-44 30 -5 -13 -5 -12 -1 16 -1 16 -55 56 -55 55 0 5 0 5 -45 79 -45 78 -10 15
-10 15 -26 55 -26 55 -19 70 -19 70 0 53 0 52 10 0 11 0 27 -14z m229 8 l-6
-6 -13 5 -13 5 19 1 19 1 -6 -6z m1342 -109 l1 -80 -20 -115 -20 -115 0 -9 0
-9 -6 6 -7 7 -32 -75 -33 -75 -37 -48 -36 -48 -55 -44 -55 -43 -18 -11 -18
-11 -41 -22 -41 -23 -14 0 -14 0 -22 24 -23 25 -62 25 -61 25 -100 22 -100 22
-9 8 -10 9 12 0 12 0 9 23 9 22 48 65 49 65 100 100 100 100 67 53 66 53 28
24 27 24 51 6 51 7 33 20 32 20 58 22 57 22 1 15 2 14 2 10 1 10 9 -20 9 -20
0 -80z m-6549 95 l0 -10 -10 0 -10 0 0 10 0 10 10 0 10 0 0 -10z m4814 -17 l5
-18 2 -115 2 -115 -6 -61 -5 -61 -21 -41 -21 -41 0 -16 0 -15 -9 0 -10 0 -5
-17 -5 -18 -10 -41 -11 -41 -63 -61 -62 -60 -40 -37 -40 -38 -52 -24 -51 -24
-74 -15 -73 -16 -103 -1 -103 -2 -4 55 -5 55 0 87 0 87 32 88 31 87 28 41 27
40 -5 9 -6 9 10 -6 11 -7 73 86 74 86 -3 12 -4 11 7 -7 7 -6 90 64 91 64 26 7
26 7 65 11 65 12 57 2 57 1 5 -17z m-2773 -14 l-19 -21 -13 7 -12 8 24 13 24
13 8 1 8 0 -20 -21z m-2044 -21 l-5 -13 0 25 0 25 5 -12 5 -13 -5 -12z m4483
12 l0 -10 -4 0 -5 0 -6 10 -6 10 10 0 11 0 0 -10z m1947 4 l-6 -6 -13 5 -13 5
19 1 19 1 -6 -6z m-42 -13 l-10 -10 -30 -6 -30 -6 30 15 30 14 10 1 9 1 -9 -9z
m-1965 -21 l0 -10 -11 0 -10 0 6 10 6 10 5 0 4 0 0 -10z m-3416 -29 l-3 -3
-16 6 -16 6 6 10 6 10 14 -13 13 -12 -4 -4z m2641 -1 l-6 -10 -22 -11 -22 -12
20 21 20 21 8 0 8 1 -6 -10z m1762 4 l-6 -6 -13 5 -13 5 19 1 19 1 -6 -6z
m-5450 -36 l-5 -13 -1 19 -1 19 6 -6 6 -6 -5 -13z m1033 12 l0 -10 -4 0 -5 0
-6 10 -6 10 10 0 11 0 0 -10z m3945 -61 l7 -37 -9 -5 -10 -6 0 27 0 27 -6 30
-7 30 9 -15 9 -15 7 -36z m-4487 12 l-12 -20 -23 -10 -24 -11 -17 0 -17 0 50
30 50 29 3 0 2 1 -12 -19z m3109 13 l-6 -6 -13 5 -13 5 19 1 19 1 -6 -6z m-47
-19 l0 -15 -16 0 -16 0 12 15 12 15 4 0 4 0 0 -15z m-282 -72 l-5 -78 -24 -55
-23 -55 -51 -75 -50 -75 -60 -61 -60 -60 -75 -58 -75 -58 -47 -24 -47 -24 -83
-24 -83 -23 -77 -6 -78 -7 0 13 1 12 9 45 10 45 10 53 9 53 33 77 34 77 69 85
69 85 52 42 52 42 49 29 50 30 94 28 94 28 80 6 80 7 24 1 24 2 -5 -77z m201
48 l45 -12 68 -36 68 -35 0 -9 0 -9 9 0 10 0 52 -37 53 -38 63 -59 63 -59 0
-11 0 -12 20 -14 20 -14 0 -12 0 -12 14 -11 14 -12 26 -54 26 -55 6 -40 7 -40
8 -6 9 -5 0 -50 0 -49 -32 0 -33 0 -75 29 -75 29 -40 16 -40 17 -25 12 -25 11
-60 40 -60 39 -62 62 -62 62 -7 -6 -7 -6 6 12 7 11 -33 59 -33 58 -17 45 -16
45 -16 65 -15 65 0 23 0 24 48 -5 47 -5 44 -11z m2041 9 l0 -10 -10 0 -10 0 0
10 0 10 10 0 10 0 0 -10z m-4580 -30 l0 -10 -10 0 -10 0 0 10 0 10 10 0 10 0
0 -10z m1780 -10 l0 -10 -15 0 -15 0 0 10 0 10 15 0 15 0 0 -10z m3408 -4
l-13 -14 -9 5 -8 6 13 8 14 9 8 0 8 0 -13 -14z m-5948 -30 l95 -1 70 -35 70
-35 96 -95 95 -95 27 -36 27 -36 0 -16 0 -17 10 0 10 0 0 -19 0 -20 9 -5 9 -6
6 -32 6 -33 5 -52 5 -53 -9 -17 -9 -18 -13 -45 -12 -45 -8 -8 -7 -9 -88 17
-88 16 -20 11 -21 11 -81 63 -81 63 -70 75 -70 76 -36 72 -36 73 -20 63 -21
62 0 71 0 71 28 -7 27 -7 95 -2z m1420 -43 l0 -58 -19 -70 -18 -71 -28 -49
-27 -50 -19 -27 -19 -26 0 -9 0 -8 -42 -45 -43 -45 -48 -39 -47 -39 -33 -18
-32 -18 -80 -39 -80 -40 -44 -12 -44 -12 -75 -13 -76 -13 -28 10 -28 10 0 13
0 14 16 68 16 68 21 50 21 50 47 50 47 50 39 50 40 50 34 28 34 27 44 33 43
32 42 32 41 33 75 37 75 38 85 6 85 6 13 1 12 2 0 -57z m4090 47 l0 -10 -10 0
-10 0 0 10 0 10 10 0 10 0 0 -10z m-3930 -25 l76 -26 61 -37 61 -37 47 -40 47
-40 40 -35 40 -34 43 -56 43 -56 30 -65 30 -64 19 -45 18 -44 0 -7 0 -7 8 -8
7 -7 0 -19 0 -18 -34 0 -34 0 -79 33 -78 34 -82 57 -83 57 -13 20 -14 19 -59
52 -59 51 -48 61 -47 61 -20 54 -21 53 -6 59 -6 59 18 0 18 0 77 -25z m-1030
-6 l0 -10 -10 6 -10 6 0 10 0 10 10 -6 10 -6 0 -10z m4246 -36 l-2 -23 -7 -6
-7 -7 0 44 1 44 8 -15 9 -15 -2 -22z m1084 37 l0 -10 -4 0 -5 0 -6 10 -6 10
10 0 11 0 0 -10z m-3620 -20 l0 -10 -4 0 -5 0 -6 10 -6 10 10 0 11 0 0 -10z
m893 -71 l-9 -9 -2 23 -2 22 7 25 7 25 4 -39 3 -39 -8 -8z m-2236 65 l-6 -6
-13 5 -13 5 19 1 19 1 -6 -6z m4663 -24 l0 -10 -10 0 -10 0 0 10 0 10 10 0 10
0 0 -10z m243 -5 l-5 -16 -5 5 -5 5 7 10 6 11 4 0 4 0 -6 -15z m-3968 -26 l-7
-22 -8 13 -8 13 11 12 12 13 3 -3 4 -3 -7 -23z m2977 19 l-12 -12 0 -8 0 -7
15 5 15 6 15 -12 15 -13 -1 -11 -1 -11 1 -12 1 -13 21 0 20 0 -6 -10 -6 -10
10 0 11 0 0 -60 0 -60 15 0 15 0 0 -9 0 -9 45 -47 45 -46 10 6 10 6 0 -10 0
-9 -12 -4 -12 -4 8 -12 7 -12 9 0 9 0 3 16 3 16 23 -19 24 -18 -21 -19 -21
-19 0 7 0 7 -14 -13 -14 -13 6 -9 5 -9 -11 7 -12 7 0 -9 0 -10 -15 -6 -15 -5
0 3 0 3 30 32 30 31 10 0 10 0 0 10 0 10 -25 -12 -25 -11 -6 5 -6 6 -3 19 -3
18 -1 5 -1 5 -24 28 -25 29 -10 -7 -11 -6 -22 15 -22 16 12 0 13 0 -16 30 -15
29 0 25 0 25 -9 5 -9 6 -6 -12 -6 -13 4 29 4 30 -21 43 -21 43 -8 0 -8 0 0
-12 0 -13 -10 15 -10 15 -10 -15 -10 -15 0 14 0 14 17 19 16 18 11 0 10 0 -12
-12z m-3385 -20 l-5 -13 -1 19 -1 19 6 -6 6 -6 -5 -13z m1679 -3 l-5 -14 14
-15 15 -15 0 -4 0 -4 -15 0 -15 0 0 9 0 9 -10 -6 -10 -6 0 5 0 5 10 25 10 26
6 0 6 0 -6 -15z m2674 12 l0 -4 -27 -24 -26 -24 5 10 5 10 6 18 6 17 16 0 15
0 0 -3z m-275 -17 l6 -10 -10 0 -11 0 0 10 0 10 4 0 5 0 6 -10z m125 0 l0 -10
-11 0 -10 0 6 10 6 10 5 0 4 0 0 -10z m-4176 -54 l7 -34 48 -74 48 -73 68 -60
68 -60 37 -36 37 -37 44 -27 44 -28 8 -14 8 -13 10 5 9 6 -7 -17 -7 -18 -4 13
-4 12 -42 27 -41 26 -14 -3 -13 -2 7 10 6 11 -14 0 -14 0 -40 38 -41 37 -44
40 -43 40 -21 26 -21 26 -43 64 -44 64 -13 13 -13 13 0 19 0 18 6 16 6 16 8
-5 8 -5 6 -34z m1708 22 l1 -23 2 -15 1 -15 22 -44 21 -44 -5 -8 -5 -9 15 -27
15 -28 1 17 0 17 -10 6 -10 6 0 10 0 9 10 0 10 0 0 -14 0 -14 12 -4 11 -4 3
-16 2 -17 -15 -5 -15 -6 6 -15 5 -14 -8 -5 -9 -6 -6 39 -6 40 -15 14 -14 15 6
5 5 6 -21 29 -21 30 0 11 0 11 -17 1 -18 0 16 7 17 7 -4 38 -3 37 9 0 10 0 2
-22z m-2232 3 l0 -10 -21 -6 -21 -7 -5 6 -6 6 17 0 17 0 -6 10 -6 10 15 0 16
0 0 -9z m1075 -30 l-4 -3 -10 7 -11 6 0 10 0 10 14 -13 14 -13 -3 -4z m2829
13 l6 -16 0 -4 0 -3 -15 5 -15 6 0 14 0 14 9 0 9 0 6 -16z m-4449 -24 l29 -30
-10 0 -9 1 -29 29 -29 30 9 0 10 0 29 -30z m3562 8 l-5 -13 -1 19 -1 19 6 -6
6 -6 -5 -13z m816 2 l-5 -20 -10 0 -9 0 6 -10 6 -10 -16 -16 -16 -16 -7 6 -6
7 14 9 14 9 -6 6 -6 6 22 24 21 25 2 0 1 0 -5 -20z m701 0 l-19 -8 25 -4 25
-4 -26 -5 -27 -6 2 11 2 11 7 13 8 12 12 -7 11 -6 -20 -7z m-2394 -10 l-15
-10 8 0 8 0 -11 -20 -11 -20 -11 0 -11 0 18 20 18 20 -8 0 -7 0 12 15 13 15 6
-5 5 -6 -14 -9z m1733 -11 l7 1 17 0 17 0 -10 -10 -11 -11 -26 10 -27 11 0 8
0 9 7 7 7 7 6 -16 6 -16 7 0z m664 -31 l-5 -13 -1 19 -1 19 6 -6 6 -6 -5 -13z
m-1560 -20 l-5 -13 -1 19 -1 19 6 -6 6 -6 -5 -13z m-3457 8 l0 -5 -9 -6 -10
-5 -6 10 -6 10 15 0 16 0 0 -4z m2594 -21 l5 -15 -10 0 -11 0 4 -12 5 -13 -17
-30 -18 -30 -12 3 -12 3 7 -21 6 -20 -10 0 -11 0 2 -7 1 -8 -11 -25 -11 -25
-19 -28 -19 -27 -6 6 -6 6 12 19 11 19 -13 12 -14 13 8 -14 8 -14 -12 7 -12 8
12 14 11 14 14 0 14 0 0 10 0 10 -8 0 -7 0 -28 -25 -27 -26 0 7 0 6 -15 -12
-15 -12 6 -9 5 -9 25 6 24 6 0 -10 0 -11 -27 -21 -27 -21 13 -8 13 -9 -19 -19
-19 -19 -22 6 -23 5 21 15 22 15 15 29 15 28 -13 -7 -12 -8 7 11 6 11 -10 6
-10 6 -1 -18 -1 -18 1 -14 2 -13 -9 6 -9 5 -23 -26 -23 -26 19 -14 18 -13 -16
0 -17 0 -7 11 -6 11 -10 -10 -11 -11 -1 -22 -1 -22 -14 -5 -14 -5 7 29 7 29
-12 -12 -13 -13 -18 0 -17 0 6 -17 7 -18 -17 13 -16 13 5 12 4 12 27 13 27 12
19 0 18 0 -6 10 -6 10 -11 -6 -11 -7 7 11 7 12 20 0 20 0 -6 10 -6 10 13 0 14
0 20 16 19 15 -25 -12 -25 -11 10 9 10 9 71 63 72 62 8 -2 9 -1 9 1 8 1 -12
15 -12 15 6 0 6 0 3 -2 2 -1 23 12 22 12 0 11 0 11 -20 -18 -20 -18 0 11 0 12
8 0 8 0 23 40 22 40 9 0 8 0 6 -15z m1701 -5 l-6 -10 -12 0 -12 0 15 10 15 10
3 0 3 0 -6 -10z m-3998 -28 l-18 -4 5 -14 6 -15 -10 6 -10 6 0 -15 0 -15 -11
-7 -11 -6 -11 11 -11 11 16 0 16 0 6 17 7 16 -13 10 -13 9 17 -6 17 -5 6 10 6
9 12 -7 12 -8 -18 -3z m656 -2 l-5 -20 -4 0 -4 0 0 20 0 20 9 0 9 0 -5 -20z
m1697 -5 l0 -25 -9 0 -10 0 -5 9 -6 9 6 16 6 16 9 0 9 0 0 -25z m80 11 l0 -5
-10 -6 -10 -6 0 10 0 11 10 0 10 0 0 -4z m1685 -28 l-7 -32 -14 -13 -13 -13
-6 10 -6 10 8 0 9 0 13 35 12 35 5 0 6 0 -7 -32z m-3384 -23 l10 -20 -20 24
-21 23 0 12 0 11 10 -15 11 -15 10 -20z m3241 5 l-9 -23 -7 18 -7 18 13 8 12
8 3 -3 3 -3 -8 -23z m-3361 -33 l-20 -21 -6 6 -6 6 23 27 23 26 3 -11 4 -12
-21 -21z m69 23 l0 -10 -10 0 -10 0 0 10 0 10 10 0 10 0 0 -10z m670 0 l0 -10
-10 0 -10 0 0 10 0 10 10 0 10 0 0 -10z m958 -68 l-3 -27 -15 0 -15 0 4 15 4
15 5 29 5 29 9 -17 9 -17 -3 -27z m111 29 l-10 -3 -6 5 -5 6 7 11 8 12 8 -13
8 -14 -10 -4z m2401 19 l0 -10 -11 0 -10 0 6 10 6 10 5 0 4 0 0 -10z m-773
-22 l-5 -13 -1 19 -1 19 6 -6 6 -6 -5 -13z m-1517 2 l0 -10 -20 0 -20 0 0 10
0 10 20 0 20 0 0 -10z m1356 -2 l7 -11 -11 7 -12 7 0 -6 0 -6 11 -22 10 -22
-15 19 -15 19 -7 -16 -6 -17 -10 0 -9 0 21 30 21 30 4 0 4 0 7 -12z m61 -10
l-5 -13 -1 19 -1 19 6 -6 6 -6 -5 -13z m40 -10 l-5 -13 0 25 0 25 5 -12 5 -13
-5 -12z m141 5 l12 -27 -1 -15 -1 -16 -5 12 -5 13 -38 -6 -37 -6 -7 10 -6 10
20 -5 21 -6 12 32 11 31 6 0 5 0 13 -27z m-4353 7 l6 -10 -10 0 -11 0 0 10 0
10 4 0 5 0 6 -10z m1000 0 l6 -10 -10 0 -11 0 0 10 0 10 4 0 5 0 6 -10z
m-1507 -106 l32 -33 0 -6 0 -6 -29 23 -30 23 -35 47 -36 47 1 8 0 8 32 -39 32
-39 33 -33z m3072 96 l0 -10 -10 0 -10 0 0 10 0 10 10 0 10 0 0 -10z m122 -34
l-5 -9 -9 16 -9 16 -14 -5 -15 -6 0 10 0 10 13 5 12 4 16 -16 16 -16 -5 -9z
m140 -9 l28 -28 -6 -10 -6 -10 -18 21 -17 20 -9 0 -10 0 -14 19 -14 20 -10 -6
-11 -7 14 17 14 17 16 -12 15 -13 28 -28z m-2028 19 l-6 -16 -10 6 -9 6 12 14
12 14 4 -3 3 -4 -6 -17z m63 2 l-5 -13 -1 19 -1 19 6 -6 6 -6 -5 -13z m3743 2
l15 -10 -10 0 -10 0 -15 10 -15 10 10 0 10 0 15 -10z m376 -14 l6 -15 -11 -67
-10 -67 -10 -10 -10 -10 -51 17 -51 17 -11 -7 -11 -7 5 9 6 9 -71 35 -70 35
16 3 17 3 0 19 0 19 38 7 37 6 33 7 34 6 54 3 54 3 6 -15z m164 -11 l43 -15
26 0 27 0 20 -15 19 -14 15 -1 16 0 52 -34 52 -33 -77 -23 -76 -23 -56 -6 -56
-7 -46 4 -47 4 -6 45 -6 46 0 43 0 44 29 0 28 0 43 -15z m-4370 -10 l0 -15
-15 0 -16 0 13 15 13 14 3 1 2 0 0 -15z m1868 3 l-4 -12 -12 -4 -12 -4 0 16 0
16 16 0 16 0 -4 -12z m699 -10 l-5 -13 -1 19 -1 19 6 -6 6 -6 -5 -13z m-2512
2 l6 -10 -23 0 -23 0 15 10 15 10 2 0 2 0 6 -10z m3215 -10 l-21 -21 -10 7
-10 6 12 14 11 14 19 0 19 0 -20 -20z m63 -17 l-6 -15 -8 14 -9 13 0 14 0 13
14 -12 15 -11 -6 -16z m-4081 -5 l-12 -12 0 24 0 24 12 -12 12 -12 -12 -12z
m4343 2 l-7 -12 -10 10 -10 10 7 12 7 12 10 -10 10 -10 -7 -12z m92 24 l-6 -6
-13 5 -13 5 19 1 19 1 -6 -6z m-1780 -10 l-6 -6 -13 5 -13 5 19 1 19 1 -6 -6z
m84 -17 l-11 -11 -6 7 -6 6 7 10 6 11 11 -6 10 -6 -11 -11z m1479 -3 l0 -14
-8 0 -9 0 -6 6 -6 6 6 14 5 14 9 -6 9 -5 0 -15z m-3496 0 l6 -15 -10 6 -10 6
0 -15 0 -15 -22 -7 -23 -7 -11 -15 -11 -15 -6 10 -7 10 32 24 31 24 11 12 11
12 1 1 2 0 6 -16z m1891 6 l-6 -10 -10 0 -10 0 6 10 6 10 10 0 10 0 -6 -10z
m185 -34 l0 -9 -19 19 -18 19 4 8 5 8 14 -18 13 -18 1 -9z m1634 38 l16 -6 0
-7 0 -7 -25 -2 -25 -2 0 8 0 9 7 6 6 7 3 0 2 0 16 -6z m-1769 -14 l6 -10 10 5
9 6 0 -10 0 -10 -12 -7 -12 -8 -4 12 -4 12 -14 0 -15 0 6 10 6 10 9 0 9 0 6
-10z m201 -2 l7 -11 -16 6 -15 6 4 -27 4 -27 -14 25 -14 25 4 7 5 8 14 0 14 0
7 -12z m1109 -9 l-6 -9 -30 -15 -29 -16 0 7 0 6 -15 -12 -15 -12 7 -11 6 -10
-12 7 -12 8 -17 -13 -17 -12 40 36 40 36 11 1 12 0 12 15 12 15 9 -6 9 -5 -5
-10z m-1450 2 l-5 -10 10 -6 10 -6 0 -12 0 -11 -16 16 -16 16 6 11 7 11 5 0 5
0 -6 -9z m2144 -25 l56 -34 55 -25 55 -25 42 -12 42 -13 -20 -51 -21 -51 -13
-55 -13 -55 -8 -20 -8 -20 -43 -66 -43 -67 -45 -41 -44 -41 -55 -35 -55 -35
-109 -50 -109 -50 -71 0 -71 0 -26 12 -25 11 -1 16 -2 16 -1 30 -2 30 8 50 8
51 39 97 40 98 37 50 37 50 96 98 96 98 50 36 50 37 9 0 8 0 57 -34z m-3641
15 l12 -1 0 -16 0 -16 -22 6 -23 6 -11 0 -12 0 -5 13 -5 13 27 -2 26 -2 13 -1z
m3067 -1 l-6 -10 -22 0 -22 0 15 10 15 10 13 0 13 0 -6 -10z m-2965 -10 l0
-10 -10 0 -10 0 0 10 0 10 10 0 10 0 0 -10z m3175 0 l-6 -10 -15 0 -15 0 6 10
6 10 15 0 15 0 -6 -10z m135 0 l-15 -10 -7 0 -8 0 0 10 0 10 23 0 22 0 -15
-10z m-3330 -40 l0 -6 28 -11 27 -11 -26 -1 -25 -1 -22 25 -22 25 11 0 10 0
-6 13 -6 12 15 -19 16 -20 0 -6z m520 19 l0 -20 -10 6 -9 6 6 14 5 15 4 0 4 0
0 -21z m817 14 l-7 -6 10 -12 10 -12 -30 -1 -30 -1 0 8 0 7 12 12 12 12 15 0
14 0 -6 -7z m142 -19 l-11 -13 7 -11 6 -10 14 0 13 0 6 -15 5 -15 16 0 15 0 0
-10 0 -10 -4 0 -4 0 -16 -6 -16 -6 0 14 0 14 -20 17 -20 17 -13 0 -14 0 5 29
4 29 19 -5 19 -5 -11 -14z m1801 0 l0 -14 -14 0 -14 0 5 20 5 20 9 -6 9 -5 0
-15z m-1635 -32 l22 5 -2 -26 -2 -26 -1 -9 -2 -9 -30 44 -30 44 1 15 1 15 10
-28 10 -29 23 4z m220 18 l-5 -8 -29 -4 -30 -4 4 7 5 7 -17 6 -17 7 13 8 13 8
34 -10 33 -10 -4 -7z m-2285 5 l0 -15 -27 -6 -28 -7 -7 -11 -7 -10 -8 7 -7 8
14 9 15 10 -13 0 -13 0 -9 -22 -9 -23 0 16 -1 15 11 11 12 12 27 -6 27 -5 6
16 6 16 6 0 5 0 0 -15z m95 5 l6 -10 -10 0 -11 0 0 10 0 10 4 0 5 0 6 -10z
m458 -32 l65 -43 11 -17 11 -17 -8 -5 -7 -4 -30 14 -30 14 23 -6 22 -5 0 10 0
11 -14 0 -13 0 -27 25 -27 25 -24 6 -25 6 0 8 0 9 -17 4 -18 5 21 1 22 1 65
-42z m2977 28 l0 -5 -10 -6 -10 -6 0 10 0 11 10 0 10 0 0 -4z m203 -21 l-18
-24 -12 -1 -13 0 0 -7 0 -8 -20 -25 -20 -25 6 19 7 18 -14 10 -14 10 17 -5 16
-6 34 35 33 34 8 0 8 0 -18 -25z m-1593 -1 l0 -15 -10 6 -10 6 0 10 0 9 10 0
10 0 0 -16z m1160 12 l0 -5 -10 -6 -10 -6 0 10 0 11 10 0 10 0 0 -4z m-928
-29 l6 -10 -6 -15 -5 -15 14 5 14 6 -2 11 -3 11 9 0 10 0 6 -10 6 -10 51 0 51
0 -6 -7 -7 -6 -96 -4 -95 -3 6 10 6 10 15 0 14 0 0 11 0 12 -30 -6 -30 -6 0
20 0 21 33 -7 32 -8 7 -10z m858 19 l0 -4 -16 -6 -15 -6 6 10 6 10 10 0 9 0 0
-4z m-3179 -52 l-10 -19 -1 25 -1 25 -14 -19 -15 -20 0 13 0 12 13 14 12 13
14 -13 13 -13 -11 -18z m176 9 l-5 -5 -21 7 -21 6 6 10 5 9 9 -5 9 -5 8 12 8
13 3 -18 4 -19 -5 -5z m753 27 l0 -10 -15 0 -15 0 0 10 0 10 15 0 15 0 0 -10z
m1024 -6 l6 -15 -10 6 -10 6 0 10 0 9 4 0 4 0 6 -16z m193 -6 l-5 -13 -1 19
-1 19 6 -6 6 -6 -5 -13z m982 -19 l-13 -8 -4 4 -3 3 13 21 13 22 3 -17 4 -17
-13 -8z m471 27 l-8 -8 -18 10 -18 10 26 -1 27 -2 -9 -9z m1112 -13 l26 -28
62 -65 62 -65 37 -50 36 -50 18 -32 18 -32 15 -43 16 -43 19 -78 19 -78 0 -8
0 -8 -82 -8 -83 -8 -38 0 -38 1 -57 34 -57 33 -52 24 -53 24 0 9 0 8 -15 0
-15 0 0 8 0 9 -21 24 -21 24 -37 40 -38 40 -28 50 -28 50 -34 65 -34 65 -8 25
-8 25 81 1 81 1 95 31 95 31 21 0 21 1 25 -27z m-1378 1 l6 -16 -12 4 -12 4
-4 12 -4 12 10 0 10 0 6 -16z m-3244 -4 l0 -10 -4 0 -5 0 -6 10 -6 10 10 0 11
0 0 -10z m1240 -3 l-15 -12 -2 -13 -3 -12 14 0 15 0 5 -8 5 -8 -8 -12 -8 -13
-17 7 -17 7 5 13 5 14 -14 0 -14 0 -7 11 -7 11 23 -7 23 -7 -7 10 -6 11 17 10
18 10 5 0 5 0 -15 -12z m1788 -31 l27 -3 3 -6 2 -7 0 -10 0 -10 -11 0 -11 0
-29 21 -29 20 -7 -4 -8 -5 0 24 0 25 18 -22 17 -21 28 -2z m377 35 l5 -10 -10
-6 -10 -6 0 15 0 16 4 0 5 0 6 -9z m-3693 -16 l-33 -15 7 -11 7 -12 -11 7 -11
6 -6 -10 -6 -10 21 0 21 0 -6 -10 -7 -11 -20 7 -20 6 -9 -13 -8 -14 -30 -1
-31 -2 6 10 6 10 -23 -13 -24 -12 -2 1 -3 2 -11 0 -10 0 4 -7 5 -8 -39 0 -39
0 0 6 0 7 23 6 22 6 23 0 22 0 0 9 0 8 53 9 52 10 -3 13 -2 12 10 -6 10 -6 22
20 22 21 25 0 26 -1 -33 -14z m138 2 l0 -14 -25 -11 -24 -11 11 24 11 25 14 0
13 0 0 -13z m2165 3 l6 -10 -10 0 -11 0 0 10 0 10 4 0 5 0 6 -10z m-2235 -24
l15 -20 -17 7 -17 6 -6 -9 -6 -10 -16 0 -16 0 23 25 23 25 2 -3 1 -2 14 -19z
m533 17 l-13 -5 -12 5 -13 5 25 0 25 0 -12 -5z m2637 -4 l0 -8 -9 -5 -9 -6
-25 -2 -26 -2 1 -6 0 -5 -1 -10 -1 -10 -9 14 -9 13 -28 -10 -29 -10 18 -1 17
-1 0 -12 0 -13 11 15 11 15 4 -11 5 -12 22 5 22 5 -13 -10 -14 -9 34 -7 33 -7
-15 -9 -15 -10 16 0 16 0 18 -20 18 -20 8 5 8 5 6 -10 6 -10 -21 0 -21 0 -20
18 -19 19 -28 13 -27 12 -27 15 -28 14 -52 16 -53 16 -27 -2 -28 -1 0 11 0 11
68 -2 67 -2 10 2 10 2 7 -1 7 -1 25 14 25 13 31 0 30 0 0 -8z m187 -17 l13 -8
-34 -1 -34 -1 5 19 5 19 17 -10 16 -9 12 -9z m83 8 l0 -10 -4 0 -5 0 -6 10 -6
10 10 0 11 0 0 -10z m-2045 -10 l6 -9 -33 -9 -33 -9 -5 4 -4 4 13 9 14 8 15
-6 15 -5 -7 11 -7 12 10 0 10 0 6 -10z m870 -18 l-4 -4 -10 7 -11 6 6 11 7 10
8 -13 8 -13 -4 -4z m-1635 4 l-10 -10 -11 11 -12 12 21 -2 22 -1 -10 -10z
m166 -4 l39 2 55 -17 55 -17 -45 7 -45 7 -40 -2 -40 -2 -22 12 -23 11 0 10 0
9 13 -11 14 -11 39 2z m1309 8 l-6 -10 -10 0 -9 0 0 10 0 10 16 0 15 0 -6 -10z
m248 -12 l-22 -22 -6 6 -5 5 6 17 6 16 21 0 21 0 -21 -22z m1081 0 l-6 -9 -14
12 -14 11 0 3 0 3 20 -5 20 -5 -6 -10z m70 7 l-6 -15 -9 0 -9 0 0 8 0 9 7 6 6
7 8 0 8 0 -5 -15z m96 5 l0 -10 -11 0 -10 0 6 10 6 10 5 0 4 0 0 -10z m-3123
-6 l-6 -6 -13 5 -13 5 19 1 19 1 -6 -6z m1523 -4 l0 -10 -7 0 -8 0 -25 -6 -25
-5 19 15 20 16 13 0 13 0 0 -10z m1731 -7 l14 -16 -22 12 -23 12 0 4 0 5 9 0
9 0 13 -17z m-2442 -12 l10 -18 46 2 46 2 6 -10 5 -9 24 6 24 6 -3 -22 -2 -22
30 -10 30 -11 19 -17 20 -18 -21 0 -20 0 -18 20 -18 20 -13 0 -13 0 -16 16
-16 16 -23 -6 -23 -6 -19 15 -19 14 -22 1 -23 0 0 14 0 15 -57 -4 -58 -4 44 9
44 9 5 6 5 5 8 0 8 0 10 -19z m331 9 l5 -2 8 1 7 1 0 -14 0 -14 -20 5 -19 5
-11 13 -11 13 18 -3 18 -3 5 -2z m615 -1 l7 -10 -3 -4 -4 -3 -13 14 -13 14 10
0 10 0 6 -11z m72 -12 l-5 -14 -49 -23 -48 -23 -32 -24 -33 -24 0 15 0 15 19
6 20 6 -6 16 -6 15 20 -6 20 -6 13 15 12 15 13 0 13 0 23 19 24 19 4 -3 3 -4
-5 -14z m387 -44 l-5 -68 -16 -65 -16 -65 -34 -67 -33 -66 -61 -84 -62 -83 -9
-3 -8 -4 0 -12 0 -12 -62 -61 -63 -61 -31 -16 -32 -15 -88 -10 -89 -10 -86 -6
-86 -7 -7 80 -7 80 16 63 17 64 11 15 12 15 11 20 10 20 54 95 55 95 30 29 30
29 69 45 70 46 80 34 81 35 45 7 45 7 82 2 82 1 -5 -67z m533 61 l-6 -6 -13 5
-13 5 19 1 19 1 -6 -6z m-3132 -14 l-6 -10 -19 0 -19 0 -6 10 -6 10 31 0 31 0
-6 -10z m1607 -5 l0 -9 -11 -4 -11 -4 0 17 0 17 11 -4 11 -3 0 -10z m1112 -1
l61 -16 30 -13 30 -13 66 -25 66 -25 58 -28 59 -27 81 -83 81 -83 31 -58 31
-58 7 -33 7 -33 14 -27 14 -27 0 -16 0 -16 -70 -12 -71 -13 -26 7 -27 6 -86
42 -85 41 -45 35 -45 34 -38 41 -38 41 -43 50 -43 50 -27 50 -26 50 0 12 0 12
-17 38 -18 38 -7 3 -8 4 0 34 0 34 12 0 12 0 60 -16z m881 6 l-6 -10 -12 0
-12 0 15 10 15 10 3 0 3 0 -6 -10z m-3112 -7 l-13 -5 -17 5 -18 5 30 0 30 0
-12 -5z m252 -3 l6 -10 -10 0 -11 0 0 10 0 10 4 0 5 0 6 -10z m288 3 l-13 -5
-12 5 -13 5 25 0 25 0 -12 -5z m1857 3 l0 -5 -10 -6 -10 -6 0 10 0 11 10 0 10
0 0 -4z m-1493 -36 l-1 -19 -12 10 -13 10 6 15 5 14 8 -5 9 -5 -2 -20z m-1107
16 l0 -5 -9 -6 -10 -5 -6 10 -6 10 15 0 16 0 0 -4z m35 -6 l6 -10 -10 0 -11 0
0 10 0 10 4 0 5 0 6 -10z m115 0 l0 -10 -19 0 -19 0 -5 -12 -4 -13 -28 15 -28
15 44 6 44 6 8 1 7 2 0 -10z m254 -29 l-3 -3 -10 6 -10 7 6 16 6 17 7 -20 7
-19 -3 -4z m1300 30 l6 -9 -23 -6 -22 -6 -9 0 -8 0 12 15 12 15 14 0 13 0 5
-9z m976 -17 l0 -5 -20 11 -20 11 0 5 0 5 20 -11 20 -11 0 -5z m590 16 l0 -10
-10 0 -10 0 0 10 0 10 10 0 10 0 0 -10z m-3046 -15 l36 -15 -1 -18 -1 -17 -5
18 -5 18 -16 -4 -17 -3 3 -12 2 -12 -10 0 -10 0 0 8 0 8 12 12 12 12 -16 0
-17 0 -6 10 -6 10 4 0 5 0 36 -15z m1006 -18 l15 -5 -43 -1 -43 -1 7 11 7 11
-22 -7 -21 -6 0 15 0 15 43 -14 42 -13 15 -5z m1880 23 l0 -10 -10 0 -10 0 0
10 0 10 10 0 10 0 0 -10z m-4188 -17 l23 -14 -30 7 -30 8 -42 1 -42 0 -8 8 -8
8 57 -2 56 -2 24 -14z m993 12 l-10 -4 -37 -3 -37 -4 5 8 5 8 42 -1 42 -1 -10
-3z m431 -4 l-6 -9 12 -5 13 -5 -22 -1 -23 -1 0 8 0 9 7 6 6 7 9 0 9 0 -5 -9z
m1109 -1 l6 -10 -15 6 -16 6 0 4 0 4 9 0 10 0 6 -10z m1396 -6 l14 -17 -25 8
-25 7 -9 9 -10 9 21 0 21 0 13 -16z m-2671 2 l0 -5 -10 -6 -10 -6 0 10 0 11
10 0 10 0 0 -4z m1230 -6 l0 -10 -10 0 -10 0 0 10 0 10 10 0 10 0 0 -10z
m1536 -4 l14 -14 12 -5 13 -4 -13 -14 -13 -14 -10 17 -9 17 -16 16 -15 15 11
0 11 0 15 -14z m318 2 l-5 -8 -16 0 -16 0 6 -7 7 -6 -11 -14 -11 -13 -24 0
-23 0 -5 9 -6 8 21 19 20 18 -7 -17 -6 -17 18 0 17 0 -6 6 -6 6 11 12 11 12
18 0 18 0 -5 -8z m-4134 -9 l0 -10 -31 5 -31 5 -6 5 -5 6 36 0 37 0 0 -11z
m120 -2 l45 0 53 3 53 3 12 -13 12 -13 -70 6 -70 6 25 -9 25 -9 -60 4 -60 4
-33 7 -32 7 -7 10 -6 10 34 -8 34 -8 45 0z m410 0 l0 -13 -20 0 -20 0 0 7 0 8
18 4 17 5 3 1 2 1 0 -13z m490 -8 l0 -9 -25 0 -25 0 0 9 0 10 18 4 17 3 8 -3
7 -4 0 -10z m706 -8 l99 -29 45 -21 45 -21 14 0 15 0 70 -36 70 -37 26 -26 25
-26 37 -45 36 -45 21 -38 21 -38 0 -10 0 -10 19 -20 18 -20 16 -62 17 -62 8
-65 8 -66 -110 -17 -111 -17 -75 20 -75 20 -28 21 -27 20 -12 -7 -11 -7 6 10
7 11 -39 35 -39 35 -53 63 -54 64 -24 55 -23 55 -8 15 -7 15 -18 58 -18 58
-10 6 -10 6 7 -43 7 -42 15 -30 15 -29 -4 -12 -4 -12 -18 40 -18 40 -9 20 -9
21 -4 79 -4 80 -6 36 -7 36 35 1 35 1 98 -28z m869 19 l6 -10 -15 0 -16 0 0
10 0 10 9 0 10 0 6 -10z m1337 -12 l-12 -12 0 10 0 11 7 6 6 7 6 -5 5 -5 -12
-12z m-3452 2 l0 -10 -10 0 -10 0 0 10 0 10 10 0 10 0 0 -10z m1016 -76 l-6
-86 -6 -10 -6 -9 -19 17 -19 17 11 -31 11 -32 -22 -69 -21 -70 -7 -3 -7 -3
-25 -50 -25 -50 -85 -83 -85 -84 -100 -50 -100 -51 -103 6 -103 5 -6 6 -6 6
16 77 15 78 30 65 30 65 64 87 64 87 79 65 79 66 9 0 9 0 91 44 92 44 30 10
30 11 20 4 20 5 29 1 29 1 -7 -86z m644 76 l0 -10 -4 0 -5 0 -6 10 -6 10 10 0
11 0 0 -10z m227 4 l-6 -6 -13 5 -13 5 19 1 19 1 -6 -6z m1389 -34 l5 -14 8
13 8 13 6 -21 5 -21 -8 0 -8 0 -16 6 -16 6 1 32 1 31 5 -15 5 -15 4 -15z
m-3349 10 l5 -15 -10 14 -10 15 -15 -13 -15 -12 -6 10 -6 9 12 5 13 6 14 -2
14 -2 4 -15z m1433 10 l0 -10 -9 0 -10 0 -6 10 -6 10 15 0 16 0 0 -10z m230
-10 l0 -10 -15 0 -15 0 0 10 0 10 15 0 15 0 0 -10z m135 0 l6 -10 -15 0 -16 0
0 10 0 10 9 0 10 0 6 -10z m-1960 -10 l6 -10 -15 0 -16 0 0 10 0 10 9 0 10 0
6 -10z m64 -29 l16 -16 16 3 16 3 6 -20 5 -20 -30 17 -30 17 -19 10 -19 10 0
11 0 11 7 7 8 7 4 -12 4 -11 16 -17z m1601 29 l0 -10 -12 0 -13 0 -15 10 -15
10 28 0 27 0 0 -10z m330 -6 l0 -15 -10 6 -10 6 5 10 6 9 5 0 4 0 0 -16z m199
2 l12 -14 -16 -6 -15 -5 0 19 0 20 4 0 4 0 11 -14z m136 4 l6 -10 -10 0 -11 0
0 10 0 10 4 0 5 0 6 -10z m43 -8 l4 -12 -10 0 -10 0 -6 16 -6 16 12 -4 12 -4
4 -12z m1335 -54 l-10 -22 -19 32 -19 32 -12 -4 -13 -5 0 9 0 9 -15 -5 -15 -6
0 12 0 12 24 -6 25 -6 6 10 7 11 25 -26 26 -25 -10 -22z m-2805 55 l-18 -4
-17 4 -18 5 35 0 35 0 -17 -5z m-1316 -68 l6 -60 11 -35 11 -35 0 -36 0 -36
-15 -44 -16 -43 -8 -6 -8 -5 -18 -35 -18 -35 -31 -40 -31 -40 -29 -24 -28 -25
-13 -13 -14 -13 -4 0 -4 0 -37 -35 -37 -35 -15 0 -14 0 0 -10 0 -10 -9 0 -9 0
-88 -41 -88 -41 -65 -12 -66 -12 -3 -17 -3 -17 33 -14 33 -14 57 -17 57 -18
23 -24 22 -23 75 -46 76 -45 50 -35 50 -36 72 -66 73 -67 0 -9 0 -10 19 -20
20 -21 30 -59 31 -58 0 -47 0 -47 13 -13 12 -14 -106 6 -106 6 -64 21 -64 22
-103 59 -104 59 -7 0 -6 0 -23 23 -22 22 -24 30 -23 30 -38 80 -37 80 -19 41
-19 41 -16 78 -16 77 5 82 5 81 6 29 7 29 18 41 18 41 13 33 12 32 8 0 8 0 15
48 16 47 16 35 16 35 16 30 16 30 36 33 35 32 10 0 9 0 71 58 71 58 65 28 65
27 50 8 50 9 15 -2 15 -1 7 -60z m184 45 l33 -11 61 -30 60 -29 6 0 5 0 65
-30 65 -31 53 -34 52 -33 54 -46 53 -45 37 -53 38 -53 31 -58 31 -57 0 -50 0
-49 15 5 15 6 0 -26 0 -26 -25 0 -24 0 -77 -24 -76 -25 -17 9 -16 9 -66 21
-67 21 -56 34 -56 33 -14 14 -14 13 -25 19 -26 18 -34 52 -34 51 -57 86 -57
86 -10 39 -10 39 -4 25 -5 25 -6 61 -7 61 38 -3 38 -3 33 -11z m519 -6 l-18
-13 -9 5 -9 6 11 13 11 14 16 -6 16 -6 -18 -13z m539 6 l10 -10 -14 0 -15 1
-25 14 -25 15 29 -5 29 -4 11 -11z m1040 11 l6 -9 -14 -5 -14 -6 -6 6 -6 6 0
9 0 8 14 0 15 0 5 -9z m1968 2 l-12 -5 5 -9 6 -9 -16 7 -17 6 14 8 13 9 10 -1
10 -1 -13 -5z m-2972 -18 l-13 -15 -4 4 -5 5 7 10 6 11 11 0 10 0 -12 -15z
m940 11 l0 -5 -10 -6 -10 -6 0 10 0 11 10 0 10 0 0 -4z m518 -16 l-13 -20 -7
0 -8 0 0 4 0 5 16 15 15 16 5 0 4 0 -12 -20z m1457 9 l7 -10 -5 -5 -4 -4 -13
15 -12 15 10 0 11 0 6 -11z m-3831 -8 l20 -8 -10 -5 -9 -5 -30 13 -30 13 20 0
20 0 19 -8z m217 0 l-14 -9 -14 5 -13 5 0 4 0 4 28 0 27 0 -14 -9z m456 3 l-6
-6 -13 5 -13 5 19 1 19 1 -6 -6z m109 -1 l-6 -7 -20 -1 -20 -2 0 9 0 8 27 0
26 0 -7 -7z m244 3 l0 -4 -16 -6 -15 -6 6 10 6 10 10 0 9 0 0 -4z m-595 -15
l5 -10 -10 -6 -10 -6 0 15 0 16 4 0 5 0 6 -9z m1690 -2 l7 -10 -5 -6 -5 -5
-21 7 -21 6 0 10 0 9 19 0 20 0 6 -11z m1535 2 l0 -8 -25 5 -25 4 0 4 0 4 25
0 25 0 0 -9z m210 -16 l-11 -13 3 -13 3 -14 -25 -1 -25 -2 23 5 22 4 -5 10 -6
9 6 20 6 20 10 -6 10 -6 -11 -13z m-1960 5 l0 -10 -11 0 -10 0 6 10 6 10 5 0
4 0 0 -10z m360 -4 l0 -15 -10 -6 -10 -6 0 20 0 21 10 0 10 0 0 -14z m-1883
-2 l-6 -6 -13 5 -13 5 19 1 19 1 -6 -6z m193 -4 l0 -10 -15 0 -15 0 0 10 0 10
15 0 15 0 0 -10z m170 5 l0 -5 -31 -30 -32 -30 -5 0 -6 0 12 12 12 12 0 6 0 6
-18 0 -18 0 4 -28 4 -28 -16 -6 -17 -6 12 -14 11 -14 -16 0 -16 0 -1 -12 -1
-13 1 -12 2 -13 -10 0 -10 0 -27 -45 -26 -45 -9 0 -9 0 0 15 0 15 14 0 14 0 6
18 6 17 6 13 6 12 -23 0 -23 0 22 21 22 20 9 -6 10 -5 8 12 8 13 0 10 1 10
-16 13 -15 13 13 -6 12 -6 0 10 0 11 -47 0 -48 1 34 15 35 15 13 -5 12 -5 15
14 15 15 30 0 30 0 6 10 6 10 15 0 14 0 0 -5z m110 -5 l0 -10 -11 0 -10 0 6
10 6 10 5 0 4 0 0 -10z m1469 -7 l-13 -18 -21 -17 -20 -18 -10 0 -9 0 22 16
22 15 -5 9 -5 9 17 10 18 10 9 1 8 0 -13 -17z m1328 -5 l23 -21 0 -14 0 -13 8
0 7 0 17 -31 18 -30 9 5 9 6 -5 -21 -6 -21 -9 16 -9 16 -11 -6 -11 -7 5 14 5
14 -28 36 -29 37 0 11 0 11 -20 0 -20 0 0 10 0 10 12 0 12 0 23 -22z m-3367 2
l0 -9 -15 5 -15 6 0 4 0 4 15 0 15 0 0 -10z m1665 -12 l8 7 -7 -13 -8 -13 21
-6 21 -5 0 -13 0 -13 18 -8 17 -7 7 1 7 2 -5 -15 -6 -15 11 0 12 0 6 -17 6
-18 29 -28 28 -27 0 -18 -1 -17 -35 40 -35 40 -8 10 -7 10 -7 17 -6 17 -55 43
-55 42 6 9 5 8 12 -10 13 -11 8 8z m-1705 -40 l0 -8 -8 0 -8 0 -17 20 -17 20
0 6 0 5 25 -18 24 -18 1 -7z m523 28 l6 -15 -14 6 -15 5 6 9 5 9 4 0 3 0 5
-14z m57 10 l0 -4 -15 -12 -15 -13 6 17 6 16 9 0 9 0 0 -4z m1278 -21 l-6 -6
-6 18 -7 18 12 -12 13 -13 -6 -5z m92 15 l0 -10 -11 0 -10 0 6 10 6 10 5 0 4
0 0 -10z m-1836 -15 l5 -15 -14 0 -14 0 5 15 6 15 3 0 3 0 6 -15z m31 -15 l0
-30 -7 0 -8 0 0 30 0 30 8 0 7 0 0 -30z m4190 21 l5 -10 -10 -6 -10 -6 0 15 0
16 4 0 5 0 6 -9z m-788 -46 l-2 -35 -9 0 -8 0 6 23 6 22 0 13 0 12 5 0 5 0 -3
-35z m34 4 l-10 -24 0 12 -1 11 6 17 6 16 4 -4 4 -4 -9 -24z m-3081 11 l0 -10
-11 0 -10 0 6 10 6 10 5 0 4 0 0 -10z m-252 -30 l23 -30 -11 0 -10 0 0 9 0 9
-22 5 -22 6 -5 -5 -5 -5 14 -9 14 -9 -6 -7 -7 -6 -14 14 -14 14 8 22 8 22 14
0 13 0 22 -30z m1579 8 l-5 -13 -1 19 -1 19 6 -6 6 -6 -5 -13z m145 0 l-12
-12 0 10 0 11 7 6 6 7 6 -5 5 -5 -12 -12z m-1948 -4 l6 -17 -15 13 -15 12 0 4
0 4 9 0 9 0 6 -16z m416 -11 l-8 -28 -12 -27 -13 -27 -8 5 -9 5 -10 -27 -11
-27 -5 6 -6 6 18 30 18 31 8 0 8 0 0 15 0 15 10 0 9 0 -6 16 -6 16 14 9 14 9
2 0 2 0 -9 -27z m634 -7 l-7 -18 -7 13 -8 12 5 14 6 14 9 -9 9 -9 -7 -17z
m859 -2 l-6 -15 -9 9 -10 10 7 11 6 11 9 -5 9 -6 -6 -15z m1623 -38 l-13 -38
-6 21 -5 21 8 0 9 0 6 21 7 21 3 -4 4 -4 -13 -38z m-3506 20 l33 -13 -12 -7
-12 -8 -32 21 -32 21 11 0 12 0 32 -14z m1919 -29 l-10 -37 -5 0 -5 0 4 29 5
30 7 11 7 11 4 -3 3 -4 -10 -37z m1565 -60 l7 -29 -11 7 -10 6 0 25 0 25 -8
-5 -8 -5 -2 27 -1 27 13 -25 13 -25 7 -28z m-3419 41 l20 -23 30 -40 31 -40 7
-12 8 -13 -15 6 -16 6 0 7 0 7 -53 57 -53 57 5 5 4 5 6 0 7 0 19 -22z m90 2
l-18 -20 -7 0 -8 0 -6 16 -6 15 20 -6 20 -6 0 10 0 11 12 0 11 0 -18 -20z
m4025 0 l0 -10 -11 0 -10 0 6 10 6 10 5 0 4 0 0 -10z m-3954 -16 l-6 -16 0
-11 0 -11 -15 20 -14 19 -1 8 0 7 21 0 21 0 -6 -16z m-42 -28 l16 -25 -11 -6
-10 -7 -3 3 -2 4 -12 28 -12 27 9 0 9 0 16 -24z m221 -6 l-18 -20 -5 5 -6 5
20 15 19 14 4 1 4 0 -18 -20z m1452 -2 l-5 -13 -1 19 -1 19 6 -6 6 -6 -5 -13z
m43 3 l0 -10 -10 -6 -10 -6 0 15 0 16 10 0 10 0 0 -9z m-1614 -49 l-16 -16 -6
7 -7 7 19 19 19 18 4 -9 3 -10 -16 -16z m1563 7 l13 -22 9 14 9 14 -1 -50 0
-50 -19 41 -18 42 -11 6 -11 7 0 10 0 9 8 0 7 0 14 -21z m-1599 -62 l0 -42 -9
14 -9 14 5 13 4 12 -10 6 -10 7 5 14 6 15 9 -6 9 -5 0 -42z m17 11 l-5 -13 -1
19 -1 19 6 -6 6 -6 -5 -13z m2273 -8 l0 -10 -10 0 -10 0 0 10 0 10 10 0 10 0
0 -10z m-2339 -50 l0 -25 9 20 9 20 0 -27 1 -26 6 -19 6 -18 -13 19 -12 19
-20 23 -21 24 -1 19 -2 19 19 -11 18 -12 1 -25z m4965 3 l-6 -28 -10 -75 -11
-75 -16 -55 -16 -54 -41 -61 -40 -60 -48 -61 -48 -62 -15 -6 -15 -5 -15 5 -15
6 -40 -35 -41 -35 -82 -31 -82 -32 -40 -19 -40 -20 -44 -15 -44 -15 -35 0 -35
0 6 53 6 52 22 45 22 45 61 75 60 75 13 15 13 15 44 55 44 55 54 51 53 50 60
45 60 45 50 29 50 29 65 12 65 12 19 1 18 1 -6 -27z m-2675 -20 l-10 -18 -1 7
0 6 6 17 6 16 5 -5 5 -4 -11 -19z m1252 -30 l-13 -5 -17 5 -18 5 30 0 30 0
-12 -5z m-298 -41 l-5 -6 -13 13 -12 12 18 -7 18 -6 -6 -6z m341 -31 l100 -21
32 -15 32 -16 12 -17 13 -17 57 -45 57 -45 1 -7 0 -7 35 -34 35 -34 0 -6 0 -7
49 -82 50 -83 27 -83 26 -83 -5 -5 -5 -5 -133 37 -134 37 -20 14 -20 13 -39
11 -40 11 -95 71 -96 71 -7 -2 -7 -2 4 13 5 12 -25 40 -25 40 -21 45 -22 45
-19 70 -20 70 -5 22 -5 23 53 -4 54 -5 101 -20z m-310 -65 l1 -68 13 -8 13 -8
-12 -46 -11 -46 -36 -76 -36 -77 6 -20 5 -20 -43 -66 -42 -66 -80 -80 -79 -80
-87 -59 -86 -58 -118 -9 -119 -8 -4 5 -5 5 0 37 0 37 7 79 8 79 14 35 15 34 0
29 0 29 11 47 11 48 21 45 21 45 14 17 14 17 -8 12 -7 12 10 -6 10 -6 74 72
74 72 37 31 36 32 79 25 78 26 25 4 25 5 75 -2 75 -1 1 -69z m-1256 -35 l0 -9
-27 -5 -27 -5 -15 6 -16 6 30 7 30 7 13 1 12 1 0 -9z m-125 -29 l-5 -6 -13 13
-12 12 18 -7 18 -6 -6 -6z m-521 -14 l-6 -9 -14 12 -14 11 0 3 0 3 20 -5 20
-5 -6 -10z m-1247 6 l-6 -6 -13 5 -13 5 19 1 19 1 -6 -6z m318 -65 l64 -20 57
-52 57 -52 44 -40 44 -40 33 -45 32 -45 15 -30 16 -30 22 -40 23 -40 7 -10 6
-10 12 -35 13 -35 -6 -65 -6 -65 -105 3 -105 3 -53 -16 -54 -17 -88 50 -88 51
-41 43 -41 43 -57 73 -58 73 -33 72 -33 72 -11 59 -11 60 0 7 0 7 52 17 52 17
56 28 55 29 33 1 33 0 64 -21z m1205 -18 l5 -36 -7 -100 -7 -100 -21 -60 -22
-59 -14 -29 -15 -29 -69 -64 -68 -65 -38 -25 -38 -26 -65 -33 -66 -32 -65 -18
-64 -17 -76 23 -75 23 -3 1 -2 2 14 83 15 83 22 46 21 46 30 60 30 61 59 62
60 62 9 0 9 0 58 56 58 55 54 25 53 25 37 9 36 9 70 -1 70 -1 5 -36z m188 19
l82 -9 43 -21 42 -20 25 -15 25 -14 69 -63 69 -63 91 -90 91 -91 11 -24 10
-25 27 -55 26 -55 12 -52 12 -53 -6 -6 -6 -6 -63 16 -64 16 -23 0 -23 0 -131
65 -132 65 -62 60 -63 60 -50 62 -50 62 0 13 0 13 -9 18 -10 17 -24 65 -25 65
-6 38 -7 37 18 0 18 0 83 -10z m-2031 -6 l-6 -6 -13 5 -13 5 19 1 19 1 -6 -6z
m3623 -25 l0 -20 -10 6 -10 6 0 15 0 14 10 0 10 0 0 -21z m-1360 -11 l0 -10
-12 4 -12 4 -4 12 -4 12 16 -6 16 -6 0 -10z m635 12 l-6 -10 -10 0 -10 0 6 10
6 10 10 0 10 0 -6 -10z m-2795 -32 l75 -11 3 -2 3 -3 -16 -58 -17 -59 -30 -60
-31 -60 -36 -51 -36 -51 -93 -107 -93 -107 -32 -28 -32 -27 -25 -16 -26 -16
-79 -17 -80 -17 -29 -6 -29 -5 6 95 5 96 32 73 32 74 12 25 13 25 37 70 37 70
57 52 57 53 13 0 12 0 0 10 0 10 10 0 11 0 26 18 27 17 40 17 41 17 30 -5 30
-4 75 -12z m-264 -17 l-6 -9 -20 -5 -20 -5 0 8 0 8 13 5 12 5 13 1 13 1 -5 -9z
m1614 -5 l0 -4 -15 -12 -15 -13 6 17 6 16 9 0 9 0 0 -4z m2171 -19 l17 -23
-24 0 -24 0 0 23 0 23 8 0 7 -1 16 -22z m-1706 -37 l6 -10 -8 0 -8 0 -2 -30
-2 -31 8 6 9 5 7 -40 7 -40 8 0 9 0 3 -32 3 -33 18 2 19 1 -5 -24 -4 -25 21 3
21 3 -3 13 -2 13 10 -6 11 -7 -12 -15 -13 -15 12 -19 13 -20 -6 -9 -6 -10 -11
0 -11 0 6 6 6 7 -25 30 -25 30 5 14 6 14 -11 -6 -10 -7 -14 12 -15 12 0 29 0
28 -13 -5 -13 -5 3 38 2 38 -5 -20 -6 -20 -10 -10 -10 -10 7 25 8 25 -2 52 -2
53 10 0 10 0 6 -10z m1725 -10 l0 -10 -27 0 -28 0 15 10 15 10 13 0 12 0 0
-10z m-66 -24 l-6 -16 -9 0 -10 0 11 21 12 21 4 -5 4 -4 -6 -17z m-3358 -8
l-5 -13 -12 -37 -12 -38 -9 0 -8 0 5 -23 6 -23 -15 -13 -16 -13 0 8 0 8 -15
-20 -14 -19 -1 18 0 18 14 5 14 5 5 28 6 29 14 14 15 14 7 32 7 32 10 0 10 0
-6 -12z m3474 -14 l0 -6 -15 6 -15 5 0 -12 0 -12 -9 15 -10 14 5 8 5 8 20 -10
19 -11 0 -5z m14 -30 l6 -17 -3 -3 -3 -3 -12 19 -12 20 9 0 9 0 6 -16z m-3434
-8 l0 -5 -10 -27 -10 -26 12 -16 13 -15 -24 8 -23 7 -9 -13 -9 -14 0 13 0 13
15 5 14 6 7 34 6 34 9 0 9 0 0 -4z m3190 -6 l0 -10 -11 0 -10 0 6 10 6 10 5 0
4 0 0 -10z m51 -29 l-21 -29 0 -11 0 -12 -15 -5 -15 -6 7 -11 6 -10 -10 6 -9
6 -15 -22 -14 -21 -29 -26 -29 -25 -24 -24 -24 -25 7 20 7 19 15 17 15 18 8
-6 9 -5 0 8 0 9 33 35 32 35 38 47 38 47 5 0 5 0 -20 -29z m39 -1 l0 -20 -9 0
-9 0 5 20 5 20 4 0 4 0 0 -20z m260 0 l0 -10 -11 0 -10 0 6 10 6 10 5 0 4 0 0
-10z m-85 -10 l-6 -10 -10 0 -10 0 6 10 6 10 10 0 10 0 -6 -10z m-55 -20 l0
-10 -4 0 -5 0 -6 10 -6 10 10 0 11 0 0 -10z m180 -5 l0 -15 -15 0 -14 0 5 15
6 15 9 0 9 0 0 -15z m-3541 -29 l21 -33 0 -7 0 -6 -8 0 -8 0 -17 35 -17 36 0
4 0 5 4 0 4 0 21 -34z m2462 -2 l-6 -37 -7 2 -8 1 -11 0 -10 0 7 11 7 11 8
-13 9 -14 0 12 0 12 -10 6 -9 6 17 19 16 20 2 0 1 0 -6 -36z m788 14 l9 -23
-9 -9 -9 -10 -25 14 -25 13 0 10 0 9 15 -12 15 -12 0 21 0 21 10 0 11 0 8 -22z
m141 18 l0 -4 -15 -28 -14 -28 -7 17 -6 17 12 15 12 15 9 0 9 0 0 -4z m-1819
-39 l-11 -11 0 -22 0 -23 -10 -6 -10 -6 0 -20 0 -19 9 0 9 0 5 10 6 11 -3 -13
-3 -13 -17 0 -17 0 -10 -18 -10 -17 -10 0 -10 0 20 28 20 28 7 30 7 29 15 35
15 35 5 -13 4 -14 -11 -11z m1754 23 l6 -10 -10 0 -11 0 0 10 0 10 4 0 5 0 6
-10z m95 -9 l0 -10 -10 -6 -10 -6 0 15 0 16 10 0 10 0 0 -9z m-3440 -48 l0
-11 11 -4 10 -3 -7 -18 -6 -18 -13 24 -12 23 -7 30 -7 29 15 -20 15 -20 1 -12z
m3601 20 l14 -17 -18 7 -17 6 -25 -9 -25 -10 0 15 0 14 28 4 27 4 1 2 2 1 13
-17z m-3676 -15 l-7 -23 -12 -10 -12 -10 -12 -20 -11 -20 -1 12 0 13 19 32 20
32 -5 8 -5 8 16 0 16 0 -6 -22z m4452 16 l-6 -6 -13 5 -13 5 19 1 19 1 -6 -6z
m-4517 -25 l-12 -21 -4 5 -4 4 6 17 6 16 9 0 10 0 -11 -21z m-32 -31 l-3 -41
-13 -3 -12 -2 10 5 10 5 0 19 0 19 -11 0 -10 0 6 -10 6 -10 -9 0 -9 0 -19 -40
-19 -40 -13 -5 -13 -5 6 23 7 22 18 20 17 20 19 33 18 32 9 0 8 0 -3 -42z
m1832 19 l0 -12 -20 -25 -19 -25 -6 7 -6 6 10 19 10 18 5 18 6 18 10 -6 10 -6
0 -12z m-1590 -17 l13 -25 -16 14 -17 13 0 -7 0 -8 -5 5 -5 5 6 17 6 17 3 -3
2 -3 13 -25z m3579 13 l-1 -18 -5 13 -5 12 -12 0 -12 0 0 -20 0 -20 16 0 16 0
12 12 12 12 0 -17 0 -17 -20 0 -20 0 -60 -28 -60 -29 7 -6 6 -7 -11 0 -11 0
-7 12 -7 11 18 13 18 13 8 -5 9 -5 25 27 25 27 0 18 0 19 30 0 30 0 -1 -17z
m-439 -14 l0 -10 -10 6 -10 6 -6 -16 -7 -17 -8 14 -8 13 17 7 17 7 8 0 7 1 0
-11z m310 1 l0 -10 -10 0 -10 0 0 10 0 10 10 0 10 0 0 -10z m40 0 l0 -10 -16
0 -15 0 6 10 6 10 10 0 9 0 0 -10z m245 0 l6 -10 -16 0 -16 0 6 10 6 10 4 0 4
0 6 -10z m-665 -10 l0 -10 -11 0 -11 0 6 -15 5 -15 -7 0 -7 0 -10 -22 -10 -23
-47 -1 -48 -2 0 9 0 9 36 0 36 0 5 20 5 20 8 -5 7 -4 11 24 12 25 10 0 10 0 0
-10z m-2989 -37 l24 -38 8 -12 8 -13 -4 0 -4 0 -31 44 -32 44 0 6 0 6 4 0 4 0
23 -37z m1679 -13 l49 -50 11 0 11 0 -6 -10 -7 -11 -13 11 -14 12 -11 -7 -10
-6 5 -10 6 -9 -10 0 -11 0 0 8 0 8 12 12 12 12 -42 39 -42 39 0 6 0 6 5 0 6 0
49 -50z m1595 40 l-6 -10 -12 0 -12 0 15 10 15 10 3 0 3 0 -6 -10z m295 -4 l0
-4 -20 -5 -20 -5 0 9 0 9 20 0 20 0 0 -4z m-3780 -27 l0 -10 -10 6 -10 6 0 10
0 10 10 -6 10 -6 0 -10z m110 0 l0 -10 -15 -6 -16 -5 -5 4 -4 5 6 16 6 16 14
-6 14 -5 0 -9z m55 -8 l4 -21 -10 0 -9 0 0 27 0 26 5 -5 6 -5 4 -22z m1553
-46 l0 -20 -8 25 -8 25 0 20 0 20 8 -25 8 -25 0 -20z m1506 50 l-6 -15 -4 0
-4 0 0 15 0 15 10 0 9 0 -5 -15z m253 -17 l-5 -13 -1 19 -1 19 6 -6 6 -6 -5
-13z m-1702 3 l5 -10 -9 -5 -9 -6 -6 15 -5 15 9 0 9 0 6 -9z m60 -1 l6 -10 10
5 9 6 0 -11 0 -11 -22 3 -21 3 -5 13 -4 12 11 0 10 0 6 -10z m1503 -35 l-26
-22 -17 -27 -18 -27 -9 9 -9 9 48 52 48 52 4 -12 4 -13 -25 -21z m122 41 l0
-5 -10 -6 -10 -6 0 10 0 11 10 0 10 0 0 -4z m545 -12 l60 -7 7 -11 8 -11 0
-65 0 -65 -19 -70 -19 -70 -20 -50 -20 -50 -34 -55 -34 -55 -33 -50 -34 -50
-82 -69 -82 -68 -44 -20 -44 -20 -115 -24 -115 -24 -76 0 -76 0 -16 75 -17 76
0 50 0 50 21 62 21 62 31 55 31 55 40 49 41 49 93 98 94 97 54 27 55 27 27 9
27 9 105 -5 105 -5 60 -6z m-4264 -27 l-12 -12 7 18 6 18 6 -6 6 -5 -13 -13z
m317 -17 l-1 -30 -12 0 -11 0 4 35 4 35 8 -5 9 -5 -1 -30z m60 22 l4 -12 -16
0 -16 0 0 16 0 16 12 -4 12 -4 4 -12z m3316 -12 l-10 -10 0 20 0 20 10 -10 10
-10 -10 -10z m906 16 l75 -2 45 -28 45 -29 82 -80 81 -80 13 -26 14 -26 22
-31 23 -31 0 -10 0 -11 -22 -6 -23 -6 -50 0 -50 0 -90 19 -90 20 -60 27 -60
28 -14 10 -14 11 -54 53 -54 53 -15 34 -14 34 0 46 0 45 68 -6 67 -5 75 -3z
m-4168 -5 l10 14 -4 -14 -4 -15 -12 -4 -12 -4 1 19 1 18 5 -14 5 -13 10 13z
m1398 -1 l0 -10 -4 0 -5 0 -6 10 -6 10 10 0 11 0 0 -10z m301 -13 l-11 -14 6
-17 6 -16 -16 0 -16 0 0 17 0 16 18 17 17 17 4 -3 4 -4 -12 -13z m609 13 l0
-10 -11 0 -10 0 6 10 6 10 5 0 4 0 0 -10z m710 0 l0 -10 -10 0 -10 0 0 10 0
10 10 0 10 0 0 -10z m360 1 l0 -9 -69 -68 -70 -68 5 -7 5 -8 -20 -11 -21 -10
-25 -26 -25 -25 0 -5 0 -5 -37 -47 -38 -48 -19 -42 -19 -42 -8 0 -8 0 6 32 6
31 16 18 16 18 13 16 13 16 2 19 1 19 8 -5 8 -5 0 13 0 13 29 34 29 33 5 -13
6 -14 -2 25 -2 25 20 0 20 0 -2 8 -3 7 0 9 0 9 -22 -6 -21 -5 7 12 7 11 10 -5
9 -6 12 28 11 28 -1 7 -2 8 31 -4 31 -3 8 -13 8 -12 6 11 7 11 -6 10 -6 10 13
-2 13 -3 -3 19 -3 18 10 -6 10 -6 6 10 6 10 10 0 9 0 0 -9z m-3334 -13 l7 -11
-11 7 -12 7 0 -12 0 -12 -6 6 -6 6 7 10 6 11 4 0 4 0 7 -12z m2834 2 l0 -10
-4 0 -5 0 -6 10 -6 10 10 0 11 0 0 -10z m186 -45 l-11 -34 -18 16 -17 17 12 7
12 8 8 -5 8 -5 0 28 0 28 9 -13 8 -13 -11 -34z m-1483 25 l-6 -21 -5 5 -4 5 5
16 6 15 5 0 4 0 -5 -20z m30 5 l-5 -16 -5 5 -5 5 7 10 6 11 4 0 4 0 -6 -15z
m1305 1 l-13 -14 -4 3 -3 4 7 10 6 11 10 0 10 0 -13 -14z m49 8 l-6 -6 -13 5
-13 5 19 1 19 1 -6 -6z m-3351 -20 l-6 -16 0 -11 -1 -12 -10 18 -10 17 6 10 6
10 11 0 10 0 -6 -16z m3228 1 l-6 -15 -10 0 -10 0 5 -14 5 -14 -16 2 -17 1
-10 -22 -10 -23 -7 0 -8 0 0 8 0 8 42 42 41 42 3 0 3 0 -5 -15z m170 -17 l-15
-29 6 -10 6 -9 -11 2 -12 3 -19 -34 -19 -35 -15 -8 -15 -9 0 -14 0 -15 10 0
10 0 0 -20 0 -20 -9 0 -9 0 -6 38 -7 37 -6 20 -6 20 16 -13 16 -13 20 45 20
46 10 0 11 0 5 23 6 24 14 0 14 0 -15 -29z m-3202 -10 l-12 -12 0 24 0 24 12
-12 12 -12 -12 -12z m295 -16 l8 3 0 -10 0 -10 -17 -2 -17 -3 -6 20 -6 20 -10
0 -9 0 0 -10 0 -10 -10 0 -10 0 12 26 12 26 23 -26 22 -26 8 2z m1295 12 l-10
-18 1 26 2 27 9 -9 8 -8 -10 -18z m-1872 16 l0 -10 -11 0 -10 0 6 10 6 10 5 0
4 0 0 -10z m452 -37 l10 -12 -8 -12 -7 -12 -13 33 -14 32 7 12 8 11 3 -20 4
-20 10 -12z m1788 28 l0 -9 -16 -6 -17 -6 13 15 12 15 4 0 4 0 0 -9z m80 -2
l0 -11 16 6 15 6 15 -15 15 -14 -28 4 -28 3 -17 7 -18 7 6 9 5 9 10 0 9 0 0
-11z m1030 7 l0 -5 -10 -6 -10 -6 0 10 0 11 10 0 10 0 0 -4z m330 -6 l0 -10
-27 0 -28 0 15 10 15 10 13 0 12 0 0 -10z m-3568 -22 l-12 -12 0 10 0 11 7 6
6 7 6 -5 5 -5 -12 -12z m1952 -4 l4 -11 -24 -13 -24 -13 -5 4 -4 5 5 21 6 22
19 -2 18 -1 5 -12z m66 6 l0 -10 -16 0 -15 0 6 10 6 10 10 0 9 0 0 -10z
m-2082 -25 l-6 -6 -6 18 -7 18 12 -12 13 -13 -6 -5z m1918 1 l2 -16 -5 15 -4
15 -10 0 -9 0 0 -9 0 -10 -20 2 -20 1 0 3 0 4 23 9 22 9 10 -3 10 -3 1 -17z
m-1866 -2 l0 -4 -15 0 -15 0 0 10 0 9 15 -5 15 -6 0 -4z m101 -11 l-10 -18 -1
16 0 16 7 6 6 7 5 -4 4 -4 -11 -19z m1531 -13 l-42 -39 -17 6 -16 6 7 -11 7
-12 -15 0 -16 0 0 8 0 9 24 12 24 13 13 -7 12 -8 -7 11 -7 12 25 10 26 10 0
10 0 10 13 0 12 0 -43 -40z m88 16 l0 -13 -15 0 -15 0 0 3 0 2 6 16 6 16 9 -6
9 -5 0 -13z m27 -8 l-5 -13 0 25 0 25 5 -12 5 -13 -5 -12z m323 22 l0 -10 -4
0 -5 0 -6 10 -6 10 10 0 11 0 0 -10z m285 -16 l19 -14 -15 0 -15 0 -27 13 -27
12 0 8 0 8 23 -7 22 -7 20 -13z m-2288 -16 l-5 -13 0 25 0 25 5 -12 5 -13 -5
-12z m143 23 l0 -9 -6 -17 -7 -17 -7 13 -8 12 5 14 5 13 9 0 9 0 0 -9z m1580
-12 l0 -9 -10 0 -10 0 0 16 0 15 10 -6 10 -6 0 -10z m1730 14 l0 -8 -19 -24
-18 -24 -17 6 -17 7 6 10 6 10 15 0 14 0 0 15 0 15 15 0 15 0 0 -7z m-2999
-14 l20 -10 -6 -10 -6 -9 15 0 16 0 0 -17 0 -18 8 13 9 13 21 -8 22 -8 -45
-24 -45 -24 0 -7 0 -7 -30 0 -30 0 0 14 0 13 -14 0 -15 0 -6 10 -6 10 6 20 6
20 10 -6 10 -6 -3 -15 -3 -16 31 -13 32 -13 -6 21 -5 21 16 -6 16 -6 3 11 4
11 -22 24 -21 23 -12 0 -11 0 16 -25 16 -25 -16 0 -16 0 0 8 0 7 -6 23 -6 22
16 0 17 0 20 -11z m1645 -5 l-19 -13 -8 5 -9 5 0 7 0 7 27 2 28 1 -19 -14z
m1055 -37 l-11 -11 -7 7 -6 7 14 27 14 26 3 -22 4 -23 -11 -11z m-928 36 l-13
-5 -17 5 -18 5 30 0 30 0 -12 -5z m-2166 -27 l-17 -13 0 -12 0 -11 10 0 10 0
0 -30 0 -30 -10 0 -10 0 0 30 0 30 -7 0 -8 0 -13 -9 -13 -8 -2 -21 -1 -22 -2
0 -2 0 -16 6 -16 6 0 19 0 19 15 0 15 0 37 35 37 35 5 -6 6 -6 -18 -12z m125
2 l-12 -12 0 10 0 11 7 6 6 7 6 -5 5 -5 -12 -12z m113 13 l5 -10 -10 -6 -10
-6 0 15 0 16 4 0 5 0 6 -9z m1455 -11 l0 -20 -16 0 -15 0 6 -9 5 -10 -10 -6
-10 -6 0 25 0 25 18 10 17 10 3 1 2 0 0 -20z m415 14 l17 -7 -14 -8 -13 -9 -6
0 -6 0 0 15 0 15 3 0 2 0 17 -6z m855 -4 l0 -10 -10 0 -10 0 0 10 0 10 10 0
10 0 0 -10z m-680 -10 l0 -10 -4 0 -5 0 -6 10 -6 10 10 0 11 0 0 -10z m-2480
-8 l0 -7 -22 -14 -23 -14 19 22 19 21 4 0 3 0 0 -8z m1758 -10 l-18 -3 0 -15
0 -14 -10 0 -10 0 0 11 0 12 17 13 18 12 10 -6 10 -7 -17 -3z m432 8 l0 -10
-15 0 -15 0 0 10 0 10 15 0 15 0 0 -10z m929 -16 l3 -18 -16 13 -16 13 0 10 0
10 13 -4 12 -5 4 -19z m-2222 -6 l-5 -13 -1 19 -1 19 6 -6 6 -6 -5 -13z m57
16 l16 -6 -6 -9 -5 -9 -10 0 -10 0 7 11 7 11 -24 -7 -24 -6 15 10 15 11 2 0 1
0 16 -6z m138 -15 l-4 -14 -1 -17 -1 -18 -6 0 -5 0 -13 9 -14 8 15 6 15 6 -5
22 -6 22 14 -5 14 -5 -3 -14z m712 0 l-5 -9 -10 5 -9 6 0 9 0 9 15 -5 15 -6
-6 -9z m1322 -29 l14 0 0 -11 0 -11 15 12 14 12 25 -25 25 -26 -12 -4 -12 -5
28 -1 28 -1 -6 -10 -6 -10 -10 5 -9 6 0 -10 0 -11 10 0 10 0 0 -10 0 -10 -9 0
-9 0 -40 40 -39 40 -47 25 -47 25 -16 0 -17 0 19 14 19 14 29 -24 29 -24 14 0z
m334 40 l0 -10 -11 0 -10 0 6 10 6 10 5 0 4 0 0 -10z m-1509 -27 l-10 -18 -1
7 0 6 6 17 6 16 5 -5 5 -4 -11 -19z m252 -17 l-28 -25 -8 -1 -9 0 24 29 23 28
8 -4 7 -4 1 13 1 13 5 -12 5 -13 -29 -24z m962 34 l6 -10 -15 6 -16 6 0 4 0 4
9 0 10 0 6 -10z m171 -29 l5 -26 10 -18 10 -18 -6 -8 -5 -9 15 -28 15 -29 0
-12 0 -13 -8 0 -7 0 -18 40 -17 40 0 15 0 14 -22 21 -22 20 13 0 13 0 -4 24
-5 24 14 -5 13 -5 6 -27z m-2887 -11 l-23 -40 -2 3 -3 3 11 37 11 37 14 0 14
0 -22 -40z m581 30 l14 -9 -4 -4 -5 -4 -25 14 -25 13 15 0 15 0 15 -10z m570
0 l0 -9 -40 -11 -40 -11 0 -10 0 -10 -10 6 -11 7 12 14 11 14 7 -4 6 -4 25 14
25 13 8 1 7 0 0 -10z m1895 0 l6 -10 -10 0 -11 0 0 10 0 10 4 0 5 0 6 -10z
m-2772 -11 l-11 -11 5 -14 5 -14 -11 0 -11 0 0 11 0 11 -15 -6 -15 -5 0 7 0 8
28 11 27 11 5 1 4 1 -11 -11z m537 -5 l0 -4 -15 0 -15 0 0 10 0 9 15 -5 15 -6
0 -4z m520 -48 l-10 -10 0 -28 0 -28 -9 0 -9 0 3 63 3 62 1 5 1 5 15 -29 16
-29 -11 -11z m929 48 l4 -4 -10 -112 -10 -113 -43 -90 -42 -90 -44 -42 -44
-42 0 -9 0 -9 -43 -39 -43 -39 -29 -23 -30 -23 -83 -39 -82 -39 -45 -31 -45
-31 -68 -14 -67 -15 -56 0 -57 0 -4 18 -4 17 2 70 1 70 20 75 19 75 53 90 53
90 31 40 31 40 54 63 55 63 61 32 61 31 40 14 40 14 45 8 45 8 115 -5 115 -5
4 -4z m844 -4 l-5 -20 -8 0 -8 0 5 20 5 20 8 0 8 0 -5 -20z m-1840 -4 l17 -13
0 -11 0 -11 -32 10 -33 9 -4 0 -3 0 5 -20 5 -20 -9 6 -9 5 0 18 0 17 12 12 12
12 11 0 10 -1 18 -13z m295 -51 l-1 -55 -8 0 -9 0 0 15 0 15 -6 0 -7 0 -14
-17 -14 -18 6 30 7 30 10 6 10 6 -2 9 -1 9 5 19 5 18 10 -6 9 -6 0 -55z m63
32 l-11 -11 0 15 0 16 7 7 8 7 3 -11 4 -12 -11 -11z m927 7 l67 -25 25 -12 25
-12 100 -100 100 -101 35 -43 35 -43 13 -14 14 -14 18 -50 18 -49 7 -56 6 -55
-13 0 -13 0 -99 25 -100 26 -60 36 -61 36 -46 41 -46 41 -28 23 -27 22 -7 0
-7 0 -26 28 -26 27 -21 42 -21 42 -30 93 -30 92 0 13 0 13 66 0 66 0 66 -26z
m-2998 1 l0 -15 -9 0 -10 0 -5 9 -5 8 6 7 6 6 9 0 8 0 0 -15z m2142 -7 l-12
-12 0 10 0 11 7 6 6 7 6 -5 5 -5 -12 -12z m148 18 l0 -5 -10 -6 -10 -6 0 10 0
11 10 0 10 0 0 -4z m960 -17 l12 -21 -5 -5 -5 -5 -21 21 -21 21 0 5 0 5 15 0
14 0 11 -21z m-3330 4 l-1 -8 -13 -18 -13 -17 -17 6 -17 6 17 19 17 19 14 0
13 0 0 -7z m3590 -3 l0 -10 -11 0 -10 0 6 10 6 10 5 0 4 0 0 -10z m-3260 -10
l0 -10 -11 0 -10 0 6 10 6 10 5 0 4 0 0 -10z m77 -32 l-5 -13 -1 19 -1 19 6
-6 6 -6 -5 -13z m193 9 l-25 -14 -5 4 -4 4 14 9 15 10 15 0 15 0 -25 -13z
m440 -10 l75 -16 35 -3 35 -3 3 -70 2 -70 12 -22 11 -23 -12 -42 -12 -43 -32
-65 -31 -65 -42 -55 -42 -55 -43 -40 -44 -41 -35 -21 -35 -21 -80 -30 -80 -30
-70 -17 -70 -17 -100 6 -100 7 -1 2 -2 2 -4 138 -4 138 7 5 8 4 -3 28 -3 27
12 42 12 41 14 17 14 18 41 43 41 44 -21 0 -21 0 70 50 70 50 11 7 10 8 20 13
19 12 59 30 59 29 49 -1 49 0 7 7 7 7 30 -5 30 -4 75 -16z m537 7 l0 -14 -3 0
-2 0 -27 14 -28 15 30 -1 30 -1 0 -13z m46 -39 l12 -10 3 -13 2 -12 -20 12
-21 13 -5 22 -6 22 9 13 8 13 3 -25 3 -25 12 -10z m587 30 l-23 -25 9 0 9 0
-32 -20 -33 -20 0 -11 0 -12 -22 -22 -23 -23 -18 -26 -18 -26 -11 6 -10 7 7
-24 8 -24 -16 13 -15 13 4 -18 5 -19 -30 -29 -30 -30 -1 -13 0 -13 -9 5 -9 6
-7 -32 -6 -33 -5 -18 -5 -17 -9 5 -8 5 11 42 10 43 24 22 24 23 -11 20 -11 20
25 0 25 0 -5 14 -6 14 21 21 21 21 0 14 0 15 10 6 11 7 -7 -26 -6 -26 11 0 11
0 0 19 0 20 10 6 10 6 0 18 0 19 21 5 22 6 -6 21 -5 21 15 -12 15 -13 9 15 9
14 0 12 0 11 -12 5 -13 6 31 -6 32 -5 6 11 7 11 6 0 6 0 -23 -25z m-2158 -17
l-11 -11 6 24 7 23 4 -13 4 -13 -10 -10z m188 7 l0 -25 -32 0 -33 1 23 12 22
13 -12 12 -12 12 22 0 22 0 0 -25z m90 6 l0 -20 -10 -6 -10 -6 0 -20 0 -19
-11 0 -11 0 6 31 6 32 0 13 0 14 15 0 15 0 0 -19z m1340 -8 l0 -27 -10 10 -11
11 7 16 6 17 4 0 4 0 0 -27z m260 17 l0 -10 -10 0 -10 0 0 10 0 10 10 0 10 0
0 -10z m1620 -12 l0 -23 -10 15 -10 15 0 8 0 7 10 0 10 0 0 -22z m1047 -11 l2
-22 -15 19 -14 20 0 8 0 7 13 -5 13 -5 1 -22z m-4037 1 l0 -9 -17 3 -18 3 -12
-8 -13 -8 0 8 0 9 11 11 11 11 19 -5 19 -5 0 -10z m-996 -2 l19 -1 5 -12 4
-13 -10 0 -9 0 -5 -47 -5 -48 -18 -40 -19 -40 -8 -10 -7 -10 -79 -90 -80 -90
-23 -21 -24 -21 -92 -58 -93 -57 7 -11 6 -10 -11 7 -11 7 -78 -27 -78 -27
-112 -17 -113 -17 0 7 0 8 15 38 16 39 31 63 31 63 9 5 8 5 0 30 0 29 10 0 10
0 0 14 0 13 49 64 48 64 45 41 45 41 29 19 29 19 5 5 5 5 60 40 60 39 45 7 45
6 110 -4 110 -5 19 -2z m256 4 l0 -10 18 0 19 0 31 -16 31 -15 28 17 28 16
-25 -21 -25 -21 10 -1 10 -1 8 1 8 1 30 -21 30 -21 32 -29 31 -29 21 0 20 0
-13 -9 -13 -8 16 -13 15 -12 0 -21 0 -20 7 6 6 7 18 -30 19 -30 15 0 16 0 -5
-9 -6 -9 25 -36 25 -37 0 -9 0 -9 28 -16 27 -16 0 -77 0 -77 9 -74 9 -74 -54
5 -54 4 -67 32 -66 31 -29 7 -28 7 -36 23 -36 22 -56 59 -56 59 -33 44 -34 45
-22 45 -21 45 -31 66 -30 66 -20 64 -20 64 0 19 0 18 33 -5 32 -6 55 8 55 9 8
1 7 1 0 -10z m105 0 l6 -10 -8 0 -8 0 -15 10 -15 10 17 0 17 0 6 -10z m92 -12
l-5 -13 -1 19 -1 19 6 -6 6 -6 -5 -13z m653 7 l-12 -15 -11 0 -11 0 20 15 19
14 4 1 3 0 -12 -15z m814 -26 l61 -43 58 -55 58 -56 37 -50 37 -49 1 -29 2
-28 21 -23 21 -22 0 -12 0 -12 9 0 10 0 29 -62 30 -63 10 -50 11 -50 5 -37 5
-38 -23 0 -23 0 -101 28 -101 29 -53 41 -53 41 -35 34 -35 35 -30 36 -29 35
-16 -12 -15 -12 14 18 14 18 -25 27 -25 27 -22 38 -23 37 6 0 6 0 -15 24 -16
24 -5 23 -6 24 -8 45 -9 45 0 55 -1 56 81 2 82 3 61 -42z m1386 20 l0 -9 -15
0 -15 0 0 8 0 9 6 6 7 6 8 -5 9 -5 0 -10z m505 -31 l0 -6 8 -8 7 -7 0 -17 0
-16 21 -22 20 -22 10 5 9 6 1 -18 1 -18 -1 -7 -1 -8 15 0 16 0 5 15 6 15 8 0
8 0 -11 -30 -11 -30 11 -11 11 -11 0 27 0 27 13 9 14 8 -12 19 -11 19 8 12 7
13 7 -33 6 -33 -11 -57 -11 -58 -24 35 -24 35 0 5 0 5 -56 52 -56 52 -20 27
-19 28 16 -6 16 -6 14 -27 14 -26 1 17 0 16 -24 29 -23 28 5 13 4 13 16 -23
17 -23 0 -7z m-2938 36 l-6 -6 -13 5 -13 5 19 1 19 1 -6 -6z m1507 -24 l-6
-30 7 0 8 0 12 17 12 16 15 -13 15 -14 -26 -22 -26 -22 -12 10 -13 10 0 -35 0
-36 27 -20 26 -21 -6 -7 -7 -6 -20 18 -20 18 -26 -12 -25 -11 -10 6 -9 5 5 10
6 9 22 0 21 0 -12 12 -12 12 0 18 0 18 12 -2 12 -3 6 40 6 40 7 13 8 12 4 0 5
0 -6 -30z m64 -1 l-4 -13 -7 23 -6 24 11 -11 10 -10 -4 -13z m1522 -9 l0 -30
-9 0 -9 0 -6 16 -6 17 11 13 11 14 4 0 4 0 0 -30z m-3497 -9 l28 -18 -13 -5
-13 -5 -18 6 -18 7 1 8 2 9 -14 8 -13 9 15 0 15 0 28 -19z m401 4 l-6 -15 -7
0 -6 0 -13 -30 -14 -30 -8 5 -8 5 15 31 16 31 -14 9 -14 9 32 0 32 0 -5 -15z
m1286 5 l0 -10 -4 0 -5 0 -6 10 -6 10 10 0 11 0 0 -10z m1165 1 l5 -10 -8 -5
-9 -5 0 14 0 15 3 0 3 0 6 -9z m-2655 -5 l0 -5 -9 -6 -10 -5 -6 10 -6 10 15 0
16 0 0 -4z m1845 -6 l6 -10 -15 6 -16 6 0 4 0 4 9 0 10 0 6 -10z m-1585 -7 l0
-6 -25 -33 -25 -32 -12 -14 -13 -13 -34 -39 -33 -39 7 24 8 24 46 55 46 55 10
12 10 12 8 1 7 0 0 -7z m97 1 l-6 -6 -13 5 -13 5 19 1 19 1 -6 -6z m1125 -44
l9 0 -7 -11 -6 -11 -29 28 -29 28 0 9 0 10 26 -27 27 -26 9 0z m188 35 l0 -15
-10 0 -10 0 0 15 0 15 10 0 10 0 0 -15z m-1653 -17 l-5 -13 -1 19 -1 19 6 -6
6 -6 -5 -13z m1476 15 l-13 -5 -12 5 -13 5 25 0 25 0 -12 -5z m-1633 -23 l15
-10 -22 0 -23 0 0 10 0 10 8 0 7 0 15 -10z m1700 -12 l0 -10 -15 12 -15 12 0
4 0 3 15 -5 15 -6 0 -10z m-2189 -61 l-11 -11 1 45 1 44 10 -34 9 -34 -10 -10z
m3869 63 l0 -10 -10 0 -10 0 0 10 0 10 10 0 10 0 0 -10z m1458 0 l12 0 0 -9 0
-9 -32 3 -32 2 -4 13 -5 13 24 -6 24 -7 13 0z m206 -6 l6 -15 -10 6 -10 6 0
10 0 9 4 0 4 0 6 -16z m-4974 -4 l0 -10 -10 0 -10 0 0 10 0 10 10 0 10 0 0
-10z m4820 -4 l0 -5 -9 -6 -10 -5 -6 10 -6 10 15 0 16 0 0 -4z m-4760 -21 l0
-15 -10 0 -10 0 0 15 0 15 10 0 10 0 0 -15z m1548 -23 l37 -39 3 -21 3 -22 -4
0 -5 0 -29 45 -28 45 -6 0 -7 0 -6 15 -5 15 5 0 6 0 36 -38z m252 28 l0 -10
-4 0 -5 0 -6 10 -6 10 10 0 11 0 0 -10z m120 6 l0 -4 -16 -6 -15 -6 6 10 6 10
10 0 9 0 0 -4z m-310 -21 l0 -15 -10 0 -10 0 0 15 0 15 10 0 10 0 0 -15z m140
5 l0 -10 -10 0 -10 0 0 10 0 10 10 0 10 0 0 -10z m3075 0 l-6 -10 -12 0 -12 0
15 10 15 10 3 0 3 0 -6 -10z m-5408 -22 l-5 -13 -1 19 -1 19 6 -6 6 -6 -5 -13z
m5510 10 l10 -13 18 -45 17 -45 0 -113 -1 -113 -16 -57 -17 -57 -10 -35 -11
-35 -41 -84 -41 -85 -51 -55 -52 -56 -58 -43 -59 -43 -50 -33 -50 -33 -21 -7
-20 -6 -15 82 -14 83 2 15 2 15 6 90 5 90 6 35 6 35 58 120 59 121 51 59 51
60 50 58 51 57 51 24 52 25 11 0 12 1 9 -12z m-173 -32 l-6 -17 -39 -19 -38
-20 -6 0 -5 0 0 10 0 10 18 0 17 0 29 30 28 31 4 -4 4 -4 -6 -17z m-5315 -21
l3 -19 -16 16 -16 17 0 6 0 7 13 -4 12 -5 4 -18z m566 15 l6 -10 -20 0 -21 0
0 10 0 10 14 0 15 0 6 -10z m39 -6 l6 -15 -10 6 -10 6 0 10 0 9 4 0 4 0 6 -16z
m1601 -4 l6 -10 -15 0 -15 0 -6 10 -6 10 15 0 15 0 6 -10z m-115 -10 l0 -9
-15 5 -15 6 0 4 0 4 15 0 15 0 0 -10z m-1515 -10 l-6 -10 -10 5 -9 6 0 -20 0
-21 -15 0 -15 0 0 4 0 4 -6 15 -6 15 24 5 23 4 13 2 13 1 -6 -10z m78 -10 l-6
-21 -5 5 -4 5 5 16 6 15 5 0 4 0 -5 -20z m1543 -13 l7 -7 -19 0 -19 -1 17 -10
17 -10 -6 -14 -5 -15 13 3 14 4 -7 -4 -8 -5 0 -9 0 -9 15 0 15 0 0 -17 0 -17
-35 34 -34 35 -1 27 0 26 15 -2 14 -2 7 -7z m55 -8 l-4 -14 0 -28 0 -29 -12
22 -12 22 3 21 2 22 1 3 1 4 13 -5 12 -4 -4 -14z m-1624 -11 l-5 -13 -1 19 -1
19 6 -6 6 -6 -5 -13z m1503 18 l0 -5 -10 -6 -10 -6 0 10 0 11 10 0 10 0 0 -4z
m-1460 -32 l0 -25 -9 5 -9 6 -6 -34 -7 -34 -14 -12 -15 -12 0 16 0 16 10 0 10
0 0 15 0 15 -15 0 -15 0 0 9 0 10 -15 15 -15 15 19 -2 20 -1 12 -18 13 -17 13
29 12 30 6 0 5 0 0 -26z m2674 1 l5 -15 -9 0 -10 0 0 15 0 15 4 0 4 0 6 -15z
m-3310 -31 l5 -14 -13 0 -14 0 -5 19 -5 20 13 -6 13 -5 6 -14z m3354 -9 l22
-25 -21 0 -20 0 6 10 6 10 -10 0 -11 0 0 15 0 15 3 0 3 0 22 -25z m-1045 0
l-5 -16 -5 5 -5 5 7 10 6 11 4 0 4 0 -6 -15z m-713 -25 l0 -10 -4 0 -5 0 -6
10 -6 10 10 0 11 0 0 -10z m1815 0 l6 -10 -15 6 -16 6 0 4 0 4 9 0 10 0 6 -10z
m-108 -22 l-5 -13 -1 19 -1 19 6 -6 6 -6 -5 -13z m-2631 -38 l1 -30 -6 0 -6 0
-11 8 -11 7 8 23 8 22 8 0 8 0 1 -30z m950 -2 l-4 22 10 -6 10 -6 -6 -23 -6
-23 14 -11 14 -12 4 8 5 8 -4 -14 -3 -14 11 -13 11 -14 9 5 8 5 -2 -20 -1 -20
-28 33 -28 32 -10 12 -10 12 0 11 0 10 -9 0 -9 0 -6 16 -6 16 6 10 7 11 14
-29 13 -29 -4 23z m3458 15 l-6 -18 -11 -22 -10 -23 -9 0 -8 0 20 40 20 40 5
0 4 0 -5 -17z m-2100 -42 l-27 -26 15 25 14 25 9 15 9 14 4 -13 4 -13 -28 -27z
m-762 15 l5 -23 -13 -17 -12 -18 2 34 3 33 2 8 1 7 4 0 4 0 4 -24z m-745 -58
l-5 -13 -1 19 -1 19 6 -6 6 -6 -5 -13z m247 -3 l5 -15 -9 0 -10 0 0 15 0 15 4
0 4 0 6 -15z m-1057 -47 l-5 -13 -1 19 -1 19 6 -6 6 -6 -5 -13z m1098 2 l6
-10 -10 0 -11 0 0 10 0 10 4 0 5 0 6 -10z m2730 -67 l140 -56 50 -35 50 -36
61 -60 60 -61 23 -33 23 -32 7 -105 8 -104 13 -16 13 -15 -6 -6 -5 -6 -74 -19
-73 -19 -76 -6 -76 -7 -64 12 -65 11 -121 45 -122 45 -45 25 -44 25 -55 57
-54 58 -47 55 -47 55 -18 20 -19 20 -11 53 -11 53 0 48 0 47 69 1 68 1 69 18
69 17 55 8 55 7 30 -4 30 -4 140 -57z m-4520 47 l6 -10 -16 0 -16 0 6 10 6 10
4 0 4 0 6 -10z m-468 -16 l-6 -6 -13 5 -13 5 19 1 19 1 -6 -6z m1993 -14 l0
-10 -11 0 -10 0 6 10 6 10 5 0 4 0 0 -10z m-140 -10 l0 -10 -10 0 -10 0 0 10
0 10 10 0 10 0 0 -10z m2507 -2 l-2 -13 8 -80 8 -80 -25 -85 -25 -85 -20 -45
-20 -45 -27 -45 -26 -45 -21 -22 -20 -23 -11 0 -11 0 -10 -22 -10 -22 -60 -43
-60 -43 -35 -16 -35 -16 -70 -25 -70 -25 -10 -9 -9 -9 -23 0 -22 0 4 63 5 62
5 75 5 75 31 85 31 85 15 59 14 59 20 26 20 26 32 39 32 40 36 37 36 37 34 21
34 21 126 0 127 0 -1 -12z m-3192 -8 l6 -10 -10 0 -11 0 0 10 0 10 4 0 5 0 6
-10z m620 -45 l-40 -34 -9 -1 -8 0 31 29 32 30 12 4 12 5 5 1 5 1 -40 -35z
m-1905 16 l0 -9 -22 -7 -23 -7 -29 -5 -28 -4 7 10 6 11 24 0 24 0 6 10 6 10
15 0 14 0 0 -9z m2438 -27 l-7 -6 -10 7 -11 6 0 17 0 16 17 -17 17 -17 -6 -6z
m1672 22 l0 -5 -9 -6 -10 -5 -6 10 -6 10 15 0 16 0 0 -4z m-3927 -13 l-13 -5
-12 5 -13 5 25 0 25 0 -12 -5z m1977 3 l0 -5 -10 -6 -10 -6 0 10 0 11 10 0 10
0 0 -4z m-2023 -12 l-6 -6 -13 5 -13 5 19 1 19 1 -6 -6z m819 -51 l-4 -5 -26
17 -26 17 0 10 0 9 31 -21 30 -22 -5 -5z m2279 29 l-5 -6 -13 13 -12 12 18 -7
18 -6 -6 -6z m-3375 -1 l0 -9 -17 -7 -18 -6 -3 9 -3 10 -22 -4 -22 -4 20 9 20
10 23 0 22 1 0 -9z m2665 -9 l-5 -6 -13 13 -12 12 18 -7 18 -6 -6 -6z m-2565
4 l0 -5 -9 -6 -10 -5 -6 10 -6 10 15 0 16 0 0 -4z m30 -16 l0 -10 -10 0 -10 0
0 10 0 10 10 0 10 0 0 -10z m-195 -30 l100 -12 153 -61 154 -60 75 -49 75 -49
62 -62 61 -62 30 -39 30 -40 11 -11 11 -11 19 -34 18 -35 3 -135 2 -135 -17
-7 -17 -7 -41 0 -41 -1 -54 9 -54 10 -70 11 -70 11 -45 16 -45 16 -90 42 -90
42 -68 73 -68 74 -53 80 -52 81 -22 45 -21 45 -12 60 -11 60 -9 40 -8 40 -1
38 0 37 28 -4 27 -4 100 -12z m1235 5 l12 -15 -23 1 -24 1 14 5 13 5 -13 9
-14 9 11 0 12 0 12 -15z m783 8 l-13 -5 -12 5 -13 5 25 0 25 0 -12 -5z m802
-22 l-4 -3 -26 6 -26 7 6 8 5 9 24 -11 25 -12 -4 -4z m-2068 13 l-6 -6 -13 5
-13 5 19 1 19 1 -6 -6z m-532 -24 l6 -10 -16 0 -16 0 6 10 6 10 4 0 4 0 6 -10z
m2462 4 l-6 -6 -13 5 -13 5 19 1 19 1 -6 -6z m-818 -40 l-11 -14 -9 6 -9 5 13
13 12 14 8 -5 8 -5 -12 -14z m485 -6 l10 -7 -7 -8 -8 -7 -9 14 -10 15 1 15 1
15 5 -15 6 -15 11 -7z m1236 7 l99 -24 33 -17 33 -17 70 -49 70 -49 38 -47 39
-47 25 -55 25 -55 14 -65 13 -65 -5 -65 -6 -65 -6 -6 -7 -6 -90 -16 -90 -17
-22 0 -22 0 -81 26 -81 25 -62 36 -62 36 -5 7 -5 7 -78 57 -78 58 -6 14 -5 14
-19 0 -20 0 -42 43 -42 42 -27 40 -28 40 -34 80 -34 80 -7 23 -6 22 88 1 88 0
45 19 45 19 73 0 73 1 99 -25z m-2188 9 l46 -6 -6 -107 -5 -106 -49 -105 -50
-105 -36 -50 -35 -50 -26 -28 -26 -29 -95 -45 -95 -46 -75 -27 -75 -28 -20 -8
-20 -8 13 17 13 16 -7 104 -7 104 33 94 33 94 43 66 43 66 58 56 58 56 34 26
35 25 33 6 33 6 6 9 5 9 48 0 48 0 45 -6z m1559 -11 l49 -18 0 -30 0 -31 -34
-86 -35 -85 -23 -39 -22 -39 -11 -11 -10 -11 -32 -36 -32 -36 -48 -27 -48 -27
-45 -27 -45 -28 -86 -44 -85 -44 2 130 3 131 16 60 16 59 12 16 13 15 13 27
14 27 39 40 40 40 77 38 76 38 62 0 61 0 -4 7 -5 8 12 0 11 0 49 -17z m-2561
-10 l0 -18 -8 10 -7 10 -9 8 -9 7 16 0 17 0 0 -17z m1400 -20 l65 -14 65 -14
66 -13 59 -27 60 -27 35 -16 35 -16 25 -19 25 -18 48 -42 48 -41 31 -49 31
-48 -7 -97 -7 -97 -7 -33 -7 -33 -95 -4 -96 -5 -84 25 -84 25 -13 0 -14 0 -72
30 -72 30 -27 22 -27 23 -33 25 -33 25 -40 36 -40 36 -23 12 -24 13 -24 54
-24 55 0 32 0 33 -9 10 -9 9 -5 67 -4 67 4 5 4 4 107 -5 107 -5 65 -15z m877
11 l-6 -6 -13 5 -13 5 19 1 19 1 -6 -6z m-2234 -11 l-13 -5 -12 5 -13 5 25 0
25 0 -12 -5z m1620 -13 l54 -20 29 -26 29 -26 -10 4 -10 4 -67 32 -68 32 -27
1 -28 0 20 9 20 9 2 0 2 1 54 -20z m397 -2 l0 -23 -9 15 -10 14 5 8 5 8 5 0 4
0 0 -22z m-1951 -25 l40 -28 5 -12 5 -12 -15 6 -14 5 0 9 0 9 -11 0 -11 0 -30
25 -30 25 11 0 11 0 39 -27z m1975 -12 l6 -9 -20 5 -20 5 0 4 0 4 14 0 15 0 5
-9z m-989 -11 l6 -10 -16 0 -16 0 6 10 6 10 4 0 4 0 6 -10z m994 -76 l-23 -38
-4 14 -5 14 12 4 11 4 0 12 0 12 12 12 12 12 4 -5 4 -4 -23 -37z m-1889 26 l0
-10 -4 0 -5 0 -6 10 -6 10 10 0 11 0 0 -10z m897 -62 l-5 -13 -1 19 -1 19 6
-6 6 -6 -5 -13z m833 2 l0 -10 -10 0 -10 0 0 10 0 10 10 0 10 0 0 -10z m-1503
-92 l-5 -13 -1 19 -1 19 6 -6 6 -6 -5 -13z m1603 -288 l-7 -41 -7 -6 -6 -6 0
20 0 21 6 31 6 31 8 -5 7 -5 -7 -40z m280 43 l0 -2 -31 -17 -31 -16 -12 13
-11 12 13 -7 12 -7 6 14 5 15 25 -2 24 -1 0 -2z m-615 -103 l20 -9 -27 2 -27
3 -7 7 -7 7 14 -1 14 0 20 -9z m52 -16 l-6 -6 -13 5 -13 5 19 1 19 1 -6 -6z
m159 -15 l5 -9 -30 0 -31 0 0 9 0 9 25 0 25 0 6 -9z m1614 -29 l0 -9 -15 5
-15 6 0 4 0 4 15 0 15 0 0 -10z"/>
<path d="M5228 3623 l13 -5 6 6 6 6 -19 -1 -19 -1 13 -5z"/>
<path d="M5096 1808 l-5 -23 11 -10 11 -10 -6 17 -6 16 15 6 15 6 -6 10 -6 10
-8 0 -9 0 -6 -22z"/>
<path d="M3320 1369 l0 -10 10 6 10 6 0 5 0 4 -10 0 -10 0 0 -11z"/>
<path d="M5928 133 l12 -5 13 5 12 5 -25 0 -25 0 13 -5z"/>
<path d="M5988 133 l13 -5 6 6 6 6 -19 -1 -19 -1 13 -5z"/>
</g>
</svg>
