<?xml version="1.0" standalone="no"?>
<!DOCTYPE svg PUBLIC "-//W3C//DTD SVG 20010904//EN"
 "http://www.w3.org/TR/2001/REC-SVG-20010904/DTD/svg10.dtd">
<svg version="1.0" xmlns="http://www.w3.org/2000/svg"
   viewBox="0 0 126.000000 125.000000"
 preserveAspectRatio="xMidYMid meet">
<metadata>
Created by potrace 1.16, written by Peter Selinger 2001-2019
</metadata>
<g transform="translate(0.000000,125.000000) scale(0.100000,-0.100000)"
fill="#006400" stroke="none">
<path d="M3 1073 l2 -178 45 -122 45 -123 13 0 12 0 0 11 0 10 -19 42 -20 43
-26 69 -26 70 -6 66 -6 66 7 47 7 47 57 26 57 26 43 35 43 34 -5 5 -5 5 -16
-16 -16 -16 -15 0 -14 0 0 15 0 15 -80 0 -79 0 2 -177z"/>
<path d="M450 1236 l-24 -11 -71 -36 -70 -36 0 -19 0 -19 15 -3 15 -2 50 34
50 35 48 32 47 31 0 4 0 4 -17 -1 -18 -1 -25 -12z"/>
<path d="M1050 1230 l11 -20 14 0 15 0 0 8 0 8 -12 12 -12 12 -13 0 -14 0 11
-20z"/>
<path d="M522 1162 l-60 -78 -18 -15 -17 -14 -29 -39 -28 -39 0 -14 0 -13 8 0
8 0 16 28 17 27 34 38 35 37 21 0 21 0 10 -25 9 -25 5 -110 5 -110 10 -19 11
-19 41 -36 42 -35 -27 -11 -27 -10 -9 0 -10 0 -16 -25 -16 -25 -12 0 -12 0
-32 -43 -33 -42 -27 -57 -26 -58 -11 0 -10 0 -19 40 -19 39 -13 5 -14 5 -15
-5 -15 -6 0 -18 0 -17 37 -39 37 -39 -70 -8 -69 -7 -56 -10 -55 -10 -37 0 -36
0 -6 10 -6 10 22 40 23 40 8 0 8 0 0 15 0 15 -12 0 -13 0 -27 -38 -27 -38 -6
-26 -7 -26 23 -16 23 -16 38 0 37 0 48 9 48 10 93 5 93 6 11 -28 11 -27 9 -40
9 -40 10 -54 10 -55 -11 -50 -11 -49 11 -11 10 -10 45 22 45 22 0 11 0 11 -20
-6 -20 -6 -17 -6 -18 -5 3 81 4 82 -11 27 -10 26 -6 30 -6 31 35 12 36 13 27
27 28 27 36 18 36 19 36 47 36 47 22 66 22 66 61 12 61 13 35 3 35 3 75 15 75
14 4 -4 5 -5 -11 -52 -11 -52 7 -8 8 -8 11 13 10 13 0 8 0 7 7 43 6 42 21 65
20 65 10 13 10 12 19 0 19 0 6 26 7 26 -16 34 -17 34 -17 0 -18 0 -11 -8 -11
-7 -7 -82 -6 -81 -14 -34 -15 -34 -118 -18 -118 -18 -42 -9 -42 -9 -15 0 -16
0 0 30 0 30 -26 -10 -25 -10 -31 0 -30 0 -29 21 -29 20 -11 21 -11 21 -8 116
-7 116 -13 28 -13 27 -13 0 -13 0 -5 8 -4 8 44 53 44 53 0 9 0 9 -9 0 -9 0
-60 -78z"/>
<path d="M814 826 l-36 -36 4 -17 3 -18 15 -2 15 -3 38 34 37 35 0 10 0 10
-20 11 -21 11 -35 -35z"/>
<path d="M1223 593 l-23 -15 0 -14 0 -13 30 -21 30 -21 0 12 0 12 -16 19 -17
18 17 6 16 6 0 14 0 14 -7 -1 -8 0 -22 -16z"/>
<path d="M0 525 l1 -30 10 18 11 19 -11 11 -11 11 0 -29z"/>
<path d="M1146 322 l-5 -9 14 -20 15 -21 45 -4 45 -3 0 17 0 18 -29 -6 -29 -6
-21 21 -21 21 -4 0 -5 0 -5 -8z"/>
<path d="M1208 187 l-45 -49 -20 13 -20 12 -18 -7 -18 -7 17 -17 17 -17 15
-20 15 -20 17 25 17 25 38 42 39 42 -5 13 -4 13 -45 -48z"/>
<path d="M0 113 l1 -38 19 24 20 24 -11 13 -11 14 -9 0 -9 0 0 -37z"/>
</g>
</svg>
