<?xml version="1.0" standalone="no"?>
<!DOCTYPE svg PUBLIC "-//W3C//DTD SVG 20010904//EN"
 "http://www.w3.org/TR/2001/REC-SVG-20010904/DTD/svg10.dtd">
<svg version="1.0" xmlns="http://www.w3.org/2000/svg"
   viewBox="0 0 83.000000 105.000000"
 preserveAspectRatio="xMidYMid meet">
<metadata>
Created by potrace 1.16, written by Peter Selinger 2001-2019
</metadata>
<g transform="translate(0.000000,105.000000) scale(0.100000,-0.100000)"
fill="#9E1A1A" stroke="none">
<path d="M10 1040 l-15 -10 40 -35 40 -34 13 4 13 5 -5 -9 -6 -8 24 -24 24
-24 25 -22 25 -23 18 0 18 0 -11 -11 -12 -12 -24 7 -25 6 -31 26 -31 25 -10
-6 -10 -6 0 -15 0 -14 46 -30 46 -29 29 6 28 5 6 -38 6 -39 30 -60 29 -60 43
-81 43 -80 21 -30 20 -29 38 -80 37 -80 35 -42 34 -42 -26 -54 -25 -54 0 -22
0 -22 21 3 22 3 20 53 20 54 38 24 37 23 7 11 6 10 18 0 18 0 31 -16 32 -15 5
-10 6 -9 15 0 14 0 0 18 0 19 -17 15 -18 16 -37 13 -38 13 0 32 0 33 -82 86
-83 87 -55 103 -55 104 -35 41 -34 42 -12 35 -12 35 -21 22 -21 22 0 10 1 9
29 35 30 34 0 24 0 23 -17 -3 -17 -3 -23 -40 -24 -40 -8 -15 -9 -14 -16 13
-16 13 0 37 0 37 -21 23 -21 23 -11 -11 -11 -11 17 -35 17 -36 0 -14 0 -15 -8
0 -8 0 -71 70 -70 70 -9 0 -9 0 -15 -10z"/>
<path d="M760 1028 l22 -23 23 -45 24 -45 1 48 0 48 -10 20 -11 19 -35 0 -35
0 21 -22z"/>
<path d="M523 1004 l-6 -16 14 -9 14 -9 16 0 17 0 35 -15 36 -15 36 -31 35
-31 0 -14 0 -14 -38 0 -38 0 -30 31 -29 31 -40 27 -41 27 -12 -4 -12 -4 0 -13
0 -12 38 -25 37 -26 41 -38 42 -39 10 -35 9 -36 29 -50 29 -51 58 -63 57 -63
0 161 0 162 -25 0 -25 0 -18 37 -17 38 -30 28 -30 29 -50 29 -50 29 -28 0 -28
0 -6 -16z"/>
<path d="M0 508 l0 -142 39 -81 39 -80 12 -75 12 -75 10 -27 10 -28 94 0 94 0
0 19 0 19 -26 78 -27 79 -22 30 -22 30 -27 48 -27 47 7 11 6 11 -12 46 -13 47
-8 10 -9 9 0 16 0 17 -65 66 -65 66 0 -141z"/>
</g>
</svg>
