<?xml version="1.0" standalone="no"?>
<!DOCTYPE svg PUBLIC "-//W3C//DTD SVG 20010904//EN"
 "http://www.w3.org/TR/2001/REC-SVG-20010904/DTD/svg10.dtd">
<svg version="1.0" xmlns="http://www.w3.org/2000/svg"
 viewBox="0 0 263.000000 357.000000"
 preserveAspectRatio="xMidYMid meet">
<metadata>
Created by potrace 1.16, written by Peter Selinger 2001-2019
</metadata>
<g transform="translate(0.000000,357.000000) scale(0.100000,-0.100000)"
fill="currentColor" stroke="none">
<path d="M170 3530 l-12 -30 5 -15 6 -14 -10 -7 -11 -6 -39 32 -40 32 -15 -6
-15 -6 10 -18 10 -19 56 -42 55 -42 0 -9 0 -9 -17 -5 -18 -6 -47 1 -48 2 -14
-12 -14 -12 5 -20 5 -19 32 4 31 5 56 6 56 6 25 -38 26 -38 49 -50 50 -50 37
-25 37 -25 22 -20 22 -20 58 -45 58 -45 52 -37 52 -37 11 0 11 -1 22 -24 23
-24 -7 -79 -6 -78 -10 -90 -10 -90 -10 -55 -11 -55 -41 -90 -42 -90 1 -167 1
-166 18 -74 17 -73 23 -65 23 -65 12 -27 13 -27 -29 -36 -29 -35 -27 -33 -27
-33 -45 -87 -46 -87 0 -48 0 -47 15 -55 15 -55 0 -82 0 -83 15 0 15 0 16 38
16 37 8 25 8 25 27 90 26 89 -4 18 -5 18 9 -6 9 -5 0 14 0 14 26 64 26 64 18
18 18 19 25 -14 26 -13 29 -40 28 -40 22 -85 22 -85 -15 -85 -14 -85 -21 -65
-21 -64 -4 -53 -5 -53 13 0 14 0 35 92 36 93 25 70 24 70 22 71 21 70 0 72 0
71 -31 78 -30 78 -32 39 -31 39 25 16 24 16 28 29 27 28 6 24 6 23 -24 43 -23
43 -15 0 -15 0 3 -30 4 -30 11 -14 11 -13 -56 -54 -56 -54 -17 6 -16 7 6 16 7
16 8 45 9 45 11 70 12 70 47 195 46 195 0 230 0 230 -31 57 -32 57 38 25 38
25 73 85 73 86 12 0 13 0 21 -27 22 -28 13 -33 14 -32 68 -86 68 -86 38 -51
37 -52 41 -58 41 -58 -14 -17 -15 -17 -16 -45 -16 -45 -16 -165 -16 -165 -9
-35 -9 -35 -15 -90 -15 -90 -21 -65 -21 -65 -20 -100 -20 -100 -8 -122 -7
-122 -46 -69 -46 -69 -43 -109 -42 -109 -7 -10 -7 -10 -21 -60 -20 -60 -6 -35
-7 -35 -19 -45 -19 -45 -41 -120 -41 -120 -23 -60 -23 -61 -36 -57 -37 -58
-16 -6 -16 -6 -30 17 -29 18 -25 -6 -24 -6 0 -19 0 -18 29 -41 30 -40 20 -7
21 -6 24 18 24 18 13 20 13 20 51 85 51 85 32 70 33 70 46 90 45 90 26 35 26
35 27 30 27 30 112 117 113 117 14 -15 15 -14 31 -17 32 -16 36 -31 36 -31 20
-16 21 -17 44 -26 45 -26 15 0 15 0 49 -25 49 -25 26 5 25 6 80 -87 79 -87 45
-42 45 -42 68 -57 68 -57 47 -14 47 -13 37 -6 37 -7 76 36 76 36 11 25 11 24
-11 25 -12 25 -25 0 -26 0 -29 -15 -30 -16 0 -12 0 -13 -20 -17 -20 -17 -24
10 -25 9 -39 59 -39 59 -34 45 -34 46 -65 45 -65 44 -22 7 -22 7 -5 17 -5 17
-6 35 -7 35 -24 47 -24 46 -48 59 -48 58 -16 35 -16 35 -7 48 -7 47 9 0 9 0
20 18 20 17 37 19 37 19 39 33 39 34 6 26 7 25 -12 37 -12 37 -10 27 -9 28
-29 46 -29 45 -27 -3 -27 -3 -19 -33 -19 -32 10 -13 10 -12 26 -48 25 -48 -6
-14 -5 -15 -36 -22 -37 -22 -12 -17 -12 -16 -61 -22 -62 -23 -6 6 -6 6 18 38
19 37 39 115 39 115 18 70 19 70 7 55 6 55 16 55 16 55 1 130 1 131 -23 28
-22 29 1 16 0 16 9 -20 8 -20 7 18 7 17 -5 28 -5 27 -6 30 -6 30 -6 30 -6 30
-17 30 -18 30 -6 34 -7 34 26 56 26 56 28 55 27 55 18 55 18 55 22 45 23 45
23 75 22 75 11 59 12 59 49 14 50 15 22 9 22 8 17 26 17 26 -20 27 -20 27 -19
10 -19 10 -13 8 -13 9 15 24 16 23 0 26 0 26 -17 -3 -17 -3 -23 -40 -22 -40
-8 5 -8 5 -1 13 -2 13 -16 25 -16 24 -30 0 -29 0 -10 -18 -10 -19 6 -24 5 -24
29 -36 28 -37 6 -24 6 -25 -16 -89 -16 -89 -15 -50 -16 -50 -30 -75 -30 -75
-22 -60 -23 -60 -51 -106 -50 -107 -40 11 -40 11 -13 45 -12 46 -33 79 -33 79
16 30 16 31 5 62 5 62 -26 56 -26 55 -33 21 -33 20 -37 0 -37 0 -46 -22 -46
-22 -24 -42 -25 -43 0 -33 0 -33 19 -31 19 -32 34 -25 33 -25 50 -20 50 -20
32 -46 32 -47 7 -37 6 -37 20 -28 19 -28 -11 -15 -12 -14 -24 0 -23 0 -6 -10
-6 -10 -9 0 -8 0 -23 38 -23 37 -67 90 -66 90 -37 45 -37 45 -16 19 -16 19
-18 43 -19 42 -30 26 -30 25 0 15 0 15 10 6 10 6 48 72 48 72 32 63 32 64 0
14 0 14 -19 0 -19 0 -36 -72 -35 -73 -24 -42 -24 -42 -31 -35 -31 -35 -37 57
-37 57 -25 27 -24 27 12 63 12 63 5 28 5 27 -16 0 -15 0 -11 -19 -10 -20 0
-20 0 -20 -11 -28 -10 -28 -11 20 -11 20 -28 32 -27 32 -7 20 -6 21 -19 0 -19
0 11 -32 12 -33 48 -58 48 -58 0 -8 0 -9 -31 -4 -31 -5 -17 17 -16 17 -32 17
-32 16 -24 0 -24 0 -20 -17 -20 -18 -2 -63 -2 -62 25 -56 26 -56 30 -11 31
-12 -7 -40 -6 -40 -10 -12 -10 -13 -27 0 -28 0 -22 24 -23 25 -57 26 -56 27
-45 37 -45 37 -52 33 -53 33 -42 51 -43 52 -15 19 -15 19 -32 37 -33 37 0 71
0 70 -6 16 -6 16 -8 0 -8 0 -12 -30z m115 -260 l6 -10 -10 0 -11 0 0 10 0 10
4 0 5 0 6 -10z m730 -55 l21 -13 42 -62 42 -63 -23 -31 -22 -31 -76 -77 -76
-78 -25 0 -25 0 -12 24 -13 24 12 54 13 53 20 45 21 45 0 60 1 60 10 7 10 8
30 -6 30 -6 20 -13z m-198 -387 l10 -13 30 -90 30 -90 12 -76 12 -76 -6 -164
-5 -164 -15 -95 -15 -95 -15 -70 -14 -70 -15 -80 -14 -80 -7 -37 -6 -38 -21
-11 -21 -11 -8 13 -9 14 -26 80 -27 80 -9 40 -8 40 -9 144 -9 144 8 53 9 54
27 53 26 52 14 45 13 45 20 150 21 149 0 58 0 58 9 0 9 0 9 -12z m88 -127 l5
-10 -10 -6 -10 -6 0 15 0 16 4 0 5 0 6 -9z m715 -256 l29 -15 12 -40 12 -40
-16 -73 -17 -72 -15 -150 -16 -150 -25 -115 -25 -115 -16 -62 -15 -62 -18 -16
-19 -17 -25 -63 -25 -63 -10 -63 -10 -64 -6 -47 -6 -48 -7 0 -7 0 -19 35 -19
34 6 37 6 36 -14 15 -15 14 0 44 0 43 15 78 15 79 11 55 11 55 25 75 24 75 10
75 10 75 9 30 9 30 17 155 17 155 18 42 19 41 12 5 13 5 8 1 8 1 29 -15z m219
-12 l11 -28 15 -80 16 -80 6 -155 6 -155 -21 -100 -20 -100 -7 -45 -8 -45 -24
-80 -23 -80 -46 -120 -45 -120 -12 -15 -12 -15 -25 -16 -25 -15 -42 -17 -42
-16 -6 9 -5 9 24 73 25 73 11 105 11 105 20 125 21 125 23 165 24 165 12 70
11 70 25 80 25 80 8 5 7 5 12 23 12 22 13 0 14 0 11 -27z"/>
<path d="M2 1385 l-1 -46 7 5 7 4 1 -24 2 -25 53 -81 54 -82 34 -40 34 -41 8
2 9 3 -2 -8 -2 -7 12 -22 13 -23 16 0 16 0 44 25 43 26 0 14 0 14 -10 6 -10 6
-39 -23 -40 -23 -4 5 -4 5 -60 80 -61 80 -57 105 -58 105 -2 3 -2 3 -1 -46z"/>
</g>
</svg>
