<?xml version="1.0" standalone="no"?>
<!DOCTYPE svg PUBLIC "-//W3C//DTD SVG 20010904//EN"
 "http://www.w3.org/TR/2001/REC-SVG-20010904/DTD/svg10.dtd">
<svg version="1.0" xmlns="http://www.w3.org/2000/svg"
   viewBox="0 0 111.000000 183.000000"
 preserveAspectRatio="xMidYMid meet">
<metadata>
Created by potrace 1.16, written by Peter Selinger 2001-2019
</metadata>
<g transform="translate(0.000000,183.000000) scale(0.100000,-0.100000)"
fill="#006400" stroke="none">
<path d="M395 1822 l-10 -7 -18 -27 -17 -27 0 -13 0 -13 -21 -72 -22 -72 -54
77 -55 76 -4 11 -5 11 -29 18 -30 17 -7 -17 -6 -16 16 -10 17 -9 60 -79 60
-79 0 -14 0 -15 -13 -11 -14 -11 -30 57 -30 58 -39 4 -39 5 -50 0 -50 1 0 -15
0 -14 45 -8 45 -7 32 -6 32 -6 20 -32 20 -32 34 -105 35 -105 32 -70 32 -70
-7 -60 -6 -60 11 -55 10 -55 36 -36 37 -37 -7 -25 -6 -25 31 -78 31 -78 25
-40 25 -41 18 -20 18 -20 6 -38 7 -39 49 -95 49 -95 7 -35 7 -35 -86 -83 -86
-83 -22 -5 -22 -6 -29 30 -30 29 -14 0 -14 0 -6 -24 -6 -25 7 -11 6 -10 41
-21 40 -21 27 7 26 7 32 24 32 25 90 89 90 90 20 0 20 0 15 16 16 15 0 10 0 9
18 0 18 0 10 -10 11 -11 54 -10 54 -11 47 -5 46 -5 16 25 16 24 -6 17 -6 16
-5 0 -4 0 -16 -16 -16 -16 -36 6 -36 5 -53 9 -53 9 -13 14 -13 14 -33 80 -32
79 -48 86 -48 85 -23 65 -22 65 -22 30 -22 30 -33 83 -33 83 -19 24 -19 24
-13 48 -13 48 -18 80 -18 80 -27 96 -27 95 31 32 31 31 32 83 32 83 7 28 7 29
-19 -4 -18 -3 -27 -77 -27 -76 -18 -39 -19 -38 -22 -3 -23 -3 0 24 0 25 34 99
35 98 -7 7 -7 7 -10 -7z"/>
<path d="M841 1803 l65 -28 15 -10 15 -10 13 -70 13 -70 8 -60 8 -60 11 -70
11 -70 18 -25 18 -25 19 -45 19 -45 18 -24 18 -24 0 332 0 331 -45 0 -45 0 0
-11 0 -12 -62 7 -63 7 -60 5 -60 4 66 -27z"/>
<path d="M0 75 l0 -75 14 0 14 0 5 27 5 26 -14 49 -15 48 -4 0 -5 0 0 -75z"/>
</g>
</svg>
