<?xml version="1.0" standalone="no"?>
<!DOCTYPE svg PUBLIC "-//W3C//DTD SVG 20010904//EN"
 "http://www.w3.org/TR/2001/REC-SVG-20010904/DTD/svg10.dtd">
<svg version="1.0" xmlns="http://www.w3.org/2000/svg"
 width="92.000000pt" height="90.000000pt" viewBox="0 0 92.000000 90.000000"
 preserveAspectRatio="xMidYMid meet">
<metadata>
Created by potrace 1.16, written by Peter Selinger 2001-2019
</metadata>
<g transform="translate(0.000000,90.000000) scale(0.100000,-0.100000)"
fill="#000000" stroke="none">
<path d="M468 883 l13 -5 6 6 6 6 -19 -1 -19 -1 13 -5z"/>
<path d="M666 791 l-20 -8 10 -5 9 -5 25 13 25 14 -15 -1 -15 0 -19 -8z"/>
<path d="M558 763 l13 -5 6 6 6 6 -19 -1 -19 -1 13 -5z"/>
<path d="M590 739 l0 -22 -27 -36 -28 -36 -20 -22 -20 -21 -22 -25 -22 -24
-10 -27 -11 -26 -10 0 -10 0 0 -15 0 -15 -8 0 -7 0 -14 -31 -13 -30 5 -5 4 -5
17 26 17 26 17 19 17 19 35 49 34 50 8 -4 8 -5 0 18 0 18 28 35 28 35 16 25
15 25 -13 13 -14 13 0 -22z"/>
<path d="M141 734 l1 -19 5 13 5 13 -6 6 -6 6 1 -19z"/>
<path d="M515 720 l6 -10 5 0 4 0 0 10 0 10 -11 0 -10 0 6 -10z"/>
<path d="M370 695 l-25 -14 11 -1 10 0 20 15 19 14 -5 0 -5 0 -25 -14z"/>
<path d="M430 692 l0 -7 24 -11 25 -12 6 16 5 15 -5 5 -5 5 0 -11 0 -12 -25
10 -25 10 0 -8z"/>
<path d="M596 673 l-7 -18 12 12 13 13 -6 5 -6 6 -6 -18z"/>
<path d="M330 670 l0 -10 11 0 10 0 -6 10 -6 10 -5 0 -4 0 0 -10z"/>
<path d="M400 676 l0 -4 16 -6 15 -6 -6 10 -6 10 -10 0 -9 0 0 -4z"/>
<path d="M286 633 l-7 -18 12 12 13 13 -6 5 -6 6 -6 -18z"/>
<path d="M440 640 l-15 -10 12 0 12 0 6 10 6 10 -3 0 -3 0 -15 -10z"/>
<path d="M80 629 l0 -10 10 6 10 6 0 5 0 4 -10 0 -10 0 0 -11z"/>
<path d="M390 611 l0 -10 10 -6 10 -6 -6 15 -6 16 -4 0 -4 0 0 -9z"/>
<path d="M810 601 l0 -10 10 -6 10 -6 0 10 0 10 -10 6 -10 6 0 -10z"/>
<path d="M225 580 l-7 -11 6 -6 6 -6 0 12 0 12 10 -6 10 -6 -5 -27 -5 -27 10
24 11 25 -14 14 -15 14 -7 -12z"/>
<path d="M510 559 l0 -10 10 6 10 6 0 5 0 4 -10 0 -10 0 0 -11z"/>
<path d="M755 560 l20 -9 14 0 14 -1 -7 7 -7 7 -27 3 -27 2 20 -9z"/>
<path d="M333 544 l-13 -13 8 -4 7 -5 12 14 13 13 -8 4 -7 5 -12 -14z"/>
<path d="M821 533 l9 -24 0 -5 0 -5 -12 7 -11 7 9 -14 8 -14 2 -62 1 -62 -7 4
-7 4 4 -27 4 -27 -15 19 -16 20 0 -10 0 -10 11 -11 11 -11 -7 -21 -6 -21 -10
0 -9 0 0 -15 0 -14 14 5 15 6 6 29 7 29 9 -6 10 -6 -7 28 -7 27 11 -7 10 -6
-3 62 -4 62 12 8 12 7 -14 13 -14 13 8 -14 8 -14 -12 7 -11 7 5 10 6 9 17 0
17 0 -11 8 -11 7 -5 14 -4 14 -16 3 -17 2 10 -25z m16 -5 l-5 -13 -1 19 -1 19
6 -6 6 -6 -5 -13z"/>
<path d="M204 522 l-11 -29 11 0 11 0 2 29 2 28 -2 0 -3 0 -10 -28z"/>
<path d="M602 541 l-14 -8 17 -7 17 -6 4 0 4 0 0 15 0 15 -7 0 -8 0 -13 -9z"/>
<path d="M490 529 l0 -10 10 6 10 6 0 5 0 4 -10 0 -10 0 0 -11z"/>
<path d="M720 530 l0 -10 11 0 10 0 -6 10 -6 10 -5 0 -4 0 0 -10z"/>
<path d="M770 529 l0 -10 10 6 10 6 0 5 0 4 -10 0 -10 0 0 -11z"/>
<path d="M280 490 l-15 -10 12 0 12 0 6 10 6 10 -3 0 -3 0 -15 -10z"/>
<path d="M372 471 l-11 -31 5 0 4 0 11 26 10 27 -5 4 -4 4 -10 -30z"/>
<path d="M226 467 l6 -18 6 6 6 5 -13 13 -12 12 7 -18z"/>
<path d="M672 460 l0 -25 5 13 5 12 -5 13 -5 12 0 -25z"/>
<path d="M780 461 l0 -10 10 -6 10 -6 -6 15 -6 16 -4 0 -4 0 0 -9z"/>
<path d="M10 448 l0 -17 10 -6 10 -6 0 8 0 8 -10 15 -10 15 0 -17z"/>
<path d="M420 430 l-14 -9 5 -6 6 -5 13 15 12 15 -3 0 -4 0 -15 -10z"/>
<path d="M156 414 l-6 -15 10 -20 11 -19 5 0 5 0 -11 19 -10 20 6 15 6 16 -5
0 -5 0 -6 -16z"/>
<path d="M675 419 l-7 -10 5 -5 5 -5 5 16 6 15 -4 0 -4 0 -6 -11z"/>
<path d="M871 414 l1 -19 5 13 5 13 -6 6 -6 6 1 -19z"/>
<path d="M312 405 l1 -20 -1 -23 -2 -23 -10 6 -10 6 6 -15 6 -15 -19 3 -18 3
13 -4 12 -4 0 -14 0 -14 10 -6 10 -6 -7 17 -6 17 13 -8 13 -8 -5 14 -5 14 11
11 10 11 18 -5 18 -4 -1 23 0 24 -9 -20 -9 -20 -1 30 -1 30 -15 -25 -15 -25 5
20 6 20 -10 15 -10 15 2 -20z"/>
<path d="M696 367 l6 -18 6 6 6 5 -13 13 -12 12 7 -18z"/>
<path d="M468 353 l13 -5 6 6 6 6 -19 -1 -19 -1 13 -5z"/>
<path d="M661 344 l1 -19 5 13 5 13 -6 6 -6 6 1 -19z"/>
<path d="M418 338 l-5 -13 4 -12 5 -13 8 0 8 0 -5 23 -5 22 15 -20 16 -20 -6
23 -5 22 -13 0 -13 0 -4 -12z"/>
<path d="M130 330 l0 -10 11 0 10 0 -6 10 -6 10 -5 0 -4 0 0 -10z"/>
<path d="M210 320 l-15 -9 23 2 22 1 0 8 0 8 -7 0 -8 0 -15 -10z"/>
<path d="M675 320 l-6 -10 15 6 16 6 0 4 0 4 -9 0 -10 0 -6 -10z"/>
<path d="M635 309 l-20 -8 23 0 22 -1 0 -12 0 -11 6 6 6 5 -9 15 -8 14 -20 -8z"/>
<path d="M183 291 l1 -20 8 5 7 5 -6 14 -5 15 -3 0 -4 0 2 -19z"/>
<path d="M724 301 l6 -9 20 5 20 5 0 4 0 4 -26 0 -25 0 5 -9z"/>
<path d="M90 255 l-13 -15 7 -7 6 -7 16 16 16 16 -10 6 -10 6 -12 -15z"/>
</g>
</svg>
