<?xml version="1.0" standalone="no"?>
<!DOCTYPE svg PUBLIC "-//W3C//DTD SVG 20010904//EN"
 "http://www.w3.org/TR/2001/REC-SVG-20010904/DTD/svg10.dtd">
<svg version="1.0" xmlns="http://www.w3.org/2000/svg"
   viewBox="0 0 86.000000 130.000000"
 preserveAspectRatio="xMidYMid meet">
<metadata>
Created by potrace 1.16, written by Peter Selinger 2001-2019
</metadata>
<g transform="translate(0.000000,130.000000) scale(0.100000,-0.100000)"
fill="#006400" stroke="none">
<path d="M230 1297 l0 -8 20 -77 20 -78 -5 -61 -5 -62 -16 -40 -16 -41 -30
-25 -30 -25 -24 0 -25 0 -22 11 -21 12 -18 21 -17 21 -12 54 -11 54 7 56 7 56
19 54 19 55 -4 3 -3 3 -12 -14 -13 -15 -14 -53 -14 -53 -1 -83 0 -84 20 -42
21 -41 29 -18 29 -17 33 0 33 0 28 27 28 27 0 -15 0 -14 -21 -55 -21 -55 -15
-100 -15 -100 12 -105 11 -105 26 -47 26 -48 57 -52 57 -53 84 -61 84 -61 35
-18 35 -19 138 -4 137 -4 0 11 0 11 -18 0 -17 0 -53 44 -54 43 -141 72 -142
71 -38 31 -38 31 -38 52 -37 51 -22 48 -23 48 -15 81 -15 80 6 57 7 56 24 93
25 94 9 79 9 79 -20 77 -20 78 -10 10 -9 9 0 -7z m20 -863 l29 -60 41 -46 40
-46 0 -19 0 -19 20 -39 20 -39 0 -3 0 -3 -9 0 -10 0 -61 57 -61 56 -23 41 -24
41 -5 25 -6 25 -11 87 -11 88 7 27 7 28 14 -70 15 -70 28 -61z m171 -194 l28
-21 113 -59 112 -60 9 13 9 12 -5 -15 -4 -15 43 -28 42 -28 10 -12 11 -13 -94
8 -95 8 -35 14 -35 15 -40 32 -41 33 -28 46 -28 46 -7 22 -7 22 6 0 7 0 29
-20z"/>
<path d="M280 1298 l0 -3 21 -55 21 -55 -6 -195 -7 -196 17 -109 16 -110 25
-65 26 -65 34 -47 33 -46 48 -30 47 -31 70 -26 70 -27 17 -1 17 -1 -5 -7 -4
-7 36 -23 35 -24 31 -60 31 -60 4 12 5 13 -28 67 -28 68 -4 160 -4 160 28 155
27 155 1 125 1 125 -8 53 -8 54 11 -7 10 -6 0 10 0 10 -22 46 -22 45 -9 0 -8
0 5 -17 5 -18 10 -60 10 -60 6 -100 6 -100 -15 -85 -14 -85 -17 -108 -18 -108
-11 11 -11 11 4 167 4 167 1 135 1 135 -13 58 -13 57 -8 0 -8 0 14 -72 15 -73
-8 -165 -8 -165 0 -120 -1 -120 17 -31 17 -32 5 -127 4 -127 -8 9 -8 8 -51 64
-51 65 -25 52 -25 52 -10 72 -10 71 2 172 1 172 -18 137 -18 137 -8 13 -8 12
-6 -5 -5 -6 15 -99 16 -99 6 -162 6 -163 -11 0 -11 0 -5 43 -6 42 -10 100 -11
100 -20 83 -19 84 0 33 0 34 -11 7 -12 7 7 -39 6 -39 -20 24 -20 23 0 14 0 14
-15 0 -16 0 34 -62 35 -63 15 -50 16 -50 11 -95 11 -95 24 -115 23 -115 12
-69 11 -70 25 -52 25 -52 59 -71 60 -72 16 -30 16 -31 -14 4 -13 5 -60 81 -60
80 -38 63 -39 63 -23 75 -24 76 -47 197 -47 196 -61 123 -61 122 -12 5 -13 4
0 -4z m79 -175 l13 -38 9 -205 10 -205 20 -84 20 -84 26 -51 26 -51 35 -42 34
-43 -10 0 -11 0 -48 48 -48 47 -28 53 -29 53 -20 92 -20 92 -2 228 -3 227 7 0
7 0 12 -37z m81 -211 l32 -137 15 -70 15 -70 25 -75 25 -75 38 -65 38 -65 43
-49 44 -49 -26 6 -25 6 -37 16 -36 15 -21 22 -22 23 -43 65 -44 66 -20 74 -21
75 -10 110 -10 110 -3 107 -2 106 7 -4 7 -4 31 -138z"/>
<path d="M102 1215 l-2 -44 -10 -26 -10 -26 0 -52 0 -52 6 -23 7 -23 28 -15
28 -14 17 25 16 25 -7 37 -7 38 -2 57 -2 57 -16 18 -16 18 -6 23 -7 22 -7 0
-7 0 -3 -45z m44 -88 l2 -52 7 -47 8 -48 -18 -6 -18 -7 -13 18 -14 19 0 53 0
54 11 45 12 45 11 -11 10 -10 2 -53z"/>
</g>
</svg>
