<?xml version="1.0" standalone="no"?>
<!DOCTYPE svg PUBLIC "-//W3C//DTD SVG 20010904//EN"
 "http://www.w3.org/TR/2001/REC-SVG-20010904/DTD/svg10.dtd">
<svg version="1.0" xmlns="http://www.w3.org/2000/svg"
   viewBox="0 0 196.000000 200.000000"
 preserveAspectRatio="xMidYMid meet">
<metadata>
Created by potrace 1.16, written by Peter Selinger 2001-2019
</metadata>
<g transform="translate(0.000000,200.000000) scale(0.100000,-0.100000)"
fill="#000000" stroke="none">
<path d="M290 1991 l0 -10 33 -24 32 -24 47 -21 48 -22 61 0 61 0 -6 -22 -7
-23 -11 -69 -11 -69 17 -74 18 -74 25 -30 26 -30 37 -19 37 -19 94 -15 94 -14
58 3 59 4 -6 -16 -7 -16 -9 -42 -9 -42 6 -39 6 -39 23 -46 23 -46 27 -32 26
-31 42 -24 41 -24 65 -11 65 -11 53 9 53 8 -7 -16 -8 -16 -4 -52 -4 -52 17
-57 17 -58 29 -42 29 -43 57 -22 58 -22 61 -5 62 -4 48 14 49 14 0 -95 0 -96
14 -35 14 -35 20 -28 19 -27 38 -20 39 -20 6 0 5 0 0 283 0 282 -149 0 -149 0
-8 8 -7 7 -12 138 -12 137 9 30 8 30 0 5 0 5 -10 15 -9 15 -168 5 -167 5 -18
140 -17 140 -1 45 0 45 -10 15 -9 15 -58 -3 -58 -3 -122 6 -122 7 -3 151 -3
152 -287 3 -288 2 0 -9z"/>
<path d="M1070 1946 l0 -55 -12 -26 -11 -25 -9 0 -8 0 0 -15 0 -15 28 6 27 6
35 11 35 10 55 1 55 0 42 -28 41 -27 42 -56 41 -55 14 -81 14 -82 -4 -58 -4
-57 18 9 17 10 68 12 68 11 38 -11 37 -11 27 -21 27 -21 33 -67 33 -66 18 -54
18 -54 -6 -59 -5 -60 21 6 22 6 38 0 37 0 0 10 0 10 -43 0 -44 0 5 30 4 30
-11 48 -12 47 -26 70 -27 70 -10 14 -11 14 -34 33 -34 34 -34 11 -34 11 -57
-5 -57 -6 -16 -6 -16 -6 -6 98 -5 98 -31 75 -31 75 -27 23 -28 23 -29 15 -29
16 -58 8 -58 8 -58 -13 -58 -13 -2 2 -3 3 11 30 10 31 -3 38 -3 37 -12 5 -13
4 0 -56z"/>
<path d="M1837 1972 l28 -29 48 -53 47 -52 0 81 0 81 -76 0 -76 0 29 -28z"/>
<path d="M12 1970 l3 -25 13 3 12 2 0 -15 0 -15 15 0 15 0 0 -9 0 -9 20 -5 20
-5 -10 18 -10 19 -20 6 -19 6 -22 27 -21 27 4 -25z"/>
<path d="M1810 1939 l11 -19 14 0 15 0 0 9 0 10 -12 8 -13 7 -12 2 -13 2 10
-19z"/>
<path d="M1860 1911 l0 -10 11 -6 10 -7 4 3 3 4 -14 13 -14 13 0 -10z"/>
<path d="M1578 1887 l16 -18 14 6 15 5 21 -17 21 -18 -19 23 -19 22 -19 -6
-18 -5 0 9 0 10 13 5 12 4 -27 -1 -27 -1 17 -18z"/>
<path d="M13 1883 l3 -22 7 -7 7 -7 0 14 0 14 -10 15 -10 15 3 -22z"/>
<path d="M120 1882 l0 -9 20 -23 20 -23 7 7 7 7 -27 25 -27 25 0 -9z"/>
<path d="M1880 1860 l11 -21 10 6 9 6 0 4 0 4 -21 11 -21 12 12 -22z"/>
<path d="M70 1850 l0 -10 10 0 10 0 0 10 0 10 -10 0 -10 0 0 -10z"/>
<path d="M1610 1853 l0 -10 20 -18 20 -18 0 10 0 10 -20 18 -20 18 0 -10z"/>
<path d="M1916 1832 l-5 -8 20 -1 19 -2 -5 10 -6 9 -9 0 -9 0 -5 -8z"/>
<path d="M175 1811 l-5 -10 19 2 20 1 -5 8 -5 8 -9 0 -9 0 -6 -9z"/>
<path d="M11 1743 l-1 -62 8 -5 9 -5 -4 57 -5 57 -3 10 -3 10 -1 -62z"/>
<path d="M216 1766 l6 -16 10 0 10 0 -4 12 -4 12 -12 4 -12 4 6 -16z"/>
<path d="M1734 1765 l15 -15 7 0 6 0 -12 15 -12 15 -10 0 -9 0 15 -15z"/>
<path d="M71 1743 l-1 -11 -6 -19 -6 -18 11 15 11 15 0 -14 0 -14 5 5 5 5 -9
24 -10 24 0 -12z"/>
<path d="M247 1736 l-6 -15 14 5 15 6 11 -26 12 -26 24 -16 25 -15 -6 -16 -6
-16 14 12 15 12 -45 46 -44 47 0 8 0 8 -9 0 -9 0 -5 -14z"/>
<path d="M160 1711 l0 -10 12 -7 11 -7 -8 14 -9 14 16 -13 16 -13 6 -25 7 -25
9 6 10 6 0 18 0 18 -18 16 -19 17 -16 0 -17 0 0 -9z"/>
<path d="M71 1674 l1 -19 5 13 5 13 -6 6 -6 6 1 -19z"/>
<path d="M257 1683 l-7 -6 0 -11 0 -10 12 12 12 12 -5 5 -6 5 -6 -7z"/>
<path d="M1817 1629 l7 -23 4 13 4 13 -10 10 -11 11 6 -24z"/>
<path d="M366 1615 l6 -15 9 6 9 5 -5 10 -6 9 -9 0 -9 0 5 -15z"/>
<path d="M1860 1605 l-12 -15 11 0 11 0 0 11 0 10 12 -7 11 -7 -7 11 -7 12 -3
0 -4 0 -12 -15z"/>
<path d="M252 1581 l-23 -31 13 0 13 0 13 9 14 8 -4 23 -3 22 -23 -31z"/>
<path d="M295 1579 l-7 -10 6 -6 6 -7 11 11 11 11 -10 6 -11 6 -6 -11z"/>
<path d="M417 1576 l-6 -14 14 -5 13 -6 -2 14 -2 14 -6 6 -6 6 -5 -15z"/>
<path d="M1930 1552 l12 -24 6 6 6 6 -18 18 -18 17 12 -23z"/>
<path d="M260 1535 l0 -15 10 0 10 0 0 15 0 15 -10 0 -10 0 0 -15z"/>
<path d="M470 1526 l0 -7 20 -21 20 -22 5 6 5 5 -25 23 -25 23 0 -7z"/>
<path d="M1940 1500 l0 -10 11 0 10 0 -6 10 -6 10 -5 0 -4 0 0 -10z"/>
<path d="M270 1475 l0 -15 10 0 9 0 -5 15 -6 15 -4 0 -4 0 0 -15z"/>
<path d="M472 1476 l13 -14 4 3 3 4 -7 10 -6 11 -10 0 -10 0 13 -14z"/>
<path d="M310 1476 l0 -4 15 -5 14 -6 6 9 6 10 -20 0 -21 0 0 -4z"/>
<path d="M260 1441 l0 -10 10 -6 10 -6 -6 15 -6 16 -4 0 -4 0 0 -9z"/>
<path d="M540 1447 l0 -3 50 -54 50 -54 6 7 7 6 -51 51 -50 50 -6 0 -6 0 0 -3z"/>
<path d="M345 1420 l6 -10 5 0 4 0 0 10 0 10 -11 0 -10 0 6 -10z"/>
<path d="M537 1393 l12 -4 -6 -15 -5 -14 15 0 16 0 6 11 7 10 -4 4 -3 3 -25 5
-25 4 12 -4z"/>
<path d="M520 1339 l0 -10 10 6 10 6 0 5 0 4 -10 0 -10 0 0 -11z"/>
<path d="M598 1323 l-18 -4 0 -10 0 -9 8 0 7 1 25 14 25 14 -15 -1 -15 0 -17
-5z"/>
<path d="M666 1323 l11 -8 6 -15 7 -15 -3 19 -2 19 -15 4 -15 5 11 -9z"/>
<path d="M427 1288 l-6 -22 4 -5 5 -4 0 11 0 12 16 0 16 0 -4 12 -4 12 -11 3
-10 4 -6 -23z"/>
<path d="M496 1296 l6 -16 10 0 10 0 -4 12 -4 12 -12 4 -12 4 6 -16z"/>
<path d="M700 1280 l0 -10 16 0 15 0 -6 10 -6 10 -10 0 -9 0 0 -10z"/>
<path d="M549 1263 l-1 -8 0 -5 0 -5 6 -40 6 -40 15 -11 15 -11 0 -12 0 -11
25 -12 25 -11 0 -9 0 -9 10 6 10 6 -10 19 -11 20 -27 14 -27 15 15 2 15 1 10
-2 10 -1 -12 12 -13 13 -12 -12 -12 -12 -5 0 -6 0 0 25 0 25 13 -5 12 -4 0 7
0 8 19 1 20 2 12 -15 11 -14 12 0 11 0 -13 9 -14 8 -12 24 -12 24 -15 3 -16 3
-6 -21 -6 -21 -19 18 -19 18 4 8 4 7 -5 0 -6 0 -1 -7z"/>
<path d="M441 1247 l4 -3 20 -14 20 -15 -14 18 -13 17 -11 0 -10 0 4 -3z"/>
<path d="M722 1231 l12 -19 14 6 15 5 -7 -11 -7 -12 15 6 16 6 0 -13 0 -14 51
-53 51 -54 5 6 5 5 -20 25 -19 25 -7 -6 -6 -6 0 9 0 10 11 11 10 10 -28 19
-28 18 -8 -2 -9 -3 -5 20 -5 19 -24 -3 -24 -2 0 8 0 9 -10 0 -10 0 12 -19z
m114 -68 l-3 -3 -17 6 -16 6 0 16 0 15 20 -18 20 -18 -4 -4z"/>
<path d="M423 1223 l-13 -5 0 -18 0 -18 8 -4 7 -3 24 -34 23 -33 -6 -40 -7
-40 -14 -29 -15 -28 -38 -40 -37 -39 -57 -26 -57 -26 -56 0 -56 0 -27 14 -27
14 -24 26 -24 26 -9 0 -8 0 0 -408 0 -408 30 -18 31 -18 332 -13 332 -14 87
-3 87 -3 12 12 12 12 -7 16 -6 17 -18 -13 -17 -13 12 13 11 13 -24 48 -24 48
0 23 0 24 10 37 11 37 75 125 76 126 23 22 22 21 -19 19 -18 18 0 15 0 15 10
0 9 0 10 -17 10 -18 1 23 0 22 -10 0 -9 0 5 14 6 15 13 -5 13 -5 7 10 6 11
-15 6 -16 6 0 14 0 14 -22 0 -23 0 15 -10 15 -10 -11 0 -11 0 2 -22 2 -23 -9
-12 -10 -12 -34 16 -34 16 11 13 10 12 -11 7 -10 6 0 -13 0 -12 -29 31 -28 31
-15 -16 -15 -17 -37 -28 -37 -28 -23 -38 -24 -38 -55 -104 -55 -104 -17 -52
-17 -52 -26 -5 -27 -6 -120 -4 -120 -5 -64 -21 -64 -20 -3 0 -3 0 0 48 0 47
-10 75 -10 75 -1 82 0 82 40 24 40 24 -7 7 -7 7 15 -6 16 -6 54 24 54 24 68
40 67 40 49 46 49 46 23 33 24 32 0 37 1 37 -13 -5 -12 -5 -24 39 -25 38 -42
43 -42 44 6 6 6 6 12 -12 12 -12 8 0 8 0 0 15 0 15 -23 0 -23 0 -11 -11 -11
-11 -6 11 -7 11 -12 -1 -12 -1 -12 -5z m-326 -560 l-5 -18 0 35 0 35 5 -17 4
-18 -4 -17z"/>
<path d="M720 1146 l0 -15 10 -6 10 -6 0 20 0 21 -10 0 -10 0 0 -14z"/>
<path d="M751 1103 l-1 -23 33 1 32 2 -27 4 -27 4 -4 17 -5 17 -1 -22z"/>
<path d="M693 1095 l0 -15 9 0 8 0 0 9 0 10 -8 5 -9 5 0 -14z"/>
<path d="M920 1086 l0 -4 16 -6 15 -6 -6 10 -6 10 -10 0 -9 0 0 -4z"/>
<path d="M672 1050 l0 -35 5 18 4 17 -4 18 -5 17 0 -35z"/>
<path d="M712 1058 l-10 -10 5 -14 5 -14 19 0 19 0 0 19 0 19 -14 5 -14 5 -10
-10z"/>
<path d="M939 1048 l13 -18 -5 -14 -6 -15 13 5 14 5 21 -27 21 -26 17 7 18 8
-18 4 -17 5 6 10 7 11 -10 -6 -11 -7 -38 38 -38 37 13 -17z"/>
<path d="M975 1040 l18 -20 5 0 5 0 -18 20 -18 20 -5 0 -5 0 18 -20z"/>
<path d="M760 1034 l0 -15 10 6 10 6 0 10 0 9 -10 0 -10 0 0 -16z"/>
<path d="M817 1014 l-6 -6 6 -14 5 -14 9 0 9 0 0 14 0 15 -9 5 -8 5 -6 -5z"/>
<path d="M690 975 l23 -25 5 5 5 5 -23 20 -23 20 -5 0 -5 0 23 -25z"/>
<path d="M915 990 l6 -10 5 0 4 0 0 10 0 10 -11 0 -10 0 6 -10z"/>
<path d="M858 925 l6 -10 1 -15 0 -15 20 2 20 2 8 -15 8 -14 14 0 15 0 0 13 0
12 -9 13 -8 14 -24 -4 -24 -3 1 17 2 17 -19 -2 -18 -1 7 -11z"/>
<path d="M1080 921 l0 -14 21 -34 22 -35 8 14 9 13 0 7 0 7 -14 -5 -13 -5 -16
33 -17 33 0 -14z"/>
<path d="M815 910 l6 -10 5 0 4 0 0 10 0 10 -11 0 -10 0 6 -10z"/>
<path d="M842 900 l0 -25 5 13 5 12 -5 13 -5 12 0 -25z"/>
<path d="M968 883 l-3 -38 -47 1 -47 1 17 -13 17 -13 3 10 4 10 14 -12 14 -11
0 12 0 13 18 -16 19 -17 13 0 13 0 -6 -46 -5 -47 9 14 9 14 0 43 0 43 -16 16
-15 15 6 29 7 29 -11 0 -10 0 -3 -37z"/>
<path d="M1040 910 l0 -10 11 0 10 0 -6 10 -6 10 -5 0 -4 0 0 -10z"/>
<path d="M1027 872 l-17 -19 7 -6 6 -7 8 0 7 0 4 25 5 25 -2 0 -2 0 -16 -18z"/>
<path d="M820 846 l0 -7 19 -20 19 -21 13 8 12 7 -6 -16 -6 -17 9 0 10 0 0 13
0 12 -10 15 -10 15 0 -14 0 -14 -25 23 -25 23 0 -7z"/>
<path d="M1150 832 l0 -8 12 -12 12 -12 8 0 9 0 -11 20 -11 20 -9 0 -10 0 0
-8z"/>
<path d="M1042 806 l3 -17 10 0 10 1 0 12 0 11 -13 5 -14 4 4 -16z"/>
<path d="M1151 763 l-13 -14 6 -6 6 -7 11 11 11 11 -3 10 -4 10 -14 -15z"/>
<path d="M1215 770 l-6 -10 10 0 11 0 0 10 0 10 -4 0 -5 0 -6 -10z"/>
<path d="M1244 726 l-6 -15 4 -11 3 -10 12 19 13 20 -10 6 -10 6 -6 -15z"/>
<path d="M1270 702 l0 -9 27 -12 28 -13 -19 21 -19 21 -9 0 -8 0 0 -8z"/>
<path d="M1109 693 l-1 -8 -3 -17 -3 -18 11 -1 12 -1 12 1 11 1 -2 -25 -3 -25
14 0 14 0 -6 -22 -6 -23 12 20 12 20 3 4 4 4 15 -13 15 -12 0 6 0 6 -20 20
-20 20 -6 -1 -6 0 -17 32 -16 33 -12 4 -13 4 -1 -9z"/>
<path d="M1250 663 l0 -8 10 -15 9 -15 -15 -16 -15 -17 -4 -38 -5 -39 11 43
10 42 9 0 9 0 11 19 10 20 -6 15 -6 16 -14 0 -14 0 0 -7z"/>
<path d="M1321 653 l-1 -11 -6 -19 -6 -18 12 18 11 18 -5 12 -4 12 -1 -12z"/>
<path d="M1344 616 l-10 -11 -12 -34 -12 -34 0 -8 0 -8 23 22 23 22 -3 23 -3
22 9 0 9 0 36 -42 35 -43 6 6 6 7 -29 28 -29 29 -19 17 -19 16 -11 -12z"/>
<path d="M1086 591 l-6 -9 20 5 20 5 0 -11 0 -11 18 0 17 1 -19 14 -20 15 -12
0 -13 0 -5 -9z"/>
<path d="M1187 564 l-6 -6 6 -14 5 -14 9 0 9 0 0 14 0 15 -9 5 -8 5 -6 -5z"/>
<path d="M1360 535 l0 -15 15 0 14 0 10 -17 10 -18 -2 22 -1 22 -8 -5 -8 -5
-6 15 -6 16 -9 0 -9 0 0 -15z"/>
<path d="M1435 520 l-20 -9 22 0 22 -1 6 10 6 10 -8 -1 -8 0 -20 -9z"/>
<path d="M1196 505 l6 -15 9 6 9 5 -5 10 -6 9 -9 0 -9 0 5 -15z"/>
<path d="M1255 510 l-6 -10 15 0 16 0 0 10 0 10 -9 0 -10 0 -6 -10z"/>
<path d="M1165 500 l6 -10 5 0 4 0 0 10 0 10 -11 0 -10 0 6 -10z"/>
<path d="M1430 480 l0 -10 10 0 10 0 0 10 0 10 -10 0 -10 0 0 -10z"/>
<path d="M1490 474 l0 -15 10 6 10 6 -5 10 -6 9 -5 0 -4 0 0 -16z"/>
<path d="M1317 463 l-7 -6 0 -9 0 -8 23 1 22 1 -18 5 -17 5 5 9 6 9 -4 0 -4 0
-6 -7z"/>
<path d="M1385 430 l6 -10 5 0 4 0 0 10 0 10 -11 0 -10 0 6 -10z"/>
<path d="M1570 413 l0 -10 20 -18 20 -18 0 10 0 10 -20 18 -20 18 0 -10z"/>
<path d="M1366 372 l-6 -10 21 -5 20 -5 -4 11 -3 11 -11 3 -11 4 -6 -9z"/>
<path d="M1560 351 l0 -21 4 0 4 0 5 15 6 14 -9 6 -10 6 0 -20z"/>
<path d="M1448 353 l13 -5 6 6 6 6 -19 -1 -19 -1 13 -5z"/>
<path d="M1640 354 l0 -9 10 -15 9 -14 5 4 4 5 -14 19 -14 20 0 -10z"/>
<path d="M1496 291 l-6 -9 14 -11 14 -12 7 11 6 10 -6 10 -6 10 -9 0 -9 0 -5
-9z"/>
<path d="M1445 279 l-7 -10 5 -5 5 -5 5 16 6 15 -4 0 -4 0 -6 -11z"/>
<path d="M1710 270 l20 -20 0 -9 0 -9 21 -5 22 -6 -6 -20 -5 -21 9 6 9 5 0 12
0 12 -39 38 -38 37 -7 0 -6 0 20 -20z"/>
<path d="M1665 210 l-6 -10 10 0 11 0 0 10 0 10 -4 0 -5 0 -6 -10z"/>
<path d="M1620 190 l0 -10 9 0 10 0 6 10 6 10 -15 0 -16 0 0 -10z"/>
<path d="M1797 186 l-6 -14 16 -6 16 -6 3 2 2 3 -13 18 -13 18 -5 -15z"/>
<path d="M1525 180 l6 -10 5 0 4 0 0 10 0 10 -11 0 -10 0 6 -10z"/>
<path d="M1674 119 l0 -19 13 0 12 0 5 8 5 8 -18 11 -17 10 0 -18z"/>
<path d="M1801 124 l1 -19 5 13 5 13 -6 6 -6 6 1 -19z"/>
<path d="M1840 131 l0 -9 16 -6 16 -6 5 0 4 0 -15 15 -15 15 -5 0 -6 0 0 -9z"/>
<path d="M1880 89 l0 -10 10 6 9 6 17 -26 16 -25 9 0 9 0 -27 30 -26 30 -9 0
-8 0 0 -11z"/>
<path d="M1670 60 l0 -10 10 0 10 0 0 10 0 10 -10 0 -10 0 0 -10z"/>
<path d="M1744 8 l-5 -8 73 1 73 2 -20 3 -20 3 -48 3 -49 3 -4 -7z"/>
</g>
</svg>
