<?xml version="1.0" standalone="no"?>
<!DOCTYPE svg PUBLIC "-//W3C//DTD SVG 20010904//EN"
 "http://www.w3.org/TR/2001/REC-SVG-20010904/DTD/svg10.dtd">
<svg version="1.0" xmlns="http://www.w3.org/2000/svg"
   viewBox="0 0 143.000000 136.000000"
 preserveAspectRatio="xMidYMid meet">
<metadata>
Created by potrace 1.16, written by Peter Selinger 2001-2019
</metadata>
<g transform="translate(0.000000,136.000000) scale(0.100000,-0.100000)"
fill="#000000" stroke="none">
<path d="M320 1354 l0 -4 67 -65 66 -64 10 6 10 6 -6 -10 -7 -11 33 -25 32
-26 50 -45 50 -46 13 5 13 5 -5 -9 -5 -8 32 -31 32 -32 96 -93 96 -92 44 -37
44 -36 175 -174 175 -175 48 -53 47 -54 0 122 0 122 -39 6 -39 6 -8 86 -7 85
6 69 6 69 -156 -2 -155 -2 -8 13 -8 12 3 159 2 158 -14 6 -15 5 -129 0 -129 0
0 80 0 81 -210 -1 -210 -1 0 -5z"/>
<path d="M1036 1345 l6 -15 4 0 4 0 0 15 0 15 -10 0 -9 0 5 -15z"/>
<path d="M1105 1340 l-18 -20 17 0 17 0 -15 -16 -16 -15 0 -7 0 -6 41 -38 41
-38 8 0 9 0 6 10 6 10 -18 0 -19 0 -17 20 -17 20 0 10 0 10 28 -6 27 -7 8 -14
8 -13 32 0 32 0 -32 -20 -33 -20 0 -12 0 -12 13 18 14 19 19 -10 19 -10 13 4
12 5 0 24 0 24 -12 20 -12 19 6 6 6 7 21 -21 21 -21 0 -5 0 -5 15 -17 16 -18
39 -43 40 -44 0 18 0 18 -22 33 -23 33 -12 0 -13 0 1 8 1 7 -1 15 -1 15 -10
-15 -10 -15 2 25 3 25 -15 0 -15 0 -11 10 -12 10 5 8 4 7 -11 0 -12 0 5 14 6
15 -22 -1 -22 -1 -18 -15 -17 -15 -7 6 -6 7 -14 -11 -13 -11 0 16 0 17 -10 -6
-10 -6 6 -11 7 -11 -14 5 -14 5 1 17 2 16 -8 0 -7 0 -18 -20z m163 -22 l-5
-13 -16 -3 -17 -3 0 15 0 16 21 0 21 0 -4 -12z m-58 -23 l0 -15 -12 0 -13 0
-15 10 -15 9 -23 -15 -24 -16 -6 6 -6 6 20 15 19 14 38 1 37 0 0 -15z"/>
<path d="M1198 1353 l13 -5 6 6 6 6 -19 -1 -19 -1 13 -5z"/>
<path d="M12 1260 l2 -95 3 73 4 72 3 0 4 0 32 -30 32 -30 11 0 12 0 -30 26
-30 27 -22 26 -23 26 2 -95z"/>
<path d="M47 1233 l6 -15 8 14 9 13 1 -10 1 -10 -1 -8 -1 -8 10 6 10 6 0 -18
0 -18 9 14 9 14 16 -15 15 -16 -15 -12 -14 -13 6 18 7 17 -21 -7 -22 -6 0 12
0 13 -10 -10 -11 -11 -8 -50 -8 -51 8 -14 8 -14 -9 -14 -10 -15 0 13 0 13 -10
-6 -9 -6 5 -14 6 -15 9 6 9 5 0 -10 0 -11 -10 0 -10 0 0 -39 0 -40 -10 -6 -10
-6 1 -22 1 -22 8 25 8 25 1 -18 1 -18 10 6 10 6 0 -23 0 -23 -10 15 -9 15 1
-57 2 -58 8 0 8 0 0 26 0 26 13 -4 12 -5 10 -59 10 -59 8 -12 8 -12 14 6 15 5
0 -15 0 -16 -9 -5 -9 -6 -5 -20 -5 -20 36 1 37 1 -17 5 -18 4 0 10 0 9 15 0
15 0 0 10 0 9 -17 10 -18 11 10 7 10 8 3 15 4 15 6 70 6 70 7 -25 7 -25 1 58
1 58 -12 -7 -11 -7 7 12 8 12 12 -4 12 -5 -4 29 -4 29 7 0 7 0 23 -19 24 -18
-10 -10 -11 -11 13 -7 12 -8 -7 11 -7 12 14 0 14 0 7 -7 8 -8 9 -1 9 -1 11 -2
11 -1 -5 -14 -5 -13 24 -26 24 -26 0 -6 0 -5 -19 3 -20 3 -33 35 -34 34 -20
12 -21 11 -13 -8 -13 -8 24 -7 24 -7 53 -51 52 -51 0 12 0 12 15 0 15 0 0 -10
0 -10 -10 0 -10 0 0 -10 0 -10 15 0 15 0 -1 8 -1 7 1 13 1 12 14 0 14 0 6 -16
6 -16 0 -9 0 -8 -16 6 -16 6 10 -19 10 -19 26 -24 26 -24 0 16 0 17 -15 0 -15
0 -1 10 -2 10 -1 12 -1 12 62 0 61 1 -5 -8 -5 -8 22 -6 21 -6 -5 -14 -6 -15 0
-4 0 -4 -15 0 -15 0 0 14 0 14 -16 6 -16 6 -16 -1 -17 -1 13 -5 12 -5 -6 -9
-5 -9 25 -10 26 -10 0 -6 0 -6 -14 5 -15 6 6 -15 5 -15 12 4 11 4 19 -19 20
-18 8 0 8 0 0 10 0 10 14 0 14 0 4 12 4 12 6 -22 6 -22 -31 -9 -32 -9 20 -2
20 -2 15 1 15 0 -12 -5 -13 -6 0 -10 0 -11 43 6 42 5 -17 -5 -18 -4 0 -10 0
-10 29 -10 29 -10 6 -14 5 -14 -10 -6 -9 -6 6 -10 6 -10 24 16 24 15 0 -14 0
-14 13 -6 12 -6 -25 6 -25 5 23 -20 23 -20 -1 -8 -1 -8 22 -3 22 -4 -6 16 -7
17 15 5 14 6 18 -10 18 -11 -17 -6 -18 -7 0 -9 0 -9 25 0 26 0 28 -14 28 -15
32 -37 33 -36 9 9 10 10 -31 32 -32 31 -11 -7 -10 -6 7 19 7 18 -6 -6 -7 -7
-28 29 -28 29 -8 -7 -7 -7 7 12 7 13 9 0 9 0 55 -54 55 -54 7 6 7 7 -7 -13 -7
-12 11 0 11 0 57 -57 57 -56 -15 8 -15 8 19 -21 19 -22 3 0 3 0 -5 17 -6 18
10 -14 10 -14 -3 -16 -3 -16 -1 -3 -1 -3 -23 23 -23 23 -19 30 -19 30 -1 10 0
10 -28 0 -28 1 -5 -8 -5 -8 18 0 18 0 -30 -19 -30 -18 -7 11 -7 10 -7 -7 -7
-7 4 -3 4 -3 35 -29 35 -28 -27 7 -28 6 0 -9 0 -9 16 -6 17 -6 13 11 13 11 17
-16 16 -17 -6 -6 -6 -6 -16 13 -16 14 -8 -15 -9 -14 16 -4 16 -3 25 -29 24
-29 19 -11 19 -10 20 14 19 13 -8 13 -8 13 -7 -11 -7 -11 -11 0 -10 0 6 15 5
15 -9 0 -9 0 6 17 6 16 -22 -6 -23 -6 6 16 6 15 0 9 0 9 15 0 14 0 26 -26 25
-25 -7 -12 -6 -12 21 19 22 19 0 -9 0 -10 -12 -12 -12 -12 11 0 11 0 13 16 13
16 -15 9 -14 9 -11 -4 -12 -5 2 23 1 23 29 -21 28 -21 9 -23 9 -23 9 5 8 5 23
-24 23 -25 -21 0 -22 0 0 -15 0 -14 14 5 14 5 7 -10 6 -11 9 5 9 6 -6 17 -6
17 16 -20 15 -20 -10 -12 -10 -13 16 0 16 0 0 13 0 13 -25 34 -24 33 -38 34
-38 34 -104 97 -103 97 -50 48 -49 48 -12 -7 -12 -7 8 8 7 9 -47 48 -47 48 -7
0 -7 0 -6 -16 -6 -15 9 6 10 5 6 -10 6 -10 -25 0 -26 0 3 9 2 9 -10 0 -9 1 -8
22 -9 22 -11 -11 -12 -12 -10 0 -10 0 12 12 11 11 -15 11 -14 11 20 13 20 12
-1 -7 -1 -8 1 -12 1 -13 13 0 13 0 14 -19 14 -20 8 5 8 5 0 7 0 8 -76 63 -75
64 -12 -12 -11 -11 17 0 17 0 1 -12 1 -13 -1 -15 -2 -15 9 14 10 13 6 -10 6
-10 -14 -11 -13 -11 -10 12 -11 13 -6 23 -7 22 -14 0 -13 0 -16 6 -16 6 0 -15
0 -15 -22 -6 -23 -6 -7 0 -8 0 0 10 0 10 13 0 13 0 22 20 21 20 6 -10 6 -10
19 0 19 0 7 12 7 11 -18 14 -19 13 -9 0 -9 0 13 -17 14 -16 -15 5 -15 5 0 19
0 19 -12 13 -12 12 -13 0 -13 -1 18 -13 18 -14 -11 -7 -12 -7 13 -9 14 -8 -16
-17 -17 -16 2 33 2 34 -21 17 -20 17 15 1 15 0 -15 10 -15 10 -12 -16 -12 -16
-10 7 -11 6 0 27 0 27 -11 15 -10 15 6 -21 6 -21 -10 -27 -11 -26 -11 0 -11 0
-5 19 -5 20 -14 5 -14 5 0 11 0 11 30 -16 30 -16 0 14 0 13 -12 12 -13 13 12
7 12 8 -67 64 -66 65 -11 0 -10 0 0 10 -1 10 -9 15 -10 15 -22 19 -23 19 -15
-13 -16 -13 22 -24 22 -23 -6 0 -6 0 -26 12 -26 11 4 11 4 11 -14 17 -15 16
21 12 21 11 0 -9 0 -8 -11 -11 -11 -11 11 -6 10 -7 11 20 10 20 -21 15 -21 14
-12 -2 -11 -3 8 4 7 5 0 9 0 9 -9 0 -10 0 -15 -16 -16 -15 0 10 0 10 15 9 16
8 -21 19 -20 18 0 -8 0 -8 -17 19 -18 19 -15 1 -15 2 -27 5 -27 5 6 -15z m50
-125 l-5 -13 0 25 0 25 5 -12 5 -13 -5 -12z m30 -50 l-5 -13 -1 19 -1 19 6 -6
6 -6 -5 -13z m-40 -10 l-5 -13 -1 19 -1 19 6 -6 6 -6 -5 -13z m253 -12 l0 -5
-10 -6 -10 -6 0 10 0 11 10 0 10 0 0 -4z m-203 -28 l-5 -13 -1 19 -1 19 6 -6
6 -6 -5 -13z m163 -50 l0 -20 -14 11 -14 12 -6 23 -6 24 -19 -5 -19 -5 -7 12
-8 12 22 -7 21 -6 0 12 0 12 25 -27 25 -27 0 -21z m33 -11 l-6 -9 14 -9 14 -9
-12 0 -12 0 -9 18 -9 17 5 14 4 13 9 -13 8 -13 -6 -9z m37 13 l0 -10 -10 0
-10 0 0 10 0 10 10 0 10 0 0 -10z m40 -11 l0 -9 -10 0 -10 0 0 16 0 15 10 -6
10 -6 0 -10z m-280 -109 l9 0 -6 17 -6 16 12 -7 12 -8 -6 -19 -7 -20 14 -16
13 -16 -12 -4 -13 -5 0 -50 0 -50 -12 4 -13 5 -3 59 -3 59 -12 7 -12 8 13 0
12 0 -6 25 -6 25 8 28 8 27 4 -42 3 -43 9 0z m57 35 l0 -14 -9 5 -8 5 0 -12 0
-12 -5 5 -5 5 6 17 6 16 7 0 8 0 0 -15z m-113 -20 l5 -15 -9 0 -10 0 0 15 0
15 4 0 4 0 6 -15z m346 0 l0 -15 -10 0 -9 0 5 15 6 15 4 0 4 0 0 -15z m-19
-48 l-12 -12 7 18 6 18 6 -6 6 -5 -13 -13z m125 -44 l-6 -6 -6 6 -6 6 8 12 8
13 4 -13 4 -12 -6 -6z m392 -264 l13 -21 -5 -6 -6 -5 0 13 0 12 -12 -10 -13
-10 -19 7 -18 7 16 17 17 17 7 0 7 0 13 -21z m214 -267 l-2 -13 9 5 9 6 11
-14 12 -14 -17 -6 -16 -6 -4 0 -5 0 7 11 7 11 -19 -6 -19 -6 -14 9 -14 9 6 17
7 16 22 -3 23 -3 -3 -13z"/>
<path d="M32 1190 l0 -35 5 18 4 17 -4 18 -5 17 0 -35z"/>
<path d="M1292 1198 l-12 -15 8 -7 7 -8 -15 2 -15 2 -14 -1 -15 -1 19 -14 18
-13 -7 -18 -6 -18 15 13 16 13 -4 11 -4 11 13 12 13 13 6 0 6 0 -5 -17 -5 -18
25 -29 26 -29 10 14 10 14 -5 -17 -6 -16 20 -23 19 -22 0 -9 0 -8 10 0 10 0 0
15 0 15 -10 0 -10 0 0 11 0 10 10 -6 10 -6 0 15 0 15 -49 50 -48 51 -11 0 -10
0 -4 11 -4 11 -12 -14z"/>
<path d="M12 1119 l3 -42 12 -4 12 -4 -9 32 -9 32 4 8 5 8 -10 6 -11 7 3 -43z"/>
<path d="M1357 1025 l-4 -24 14 -5 14 -6 -7 11 -7 11 22 -7 21 -6 0 4 0 3 -24
21 -24 21 -5 -23z"/>
<path d="M1400 965 l12 -15 9 0 9 0 0 15 0 15 -21 0 -21 0 12 -15z"/>
<path d="M540 830 l0 -10 10 0 10 0 0 10 0 10 -10 0 -10 0 0 -10z"/>
<path d="M39 743 l0 -8 -4 -42 -3 -43 9 0 9 0 0 50 0 50 -5 0 -5 0 -1 -7z"/>
<path d="M475 730 l6 -10 5 0 4 0 0 10 0 10 -11 0 -10 0 6 -10z"/>
<path d="M490 670 l0 -10 16 0 15 0 -6 -10 -6 -10 8 0 9 0 38 -32 38 -33 44
-42 45 -43 9 0 9 0 6 10 6 10 10 -5 9 -6 0 16 0 16 -19 -10 -19 -11 -12 15
-12 15 -9 0 -8 0 -24 23 -25 22 -47 40 -47 40 -14 8 -14 8 0 -11z"/>
<path d="M55 624 l-20 -16 12 -5 11 -4 -9 -32 -9 -32 0 -13 0 -13 10 6 10 6 0
-11 0 -11 10 6 10 6 7 -17 6 -17 -19 -15 -19 -14 13 -5 12 -5 0 -18 0 -19 -9
-6 -10 -5 -3 27 -3 28 -10 0 -10 0 -3 -37 -3 -38 9 -17 10 -16 -10 -29 -10
-28 -8 0 -9 0 -4 23 -4 22 6 -45 5 -45 -1 -37 -1 -38 9 0 9 0 0 10 0 10 9 0
10 0 -4 -40 -4 -40 10 0 9 0 0 -16 0 -15 9 5 9 6 6 -16 6 -16 -6 -9 -5 -9 8 0
8 0 15 10 14 9 -7 7 -7 7 14 23 15 22 -6 6 -6 5 -4 73 -5 73 -8 5 -7 5 3 110
3 110 0 30 0 29 -8 6 -7 5 1 38 2 37 -11 0 -11 -1 -20 -15z m22 -96 l-5 -13
-1 19 -1 19 6 -6 6 -6 -5 -13z m-18 -150 l13 -18 -16 0 -16 0 0 22 0 21 3 -4
3 -4 13 -17z m9 -159 l-12 -8 7 -8 8 -7 8 13 9 13 5 -8 5 -9 6 -30 6 -30 -15
-25 -15 -25 5 45 4 45 -5 -20 -5 -20 -6 -15 -6 -15 -9 40 -9 40 1 10 1 10 6
65 6 65 9 -59 8 -60 -12 -7z"/>
<path d="M10 575 l0 -58 4 4 4 4 3 47 3 47 -7 7 -7 7 0 -58z"/>
<path d="M125 558 l7 -21 0 -38 -1 -39 -4 -7 -4 -8 7 -20 7 -20 11 50 10 50
-5 28 -5 27 16 0 17 0 -6 10 -6 10 -25 0 -25 0 6 -22z"/>
<path d="M183 505 l-13 -14 10 -6 10 -6 6 16 6 16 -3 3 -4 4 -12 -13z"/>
<path d="M10 500 l0 -10 10 0 10 0 0 10 0 10 -10 0 -10 0 0 -10z"/>
<path d="M720 475 l0 -5 45 -42 45 -43 13 -10 12 -11 13 -8 12 -7 0 10 0 11
-40 26 -41 27 13 9 13 10 -15 -4 -14 -4 -24 23 -23 23 -4 0 -5 0 0 -5z"/>
<path d="M0 416 l0 -55 8 -4 7 -5 -2 49 -2 49 9 0 10 0 0 10 0 10 -15 0 -15 0
0 -54z"/>
<path d="M196 452 l-5 -8 10 -14 9 -15 0 23 0 22 -4 0 -5 0 -5 -8z"/>
<path d="M213 350 l0 -55 4 28 4 27 -4 28 -4 27 0 -55z"/>
<path d="M140 371 l0 -9 16 -6 17 -6 -13 15 -12 15 -4 0 -4 0 0 -9z"/>
<path d="M910 369 l0 -9 14 0 13 0 25 -22 25 -23 28 -22 29 -23 4 5 5 4 -42
39 -41 38 0 10 0 9 -30 1 -30 1 0 -8z"/>
<path d="M895 320 l-6 -10 10 0 10 0 6 10 6 10 -10 0 -10 0 -6 -10z"/>
<path d="M1087 314 l5 -14 9 0 9 0 0 9 0 9 -14 5 -15 6 6 -15z"/>
<path d="M157 306 l-7 -19 5 -5 5 -5 6 6 6 5 -4 19 -4 18 -7 -19z"/>
<path d="M930 300 l0 -10 10 0 10 0 0 10 0 10 -10 0 -10 0 0 -10z"/>
<path d="M208 248 l-2 -43 1 -50 2 -50 -8 30 -7 30 -5 -26 -5 -25 13 -13 14
-13 -6 -17 -7 -16 -5 -16 -4 -16 13 0 14 0 2 134 3 133 -6 0 -5 0 -2 -42z"/>
<path d="M956 261 l18 -21 10 10 10 10 -5 4 -4 4 -23 7 -23 7 17 -21z"/>
<path d="M147 264 l-7 -7 0 -20 0 -19 20 -25 20 -26 0 11 0 11 -9 5 -9 6 -4
25 -5 25 8 0 8 0 5 -17 5 -18 -2 24 -2 24 -11 4 -10 3 -7 -6z"/>
<path d="M990 232 l0 -7 21 -13 20 -13 -11 21 -11 20 -9 0 -10 0 0 -8z"/>
<path d="M17 127 l-5 -13 5 -27 5 -27 10 0 9 0 -6 -22 -6 -23 10 15 11 15 0
-14 0 -14 6 5 5 6 -20 42 -20 41 6 15 5 14 -5 0 -5 0 -5 -13z"/>
<path d="M1270 96 l0 -14 13 -5 12 -4 -12 -14 -13 -13 0 -8 0 -8 23 -1 22 -1
-25 -8 -25 -8 50 0 50 1 -22 4 -22 4 -7 22 -7 21 12 4 11 4 0 13 0 13 -16 6
-16 6 -14 0 -14 0 0 -14z"/>
<path d="M1248 63 l12 -5 13 5 12 5 -25 0 -25 0 13 -5z"/>
<path d="M1235 20 l6 -10 10 0 10 0 -6 10 -6 10 -10 0 -10 0 6 -10z"/>
</g>
</svg>
