<?xml version="1.0" standalone="no"?>
<!DOCTYPE svg PUBLIC "-//W3C//DTD SVG 20010904//EN"
 "http://www.w3.org/TR/2001/REC-SVG-20010904/DTD/svg10.dtd">
<svg version="1.0" xmlns="http://www.w3.org/2000/svg"
   viewBox="0 0 133.000000 134.000000"
 preserveAspectRatio="xMidYMid meet">
<metadata>
Created by potrace 1.16, written by Peter Selinger 2001-2019
</metadata>
<g transform="translate(0.000000,134.000000) scale(0.100000,-0.100000)"
fill="#006400" stroke="none">
<path d="M225 1332 l-5 -5 0 -14 0 -13 11 0 11 0 -5 14 -6 14 24 -2 23 -1 -6
-9 -5 -9 16 6 17 6 0 -10 0 -11 -25 6 -25 6 0 -6 0 -7 17 -12 17 -13 -16 -15
-16 -16 -6 6 -6 6 18 13 17 13 -22 -2 -23 -1 0 -21 0 -22 18 0 17 0 8 11 8 11
-3 -20 -3 -20 13 3 13 2 -6 -11 -7 -11 -11 11 -11 11 -13 0 -13 0 0 -28 0 -28
20 -1 20 -2 0 10 0 9 -12 -2 -12 -3 -4 20 -4 20 22 -21 22 -22 -6 -11 -7 -11
-15 0 -14 0 0 -15 0 -15 16 0 15 0 -7 13 -7 12 8 -7 8 -8 16 12 16 13 -18 -22
-18 -21 9 -6 10 -6 6 15 5 15 13 -1 13 -1 -12 -5 -13 -5 0 -13 0 -14 -19 2
-20 1 5 8 5 8 -15 -6 -15 -6 6 -16 6 -17 4 -8 5 -8 13 11 12 10 13 -15 12 -15
9 0 9 0 0 16 0 15 -9 -6 -10 -5 -6 10 -6 10 15 0 16 0 0 11 0 10 -11 -6 -10
-7 13 21 13 22 -13 8 -14 8 10 37 10 36 -8 0 -8 0 -5 -12 -5 -13 -1 14 -1 15
21 22 21 22 -13 7 -12 8 8 -14 8 -14 -18 17 -18 17 12 15 12 14 -13 5 -13 5
22 -1 22 -1 -14 -16 -15 -17 0 -5 0 -5 26 5 26 5 -14 8 -13 9 10 1 10 1 12 2
13 1 -3 10 -2 10 -77 1 -77 2 -6 -6z m92 -88 l-6 -6 -13 5 -13 5 19 1 19 1 -6
-6z m-10 -76 l-5 -13 -1 19 -1 19 6 -6 6 -6 -5 -13z"/>
<path d="M797 1325 l-7 -16 6 -33 5 -34 -17 -6 -17 -7 -44 7 -44 6 -18 -21
-19 -22 -6 10 -6 9 12 5 13 4 -5 5 -5 6 -32 7 -33 7 0 -11 0 -10 18 5 17 6
-14 -10 -14 -10 -16 6 -16 6 14 -17 13 -17 -10 0 -10 0 -4 12 -4 12 -8 -12 -7
-12 10 0 11 0 0 -11 0 -10 -10 6 -10 6 0 -10 0 -11 6 0 6 0 30 25 31 26 5 -6
6 -6 -14 -9 -15 -10 33 0 32 0 0 10 0 11 19 -11 20 -10 17 0 17 0 20 18 20 17
-13 -24 -12 -23 12 7 13 8 38 2 39 3 0 -10 0 -10 -21 5 -22 6 12 -12 11 -11
20 12 19 12 16 -6 15 -6 18 7 17 8 25 1 25 1 3 30 3 30 -10 -14 -9 -14 5 -14
5 -13 -10 0 -11 0 -6 10 -6 9 -14 -6 -15 -5 0 14 0 15 -15 0 -15 0 0 -21 0
-21 9 13 8 14 6 -15 6 -15 -17 2 -17 3 -3 22 -3 21 -10 -6 -9 -5 5 -9 5 -8
-15 2 -14 2 -8 8 -8 8 15 -4 14 -3 1 10 1 10 13 27 14 27 18 -2 18 -1 -5 -8
-5 -8 15 0 16 0 0 -17 0 -18 -9 14 -8 13 -7 -11 -7 -11 16 -6 16 -6 4 4 4 4 5
39 5 40 -14 -18 -13 -18 -3 10 -4 10 -22 4 -22 3 -5 5 -4 4 59 1 59 1 -6 -19
-5 -18 9 0 10 0 4 24 5 24 -72 0 -72 0 0 -29 0 -29 -5 -5 -5 -6 -27 12 -26 12
0 10 0 9 25 -16 25 -16 0 13 0 13 -12 13 -13 14 13 -7 12 -7 0 10 0 11 -9 0
-10 0 -7 -11 -6 -11 -8 12 -7 12 -6 -17z m43 -75 l0 -8 -14 -5 -14 -6 3 17 3
17 1 3 1 3 10 -6 10 -6 0 -9z m-130 -24 l0 -4 -15 -6 -15 -5 0 9 0 10 15 0 15
0 0 -4z m30 -10 l0 -4 -16 -6 -15 -6 6 10 6 10 10 0 9 0 0 -4z"/>
<path d="M1198 1333 l-17 -4 6 -15 5 -14 -11 0 -11 0 0 11 0 10 -30 -17 -29
-18 4 -4 5 -5 12 10 13 9 13 -2 12 -1 6 -2 6 -1 -11 -13 -11 -14 8 -7 7 -8
-20 3 -20 4 -22 -22 -21 -21 6 -6 6 -6 22 21 22 21 7 -13 8 -12 -9 5 -9 6 -12
-13 -12 -14 12 -4 12 -5 -13 -1 -13 -1 6 -10 6 -9 14 5 14 6 -6 16 -5 17 11
-15 11 -15 -15 -11 -15 -11 8 -9 7 -9 -22 19 -22 18 -10 -7 -11 -6 6 16 6 15
-16 -6 -17 -6 12 -14 11 -14 13 0 13 0 12 -15 13 -16 23 22 24 22 -12 14 -12
15 13 8 13 8 -10 3 -10 4 5 28 5 27 27 1 26 1 -25 8 -25 8 15 3 15 2 10 2 10
3 13 1 13 1 -6 10 -6 10 5 0 5 0 26 -12 25 -11 0 -9 0 -10 -31 7 -32 7 7 -11
7 -11 24 0 24 0 11 20 11 20 -8 -2 -8 -1 -29 13 -28 14 -12 -15 -11 -16 -13 4
-12 5 6 9 5 9 -3 -1 -3 -1 -17 -5z"/>
<path d="M10 1326 l0 -4 16 -6 15 -6 -6 10 -6 10 -10 0 -9 0 0 -4z"/>
<path d="M877 1267 l-15 -23 24 0 23 0 -12 15 -12 15 13 -8 12 -7 0 10 0 10
-9 5 -9 6 -15 -23z"/>
<path d="M967 1283 l-4 -8 -7 -27 -6 -27 10 -6 10 -6 -1 8 -1 8 1 22 1 22 18
-6 17 -7 -14 17 -13 17 -4 0 -3 0 -4 -7z"/>
<path d="M1115 1271 l-30 -16 -7 -10 -8 -10 0 -18 0 -18 31 36 31 35 8 -5 9
-5 5 9 6 10 -7 4 -8 4 -30 -16z"/>
<path d="M17 1239 l-18 -41 6 -6 5 -5 0 14 1 14 14 -19 15 -20 0 7 0 7 -13 20
-12 21 13 8 14 8 -4 17 -3 17 -18 -42z"/>
<path d="M510 1236 l0 -14 -15 -28 -15 -29 0 -13 0 -14 12 4 13 5 2 24 2 24
10 25 10 25 0 -12 1 -12 -10 -25 -9 -25 16 -10 17 -9 -15 -28 -14 -29 -13 -2
-12 -3 0 6 0 7 17 12 16 12 -11 7 -12 7 0 -11 0 -11 -9 5 -9 6 -7 -36 -6 -36
3 -3 3 -3 22 -6 21 -7 8 23 8 23 -2 15 -3 15 10 -14 10 -15 -9 -17 -9 -16 6
-7 6 -6 -10 0 -11 0 2 -17 1 -18 -14 3 -13 3 6 -16 6 -16 -9 5 -9 6 -12 -16
-13 -15 26 5 27 5 6 -11 7 -11 -11 7 -12 7 0 -14 0 -15 -13 -10 -12 -10 -25
15 -25 14 20 -6 20 -6 -12 12 -12 12 -15 -6 -16 -6 6 -18 6 -18 -11 15 -11 15
-1 -10 -1 -10 1 -9 2 -9 -15 12 -14 12 -6 -10 -7 -10 19 -10 19 -10 12 12 12
12 -1 -10 -2 -10 1 -11 1 -12 31 3 30 3 25 23 24 22 0 10 0 10 -25 -23 -25
-24 -15 -2 -15 -2 0 11 0 12 -10 -15 -9 -15 2 22 1 21 20 -14 20 -14 28 27 28
27 6 -7 6 -6 -7 -18 -8 -18 1 -7 2 -8 -11 3 -12 2 -5 -14 -5 -14 13 8 13 8 -6
-11 -7 -10 -20 5 -21 6 3 -13 3 -12 -18 -3 -17 -3 5 8 5 8 -20 5 -20 5 -5 -7
-4 -8 25 -14 25 -13 19 12 19 12 14 -6 15 -5 12 33 12 33 3 57 3 57 -13 -12
-13 -12 6 -9 5 -9 -11 7 -12 7 16 24 16 25 2 64 2 65 -13 5 -13 5 4 23 5 23 1
5 2 5 -1 8 -1 8 9 -5 10 -6 6 10 6 10 -30 0 -31 0 0 -14z m6 -163 l-7 -7 -14
-2 -15 -2 0 9 0 9 22 0 21 0 -7 -7z"/>
<path d="M9 1144 l-10 -27 5 -4 4 -4 10 30 11 31 -5 0 -4 0 -11 -26z"/>
<path d="M1070 1146 l0 -17 9 5 9 6 5 -12 4 -13 -15 -22 -14 -23 -17 0 -17 0
-13 -12 -14 -13 7 12 7 12 -21 -4 -20 -4 -12 -7 -11 -7 6 16 6 17 -22 -1 -22
-1 13 -5 12 -5 0 -9 0 -10 -11 6 -10 7 -30 5 -30 4 -15 -12 -14 -11 0 7 0 7
-15 -12 -15 -12 0 -22 1 -21 14 30 13 30 2 -15 1 -15 14 19 15 20 0 -11 0 -12
-10 -6 -10 -6 6 -10 6 -10 13 18 13 18 -6 10 -6 10 17 -14 17 -13 0 7 0 7 13
-11 14 -11 8 8 8 7 -6 -12 -7 -11 -13 2 -12 2 -11 7 -11 6 -7 -6 -6 -6 0 -19
0 -19 -10 6 -10 6 0 -10 0 -10 15 -8 14 -9 -9 -29 -10 -30 4 28 3 28 -19 13
-19 14 11 7 11 7 -12 14 -12 15 -13 -38 -14 -38 0 -19 0 -18 15 12 15 13 -6
-17 -6 -16 -13 0 -14 0 -6 -10 -6 -10 14 6 15 5 8 -12 7 -12 -10 6 -11 7 -6
-16 -6 -15 10 6 10 6 -6 -15 -6 -16 -8 5 -8 5 -6 -25 -6 -25 -28 -1 -27 -2
-33 2 -33 3 -14 -12 -15 -12 0 11 0 11 -28 0 -28 0 -17 -29 -17 -29 0 -11 0
-11 11 0 10 0 -6 10 -6 10 12 0 12 0 -6 7 -7 6 16 18 16 18 24 -11 24 -11 0
-9 0 -9 -10 6 -10 6 0 -10 0 -11 15 0 15 0 0 9 0 9 13 -2 12 -2 13 -7 12 -8
25 19 24 19 -5 6 -6 5 14 -2 13 -2 13 -7 12 -8 1 13 1 13 -1 8 -1 8 31 -5 31
-5 -6 15 -6 15 12 -7 11 -7 -6 23 -6 23 11 -11 11 -11 -13 -28 -13 -28 1 -6 1
-6 -14 0 -14 0 5 8 4 8 -9 5 -9 6 -6 -16 -6 -16 0 -4 0 -4 24 0 24 0 12 15 12
15 2 52 3 53 11 21 12 22 -4 39 -4 39 63 -3 64 -3 11 21 11 20 13 -10 13 -11
7 7 7 7 14 2 15 2 -5 -8 -5 -9 21 -6 21 -7 11 11 11 11 18 0 18 0 1 8 1 7 2
26 2 27 -13 -5 -13 -5 0 11 0 11 10 0 10 0 0 23 0 22 -10 -15 -10 -15 0 9 0 9
-19 -17 -18 -17 -13 16 -13 16 -12 -5 -13 -4 -11 11 -11 11 0 -18z m46 -62
l-15 -29 -1 15 0 15 -10 -15 -10 -15 0 10 1 10 13 17 13 18 6 -7 7 -6 0 9 0
10 -10 12 -10 12 16 -14 16 -14 -16 -28z m51 27 l-1 -20 -9 6 -10 6 5 -14 5
-14 16 3 15 3 6 -10 6 -10 -10 -6 -11 -7 -16 14 -17 13 7 -17 6 -17 -16 6 -16
6 7 -11 7 -12 -10 0 -10 0 2 19 1 20 7 -5 8 -4 6 10 6 10 -11 0 -11 0 18 25
18 24 2 1 2 0 -2 -19z m-158 -74 l11 -14 -13 0 -14 0 0 14 0 13 2 0 3 0 11
-13z m-153 -79 l6 -6 -16 2 -15 2 -7 6 -6 6 16 -2 15 -2 7 -6z m2 -68 l-12
-19 -3 3 -3 3 6 17 6 16 9 0 9 0 -12 -20z m-142 -112 l6 -7 -31 1 -32 1 -4 8
-5 7 30 -2 29 -2 7 -6z"/>
<path d="M515 1140 l6 -10 5 0 4 0 0 10 0 10 -11 0 -10 0 6 -10z"/>
<path d="M26 1104 l-6 -16 0 -15 0 -16 7 7 7 7 3 24 4 25 -5 0 -4 0 -6 -16z"/>
<path d="M40 1049 l0 -10 -9 5 -9 6 9 -41 9 -40 -7 -12 -8 -12 0 -5 -1 -5 -8
-22 -7 -22 18 -28 18 -28 -16 12 -16 13 0 -15 0 -15 11 -1 11 -1 8 1 8 1 -6
-10 -6 -10 -8 4 -8 5 0 -14 0 -14 11 6 11 7 -11 -15 -11 -14 -6 -23 -6 -24 6
6 6 5 18 -10 19 -10 0 21 0 20 -11 0 -10 0 7 -12 7 -11 -12 7 -12 8 11 13 11
13 3 76 4 76 -8 0 -7 0 5 25 4 25 9 0 9 0 0 11 0 11 -15 -6 -16 -6 7 35 6 35
-6 0 -6 0 0 -11z m-3 -156 l-17 -17 0 17 0 18 10 -6 10 -6 0 12 0 12 7 -7 7
-6 -17 -17z"/>
<path d="M281 1041 l-11 -19 15 -6 15 -5 0 16 0 16 6 -6 6 -6 -6 -16 -6 -16
-19 11 -20 10 6 17 6 16 -11 -7 -12 -7 6 -27 7 -27 9 -10 9 -10 -7 20 -7 20
12 -11 12 -11 -7 -27 -6 -26 -9 0 -9 0 1 -32 1 -33 5 19 5 19 20 31 20 31 -7
-21 -6 -22 15 -5 14 -6 5 13 5 14 -11 12 -12 13 10 -6 11 -6 10 7 11 7 7 28 7
29 -10 -6 -9 -6 -31 25 -30 26 -10 -20z m58 -47 l8 5 0 -13 0 -13 -12 0 -11 0
-1 21 -1 21 5 -13 5 -12 7 4z"/>
<path d="M486 1029 l5 -9 -11 0 -12 0 5 -14 5 -13 -36 13 -37 12 -17 -9 -18
-10 0 -14 0 -14 -21 -35 -21 -36 -19 10 -19 11 -1 -11 -1 -10 -2 -7 -2 -8 -8
-23 -8 -23 19 -14 18 -14 22 -1 22 0 5 8 5 8 37 -3 38 -2 -23 15 -22 16 -13
-5 -13 -5 0 13 0 13 23 -8 22 -9 6 6 6 6 0 9 0 8 -7 -2 -8 -2 -22 7 -21 8 -6
14 -5 15 11 -3 10 -2 6 14 5 14 -14 -9 -14 -8 15 20 14 19 5 5 4 5 -5 -16 -6
-16 8 -13 8 -13 13 22 14 21 17 0 17 0 14 -20 14 -20 6 7 7 6 0 14 0 14 -10
-6 -10 -6 -10 6 -10 6 22 29 21 29 9 -5 8 -5 0 9 0 10 -20 5 -20 5 6 -9z m-46
-39 l5 -2 8 1 8 1 -6 -10 -7 -11 -14 12 -14 11 -7 -20 -8 -21 -11 23 -11 23
26 -3 26 -2 5 -2z m-97 -113 l7 6 0 -11 0 -12 -9 0 -10 0 -7 11 -6 11 -9 -13
-8 -13 5 -7 4 -8 20 4 20 4 0 -10 0 -9 -16 0 -15 0 -19 10 -19 10 16 20 17 19
11 -9 12 -10 6 7z"/>
<path d="M1040 1024 l0 -15 10 6 10 6 -5 10 -6 9 -5 0 -4 0 0 -16z"/>
<path d="M1075 1030 l-7 -11 5 -6 5 -5 18 4 17 3 -16 13 -15 13 -7 -11z"/>
<path d="M1095 860 l-6 -10 5 -8 5 -8 43 1 43 2 -2 11 -2 10 17 -3 17 -3 5 -2
5 -2 8 1 7 1 0 -10 0 -10 -9 0 -10 0 -6 10 -6 10 -19 -22 -19 -23 -1 13 0 12
-10 0 -9 0 5 -17 6 -18 -10 14 -10 14 -7 -22 -6 -21 -12 0 -11 0 12 12 12 12
0 9 0 8 -12 -7 -11 -7 8 14 9 14 -17 -13 -16 -14 11 -23 11 -24 8 4 7 5 5 -12
5 -13 1 20 1 20 31 18 31 17 19 0 19 0 21 21 21 21 -7 -21 -6 -21 15 0 14 0
14 -5 14 -5 2 30 2 31 -97 -5 -98 -5 -19 -7 -19 -7 7 11 7 12 -5 0 -5 0 -6
-10z m225 -20 l0 -10 -17 0 -18 0 15 10 15 10 3 0 2 0 0 -10z"/>
<path d="M516 783 l-6 -15 0 -14 0 -14 9 0 9 0 15 24 16 24 -19 5 -19 5 -5
-15z m24 -7 l0 -5 -10 -6 -10 -6 0 10 0 11 10 0 10 0 0 -4z"/>
<path d="M1078 758 l-1 -33 -2 -20 -2 -20 -7 -20 -8 -20 -8 -21 -8 -21 -46 7
-46 7 0 -7 0 -7 -47 10 -47 11 -3 -11 -4 -12 -26 10 -26 10 -16 -17 -16 -17
13 7 12 7 0 -5 0 -5 -9 -23 -9 -23 -6 -18 -5 -17 -1 -5 0 -5 7 -2 6 -3 4 20 4
20 1 12 1 11 33 -4 33 -4 10 32 9 33 1 -21 1 -22 15 -6 15 -5 -1 7 -1 7 1 14
1 15 16 -20 15 -19 -6 13 -6 12 10 0 11 0 0 -10 0 -10 30 0 30 0 0 9 0 8 -26
-3 -26 -2 6 5 6 6 35 3 35 2 0 -10 0 -9 -12 7 -11 7 7 -11 7 -12 34 0 34 0 15
16 16 15 0 6 0 6 -20 -18 -21 -19 6 20 7 19 -15 -17 -14 -18 -14 0 -14 0 25
20 25 20 -14 0 -13 0 11 14 12 14 -3 12 -3 12 22 4 22 4 -4 -20 -4 -20 -6 -10
-6 -10 8 0 9 0 23 75 24 75 -6 7 -7 6 0 -21 0 -22 -5 0 -4 0 -25 11 -25 12 4
8 5 8 -10 6 -10 6 -2 -33z m42 -22 l0 8 12 -12 11 -11 -12 -15 -12 -15 -18 2
-18 1 2 21 2 20 2 9 1 8 15 -12 15 -12 0 8z m-277 -149 l7 6 0 -11 0 -11 -9
-6 -10 -5 -6 11 -7 10 -12 -4 -12 -5 0 18 0 18 21 -14 22 -14 6 7z"/>
<path d="M1090 721 l0 -8 6 -6 6 -6 14 6 14 5 0 7 0 7 -20 1 -20 2 0 -8z"/>
<path d="M583 767 l-8 -12 -1 -7 -1 -8 -2 -21 -1 -21 -35 22 -35 21 -12 -26
-11 -26 11 -11 12 -12 19 18 19 18 21 -12 21 -11 0 15 0 15 18 10 17 10 -18 1
-18 0 6 10 6 10 9 -5 8 -5 5 14 6 14 -14 6 -14 5 -8 -12z m-68 -67 l-18 -20
-5 5 -5 5 13 15 12 15 11 0 10 0 -18 -20z"/>
<path d="M745 760 l-6 -10 28 0 28 0 -15 10 -15 10 -7 0 -7 0 -6 -10z"/>
<path d="M22 713 l-12 -5 5 -8 6 -9 17 6 17 5 -22 -16 -23 -17 0 -19 0 -19 10
-6 10 -6 0 -10 0 -10 -9 5 -9 6 2 -17 3 -18 -11 -8 -11 -9 18 6 17 5 0 -9 0
-9 -11 -7 -11 -6 13 -9 14 -9 -12 0 -12 0 6 -17 6 -16 -10 6 -10 6 1 -22 1
-22 12 0 11 0 8 -7 7 -8 -23 0 -22 0 12 -15 13 -16 14 5 13 5 0 -4 0 -4 -21
-12 -21 -11 6 10 6 11 -8 5 -9 5 0 -59 0 -59 7 4 7 4 -10 -44 -10 -45 19 -15
19 -15 -15 2 -15 3 0 -35 0 -35 15 3 15 3 -13 -12 -12 -13 0 -19 0 -19 12 4
12 4 4 14 5 13 -14 -9 -14 -8 14 17 13 17 -5 21 -6 21 6 -6 5 -5 16 15 15 15
6 -8 6 -8 32 -3 31 -3 7 10 6 11 10 0 10 0 -5 -9 -6 -9 28 -5 27 -5 25 3 25 4
37 6 37 6 -11 30 -11 31 6 49 6 50 -9 -6 -9 -5 -6 11 -7 11 -27 -24 -26 -23
24 27 24 27 9 -2 10 -2 4 30 3 29 -12 8 -12 8 -8 0 -7 0 2 -11 3 -11 -17 -3
-18 -3 -5 8 -6 9 -17 -6 -17 -6 19 15 19 15 -6 10 -7 11 14 11 14 12 14 -20
15 -21 6 7 7 6 0 -11 0 -11 15 5 15 6 0 -10 0 -9 25 5 25 4 0 17 0 16 -9 -13
-8 -14 -19 4 -19 5 29 12 29 12 -7 6 -6 6 15 17 16 17 -83 -14 -83 -14 -7 -12
-8 -12 4 -17 4 -18 -12 0 -13 0 -11 -25 -12 -26 0 -4 0 -4 23 -4 22 -5 -54 5
-53 5 6 -11 7 -11 -7 0 -6 0 -38 21 -38 21 3 69 3 69 -10 -6 -9 -6 5 -6 6 -5
-11 -14 -11 -13 -12 0 -11 0 14 9 15 9 2 19 3 18 10 3 11 4 0 9 0 10 -10 -6
-10 -6 0 10 0 11 10 0 10 0 0 22 0 22 -13 -19 -14 -18 -8 13 -8 13 11 -7 12
-7 1 13 1 13 -1 7 -1 7 18 -6 17 -7 -12 16 -13 15 6 6 7 6 3 28 3 28 -12 7
-12 8 -5 -1 -5 -1 -13 -5z m33 -42 l-6 -5 -14 -2 -15 -2 5 7 4 8 16 0 15 0 -5
-6z m-15 -25 l0 -5 -10 -6 -10 -6 0 10 0 11 10 0 10 0 0 -4z m321 -170 l-1 -6
-7 -2 -8 -1 -13 -16 -13 -16 7 15 7 15 10 13 10 12 4 -4 5 -4 -1 -6z m-48 -4
l5 13 1 -12 1 -12 -9 -5 -9 -6 -13 18 -14 17 17 -13 16 -13 5 13z m-7 -101
l-18 -20 -22 13 -21 14 -18 -3 -17 -3 5 8 5 9 21 -4 21 -4 13 -11 14 -12 13
21 12 20 5 -4 4 -5 -17 -19z m-235 -18 l13 -18 -14 12 -14 13 -15 -13 -16 -12
14 18 13 17 3 0 3 0 13 -17z m103 -11 l5 -9 -14 0 -15 0 0 9 0 8 9 0 10 0 5
-8z m-49 -22 l-6 -9 37 4 36 5 11 7 10 6 -7 -11 -7 -12 -15 0 -15 0 5 -9 6 -9
-20 -5 -19 -5 -12 14 -12 14 -13 -17 -13 -18 -1 9 0 8 -14 -11 -14 -12 -7 11
-6 10 8 -1 8 -1 9 1 8 1 -13 18 -13 17 14 -12 14 -13 9 0 9 0 -13 17 -14 17
12 -7 12 -7 6 10 6 10 10 -6 9 -5 -5 -9z m161 -35 l21 2 0 -14 0 -14 -11 11
-10 10 -10 0 -9 0 18 -20 18 -20 10 7 10 6 -7 -12 -7 -11 -12 7 -12 7 -15 1
-15 0 -12 -8 -11 -8 -8 12 -7 12 11 -7 11 -6 6 9 6 10 17 -6 17 -6 -25 29 -25
28 15 -10 15 -10 21 1z m-86 -4 l0 -10 -21 -6 -20 -7 12 -14 12 -14 16 12 16
13 -12 -16 -13 -16 8 -9 7 -9 -27 24 -28 24 0 -8 0 -8 18 -21 17 -21 -21 17
-20 18 -13 -13 -14 -12 17 27 17 26 -21 7 -22 7 5 5 5 5 19 -10 18 -10 20 14
19 14 3 0 3 0 0 -9z m-118 -34 l-22 -24 -20 2 -20 1 -6 6 -6 6 26 -2 26 -3 0
13 0 12 13 5 12 5 9 1 9 1 -21 -23z m36 -11 l-13 -14 -4 3 -3 4 7 10 6 11 10
0 10 0 -13 -14z m124 -21 l5 6 20 3 20 4 0 -12 0 -12 -37 0 -37 0 0 13 0 13
12 -10 12 -10 5 5z m-195 -27 l-5 -13 -1 19 -1 19 6 -6 6 -6 -5 -13z m97 -10
l-5 -7 -14 6 -15 5 0 3 0 4 19 -2 20 -1 -5 -8z m120 0 l-4 -7 -20 2 -19 1 4 6
4 6 20 0 20 0 -5 -8z m46 6 l0 -3 -9 -6 -10 -5 -5 8 -5 9 14 0 15 0 0 -3z"/>
<path d="M527 679 l-17 -10 5 -10 6 -9 -15 6 -16 6 0 -11 0 -11 -25 -10 -25
-10 0 -12 0 -13 9 14 9 14 10 -7 10 -6 12 15 12 15 9 -5 8 -5 10 17 10 18 1
-11 0 -12 -17 -13 -16 -14 -4 3 -3 2 3 -7 2 -8 6 2 7 2 -6 -21 -5 -22 -9 24
-9 23 -11 -11 -12 -12 -20 0 -21 0 14 -9 15 -10 20 11 21 11 -14 -17 -14 -17
-13 5 -13 5 -7 -11 -7 -11 11 7 12 7 0 -10 0 -10 -16 -15 -15 -16 8 0 8 0 -25
-20 -25 -20 17 0 16 0 6 13 5 12 -2 -19 -2 -18 22 -9 22 -8 17 16 16 17 -16
12 -17 12 17 6 16 6 9 -6 9 -5 0 11 0 11 9 -6 10 -5 10 17 10 18 1 -18 0 -19
-21 -5 -21 -6 14 -8 13 -9 -13 0 -13 0 6 -10 6 -10 -15 6 -16 6 0 -9 0 -9 19
-1 19 -2 12 30 12 29 10 0 10 0 -6 16 -6 15 9 -5 9 -6 6 31 6 32 0 7 0 7 -26
-3 -26 -2 -14 -19 -15 -18 10 21 10 21 -5 5 -5 5 26 -2 25 -3 6 9 5 9 12 -7
12 -7 -14 18 -15 18 12 7 11 7 -9 14 -10 15 0 -18 0 -18 -15 -5 -15 -6 6 -9 5
-9 -10 0 -11 0 0 10 0 9 17 9 16 10 -19 10 -20 10 -17 -9z m63 -99 l0 -9 -17
6 -18 7 12 -15 12 -15 -22 -1 -22 -2 15 9 15 10 -8 0 -8 0 6 10 6 10 15 0 14
0 0 -10z m-66 -32 l-4 -6 7 -5 8 -4 -12 3 -12 3 -5 -12 -4 -12 -1 18 -1 19
-12 -4 -12 -4 -4 -14 -5 -13 13 8 13 8 -7 -12 -7 -11 -9 5 -8 5 -6 -15 -5 -15
-13 1 -13 1 13 5 12 5 -6 9 -5 9 11 0 11 0 -6 9 -5 10 16 9 17 10 23 -2 22 -1
-4 -7z m-44 -80 l0 -7 -20 2 -20 1 0 8 0 7 20 -2 20 -1 0 -8z"/>
<path d="M467 663 l-7 -6 0 -11 0 -10 12 12 12 12 -5 5 -6 5 -6 -7z"/>
<path d="M1085 645 l0 -23 8 -6 7 -6 -5 6 -4 7 9 17 10 18 -13 5 -13 5 1 -23z"/>
<path d="M796 537 l-4 -12 -11 -34 -11 -35 10 -6 11 -7 -7 -27 -7 -28 30 5 29
5 1 -19 2 -18 -25 9 -25 10 -5 0 -5 0 13 -13 13 -12 28 -13 28 -12 -6 10 -6 9
-1 46 -1 45 -14 0 -15 0 11 -14 12 -14 -16 2 -16 2 -1 10 -1 9 24 12 24 13
-20 1 -20 2 -18 0 -17 0 11 14 12 14 11 -11 10 -10 6 0 7 0 1 13 1 12 7 23 7
24 -21 -13 -21 -13 12 -8 11 -7 -5 -5 -5 -5 -14 10 -15 9 18 14 18 14 -16 6
-16 6 -3 -13z"/>
<path d="M1308 500 l-16 -18 6 -6 5 -6 11 0 11 0 1 25 2 25 -2 -1 -1 -1 -17
-18z"/>
<path d="M495 490 l6 -10 10 0 10 0 -6 10 -6 10 -10 0 -10 0 6 -10z"/>
<path d="M259 457 l-1 -7 -1 -22 -1 -21 16 -3 16 -2 -4 21 -4 21 -10 10 -10
10 -1 -7z"/>
<path d="M398 453 l12 -5 -6 -10 -7 -11 11 7 12 7 0 10 0 9 -17 -1 -18 -1 13
-5z"/>
<path d="M1256 451 l-6 -9 22 6 21 5 -7 -11 -7 -12 15 6 16 6 0 9 0 9 -24 0
-25 0 -5 -9z"/>
<path d="M1229 417 l-16 -12 4 -12 5 -13 -21 0 -20 0 -5 -8 -5 -9 17 2 17 1
15 9 15 10 7 0 6 0 9 9 8 9 -12 -7 -13 -7 0 17 0 16 20 -5 20 -5 -6 9 -5 9
-12 0 -12 -1 -16 -12z"/>
<path d="M550 349 l0 -10 -20 6 -20 6 -1 -10 -1 -11 -2 -12 -2 -13 9 -6 9 -6
-16 -32 -17 -32 6 -8 5 -9 -12 -5 -13 -5 17 -17 17 -18 15 12 16 13 -6 9 -5 9
-10 0 -9 0 0 -16 0 -15 -10 6 -11 7 12 14 11 14 -7 0 -7 0 12 15 12 15 -6 0
-7 0 21 29 20 30 -9 5 -9 6 -4 -12 -4 -12 -7 16 -6 17 60 -2 61 -3 4 8 5 8 8
-4 7 -5 28 -5 28 -5 7 -7 6 -7 -37 6 -38 6 -6 -10 -6 -10 -14 12 -14 11 0 -13
0 -14 -10 15 -10 15 0 -17 0 -18 58 3 58 3 13 8 12 8 13 -11 13 -11 17 6 16 6
0 8 0 8 6 15 5 15 -25 6 -24 6 -23 -8 -22 -9 -39 7 -38 7 0 -9 0 -9 -19 11
-20 10 -20 0 -21 0 0 -11z m230 -25 l0 -14 -10 0 -10 0 -7 2 -8 2 3 15 4 15
-15 -13 -15 -12 -6 10 -6 9 17 4 18 4 18 -4 17 -4 0 -14z"/>
<path d="M807 326 l-7 -18 0 -2 0 -3 25 5 25 4 -6 9 -5 9 -9 -5 -8 -5 -4 12
-4 12 -7 -18z"/>
<path d="M1140 325 l-12 -15 10 0 10 0 6 15 5 15 -3 0 -4 0 -12 -15z"/>
<path d="M561 304 l10 -12 -12 -8 -12 -7 7 14 8 14 -20 -25 -20 -24 4 -8 4 -7
-10 -6 -10 -6 21 -18 21 -17 -17 -17 -16 -17 -20 0 -20 0 6 -21 7 -22 -10 7
-10 6 -6 -26 -7 -25 6 -9 6 -10 15 0 15 0 -6 10 -6 10 -10 -5 -9 -6 0 16 0 16
12 -7 11 -7 -7 11 -7 12 16 -7 17 -6 -12 -7 -12 -8 10 -6 11 -7 -6 -17 -6 -17
9 8 9 8 1 31 2 30 10 7 10 6 8 30 7 30 6 10 6 10 2 30 1 30 7 26 7 26 -16 0
-16 0 11 -13z m-3 -95 l-4 -13 -7 23 -6 24 11 -11 10 -10 -4 -13z m-24 -64
l-6 -15 -4 0 -4 0 0 15 0 15 10 0 9 0 -5 -15z m-24 -15 l0 -20 -9 0 -9 0 5 20
5 20 4 0 4 0 0 -20z"/>
<path d="M1086 291 l-5 -8 24 5 25 4 0 4 0 4 -19 0 -20 0 -5 -9z"/>
<path d="M1290 274 l-13 -15 14 3 14 3 7 10 8 10 0 -17 0 -17 -10 -6 -10 -6 0
8 0 9 -20 1 -20 2 0 -20 0 -20 -9 5 -9 6 -6 -16 -6 -15 -10 6 -10 6 0 -11 0
-12 18 6 17 6 -19 -15 -20 -15 -9 0 -8 0 6 -20 6 -20 -14 6 -15 5 -7 -28 -8
-28 -3 -13 -2 -14 6 7 7 7 1 6 2 7 7 22 7 23 18 -10 19 -10 7 0 6 0 -9 13 -10
12 0 18 0 17 13 0 12 0 5 13 5 12 1 -11 1 -12 -15 -12 -15 -12 0 -9 0 -9 17 0
16 0 -6 7 -7 6 11 13 11 14 8 -5 8 -5 12 15 12 14 -20 -4 -21 -4 -12 16 -13
15 37 -7 37 -7 0 10 0 11 -20 -4 -20 -4 0 9 0 9 10 6 10 6 18 -10 19 -10 1 35
1 34 -13 0 -14 0 -12 -16z"/>
<path d="M1076 258 l5 -8 10 5 9 6 0 3 0 3 -15 0 -14 0 5 -9z"/>
<path d="M1020 240 l0 -9 15 5 15 6 0 -12 0 -11 10 6 10 6 0 7 0 8 -25 2 -25
2 0 -10z"/>
<path d="M1307 179 l-17 -31 -15 6 -14 5 -7 -11 -7 -11 11 7 12 7 0 -10 0 -10
-21 -11 -21 -12 7 -16 6 -16 -19 17 -19 17 -6 0 -7 0 -15 -36 -15 -36 7 -11 6
-10 -13 8 -13 8 4 -12 5 -13 9 1 10 0 3 21 3 20 11 0 10 0 -7 -27 -6 -28 15
20 14 20 -9 11 -9 11 8 8 7 8 -14 -8 -14 -8 5 13 4 14 12 4 12 4 0 -16 0 -16
9 0 10 0 6 20 6 20 10 -5 9 -6 -6 15 -6 16 14 0 15 0 16 18 17 19 -7 6 -6 7 9
0 10 0 1 20 2 20 -2 0 -2 0 -18 -31z"/>
<path d="M963 187 l-6 -12 8 7 8 7 18 -10 19 -10 0 9 0 10 -20 5 -20 5 -7 -11z"/>
<path d="M932 158 l3 -12 -12 -2 -13 -1 -10 -2 -10 -1 0 -7 0 -8 35 -2 35 -3
0 11 0 10 -10 -6 -10 -6 0 10 0 10 9 6 10 5 6 -10 6 -10 10 5 9 6 0 7 0 8 -30
2 -30 2 2 -12z"/>
<path d="M842 110 l-32 -20 0 -5 0 -6 12 7 11 7 -6 -11 -7 -10 -18 4 -17 4
-25 -19 -25 -20 17 3 17 2 7 7 7 7 11 0 11 -1 -17 -10 -18 -10 -4 3 -4 3 -21
-19 -22 -20 6 20 7 19 -14 -16 -13 -16 -15 -6 -15 -5 80 0 80 1 13 10 12 9 0
17 0 18 25 23 25 23 0 10 0 10 -7 -6 -6 -7 -12 10 -11 9 -32 -19z m25 -4 l-18
-14 1 -6 2 -6 -6 -13 -5 -12 3 23 2 24 15 9 14 9 5 0 5 -1 -18 -13z m-47 -70
l0 -4 -14 -11 -14 -12 -8 12 -7 12 11 -7 11 -6 6 10 6 10 5 0 4 0 0 -4z m30 0
l0 -4 -17 -13 -18 -14 14 18 13 17 4 0 4 0 0 -4z"/>
<path d="M425 84 l20 -16 -22 7 -23 6 -1 -13 -1 -13 0 -6 1 -6 -13 0 -12 0 -2
21 -1 21 8 -13 8 -14 6 16 7 16 -58 -1 -57 -2 -10 -7 -10 -8 -7 -1 -8 -1 -10
0 -10 0 0 -17 0 -18 11 15 10 15 -2 -20 -1 -20 1 -13 1 -13 45 3 45 3 4 11 4
11 -23 -1 -24 -2 -7 -7 -7 -7 -11 0 -10 0 19 14 19 13 53 -4 53 -3 0 14 0 14
25 0 25 0 0 -9 0 -8 -20 4 -20 4 0 -10 0 -9 35 0 35 0 0 11 0 10 -10 -6 -10
-6 0 9 0 8 -20 22 -21 22 -12 0 -12 -1 20 -15z m-65 -20 l0 -14 -9 0 -10 0 -6
10 -7 11 -14 -12 -14 -11 0 10 0 10 11 4 12 4 18 1 19 2 0 -15z m-80 -19 l-13
-15 -6 5 -5 6 14 9 15 10 4 0 3 0 -12 -15z"/>
<path d="M25 62 l-10 -7 -3 -27 -3 -28 13 0 13 0 2 35 3 35 -3 0 -2 0 -10 -8z"/>
</g>
</svg>
