<?xml version="1.0" standalone="no"?>
<!DOCTYPE svg PUBLIC "-//W3C//DTD SVG 20010904//EN"
 "http://www.w3.org/TR/2001/REC-SVG-20010904/DTD/svg10.dtd">
<svg version="1.0" xmlns="http://www.w3.org/2000/svg"
   viewBox="0 0 122.000000 121.000000"
 preserveAspectRatio="xMidYMid meet">
<metadata>
Created by potrace 1.16, written by Peter Selinger 2001-2019
</metadata>
<g transform="translate(0.000000,121.000000) scale(0.100000,-0.100000)"
fill="#9E1A1A" stroke="none">
<path d="M339 1137 l76 -74 40 -34 40 -34 51 -54 52 -54 12 8 13 8 -7 -11 -7
-11 53 -41 53 -42 20 -16 20 -17 35 -24 35 -25 40 -41 40 -42 75 -57 75 -57
82 -74 81 -75 1 155 2 155 -77 -7 -76 -6 -9 14 -9 14 0 92 0 92 -12 8 -13 8
-55 2 -55 1 -73 1 -73 1 5 121 5 120 -6 15 -5 14 -104 0 -104 0 0 20 0 20
-149 0 -149 0 77 -73z"/>
<path d="M1075 1199 l20 -11 28 -31 27 -30 0 7 0 7 24 -23 23 -23 -3 -6 -4 -7
15 -12 15 -12 0 76 0 76 -82 0 -83 -1 20 -10z"/>
<path d="M0 1053 l0 -146 4 4 5 5 2 41 3 42 9 -6 9 -6 -6 -43 -5 -43 19 -6 20
-6 0 -15 0 -14 9 0 9 0 6 23 6 22 0 8 0 7 -11 0 -10 0 7 -12 7 -13 -20 20 -20
20 8 17 9 16 36 -35 36 -35 -11 -24 -11 -25 0 -9 0 -9 13 -4 12 -4 -25 4 -25
4 -3 10 -4 9 -9 -6 -9 -5 14 -15 15 -14 12 2 13 3 12 -35 13 -35 0 18 1 18 10
-6 9 -6 -6 -14 -5 -15 10 0 10 0 42 -40 42 -40 5 0 4 0 15 -14 14 -15 0 -11 0
-11 8 5 8 5 29 -25 29 -25 8 16 9 15 -15 16 -16 15 0 17 0 16 13 -16 12 -16
20 -4 20 -4 -3 -33 -2 -32 10 6 10 6 0 15 0 14 10 0 10 0 0 -15 0 -15 4 0 4 0
26 14 27 13 -21 6 -20 5 0 16 0 16 13 0 14 0 18 -20 18 -20 14 0 13 0 0 -20 0
-20 15 0 15 0 0 -15 0 -15 -16 0 -15 0 6 10 6 9 -37 16 -38 15 -7 -12 -8 -12
5 -8 5 -8 -15 0 -14 0 -4 12 -4 12 -17 -7 -17 -6 0 -28 0 -28 9 14 9 13 18
-12 19 -12 -17 6 -18 5 12 -19 12 -19 4 3 3 4 25 -23 24 -22 0 -16 0 -15 29
-13 30 -13 -5 -8 -5 -7 26 -17 25 -16 0 -13 0 -14 15 -14 14 -15 -62 -10 -62
-11 -70 -6 -70 -6 -125 -5 -125 -5 -57 -4 -57 -3 -9 -6 -9 -5 5 -30 4 -29 19
16 19 16 -12 7 -11 7 25 -1 25 -2 -1 -20 -1 -20 -13 0 -13 0 -9 -15 -10 -15 0
-7 0 -8 15 0 15 0 0 13 0 14 15 0 15 0 0 -14 0 -14 -15 -5 -15 -6 0 -9 0 -10
20 11 19 10 46 -11 46 -12 86 18 86 17 9 -14 10 -13 -6 27 -6 28 10 0 10 0 0
-9 0 -10 32 -16 33 -16 11 15 10 15 17 -20 17 -19 0 -10 0 -10 -10 0 -10 0 0
10 0 10 -15 0 -15 0 0 -14 0 -14 -105 -7 -106 -7 -34 5 -33 5 -6 -14 -6 -15
-9 6 -10 5 -7 -11 -7 -12 29 8 29 8 95 3 95 3 68 0 67 1 12 26 12 25 -14 9
-14 9 7 8 8 7 10 -14 10 -15 -5 -27 -5 -27 52 0 52 1 36 -7 37 -7 7 12 7 11
-6 6 -6 6 -15 -13 -15 -12 0 10 0 10 -30 7 -30 7 0 8 0 8 16 6 15 6 -6 10 -7
11 12 14 12 15 44 0 43 0 23 9 24 9 -4 -30 -4 -30 -27 7 -26 6 -3 10 -4 9 -29
0 -30 0 6 -10 6 -10 -10 0 -11 0 0 -20 0 -20 55 0 55 0 0 -10 0 -10 -20 0 -20
0 0 -10 0 -10 66 0 65 0 -6 19 -5 18 30 -1 30 -1 0 -6 0 -7 -22 -7 -23 -8 28
-4 28 -4 15 12 14 11 0 -12 0 -12 53 7 52 7 13 10 12 10 0 -12 0 -12 55 4 54
5 -5 -9 -5 -8 9 0 10 0 6 26 7 26 -3 3 -3 2 -48 42 -48 41 -11 0 -10 0 12 -15
12 -15 -11 0 -11 0 0 10 0 10 -14 0 -14 0 -6 15 -5 15 12 0 12 0 -15 10 -15
10 9 0 10 0 -34 35 -34 35 -13 -4 -12 -5 5 12 4 12 -141 128 -141 129 -6 -7
-7 -7 19 -14 20 -14 -11 0 -12 0 -6 10 -6 10 -8 -4 -7 -5 0 19 0 19 8 -5 8 -5
0 10 0 10 -19 10 -18 10 -8 -7 -8 -7 7 12 6 12 -34 26 -35 27 -10 -7 -11 -6 6
15 6 16 -70 67 -70 68 -59 55 -59 55 -40 35 -40 35 -10 16 -9 15 -54 44 -54
45 -51 47 -51 48 -7 0 -8 0 0 -147z m60 76 l0 -9 -8 0 -8 0 -14 13 -14 12 17
-21 17 -20 -12 -12 -12 -12 -9 0 -9 0 11 14 12 14 -11 7 -10 6 0 25 0 24 25
-16 25 -16 0 -9z m20 -17 l0 -8 -14 -20 -15 -19 4 20 3 20 1 8 1 7 10 0 10 0
0 -8z m45 -62 l6 -10 -10 0 -11 0 0 10 0 10 4 0 5 0 6 -10z m50 -20 l6 -10
-10 0 -11 0 0 10 0 10 4 0 5 0 6 -10z m-115 -21 l0 -9 -14 0 -15 0 -5 9 -5 8
5 6 6 6 14 -6 14 -5 0 -9z m85 1 l6 -10 -26 0 -26 0 6 10 6 10 14 0 14 0 6
-10z m90 -20 l6 -10 -16 0 -16 0 6 10 6 10 4 0 4 0 6 -10z m-58 -25 l0 -14
-14 -5 -13 -5 0 7 0 8 12 12 12 12 1 0 2 0 0 -15z m73 -15 l15 -10 -10 0 -10
0 -15 10 -15 10 10 0 10 0 15 -10z m-20 -25 l0 -15 -9 0 -9 0 -12 15 -12 15
21 0 21 0 0 -15z m60 -41 l0 -4 -21 0 -20 0 6 10 6 9 14 -6 15 -5 0 -4z m50
-25 l0 -13 -15 20 -14 19 -1 8 0 8 15 -15 15 -15 0 -12z m-86 -22 l11 -9 -15
5 -15 4 -2 19 -3 19 7 -15 6 -15 11 -8z m60 18 l5 -15 -8 0 -9 0 -6 15 -5 15
8 0 9 0 6 -15z m61 -14 l5 -10 -10 -6 -10 -6 0 15 0 16 4 0 5 0 6 -9z m-209
-28 l-6 -6 -6 6 -6 6 8 12 8 13 4 -13 4 -12 -6 -6z m237 2 l-5 -16 -5 5 -5 5
7 10 6 11 4 0 4 0 -6 -15z m-118 -5 l6 -10 -10 0 -11 0 0 10 0 10 4 0 5 0 6
-10z m-55 -49 l0 -16 9 14 9 13 6 -11 7 -11 -8 -1 -8 0 -30 -4 -30 -4 1 29 2
30 1 7 1 6 20 -18 20 -18 0 -16z m226 1 l11 -18 -18 0 -19 0 0 13 0 13 -10 0
-10 0 0 -10 0 -10 -12 0 -11 0 17 19 18 20 12 -5 11 -4 11 -18z m-110 -9 l-5
-5 -10 7 -11 6 0 11 0 10 15 -12 15 -13 -4 -4z m-82 -38 l-6 -15 -9 0 -9 0 0
9 0 9 13 5 12 5 2 1 2 1 -5 -15z m266 -20 l34 -35 -10 0 -9 1 -32 29 -33 30 0
5 0 5 8 0 8 0 34 -35z m-210 -37 l0 -18 -10 0 -10 0 0 20 0 20 -15 0 -15 0 0
10 0 10 25 -12 25 -11 0 -19z m17 -10 l-5 -13 -1 19 -1 19 6 -6 6 -6 -5 -13z
m286 -36 l16 -18 -19 0 -19 0 4 5 5 4 -11 14 -11 13 9 0 10 0 16 -18z m-103
-92 l0 -10 11 0 11 0 39 -41 39 -41 0 -3 0 -3 -22 6 -21 5 -19 19 -18 18 -21
0 -20 0 7 11 7 11 -13 8 -13 8 7 11 7 11 10 0 9 0 0 -10z m160 -14 l0 -5 -9
-6 -10 -5 -6 10 -6 10 15 0 16 0 0 -4z m150 -86 l0 -10 -4 0 -5 0 -6 10 -6 10
10 0 11 0 0 -10z m-63 -46 l-6 -6 -13 5 -13 5 19 1 19 1 -6 -6z m96 -6 l-8
-13 4 -19 3 -18 -11 6 -11 7 0 13 0 12 12 12 12 12 4 0 3 0 -8 -12z m-58 -18
l6 -10 -15 6 -16 6 0 4 0 4 9 0 10 0 6 -10z m141 -57 l-5 -13 8 0 9 0 5 13 5
12 1 -12 1 -12 -11 -7 -11 -6 -16 17 -17 18 13 -7 12 -7 0 8 0 9 -12 14 -13
14 18 -14 18 -13 -5 -14z m-56 -17 l0 -5 -10 -6 -10 -6 0 10 0 11 10 0 10 0 0
-4z m142 -68 l-2 -8 13 0 13 0 0 -20 0 -21 -17 23 -17 22 4 7 4 7 -15 12 -15
12 0 11 0 11 17 -24 18 -25 -3 -7z m-256 17 l-5 -15 9 -1 10 -1 10 -2 10 -1 1
-10 0 -10 -14 -3 -15 -3 -34 10 -33 9 24 1 23 1 -5 14 -6 14 6 6 6 6 10 0 9 0
-6 -15z m-189 -2 l-7 -6 9 -11 9 -11 -59 3 -59 4 0 -15 0 -14 -40 3 -40 3 -1
-17 -1 -17 -5 17 -4 17 -22 4 -22 4 63 2 62 1 0 14 0 13 36 -3 36 -3 22 9 21
9 4 0 4 1 -6 -7z m123 -3 l0 -10 -4 0 -5 0 -6 10 -6 10 10 0 11 0 0 -10z m-60
-4 l0 -5 -9 -6 -10 -5 -6 10 -6 10 15 0 16 0 0 -4z m-453 -12 l-6 -6 -13 5
-13 5 19 1 19 1 -6 -6z m236 -1 l-13 -5 -12 5 -13 5 25 0 25 0 -12 -5z m458
-10 l14 -17 -18 7 -19 7 -9 0 -10 0 6 10 6 10 8 0 9 0 13 -17z m-366 -13 l6
-10 -20 0 -21 0 0 10 0 10 14 0 15 0 6 -10z m-395 -10 l0 -10 -10 0 -10 0 0
10 0 10 10 0 10 0 0 -10z m40 0 l0 -10 -10 0 -10 0 0 10 0 10 10 0 10 0 0 -10z
m140 0 l0 -10 -10 0 -10 0 0 10 0 10 10 0 10 0 0 -10z m257 -16 l-6 -6 -10 7
-11 6 6 11 6 10 11 -11 11 -11 -7 -6z m438 17 l5 -10 -10 -6 -10 -6 0 15 0 16
4 0 5 0 6 -9z m-735 -10 l0 -10 -10 -6 -10 -6 -11 7 -11 7 13 8 14 9 8 0 7 0
0 -9z m490 -1 l0 -10 -20 0 -20 0 0 10 0 10 20 0 20 0 0 -10z m-236 -20 l-10
-10 -44 9 -45 9 55 1 54 1 -10 -10z m96 0 l0 -10 -21 0 -20 0 6 -10 6 -9 14 6
15 5 0 -11 0 -11 -23 0 -23 0 -12 12 -12 12 0 8 0 7 14 -5 14 -5 7 10 6 11 15
0 14 0 0 -10z m350 -10 l0 -19 18 5 17 6 -18 -12 -17 -11 -16 15 -15 16 6 10
6 10 10 0 9 0 0 -20z m-840 0 l0 -10 -10 0 -10 0 0 10 0 10 10 0 10 0 0 -10z
m967 -7 l42 1 -6 11 -6 10 31 -29 32 -29 -11 -13 -10 -13 -15 6 -14 5 -14 -11
-14 -12 5 20 5 20 10 -2 11 -2 5 14 5 14 -11 -7 -11 -6 -6 10 -6 10 -10 0 -10
0 5 -9 5 -8 -24 2 -24 3 -10 7 -11 6 0 12 0 12 8 -12 8 -12 41 2z m-207 -21
l0 -9 -30 5 -30 4 0 4 0 4 30 0 30 0 0 -8z m-157 -9 l-13 -5 -17 5 -18 5 30 0
30 0 -12 -5z m-113 -23 l0 -10 -25 0 -25 0 0 10 0 10 25 0 25 0 0 -10z m204 1
l6 -9 -20 -5 -20 -5 0 7 0 8 7 6 6 7 8 0 8 0 5 -9z m206 -11 l15 -10 -27 0
-28 0 0 10 0 10 13 0 12 0 15 -10z"/>
<path d="M203 769 l-2 -19 4 0 3 0 5 15 6 14 -7 5 -8 5 -1 -20z"/>
<path d="M380 571 l0 -20 11 -6 10 -7 4 4 4 4 -6 22 -5 22 -9 0 -9 0 0 -19z"/>
<path d="M1085 180 l-6 -10 10 0 10 0 6 10 6 10 -10 0 -10 0 -6 -10z"/>
<path d="M100 63 l0 -16 6 6 6 6 24 -9 24 -10 0 10 0 10 -15 0 -15 0 0 10 0
10 -15 0 -15 0 0 -17z"/>
<path d="M225 71 l-30 -6 10 -6 10 -5 30 3 30 3 83 1 82 1 0 9 0 9 -92 -1 -93
-1 -30 -7z"/>
<path d="M10 51 l0 -9 14 -5 14 -6 6 6 6 6 0 9 0 8 -20 0 -20 0 0 -9z"/>
<path d="M65 51 l-5 -10 10 -6 10 -6 0 15 0 16 -4 0 -5 0 -6 -9z"/>
</g>
</svg>
