<?xml version="1.0" standalone="no"?>
<!DOCTYPE svg PUBLIC "-//W3C//DTD SVG 20010904//EN"
 "http://www.w3.org/TR/2001/REC-SVG-20010904/DTD/svg10.dtd">
<svg version="1.0" xmlns="http://www.w3.org/2000/svg"
   viewBox="0 0 213.000000 176.000000"
 preserveAspectRatio="xMidYMid meet">
<metadata>
Created by potrace 1.16, written by Peter Selinger 2001-2019
</metadata>
<g transform="translate(0.000000,176.000000) scale(0.100000,-0.100000)"
fill="#9E1A1A" stroke="none">
<path d="M606 1752 l-5 -8 -5 -49 -6 -50 -9 -53 -8 -52 -6 -6 -5 -6 -69 10
-68 11 -100 6 -100 6 -45 -13 -44 -14 -8 -34 -7 -35 -11 -180 -10 -180 -6 -27
-6 -28 -44 0 -44 0 0 -95 0 -96 12 -4 13 -4 75 -5 75 -4 66 5 66 6 7 141 6
141 12 127 11 126 23 -8 23 -9 195 -6 196 -5 5 22 5 23 4 148 5 149 3 2 3 2
160 -7 160 -8 26 -5 26 -5 21 6 21 5 10 30 11 31 0 3 0 4 -314 0 -315 0 -5 -8z"/>
<path d="M1860 1740 l0 -5 -29 -13 -28 -13 -39 -32 -38 -32 -23 -24 -23 -24 0
-11 0 -11 8 10 7 10 48 43 48 44 39 -7 38 -6 6 10 6 10 -11 7 -12 7 7 -11 7
-12 -13 1 -13 0 -19 8 -19 7 41 17 42 17 20 0 20 0 0 -10 0 -10 11 0 11 0 -12
15 -12 15 6 0 7 0 32 -16 32 -16 19 -17 19 -16 -5 14 -4 15 -28 20 -27 21 -60
0 -59 0 0 -5z"/>
<path d="M1890 1660 l-14 -9 17 -7 17 -6 16 6 15 6 -6 10 -6 10 -12 0 -12 0
-15 -10z"/>
<path d="M2050 1659 l0 -17 15 -12 15 -12 0 9 0 9 -15 20 -14 19 -1 -16z"/>
<path d="M1830 1640 l0 -10 20 0 20 0 0 10 0 10 -20 0 -20 0 0 -10z"/>
<path d="M1755 1610 l6 -10 10 0 10 0 -6 10 -6 10 -10 0 -10 0 6 -10z"/>
<path d="M1838 1580 l4 -30 8 0 8 0 6 16 6 16 0 14 0 14 -18 0 -19 0 5 -30z"/>
<path d="M1888 1603 l12 -5 13 5 12 5 -25 0 -25 0 13 -5z"/>
<path d="M2057 1583 l-5 -28 6 -10 6 -9 8 29 7 30 -8 8 -8 8 -6 -28z"/>
<path d="M1806 1557 l-8 -28 6 -6 6 -6 6 5 6 6 -4 29 -4 28 -8 -28z"/>
<path d="M1950 1560 l0 -24 12 12 12 12 -12 12 -12 12 0 -24z"/>
<path d="M1655 1550 l-6 -10 10 0 11 0 0 10 0 10 -4 0 -5 0 -6 -10z"/>
<path d="M1707 1544 l-7 -7 0 -19 0 -19 16 16 17 16 -10 10 -9 9 -7 -6z"/>
<path d="M2082 1533 l-13 -5 -9 -24 -10 -24 10 -25 10 -25 12 1 13 1 -12 5
-13 5 0 39 0 39 15 0 15 0 0 10 0 10 -2 -1 -3 -1 -13 -5z"/>
<path d="M1830 1505 l0 -15 10 0 10 0 0 15 0 15 -10 0 -10 0 0 -15z"/>
<path d="M1744 1489 l-6 -11 11 -11 11 -11 0 22 0 22 -4 0 -5 0 -7 -11z"/>
<path d="M1787 1493 l-7 -6 0 -24 0 -23 10 0 10 0 0 30 0 30 -3 0 -4 0 -6 -7z"/>
<path d="M1702 1470 l0 -25 5 13 5 12 -5 13 -5 12 0 -25z"/>
<path d="M2091 1474 l1 -19 5 13 5 13 -6 6 -6 6 1 -19z"/>
<path d="M1648 1443 l13 -5 6 6 6 6 -19 -1 -19 -1 13 -5z"/>
<path d="M1820 1430 l0 -10 10 0 10 0 0 10 0 10 -10 0 -10 0 0 -10z"/>
<path d="M2099 1418 l-1 -3 -2 -22 -3 -23 9 0 8 0 0 25 0 25 -5 0 -5 0 -1 -2z"/>
<path d="M1790 1402 l0 -9 -12 -1 -13 -1 -42 -7 -43 -7 0 -8 0 -9 18 0 17 -1
28 -24 27 -24 0 -13 1 -13 8 15 8 15 6 48 7 47 -5 0 -5 0 0 -8z"/>
<path d="M1856 1393 l-7 -22 -17 -4 -17 -5 15 -1 15 -1 13 9 14 8 -4 19 -4 19
-8 -22z"/>
<path d="M2056 1338 l3 -73 2 -103 2 -103 7 -4 7 -5 6 43 6 42 -11 70 -10 69
6 52 6 52 -6 16 -6 16 -7 0 -7 0 2 -72z"/>
<path d="M1944 1379 l-7 -11 14 -8 13 -9 8 5 8 5 0 -12 0 -12 6 6 6 5 -7 21
-6 21 -14 0 -14 0 -7 -11z"/>
<path d="M1638 1315 l-3 -45 7 0 8 0 0 45 0 45 -4 0 -4 0 -4 -45z"/>
<path d="M1663 1320 l0 -45 4 23 4 22 -4 23 -4 22 0 -45z"/>
<path d="M1608 1305 l-4 -40 -11 26 -11 26 -24 6 -23 7 -53 0 -54 0 -43 -31
-42 -30 -20 -27 -20 -28 -5 -39 -5 -40 9 -80 8 -80 15 -52 15 -53 1 -59 1 -59
-23 -31 -23 -31 -33 -20 -33 -19 -40 -11 -41 -11 -57 11 -57 10 -65 34 -65 33
-90 17 -90 16 -46 0 -46 0 -43 -15 -43 -15 -41 -34 -41 -34 -13 -38 -13 -39
-8 -43 -8 -42 -6 -7 -7 -6 0 11 0 12 -11 0 -10 0 6 -10 6 -10 -20 0 -21 0 0
11 0 11 -34 -21 -33 -21 -15 0 -15 0 -41 -30 -42 -30 -10 0 -10 0 0 -10 0 -10
-25 -10 -25 -9 -31 -51 -31 -50 -8 0 -8 0 -7 -22 -7 -23 -7 -72 -7 -73 7 0 7
0 6 -24 6 -23 32 -7 32 -6 5 7 6 8 130 -5 130 -5 8 3 7 3 -22 19 -23 19 50 -1
50 0 -30 -7 -30 -7 55 -6 55 -6 50 3 50 3 5 3 5 3 -80 6 -80 6 130 1 130 0
-40 -7 -40 -6 40 -5 40 -4 -2 -12 -3 -13 14 0 14 0 -2 18 -1 17 -10 7 -10 8
21 0 21 0 -2 -25 -3 -25 24 0 24 0 0 11 0 12 -17 13 -18 13 18 1 17 0 0 -11 0
-11 33 3 32 3 -2 -12 -3 -12 9 0 10 0 6 20 6 20 34 0 33 0 5 -12 5 -13 1 13 1
13 13 -8 12 -8 8 -1 7 -1 8 -3 7 -2 -25 -8 -25 -8 50 -2 50 -2 42 -3 42 -3 5
14 5 14 43 -1 43 -1 -25 -9 -25 -9 100 6 100 5 48 6 48 6 -6 6 -7 6 -91 -1
-92 -1 78 4 78 4 -6 9 -6 10 25 0 26 0 0 16 0 16 15 -12 15 -12 15 12 15 12 0
-16 0 -16 -23 0 -23 0 -1 -20 -2 -20 19 0 18 0 5 -12 5 -13 11 15 10 15 75 -1
76 -1 0 9 0 8 -17 1 -18 2 40 7 40 7 -32 2 -32 1 -7 11 -6 11 -7 -10 -6 -10
-17 12 -17 13 9 29 8 29 1 -22 1 -23 30 0 30 0 0 -16 0 -16 16 6 16 6 24 6 24
6 0 -9 0 -10 33 4 32 4 15 6 15 5 -44 19 -44 20 -7 -12 -7 -11 -34 10 -34 9
-20 -3 -20 -3 -7 12 -8 12 0 9 0 8 25 -6 25 -6 0 23 0 24 7 7 7 7 -3 44 -3 45
13 0 13 0 -12 12 -13 13 -10 -15 -9 -15 6 -48 6 -47 -15 6 -15 5 5 19 5 18
-11 19 -10 18 -1 -30 0 -30 -20 -25 -20 -25 0 18 0 18 15 15 15 15 0 30 0 29
-9 0 -8 0 -6 -30 -6 -30 -16 0 -15 0 0 -10 0 -10 -50 0 -49 0 5 15 6 15 34 0
35 0 5 15 6 15 19 0 19 0 4 23 4 22 0 28 0 27 -14 0 -14 0 0 -8 0 -8 -57 -12
-58 -13 -50 -1 -50 0 24 -10 25 -9 13 5 13 5 0 -5 0 -5 -22 -8 -23 -8 -7 11
-7 11 -79 0 -79 0 4 -12 5 -12 -31 15 -31 15 -10 -6 -10 -6 5 -10 6 -9 -16 6
-16 7 5 12 4 13 -26 -13 -27 -13 -50 -6 -49 -6 9 9 10 10 40 4 40 3 -82 1 -83
0 -13 12 -14 11 -5 -5 -5 -6 -26 10 -26 10 -10 -17 -10 -17 -1 17 0 18 -12 -3
-13 -2 -5 -7 -5 -6 -32 -5 -33 -5 0 9 0 9 17 0 16 0 -7 7 -7 7 -44 2 -45 2 0
-9 0 -10 -30 16 -29 15 -7 0 -6 0 12 -15 13 -15 -4 -3 -4 -2 -22 -12 -23 -13
-5 23 -6 23 3 15 3 14 -32 3 -33 3 0 11 0 10 -13 -5 -14 -5 0 12 0 13 80 -19
80 -18 8 -6 8 -5 87 0 86 0 22 -8 21 -8 245 -18 245 -18 80 17 80 17 39 8 40
9 12 17 12 16 11 -18 11 -18 -6 31 -6 31 17 17 17 17 19 48 18 49 1 103 1 104
-26 135 -26 135 -14 68 -14 68 6 16 6 16 -11 -7 -12 -7 0 15 0 15 10 26 10 27
-9 16 -10 17 -3 -40z m-188 -59 l0 -5 -10 -6 -10 -6 0 10 0 11 10 0 10 0 0 -4z
m-60 -266 l0 -10 -11 0 -10 0 6 10 6 10 5 0 4 0 0 -10z m261 -57 l-10 -18 -1
16 0 16 7 6 6 7 5 -4 4 -4 -11 -19z m-230 -73 l2 -25 -1 -17 -2 -18 -7 0 -8 0
-3 52 -2 52 9 -9 10 -10 2 -25z m-615 -177 l-6 -6 -6 6 -6 6 8 12 8 13 4 -13
4 -12 -6 -6z m21 5 l-5 -13 -1 19 -1 19 6 -6 6 -6 -5 -13z m-117 -18 l0 -9
-15 5 -15 6 0 4 0 4 15 0 15 0 0 -10z m248 -31 l-3 -10 -8 0 -7 1 -22 1 -23 0
20 9 20 9 13 0 14 1 -4 -11z m-388 -35 l0 -15 -10 6 -10 6 5 10 6 9 5 0 4 0 0
-16z m206 -9 l-20 -15 -25 1 -26 1 20 5 20 5 10 9 9 9 16 0 15 -1 -19 -14z
m404 -17 l0 -8 -29 0 -30 0 -6 10 -6 10 -10 -5 -9 -6 0 14 0 13 45 -10 45 -11
0 -7z m-334 7 l29 -15 -22 0 -21 0 -16 6 -16 6 0 9 0 9 9 0 9 0 28 -15z m771
-7 l-5 -13 -1 19 -1 19 6 -6 6 -6 -5 -13z m-1087 8 l0 -5 -9 -6 -10 -5 -6 10
-6 10 15 0 16 0 0 -4z m498 -29 l22 1 0 -8 0 -9 -52 4 -53 4 -3 1 -3 0 6 10 6
10 27 -7 27 -7 23 1z m285 -51 l17 6 0 -10 0 -10 -16 -6 -16 -6 -13 0 -13 0 5
21 6 21 7 -11 7 -12 16 7z m-827 -44 l-5 -4 -10 7 -11 6 0 17 1 17 14 -19 15
-20 -4 -4z m-70 -3 l7 -11 -13 -8 -13 -8 7 -11 7 -11 -9 0 -10 0 -4 25 -5 25
5 5 5 5 8 0 8 0 7 -11z m-113 -31 l4 -13 -24 -1 -24 -2 18 14 18 13 1 1 2 0 5
-12z m207 -17 l0 -20 -9 -6 -10 -5 -7 12 -8 12 12 4 12 4 -6 9 -5 9 10 0 11 0
0 -19z m-142 -11 l-13 -20 -7 0 -8 0 0 14 0 14 13 5 12 5 8 1 7 1 -12 -20z
m89 14 l-6 -6 -13 5 -13 5 19 1 19 1 -6 -6z m-213 -40 l6 -15 -18 2 -17 1 -12
-1 -13 -1 0 -15 0 -15 -22 0 -23 1 18 13 17 13 0 13 0 12 15 -5 14 -6 6 9 6
10 9 0 8 0 6 -16z m133 -36 l-5 -13 0 25 0 25 5 -12 5 -13 -5 -12z m318 12
l18 -20 -11 0 -12 0 0 10 0 10 -15 0 -15 0 0 10 0 10 8 0 9 0 18 -20z m922 4
l6 -16 -15 -14 -14 -15 -25 10 -24 10 15 1 15 1 -20 9 -20 9 17 0 17 1 6 -10
6 -10 17 0 17 1 -17 10 -18 10 0 9 0 10 15 0 16 0 6 -16z m-1381 -24 l14 0 0
-14 0 -15 -10 -6 -10 -6 -10 26 -10 26 1 7 1 7 5 -12 5 -13 14 0z m684 16 l0
-5 -10 -6 -10 -6 0 10 0 11 10 0 10 0 0 -4z m83 -3 l-23 -4 -22 4 -23 4 45 0
45 0 -22 -4z m-635 -95 l-3 -7 -13 8 -13 8 7 39 8 39 8 -39 8 -40 -2 -8z m412
72 l0 -10 -10 0 -10 0 0 10 0 10 10 0 10 0 0 -10z m327 -12 l-5 -13 -1 19 -1
19 6 -6 6 -6 -5 -13z m-654 5 l-13 -5 -12 5 -13 5 25 0 25 0 -12 -5z m557 -9
l0 -4 -36 0 -35 0 5 8 5 9 31 -5 30 -4 0 -4z m-470 -5 l0 -10 10 6 10 6 -6
-15 -6 -16 -20 11 -21 11 -36 -5 -36 -6 25 14 25 14 28 1 27 0 0 -11z m80 -16
l0 -14 -12 8 -13 8 -9 0 -9 0 -4 11 -4 11 26 -4 25 -5 0 -15z m908 4 l4 -17
-29 12 -28 12 -10 9 -10 8 35 -3 35 -4 3 -17z m-778 9 l0 -5 -10 -6 -10 -6 0
10 0 11 10 0 10 0 0 -4z m602 -18 l-12 -12 0 10 0 11 7 6 6 7 6 -5 5 -5 -12
-12z m-495 6 l-6 -6 -13 5 -13 5 19 1 19 1 -6 -6z m-550 -26 l-5 -13 -1 19 -1
19 6 -6 6 -6 -5 -13z m1011 4 l4 -12 -16 0 -16 0 0 16 0 16 12 -4 12 -4 4 -12z
m-1168 -15 l15 -7 -19 3 -19 2 -4 15 -5 15 9 -11 8 -11 15 -6z m340 19 l0 -4
-20 -5 -20 -5 6 9 5 9 15 0 14 0 0 -4z m715 -6 l6 -10 -10 0 -11 0 0 10 0 10
4 0 5 0 6 -10z m263 -1 l37 -2 -30 -4 -30 -5 -12 -10 -13 -10 0 12 0 12 -15
-12 -14 -12 -11 7 -11 7 18 14 18 13 13 -4 14 -5 36 -1z m-215 -6 l-13 -5 -12
5 -13 5 25 0 25 0 -12 -5z m-996 -9 l-6 -6 -13 5 -13 5 19 1 19 1 -6 -6z m30
-56 l-4 -23 0 45 0 45 4 -22 4 -23 -4 -22z m112 25 l-1 -38 -8 25 -8 25 -1 13
-1 12 10 0 10 0 -1 -37z m233 3 l-17 -35 -19 13 -19 12 -8 22 -8 22 44 0 45 0
-18 -34z m-526 12 l8 -12 -12 -4 -12 -4 0 -13 0 -13 30 -7 30 -6 17 5 18 6 13
-9 14 -8 -33 -7 -32 -6 -13 -18 -13 -17 -1 26 0 27 -30 6 -30 6 0 15 0 15 10
0 10 0 0 15 0 15 9 0 10 0 7 -12z m109 -8 l6 -10 -20 0 -20 0 -6 10 -6 10 20
0 20 0 6 -10z m1285 0 l0 -10 -11 0 -10 0 6 10 6 10 5 0 4 0 0 -10z m-590 -15
l0 -15 -15 0 -14 0 5 15 6 15 9 0 9 0 0 -15z m-753 -21 l-6 -6 -10 7 -11 6 6
11 6 10 11 -11 11 -11 -7 -6z m318 16 l6 -10 -10 0 -11 0 0 10 0 10 4 0 5 0 6
-10z m95 -20 l23 -20 -7 -7 -6 -7 -12 12 -12 12 -18 0 -18 0 0 -16 0 -16 -12
4 -12 4 -3 10 -3 9 27 17 28 17 1 1 1 0 23 -20z m403 6 l17 6 0 -11 0 -11 -17
-1 -18 -1 -15 2 -15 2 -5 4 -4 5 14 9 14 9 7 -10 6 -10 16 7z m667 -1 l0 -15
-15 0 -14 0 5 15 6 15 9 0 9 0 0 -15z m-765 -5 l6 -10 -10 0 -11 0 0 10 0 10
4 0 5 0 6 -10z m179 -21 l-6 -10 -14 12 -14 11 0 10 0 9 20 -11 21 -11 -7 -10z
m503 14 l13 -12 0 -13 -1 -13 -10 18 -10 17 -14 0 -15 0 0 10 0 10 12 -2 13
-3 12 -12z m-1100 -25 l-5 -13 -1 19 -1 19 6 -6 6 -6 -5 -13z m304 -58 l21 0
-7 40 -7 40 15 0 15 0 4 -45 3 -45 -110 1 -110 2 21 4 22 4 7 22 8 22 4 -22 4
-23 10 0 9 0 0 19 0 20 10 6 10 6 0 -25 0 -26 15 0 15 0 1 43 1 42 10 -42 9
-43 20 0z m362 73 l-13 -5 -12 5 -13 5 25 0 25 0 -12 -5z m120 0 l-13 -5 -17
5 -18 5 30 0 30 0 -12 -5z m-1132 -73 l29 0 0 -11 0 -10 10 6 10 6 -5 10 -6 9
18 0 18 0 25 13 25 13 45 -8 45 -8 15 -16 15 -16 -55 3 -55 2 -33 -1 -33 -2 5
-9 6 -9 -14 -5 -14 -6 -20 6 -20 5 -6 -11 -7 -11 -15 0 -14 0 0 9 0 9 28 11
27 11 -32 -3 -32 -3 -6 14 -5 14 1 26 1 27 10 -32 11 -33 28 0z m1189 46 l0
11 30 -5 30 -4 0 -9 0 -8 -10 -6 -11 -7 -13 11 -12 11 -22 -5 -22 -4 -8 -5 -9
-5 -74 -7 -74 -6 -7 -4 -7 -4 -5 9 -6 9 -45 -4 -45 -4 0 20 0 20 15 0 15 0 0
-7 0 -8 120 0 119 0 12 12 13 13 8 -13 8 -12 0 11z m-754 -45 l-7 -11 -9 0 -8
0 5 21 6 20 9 -9 10 -10 -6 -11z m342 -1 l27 0 32 9 32 9 4 -11 4 -12 -26 -1
-26 -1 -52 -7 -53 -8 0 11 0 11 10 0 10 0 1 18 1 17 5 -17 4 -18 27 0z m720
-11 l17 0 -20 -8 -20 -8 -6 3 -6 4 6 27 5 28 4 -22 3 -23 17 -1z m-1134 16 l5
-15 -47 2 -47 1 38 4 37 4 0 10 0 9 4 0 4 0 6 -15z m969 2 l5 -13 -19 0 -19 0
0 13 0 13 14 0 14 0 5 -13z m-408 -17 l6 -10 -10 0 -10 0 -6 10 -6 10 10 0 10
0 6 -10z m49 -6 l6 -16 53 4 52 5 -22 -4 -23 -4 0 -8 0 -7 -51 -1 -51 -2 6 15
6 16 0 9 0 9 9 0 9 0 6 -16z m93 10 l-6 -6 -13 5 -13 5 19 1 19 1 -6 -6z m70
0 l-6 -6 -13 5 -13 5 19 1 19 1 -6 -6z m-917 -21 l-25 -5 -6 -10 -6 -10 -21
13 -20 13 -16 -13 -16 -13 0 16 0 16 68 -1 67 -2 -25 -4z"/>
<path d="M2112 1305 l0 -30 5 18 5 17 -5 13 -5 12 0 -30z"/>
<path d="M1690 1296 l0 -15 9 -5 9 -6 -5 20 -5 20 -4 0 -4 0 0 -14z"/>
<path d="M1790 1274 l0 -27 18 16 19 17 33 0 33 0 -5 5 -5 6 -47 5 -46 6 0
-28z"/>
<path d="M1730 1260 l0 -20 12 3 12 2 11 -22 10 -23 7 0 8 0 0 18 0 17 -6 23
-6 22 -24 0 -24 0 0 -20z"/>
<path d="M1930 1238 l0 -41 4 4 3 4 6 38 6 37 -10 0 -9 0 0 -42z"/>
<path d="M1966 1263 l-4 -18 -7 -22 -6 -23 15 0 16 0 0 40 0 40 -4 0 -5 0 -5
-17z"/>
<path d="M1655 1260 l-6 -10 -1 -49 0 -50 7 -11 6 -10 11 6 11 7 -6 -44 -6
-45 14 -39 14 -40 1 33 0 32 -10 0 -10 0 0 16 0 15 14 15 15 14 4 -32 4 -33 1
43 2 42 15 0 15 0 0 -40 0 -40 13 0 13 0 2 40 3 40 -13 0 -13 1 18 14 19 14
-19 25 -18 25 -17 1 -18 0 0 10 0 10 -11 0 -11 0 4 -50 3 -49 -23 27 -23 27 5
22 6 23 6 25 6 25 -10 0 -11 0 -6 -10z m75 -101 l0 -19 -10 0 -10 0 0 26 0 25
10 -6 10 -6 0 -20z"/>
<path d="M1902 1220 l0 -25 5 13 5 12 -5 13 -5 12 0 -25z"/>
<path d="M2030 1210 l0 -10 10 0 10 0 0 10 0 10 -10 0 -10 0 0 -10z"/>
<path d="M2106 1202 l-8 -24 6 -5 6 -6 6 5 6 6 -4 24 -4 23 -8 -23z"/>
<path d="M1816 1198 l5 -8 10 0 9 0 0 8 0 9 -15 0 -14 0 5 -9z"/>
<path d="M1682 1180 l0 -25 5 13 5 12 -5 13 -5 12 0 -25z"/>
<path d="M1803 1125 l-13 -14 0 -8 0 -8 45 0 45 0 0 13 0 14 -14 -5 -15 -6 6
15 5 14 -23 0 -24 -1 -12 -14z"/>
<path d="M1651 1104 l1 -19 5 13 5 13 -6 6 -6 6 1 -19z"/>
<path d="M1900 1105 l0 -15 10 0 10 0 0 15 0 15 -10 0 -10 0 0 -15z"/>
<path d="M1940 1104 l0 -15 10 6 10 6 0 10 0 9 -10 0 -10 0 0 -16z"/>
<path d="M2108 1085 l4 -35 4 0 4 0 0 35 0 35 -8 0 -8 0 4 -35z"/>
<path d="M1786 1031 l-6 -9 -35 -6 -35 -7 0 -13 0 -14 24 -6 25 -6 -6 -34 -5
-33 11 -7 11 -7 0 22 0 21 20 -5 20 -5 0 19 0 19 -12 0 -11 0 17 19 18 20 -7
20 -6 21 -9 0 -9 0 -5 -9z"/>
<path d="M1854 1025 l18 -14 -6 -28 -6 -28 11 18 11 18 -6 25 -6 24 -18 0 -17
-1 19 -14z"/>
<path d="M1913 1000 l2 -40 11 0 11 0 -5 25 -4 25 12 15 12 15 -20 0 -20 0 1
-40z"/>
<path d="M2070 1020 l0 -21 -10 6 -10 6 0 -9 0 -10 14 -5 14 -6 5 25 4 24 -8
6 -9 5 0 -21z"/>
<path d="M2106 1031 l-8 -12 6 -6 6 -6 6 6 6 6 -4 12 -4 13 -8 -13z"/>
<path d="M2031 984 l1 -19 5 13 5 13 -6 6 -6 6 1 -19z"/>
<path d="M2105 991 l-5 -10 10 -6 10 -6 0 15 0 16 -4 0 -5 0 -6 -9z"/>
<path d="M2069 908 l4 -63 4 18 5 17 11 -6 12 -7 -12 14 -13 13 0 38 0 38 -7
0 -8 0 4 -62z"/>
<path d="M1692 935 l0 -30 5 18 5 17 -5 13 -5 12 0 -30z"/>
<path d="M1720 911 l0 -49 -6 -19 -6 -18 10 15 10 15 7 46 7 47 -11 6 -11 7 0
-50z"/>
<path d="M1783 883 l6 -10 -8 -29 -8 -29 7 -53 7 -53 -15 6 -14 5 -10 0 -11 0
7 65 7 65 5 17 6 18 -11 -15 -11 -15 0 -30 0 -30 -9 14 -9 14 -3 -57 -4 -57
23 -6 22 -5 19 -24 19 -25 7 11 7 11 -12 14 -12 15 11 0 11 0 0 39 0 40 -16
15 -15 16 10 0 11 0 0 34 0 35 -12 7 -11 7 6 -10z"/>
<path d="M1932 840 l0 -25 5 13 5 12 -5 13 -5 12 0 -25z"/>
<path d="M1826 835 l-6 -17 0 -9 0 -9 15 0 15 0 0 13 0 12 -9 13 -8 14 -7 -17z"/>
<path d="M2070 756 l0 -87 9 6 10 5 -5 77 -4 77 -5 4 -5 5 0 -87z"/>
<path d="M1975 820 l6 -10 10 0 9 0 0 10 0 10 -16 0 -15 0 6 -10z"/>
<path d="M1827 740 l-5 -20 14 0 14 0 0 20 0 20 -9 0 -9 0 -5 -20z"/>
<path d="M1835 698 l-3 -13 -8 -40 -7 -40 -4 18 -4 17 -16 0 -15 0 7 -42 6
-43 -17 20 -16 20 6 -28 7 -29 -12 -14 -11 -14 11 0 12 0 5 15 6 15 9 -6 9 -5
6 15 6 16 9 0 9 0 0 -40 0 -40 6 0 7 0 13 18 13 17 1 -17 0 -16 -12 -4 -13 -5
17 -16 17 -17 10 0 10 0 13 18 13 19 10 4 10 4 -12 35 -12 35 0 -37 -1 -38
-20 0 -20 0 0 31 0 30 -9 -5 -9 -6 -6 15 -5 15 13 0 14 0 -5 21 -6 22 -19 4
-18 5 0 14 0 14 23 0 22 1 -18 10 -17 10 6 25 6 24 -6 0 -7 0 -4 -12z"/>
<path d="M2102 690 l0 -25 5 13 5 12 -5 13 -5 12 0 -25z"/>
<path d="M2078 640 l-7 -25 -4 -53 -4 -53 13 5 14 5 6 -27 6 -27 3 -10 3 -10
1 43 1 43 -15 16 -15 15 6 10 7 10 8 -13 9 -14 -1 45 -1 45 -8 -25 -7 -25 -5
35 -4 35 -6 -25z"/>
<path d="M1741 624 l1 -19 5 13 5 13 -6 6 -6 6 1 -19z"/>
<path d="M1910 597 l0 -37 9 0 9 0 6 22 5 23 -14 15 -15 14 0 -37z"/>
<path d="M1977 608 l-7 -18 -4 -13 -4 -14 8 -14 9 -13 6 6 6 6 -3 38 -4 39 -7
-17z"/>
<path d="M1706 565 l-6 -17 0 -6 1 -7 10 18 11 19 -5 4 -5 5 -6 -16z"/>
<path d="M1730 545 l0 -15 10 0 10 0 0 15 0 15 -10 0 -10 0 0 -15z"/>
<path d="M1698 518 l-17 -13 14 -12 13 -12 5 25 4 24 -1 0 -2 0 -16 -12z"/>
<path d="M1720 496 l0 -16 10 0 10 0 0 9 0 10 -10 6 -10 6 0 -15z"/>
<path d="M1780 501 l0 -9 6 -17 7 -17 7 13 8 12 -5 14 -5 13 -9 0 -9 0 0 -9z"/>
<path d="M1662 469 l-14 -21 11 -11 11 -11 6 6 6 6 -4 26 -3 27 -13 -22z"/>
<path d="M1820 440 l0 -20 10 0 10 0 0 20 0 20 -10 0 -10 0 0 -20z"/>
<path d="M2096 418 l-7 -23 -8 19 -8 20 -8 -13 -8 -13 14 -9 14 -9 13 0 12 0
0 25 0 25 -4 0 -4 0 -6 -22z"/>
<path d="M1665 404 l11 -4 -4 -40 -4 -40 16 0 16 0 0 33 0 33 -12 12 -12 12
-10 -1 -11 -1 10 -4z"/>
<path d="M1707 399 l13 -13 5 6 6 6 -18 6 -18 7 12 -12z"/>
<path d="M1830 365 l0 -40 -10 15 -10 15 0 -17 0 -18 10 0 9 0 11 19 10 20 -9
23 -10 23 -1 -40z"/>
<path d="M1941 384 l1 -19 5 13 5 13 -6 6 -6 6 1 -19z"/>
<path d="M988 363 l13 -5 6 6 6 6 -19 -1 -19 -1 13 -5z"/>
<path d="M1770 360 l0 -10 11 0 10 0 -6 10 -6 10 -5 0 -4 0 0 -10z"/>
<path d="M1885 347 l-7 -18 6 -6 6 -6 6 6 6 5 -5 19 -4 18 -8 -18z"/>
<path d="M2077 354 l-6 -6 6 -14 5 -15 14 12 14 11 -6 9 -5 9 -8 0 -8 0 -6 -6z"/>
<path d="M1920 335 l0 -15 10 0 10 0 0 15 0 15 -10 0 -10 0 0 -15z"/>
<path d="M1855 330 l-6 -10 10 0 11 0 0 10 0 10 -4 0 -5 0 -6 -10z"/>
<path d="M1791 304 l1 -19 5 13 5 13 -6 6 -6 6 1 -19z"/>
<path d="M1750 280 l0 -30 22 -25 23 -26 10 14 10 14 15 6 15 5 -16 1 -16 1
-11 23 -11 22 0 -22 -1 -23 12 0 11 0 -7 -7 -8 -8 -14 19 -14 20 0 23 0 23
-10 0 -10 0 0 -30z"/>
<path d="M1840 280 l0 -20 9 0 9 0 5 14 6 14 -6 6 -6 6 -9 0 -8 0 0 -20z"/>
<path d="M2078 272 l-5 -18 5 -32 4 -32 9 0 8 0 -2 50 -2 50 -6 0 -7 0 -4 -18z"/>
<path d="M1916 254 l-6 -17 11 -13 11 -14 12 1 11 1 -12 5 -13 5 0 9 0 9 22 0
22 0 -20 15 -19 14 -6 1 -7 0 -6 -16z"/>
<path d="M2031 224 l1 -19 5 13 5 13 -6 6 -6 6 1 -19z"/>
<path d="M1855 221 l-5 -10 10 -6 10 -6 10 6 10 6 -5 10 -6 9 -9 0 -9 0 -6 -9z"/>
<path d="M1820 190 l0 -10 10 0 10 0 0 10 0 10 -10 0 -10 0 0 -10z"/>
<path d="M1888 183 l-4 -18 4 -18 4 -18 16 3 15 3 5 13 4 12 -18 0 -18 0 12
12 12 12 0 8 0 8 -14 0 -14 0 -4 -17z"/>
<path d="M1948 158 l10 -10 18 4 19 4 -28 6 -29 6 10 -10z"/>
<path d="M2078 152 l-4 -17 6 -55 6 -55 5 68 4 69 -6 4 -7 4 -4 -18z"/>
<path d="M1768 73 l13 -5 6 6 6 6 -19 -1 -19 -1 13 -5z"/>
<path d="M1810 40 l0 -20 14 0 14 0 -5 20 -5 20 -9 0 -9 0 0 -20z"/>
<path d="M900 39 l0 -10 10 6 10 6 0 5 0 4 -10 0 -10 0 0 -11z"/>
<path d="M1608 28 l12 -12 12 12 12 12 -24 0 -24 0 12 -12z"/>
<path d="M1975 30 l6 -10 10 5 9 6 0 5 0 4 -16 0 -15 0 6 -10z"/>
<path d="M1728 23 l22 -4 23 4 22 4 -45 0 -45 0 23 -4z"/>
<path d="M898 13 l13 -5 6 6 6 6 -19 -1 -19 -1 13 -5z"/>
</g>
</svg>
