<?xml version="1.0" standalone="no"?>
<!DOCTYPE svg PUBLIC "-//W3C//DTD SVG 20010904//EN"
 "http://www.w3.org/TR/2001/REC-SVG-20010904/DTD/svg10.dtd">
<svg version="1.0" xmlns="http://www.w3.org/2000/svg"
 viewBox="0 0 230.000000 203.000000"
 preserveAspectRatio="xMidYMid meet">
<metadata>
Created by potrace 1.16, written by Peter Selinger 2001-2019
</metadata>
<g transform="translate(0.000000,203.000000) scale(0.100000,-0.100000)"
fill="#9E1A1A" stroke="none">
<path d="M90 2013 l-35 -4 -14 -5 -14 -5 23 -24 23 -25 5 5 5 5 -19 21 -19 22
23 -12 22 -12 0 13 0 13 19 -24 18 -24 10 6 11 7 11 -14 11 -13 -7 -6 -6 -7
-18 0 -18 0 -9 16 -9 17 -7 -11 -6 -10 16 -16 16 -16 8 5 8 5 31 -31 31 -30
10 6 10 6 10 -25 10 -26 5 0 6 0 -5 8 -4 7 14 20 15 20 -5 -41 -5 -42 36 -31
36 -32 19 -10 20 -11 19 5 19 5 6 -9 5 -9 -15 0 -16 0 0 -5 0 -5 17 -20 17
-20 9 0 8 0 -6 10 -6 10 15 -6 15 -6 -6 -14 -6 -15 21 -6 20 -5 5 -20 6 -20
20 7 21 6 0 -9 0 -10 -12 -6 -13 -6 24 6 23 6 -4 -13 -5 -14 15 -14 14 -15 39
3 39 2 6 -16 6 -15 13 0 14 0 31 -28 31 -29 -11 -29 -10 -29 15 20 16 20 17
-11 17 -11 3 -17 3 -16 -14 0 -15 0 -5 13 -4 12 -9 -8 -8 -7 24 -17 24 -17 17
-17 17 -17 6 6 6 5 0 -16 0 -16 30 -18 30 -17 0 -18 0 -18 14 0 14 0 12 -15
12 -15 9 6 9 5 0 -19 0 -19 26 -19 26 -19 54 -53 55 -54 15 6 15 6 -6 -11 -7
-10 18 -20 17 -19 18 5 19 6 17 -11 18 -10 -29 6 -29 7 5 -14 5 -14 12 2 11 3
0 -10 0 -10 41 -38 42 -37 20 -14 19 -14 8 13 8 12 6 -10 6 -10 -12 -6 -13 -6
12 -6 12 -5 45 -44 46 -44 0 -12 0 -11 15 12 15 13 -6 -17 -7 -17 24 -17 24
-17 8 3 8 2 -6 -10 -6 -10 18 -7 18 -7 38 -39 39 -39 6 7 6 6 -10 7 -9 7 -17
26 -17 27 22 6 21 5 4 -4 5 -5 -13 -15 -13 -15 6 -7 7 -6 6 17 6 16 14 0 13 0
10 -17 10 -18 18 18 18 18 -15 -6 -16 -6 -23 24 -22 24 26 5 25 5 6 -9 6 -9
14 5 13 5 -6 -15 -5 -14 10 0 10 0 5 -14 6 -15 -15 6 -14 5 0 -11 0 -11 -15 0
-16 0 3 -17 3 -18 13 -14 13 -13 -6 -6 -5 -6 -13 16 -12 16 -22 7 -23 6 0 -8
0 -9 35 -33 35 -33 0 -9 0 -10 10 6 10 6 -5 9 -5 9 11 7 12 7 -7 -11 -6 -11
11 -7 11 -6 -13 -9 -14 -9 15 -10 15 -10 7 0 7 0 -5 14 -5 14 11 7 12 7 11
-11 11 -11 -16 0 -16 0 2 -17 1 -16 75 -73 75 -72 14 11 14 12 -7 -23 -7 -22
9 0 9 0 86 -85 86 -85 6 0 6 0 -22 33 -22 32 31 -29 30 -28 -3 -12 -4 -11 24
-18 25 -18 -19 34 -20 35 7 8 7 7 -13 -7 -13 -8 6 25 7 25 -18 -1 -18 -2 -4
55 -3 55 15 -20 15 -20 1 -17 0 -18 10 0 10 0 1 18 1 17 -2 28 -2 27 7 30 7
30 14 0 14 0 0 -18 0 -18 -12 -12 -12 -12 -1 -55 -1 -55 4 0 3 0 9 22 10 23
-5 -30 -4 -30 8 -55 9 -55 1 65 2 65 9 74 10 75 -11 7 -11 7 11 3 11 4 7 109
6 109 -11 -7 -11 -6 6 57 6 58 9 3 8 4 0 14 0 14 -9 0 -9 0 -5 -12 -5 -13 1
29 2 29 -17 2 -18 3 0 -29 0 -30 10 6 10 6 0 -28 0 -28 -10 15 -10 15 0 -23 0
-23 -9 5 -8 5 5 98 4 98 10 15 9 15 -5 -45 -6 -45 8 -12 8 -12 14 9 15 10 -12
0 -13 0 0 33 0 32 10 -15 10 -15 0 35 0 36 -12 12 -12 12 10 0 10 0 -4 38 -4
37 11 -10 10 -10 4 -105 4 -105 -3 215 -4 215 0 224 0 224 -4 -4 -4 -4 -3
-107 -4 -108 -12 0 -13 0 0 23 0 23 12 12 12 12 -10 0 -10 0 -12 -12 -12 -12
0 4 -1 5 -4 62 -5 62 11 7 12 7 -6 -39 -6 -39 5 13 6 12 7 -4 7 -5 -6 57 -7
57 9 34 10 33 -13 12 -12 11 6 -18 6 -17 -8 -23 -9 -22 -7 -19 -6 -19 -11 11
-11 11 12 15 13 15 -21 30 -21 30 10 6 10 6 -6 24 -6 23 11 6 11 7 -7 -18 -6
-18 19 17 18 18 -12 12 -12 12 0 20 0 19 -7 -7 -8 -8 0 -19 0 -19 -10 0 -10
-1 -7 38 -6 38 9 9 8 9 7 -16 6 -17 9 0 9 0 0 34 0 34 -15 12 -15 12 0 -11 0
-12 -19 10 -18 10 -7 -6 -6 -6 0 17 0 18 -55 -4 -55 -3 0 13 0 13 -17 -3 -18
-4 2 -29 2 -30 11 -175 10 -175 9 -69 9 -68 11 -11 11 -11 0 -9 0 -8 -10 6
-10 6 0 -55 0 -56 9 0 10 0 4 28 4 27 2 -30 1 -31 20 -14 20 -14 0 -9 0 -9
-15 12 -15 13 -7 -7 -6 -6 22 -19 22 -19 -21 -15 -20 -14 16 -14 16 -13 -22
-8 -21 -8 6 -10 6 -10 19 10 18 10 7 -40 7 -39 -6 -58 -6 -58 9 20 10 20 0
-17 1 -16 6 -19 6 -18 -10 13 -9 14 -1 -56 0 -55 -13 -34 -12 -35 12 -68 12
-69 3 -25 3 -25 -4 17 -4 18 -8 0 -7 0 0 -85 1 -85 -6 0 -5 0 -13 12 -13 13
-5 -12 -5 -13 -9 0 -9 0 -40 26 -40 27 0 13 0 14 -15 0 -14 0 -33 34 -33 35
-39 45 -39 45 -20 -2 -20 -2 -4 15 -5 15 11 -15 10 -14 8 8 8 8 -25 20 -25 20
-40 34 -39 34 -9 0 -8 0 6 9 5 10 -30 -1 -31 -1 -5 -9 -5 -8 11 0 11 0 -6 -11
-7 -10 -4 4 -5 5 -5 28 -4 29 9 -14 9 -13 5 13 5 14 11 -15 11 -15 0 8 0 8 -9
18 -10 18 -58 44 -58 44 -3 8 -4 7 -14 0 -15 0 5 8 5 9 -69 68 -69 69 -8 -8
-7 -7 14 -10 15 -11 -15 5 -15 4 0 16 0 16 -34 35 -35 36 -4 -4 -4 -4 -47 46
-48 47 -29 27 -29 27 -37 -8 -38 -9 7 11 6 10 -16 -6 -17 -6 0 19 0 20 9 0 9
0 5 -14 5 -13 26 0 26 0 0 8 0 9 -25 6 -25 6 -34 39 -33 39 -16 -5 -15 -6 -7
10 -6 11 -10 0 -10 0 11 -19 10 -19 19 5 19 5 6 -11 7 -11 -20 0 -21 0 0 -10
0 -11 13 2 12 1 19 -1 19 -1 -7 -7 -7 -8 -34 0 -34 0 -6 20 -6 20 -9 -20 -9
-20 0 28 -1 27 -10 0 -10 0 -21 18 -22 17 -16 18 -15 17 -15 0 -15 0 13 13 12
12 13 -17 13 -18 6 6 5 6 12 -21 11 -21 9 0 9 0 17 31 16 32 -43 41 -44 42
-90 80 -90 80 -137 123 -138 122 -9 -5 -9 -6 -6 15 -5 15 -78 -2 -78 -1 -35
-4z m80 -23 l0 -10 -19 0 -20 0 -6 10 -6 10 25 0 26 0 0 -10z m54 4 l16 -6 -5
-7 -4 -8 36 -1 37 -2 9 -15 8 -15 8 4 8 5 0 -13 0 -13 -21 1 -21 1 1 18 2 17
-8 0 -8 0 -7 -42 -7 -41 -17 20 -16 20 -17 6 -17 6 -4 -27 -5 -27 3 60 3 60 1
3 1 2 4 0 4 0 16 -6z m146 -69 l12 -15 -10 0 -10 0 -6 15 -5 15 3 0 4 0 12
-15z m1650 6 l0 -9 20 5 20 5 0 -13 1 -14 13 18 13 17 17 -6 16 -6 0 -13 0
-13 18 2 17 1 -2 -15 -2 -15 -14 -37 -13 -38 -8 -7 -7 -7 7 17 6 17 -33 13
-34 12 -23 -2 -22 -2 10 19 10 19 0 6 0 6 -10 -6 -10 -6 0 8 0 8 -6 23 -6 22
11 0 11 0 0 -9z m-1715 -21 l6 -10 -15 0 -16 0 0 10 0 10 9 0 10 0 6 -10z
m102 -23 l8 -12 42 -28 42 -29 -6 -14 -5 -14 -15 0 -15 0 12 15 12 15 -8 1 -9
1 -6 0 -7 -1 -26 24 -27 25 -6 0 -5 0 5 -14 6 -15 -15 6 -15 6 10 10 9 9 -5
14 -5 14 10 0 11 0 8 -13z m-108 -43 l-11 -14 -9 0 -9 0 12 19 12 20 8 -6 9
-5 -12 -14z m17 -32 l1 -27 -4 13 -5 12 -10 0 -9 0 7 -22 7 -22 -17 17 -17 16
18 21 17 20 6 0 5 0 1 -28z m65 15 l-1 -7 -7 -1 -7 0 -4 12 -4 12 12 -4 12 -4
-1 -8z m1659 -7 l0 -10 -11 0 -10 0 6 10 6 10 5 0 4 0 0 -10z m107 -22 l-5
-13 -1 19 -1 19 6 -6 6 -6 -5 -13z m-58 -14 l-11 -14 -8 5 -8 5 -16 -6 -16 -6
6 -54 7 -54 -11 0 -10 0 -4 54 -3 54 12 11 12 11 16 0 15 0 0 10 0 9 15 -5 16
-6 -12 -14z m-1745 1 l-6 -15 12 0 11 0 -6 -10 -7 -11 -12 10 -13 11 -9 -8 -9
-7 19 23 19 22 3 0 3 0 -5 -15z m209 -32 l15 -12 6 7 7 6 -7 -17 -6 -17 -9 0
-9 0 -18 18 -19 19 -17 6 -18 7 12 14 11 15 19 -17 19 -17 14 -12z m1573 8
l-6 -9 28 -7 27 -7 -12 -5 -12 -4 6 -15 5 -14 -32 0 -31 0 8 13 7 12 -3 23 -2
22 11 0 11 0 -5 -9z m-1672 -60 l-4 -4 -4 4 -4 4 -7 30 -6 30 14 -30 14 -30
-3 -4z m1624 39 l17 0 -11 -8 -11 -7 -11 -20 -11 -20 1 40 1 40 5 -13 4 -12
16 0z m-1472 -32 l19 -21 -10 6 -11 6 1 -29 0 -28 9 6 9 5 -6 -16 -6 -16 14 6
15 5 10 -26 10 -26 10 0 10 0 0 -10 0 -10 -16 0 -15 0 -35 36 -34 37 0 13 0
14 -10 0 -11 0 10 19 10 18 -5 6 -6 6 7 10 6 11 3 0 3 0 19 -22z m-43 -20 l-5
-9 -14 12 -14 11 0 9 0 9 19 -12 20 -12 -6 -8z m-44 -14 l4 -4 -4 -4 -4 -4
-27 5 -28 5 6 10 6 9 21 -7 22 -6 4 -4z m125 -12 l-6 -17 11 15 10 14 8 -7 7
-8 -14 -9 -15 -9 -18 16 -17 17 12 7 12 8 8 -5 7 -5 -5 -17z m1486 8 l0 -20
-10 0 -10 0 0 11 0 10 -10 -6 -10 -6 0 10 0 9 13 5 12 5 8 1 7 1 0 -20z m41
-37 l1 -38 2 -37 1 -38 -8 0 -8 0 6 -21 7 -21 0 -46 1 -47 10 -7 11 -6 -13
-16 -13 -16 -7 0 -6 0 -17 53 -18 54 0 11 0 11 15 -5 15 -6 -2 31 -2 31 -9 0
-9 0 11 14 11 13 -4 47 -5 47 6 15 5 14 9 0 9 0 1 -37z m-1459 -10 l28 -27 0
-15 0 -14 6 6 7 7 18 -22 19 -21 0 8 0 8 20 -18 20 -18 0 -13 0 -13 -12 -7
-11 -7 -17 21 -18 21 -7 -7 -7 -7 2 15 2 15 -1 12 -1 12 -12 -4 -13 -4 -33 30
-33 29 6 10 6 10 -18 -7 -18 -7 14 17 13 17 6 0 6 0 28 -27z m1339 3 l9 5 0
-25 0 -26 -17 0 -18 0 14 9 13 9 -11 6 -11 7 1 17 1 17 5 -13 5 -12 9 6z
m-1471 -48 l0 -10 -15 12 -15 12 0 4 0 3 15 -5 15 -6 0 -10z m1506 -8 l0 -20
-14 -5 -14 -5 6 16 6 16 0 9 0 9 8 0 8 0 0 -20z m-1458 -28 l4 -14 -18 4 -17
3 -5 13 -4 14 18 -4 17 -3 5 -13z m82 -3 l0 -20 23 6 22 6 -15 -10 -15 -11 -7
0 -7 0 -15 16 -16 16 5 9 6 9 10 0 9 0 0 -21z m1340 -5 l0 -15 8 4 7 5 -1 -34
-1 -34 -6 -7 -7 -6 -4 14 -5 14 -5 43 -6 43 10 -6 10 -6 0 -15z m159 -81 l1
-13 -10 0 -10 0 1 33 0 32 9 -20 9 -20 0 -12z m-110 -50 l0 -38 -9 23 -9 22 5
15 6 15 4 0 4 0 -1 -37z m145 -38 l13 -10 0 -65 1 -65 -9 23 -9 23 6 33 5 34
-16 15 -15 16 1 23 1 23 5 -20 5 -20 12 -10z m-183 -8 l-12 -12 7 18 6 18 6
-6 6 -5 -13 -13z m-1174 0 l11 4 -5 -20 -5 -21 -10 0 -9 0 7 12 7 11 -16 -6
-17 -6 0 9 0 9 -15 -5 -15 -6 0 15 0 16 28 -8 27 -8 12 4z m1210 -19 l-5 -13
-1 19 -1 19 6 -6 6 -6 -5 -13z m100 -40 l-5 -13 -1 19 -1 19 6 -6 6 -6 -5 -13z
m-1147 2 l0 -10 -17 0 -16 0 4 -4 4 -3 28 -7 29 -7 -8 13 -7 13 18 -17 17 -16
-3 -10 -4 -11 -50 24 -50 23 25 10 25 11 3 0 2 1 0 -10z m-122 -16 l16 -16
-19 3 -18 4 -5 13 -4 12 7 0 6 0 17 -16z m1202 -46 l0 -42 -9 10 -8 9 -7 26
-6 26 7 7 6 6 9 0 8 0 0 -42z m30 32 l0 -10 -4 0 -5 0 -6 10 -6 10 10 0 11 0
0 -10z m43 -22 l6 -23 11 -135 11 -135 -7 -82 -6 -83 -17 -18 -16 -19 0 63 0
64 13 0 12 0 0 10 0 10 -10 0 -10 0 1 33 0 32 9 -20 9 -20 2 20 2 20 -2 15 -2
15 -4 40 -4 40 -5 89 -6 88 -6 9 -5 9 9 0 10 0 5 -22z m-1148 -28 l-6 -10 -24
17 -24 18 -1 8 0 8 30 -16 31 -16 -6 -9z m185 -79 l25 -23 -22 11 -22 11 -6
-10 -6 -10 -15 0 -14 0 0 10 0 9 14 -5 14 -5 6 9 5 9 -24 11 -25 12 0 10 0 11
-10 -6 -10 -6 0 15 0 16 -9 0 -9 0 -6 16 -6 15 47 -38 48 -38 25 -24z m1021
32 l1 -28 3 -60 2 -60 8 -18 8 -18 -11 -22 -11 -22 -3 -14 -4 -15 -1 65 -1 64
-6 78 -6 77 10 0 10 0 1 -27z m-1151 7 l0 -10 -10 0 -10 0 0 10 0 10 10 0 10
0 0 -10z m53 -47 l-5 -13 -8 0 -8 0 -14 23 -15 22 4 11 4 12 23 -21 24 -21 -5
-13z m967 25 l0 -23 -10 15 -10 15 0 8 0 7 10 0 10 0 0 -22z m-1077 -3 l6 -14
-9 -6 -9 -6 -11 21 -11 20 15 0 14 0 5 -15z m56 -42 l4 -3 -15 0 -16 0 -6 16
-6 17 17 -14 18 -13 4 -3z m1071 -23 l0 -50 -10 0 -10 0 0 43 0 44 7 6 6 7 4
0 3 0 0 -50z m-918 -42 l-12 -12 -5 6 -5 5 6 17 7 17 10 -10 11 -11 -12 -12z
m-39 -1 l15 -24 -8 -13 -8 -13 -7 22 -7 22 -20 -7 -20 -6 11 21 12 21 8 0 9 0
15 -23z m83 14 l14 11 0 -10 0 -11 -18 -10 -18 -9 -1 21 -1 22 5 -13 5 -13 14
12z m-151 -21 l6 -10 -10 0 -10 0 -6 10 -6 10 10 0 10 0 6 -10z m195 2 l0 -9
-15 0 -14 0 5 9 5 8 10 0 9 0 0 -8z m-146 -48 l6 -17 -15 13 -15 12 0 4 0 4 9
0 9 0 6 -16z m191 6 l6 -10 -15 6 -16 6 0 4 0 4 9 0 10 0 6 -10z m-61 -29 l6
-9 -15 -5 -14 -6 6 15 5 14 3 0 4 0 5 -9z m61 -1 l6 -10 -15 6 -16 6 0 4 0 4
9 0 10 0 6 -10z m-105 -10 l0 -10 -10 0 -10 0 0 10 0 10 10 0 10 0 0 -10z
m-10 -30 l0 -10 -9 0 -10 0 -6 10 -6 10 15 0 16 0 0 -10z m46 -16 l-6 -17 -5
5 -5 5 6 17 6 17 5 -5 5 -5 -6 -17z m832 -73 l-1 -90 -8 -13 -9 -13 0 30 -1
30 -2 53 -2 52 8 0 7 0 0 20 0 20 4 0 5 0 -1 -89z m-698 59 l0 -10 -10 0 -10
0 0 10 0 10 10 0 10 0 0 -10z m-85 -20 l6 -10 -10 0 -11 0 0 10 0 10 4 0 5 0
6 -10z m-29 -14 l14 -15 0 -5 0 -6 -8 0 -7 0 -13 20 -12 20 6 0 5 0 15 -14z
m66 -34 l-5 -16 -7 20 -7 19 5 9 5 8 7 -13 8 -12 -6 -15z m73 -3 l7 -10 14 5
13 5 8 -12 7 -12 1 -11 0 -12 32 -36 33 -35 -10 -23 -9 -23 0 29 -1 28 -15 -6
-15 -5 0 14 0 15 -10 0 -10 0 0 15 0 15 -10 0 -11 0 -24 26 -25 27 0 8 0 9 9
0 10 0 6 -11z m4 -77 l11 -23 0 -6 0 -7 -33 37 -33 37 -12 0 -12 0 0 8 0 9 6
6 7 6 27 -22 28 -22 11 -23z m628 -4 l-5 -13 -1 19 -1 19 6 -6 6 -6 -5 -13z
m-469 -37 l22 -19 0 -11 0 -11 10 0 9 0 10 17 9 18 7 -7 7 -7 -15 -16 -16 -15
-15 0 -16 0 0 8 0 7 -25 28 -26 27 8 0 8 -1 23 -18z m514 -121 l2 -25 -2 -34
-2 -34 -6 6 -6 5 -3 109 -2 108 8 -55 9 -55 2 -25z m-45 88 l-5 -13 0 25 0 25
5 -12 5 -13 -5 -12z m-487 1 l0 -9 -10 0 -10 0 0 16 0 15 10 -6 10 -6 0 -10z
m20 -40 l0 -9 -10 0 -10 0 0 16 0 15 10 -6 10 -6 0 -10z m156 -64 l-1 -25 -7
0 -8 0 0 9 0 9 6 16 6 16 3 0 3 0 -2 -25z m404 -25 l0 -9 -15 5 -15 6 0 4 0 4
15 0 15 0 0 -10z m-325 -33 l41 -32 -4 -17 -3 -18 -11 0 -10 0 5 20 5 20 -9
-5 -8 -6 -17 -34 -16 -35 -11 0 -11 0 12 12 12 12 0 7 0 8 -16 15 -15 16 11 0
11 0 6 -16 6 -16 13 23 13 24 1 8 0 8 -11 -6 -11 -7 -19 21 -19 20 0 6 0 5 8
0 7 0 40 -33z m363 -7 l-5 -30 9 0 9 0 -5 -9 -6 -9 -2 -46 -1 -47 -13 -17 -13
-17 -7 18 -7 18 13 39 13 39 -13 16 -12 15 11 0 11 0 0 23 0 24 7 6 6 7 5 0 4
0 -4 -30z m-78 -77 l0 -13 -10 0 -10 0 0 14 0 14 -6 19 -6 18 16 -19 16 -20 0
-13z m27 10 l-5 -18 0 30 0 30 5 -12 5 -13 -5 -17z m-223 -46 l11 -9 -15 5
-15 4 -2 19 -3 19 7 -15 6 -15 11 -8z m106 13 l0 -10 -7 0 -8 0 -15 10 -15 10
23 0 22 0 0 -10z m-166 -12 l-5 -8 -16 0 -15 0 7 -17 6 -18 -11 11 -11 11 6
14 5 15 20 0 19 0 -5 -8z m31 -39 l-6 -8 -14 6 -15 5 0 7 0 8 7 6 6 7 13 -11
14 -11 -5 -9z m225 6 l0 -13 -14 -11 -14 -12 -4 13 -5 13 5 17 4 17 14 -6 14
-5 0 -13z m-170 5 l0 -10 -4 0 -5 0 -6 10 -6 10 10 0 11 0 0 -10z m50 -16 l0
-15 -10 6 -10 6 0 15 0 15 10 -6 10 -6 0 -15z m59 -13 l-10 -3 -6 5 -5 6 7 11
8 12 8 -13 8 -14 -10 -4z m-152 -31 l2 -20 -14 13 -13 12 12 7 11 8 0 0 1 0 1
-20z m98 10 l-6 -10 -12 0 -12 0 15 10 15 10 3 0 3 0 -6 -10z m122 -5 l0 -14
-9 5 -8 5 5 10 6 9 3 0 3 0 0 -15z m-150 -35 l5 -20 10 0 9 0 -3 18 -3 17 15
0 15 0 -3 -14 -3 -13 11 -12 10 -13 -7 -6 -6 -7 -11 0 -11 0 15 10 15 10 -23
0 -23 0 6 -21 7 -22 -15 14 -15 14 5 8 4 7 -16 0 -16 0 6 10 7 11 -12 14 -12
15 17 0 17 0 5 -20z m230 -62 l-4 -23 0 40 -1 40 5 -17 4 -18 -4 -22z m-177
-18 l0 -10 -10 0 -10 0 0 10 0 10 10 0 10 0 0 -10z m50 0 l0 -10 -10 0 -10 0
0 10 0 10 10 0 10 0 0 -10z"/>
<path d="M2080 1905 l0 -15 10 0 10 0 0 15 0 15 -10 0 -10 0 0 -15z"/>
<path d="M2110 1881 l0 -10 10 -6 10 -6 0 15 0 16 -10 0 -10 0 0 -9z"/>
<path d="M2140 1429 l0 -10 10 6 10 6 0 5 0 4 -10 0 -10 0 0 -11z"/>
<path d="M702 1604 l18 -18 4 5 5 5 -22 13 -22 13 17 -18z"/>
<path d="M671 1991 l-34 -6 39 -40 39 -40 65 -55 65 -54 95 -92 95 -91 60 -55
60 -55 185 -168 185 -168 100 -98 100 -97 39 -36 39 -36 18 0 19 0 0 50 0 50
-19 93 -20 92 -15 80 -15 80 -6 95 -5 95 -10 115 -10 115 -6 105 -6 105 -126
0 -127 1 -361 6 -360 7 -25 4 -24 5 -34 -7z m696 -263 l-5 -13 -1 19 -1 19 6
-6 6 -6 -5 -13z m368 -328 l6 -10 -10 0 -11 0 0 10 0 10 4 0 5 0 6 -10z"/>
<path d="M2174 1958 l-5 -8 25 0 25 0 7 -11 7 -12 2 -21 2 -21 2 -12 1 -13 10
0 10 0 0 17 0 16 6 -6 7 -6 0 -113 0 -113 7 95 7 94 -8 35 -8 35 -23 18 -23
18 13 0 12 0 0 8 0 7 -36 1 -35 1 -5 -9z"/>
<path d="M2236 1837 l-8 -17 8 -28 8 -27 3 23 4 22 -4 23 -3 22 -8 -18z"/>
<path d="M0 1591 l0 -230 75 -60 74 -61 18 -14 18 -15 61 -48 61 -48 78 -60
78 -60 23 -20 23 -20 87 -70 87 -70 81 -77 81 -76 60 -40 60 -41 70 -64 70
-63 111 -95 111 -94 87 -70 87 -70 40 -28 39 -28 36 -35 37 -34 196 1 196 0
-25 11 -25 10 -71 0 -71 -1 4 84 5 83 -10 18 -11 19 -93 1 -93 0 -22 8 -23 7
2 60 2 60 8 5 8 5 0 23 0 23 -6 6 -6 6 -24 -9 -24 -10 -81 12 -81 11 -9 24 -9
24 0 75 0 74 -7 1 -8 0 -25 5 -25 4 -80 21 -80 21 -22 5 -23 5 0 77 0 76 -8
-12 -8 -12 -62 9 -62 9 -50 16 -49 16 6 62 5 62 -23 2 -24 3 -95 7 -95 8 3 82
3 83 -10 17 -10 18 -1 -10 0 -10 -97 6 -98 7 -19 1 -18 1 5 94 6 95 -12 4 -12
5 -93 -6 -94 -5 3 99 3 99 -34 2 -35 3 -45 14 -45 14 3 82 2 82 -11 14 -11 14
-19 0 -19 0 0 -229z"/>
<path d="M2230 1745 l-12 -15 16 0 16 0 0 15 0 15 -4 0 -4 0 -12 -15z"/>
<path d="M2200 1698 l0 -18 9 0 10 0 4 -17 5 -18 1 16 1 15 -15 20 -14 19 -1
-17z"/>
<path d="M2282 1625 l0 -30 5 18 5 17 -5 13 -5 12 0 -30z"/>
<path d="M650 1460 l45 -39 13 -1 12 0 0 6 0 5 -14 15 -15 14 -5 0 -6 0 -20
20 -20 20 -17 0 -18 -1 45 -39z"/>
<path d="M850 1496 l0 -5 25 -26 26 -25 4 0 5 0 0 9 0 10 -30 21 -30 21 0 -5z"/>
<path d="M836 1453 l-7 -18 12 12 13 13 -6 5 -6 6 -6 -18z"/>
<path d="M720 1399 l0 -10 10 6 10 6 0 5 0 4 -10 0 -10 0 0 -11z"/>
<path d="M2070 1046 l0 -55 10 -6 10 -6 0 55 0 55 -10 6 -10 6 0 -55z"/>
<path d="M3 692 l0 -393 8 -4 7 -5 -1 -70 -1 -70 -8 0 -8 0 0 -17 0 -16 17
-19 16 -18 -13 0 -12 0 11 -14 12 -14 -18 -5 -18 -4 32 0 32 0 -1 6 0 6 1 13
1 12 14 0 14 0 -5 -21 -6 -21 22 7 21 6 0 -8 0 -8 28 -1 27 -1 245 -8 245 -7
30 16 30 16 -22 0 -23 0 0 10 0 9 18 -6 17 -6 12 -9 11 -9 7 11 6 10 12 -7 12
-8 70 -2 70 -3 25 -4 25 -4 18 -1 18 -1 -6 -10 -6 -10 16 0 16 0 -7 11 -6 11
28 -15 29 -15 13 15 14 14 -8 17 -7 17 -4 -17 -4 -18 -8 0 -8 0 -13 25 -14 26
-13 -5 -12 -5 -6 9 -6 10 11 0 11 0 -4 8 -5 7 28 0 28 0 8 -7 7 -8 -17 0 -17
0 6 -10 7 -11 19 6 19 6 0 -10 0 -10 30 -16 31 -16 11 7 11 7 -24 10 -24 9 13
5 14 5 27 -26 27 -26 9 7 8 8 -5 -15 -5 -15 23 -1 24 -2 0 7 -1 6 -50 35 -50
35 -45 33 -44 33 0 8 0 9 -22 5 -22 6 -8 -12 -7 -11 -7 7 -7 7 13 15 12 15
-11 0 -11 0 0 -8 0 -8 -20 -1 -20 -2 0 20 0 19 -25 12 -25 11 0 16 0 16 -77
72 -77 73 -16 5 -17 5 -12 23 -13 22 -30 24 -31 25 11 -20 11 -21 -13 0 -13 0
4 36 4 35 -7 -6 -7 -7 -71 64 -70 65 -8 -20 -7 -20 -12 0 -11 0 6 -15 5 -15
-9 0 -10 0 -1 10 -1 10 -2 9 -1 9 -7 7 -7 7 15 24 16 23 -43 46 -42 45 -21 -5
-21 -6 13 9 13 9 -36 31 -36 32 -10 0 -10 0 6 -22 6 -23 -10 15 -11 15 6 16 5
17 -38 30 -38 29 -30 16 -30 15 -40 41 -39 41 -13 0 -13 0 -2 -47 -1 -48 -7
65 -7 65 0 -393z m65 316 l27 -32 0 -10 1 -11 7 -11 7 -12 -15 -6 -15 -5 0 15
0 15 -16 6 -16 6 12 7 12 8 -21 21 -21 21 0 10 0 10 6 0 5 0 27 -32z m84 -71
l13 -13 18 -7 18 -7 -5 -9 -6 -9 12 -5 13 -4 -27 1 -26 1 0 5 0 5 -1 10 -1 10
-9 -13 -8 -13 -13 16 -13 15 19 -6 19 -6 -17 15 -18 14 0 7 0 6 9 0 10 0 13
-13z m-105 -29 l-5 -13 -1 19 -1 19 6 -6 6 -6 -5 -13z m78 -56 l3 -32 -10 6
-10 6 5 24 4 24 -18 0 -19 0 0 10 0 9 21 -8 22 -7 2 -32z m109 12 l6 -15 -10
6 -10 6 0 -11 0 -11 -10 6 -11 7 12 14 11 14 3 0 3 0 6 -16z m-54 -10 l0 -15
-10 6 -10 6 5 10 6 9 5 0 4 0 0 -16z m123 -37 l5 -13 -18 0 -18 0 5 13 5 13 8
0 8 0 5 -13z m-216 -39 l-5 -13 -1 19 -1 19 6 -6 6 -6 -5 -13z m99 -43 l63
-65 13 -1 13 -1 8 1 8 1 -6 -9 -6 -10 40 -11 39 -10 11 -14 12 -14 -10 -6 -10
-7 -11 21 -11 21 -11 -7 -10 -6 20 -21 20 -20 30 22 30 21 6 0 6 0 0 -15 0
-14 -19 -11 -19 -10 2 -12 2 -13 8 -14 9 -13 7 12 8 13 11 -7 11 -7 0 -23 0
-22 51 -49 50 -48 -5 -13 -5 -14 14 0 14 0 6 10 6 10 10 -5 9 -6 -7 16 -6 17
-8 -14 -8 -13 -50 55 -50 55 0 5 -1 5 9 14 9 14 10 -7 11 -7 -6 -14 -5 -15 16
0 15 0 -5 -15 -6 -15 15 0 15 0 6 -12 6 -13 6 13 6 12 14 0 14 0 0 -6 0 -6
-22 -20 -23 -20 17 6 16 5 16 -25 16 -24 -15 0 -15 0 0 -22 0 -23 8 12 7 11
28 7 27 7 0 -12 0 -12 -15 6 -15 5 0 -14 0 -14 21 4 22 4 -7 -6 -6 -6 15 -24
15 -23 -17 0 -18 0 15 -10 15 -9 3 9 4 10 20 0 20 0 -12 -15 -13 -15 4 -3 4
-3 30 -23 30 -23 -3 -5 -4 -6 14 -8 13 -9 -35 1 -35 0 20 9 20 8 -226 -1 -225
0 -12 7 -12 7 0 -10 0 -9 -27 -10 -28 -9 65 -8 65 -9 -40 -3 -40 -3 -33 -6
-33 -5 6 -9 5 -9 -9 -5 -10 -6 -40 16 -41 16 -26 -6 -26 -7 8 12 7 12 53 -6
54 -6 0 9 0 8 -16 6 -16 6 -23 0 -23 0 -5 20 -5 20 11 -7 12 -7 37 -3 37 -3 6
11 7 10 13 -11 14 -12 11 7 10 6 -5 10 -6 9 -65 0 -64 0 0 8 0 7 -11 175 -10
175 1 83 1 84 -8 -5 -8 -5 4 44 3 44 11 0 10 0 63 -65z m7 58 l-13 -5 -12 5
-13 5 25 0 25 0 -12 -5z m111 -32 l-19 -18 -4 3 -4 4 13 15 12 15 11 0 10 0
-19 -19z m72 -13 l19 -23 -21 18 -21 17 -8 -7 -8 -8 7 13 7 12 3 0 3 0 19 -22z
m-291 2 l6 -10 -10 0 -11 0 0 10 0 10 4 0 5 0 6 -10z m-45 -15 l12 -15 -10 0
-10 0 -6 15 -5 15 3 0 4 0 12 -15z m310 -9 l-10 -10 -10 10 -10 10 20 0 20 0
-10 -10z m-80 -17 l-12 -21 -5 6 -6 6 13 15 12 15 5 0 4 0 -11 -21z m157 -6
l-4 -3 -17 6 -16 6 6 10 6 9 14 -12 14 -12 -3 -4z m-42 -53 l6 -10 -10 0 -11
0 0 10 0 10 4 0 5 0 6 -10z m-295 -50 l-8 -35 -1 22 -1 21 6 17 6 16 3 -3 3
-3 -8 -35z m410 30 l0 -10 -11 0 -10 0 6 10 6 10 5 0 4 0 0 -10z m-450 -31 l0
-9 -10 0 -10 0 0 16 0 15 10 -6 10 -6 0 -10z m499 -4 l11 6 0 -9 0 -10 -16 -6
-16 -6 -4 0 -5 0 6 10 6 10 -11 0 -11 0 -5 -15 -6 -15 -9 0 -9 0 0 8 0 8 18
22 17 22 12 -16 12 -16 10 7z m-89 -20 l-12 -15 11 0 12 0 -6 -10 -7 -11 -14
12 -14 11 0 8 0 9 18 4 17 5 4 1 3 1 -12 -15z m95 -15 l-6 -10 -17 1 -17 0 20
9 20 9 3 0 3 1 -6 -10z m-50 -20 l6 -10 -10 0 -11 0 0 10 0 10 4 0 5 0 6 -10z
m-405 -31 l0 -20 -10 6 -10 6 0 15 0 14 10 0 10 0 0 -21z m520 17 l0 -5 -10
-6 -10 -6 0 10 0 11 10 0 10 0 0 -4z m-587 -56 l-6 -21 -5 5 -4 5 5 16 6 15 5
0 4 0 -5 -20z m73 -93 l2 -92 -8 20 -9 20 0 79 -1 79 7 -6 6 -7 3 -93z m664
-60 l0 -24 -14 0 -14 0 5 14 5 13 -12 0 -11 0 6 10 6 10 15 0 14 0 0 -23z
m-60 -7 l15 -10 -15 0 -15 0 15 -10 15 -10 -19 0 -18 0 5 14 6 15 -12 5 -12 4
10 1 10 1 15 -10z m140 -60 l0 -10 -10 0 -10 0 0 10 0 10 10 0 10 0 0 -10z
m-93 -14 l0 -13 -21 5 -20 5 20 8 19 8 1 0 1 1 0 -14z m38 -6 l-6 -10 -12 0
-12 0 15 10 15 10 3 0 3 0 -6 -10z m41 -12 l7 -11 -11 7 -12 7 0 -8 0 -9 13
-13 12 -13 -22 13 -22 13 11 13 10 13 4 0 3 0 7 -12z m49 -28 l-7 -12 -9 13
-8 13 6 9 5 9 10 -10 10 -10 -7 -12z m195 -74 l-1 -11 -19 24 -20 23 -15 -12
-15 -12 0 6 0 7 13 14 12 13 23 -21 22 -20 0 -11z m-697 27 l-23 -4 -22 4 -23
4 45 0 45 0 -22 -4z m72 -3 l6 -10 -10 0 -11 0 0 10 0 10 4 0 5 0 6 -10z m185
0 l0 -10 -15 0 -15 0 0 10 0 10 15 0 15 0 0 -10z m-120 -16 l0 -15 -10 6 -10
6 0 10 0 9 10 0 10 0 0 -16z m50 -5 l0 -9 -21 0 -21 0 12 15 12 15 9 -6 9 -5
0 -10z m140 17 l0 -5 -9 -6 -10 -5 -6 10 -6 10 15 0 16 0 0 -4z m-370 -42 l0
-4 -52 1 -53 0 18 8 19 7 34 -4 34 -4 0 -4z m295 6 l-6 -10 -10 0 -9 0 0 10 0
10 16 0 15 0 -6 -10z m481 -5 l15 -15 -4 0 -5 0 -16 6 -16 6 0 9 0 9 6 0 5 0
15 -15z m-696 -17 l0 -23 -9 14 -9 14 -11 -7 -11 -7 0 -10 0 -9 17 0 16 0 -5
-6 -6 -5 -36 10 -36 9 -28 -7 -28 -8 0 18 0 18 26 -5 25 -6 10 -3 10 -2 25 9
25 10 -20 8 -20 9 33 0 32 1 0 -22z m51 3 l-10 -7 9 -14 10 -15 0 -8 0 -8 -14
13 -13 14 -7 21 -7 21 21 -5 22 -6 -11 -6z m443 -21 l-5 -4 -8 13 -8 13 -7 -1
-6 -1 -22 1 -23 1 30 7 30 7 12 -16 11 -15 -4 -5z m-764 21 l0 -9 -15 -6 -15
-5 0 14 0 15 15 0 15 0 0 -9z m367 3 l-6 -6 -13 5 -13 5 19 1 19 1 -6 -6z
m-261 -15 l7 -11 -14 -9 -14 -9 -14 0 -15 0 20 16 19 16 -20 -8 -20 -7 -30 -3
-30 -3 33 8 33 9 6 6 6 6 13 0 13 0 7 -11z m689 1 l6 -10 -10 0 -11 0 0 10 0
10 4 0 5 0 6 -10z m-435 -10 l0 -10 -10 0 -10 0 0 10 0 10 10 0 10 0 0 -10z
m507 -6 l-6 -6 -13 5 -13 5 19 1 19 1 -6 -6z m-442 -14 l-20 -9 -10 0 -10 -1
15 10 15 10 15 -1 15 0 -20 -9z m-208 -6 l-6 -6 -13 5 -13 5 19 1 19 1 -6 -6z"/>
<path d="M431 504 l1 -19 5 13 5 13 -6 6 -6 6 1 -19z"/>
<path d="M2070 950 l0 -10 10 0 10 0 0 10 0 10 -10 0 -10 0 0 -10z"/>
<path d="M2091 843 l1 -48 3 10 4 10 3 38 4 37 -8 0 -8 0 1 -47z"/>
<path d="M447 673 l-7 -6 0 -13 0 -13 15 5 15 6 0 14 0 14 -8 0 -9 0 -6 -7z"/>
<path d="M920 256 l0 -4 15 -6 15 -5 0 9 0 10 -15 0 -15 0 0 -4z"/>
<path d="M768 23 l12 -5 13 5 12 5 -25 0 -25 0 13 -5z"/>
<path d="M860 23 l25 -5 7 -12 8 -11 0 18 0 17 -32 -1 -33 -2 25 -4z"/>
<path d="M1133 23 l-33 -4 0 -7 0 -7 46 -2 45 -2 -12 15 -11 14 -2 -2 -1 -1
-32 -4z"/>
</g>
</svg>
