<?xml version="1.0" standalone="no"?>
<!DOCTYPE svg PUBLIC "-//W3C//DTD SVG 20010904//EN"
 "http://www.w3.org/TR/2001/REC-SVG-20010904/DTD/svg10.dtd">
<svg version="1.0" xmlns="http://www.w3.org/2000/svg"
   viewBox="0 0 78.000000 132.000000"
 preserveAspectRatio="xMidYMid meet">
<metadata>
Created by potrace 1.16, written by Peter Selinger 2001-2019
</metadata>
<g transform="translate(0.000000,132.000000) scale(0.100000,-0.100000)"
fill="#000000" stroke="none">
<path d="M21 1287 l-21 -34 0 -9 0 -9 26 38 26 39 -5 4 -5 5 -21 -34z"/>
<path d="M81 1294 l-12 -27 -34 -52 -35 -52 0 -9 0 -9 31 45 30 45 20 38 20
39 -4 4 -4 4 -12 -26z"/>
<path d="M111 1264 l-32 -56 3 -4 4 -3 33 55 33 55 -5 5 -5 5 -31 -57z"/>
<path d="M180 1310 l0 -9 -56 -83 -56 -82 -6 -15 -6 -16 -28 -46 -28 -46 0
-19 0 -19 34 48 34 47 13 33 13 32 42 60 41 60 17 33 17 32 -16 0 -15 0 0 -10z"/>
<path d="M533 1291 l-23 -29 0 -15 0 -15 -16 -12 -15 -13 -27 -46 -26 -46 -72
-90 -71 -90 -18 -35 -17 -35 -14 -15 -13 -15 -47 -90 -46 -89 -34 -49 -34 -49
0 -10 0 -9 -31 -45 -31 -45 4 -4 4 -4 114 -67 115 -68 70 -33 70 -34 15 -9 15
-10 105 -55 105 -54 37 -23 36 -23 46 -33 46 -33 0 13 0 13 -53 40 -52 41
-125 63 -125 63 -15 13 -15 12 -47 21 -48 22 -9 0 -8 0 -69 46 -69 46 -53 25
-52 25 0 10 0 10 31 56 31 56 20 28 20 29 48 92 48 92 36 60 37 60 33 40 34
40 35 45 36 45 46 68 45 67 10 0 10 0 -1 8 -1 7 1 13 1 12 19 0 20 0 53 -32
53 -31 38 -24 37 -23 0 18 0 18 -42 23 -43 24 -45 28 -45 28 -25 5 -25 5 -22
-28z"/>
<path d="M516 1143 l-60 -96 -64 -86 -64 -86 -10 -12 -10 -13 5 0 5 0 84 113
85 112 43 73 43 72 7 5 7 4 93 -49 94 -50 4 4 4 4 -24 13 -23 12 -72 38 -72
39 -8 0 -8 0 -59 -97z"/>
<path d="M36 1131 l-36 -59 0 -8 0 -8 13 19 14 20 27 48 28 47 -5 0 -6 0 -35
-59z"/>
<path d="M550 1133 l-30 -47 0 -8 0 -8 -36 -57 -36 -58 20 20 20 20 42 80 42
80 8 9 9 9 33 -14 33 -13 54 -33 55 -33 10 0 11 0 -55 32 -55 31 -35 18 -34
19 -13 0 -13 0 -30 -47z"/>
<path d="M556 1088 l-18 -33 25 30 25 30 38 -14 39 -13 58 -29 59 -28 -12 14
-11 14 -74 30 -74 31 -18 0 -19 0 -18 -32z"/>
<path d="M555 1008 l-40 -73 -3 -13 -4 -13 -49 -86 -49 -85 0 -7 0 -8 -50 -57
-50 -57 -14 -27 -14 -27 -23 -19 -22 -18 17 -10 16 -9 12 7 11 7 -6 -10 -7
-11 27 -7 27 -6 56 -35 55 -34 9 0 9 0 16 -14 16 -13 138 -72 137 -71 5 0 5 0
0 15 0 15 -12 1 -13 0 -61 32 -61 32 -64 34 -64 33 -16 15 -17 14 -38 21 -39
20 -47 24 -48 24 0 6 0 5 16 32 17 32 37 45 37 45 48 90 48 90 17 25 17 25 31
68 32 67 17 0 18 -1 31 -17 30 -17 37 -24 37 -23 -22 -37 -22 -36 -29 -44 -30
-44 -35 -66 -35 -66 -38 -73 -39 -74 5 -8 5 -8 30 -7 29 -6 96 -48 95 -48 0
17 0 18 -27 7 -28 7 -15 12 -15 13 -67 29 -68 28 0 11 0 10 64 120 64 120 46
70 46 71 0 29 0 30 -32 20 -32 20 -34 18 -33 18 -27 5 -27 5 -40 -73z"/>
<path d="M503 987 l-30 -62 -45 -81 -44 -80 -50 -61 -49 -62 -37 -58 -37 -58
-7 -17 -6 -18 11 0 11 0 0 17 0 17 38 58 37 59 51 62 50 62 43 80 43 80 7 5 7
5 23 53 22 54 -3 4 -4 4 -31 -63z"/>
<path d="M401 888 l-41 -63 -47 -62 -48 -62 -45 -76 -45 -76 -22 -34 -21 -34
76 -40 77 -41 70 -41 70 -41 90 -42 90 -41 60 -34 60 -34 28 -25 27 -26 0 8 0
8 -27 22 -27 21 -56 33 -55 34 -85 38 -85 39 -75 42 -75 42 -62 34 -62 34 -6
8 -5 9 26 53 25 54 42 66 42 66 40 53 40 53 28 41 28 41 10 18 10 17 -5 0 -4
0 -41 -62z"/>
<path d="M742 822 l-32 -57 -29 -50 -28 -50 -27 -45 -26 -45 0 -12 0 -13 13 0
12 0 78 -40 77 -39 0 14 0 15 -15 0 -15 0 -65 32 -65 31 0 8 0 8 80 147 81
146 -3 4 -4 3 -32 -57z"/>
<path d="M257 773 l-43 -68 -8 -12 -7 -13 4 0 4 0 35 53 35 52 17 28 18 27 -5
0 -6 0 -44 -67z"/>
<path d="M733 723 l-41 -88 -22 -22 -21 -23 9 0 8 0 58 -35 57 -34 -3 11 -4
10 -43 23 -43 23 -4 4 -4 4 51 98 50 98 -3 10 -4 10 -41 -89z"/>
<path d="M747 674 l-27 -54 0 -10 0 -9 30 -21 30 -21 0 48 0 48 -10 -15 -10
-15 6 -17 5 -18 -8 0 -8 0 -15 10 -15 10 11 8 11 7 18 48 18 47 -5 5 -4 4 -27
-55z"/>
<path d="M180 656 l0 -14 -50 -81 -50 -81 0 -7 0 -8 38 -21 37 -21 86 -50 86
-50 17 -6 16 -6 0 3 0 4 -77 42 -78 43 -47 30 -48 30 0 21 0 21 45 77 45 77 0
6 0 5 -10 0 -10 0 0 -14z"/>
<path d="M232 485 l5 -6 84 -43 84 -42 92 -57 91 -57 14 0 13 -1 83 -43 82
-43 0 6 0 6 -77 39 -78 38 -70 36 -70 35 -52 33 -53 34 -70 35 -70 35 -6 0 -7
0 5 -5z"/>
<path d="M370 306 l0 -4 88 -43 87 -43 82 -53 82 -52 30 -16 30 -15 6 0 5 0 0
9 0 9 -27 7 -28 6 -90 58 -90 57 -82 42 -83 42 -5 0 -5 0 0 -4z"/>
<path d="M2 248 l4 -13 64 -33 64 -33 71 -43 70 -44 78 -41 79 -41 36 1 37 0
-35 16 -35 16 -80 40 -80 40 -40 25 -40 26 -93 48 -92 48 -6 0 -6 0 4 -12z"/>
<path d="M5 190 l6 -10 12 0 13 0 34 -30 35 -29 16 -1 16 0 38 -25 37 -26 69
-34 69 -35 11 0 12 0 -74 37 -74 37 -39 28 -39 28 -11 0 -12 0 -54 35 -54 35
-9 0 -8 0 6 -10z"/>
<path d="M4 133 l4 -8 34 -16 33 -17 34 -13 34 -13 48 -33 49 -33 11 0 12 0
-39 26 -39 27 -87 43 -87 44 -6 0 -6 0 5 -7z"/>
<path d="M14 75 l20 -15 8 0 7 0 48 -30 47 -30 15 0 16 1 -39 19 -38 19 -12
10 -13 11 -39 15 -39 16 19 -16z"/>
<path d="M0 31 l0 -19 16 -6 16 -6 31 0 32 0 -40 25 -40 24 -7 1 -8 0 0 -19z"/>
</g>
</svg>
