<?xml version="1.0" standalone="no"?>
<!DOCTYPE svg PUBLIC "-//W3C//DTD SVG 20010904//EN"
 "http://www.w3.org/TR/2001/REC-SVG-20010904/DTD/svg10.dtd">
<svg version="1.0" xmlns="http://www.w3.org/2000/svg"
   viewBox="0 0 81.000000 116.000000"
 preserveAspectRatio="xMidYMid meet">
<metadata>
Created by potrace 1.16, written by Peter Selinger 2001-2019
</metadata>
<g transform="translate(0.000000,116.000000) scale(0.100000,-0.100000)"
fill-opacity="0.2" fill="#006400" stroke="none">
<path d="M2 1141 l3 -8 105 -112 105 -111 110 -87 110 -86 8 -7 8 -7 -20 -60
-20 -60 -7 -64 -6 -64 27 -67 27 -67 29 -10 29 -10 0 -10 0 -9 -8 -4 -8 -3
-84 -100 -84 -100 -15 -12 -16 -12 -6 -1 -7 0 -5 20 -5 20 -11 0 -11 0 0 -19
0 -19 6 -31 6 -31 18 0 18 0 28 38 28 37 71 72 70 72 28 41 28 42 17 -23 16
-24 58 -72 58 -71 10 -27 10 -27 12 4 11 4 18 34 18 33 11 11 10 10 0 18 0 18
-9 0 -9 0 -23 -36 -22 -36 -13 14 -12 13 -71 84 -71 85 0 13 0 14 21 28 20 28
6 76 6 77 -13 77 -13 78 -34 31 -33 30 0 62 0 62 9 0 9 0 16 34 16 35 -9 42
-10 42 -20 20 -20 21 -25 -12 -25 -11 -16 -30 -15 -30 -2 -25 -2 -24 19 -35
19 -36 18 -4 18 -5 1 -39 1 -38 -2 -15 -2 -15 -18 -19 -18 -19 -100 81 -100
81 -53 54 -54 53 -65 72 -65 71 -18 1 -19 0 4 -9z"/>
<path d="M771 968 l-34 -69 -33 -26 -34 -25 0 -14 0 -14 10 0 10 0 31 27 30
27 30 53 30 53 -3 29 -3 29 -34 -70z"/>
<path d="M0 606 l0 -16 15 0 14 0 11 -20 11 -21 -6 -19 -6 -20 -8 0 -8 0 -11
-25 -12 -25 18 0 17 0 18 31 17 31 0 26 -1 27 -12 16 -12 16 -23 7 -22 7 0
-15z"/>
</g>
</svg>
