<?xml version="1.0" standalone="no"?>
<!DOCTYPE svg PUBLIC "-//W3C//DTD SVG 20010904//EN"
 "http://www.w3.org/TR/2001/REC-SVG-20010904/DTD/svg10.dtd">
<svg version="1.0" xmlns="http://www.w3.org/2000/svg"
   viewBox="0 0 112.000000 164.000000"
 preserveAspectRatio="xMidYMid meet">
<metadata>
Created by potrace 1.16, written by Peter Selinger 2001-2019
</metadata>
<g transform="translate(0.000000,164.000000) scale(0.100000,-0.100000)"
fill-opacity="0.2" fill="#9E1A1A" stroke="none">
<path d="M710 1631 l-36 -7 -12 -8 -12 -7 -15 -29 -15 -29 6 -16 7 -17 26 6
26 6 37 6 37 6 5 -33 6 -34 10 -123 10 -123 -6 -23 -5 -22 -3 -130 -3 -129
-18 -50 -18 -50 -26 -22 -26 -22 -11 -1 -12 0 -12 -15 -12 -15 -17 0 -18 0
-23 25 -23 24 27 31 26 32 6 25 7 26 -18 34 -19 34 -27 20 -28 19 -42 15 -42
15 -36 0 -37 0 -22 -16 -22 -15 0 -35 0 -35 21 -42 22 -42 44 -44 44 -44 41 6
40 5 24 -24 24 -24 -39 -40 -39 -40 -43 18 -44 19 -69 17 -68 17 -82 -7 -81
-6 -14 25 -14 26 7 173 7 173 18 25 18 25 7 21 6 21 -14 34 -14 34 -26 30 -26
30 -17 -11 -18 -11 -11 -24 -12 -24 -11 -37 -12 -37 10 -19 10 -19 31 -7 31
-6 -7 -209 -7 -209 25 -24 24 -25 104 5 105 4 79 -16 79 -17 7 -4 8 -5 -5 -44
-5 -45 18 -53 18 -53 30 -45 30 -45 15 -13 16 -13 35 -16 35 -15 -21 -17 -20
-16 -22 -36 -22 -36 36 -34 35 -34 21 -33 21 -34 -13 -24 -13 -24 6 -7 7 -6
26 26 27 27 -28 37 -28 38 -29 31 -29 31 12 26 12 27 7 0 8 0 11 29 12 28 42
12 42 13 42 23 41 23 103 -98 103 -98 8 4 8 5 0 17 0 17 14 27 15 28 -9 5 -9
6 -18 -28 -17 -28 -3 -4 -3 -4 -42 40 -43 40 -45 41 -44 40 23 50 24 51 -5 75
-5 75 -29 57 -29 58 -30 31 -30 32 -19 10 -19 10 29 59 28 59 6 105 7 105 -8
115 -8 115 -5 73 -6 73 -6 27 -6 27 -10 28 -10 27 -17 -1 -16 -1 -35 -7z"/>
<path d="M1 644 l1 -19 5 13 5 13 -6 6 -6 6 1 -19z"/>
<path d="M200 10 l-15 -10 28 0 27 0 0 10 0 10 -12 0 -13 0 -15 -10z"/>
</g>
</svg>
