<?xml version="1.0" standalone="no"?>
<!DOCTYPE svg PUBLIC "-//W3C//DTD SVG 20010904//EN"
 "http://www.w3.org/TR/2001/REC-SVG-20010904/DTD/svg10.dtd">
<svg version="1.0" xmlns="http://www.w3.org/2000/svg"
   viewBox="0 0 62.000000 105.000000"
 preserveAspectRatio="xMidYMid meet">
<metadata>
Created by potrace 1.16, written by Peter Selinger 2001-2019
</metadata>
<g transform="translate(0.000000,105.000000) scale(0.100000,-0.100000)"
fill-opacity="0.2" fill="#006400" stroke="none">
<path d="M63 1032 l-12 -8 -9 -24 -9 -23 15 -31 15 -31 8 -5 8 -5 45 -83 46
-82 0 -5 0 -4 -32 -37 -33 -38 1 -106 1 -106 23 -43 24 -42 23 -5 23 -6 0 -13
0 -13 -37 -33 -38 -33 -30 -39 -30 -39 -23 -30 -22 -31 -11 -39 -10 -40 12
-14 11 -14 19 0 19 0 0 16 0 16 -15 -6 -15 -5 0 20 0 21 16 33 15 33 96 103
96 104 13 3 14 3 0 -9 0 -10 44 -11 45 -11 30 0 30 0 27 -10 28 -11 -58 -57
-58 -57 -14 -28 -15 -27 20 0 19 0 23 31 24 30 38 41 37 40 0 23 0 23 -14 11
-13 11 -79 10 -78 10 -10 10 -9 9 33 66 33 65 -6 65 -6 64 10 6 9 6 -6 11 -7
11 10 -6 9 -6 75 38 74 38 25 6 24 6 20 -17 19 -17 -6 39 -6 39 -13 8 -12 8
-10 -14 -11 -13 -55 -23 -55 -23 -46 -28 -46 -28 -11 0 -10 0 -20 34 -21 35
82 41 82 40 38 7 38 6 25 -13 24 -13 6 6 7 6 -16 24 -16 24 6 22 5 21 -13 0
-14 0 -12 -19 -12 -19 -38 -12 -38 -12 -97 -52 -97 -51 -34 33 -34 33 -14 27
-14 27 -19 16 -19 16 11 33 12 33 0 26 0 27 -12 12 -12 12 -21 0 -20 0 -12 -8z"/>
<path d="M613 415 l0 -80 4 43 4 43 -4 37 -4 37 0 -80z"/>
</g>
</svg>
