<?xml version="1.0" standalone="no"?>
<!DOCTYPE svg PUBLIC "-//W3C//DTD SVG 20010904//EN"
 "http://www.w3.org/TR/2001/REC-SVG-20010904/DTD/svg10.dtd">
<svg version="1.0" xmlns="http://www.w3.org/2000/svg"
   viewBox="0 0 305.000000 403.000000"
 preserveAspectRatio="xMidYMid meet">
<metadata>
Created by potrace 1.16, written by Peter Selinger 2001-2019
</metadata>
<g transform="translate(0.000000,403.000000) scale(0.100000,-0.100000)"
fill="#9E1A1A" stroke="none">
<path d="M1277 4023 l-2 -1 -90 -11 -90 -11 -100 -25 -100 -25 -110 -56 -110
-57 -52 -34 -53 -35 -83 -81 -84 -82 -40 -61 -40 -61 -16 -33 -17 -32 6 -9 5
-9 -9 0 -10 0 -17 -36 -17 -37 -2 -22 -1 -23 -7 4 -6 4 -12 -35 -11 -35 7 -11
7 -12 -11 7 -10 6 -27 -80 -27 -81 6 -15 6 -15 -9 6 -10 5 -6 -54 -7 -54 7
-51 7 -51 8 5 9 5 7 -11 7 -12 -13 8 -13 8 7 -24 6 -24 11 -48 11 -48 -11 -30
-11 -31 7 -11 6 -10 -13 8 -13 8 6 -22 6 -23 -6 6 -6 6 -14 -20 -14 -20 7 -12
7 -11 -10 6 -11 7 -6 -16 -6 -16 7 -10 6 -11 -10 6 -11 7 -18 -27 -17 -27 0
-13 0 -12 -8 4 -7 5 -16 -25 -17 -26 7 -11 7 -11 -11 7 -12 7 0 -23 0 -24 17
-24 17 -25 22 -17 22 -18 4 -30 5 -30 -5 5 -5 5 -23 -38 -23 -37 -1 -16 0 -17
30 -57 30 -57 -9 -16 -8 -17 -7 -38 -7 -39 9 6 10 6 -5 -19 -5 -18 32 -30 32
-30 1 -40 2 -41 -7 5 -8 4 0 -45 0 -44 6 -16 6 -16 8 5 8 5 -2 -18 -1 -17 13
3 13 2 -5 -9 -6 -9 15 -12 14 -12 12 8 12 7 -6 -10 -7 -11 45 -11 44 -11 66 0
66 0 87 21 87 21 70 20 70 21 62 6 62 7 -4 -7 -4 -6 23 -22 22 -21 9 7 8 8 -7
-13 -8 -13 31 -46 31 -46 0 -9 0 -9 9 5 9 6 -1 -13 0 -12 1 -22 2 -23 9 0 9 0
6 25 7 26 -42 85 -42 85 -32 24 -32 25 -44 1 -44 1 -150 -42 -150 -42 -110 -2
-110 -1 -33 14 -33 14 -15 28 -14 28 -1 23 -1 23 8 57 7 58 -39 35 -38 35 1
35 1 36 16 24 16 24 44 6 44 7 49 -3 48 -4 85 8 85 8 115 20 115 20 115 20
115 21 60 8 60 9 58 16 58 15 24 0 25 0 0 9 0 9 -22 -6 -21 -5 7 11 7 12 15 0
14 0 0 8 0 7 -8 11 -7 11 -85 -18 -85 -18 -35 0 -35 1 10 4 10 4 120 24 120
25 2 -2 1 -2 6 -47 5 -47 -37 -7 -37 -6 -55 -13 -55 -13 26 -1 26 -1 31 11 31
11 18 -4 18 -4 -94 -22 -94 -22 -5 5 -5 5 24 10 24 10 -30 -5 -30 -5 -75 -11
-75 -10 -90 -20 -90 -19 -125 -15 -125 -15 -40 0 -40 0 -13 -20 -12 -20 81 0
81 0 127 20 126 21 145 25 145 25 107 25 107 24 12 0 12 0 -6 -57 -6 -58 -29
-100 -29 -100 -47 -118 -47 -118 7 -11 7 -11 -10 6 -10 6 -16 -41 -16 -41 6
-10 6 -10 -11 7 -12 7 -2 -18 -1 -18 0 -13 1 -13 -6 5 -6 6 -63 -120 -64 -120
-14 0 -15 0 -17 -26 -17 -26 12 -30 11 -29 -5 -12 -5 -12 -39 -25 -40 -24 6
-32 6 -32 -55 -99 -54 -98 -21 -37 -21 -36 6 -6 5 -5 -16 -16 -16 -16 -24 -42
-24 -42 -6 -27 -6 -28 -10 0 -10 0 0 -10 0 -10 -26 -40 -26 -39 7 -10 6 -11
-10 0 -10 0 -15 -16 -16 -15 0 -13 0 -12 13 -18 14 -19 36 12 37 13 0 19 0 19
10 0 10 0 0 16 0 15 15 15 15 15 0 19 0 19 13 8 12 8 23 41 22 42 0 20 0 21
10 6 10 6 -5 9 -5 8 16 12 15 13 -5 14 -6 14 8 -5 9 -5 22 52 23 52 24 -30 24
-30 0 -12 0 -13 11 0 10 0 -6 -10 -6 -10 14 -20 14 -20 7 7 7 7 -6 -16 -6 -16
13 -12 13 -13 -3 -42 -4 -43 16 -57 17 -56 9 6 10 6 -6 -14 -5 -14 35 -38 36
-38 29 -43 28 -43 8 7 8 7 -6 -12 -7 -11 6 -16 6 -16 11 7 10 6 -7 -11 -6 -11
18 -33 19 -33 23 -3 24 -4 -17 24 -17 23 -30 60 -30 60 -13 21 -12 21 -17 16
-17 17 -9 0 -10 0 -6 24 -6 24 -24 29 -23 28 -7 37 -7 38 11 20 11 20 -11 0
-10 0 0 10 0 9 15 -5 15 -6 -6 15 -5 15 9 6 10 6 -1 -13 -1 -12 13 -47 13 -48
11 7 10 6 -6 -16 -6 -17 9 0 10 0 0 -20 0 -21 15 -5 15 -6 -5 -8 -5 -8 26 -47
27 -47 13 -5 13 -5 -5 -12 -5 -13 20 -24 19 -24 5 5 6 5 -90 180 -89 180 0 13
0 13 -15 15 -14 15 6 32 6 32 9 6 10 6 -13 44 -13 44 -17 26 -18 26 -2 39 -3
40 8 12 7 12 25 0 24 0 0 -15 0 -14 14 -8 15 -8 -2 -20 -2 -20 12 2 13 3 -2
-8 -2 -7 26 -42 27 -41 38 -12 38 -12 23 -14 22 -14 0 8 0 8 -20 17 -20 17 0
21 0 21 -19 -5 -19 -5 -23 22 -24 21 -3 18 -3 17 -26 53 -26 52 -15 18 -15 17
-9 0 -8 0 0 -15 0 -15 -27 0 -27 0 -28 -27 -28 -27 -6 6 -5 6 15 31 16 30 19
11 20 10 33 0 33 1 -18 13 -17 13 6 16 6 16 18 -2 19 -1 -5 -8 -5 -8 13 -15
13 -16 46 -47 46 -47 7 -43 6 -43 9 5 8 5 -3 -25 -2 -25 11 4 11 3 15 43 16
43 -23 19 -23 18 -6 35 -5 35 15 15 16 16 9 0 9 0 18 -20 19 -21 11 4 11 5 -1
-27 0 -26 16 1 16 1 -4 -16 -4 -17 29 -26 29 -26 39 -6 39 -7 18 32 17 31 0
14 0 15 -14 5 -14 5 6 22 5 22 10 13 9 12 18 0 18 0 6 -15 5 -15 13 0 13 -1
20 -42 20 -42 13 3 13 2 -5 -9 -6 -10 25 -18 26 -18 31 -24 30 -24 9 14 9 14
0 8 0 7 -10 0 -10 0 0 15 0 16 15 5 15 6 20 -23 19 -24 1 43 0 42 14 0 14 0
12 -15 12 -14 -11 -69 -11 -69 6 -44 5 -44 9 -30 9 -30 5 -40 5 -40 6 -105 6
-105 5 -53 5 -52 8 4 7 5 -4 -36 -5 -36 9 6 9 5 1 -26 2 -27 11 -28 11 -27 15
0 15 0 0 13 0 12 -20 70 -21 70 -2 63 -2 62 -5 0 -5 0 -1 33 -1 32 -3 55 -3
55 -8 21 -8 22 -8 43 -8 44 1 133 2 132 -9 0 -9 0 0 20 0 20 -10 0 -10 0 0 13
0 13 -18 20 -17 19 -12 28 -13 27 -27 12 -28 12 -49 34 -49 33 -11 -4 -11 -4
-3 -18 -4 -17 9 5 8 5 2 -35 2 -36 34 -36 34 -36 22 -32 22 -32 -7 -36 -6 -35
-13 0 -12 0 -15 18 -15 17 -28 50 -29 50 -23 45 -23 45 0 17 0 17 -32 24 -33
25 -79 38 -79 38 -33 -1 -33 -1 -32 -30 -33 -31 27 -6 26 -7 12 -14 11 -14 12
7 11 6 -7 -8 -7 -8 15 -28 15 -29 9 0 10 0 39 -49 39 -50 3 4 4 3 2 -48 3 -49
-9 -6 -10 -5 -24 32 -25 33 -16 30 -17 30 -20 35 -21 35 -21 24 -22 23 -66 44
-66 44 -17 0 -16 0 0 14 0 14 6 16 6 16 24 0 24 0 0 46 0 46 60 145 60 144 37
122 36 122 15 50 15 50 -1 106 -1 107 -21 132 -22 132 -1 72 -2 71 -155 -1
-155 -2 -145 -16 -145 -17 -110 -25 -110 -24 -50 -13 -50 -12 -3 -17 -3 -18
20 0 21 0 162 34 163 35 105 11 105 12 49 9 49 9 13 0 14 0 0 -8 0 -8 -162
-23 -163 -22 -80 -15 -80 -15 -66 -15 -67 -14 -23 0 -24 0 -15 -10 -15 -10 17
0 17 0 93 19 93 19 125 21 125 21 85 10 85 10 65 10 65 9 68 5 67 5 0 -13 0
-13 -127 -12 -128 -13 -140 -18 -140 -19 -184 -31 -184 -31 -8 13 -9 13 -2
-50 -1 -50 -2 -87 -2 -88 5 0 5 0 12 16 12 17 251 38 252 38 123 10 123 11 78
15 79 15 8 -6 9 -5 0 -25 0 -24 -7 0 -8 0 -240 -45 -240 -44 -220 -30 -220
-30 -3 9 -4 10 -9 0 -9 0 0 -26 0 -26 14 11 15 12 73 4 73 4 -44 -9 -45 -10
-10 -4 -11 -5 75 5 75 6 130 25 130 24 90 14 90 14 87 -2 88 -2 0 -6 0 -6 -72
-12 -73 -13 -65 -14 -65 -13 -80 -11 -80 -11 -95 -19 -95 -18 -82 -6 -83 -6 0
8 0 9 83 7 82 7 125 25 125 24 -55 -5 -55 -6 -55 -8 -55 -9 -89 -11 -88 -11
-17 12 -16 12 7 -8 8 -9 -11 -14 -11 -13 -14 0 -13 0 -53 55 -54 54 -42 7 -42
7 0 8 0 8 9 5 8 5 13 47 13 47 -19 14 -19 15 -18 12 -18 13 -9 31 -8 32 42 52
43 53 35 65 36 65 17 58 17 58 -27 105 -27 105 7 52 7 52 30 95 30 94 35 81
35 80 40 82 39 82 74 85 75 85 35 26 35 27 -7 11 -6 10 12 -7 12 -8 47 30 47
30 80 39 80 39 42 13 42 14 -6 10 -6 10 11 -7 12 -7 35 7 35 6 -7 11 -6 10 11
-7 11 -7 95 16 96 15 34 0 34 0 5 13 5 12 1 -10 1 -10 57 3 58 3 59 -8 59 -8
4 -11 4 -11 -35 -24 -36 -24 -11 -26 -10 -27 -37 -23 -37 -24 -11 -35 -12 -35
-73 -1 -74 0 -40 -20 -39 -19 -4 -13 -4 -12 36 21 35 20 73 6 73 5 40 -35 40
-34 40 -69 40 -68 3 18 4 17 -34 56 -33 55 -38 34 -37 34 9 0 10 0 25 -10 26
-10 0 9 0 9 -30 7 -30 7 0 9 0 9 39 -3 39 -2 -3 -5 -4 -6 48 -17 47 -16 72
-63 72 -63 41 -55 40 -55 26 -55 25 -55 15 -40 14 -40 17 -70 17 -70 -1 -125
0 -125 -37 -144 -37 -145 0 -65 0 -66 16 -95 15 -95 6 -162 6 -163 -11 0 -11
0 -5 43 -6 42 -11 100 -10 100 -19 85 -19 85 -5 55 -5 55 -45 150 -44 150 -31
100 -31 100 -37 100 -36 100 -10 10 -10 10 7 -25 7 -25 15 -55 16 -55 12 -20
13 -20 7 -39 8 -40 43 -135 43 -136 30 -100 30 -100 7 -39 7 -40 -16 13 -15
13 -6 20 -7 19 -47 77 -48 77 -37 67 -37 66 -9 59 -9 58 -6 120 -7 120 -9 64
-10 64 12 8 13 7 -12 14 -11 14 -30 72 -29 72 -57 75 -57 74 -47 28 -46 27
-42 6 -43 7 0 -8 0 -7 49 -36 49 -36 34 -38 34 -38 22 -45 22 -44 19 -80 20
-80 16 -105 16 -105 15 -75 16 -75 38 -81 37 -81 50 -74 49 -74 57 -95 57 -95
18 -55 19 -55 12 -100 12 -100 24 -115 23 -115 12 -69 11 -70 25 -52 25 -52
59 -71 60 -72 16 -30 16 -31 -14 4 -13 5 -60 81 -60 80 -38 63 -39 63 -23 75
-24 76 -46 195 -47 195 -66 134 -67 135 -62 68 -62 67 -37 55 -36 55 -19 72
-19 72 -10 106 -10 106 0 101 0 101 -19 76 -19 75 -38 57 -38 57 -45 34 -46
34 -33 0 -33 0 -32 -16 -32 -17 -18 -21 -19 -21 15 -3 14 -3 12 -38 11 -39 39
-33 38 -34 52 -44 52 -43 7 6 6 7 -25 22 -24 22 -67 58 -67 58 -11 37 -10 37
14 14 14 14 49 12 48 12 46 -38 45 -39 37 -62 37 -63 -1 -25 0 -25 -10 25 -10
25 -27 29 -27 28 -45 20 -45 20 -52 18 -53 17 0 -7 0 -7 93 -38 92 -39 28 -29
27 -29 6 -24 6 -24 13 0 12 0 6 -47 6 -48 1 -100 1 -100 0 -9 -1 -10 -27 26
-28 25 -30 10 -30 11 -46 12 -46 12 -58 45 -57 45 -21 46 -22 47 2 100 2 100
-12 -20 -11 -20 0 -85 -1 -85 23 -47 23 -47 39 -35 39 -35 48 -24 48 -25 35
-7 35 -7 36 -19 37 -18 16 -16 16 -16 0 -42 0 -42 21 -75 20 -75 6 -30 6 -30
23 -28 24 -29 6 -24 6 -24 -6 -15 -5 -15 -26 0 -26 0 -5 18 -5 17 -13 26 -13
25 5 55 4 56 -34 74 -35 74 -64 63 -64 63 -83 47 -84 47 -25 25 -25 25 -9 23
-9 23 0 45 0 44 -10 0 -10 0 0 -47 0 -48 33 -67 34 -68 -7 0 -8 0 -15 23 -15
22 -7 -7 -8 -8 40 -37 40 -38 47 -38 47 -39 18 -36 18 -37 7 -27 6 -28 12 3
11 2 16 -28 16 -28 -30 -25 -30 -24 -33 0 -34 0 4 -12 5 -13 25 -3 26 -3 35
31 35 31 7 -11 6 -10 -11 -36 -12 -35 7 -7 6 -6 9 14 10 15 0 38 0 37 -22 45
-23 44 -12 1 -12 0 -10 38 -11 37 -20 33 -20 32 8 0 7 0 45 -16 45 -16 34 -25
33 -26 29 -46 30 -46 15 -53 16 -52 -10 -28 -10 -27 -7 20 -7 20 -30 63 -31
62 -3 0 -4 0 6 -44 6 -43 -12 -22 -12 -23 6 -6 6 -6 12 32 12 32 7 0 6 0 11
-25 12 -26 0 -47 0 -47 10 -36 10 -36 20 -18 20 -18 7 6 6 7 -15 17 -15 18
-12 34 -11 34 0 13 0 14 15 0 15 0 0 -23 0 -23 15 -21 14 -21 22 -5 21 -6 23
25 23 25 47 -48 47 -48 26 -55 27 -55 0 -245 1 -245 13 -75 13 -75 25 -65 26
-65 34 -47 33 -46 48 -30 47 -31 70 -26 70 -27 17 -1 17 -1 -5 -7 -4 -7 36
-23 35 -24 26 -50 25 -50 43 -50 43 -51 49 -27 50 -27 59 -18 59 -18 100 3
101 4 47 -26 48 -25 22 0 22 1 -55 29 -55 29 -121 60 -120 60 -48 42 -48 42
-43 91 -44 92 -17 94 -17 95 -1 242 -1 241 6 -4 7 -4 6 -32 6 -33 10 -96 9
-95 11 -139 11 -139 14 -65 15 -64 36 -68 37 -69 64 -60 64 -60 10 0 11 0 -66
63 -65 64 -40 84 -40 84 -16 101 -17 101 4 24 4 24 12 -45 12 -45 21 -65 20
-64 31 -62 31 -62 48 -65 48 -66 55 -43 55 -43 33 -18 33 -18 -40 33 -39 33
-49 45 -50 45 -45 63 -45 64 -38 88 -38 88 -21 80 -20 80 0 24 0 23 26 -33 25
-32 45 -26 45 -27 71 -18 72 -19 44 0 45 0 54 -17 53 -17 0 -27 0 -27 -20 -63
-19 -63 6 -9 6 -10 -10 6 -11 7 -12 -50 -12 -49 8 -12 7 -12 -11 7 -12 7 -1
-43 -1 -43 -3 -19 -4 -18 10 -25 9 -24 -10 6 -10 6 0 -13 0 -13 23 -39 22 -40
48 -34 48 -34 6 6 7 6 -51 48 -51 47 -7 37 -7 36 11 70 11 71 35 108 36 107
-5 12 -5 12 19 -5 19 -5 27 -39 26 -39 11 7 10 6 -7 -12 -7 -11 17 -47 18 -46
-2 -71 -1 -71 -3 -37 -3 -36 -6 4 -7 4 -5 -22 -6 -22 5 -5 5 -6 20 25 19 25
42 70 43 70 -1 95 0 95 -32 66 -31 65 -56 53 -55 52 0 64 0 64 -16 67 -15 67
-22 43 -22 42 -110 123 -110 122 -28 41 -27 41 -20 53 -20 53 0 57 0 57 10 35
11 35 20 90 20 90 1 116 0 116 -7 44 -7 44 -20 79 -19 80 -20 40 -19 40 0 7 0
8 -37 63 -36 62 -91 89 -91 89 -86 73 -86 74 -34 20 -34 21 -25 10 -25 10 -20
12 -20 11 -50 13 -50 14 -43 0 -43 0 -31 -16 -31 -16 -76 18 -76 18 -93 0 -94
1 -1 -2z m601 -88 l53 -26 11 7 11 7 -7 -11 -7 -11 19 -10 19 -10 8 7 8 7 -6
-12 -7 -11 32 -21 33 -20 44 -45 44 -45 10 6 10 6 -6 -10 -7 -11 42 -33 42
-34 68 -69 67 -68 15 -33 16 -33 8 -4 7 -3 23 -70 24 -70 10 -22 11 -22 10 6
9 5 -10 -18 -10 -19 5 -33 5 -33 17 6 16 6 -12 -12 -12 -12 6 -116 6 -116 11
-15 11 -15 -17 13 -16 13 -7 -53 -6 -53 -10 -53 -11 -54 5 -19 5 -19 -8 5 -8
5 -6 -31 -6 -32 0 -47 0 -47 10 -54 10 -54 29 -45 28 -45 14 3 14 4 -7 -7 -7
-8 10 -19 10 -19 11 7 11 7 -7 -12 -7 -11 77 -80 77 -79 10 6 10 6 -6 -10 -7
-11 19 -23 18 -24 16 -31 16 -32 15 -43 16 -44 6 -77 7 -78 -18 -6 -17 -7 -9
14 -9 14 0 20 0 20 -34 50 -34 50 -102 115 -102 115 -34 51 -34 52 -26 72 -25
72 -9 125 -9 124 6 135 5 134 -11 88 -12 87 -16 50 -16 50 -25 45 -26 45 -48
72 -47 71 -54 59 -54 58 -55 73 -56 72 -45 49 -46 49 -48 40 -48 40 -43 22
-43 21 -12 -4 -11 -3 63 -34 63 -34 27 -26 26 -26 50 -54 51 -55 61 -80 60
-80 23 -20 23 -20 52 -70 52 -71 40 -64 40 -65 16 -50 16 -50 11 -65 10 -65 4
-245 4 -245 16 -70 15 -70 21 -55 22 -55 44 -65 44 -65 80 -90 81 -89 45 -59
44 -59 0 -15 0 -15 -12 5 -13 6 -110 35 -111 35 -61 56 -61 55 -30 53 -30 54
-26 84 -26 84 -10 130 -10 130 -11 94 -11 94 -25 76 -24 76 -30 63 -30 63 -71
102 -71 102 -33 66 -34 66 0 11 0 11 -24 54 -23 53 -62 91 -61 90 -63 60 -62
59 -50 24 -50 24 -63 1 -62 0 -1 10 -2 10 33 19 32 19 42 9 41 9 23 0 24 -1
45 -20 46 -20 69 -51 69 -52 5 6 5 5 -48 41 -48 42 -71 35 -72 36 -56 -4 -56
-3 0 6 0 5 28 25 27 25 26 13 26 13 34 9 34 8 80 -4 80 -4 53 -26z m-277 -216
l56 -28 55 -63 55 -63 53 -78 52 -78 33 -88 33 -88 17 -34 18 -34 67 -100 66
-100 41 -80 40 -80 16 -55 15 -55 10 -50 11 -50 6 -95 6 -95 10 -93 9 -92 30
-93 30 -93 30 -45 30 -46 57 -55 58 -55 45 -15 45 -16 95 -32 95 -31 22 -2 21
-2 -4 -6 -4 -7 34 -25 34 -26 7 7 7 7 -4 -15 -3 -15 13 3 12 2 -2 -12 -3 -13
13 3 12 2 -2 -12 -3 -13 13 3 13 2 -5 -8 -5 -8 18 -27 18 -27 5 6 6 5 -1 -13
0 -13 1 -18 2 -18 8 4 7 5 3 -88 4 -88 -16 -31 -17 -31 -9 0 -10 0 0 79 0 79
-22 56 -21 57 -37 42 -37 42 -67 33 -67 33 -92 10 -92 9 -50 15 -50 15 -38 24
-39 24 -43 58 -44 59 -6 55 -6 55 -21 95 -21 95 -24 75 -24 75 -38 85 -39 85
-7 35 -7 35 -18 35 -18 35 -50 62 -50 62 -12 36 -12 36 -3 157 -3 157 -15 55
-16 55 -11 39 -12 39 -33 69 -34 68 -36 50 -36 49 -57 52 -57 52 -52 24 -53
24 0 5 0 5 23 -7 22 -7 56 -28z m-285 -159 l33 -35 36 -50 35 -50 30 -78 31
-78 9 -77 10 -77 9 -145 8 -145 -3 -4 -3 -3 -15 35 -14 36 -16 78 -15 78 -6
55 -7 55 -15 70 -15 70 -20 65 -21 65 -23 45 -22 46 -64 63 -63 64 44 -24 44
-24 33 -35z m-218 -489 l72 -43 0 -10 0 -10 -14 5 -14 6 -42 12 -42 13 -49 44
-49 44 0 10 0 10 33 -19 32 -20 73 -42z m816 -253 l3 -23 13 -45 12 -45 38
-115 38 -116 12 -78 13 -77 -9 -152 -8 -152 0 -120 -1 -120 17 -31 17 -32 5
-127 4 -127 -8 9 -8 8 -51 64 -51 65 -25 52 -25 52 -10 71 -10 71 2 177 1 178
-23 160 -22 160 5 61 6 62 27 101 27 101 4 -4 5 -4 2 -24z m155 -273 l30 -90
10 -60 10 -60 6 -100 6 -100 -15 -85 -14 -85 -17 -108 -18 -108 -11 11 -11 11
0 127 1 127 8 150 8 150 -21 101 -21 100 -30 95 -30 94 0 15 0 15 39 -55 39
-55 31 -90z m-1150 -19 l-4 -4 -105 -12 -105 -12 -149 -29 -149 -29 -5 4 -4 5
43 11 44 11 40 11 40 10 175 23 175 22 4 -3 4 -4 -4 -4z m129 7 l-28 -4 -27 4
-28 4 55 0 55 0 -27 -4z m82 -13 l0 -10 -10 0 -10 0 0 10 0 10 10 0 10 0 0
-10z m-73 -6 l-6 -6 -13 5 -13 5 19 1 19 1 -6 -6z m148 -54 l6 -10 -13 -4 -13
-4 -134 -11 -134 -11 -96 -14 -96 -15 -135 -21 -135 -21 -73 -13 -73 -12 -5 7
-4 8 52 10 53 11 170 29 170 29 140 17 140 16 65 8 65 9 22 1 22 1 6 -10z
m-822 -27 l-13 -5 -12 5 -13 5 25 0 25 0 -12 -5z m827 -22 l0 -18 -82 -7 -83
-7 -155 -20 -155 -19 -100 -16 -100 -15 -90 -19 -89 -18 -4 -11 -4 -11 -21 1
-22 0 19 8 20 8 -22 5 -22 6 0 16 0 16 13 1 12 1 30 4 30 5 75 13 75 14 105
16 105 16 145 20 145 20 45 3 45 4 43 1 42 2 0 -19z m959 -111 l20 -75 3 -155
2 -155 -3 -160 -3 -160 15 -70 15 -70 26 -55 26 -55 12 -20 13 -20 29 -38 29
-39 41 -26 41 -26 70 -30 70 -31 1 -10 2 -10 -75 2 -75 2 -57 16 -56 16 -37
24 -37 24 -41 43 -41 43 -24 50 -25 50 -10 54 -10 54 0 133 0 133 27 148 26
148 1 125 1 125 -8 55 -8 55 9 -10 10 -10 21 -75z m-1000 66 l-4 -4 -75 -12
-75 -11 -70 -10 -70 -10 -170 -19 -170 -20 -9 0 -10 0 10 9 9 8 88 12 87 11
83 11 82 10 110 13 110 14 39 1 39 1 -4 -4z m57 -17 l7 -11 -14 -9 -14 -9 -41
0 -41 0 -62 -6 -62 -7 12 -7 12 -8 -29 -5 -29 -6 -115 -16 -115 -16 -100 -14
-100 -15 -65 -11 -65 -11 -45 -8 -45 -9 -8 9 -9 8 10 19 10 18 114 18 113 17
85 7 85 6 -5 -5 -5 -6 -90 -12 -90 -13 -50 -7 -50 -7 45 -1 45 -1 135 23 135
24 -20 1 -20 2 19 10 18 11 8 -12 7 -12 93 11 92 12 14 14 14 14 48 6 47 7 45
8 45 8 12 1 12 1 7 -11z m423 -36 l13 -38 9 -205 10 -205 20 -84 20 -84 26
-51 26 -51 35 -42 34 -43 -10 0 -11 0 -48 48 -48 47 -28 53 -29 53 -20 92 -20
92 -2 228 -3 227 7 0 7 0 12 -37z m-709 -3 l0 -10 -17 0 -18 0 15 10 15 10 3
0 2 0 0 -10z m290 -18 l0 -8 -72 -12 -73 -12 -115 -10 -115 -10 -50 -7 -50 -6
5 6 6 6 104 16 105 15 30 6 30 6 50 8 50 8 48 1 47 1 0 -8z m500 -190 l32
-137 15 -70 15 -70 25 -75 25 -75 38 -65 38 -65 43 -49 44 -49 -26 6 -25 6
-37 16 -36 15 -21 22 -22 23 -43 65 -44 66 -20 74 -21 75 -10 110 -10 110 -3
107 -2 106 7 -4 7 -4 31 -138z m-990 129 l0 -9 -97 -11 -98 -12 -20 -6 -20 -5
8 8 9 9 101 16 102 16 8 2 7 1 0 -9z m-293 -47 l-6 -7 -43 -3 -43 -3 25 8 25
9 24 1 24 1 -6 -6z m758 -34 l-20 -9 -25 0 -25 -1 15 10 15 10 30 -1 30 0 -20
-9z m-92 -17 l-13 -5 -17 5 -18 5 30 0 30 0 -12 -5z m57 -13 l-15 -10 -20 0
-20 0 15 10 15 10 20 0 20 0 -15 -10z m-1006 -49 l29 -16 26 -34 26 -34 -38 5
-37 4 -3 -10 -3 -10 -13 8 -13 9 13 8 14 9 -22 0 -23 0 0 -16 0 -15 -10 6 -9
6 -21 46 -20 46 0 9 0 9 38 -7 37 -6 29 -17z m521 19 l-20 -9 -30 1 -30 0 30
8 30 8 20 0 20 1 -20 -9z m560 -10 l-6 -10 -10 0 -10 0 6 10 6 10 10 0 10 0
-6 -10z m-675 -10 l-35 -8 -39 -5 -39 -6 9 8 9 9 20 5 20 5 45 0 45 0 -35 -8z
m350 -55 l-55 -13 -45 -7 -45 -7 6 6 6 7 69 13 69 14 25 0 25 0 -55 -13z
m-162 -32 l-18 -4 -17 4 -18 5 35 0 35 0 -17 -5z m-148 -17 l0 -5 -9 -6 -10
-5 -6 10 -6 10 15 0 16 0 0 -4z m-70 -10 l0 -4 -25 -4 -25 -5 0 8 0 9 25 0 25
0 0 -4z m-82 -13 l-18 -4 -17 4 -18 5 35 0 35 0 -17 -5z m1827 -93 l6 -10 -10
0 -11 0 0 10 0 10 4 0 5 0 6 -10z m-1283 -625 l-37 -75 -3 15 -3 15 28 52 28
53 10 7 10 8 2 0 1 0 -36 -75z m-24 -126 l-27 -20 -6 -30 -7 -30 -18 21 -19
22 8 21 8 22 34 17 33 18 11 -11 10 -10 -27 -20z m427 -28 l0 -14 -43 -24 -43
-24 -9 6 -10 6 0 15 0 14 33 20 32 20 20 -2 20 -3 0 -14z m-265 -26 l0 -15
-29 0 -28 0 -26 -26 -26 -26 -11 7 -10 6 0 23 0 24 15 12 15 13 33 7 32 7 18
-9 17 -9 0 -14z m-226 -39 l-6 -16 -14 0 -14 0 0 10 0 9 17 10 18 9 3 -2 2 -3
-6 -17z m731 -14 l0 -12 -10 -1 -10 0 -3 17 -4 16 14 -4 13 -5 0 -11z m-814
-193 l19 -19 0 -16 0 -15 12 7 11 7 -6 -11 -7 -10 6 -16 6 -16 7 4 6 4 3 -52
3 -51 10 -3 9 -4 -6 -9 -5 -9 -25 0 -24 0 0 39 0 39 -17 51 -16 52 -16 -3 -15
-3 -11 -20 -10 -20 -28 -42 -27 -43 0 -14 0 -14 -8 -4 -8 -3 -33 -68 -32 -69
5 -13 5 -14 -15 6 -14 5 -2 -18 -1 -19 0 -12 1 -13 -9 5 -8 5 -20 -46 -21 -46
6 -9 5 -9 -15 0 -15 0 -3 -22 -3 -23 -27 -3 -28 -3 0 10 0 10 19 6 20 6 -5 13
-5 13 16 13 15 12 0 15 0 15 30 45 30 44 0 10 0 9 10 0 10 0 0 15 0 16 21 42
22 42 8 5 8 6 17 39 18 40 -2 8 -2 8 9 -5 9 -6 12 33 13 32 31 63 31 62 3 -21
4 -21 19 -19z m-13 -128 l-3 -16 -23 23 -22 22 11 21 11 21 14 -28 15 -28 -3
-15z"/>
<path d="M1600 3900 l-15 -10 33 0 32 0 0 10 0 10 -17 0 -18 0 -15 -10z"/>
<path d="M373 2223 l17 -4 18 4 17 5 -35 0 -35 0 18 -5z"/>
<path d="M1490 3673 l10 -18 46 -50 45 -50 -12 25 -12 25 -36 43 -35 42 -8 0
-9 0 11 -17z"/>
<path d="M995 3458 l-7 -18 12 -52 13 -53 12 -25 13 -25 29 -27 28 -27 70 -37
70 -37 23 -20 22 -20 0 10 0 11 -31 27 -32 26 -56 29 -56 28 -34 36 -35 36 7
6 7 7 17 -15 18 -14 50 -25 50 -24 57 -58 58 -58 0 9 0 9 -30 41 -29 40 -59
35 -59 35 -20 6 -19 6 -32 33 -32 33 -9 45 -8 44 -8 -17z"/>
<path d="M304 3095 l-19 -16 65 7 65 6 17 -19 17 -18 9 -41 9 -41 -46 14 -46
14 -40 -11 -40 -11 0 -103 0 -103 11 -14 12 -14 16 -32 16 -32 0 -6 0 -6 -10
6 -9 6 2 -78 2 -78 10 5 10 5 0 58 1 58 9 7 10 7 0 13 0 13 55 21 55 20 38 5
37 5 0 10 0 9 -47 21 -47 21 -51 0 -51 0 -23 -12 -23 -13 -4 4 -4 5 8 89 7 89
73 -2 74 -2 14 -12 15 -12 10 10 11 11 -21 11 -21 12 0 20 0 20 -20 38 -19 39
-16 6 -17 6 -42 0 -42 0 -20 -15z m76 -335 l2 -15 -1 -17 -1 -18 -14 0 -14 0
-6 16 -6 16 0 18 0 18 13 5 12 5 7 -7 6 -6 2 -15z m83 19 l37 -10 0 -7 0 -7
-40 -13 -40 -12 -10 0 -10 0 0 30 0 30 13 0 12 0 38 -11z"/>
<path d="M254 3055 l-17 -26 12 -39 12 -40 9 0 10 0 0 4 0 5 -10 27 -11 27 11
30 10 30 -4 4 -4 5 -18 -27z"/>
<path d="M1065 2919 l15 -42 0 -28 0 -28 -10 -25 -10 -26 10 0 10 0 10 26 10
25 0 34 0 34 -17 36 -17 35 -7 0 -8 0 14 -41z"/>
<path d="M1520 2487 l0 -8 20 -77 20 -78 -5 -61 -5 -62 -16 -40 -16 -41 -30
-25 -30 -25 -24 0 -25 0 -22 11 -21 12 -18 21 -17 21 -12 54 -11 54 7 56 7 56
19 54 19 55 -4 3 -3 3 -12 -14 -13 -15 -14 -53 -14 -53 -1 -83 0 -84 20 -42
21 -41 29 -18 29 -17 33 0 33 0 28 27 28 27 0 -15 0 -14 -21 -55 -21 -55 -15
-100 -15 -100 12 -105 11 -105 26 -47 26 -48 57 -52 57 -53 84 -61 84 -61 35
-18 35 -19 138 -4 137 -4 0 11 0 11 -18 0 -17 0 -53 44 -54 43 -141 72 -142
71 -38 31 -38 31 -38 52 -37 51 -22 48 -23 48 -15 81 -15 80 6 57 7 56 24 93
25 94 9 79 9 79 -20 77 -20 78 -10 10 -9 9 0 -7z m20 -863 l29 -60 41 -46 40
-46 0 -19 0 -19 20 -39 20 -39 0 -3 0 -3 -9 0 -10 0 -61 57 -61 56 -23 41 -24
41 -5 25 -6 25 -11 87 -11 88 7 27 7 28 14 -70 15 -70 28 -61z m171 -194 l28
-21 113 -59 112 -60 9 13 9 12 -5 -15 -4 -15 43 -28 42 -28 10 -12 11 -13 -94
8 -95 8 -35 14 -35 15 -40 32 -41 33 -28 46 -28 46 -7 22 -7 22 6 0 7 0 29
-20z"/>
<path d="M1392 2405 l-2 -44 -10 -26 -10 -26 0 -52 0 -52 6 -23 7 -23 28 -15
28 -14 17 25 16 25 -7 37 -7 38 -2 57 -2 57 -16 18 -16 18 -6 23 -7 22 -7 0
-7 0 -3 -45z m44 -88 l2 -52 7 -47 8 -48 -18 -6 -18 -7 -13 18 -14 19 0 53 0
54 11 45 12 45 11 -11 10 -10 2 -53z"/>
<path d="M170 2417 l-25 -11 40 -4 40 -3 12 -11 13 -10 0 -25 0 -24 -15 -29
-15 -28 -12 -5 -13 -5 -33 31 -32 31 -12 -12 -11 -11 13 -16 14 -16 28 -15 29
-15 20 6 19 6 14 27 14 27 7 32 7 33 -30 30 -30 30 -9 -1 -8 0 -25 -12z"/>
<path d="M850 2085 l-115 -23 26 -1 27 -1 108 21 109 21 4 4 4 4 -24 -1 -24
-2 -115 -22z"/>
<path d="M1085 1939 l-90 -18 -110 -26 -110 -25 -95 -15 -95 -14 -75 -6 -75
-6 -13 -4 -12 -5 -45 6 -44 7 -10 36 -10 36 2 -91 2 -91 28 9 28 10 6 -6 6 -6
-24 -10 -24 -10 70 6 70 6 90 18 90 18 55 7 55 6 80 15 80 16 35 8 35 9 90 21
90 22 18 5 17 4 0 13 0 13 -25 -5 -25 -4 0 9 0 10 32 9 33 10 3 17 3 17 -23
-1 -23 -2 -90 -18z m85 -13 l-35 -13 -3 -16 -3 -17 -2 0 -2 0 -85 -16 -85 -15
-75 -10 -75 -9 -35 -8 -35 -9 3 -14 3 -13 -20 18 -21 19 0 -15 0 -16 -63 -11
-64 -11 -34 0 -34 0 15 10 15 10 48 6 49 7 -12 7 -13 8 19 5 19 6 65 6 65 7
20 12 20 12 100 22 100 22 70 14 70 14 25 0 25 0 -35 -12z m-587 -103 l-13 -5
-17 5 -18 5 30 0 30 0 -12 -5z m-208 -13 l6 -10 -26 0 -26 0 6 10 6 10 14 0
14 0 6 -10z m98 3 l-13 -5 -17 5 -18 5 30 0 30 0 -12 -5z m62 -13 l-6 -10 -32
1 -32 1 25 8 25 8 13 1 13 1 -6 -10z m-146 -14 l-4 -3 -27 -7 -28 -6 0 10 0
10 32 0 31 0 -4 -4z m86 -15 l-10 -9 -57 -7 -58 -6 0 10 0 10 63 4 62 3 5 2 4
2 -9 -9z m10 -33 l-40 -7 -24 0 -24 -1 4 4 5 5 34 6 34 6 4 3 3 4 22 -6 22 -6
-40 -8z"/>
<path d="M968 1873 l13 -5 6 6 6 6 -19 -1 -19 -1 13 -5z"/>
<path d="M828 1853 l13 -5 6 6 6 6 -19 -1 -19 -1 13 -5z"/>
<path d="M210 1929 l-35 -21 -27 -26 -28 -26 0 -8 0 -8 60 41 60 41 6 9 6 10
-4 4 -4 4 -34 -20z"/>
<path d="M1135 1809 l-30 -10 -130 -24 -130 -23 -75 -15 -75 -16 -130 -20
-130 -21 -50 -6 -50 -6 4 -45 3 -45 60 6 59 7 112 19 112 20 136 24 135 25 90
21 89 22 15 9 15 8 -17 1 -17 0 -102 -25 -103 -25 -4 5 -5 4 27 11 27 10 22 0
22 1 25 14 25 14 30 1 30 1 30 13 29 12 -9 6 -10 6 -95 -25 -95 -25 -32 -5
-33 -5 0 -19 0 -19 -7 0 -6 0 -16 14 -16 14 -65 -9 -65 -9 -120 -20 -120 -19
-53 -4 -53 -4 8 7 8 7 130 17 130 18 95 19 95 19 85 16 85 15 79 19 78 19 6 5
5 6 -14 -1 -14 -1 -30 -9z m-315 -113 l0 -4 -25 -4 -24 -5 5 8 5 9 20 0 19 0
0 -4z m-80 -16 l-15 -10 20 0 20 -1 -23 -10 -24 -9 -31 -5 -32 -5 -70 -11 -70
-11 -54 -9 -55 -9 -15 0 -15 0 10 10 11 11 164 23 164 24 -30 2 -30 1 20 9 20
9 25 0 25 1 -15 -10z m115 0 l-20 -9 -8 0 -8 -1 6 10 6 10 22 -1 22 0 -20 -9z
m-222 -17 l-13 -5 -12 5 -13 5 25 0 25 0 -12 -5z"/>
<path d="M312 1650 l0 -25 5 13 5 12 -5 13 -5 12 0 -25z"/>
<path d="M1168 1233 l13 -5 6 6 6 6 -19 -1 -19 -1 13 -5z"/>
<path d="M1120 1226 l0 -4 16 -6 15 -6 -6 10 -6 10 -10 0 -9 0 0 -4z"/>
<path d="M1500 822 l0 -14 17 -29 17 -28 14 -6 15 -5 4 4 4 4 -15 19 -15 18
-20 25 -20 25 -1 -13z"/>
<path d="M1271 698 l1 -43 8 -25 8 -25 2 18 1 17 1 47 1 47 -12 4 -11 4 1 -44z"/>
<path d="M1340 730 l-15 -9 24 -17 23 -17 14 -33 14 -34 14 0 14 0 5 -20 5
-20 10 0 10 0 -5 20 -5 20 -9 0 -9 0 0 15 0 15 -9 0 -9 0 -16 34 -16 33 -13
11 -13 11 -14 -9z"/>
<path d="M1590 710 l0 -11 14 -28 15 -27 3 -67 3 -67 6 0 7 0 7 -39 7 -40 14
-12 14 -11 0 16 0 17 -16 37 -15 37 -6 69 -6 69 -19 34 -20 33 -4 0 -4 0 0
-10z"/>
<path d="M1071 627 l-11 -11 0 -27 0 -27 6 -16 6 -16 9 0 9 0 -6 39 -6 40 21
-6 21 -5 20 -25 19 -24 16 -47 17 -47 6 -15 5 -15 7 30 6 30 8 -35 8 -35 20
-47 20 -48 7 0 7 0 -35 106 -36 105 -3 -22 -4 -22 -18 41 -19 42 -9 0 -10 0
-5 19 -5 19 -29 16 -30 15 -12 -12z"/>
<path d="M1454 545 l6 -30 6 -32 7 -33 9 0 10 0 -6 16 -6 16 0 27 0 27 -16 20
-15 19 5 -30z"/>
</g>
</svg>
