<?xml version="1.0" standalone="no"?>
<!DOCTYPE svg PUBLIC "-//W3C//DTD SVG 20010904//EN"
 "http://www.w3.org/TR/2001/REC-SVG-20010904/DTD/svg10.dtd">
<svg version="1.0" xmlns="http://www.w3.org/2000/svg"
   viewBox="0 0 299.000000 303.000000"
 preserveAspectRatio="xMidYMid meet">
<metadata>
Created by potrace 1.16, written by Peter Selinger 2001-2019
</metadata>
<g transform="translate(0.000000,303.000000) scale(0.100000,-0.100000)"
fill="#9E1A1A" stroke="none">
<path d="M1350 3018 l-125 -6 -73 -16 -72 -16 -73 -19 -72 -20 -70 -24 -70
-24 -50 -26 -51 -25 -82 -61 -83 -62 7 -11 7 -11 -11 7 -10 6 -69 -75 -68 -75
-22 -39 -22 -39 7 -8 7 -7 -12 7 -12 7 -16 -37 -15 -36 7 -11 6 -10 -10 6 -10
6 -58 -122 -58 -122 -1 -27 -1 -26 -9 6 -9 5 5 -21 6 -22 -10 6 -11 7 5 -26 5
-26 -10 6 -9 6 5 -84 5 -84 14 -48 14 -48 5 5 4 4 0 -68 0 -68 -9 6 -9 5 5
-21 6 -22 -11 7 -10 6 5 -21 6 -22 -8 5 -8 5 -11 -31 -11 -31 7 -11 6 -10 -11
7 -11 7 -10 -19 -10 -19 7 -8 7 -7 -11 4 -10 3 -43 -49 -42 -49 5 -14 6 -14
-10 6 -10 6 0 -21 0 -21 10 6 10 6 -6 -15 -6 -14 12 -24 12 -23 25 -21 25 -21
-11 -38 -10 -38 6 -11 6 -11 -8 8 -8 7 -19 -17 -18 -16 0 -19 0 -18 15 0 15 0
0 15 0 15 10 0 9 0 11 21 12 21 12 49 13 50 -28 16 -27 16 -12 23 -12 22 0 27
0 26 29 32 29 32 30 45 30 45 23 49 23 50 10 50 11 51 -17 80 -18 80 -8 54 -9
53 19 72 18 71 57 125 56 125 36 64 35 63 73 83 74 82 50 38 50 38 -6 10 -6
10 10 -6 11 -7 52 35 53 35 66 31 66 31 113 29 113 29 92 14 92 14 100 6 100
6 75 -11 75 -11 26 -2 26 -1 -5 -17 -4 -18 -22 -1 -21 -1 -30 -4 -30 -5 -28
-9 -28 -9 -74 -46 -74 -46 -35 -39 -35 -39 -20 -10 -20 -11 -18 0 -19 0 -47
-30 -48 -30 -52 0 -53 0 -20 -15 -19 -15 57 6 58 7 41 -29 41 -28 27 -40 28
-41 11 -34 12 -34 0 -11 0 -11 -21 35 -21 35 -22 24 -21 24 -50 23 -50 24 -17
0 -18 0 0 -8 0 -8 43 -11 42 -12 43 -36 43 -37 21 -42 21 -41 7 -5 7 -5 7 -57
6 -57 -9 -5 -9 -6 -42 48 -42 47 -26 28 -25 29 -51 22 -51 23 -13 15 -12 15
-15 49 -14 49 14 8 15 8 0 10 0 10 -38 -21 -37 -21 -18 -30 -17 -31 0 -68 0
-69 20 -53 20 -53 40 -46 40 -47 97 -60 98 -61 34 -31 33 -31 7 6 6 7 -51 46
-51 47 -49 24 -49 25 -53 39 -52 40 -36 73 -37 73 5 68 6 68 12 28 13 28 11
-4 10 -3 3 -74 2 -74 11 -47 11 -46 30 -37 31 -36 46 -31 47 -32 54 -51 53
-51 -10 20 -10 20 -44 41 -43 41 -48 33 -48 34 -29 45 -30 44 0 9 0 8 5 0 6 0
27 -26 27 -25 65 -39 65 -39 46 -48 46 -48 17 -85 18 -85 24 -62 25 -61 -21
-34 -20 -33 0 -58 0 -58 -14 -34 -15 -35 10 -5 9 -6 0 -25 0 -25 17 -32 16
-32 5 13 4 14 -10 21 -10 22 -6 33 -6 32 10 0 10 0 0 -17 0 -17 23 -33 22 -33
16 0 16 0 23 25 23 24 -6 36 -6 35 -23 32 -23 32 -12 30 -11 31 -1 -22 -1 -23
30 -58 31 -58 -10 -27 -11 -27 -19 0 -19 0 -11 14 -11 13 -14 47 -14 46 5 58
5 57 11 28 12 27 7 0 7 0 15 -27 14 -28 27 -30 27 -30 61 -75 60 -75 9 3 9 2
-6 -10 -6 -10 11 -35 12 -35 3 -60 4 -59 -8 -6 -9 -5 -7 63 -7 62 -10 15 -9
15 6 -55 7 -55 7 -72 7 -72 -8 5 -8 5 0 -20 0 -20 -24 -53 -23 -53 -33 -23
-32 -24 -33 0 -33 0 -21 11 -21 11 -12 23 -12 22 -11 50 -12 50 4 37 3 37 15
42 15 42 -5 5 -5 5 -17 -39 -17 -39 -1 -85 0 -85 28 -47 28 -48 19 -10 19 -10
31 0 32 0 30 21 29 21 5 -5 5 -4 -21 -53 -21 -53 -29 -105 -30 -105 0 -73 0
-72 18 -60 19 -59 30 -44 31 -44 23 -21 24 -21 46 -26 45 -26 42 -45 42 -46
38 -23 37 -24 54 -18 55 -18 110 9 111 8 55 -1 55 -1 43 -16 42 -15 0 9 0 9
-32 18 -33 18 -100 -2 -100 -2 -90 -3 -90 -3 -61 28 -62 29 -33 35 -34 35 25
-7 25 -7 -6 6 -7 7 -43 22 -44 22 -19 40 -19 40 -8 28 -8 28 8 -3 8 -3 41 -47
40 -47 33 -29 34 -29 39 -27 39 -26 21 0 21 1 -50 26 -50 25 -80 82 -80 82
-32 60 -32 61 -15 57 -15 57 -7 97 -6 97 11 98 11 98 16 37 16 37 9 30 9 30
-7 -100 -8 -100 0 -140 0 -140 29 -60 28 -60 38 -92 37 -93 34 -44 34 -44 50
-34 50 -34 55 -24 55 -23 110 -1 110 -1 55 -28 55 -27 40 -30 40 -29 74 -15
74 -16 65 -30 65 -30 5 5 6 5 -10 9 -9 9 -52 27 -53 27 -86 19 -87 19 -67 45
-67 45 -46 68 -46 67 -31 85 -31 85 -26 45 -26 45 -24 30 -23 30 -11 13 -10
13 -23 52 -24 52 -25 82 -26 82 -11 109 -11 108 11 90 10 89 15 85 14 85 16
110 17 110 -1 158 -1 157 -14 68 -14 67 -31 80 -31 80 -36 58 -36 57 -9 0 -10
0 7 -12 8 -13 33 -52 33 -52 30 -90 30 -90 10 -73 9 -73 0 -110 0 -110 -9 -70
-9 -70 -11 -95 -10 -95 -5 -22 -5 -23 -8 0 -8 0 -29 68 -29 67 -27 40 -26 40
-16 35 -17 35 -25 75 -26 75 -15 130 -15 130 -20 135 -20 135 -26 85 -25 84
-24 36 -24 36 -52 31 -53 32 -39 8 -40 9 45 37 46 37 36 15 36 15 69 0 68 0
50 -17 49 -16 51 -33 51 -34 61 -61 62 -61 0 12 0 11 -46 49 -46 49 -52 40
-53 41 -58 20 -58 20 -64 0 -63 0 0 10 0 9 52 16 52 15 47 0 46 0 42 -15 41
-14 68 -44 69 -44 48 -57 49 -56 4 5 4 4 -31 42 -31 43 5 4 5 5 47 -37 47 -37
44 -41 43 -40 53 -72 54 -71 30 -60 31 -60 6 -30 7 -30 -30 51 -29 51 -33 47
-33 46 -4 0 -3 0 0 -8 0 -9 20 -23 21 -24 39 -70 38 -71 11 -40 10 -40 16
-115 15 -115 0 -115 0 -115 -16 -135 -16 -135 6 -61 6 -61 17 -49 17 -49 33
-56 33 -57 41 -53 42 -54 108 -106 109 -106 10 -27 10 -27 12 7 11 7 -6 -10
-6 -10 19 -39 19 -39 2 -15 1 -15 -1 -57 -1 -58 -16 0 -16 0 -59 36 -59 35
-90 45 -91 44 -30 22 -29 22 -44 55 -43 56 -22 42 -21 42 -16 58 -16 58 -2
290 -3 290 -12 100 -12 100 -11 55 -10 55 -41 100 -40 100 -36 63 -36 63 -3
-9 -3 -9 45 -89 45 -89 30 -90 30 -90 6 -60 6 -60 10 -87 11 -87 2 -288 2
-288 16 -46 16 -45 12 -162 11 -163 15 -55 14 -55 21 -42 22 -42 81 -84 81
-84 -15 8 -15 9 -35 25 -35 25 -38 35 -38 36 -35 61 -34 61 -20 59 -21 59 -14
90 -14 90 -2 150 -2 150 -8 100 -9 99 -21 101 -22 100 -19 50 -20 50 6 59 6
59 -11 116 -10 116 -15 60 -15 60 -22 55 -21 55 -7 10 -7 10 -62 120 -63 120
-30 45 -31 45 -70 71 -71 70 -50 24 -50 23 -44 13 -44 14 -41 0 -41 0 -22 -6
-23 -6 0 -7 0 -6 78 -1 77 0 65 -27 66 -27 54 -48 54 -47 56 -76 57 -77 12
-46 12 -47 11 7 11 7 -7 -11 -7 -12 45 -132 45 -133 22 -95 21 -95 -5 -115 -5
-115 -25 -125 -26 -125 -8 -95 -8 -95 11 -110 12 -110 26 -81 26 -82 54 -81
53 -81 4 4 4 4 3 -76 3 -77 14 -55 14 -56 16 -32 16 -32 11 -6 11 -7 -8 19 -7
19 -21 60 -21 60 -2 143 -2 142 8 0 9 0 6 -37 6 -38 10 -50 10 -50 25 -65 25
-65 37 -55 37 -54 75 -58 75 -58 13 5 13 5 -6 -10 -6 -10 13 -1 13 -1 8 1 7 1
-2 -8 -3 -8 74 -69 74 -70 -11 20 -10 21 -75 84 -75 85 -66 64 -66 65 -30 46
-29 46 -15 59 -15 60 -5 53 -5 52 7 0 7 0 30 -41 30 -41 35 -28 35 -28 55 -26
55 -25 70 -27 70 -26 38 -25 37 -26 0 -39 0 -39 -26 -61 -26 -61 5 -19 5 -18
-10 6 -11 7 8 -68 7 -69 24 -38 24 -38 10 0 10 0 0 8 0 8 -14 20 -14 20 -12
43 -11 43 32 104 33 105 15 -3 16 -3 23 -55 23 -55 -6 -60 -7 -60 -1 -20 -2
-20 9 -3 10 -4 40 79 40 78 4 72 4 71 -28 52 -28 52 -31 25 -30 26 -1 106 0
106 -17 50 -17 50 -47 72 -48 71 -71 94 -72 94 -30 55 -31 54 -15 65 -15 65
-7 90 -6 90 17 135 18 135 -7 105 -6 105 -19 100 -20 100 -17 55 -16 55 -8 10
-7 10 -12 37 -12 38 -50 75 -49 76 -97 100 -98 101 -74 75 -73 75 -59 28 -60
28 -42 -5 -42 -5 -34 -16 -34 -15 -46 12 -46 13 -65 7 -65 6 -125 -7z m534
-41 l11 6 -7 -8 -7 -7 35 -24 35 -24 12 6 12 7 -7 -8 -7 -8 95 -101 96 -101
10 3 9 2 -6 -9 -6 -10 38 -24 38 -24 19 -21 19 -22 10 7 10 6 -7 -11 -6 -11
38 -55 39 -55 8 7 8 7 -7 -12 -7 -12 16 -30 15 -30 29 -85 28 -85 4 3 4 4 1
-31 0 -32 13 -85 14 -85 -3 -140 -3 -140 -1 -57 -1 -56 -7 5 -8 4 0 -136 0
-136 8 4 7 5 1 -38 2 -38 28 -54 28 -53 17 -22 16 -22 8 7 8 7 -7 -12 -7 -13
27 -35 26 -35 12 7 11 6 -7 -8 -7 -8 10 -19 10 -19 11 7 11 7 -6 -10 -6 -10
43 -56 43 -56 8 7 7 7 -3 -10 -3 -10 27 -52 27 -53 -10 0 -9 0 -15 28 -14 28
-97 94 -97 95 -60 80 -60 79 -29 58 -29 58 -11 74 -11 74 16 126 16 126 0 138
0 139 -16 139 -15 139 -15 54 -16 55 -28 57 -29 57 -51 68 -51 69 -47 43 -47
43 -30 23 -30 23 -65 35 -65 35 -50 31 -50 31 -48 12 -47 13 0 8 0 8 38 0 37
0 45 -21 44 -20 34 -26 33 -25 5 5 5 5 -38 29 -38 30 -43 16 -42 17 -21 0 -21
0 4 13 5 12 29 5 29 6 34 -7 35 -8 10 6z m-379 -350 l33 -38 25 -82 25 -82 11
-60 11 -60 15 -162 15 -162 16 -78 16 -78 34 -82 34 -83 20 -76 21 -77 -6 -5
-5 -5 0 9 0 10 -57 94 -56 95 -28 62 -29 62 -20 73 -20 73 -19 192 -20 192
-10 39 -11 39 -39 59 -38 59 -34 33 -33 33 -25 14 -26 13 -44 12 -44 11 11 11
10 10 64 5 64 5 28 -32 27 -33 26 -51 26 -51 4 12 4 12 -32 61 -32 60 -7 0 -8
0 -6 16 -6 15 41 -23 42 -23 32 -38z m-237 19 l41 -15 32 -23 31 -23 49 -73
49 -73 19 -67 19 -67 12 -150 12 -150 18 -70 18 -70 21 -55 21 -55 85 -150 85
-150 29 -87 28 -88 8 8 8 7 -6 -11 -7 -12 12 -130 11 -131 9 5 8 5 -6 -15 -6
-16 7 -18 8 -17 -2 -20 -2 -20 20 -58 20 -58 21 -27 21 -27 63 -90 63 -90 22
-43 22 -44 -5 -5 -4 -5 -20 6 -20 7 -57 58 -57 59 -13 23 -14 24 -29 60 -30
60 -31 92 -31 92 0 16 0 17 -26 111 -25 112 -25 82 -24 82 -10 6 -10 6 0 20 0
20 -91 177 -92 177 -37 115 -38 115 -27 130 -27 130 -14 55 -14 55 -32 89 -32
90 -40 40 -41 41 -20 12 -20 12 26 0 26 1 41 -14z m-58 -31 l36 -25 31 -52 32
-53 25 -95 25 -95 16 -89 15 -89 29 -112 30 -112 21 -54 21 -54 35 -63 34 -63
0 -12 -1 -12 -40 45 -40 45 -43 60 -43 60 -21 55 -22 55 -20 80 -20 80 -1 85
-1 85 -14 90 -15 90 -36 59 -36 59 -31 28 -31 28 14 1 15 0 36 -25z m-125
-218 l50 -25 20 -15 20 -15 -7 -7 -7 -7 -43 24 -43 24 -30 18 -30 18 30 -27
30 -26 55 -29 56 -28 52 -47 52 -47 0 -19 0 -19 -6 0 -6 0 -41 43 -42 43 -65
36 -65 36 -29 30 -28 30 5 14 4 13 -10 20 -10 20 19 -16 19 -17 50 -25z m907
-140 l22 -42 28 -65 28 -65 15 -64 15 -64 9 -111 9 -111 -8 -90 -8 -90 -30
-133 -31 -133 -6 -57 -6 -57 -7 -40 -6 -40 -6 60 -6 59 8 86 8 85 27 125 26
125 4 125 4 125 -29 115 -29 115 -36 98 -36 98 9 -6 10 -6 22 -42z m-159 -752
l47 -95 0 -28 0 -27 -6 -22 -6 -23 -7 0 -6 0 -18 58 -18 57 -20 70 -20 70 -5
18 -5 17 8 0 8 0 48 -95z m336 -81 l21 -109 9 -90 9 -90 -4 -100 -4 -99 -6
-19 -6 -20 13 8 14 8 -12 -14 -13 -13 -1 -70 -1 -71 -7 -30 -6 -30 -38 56 -38
57 -25 62 -25 62 -6 64 -6 64 12 108 12 107 14 68 15 67 16 73 16 72 5 15 5
15 8 -21 8 -20 21 -110z m-513 11 l6 -25 7 4 6 4 2 -21 2 -22 11 -55 11 -55
-7 -75 -6 -75 -19 -115 -19 -115 0 -60 0 -60 15 -63 15 -63 21 -42 21 -42 24
-32 24 -32 0 -7 0 -7 -22 19 -22 19 20 -26 19 -27 31 -21 31 -21 59 -16 59
-16 40 -9 40 -8 70 -1 70 0 35 -53 35 -52 3 -5 2 -6 -97 -1 -98 -2 -50 16 -50
15 -61 34 -62 34 -31 35 -31 36 -20 40 -21 40 7 10 6 10 -15 17 -15 17 -42 87
-41 87 -10 68 -10 67 2 41 2 40 13 105 13 105 3 152 3 153 7 0 8 0 6 -25z m88
-192 l16 -72 0 -128 1 -128 18 -122 18 -121 38 -80 38 -81 26 -25 26 -24 49
-26 49 -26 18 0 19 0 0 -10 0 -10 -22 0 -23 0 -52 14 -53 14 -45 22 -45 22
-44 50 -44 51 -22 56 -21 56 -10 89 -10 89 22 136 22 136 1 102 1 102 6 -7 7
-7 16 -72z m60 -259 l15 -90 31 -95 31 -94 36 -65 37 -65 51 -51 51 -51 41
-18 41 -18 11 -24 11 -23 -25 0 -24 0 -77 37 -78 36 -36 33 -37 33 -32 71 -33
70 -19 117 -19 118 0 89 0 89 4 -4 4 -4 16 -91z m-277 -61 l-10 -68 11 -112
11 -111 27 -64 26 -63 25 -74 24 -74 -6 -5 -5 -6 -28 21 -27 20 -38 49 -37 49
-20 64 -20 63 0 63 0 62 9 29 9 29 11 55 12 55 9 25 8 25 6 18 5 17 4 0 3 0
-9 -67z m807 -62 l15 -28 51 -61 51 -61 122 -61 122 -60 72 -39 72 -39 7 7 7
6 -6 -12 -7 -11 26 -21 26 -21 8 5 8 5 -2 -18 -1 -17 13 3 12 2 -1 -7 -1 -8 1
-13 1 -13 9 5 9 6 -6 -22 -5 -21 11 7 11 6 7 -11 7 -12 -11 7 -12 7 0 -21 0
-21 8 4 7 5 -5 -61 -5 -62 -15 0 -14 0 -8 42 -7 41 -15 31 -16 30 -56 61 -57
61 -41 20 -41 20 -86 34 -87 33 -39 25 -38 24 -56 61 -56 60 -6 47 -7 48 0 18
0 19 5 0 4 0 15 -29z m-417 -13 l-5 -13 -1 19 -1 19 6 -6 6 -6 -5 -13z m21
-43 l-6 -6 -6 18 -7 18 12 -12 13 -13 -6 -5z m-133 -345 l18 -20 -10 0 -10 0
-18 20 -18 20 10 0 10 0 18 -20z"/>
<path d="M891 2294 l-1 -21 11 -34 12 -34 25 -28 26 -27 51 -29 51 -29 13 -16
13 -16 10 0 9 0 -9 16 -9 16 -69 42 -69 41 -22 45 -22 45 -10 25 -10 25 0 -21z"/>
<path d="M890 2185 l0 -5 15 -38 16 -38 69 -57 70 -57 25 -38 25 -38 6 -47 7
-46 -17 -27 -18 -26 7 -6 6 -7 19 25 19 25 11 -30 12 -30 -11 -36 -11 -36 0
-7 0 -6 9 0 9 0 11 28 12 29 -7 29 -7 29 -14 28 -14 29 -9 55 -9 55 -26 34
-26 34 -69 56 -69 56 -13 34 -12 34 -8 0 -8 0 0 -5z"/>
<path d="M307 2136 l-14 -14 -13 -46 -12 -45 5 -33 5 -33 14 -37 13 -38 7 0 8
0 -7 -31 -6 -30 21 -29 21 -28 7 -26 6 -26 -16 0 -16 0 0 -4 0 -4 15 -35 15
-36 -10 -52 -10 -52 5 -5 5 -6 11 11 11 11 5 66 6 66 18 0 19 0 0 11 0 10 -22
-3 -23 -3 0 15 0 15 38 18 37 17 60 7 60 6 0 8 0 8 -27 15 -28 15 -35 17 -34
16 -45 -5 -45 -5 -4 -11 -4 -11 -9 0 -9 0 0 17 0 16 17 53 16 53 -11 23 -11
23 0 -37 -1 -36 -7 -18 -6 -17 -18 44 -18 44 0 26 -1 25 16 47 16 47 31 0 32
0 36 -10 35 -10 26 -27 25 -28 6 -51 6 -51 -57 23 -57 24 -17 0 -18 0 0 -8 0
-8 57 -18 58 -17 18 -17 18 -16 19 -3 20 -3 0 9 0 9 -15 35 -15 36 0 35 0 34
-35 30 -34 31 -38 10 -38 11 -32 0 -32 0 -14 -14z m99 -333 l7 -26 -9 -14 -9
-15 -9 -1 -9 -2 -10 28 -9 28 6 14 5 15 15 0 16 0 6 -27z m63 16 l31 -11 0 -8
0 -8 -31 -11 -32 -11 -2 0 -3 0 -5 22 -6 21 5 9 5 8 3 0 3 0 32 -11z"/>
<path d="M1051 1950 l21 -41 -5 -47 -6 -47 -7 -24 -7 -24 14 5 14 5 9 60 8 60
-20 46 -21 47 -10 0 -11 0 21 -40z"/>
<path d="M1297 1882 l-18 -20 -6 -36 -6 -36 16 -43 16 -42 5 -25 5 -25 -5 40
-4 40 -6 47 -7 48 17 25 17 26 -3 10 -4 11 -17 -20z"/>
<path d="M1207 1778 l-4 -53 -8 -25 -8 -25 14 13 13 12 6 53 6 52 14 -30 13
-30 1 -37 1 -38 7 0 8 0 0 31 0 30 -21 50 -21 49 -8 0 -8 0 -5 -52z"/>
<path d="M1105 1533 l-80 -2 -125 -11 -125 -12 -110 -14 -110 -14 -117 -21
-118 -22 0 -8 0 -9 4 0 5 0 103 19 103 20 115 15 115 15 91 10 90 11 50 -1 49
-2 -25 -4 -25 -3 -195 -26 -195 -25 -44 -15 -45 -14 -33 0 -34 0 4 -7 5 -8
-69 3 -69 4 0 -12 0 -12 20 5 20 5 0 -9 0 -9 -21 0 -20 0 6 -10 7 -11 16 5 17
5 50 6 50 6 18 5 17 6 58 3 57 3 85 6 85 7 20 4 20 4 85 6 85 6 15 4 15 4 90
6 90 6 38 5 37 6 0 7 0 7 -332 -33 -333 -32 -35 0 -35 0 15 8 15 9 225 31 225
31 70 4 70 5 53 1 52 0 0 18 0 17 -42 0 -43 0 -80 -2z"/>
<path d="M178 1426 l-18 -13 0 -12 0 -11 8 0 7 1 19 14 20 15 13 0 13 0 15
-24 16 -24 -6 -36 -7 -35 -25 -26 -26 -25 -8 0 -9 0 -14 34 -14 34 -11 6 -11
7 -20 -6 -20 -6 20 -27 21 -26 35 -23 34 -24 29 29 29 29 13 41 12 41 -12 29
-12 29 -25 12 -25 11 -12 0 -12 -1 -17 -13z m-18 -144 l0 -17 -10 15 -10 15 0
8 0 8 10 -6 10 -6 0 -17z"/>
<path d="M1228 1435 l-3 -3 -140 -11 -140 -11 -90 -5 -90 -5 -95 -11 -95 -10
-120 -16 -120 -16 -15 -8 -15 -8 25 -1 25 0 84 15 83 15 47 4 46 5 130 11 130
11 50 4 50 4 95 6 95 6 50 5 50 6 -7 -7 -6 -6 -94 -10 -93 -9 -255 -25 -255
-25 -110 -15 -109 -15 -18 -6 -18 -5 6 -10 5 -9 9 5 9 5 143 20 143 19 175 16
175 15 80 10 80 9 78 6 77 7 0 19 0 19 -7 1 -8 1 -17 3 -17 3 -3 -3z"/>
<path d="M1400 1415 l0 -26 -21 -62 -21 -62 7 -49 6 -49 15 -29 15 -28 19 0
19 0 5 33 5 32 5 64 4 64 -19 49 -19 49 0 19 0 20 -10 0 -10 0 0 -25z m29 -83
l9 -17 -5 -88 -6 -88 -16 3 -16 3 -8 47 -9 46 12 56 11 56 9 0 9 0 10 -18z"/>
<path d="M980 1309 l-165 -18 -165 -16 -165 -15 -87 -13 -87 -13 -7 -7 -7 -7
19 0 19 0 96 15 95 14 55 5 54 5 80 6 80 6 30 5 30 5 121 13 121 13 79 2 79 2
10 10 9 9 -64 -1 -65 -2 -165 -18z"/>
<path d="M1188 1294 l-4 -4 -125 -10 -124 -10 -95 -10 -95 -10 -230 -26 -229
-25 -5 -5 -4 -4 5 -5 5 -6 44 10 44 9 65 7 65 7 -7 -7 -6 -7 -102 -14 -102
-14 -7 4 -7 5 -60 -40 -59 -39 -22 0 -23 0 0 -10 0 -10 -55 -27 -55 -27 0 -8
0 -8 23 5 23 6 18 -20 17 -19 -15 -46 -16 -47 0 -19 0 -18 6 -16 6 -16 11 7
10 6 -7 -12 -8 -12 33 -29 32 -30 -8 -53 -8 -52 2 -24 1 -24 18 -31 18 -31 40
-21 39 -22 59 -7 58 -7 -5 9 -6 9 34 -4 34 -4 98 16 98 16 90 16 90 15 38 8
37 8 0 -9 0 -9 13 7 12 7 -7 -8 -7 -8 34 -40 35 -41 0 -8 0 -9 10 6 10 6 -5
-13 -5 -13 43 -67 44 -68 4 5 5 4 1 -17 0 -17 10 -57 10 -58 -7 0 -8 0 -5 -19
-5 -20 15 -5 15 -6 8 5 8 5 7 58 6 58 -16 42 -17 42 -64 108 -64 107 -30 27
-30 28 -27 7 -28 7 -105 -23 -105 -23 -75 -14 -75 -13 -101 -7 -100 -7 -37 12
-37 12 -21 30 -20 29 7 79 6 79 -31 28 -31 27 0 7 0 7 57 37 58 36 17 0 17 0
6 10 6 10 -23 0 -24 0 -50 -31 -49 -32 -6 -10 -7 -10 -12 8 -12 8 5 40 5 39
11 11 10 10 75 5 74 5 33 -12 32 -11 5 4 4 4 -6 20 -6 19 -23 -4 -22 -4 -48
49 -47 50 0 8 0 9 53 28 52 28 80 10 80 10 90 9 90 9 75 6 75 7 210 19 209 19
48 0 48 0 0 10 0 10 -57 0 -58 -1 -100 -9 -100 -9 -229 -20 -230 -21 -5 5 -4
5 9 0 9 0 60 9 60 10 60 6 60 5 214 20 215 20 38 0 39 0 -5 9 -6 9 -34 0 -35
0 -3 -4z m-988 -260 l42 -46 -5 -4 -5 -5 -56 14 -56 15 0 -14 0 -14 -6 0 -7 0
-13 18 -13 17 -1 16 0 15 33 17 32 16 6 0 6 1 43 -46z m-30 -54 l0 -10 -15 0
-15 0 0 10 0 10 15 0 15 0 0 -10z"/>
<path d="M1298 1090 l-7 -35 -6 -50 -5 -50 -26 -52 -25 -52 -46 -51 -46 -51
-46 -23 -46 -23 -37 -12 -38 -12 -6 -11 -7 -11 39 7 39 8 50 24 50 25 47 46
46 46 31 61 31 61 11 58 10 58 -3 37 -4 37 -6 -35z"/>
</g>
</svg>
