<?xml version="1.0" standalone="no"?>
<!DOCTYPE svg PUBLIC "-//W3C//DTD SVG 20010904//EN"
 "http://www.w3.org/TR/2001/REC-SVG-20010904/DTD/svg10.dtd">
<svg version="1.0" xmlns="http://www.w3.org/2000/svg"
   viewBox="0 0 303.000000 310.000000"
 preserveAspectRatio="xMidYMid meet">
<metadata>
Created by potrace 1.16, written by Peter Selinger 2001-2019
</metadata>
<g transform="translate(0.000000,310.000000) scale(0.100000,-0.100000)"
fill="#006400" stroke="none">
<path d="M1330 3093 l-45 -3 -70 -11 -70 -10 -73 -15 -72 -14 -103 -39 -102
-38 -45 -24 -45 -23 -30 -20 -30 -21 -5 -5 -5 -5 -55 -42 -55 -42 -23 -26 -23
-26 7 -11 7 -11 -10 6 -10 6 -23 -24 -22 -24 7 -12 8 -12 -11 7 -11 7 -16 -25
-17 -25 8 -12 7 -12 -11 7 -12 7 -30 -48 -30 -48 5 -14 6 -15 -7 7 -7 7 -19
-31 -18 -30 6 -11 7 -11 -10 6 -10 6 -22 -50 -21 -50 6 -10 5 -9 -11 2 -11 3
-24 -57 -23 -57 -10 -48 -11 -48 10 -50 9 -50 11 -27 11 -28 8 5 8 5 -6 -22
-5 -21 10 6 9 6 -7 -52 -6 -52 5 -9 5 -9 -10 6 -11 7 -6 -16 -6 -16 7 -11 6
-12 -8 7 -8 8 -38 -63 -39 -62 -40 -47 -40 -47 -10 -26 -10 -26 0 -10 0 -10 8
5 8 5 0 -22 -1 -22 13 3 12 2 -2 -8 -3 -9 35 -33 35 -33 -12 -4 -13 -5 0 -12
0 -13 -20 -26 -20 -25 0 -22 0 -21 12 7 11 7 -7 -12 -8 -12 22 -44 21 -44 -15
-30 -16 -30 0 -39 0 -38 35 -41 35 -41 -3 -40 -2 -40 -7 5 -8 4 0 -38 0 -38 6
-23 7 -23 15 3 16 3 1 55 2 55 8 40 7 41 -38 38 -39 39 1 39 1 40 22 21 22 22
95 0 95 0 8 -14 8 -13 8 12 7 11 -17 19 -17 19 -13 -5 -13 -5 -59 59 -59 59
-47 7 -47 7 0 5 0 5 15 36 15 35 0 23 0 22 -40 32 -40 32 0 29 0 29 26 20 26
20 -8 12 -7 12 11 -7 12 -7 32 46 33 47 37 71 38 72 0 55 0 55 -20 63 -20 64
0 44 0 43 30 76 30 76 45 90 45 90 27 47 27 47 25 35 25 35 68 76 67 76 -7 8
-7 8 14 -8 13 -8 7 10 6 10 60 40 60 40 40 21 40 21 68 26 68 26 72 18 72 19
95 15 95 16 96 5 96 5 94 -9 94 -10 28 -6 27 -6 0 -14 0 -14 21 0 20 0 -5 9
-6 9 43 21 43 21 30 0 29 -1 40 -15 40 -16 17 -1 17 -1 -5 -8 -5 -7 28 -17 28
-18 22 -19 22 -19 12 7 12 8 -7 -11 -6 -10 16 -16 16 -16 9 6 9 5 -2 -13 -3
-13 13 3 12 2 -2 -12 -3 -12 12 -1 12 0 13 -15 13 -14 -17 13 -18 13 0 -10 0
-10 38 -28 37 -29 8 3 8 2 -6 -10 -7 -11 14 -12 14 -12 63 -72 63 -73 12 7 11
6 -7 -8 -8 -8 22 -38 21 -38 8 5 8 4 7 -11 7 -12 -11 7 -12 7 0 -10 0 -9 6
-16 6 -16 11 7 10 6 -7 -11 -7 -12 20 -67 20 -68 3 -25 3 -25 13 3 13 2 -6
-10 -6 -10 -10 5 -9 6 0 -10 0 -11 8 0 7 0 0 -55 0 -55 -9 0 -8 0 3 -44 4 -44
-6 4 -6 4 -12 -56 -11 -56 7 -11 6 -10 -10 6 -11 7 -6 -41 -6 -40 6 -11 7 -11
-11 7 -10 6 -7 -30 -7 -30 -8 0 -7 0 -7 123 -7 122 -19 107 -19 106 -36 99
-37 98 -60 115 -60 115 -13 15 -12 15 -6 15 -6 15 -46 58 -46 58 -62 46 -62
46 -60 27 -60 28 -28 6 -29 7 6 -10 6 -9 29 -7 28 -6 67 -39 66 -39 46 -37 46
-38 53 -70 53 -71 55 -105 56 -105 40 -101 40 -101 21 -103 21 -102 14 -177
15 -176 9 -106 9 -106 25 -49 25 -49 42 -53 42 -52 11 7 12 6 -7 -8 -7 -8 60
-73 59 -73 40 -70 39 -69 26 -65 26 -65 -3 -45 -3 -46 -55 36 -55 35 -54 25
-54 24 -42 29 -43 29 -38 58 -38 58 -22 55 -22 55 -21 100 -20 100 -6 180 -6
180 -16 115 -15 115 -24 75 -24 75 -32 55 -31 55 -4 -12 -4 -12 24 -43 25 -43
21 -70 20 -70 15 -90 15 -90 5 -85 6 -85 5 -140 5 -140 20 -83 20 -83 0 -5 0
-4 -8 0 -9 0 -52 131 -53 130 -25 117 -25 117 -3 40 -4 40 -5 120 -5 120 -21
74 -21 74 -45 93 -45 93 -10 6 -9 6 20 -52 21 -52 21 -46 21 -46 18 -65 19
-65 5 -80 5 -80 4 -119 4 -119 -14 -59 -14 -60 6 -9 5 -9 -8 0 -9 0 -12 -56
-12 -57 7 -10 6 -10 -10 6 -10 6 -16 -77 -16 -77 -10 -70 -10 -70 -7 -85 -6
-85 11 -70 10 -70 26 -64 26 -64 16 -24 16 -24 4 5 4 4 -10 19 -10 18 -21 48
-21 47 -9 51 -10 52 0 96 0 96 14 105 14 106 26 99 26 99 0 18 0 18 9 0 9 0 6
-26 7 -27 35 -73 34 -72 19 -64 19 -63 8 -75 8 -75 -5 -120 -4 -120 0 -168 0
-167 -6 0 -6 0 -55 58 -55 58 -8 23 -7 24 -8 -12 -7 -13 -30 39 -31 38 -40 80
-41 80 -26 80 -26 80 -10 160 -10 160 -1 95 -1 95 17 120 17 120 10 58 10 57
9 128 8 128 -8 111 -8 110 -15 49 -14 49 -40 86 -40 85 -43 63 -43 64 -51 50
-50 50 -53 23 -53 24 -71 6 -70 7 4 11 4 11 33 22 33 23 36 10 36 10 47 0 47
0 -5 15 -6 15 15 0 15 0 37 -16 38 -16 89 -89 90 -89 5 0 5 0 -20 31 -19 31
-59 60 -59 60 -37 19 -37 19 -29 0 -29 0 -46 -6 -47 -7 5 -7 5 -8 -18 5 -19 5
-47 -22 -46 -22 -25 -30 -25 -30 0 -14 0 -14 20 -1 20 -1 10 -3 10 -2 9 -2 9
-1 33 -27 32 -28 39 -59 38 -59 0 16 0 17 -31 50 -31 50 -31 25 -32 25 25 0
25 0 53 -25 52 -24 48 -48 48 -48 51 -75 50 -75 30 -60 30 -60 16 -50 16 -50
9 -75 9 -75 -3 -143 -3 -143 -5 -8 -5 -7 -3 -62 -3 -62 -6 0 -6 0 -6 -87 -7
-88 -6 -37 -7 -38 -7 5 -7 5 -7 40 -6 40 -6 88 -5 87 -14 100 -15 100 -20 110
-19 110 -24 75 -25 75 -32 70 -33 70 -26 35 -26 35 -25 29 -25 28 -58 40 -58
39 -11 -3 -11 -4 49 -31 49 -32 36 -38 35 -38 28 -38 28 -38 28 -62 27 -62 31
-95 31 -95 21 -125 21 -125 9 -41 10 -42 6 -88 7 -89 -6 5 -6 5 -25 95 -25 95
-26 149 -25 149 -31 91 -30 91 -47 95 -47 95 -55 55 -55 55 -64 43 -63 43 -4
-4 -4 -3 48 -52 48 -52 35 -72 34 -73 5 -5 6 -5 17 -75 17 -75 10 -75 9 -75 4
-20 5 -20 7 -55 7 -55 25 -75 25 -75 66 -100 66 -100 43 -87 43 -88 0 -15 0
-16 10 6 10 6 -6 -15 -6 -15 11 -52 11 -52 6 -81 5 -81 10 -98 9 -97 36 -96
36 -96 -4 -4 -4 -4 -42 70 -42 70 -21 57 -21 58 -18 65 -18 65 -26 112 -26
111 -46 104 -46 103 -5 20 -6 20 -27 40 -27 40 -51 96 -52 96 -25 68 -26 68
-34 166 -35 166 -20 75 -21 75 -18 35 -17 35 -42 78 -42 77 10 0 11 0 26 -27
25 -28 29 -55 28 -55 1 18 0 18 -16 32 -17 32 -25 33 -24 32 6 0 7 0 20 -10
19 -11 0 15 0 14 -16 6 -16 6 -23 0 -23 0 -16 6 -16 6 0 13 0 12 43 11 42 11
42 5 42 6 28 -11 28 -10 33 -32 33 -32 22 -34 21 -35 4 12 3 11 -15 29 -15 29
-41 37 -41 37 -29 6 -30 6 0 7 0 7 -62 -12 -63 -12 -31 -16 -30 -16 -13 -15
-13 -16 -49 0 -49 0 -45 -21 -45 -21 -5 -8 -5 -7 14 -51 13 -50 29 -35 29 -35
23 -11 22 -11 0 14 0 13 -24 12 -24 13 -22 31 -23 30 -4 41 -5 42 28 13 29 13
50 5 50 5 28 -11 28 -11 30 -65 29 -65 0 -27 0 -27 -42 41 -43 41 -40 12 -40
13 -38 19 -39 19 -4 -4 -4 -4 18 -16 18 -16 63 -24 63 -24 49 -48 49 -48 0
-94 0 -93 -10 0 -10 0 0 9 0 9 -27 32 -26 32 -82 38 -83 38 -26 38 -26 39 0
22 0 23 -10 0 -10 0 0 -60 0 -61 16 -37 15 -37 27 -28 27 -29 40 -28 40 -27
34 -8 33 -7 33 -20 33 -19 5 -13 6 -14 -6 -6 -6 -6 -32 20 -31 19 -83 20 -83
19 -36 29 -37 29 -23 46 -23 46 0 80 0 80 7 26 6 26 -9 0 -10 0 -11 -39 -12
-38 0 -64 0 -64 19 -41 19 -41 37 -38 38 -37 35 -15 35 -15 74 -19 74 -18 30
-21 29 -21 0 -25 0 -24 -5 0 -4 0 -35 23 -34 24 -74 23 -73 23 -35 20 -35 20
-22 22 -21 22 -21 42 -22 42 -9 -6 -9 -5 9 -29 8 -28 11 -21 11 -20 67 -52 68
-52 27 -32 26 -31 7 7 7 6 -39 43 -38 42 24 -8 25 -8 61 -27 62 -28 36 -32 37
-32 6 -39 6 -39 7 4 6 4 3 -39 3 -39 -12 -21 -11 -21 6 -5 5 -6 12 29 12 29
-2 8 -1 8 10 -6 10 -6 -6 -10 -6 -10 30 -44 29 -44 6 6 7 6 -13 -44 -13 -44
-21 -3 -22 -3 -11 20 -10 21 6 25 6 25 -11 0 -11 0 -6 -26 -7 -26 16 -33 15
-32 22 -6 21 -6 20 20 19 19 0 20 0 20 9 0 10 0 28 -41 28 -41 18 -19 17 -19
0 -5 -1 -5 16 -52 15 -52 0 -44 0 -45 -16 -81 -17 -81 -13 -21 -14 -21 7 -8 8
-8 -13 7 -13 8 -26 -17 -25 -17 -33 0 -33 0 -22 12 -22 12 -20 46 -20 45 6 63
7 64 24 72 25 73 0 3 0 2 -10 0 -9 0 -15 -28 -15 -28 -16 -83 -17 -83 4 -53 5
-54 28 -36 28 -37 30 -13 30 -13 27 8 27 8 27 17 27 18 4 -4 4 -5 -36 -88 -35
-89 -14 -76 -13 -76 -1 -63 0 -63 16 -64 16 -65 9 0 8 0 -4 -13 -5 -12 17 -33
18 -32 59 -60 60 -60 54 -26 54 -26 19 5 19 5 -5 -8 -5 -9 20 -6 20 -6 11 7
12 7 -6 -10 -7 -11 35 -6 35 -7 10 6 10 6 0 -8 0 -8 73 -5 72 -4 38 0 37 -1 0
-7 0 -6 33 -7 32 -7 67 -33 68 -33 5 9 6 8 -54 53 -53 53 -41 48 -41 47 -63
51 -64 50 -51 49 -50 49 -46 68 -46 68 -17 40 -16 40 -15 80 -15 80 -9 159 -9
159 -10 31 -9 31 -6 28 -6 27 8 0 8 0 16 -33 16 -33 25 -95 25 -94 7 -53 7
-52 6 4 7 4 2 -32 2 -31 35 -84 36 -85 30 -50 31 -51 35 -48 35 -48 9 6 10 6
-6 -16 -7 -16 99 -97 99 -98 38 -17 37 -18 0 -13 0 -13 36 -72 35 -71 49 -53
49 -53 38 -16 38 -16 90 -29 90 -28 12 1 13 2 -5 -9 -6 -8 20 -10 20 -11 10 0
11 0 0 14 0 14 -15 12 -16 13 -28 42 -29 42 -21 57 -21 57 0 38 0 38 25 47 25
48 -6 10 -7 11 11 -7 11 -7 29 58 30 58 7 32 7 33 14 0 14 0 0 -11 0 -10 12 7
11 7 -6 -10 -7 -11 13 -31 13 -31 5 4 5 5 2 -22 3 -22 2 -113 2 -112 -6 0 -7
0 -12 -32 -13 -33 -14 -17 -15 -16 4 -24 4 -23 52 53 51 53 31 61 30 61 0 86
0 86 -14 50 -13 51 -26 40 -25 41 -30 32 -30 33 -4 93 -4 93 -57 113 -58 114
-32 39 -32 39 -42 48 -42 48 -39 58 -39 58 -24 45 -24 45 2 95 2 95 25 87 26
87 20 76 20 75 4 83 5 82 -14 80 -14 80 -16 55 -17 55 -29 48 -29 47 0 7 0 6
-44 51 -44 51 -139 138 -139 138 -39 24 -40 25 -50 25 -50 25 -43 6 -43 6 -47
-13 -47 -13 -7 -10 -7 -10 -88 16 -88 17 -15 0 -15 -1 -80 4 -80 3 -45 -2z
m231 -555 l41 -52 25 -49 25 -50 43 -109 44 -109 17 -87 17 -87 28 -133 29
-133 40 -102 40 -101 0 -8 0 -8 -8 0 -8 0 -29 63 -29 62 -64 98 -64 97 -24 76
-25 76 -10 77 -11 76 -4 6 -3 6 -10 87 -10 86 -32 92 -31 92 -24 38 -24 38 0
5 0 5 10 0 10 0 41 -52z m-185 -84 l16 -59 13 -60 13 -60 7 -53 7 -52 10 7 11
6 -7 -11 -6 -11 6 -55 7 -56 8 6 9 5 -6 -14 -5 -14 26 -69 26 -68 49 -93 48
-93 -6 0 -7 0 -76 73 -76 72 -25 50 -25 50 -19 70 -18 70 -1 212 -1 212 3 -3
3 -3 16 -59z m-292 -16 l33 -33 49 -19 49 -19 33 -24 33 -25 26 -39 26 -39 -6
-6 -6 -6 -43 20 -43 20 -36 15 -35 14 -37 33 -37 32 -19 27 -18 26 -7 28 -6
27 5 0 6 0 33 -32z m468 -707 l44 -39 28 -41 28 -41 11 7 10 6 -7 -11 -7 -11
20 -37 20 -37 12 -56 11 -55 -5 -76 -5 -75 -21 -125 -21 -125 0 -92 0 -93 -9
0 -10 0 -6 58 -6 57 -3 25 -3 25 19 150 19 150 -5 55 -5 55 -24 90 -24 90 -22
45 -23 45 -40 48 -39 47 9 0 9 0 45 -39z m693 -218 l23 -88 27 -65 27 -65 48
-97 48 -97 8 7 7 7 -7 -13 -7 -12 19 -63 19 -62 21 -70 21 -70 6 -75 6 -75 14
-100 14 -100 7 -32 7 -33 -11 0 -10 0 -10 28 -10 27 -16 50 -15 50 -20 115
-19 115 -7 50 -7 50 -23 85 -23 85 -45 115 -44 115 -26 51 -26 51 -20 61 -21
61 7 46 6 46 5 -6 5 -5 22 -87z m-608 -312 l-17 -136 0 -65 0 -65 11 -65 10
-65 16 -52 16 -52 9 5 8 5 -6 -14 -5 -14 33 -47 33 -48 62 -38 62 -37 70 -17
71 -17 11 7 12 7 -6 -10 -6 -10 25 -12 26 -12 57 -43 57 -44 38 -42 38 -42 -5
-5 -5 -4 -52 26 -52 27 -127 8 -126 8 -55 21 -56 21 -36 37 -36 38 -36 55 -36
55 0 19 0 20 38 -36 37 -36 57 -36 57 -36 11 0 10 0 0 8 0 7 -48 26 -47 26
-52 42 -53 41 -23 48 -24 47 -24 85 -24 85 1 145 1 145 22 60 22 60 9 30 9 30
7 30 7 30 10 -34 11 -34 -17 -136z m132 -296 l11 -60 20 -52 20 -52 59 -83 59
-83 46 -34 46 -35 -4 -3 -4 -4 -82 21 -82 21 -37 24 -38 23 -26 32 -27 31 -16
52 -17 52 -4 95 -5 95 11 90 10 90 12 85 11 85 6 15 6 15 7 -180 7 -180 11
-60z m-1619 345 l36 -10 44 -46 45 -46 -47 6 -48 7 0 -10 0 -10 -20 2 -20 1
10 10 10 10 0 8 0 8 -15 0 -15 0 0 -17 0 -17 -14 14 -13 15 -16 43 -17 42 23
0 22 0 35 -10z m1386 -197 l-7 -38 -9 -89 -10 -89 25 -106 26 -106 27 -50 28
-50 13 3 12 2 -6 -10 -6 -10 24 -30 25 -29 6 5 6 4 -5 -6 -4 -7 19 -27 20 -28
0 -7 0 -6 -43 30 -44 30 -49 54 -49 53 -28 80 -27 79 -6 55 -6 55 11 78 11 77
17 60 18 60 9 0 9 0 -7 -37z m843 -40 l11 -58 9 -50 10 -50 22 -140 22 -140
27 -81 27 -82 37 -66 37 -66 11 6 11 7 -6 -10 -6 -9 51 -62 50 -62 -5 -14 -6
-14 16 -6 15 -6 8 5 8 5 -5 -20 -5 -20 -9 0 -8 0 -81 29 -81 30 -39 31 -40 32
0 21 0 20 -7 -6 -6 -7 -24 32 -23 32 -20 53 -20 53 -8 71 -9 70 9 177 9 177
-3 88 -4 87 7 0 7 0 11 -57z m115 -7 l26 -44 42 -37 43 -37 38 -20 39 -19 14
5 15 6 -6 -10 -6 -9 21 -11 20 -11 13 7 12 7 -8 -8 -7 -8 42 -25 43 -25 21
-19 20 -18 8 7 8 8 -4 -10 -3 -10 29 -36 29 -36 23 -54 23 -54 1 -22 0 -23 8
0 7 0 0 -79 0 -79 -7 4 -7 5 -7 -35 -6 -35 -15 -13 -15 -12 7 84 6 85 -10 53
-11 53 -47 96 -46 95 -31 19 -30 19 -56 10 -55 10 -51 10 -51 11 -31 32 -32
33 -25 72 -25 72 0 20 0 20 4 0 4 0 26 -44z m-935 -198 l11 -67 21 -48 21 -48
13 -52 12 -53 -7 0 -7 0 -26 58 -25 57 -21 87 -21 87 0 32 0 33 8 -9 9 -10 12
-67z m1001 -12 l29 -23 68 -12 68 -12 42 -11 43 -10 9 -12 9 -11 -9 -49 -9
-48 7 -11 6 -10 -13 8 -13 8 5 -21 6 -22 -8 5 -8 5 -27 -45 -26 -45 7 -12 7
-11 -10 6 -11 7 -27 -51 -26 -51 5 -15 6 -14 -10 6 -10 6 0 -36 0 -36 11 -21
11 -20 -11 6 -11 7 0 -10 0 -11 -10 0 -10 0 -35 72 -35 71 0 16 0 16 -14 70
-15 70 -11 110 -11 110 -6 28 -5 27 7 0 7 0 28 -24z"/>
<path d="M2385 690 l4 -115 21 -84 21 -84 24 -46 23 -46 46 -61 46 -61 34 -27
35 -26 7 0 8 0 -51 53 -51 52 -40 60 -40 60 -14 35 -15 35 -17 70 -16 70 -15
115 -14 115 4 -115z"/>
<path d="M1860 3016 l0 -4 16 -6 15 -6 -6 10 -6 10 -10 0 -9 0 0 -4z"/>
<path d="M1900 3001 l0 -10 21 -11 21 -12 4 5 5 4 -26 17 -25 16 0 -9z"/>
<path d="M311 2249 l-20 -22 -7 -43 -6 -43 23 -47 24 -47 3 17 4 17 -16 24
-16 24 0 26 0 26 14 32 13 33 87 -7 87 -7 7 -7 7 -7 1 -64 1 -64 -7 0 -7 0
-29 14 -29 14 -22 7 -23 6 0 -9 0 -10 53 -20 52 -20 28 -6 28 -7 -13 23 -12
23 -2 64 -2 64 -14 8 -13 8 -48 11 -48 10 -39 0 -39 0 -20 -21z"/>
<path d="M960 2200 l0 -9 46 -38 47 -38 37 -37 38 -38 7 -41 7 -42 -18 -53
-18 -54 -19 0 -18 0 6 -10 6 -10 34 0 34 0 21 22 20 22 7 -8 7 -7 -12 -56 -12
-57 5 -4 5 -5 15 13 15 12 11 39 12 38 9 -6 10 -5 -6 -29 -5 -28 9 -6 9 -6 12
23 11 23 19 21 19 20 6 47 7 47 -11 0 -10 0 1 -12 0 -13 -2 -25 -1 -25 -19
-24 -19 -24 -16 31 -16 31 0 21 0 20 -11 0 -10 0 2 -27 2 -28 -2 -20 -2 -20
-9 20 -9 20 0 30 -1 30 -11 15 -10 15 3 -33 3 -33 -27 -17 -27 -16 -6 6 -6 6
15 31 16 30 0 57 0 57 -59 56 -59 56 -35 28 -35 27 -6 0 -6 0 0 -10z"/>
<path d="M356 2107 l6 -44 -16 -31 -16 -31 0 -24 0 -24 18 -24 19 -24 6 -23 6
-24 -15 6 -15 6 5 -18 5 -17 6 -36 7 -37 -16 -30 -16 -31 0 -16 0 -15 9 0 9 0
16 34 16 34 0 31 0 31 20 0 20 0 0 10 0 10 -25 0 -24 0 5 14 6 14 31 15 32 15
78 12 77 13 0 6 0 6 -46 25 -47 24 -64 4 -65 4 -11 -11 -11 -11 -8 0 -8 0 0
19 0 19 16 37 15 38 -6 38 -7 39 -9 5 -9 6 6 -44z m67 -180 l9 -29 -16 -16
-17 -17 -9 15 -10 15 0 33 0 33 17 -3 16 -3 10 -28z m110 11 l28 -11 -8 -8 -8
-8 -52 -7 -53 -7 0 33 0 32 33 -7 32 -6 28 -11z"/>
<path d="M1300 1735 l0 -24 12 -26 11 -25 10 0 9 0 -6 23 -6 22 -6 28 -6 27
-9 0 -9 0 0 -25z"/>
<path d="M680 1628 l-205 -16 -25 -5 -25 -4 -32 -7 -32 -7 1 -35 1 -35 16 6
16 6 155 10 155 10 225 8 225 8 41 -4 41 -4 7 16 6 17 -6 9 -5 9 -197 0 -197
-1 -180 -14 -180 -14 -47 -7 -48 -7 0 6 0 6 53 10 52 11 30 4 30 5 90 7 90 7
257 1 256 1 8 8 7 7 -114 2 -114 2 -75 0 -75 1 -205 -17z m515 -39 l20 -8 -75
-1 -75 -2 -130 -3 -130 -3 -85 -7 -85 -7 -110 -7 -110 -8 -4 4 -4 3 4 5 5 4
114 11 115 11 95 8 95 7 170 1 170 0 20 -8z"/>
<path d="M203 1583 l-13 -5 0 -9 0 -10 32 3 32 3 12 -24 12 -23 -9 -32 -9 -31
-19 -16 -20 -17 2 -4 2 -4 -30 33 -30 33 -22 -6 -23 -6 1 -7 0 -6 30 -24 31
-24 36 -1 37 -1 -3 13 -2 13 10 -6 10 -6 15 35 15 35 0 31 0 30 -20 20 -20 20
-22 -1 -23 -1 -12 -5z"/>
<path d="M1420 1542 l0 -30 -25 -54 -25 -53 0 -50 0 -50 18 -35 17 -35 20 -3
20 -3 13 41 12 41 -6 24 -6 24 11 34 11 34 -20 44 -20 44 0 22 0 22 -10 6 -10
6 0 -29z m24 -182 l-5 -95 -12 -7 -12 -8 -14 33 -13 32 5 56 5 56 17 27 18 27
8 -13 9 -13 -6 -95z"/>
<path d="M1110 1539 l-75 -6 -171 -2 -171 -1 -159 -11 -159 -11 -15 -10 -15
-9 35 5 35 5 80 6 80 5 110 5 110 4 -15 -8 -15 -9 -145 -6 -145 -6 -62 -6 -62
-7 -5 -14 -6 -14 363 8 362 8 78 -1 77 -1 0 13 0 14 10 0 10 0 0 10 0 10 -102
0 -103 1 18 10 18 10 84 -3 85 -3 0 13 0 12 -28 -2 -27 -3 -75 -6z m-210 -23
l0 -4 -36 -4 -35 -4 -5 8 -5 8 40 0 41 0 0 -4z m88 -3 l-18 -4 -22 4 -23 4 40
0 40 1 -17 -5z m167 -25 l6 -5 -303 -8 -303 -8 -52 -1 -51 -1 4 6 4 7 82 2 83
1 90 7 90 7 172 0 172 -1 6 -6z"/>
<path d="M730 1419 l-225 -6 -90 -2 -90 -2 21 -9 21 -8 249 9 249 9 183 -3
182 -2 -3 8 -3 9 -134 1 -135 2 -225 -6z"/>
<path d="M443 1382 l-113 -3 0 -9 0 -10 38 5 37 4 140 5 140 6 35 -9 35 -9
-110 -2 -110 -2 -105 -7 -105 -7 368 3 367 3 0 -10 0 -10 -312 -1 -313 -1 -40
-3 -40 -3 -12 -1 -13 -1 0 -7 0 -8 247 2 248 3 203 6 202 6 0 14 0 13 -17 10
-18 10 18 1 17 0 0 10 0 10 -337 -3 -338 -2 -112 -3z m397 -6 l0 -4 -16 -6
-15 -6 6 10 6 10 10 0 9 0 0 -4z m55 -6 l20 -9 -33 0 -33 -1 6 10 6 10 7 -1 7
0 20 -9z m285 -1 l15 -8 -13 -1 -13 0 4 -7 5 -8 -116 10 -117 9 30 6 30 6 80
1 80 1 15 -9z"/>
<path d="M1179 1266 l-4 -4 -230 -7 -230 -7 -27 -2 -28 -2 -160 -2 -159 -2 6
-16 6 -16 23 5 24 4 0 -6 0 -7 52 -2 53 -3 180 11 180 10 55 5 55 5 80 1 80 1
15 -2 15 -1 -20 -9 -20 -9 -60 -2 -60 -2 25 -4 25 -5 82 7 83 7 0 29 0 29 -18
0 -19 0 -4 -4z m-619 -52 l0 -4 -21 0 -20 0 6 10 6 9 14 -6 15 -5 0 -4z m77
10 l-6 -6 -13 5 -13 5 19 1 19 1 -6 -6z"/>
<path d="M780 1199 l-175 -8 -35 -4 -35 -5 210 5 210 5 10 9 9 9 -9 -1 -10 -2
-175 -8z"/>
<path d="M373 1183 l17 -4 18 4 17 5 -35 0 -35 0 18 -5z"/>
<path d="M426 1173 l-5 -12 -33 -4 -33 -4 40 -1 40 -2 38 9 37 9 0 -9 0 -9 38
2 37 1 -32 4 -32 4 5 12 4 12 -50 0 -50 0 -4 -12z"/>
<path d="M1075 1179 l-120 -8 -138 -2 -137 -2 -38 -8 -37 -8 138 4 137 3 -5
-7 -4 -8 -58 -2 -58 -1 -189 -5 -189 -5 -6 -6 -6 -6 260 5 260 6 122 5 123 5
5 -10 6 -9 -28 -1 -28 -2 -25 -2 -25 -3 -155 -8 -155 -8 -185 1 -185 1 25 -10
25 -10 275 6 275 6 40 4 40 5 88 7 87 6 0 21 0 22 -117 -3 -118 -4 5 5 5 5 50
5 50 6 68 0 67 1 0 10 0 10 -12 -2 -13 -1 -120 -8z"/>
<path d="M190 1066 l-35 -23 -14 -17 -14 -16 5 -5 5 -5 68 45 69 45 -24 -1
-25 0 -35 -23z"/>
<path d="M1126 1018 l-39 -8 -373 -3 -374 -2 0 -6 0 -7 27 -6 28 -6 279 5 279
5 23 6 24 6 0 -10 0 -10 -117 -8 -118 -8 -217 -1 -216 0 11 -7 12 -8 170 -1
170 0 -20 -9 -20 -9 -165 -1 -165 -1 17 -7 18 -7 112 2 113 1 73 3 72 3 0 7 0
7 -12 5 -13 4 75 6 75 7 88 6 87 6 -4 6 -4 7 73 -3 72 -3 6 20 5 21 -6 3 -7 4
-39 -9z m24 -18 l0 -10 -22 1 -23 0 20 9 20 9 3 0 2 1 0 -10z"/>
<path d="M1055 950 l-70 -8 -122 -1 -123 -1 0 -11 0 -12 68 6 67 6 -20 -8 -20
-8 -120 -6 -120 -7 -137 0 -138 0 0 -12 0 -11 193 7 192 7 65 5 65 5 85 9 85
10 71 0 72 0 6 16 6 16 0 4 0 4 -17 -2 -18 -1 -70 -7z"/>
<path d="M1019 870 l-45 -8 -63 -6 -63 -6 -122 -6 -121 -6 -4 -4 -4 -4 31 0
32 0 0 -11 0 -11 63 6 62 6 110 5 110 6 -16 -10 -15 -10 -105 -10 -104 -10
-155 -6 -155 -6 -64 -5 -65 -5 -10 -8 -11 -8 -65 -21 -65 -20 -67 -13 -67 -12
4 -7 4 -7 -24 5 -24 4 2 -19 1 -19 47 10 48 10 -5 7 -4 7 22 -6 21 -5 -7 12
-8 12 39 -17 38 -17 17 -1 17 0 -5 -7 -4 -7 37 -13 37 -12 59 1 59 1 32 6 31
6 120 30 120 30 77 -2 77 -2 -4 -7 -5 -8 18 -23 18 -24 44 -72 44 -72 9 6 10
6 -7 -12 -8 -12 6 -25 7 -25 7 5 7 4 3 -36 2 -36 8 -6 7 -5 0 -50 0 -50 20 0
20 0 3 58 3 58 -16 54 -15 55 -32 57 -31 58 -46 70 -46 69 -35 7 -35 8 -55 -4
-55 -3 -161 -36 -161 -36 -54 1 -54 0 -35 12 -35 12 2 9 2 9 57 18 57 18 10
10 11 11 85 0 86 0 110 10 110 10 100 4 100 3 75 14 75 13 7 11 8 10 0 6 0 6
-82 -3 -83 -3 40 9 40 9 40 1 40 0 15 10 15 10 -35 -1 -35 -1 -46 -8z m-156
-37 l-13 -5 -17 5 -18 5 30 0 30 0 -12 -5z m-156 -9 l-6 -6 -13 5 -13 5 19 1
19 1 -6 -6z"/>
<path d="M320 827 l0 -10 125 5 125 6 0 -9 0 -9 -127 0 -126 0 7 -7 7 -7 129
2 130 2 22 10 23 9 -27 0 -28 1 0 10 0 9 -130 -1 -130 -1 0 -10z"/>
</g>
</svg>
