<?xml version="1.0" standalone="no"?>
<!DOCTYPE svg PUBLIC "-//W3C//DTD SVG 20010904//EN"
 "http://www.w3.org/TR/2001/REC-SVG-20010904/DTD/svg10.dtd">
<svg version="1.0" xmlns="http://www.w3.org/2000/svg"
   viewBox="0 0 399.000000 437.000000"
 preserveAspectRatio="xMidYMid meet">
<metadata>
Created by potrace 1.16, written by Peter Selinger 2001-2019
</metadata>
<g transform="translate(0.000000,437.000000) scale(0.100000,-0.100000)"
fill="#9E1A1A" stroke="none">
<path d="M2496 4343 l14 -28 0 -13 0 -13 8 4 7 5 0 -53 0 -54 -20 17 -20 17
-15 20 -15 20 -31 35 -32 35 -26 1 -26 2 0 -8 0 -8 41 -36 42 -35 9 5 8 5 -2
-13 -3 -13 15 3 15 4 -7 -8 -8 -7 35 -43 35 -42 0 -7 0 -6 -22 6 -23 6 -45 24
-45 23 -65 23 -65 23 -85 0 -85 0 -125 -38 -125 -37 -40 -15 -41 -14 -17 0
-18 0 7 -12 7 -11 -11 7 -11 7 -25 -7 -26 -6 5 -8 4 -7 -26 5 -26 5 8 -13 8
-13 -10 6 -11 7 -173 -10 -174 -9 -55 -17 -55 -16 -38 -19 -38 -20 -19 -16
-19 -17 6 -9 6 -10 -10 6 -10 6 -25 -27 -24 -27 -18 -28 -17 -28 7 -11 7 -11
-10 6 -10 6 -11 -24 -11 -24 -43 -11 -43 -12 -73 -34 -74 -33 7 -11 6 -10 -13
5 -13 5 -43 -41 -42 -41 6 -9 5 -9 -13 2 -13 3 1 -17 2 -18 -9 6 -9 5 -25 -27
-24 -26 -32 -49 -31 -49 6 -16 6 -15 -10 6 -9 6 -7 -27 -7 -28 -1 -27 -1 -27
-9 6 -9 5 6 -53 6 -53 11 -11 10 -10 0 -19 0 -19 15 6 15 6 -9 -18 -9 -17 12
-17 13 -18 5 6 6 5 -2 -18 -1 -18 -14 -11 -14 -11 8 -13 8 -13 -11 7 -11 7
-16 -31 -16 -31 6 -8 5 -9 -16 -6 -16 -6 6 -16 6 -15 -10 6 -9 6 -16 -32 -16
-31 5 -14 6 -15 -10 6 -10 6 -16 -36 -15 -37 5 -14 5 -14 -12 3 -12 2 1 -22 0
-22 -7 5 -8 4 -6 -20 -6 -20 7 -11 7 -12 -10 6 -10 7 -17 -83 -16 -82 0 -63 0
-63 8 5 8 5 -4 -31 -5 -31 12 7 11 7 -6 -15 -5 -14 20 -66 20 -66 -15 -42 -15
-43 5 -18 4 -17 -8 5 -9 6 -12 -23 -12 -23 -79 -97 -80 -97 8 -12 7 -12 -11 7
-11 7 -17 -28 -17 -28 -18 -27 -19 -27 0 -37 0 -36 17 7 18 6 -12 -12 -13 -13
0 -27 0 -27 22 -16 23 -17 -15 7 -15 8 14 -17 13 -17 11 7 10 6 -7 -11 -6 -10
31 -22 31 -22 29 -3 30 -2 12 -14 12 -13 -16 12 -16 12 -11 -56 -12 -56 7 -11
6 -10 -10 6 -9 6 -14 -37 -14 -37 2 -7 2 -8 -13 3 -12 2 1 -36 1 -36 25 -36
25 -37 7 7 7 7 -6 -15 -6 -16 17 -14 18 -14 -9 14 -8 14 10 -6 11 -7 4 -24 5
-25 -11 2 -11 2 1 -22 0 -22 -8 5 -8 5 0 -49 0 -49 15 -30 15 -30 19 -17 20
-18 9 6 9 5 -2 -17 -1 -17 -8 -18 -8 -17 25 -33 25 -32 25 -28 26 -27 15 0 15
0 6 -10 6 -10 -15 6 -16 6 0 -43 0 -44 18 -48 18 -48 38 -45 37 -44 11 6 11 7
-7 -11 -6 -10 27 -21 28 -21 17 -16 17 -16 12 8 12 7 -6 -10 -7 -11 16 -6 16
-6 9 6 9 5 -2 -13 -3 -13 46 -23 46 -23 75 0 75 0 64 11 64 11 18 5 17 5 -4 7
-4 7 31 0 32 0 47 7 47 7 32 -34 32 -34 9 5 8 5 -2 -8 -2 -8 30 -48 30 -47 8
7 7 7 -5 -14 -6 -15 18 -23 18 -23 47 3 48 3 -28 41 -28 41 -51 75 -50 75 -20
20 -19 20 -38 18 -38 18 -151 -33 -151 -32 -81 4 -81 5 -56 22 -57 22 -65 60
-66 60 -34 64 -34 64 19 57 19 58 -16 36 -16 36 -30 32 -30 32 -24 6 -25 6 0
9 0 9 51 40 51 40 -15 0 -15 0 -28 -14 -27 -15 -22 -27 -21 -26 -18 27 -18 28
5 56 6 56 22 18 21 17 24 0 25 0 62 -32 62 -32 49 -5 49 -6 1 -37 1 -36 -7 5
-8 4 0 -46 0 -47 20 -102 20 -101 3 -60 4 -60 23 -3 23 -4 14 -14 14 -14 29 0
29 0 11 -20 11 -21 -18 10 -18 10 -57 16 -56 15 -6 0 -6 0 0 -8 0 -9 92 -26
93 -27 85 -19 85 -19 90 -12 89 -13 115 7 114 7 39 6 40 5 149 2 149 1 0 21 0
22 20 97 20 97 0 33 0 33 48 49 49 50 21 44 22 45 20 99 21 99 10 110 9 110
-10 10 -10 10 -5 -6 -5 -5 -5 -82 -4 -81 -5 -9 -5 -8 -3 -66 -3 -67 -9 0 -8 0
5 -20 5 -20 -10 6 -11 7 5 -26 5 -26 -8 5 -9 5 -2 -23 -1 -23 0 -13 1 -13 -6
5 -5 6 -19 -31 -18 -30 6 -11 7 -11 -10 6 -11 7 -12 -15 -12 -15 -10 0 -9 0 5
18 5 17 7 100 6 100 6 10 6 10 -2 290 -3 290 7 73 6 72 17 0 16 1 -35 29 -35
29 -10 1 -9 0 12 -12 12 -12 0 -8 0 -8 -50 0 -50 0 -44 40 -43 39 -36 72 -37
71 0 22 -1 21 -15 25 -15 25 5 -53 5 -54 25 -54 25 -54 11 0 11 0 -6 -10 -6
-10 35 -34 36 -33 0 -9 0 -9 -292 2 -293 2 -155 -15 -155 -14 -70 -13 -70 -12
0 -38 0 -37 -6 0 -6 0 -8 -57 -7 -58 -2 -22 -1 -21 -7 5 -8 4 -2 -20 -1 -21
-1 -17 -1 -18 -7 -6 -8 -5 -11 -81 -12 -81 11 -79 11 -78 7 -22 6 -23 -14 0
-15 0 -47 37 -47 37 -15 27 -14 27 -42 35 -43 34 -20 10 -20 10 -54 13 -53 13
11 6 10 7 16 37 15 36 0 20 0 19 21 49 20 48 -21 17 -22 18 -30 0 -30 0 -33
35 -34 34 -11 41 -11 40 17 38 17 37 46 55 46 55 12 13 13 14 -6 9 -5 9 12 -2
13 -3 48 70 48 70 20 54 21 54 -2 76 -2 76 -6 10 -6 10 -11 59 -11 60 3 70 3
71 21 70 22 70 36 84 36 84 23 34 23 34 21 41 21 40 69 98 70 97 67 70 67 70
60 30 60 30 65 14 65 13 48 -1 47 0 0 8 0 8 -17 5 -18 6 -100 -19 -100 -18
-61 -31 -61 -31 -101 -108 -102 -108 0 41 0 41 24 46 25 46 45 58 45 57 -5 5
-4 5 -46 -45 -45 -44 -25 -51 -24 -50 -7 -52 -6 -52 12 -14 12 -14 -17 -6 -17
-7 -8 12 -7 12 -11 58 -12 58 37 73 36 73 16 18 15 17 -6 7 -7 7 -15 -20 -15
-19 -23 -40 -22 -40 -3 26 -3 26 24 54 24 54 57 59 56 58 -5 8 -4 7 12 0 12 0
79 37 78 37 27 10 26 10 35 16 35 15 25 51 25 50 39 40 39 39 46 20 46 20 40
13 40 13 65 7 65 6 28 3 28 3 14 -13 14 -14 16 0 16 0 -6 10 -6 9 28 6 28 5
45 11 45 11 40 9 40 9 128 43 127 43 -4 5 -5 5 17 1 17 1 63 7 63 8 -6 16 -5
16 12 -15 13 -16 37 6 37 7 3 -6 3 -6 71 -17 72 -17 21 4 22 4 -6 -10 -6 -9
-10 5 -9 6 0 -6 0 -5 25 -10 25 -10 0 -15 0 -15 -7 2 -8 3 -35 -14 -35 -14
-22 -20 -23 -20 0 -9 0 -8 38 24 38 24 46 16 46 15 67 6 66 6 54 -11 54 -11
36 -25 36 -24 10 6 9 5 -2 -9 -3 -10 42 -31 43 -31 6 0 6 0 29 -21 29 -20 12
7 13 7 -7 -7 -7 -8 45 -39 45 -39 12 -1 12 -1 8 1 7 1 0 -15 0 -15 40 -20 41
-21 10 6 9 6 -2 -11 -3 -12 48 -34 48 -35 10 6 9 6 -2 -9 -3 -9 54 -48 53 -49
23 -36 23 -37 22 -72 21 -73 -3 -138 -3 -138 -8 5 -9 5 4 -60 3 -60 -9 5 -9 6
5 -36 4 -36 -6 4 -6 4 -17 -65 -18 -65 6 -9 6 -10 -9 0 -9 0 -6 -62 -6 -63 12
-14 12 -15 -13 8 -12 7 5 -53 6 -53 5 -33 5 -33 11 7 11 7 -7 -11 -7 -11 7
-25 6 -26 11 7 10 6 -6 -10 -6 -10 10 -37 10 -37 11 7 11 7 -7 -11 -7 -11 7
-25 6 -26 7 4 6 4 2 -31 2 -30 15 -46 15 -46 -4 -50 -3 -50 14 -65 14 -65 0
-67 1 -68 12 0 12 0 -14 -9 -14 -9 5 -30 4 -31 -8 5 -8 5 -2 -33 -2 -33 0 -17
0 -17 -6 4 -7 4 -13 -57 -13 -57 -33 -52 -34 -53 -15 0 -14 0 -10 -19 -10 -18
7 -8 7 -8 -11 6 -11 7 -17 -19 -16 -18 7 -8 8 -8 -11 6 -11 7 -56 -31 -57 -30
-37 3 -38 3 -8 63 -9 62 -9 0 -9 0 0 -53 0 -52 21 -40 21 -40 10 -10 11 -10
-6 11 -6 11 14 0 15 0 -10 -12 -10 -12 25 -44 25 -44 10 -37 11 -38 -12 -82
-11 -83 -1 -17 -1 -17 -7 5 -7 4 -6 -15 -5 -15 -15 0 -15 0 -5 18 -6 18 20 57
21 58 -12 42 -11 42 -19 37 -19 37 -11 7 -11 6 10 -18 10 -19 -8 -57 -8 -57
-12 -36 -12 -36 5 -6 6 -5 10 6 10 7 11 37 10 37 1 30 1 30 10 -46 10 -47 -25
-61 -25 -61 13 0 13 0 3 -44 4 -44 -7 5 -8 4 0 -17 0 -17 -40 -39 -41 -38 -13
0 -14 0 -17 27 -17 26 11 51 11 51 1 15 1 15 -1 23 -1 23 -10 -6 -10 -6 5 -10
6 -9 -7 -35 -6 -35 -8 0 -8 0 -5 20 -5 20 -11 0 -11 0 0 -26 0 -25 9 5 9 6 -5
-20 -5 -20 22 -55 22 -55 12 7 11 7 -12 -15 -12 -15 49 -72 48 -73 22 -19 23
-20 11 -1 11 -1 7 1 7 1 -5 -13 -4 -12 32 -20 33 -20 8 3 8 2 -6 -9 -6 -10 25
-16 24 -16 30 31 30 30 -10 0 -11 0 6 7 7 6 -19 11 -19 11 -68 46 -69 47 -21
28 -20 29 -7 18 -7 18 9 -6 9 -5 36 41 35 42 12 36 11 36 19 21 19 20 -7 8 -8
8 14 -4 13 -3 23 43 23 42 8 33 7 32 2 30 2 30 -12 52 -12 51 -27 52 -27 52 3
3 3 4 50 21 50 21 37 26 38 25 -6 9 -5 9 9 -2 9 -3 48 57 47 57 -7 11 -6 10
13 -2 13 -3 -1 22 0 22 6 -4 7 -5 20 52 20 53 31 6 32 6 -6 -8 -5 -9 32 0 33
0 42 20 42 21 68 72 67 72 20 44 19 44 -6 96 -7 96 -19 87 -19 88 6 49 6 50
-22 36 -21 36 0 27 0 28 -16 22 -16 23 17 64 18 64 -6 20 -5 20 10 3 9 3 10
45 10 45 9 120 9 120 -15 105 -15 105 -10 49 -10 50 -21 43 -21 42 -9 -5 -8
-5 -9 24 -10 25 -36 35 -37 36 -26 3 -27 3 -50 -11 -50 -12 -26 -7 -27 -7 -17
52 -17 51 -23 42 -24 42 -34 36 -34 36 -77 49 -77 49 -68 50 -68 50 -67 50
-67 50 -77 57 -77 58 -55 21 -55 21 -73 -5 -73 -4 -15 -19 -14 -19 6 108 7
108 -13 40 -13 39 -23 0 -23 0 15 -27z m-216 -147 l0 -4 -17 -13 -18 -14 14
18 13 17 4 0 4 0 0 -4z m-289 -33 l14 -18 -17 14 -18 13 0 4 0 4 4 0 4 0 13
-17z m497 -88 l-6 -6 -6 18 -7 18 12 -12 13 -13 -6 -5z m222 21 l0 -4 -17 -13
-18 -14 14 18 13 17 4 0 4 0 0 -4z m-960 -12 l0 -3 -9 -6 -10 -5 -5 8 -5 9 14
0 15 0 0 -3z m-160 -18 l0 -4 -17 -13 -18 -14 14 18 13 17 4 0 4 0 0 -4z
m-250 -22 l0 -3 -9 -6 -10 -5 -5 8 -5 9 14 0 15 0 0 -3z m94 -2 l5 -9 -14 0
-14 0 5 9 5 8 4 0 4 0 5 -8z m-264 -78 l0 -3 -9 -6 -10 -5 -5 8 -5 9 14 0 15
0 0 -3z m1761 -21 l14 -18 -17 14 -18 13 0 4 0 4 4 0 4 0 13 -17z m-1870 -30
l14 -18 -17 14 -18 13 0 4 0 4 4 0 4 0 13 -17z m2090 -130 l14 -18 -17 14 -18
13 0 4 0 4 4 0 4 0 13 -17z m-2311 -79 l0 -3 -9 -6 -10 -5 -5 8 -5 9 14 0 15
0 0 -3z m2845 -334 l-6 -10 33 0 33 0 10 -8 10 -7 36 -60 36 -60 7 -30 8 -30
11 -7 12 -8 -12 0 -13 0 0 -16 0 -15 8 5 7 4 -3 -40 -4 -41 8 6 9 5 -4 -50 -3
-50 9 5 9 6 -18 -127 -18 -127 -2 -32 -3 -31 -8 5 -8 5 -36 -42 -36 -42 -41
-26 -41 -27 -30 -13 -30 -14 -77 -2 -78 -1 0 95 0 95 15 70 16 70 14 85 15 85
0 152 0 153 38 24 39 24 44 16 44 15 3 1 3 0 -6 -10z m140 -781 l7 -20 -12
-48 -11 -48 -35 -34 -34 -33 -65 -4 -65 -4 -54 22 -54 22 -15 16 -16 17 82 0
82 1 54 29 54 30 31 37 31 38 7 0 7 0 6 -21z m-178 -219 l42 0 25 10 26 10 0
-9 0 -9 -46 -23 -46 -22 -68 -5 -67 -4 -12 32 -11 33 0 17 0 18 58 -24 57 -24
42 0z m176 30 l5 -20 -10 6 -10 7 6 -20 6 -19 -22 -22 -23 -21 -58 -26 -57
-26 -57 2 -58 2 -12 10 -13 9 6 9 5 9 40 0 40 0 44 11 43 11 59 48 58 48 1 1
2 1 5 -20z m7 -73 l0 -13 -37 -41 -38 -41 -25 -13 -25 -13 -60 -12 -60 -12 48
-1 48 -1 42 19 42 19 21 24 22 23 11 23 12 22 14 0 15 0 0 -15 0 -15 1 -5 0
-5 9 -30 9 -30 -9 5 -8 5 -6 -25 -7 -26 -36 -40 -37 -40 -37 -20 -38 -19 -49
0 -48 0 -16 13 -15 12 -17 78 -16 78 0 7 0 8 73 -1 72 0 45 22 45 22 25 25 25
25 3 0 2 1 0 -13z m50 -212 l0 -45 8 0 7 0 0 -43 1 -42 8 -20 8 -20 3 -35 3
-35 -10 -55 -10 -55 -1 -17 -1 -17 -10 6 -9 6 6 -22 6 -23 -7 6 -6 6 -32 -31
-33 -32 5 -9 5 -8 -8 2 -8 3 -35 -22 -35 -21 -28 -7 -27 -7 -30 12 -30 12 0
19 0 19 -10 0 -10 0 1 93 0 92 -9 45 -10 45 -12 53 -12 54 10 10 10 10 35 -11
36 -12 38 7 38 7 29 14 29 15 24 26 25 27 9 23 9 22 15 0 15 0 0 -45z m-2307
-417 l167 -3 0 -6 0 -7 -77 -7 -78 -8 -85 2 -85 1 -70 6 -70 6 -30 3 -30 4 -5
2 -5 3 85 6 85 6 16 -3 15 -3 167 -2z m211 -15 l-9 -18 -2 -294 -1 -294 -12
-180 -11 -179 -9 -24 -10 -24 -8 0 -9 0 4 53 4 52 9 45 10 45 5 30 6 30 -2
225 -2 225 2 154 1 153 6 9 5 9 16 0 15 0 -8 -17z m-574 -18 l175 -7 55 -8 55
-7 -360 -1 -360 -1 -25 -4 -25 -4 -57 -8 -58 -7 0 10 0 10 68 7 67 6 41 8 41
8 74 2 74 2 3 4 4 4 27 -4 26 -4 175 -6z m526 -51 l-6 -47 0 -39 0 -39 -11 6
-10 7 1 42 2 41 -1 28 -1 27 -42 0 -43 0 15 10 15 10 44 0 44 0 -7 -46z m-38
-3 l4 -11 -24 -1 -23 -1 -30 -2 -30 -2 -90 8 -90 7 -220 0 -220 0 -65 1 -65 1
-95 -10 -95 -10 -9 9 -10 10 20 0 19 1 75 5 75 6 4 4 4 4 431 -4 430 -4 4 -11z
m-218 -29 l22 -8 -208 2 -209 3 -60 2 -60 2 40 6 40 7 207 -3 206 -3 22 -8z
m-552 3 l-6 -6 -118 -9 -119 -10 -42 -6 -43 -6 0 15 0 16 83 4 82 3 84 2 84 2
-5 -5z m776 -165 l7 -165 -7 -78 -7 -78 -4 5 -5 5 -4 207 -3 207 -6 5 -6 6 3
-276 3 -276 -8 5 -9 5 4 -80 3 -80 -9 5 -9 6 5 -36 4 -36 -9 6 -10 6 5 -36 4
-36 -7 5 -7 4 -6 -40 -6 -40 -8 0 -7 0 6 68 7 67 16 180 15 180 1 145 0 145
-6 53 -7 52 -13 0 -14 0 0 10 0 10 16 0 16 0 -5 14 -6 15 32 3 32 3 2 0 1 0 6
-165z m-104 152 l0 -9 -30 5 -30 4 0 4 0 4 30 0 30 0 0 -8z m-610 -13 l45 -1
-34 -8 -34 -8 -54 3 -53 3 6 -9 5 -9 -15 6 -16 6 0 4 0 3 33 10 32 10 20 -5
20 -4 45 -1z m568 -9 l43 0 -6 -10 -6 -10 -22 5 -22 4 -103 5 -102 5 7 -12 7
-12 -16 12 -15 13 -8 -8 -8 -7 8 14 8 14 96 -7 96 -6 43 0z m-828 -10 l-35 -9
-40 -1 -40 -2 -10 3 -10 2 45 6 45 6 40 2 40 2 -35 -9z m93 3 l-13 -5 -12 5
-13 5 25 0 25 0 -12 -5z m800 -78 l4 -50 -3 -230 -4 -230 -20 -183 -21 -183 7
-11 7 -11 -11 7 -12 7 0 -44 0 -45 -25 -5 -26 -4 -202 4 -202 4 -135 14 -135
13 -132 37 -133 38 0 23 0 24 24 0 25 0 5 -9 6 -8 37 -7 38 -6 26 -13 25 -14
30 -7 29 -8 55 -9 55 -9 65 -7 65 -8 233 2 234 1 5 6 6 5 4 93 3 93 5 30 5 30
15 195 16 195 -2 143 -3 142 -110 1 -111 2 -85 0 -85 1 -250 -7 -250 -7 -61
-6 -62 -7 5 27 5 26 7 0 6 1 170 5 169 5 5 5 5 5 337 -3 337 -3 5 -50z m1947
39 l0 -3 -9 -6 -10 -5 -5 8 -5 9 14 0 15 0 0 -3z m-2009 -94 l1 -45 -1 -125
-1 -125 -6 -115 -5 -115 -4 -30 -4 -30 -7 -130 -6 -130 -9 -10 -9 -9 -1 34 -1
35 -3 19 -4 19 10 86 9 86 5 50 5 50 3 255 4 255 -3 -105 -3 -105 -12 -162
-13 -163 -6 0 -7 0 4 28 4 27 2 238 3 237 -46 1 -45 1 -10 3 -10 2 -45 3 -45
4 70 5 70 6 58 0 57 0 1 -45z m-664 34 l-6 -6 -13 5 -13 5 19 1 19 1 -6 -6z
m80 -11 l-5 -8 176 0 177 0 72 -4 72 -4 13 -8 13 -9 -408 0 -408 0 6 -9 5 -9
-35 9 -35 10 -10 -6 -9 -6 -25 7 -26 6 6 9 5 9 199 0 199 0 6 10 6 10 5 0 5 0
-4 -7z m514 -146 l0 -92 -1 -80 -2 -80 -3 -40 -3 -40 -6 -134 -5 -134 -6 -5
-5 -5 0 -44 0 -44 -147 2 -148 1 -20 9 -20 8 153 -1 153 -1 4 4 4 4 5 52 6 51
10 99 9 98 1 225 0 226 -372 -1 -373 -1 -15 6 -15 5 185 5 185 5 213 -3 212
-3 1 -92z m-881 57 l0 -4 -30 0 -30 0 0 8 0 9 30 -5 30 -4 0 -4z m295 -4 l6
-10 -140 3 -141 3 -7 7 -6 7 141 0 141 0 6 -10z m95 0 l15 -10 -42 2 -43 2 0
8 0 8 28 0 27 0 15 -10z m443 0 l17 -1 0 -17 0 -17 -7 -24 -6 -25 -8 20 -7 19
-1 -170 -2 -170 -5 -50 -5 -50 -15 -95 -15 -94 -4 -4 -4 -5 -158 -4 -158 -5
-160 16 -160 17 -87 20 -88 21 0 10 0 10 23 -6 22 -7 88 -19 88 -19 112 -5
112 -6 140 -4 140 -5 39 7 40 7 11 75 12 75 12 105 12 105 -5 90 -6 90 0 37 0
38 -25 -10 -25 -10 -138 5 -137 5 -220 5 -220 5 -52 0 -53 0 0 10 0 11 248 -1
247 -2 178 -10 178 -11 12 12 11 11 -44 0 -45 0 -85 7 -85 6 -45 8 -45 8 180
-4 180 -4 18 -1z m-443 -74 l386 -1 0 -17 0 -17 -4 4 -4 4 -14 -14 -14 -13
-277 3 -278 3 -132 12 -133 13 0 19 0 18 43 -7 42 -6 385 -1z m-765 -80 l50
-23 19 -21 19 -22 9 6 8 5 -2 -13 -3 -13 13 3 13 2 -6 -10 -7 -11 12 -14 12
-15 11 7 10 6 -6 -10 -7 -11 15 -12 15 -12 0 -9 0 -8 -42 18 -43 19 -45 6 -45
7 -11 7 -10 7 -43 58 -42 57 6 10 6 10 22 0 22 0 50 -24z m1496 -118 l-1 -135
-10 -51 -9 -51 -6 -48 -6 -48 -5 -50 -5 -50 -15 -83 -15 -83 3 -17 4 -17 17
67 17 67 0 25 0 25 11 6 10 7 6 -6 7 -6 -25 -125 -24 -125 -8 0 -8 0 -6 16 -6
16 -7 -12 -8 -13 -118 10 -119 10 95 3 95 2 -17 5 -18 4 0 10 0 9 30 0 30 0 0
-10 0 -10 -12 -1 -13 0 20 -8 20 -8 7 91 6 91 12 65 12 65 3 35 4 35 20 182
21 182 0 37 0 37 6 -5 5 -6 0 -134z m-1116 123 l60 -9 145 -9 145 -8 203 0
202 0 0 -7 0 -8 -35 0 -35 0 0 -9 0 -8 24 4 24 5 5 -9 6 -10 -12 0 -12 0 -115
-6 -115 -5 87 11 87 12 5 6 6 6 -77 -4 -78 -4 -230 12 -230 11 -67 5 -67 5
-12 14 -11 14 18 0 19 0 60 -9z m744 -2 l-14 -9 -175 1 -175 0 -45 9 -45 8
234 0 233 -1 -13 -8z m-1218 -46 l14 -18 -17 14 -18 13 0 4 0 4 4 0 4 0 13
-17z m539 -3 l25 -8 -40 0 -40 0 -25 8 -25 8 40 0 40 0 25 -8z m-70 -23 l25
-4 -46 -2 -45 -1 -20 14 -19 15 40 -9 40 -8 25 -5z m224 14 l6 -9 -25 3 -26 2
-6 7 -6 6 26 0 26 0 5 -9z m86 -3 l0 -8 -30 0 -30 0 0 9 0 9 30 -2 30 -1 0 -7z
m239 -26 l211 5 0 -12 0 -13 -32 -5 -33 -6 -150 4 -150 3 -180 12 -180 11 -5
6 -5 5 148 -5 147 -5 0 11 0 12 9 -14 9 -14 211 5z m-354 -28 l90 -5 115 -8
115 -8 121 5 121 4 6 -16 6 -15 -207 4 -207 3 -105 11 -105 11 -50 5 -50 4
-58 2 -58 2 -6 10 -6 10 94 -6 94 -7 90 -6z m592 -26 l-5 -13 -1 19 -1 19 6
-6 6 -6 -5 -13z m59 -80 l-6 -103 -11 -115 -11 -115 -5 -9 -6 -9 -8 15 -8 14
9 40 8 39 11 66 11 66 0 45 0 45 6 62 7 61 4 0 5 0 -6 -102z m-718 77 l24 -4
116 -10 117 -11 70 -4 70 -4 45 -3 45 -2 -50 -7 -50 -7 -130 3 -130 3 -80 11
-80 11 -80 10 -80 10 -10 10 -10 11 95 -7 95 -7 23 -3z m659 -47 l-5 -13 0 25
0 25 5 -12 5 -13 -5 -12z m-657 -5 l85 -16 155 -1 155 -1 110 8 110 8 6 11 7
10 3 -38 4 -39 -256 1 -256 1 -99 7 -99 8 -49 9 -50 9 -8 13 -8 12 0 13 0 13
53 -7 52 -6 85 -15z m-70 -63 l35 -8 -40 -1 -40 -1 -22 6 -23 6 0 10 0 10 28
-7 27 -8 35 -7z m690 -10 l0 -8 -147 -1 -148 -2 -23 -6 -23 -5 -127 8 -127 9
200 5 200 5 98 1 97 2 0 -8z m-650 -20 l55 0 15 -10 15 -10 -15 0 -15 0 -90
10 -90 11 -8 8 -9 9 44 -9 43 -8 55 -1z m653 -19 l5 -19 -9 -13 -8 -14 -233 0
-233 0 -125 13 -125 14 -30 9 -30 9 20 -16 20 -16 -25 4 -25 3 -3 18 -3 17 28
0 28 0 33 -10 33 -9 137 -6 137 -6 156 -3 156 -3 39 7 39 8 -152 1 -151 1 -19
8 -18 7 110 5 110 5 66 2 67 3 5 -19z m-495 2 l-18 -4 -17 4 -18 5 35 0 35 0
-17 -5z m122 3 l0 -4 -15 -6 -15 -5 0 9 0 10 15 0 15 0 0 -4z m-275 -84 l110
-25 235 -1 235 0 30 6 31 6 0 -18 0 -19 -8 5 -8 5 0 -19 0 -19 -99 -7 -99 -7
-68 6 -69 6 -105 10 -105 10 -85 15 -85 15 -20 5 -20 5 18 -15 19 -15 64 -6
63 -7 13 -16 13 -15 -20 10 -20 10 -56 6 -55 5 -40 17 -39 17 20 8 20 9 -12 0
-13 1 0 26 0 26 23 -7 22 -7 110 -26z m219 19 l189 -8 93 3 93 2 21 7 20 6 0
-14 0 -15 -47 -5 -48 -4 -150 0 -150 0 -90 8 -90 9 -55 15 -55 14 40 -5 40 -6
189 -7z m-565 -111 l24 -35 -13 12 -13 12 -17 -12 -18 -11 -16 13 -16 13 0 14
0 14 12 19 12 19 10 -12 11 -12 24 -34z m631 -10 l15 -10 -59 4 -58 5 -6 5 -5
6 49 0 49 0 15 -10z m360 0 l0 -10 -67 1 -68 2 35 7 35 7 33 2 32 1 0 -10z
m-735 -20 l50 -19 -21 -1 -21 0 -32 11 -31 11 0 9 0 9 3 0 2 0 50 -20z m125
-20 l25 -8 -20 -2 -20 -2 25 -9 25 -9 -39 5 -40 4 -15 16 -15 15 24 -1 25 -1
25 -8z m885 -110 l-18 -110 -9 0 -8 0 0 15 0 14 21 101 22 100 5 -4 4 -5 -17
-111z m-625 80 l0 -6 -67 7 -68 8 -23 0 -23 1 5 8 4 8 86 -10 86 -9 0 -7z
m483 -7 l7 -33 -10 0 -10 0 0 37 0 36 4 -4 3 -4 6 -32z m-103 12 l0 -15 -57 0
-57 0 10 9 9 10 35 4 35 4 13 1 12 2 0 -15z m-180 -11 l4 -5 -82 2 -82 2 0 9
0 10 78 -7 77 -7 5 -4z m-380 -18 l0 -4 -16 -6 -15 -6 6 10 6 10 10 0 9 0 0
-4z m157 -2 l-6 -6 -13 5 -13 5 19 1 19 1 -6 -6z m71 -1 l-18 -4 -22 4 -23 4
40 0 40 1 -17 -5z m294 -27 l148 -1 0 -14 0 -14 -192 7 -193 6 -40 7 -39 6 19
8 20 8 65 -6 65 -7 147 0z m-698 -25 l6 -9 27 -5 28 -5 56 -15 55 -16 87 -11
87 -12 118 -2 117 -3 163 -2 162 -1 0 -15 0 -16 -132 6 -133 5 -156 5 -156 5
-104 15 -104 14 -77 20 -78 20 -20 11 -20 11 0 4 0 5 34 0 35 0 5 -9z m-17
-42 l28 -11 65 -14 65 -15 115 -14 114 -15 176 -1 175 -1 50 -8 50 -7 -45 -2
-45 -2 -150 1 -150 2 -45 3 -45 4 -95 11 -95 11 -70 15 -70 16 -32 10 -33 10
0 9 0 9 4 0 5 0 28 -11z m157 -69 l109 -19 66 -6 66 -7 85 -3 85 -3 70 -3 70
-3 -110 -5 -110 -6 -85 7 -85 6 -80 11 -80 11 -65 19 -65 19 10 1 10 1 109
-20z m2307 3 l14 -18 -17 14 -18 13 0 4 0 4 4 0 4 0 13 -17z m-2246 -50 l80
-17 298 2 297 1 0 -8 0 -8 -187 -13 -188 -13 -49 2 -48 2 -102 19 -101 20 -50
14 -50 14 10 1 10 1 80 -17z m-135 -189 l0 -3 -9 -6 -10 -5 -5 8 -5 9 14 0 15
0 0 -3z"/>
<path d="M1650 419 l0 -10 10 6 10 6 0 5 0 4 -10 0 -10 0 0 -11z"/>
<path d="M2607 4363 l-7 -6 9 -11 8 -11 10 -42 11 -43 -8 5 -7 4 -11 -36 -11
-36 6 -10 6 -10 -11 7 -12 7 0 -8 0 -8 9 -14 9 -14 21 42 22 42 -6 8 -5 9 9 4
9 3 3 20 3 20 -8 43 -8 42 -17 0 -18 0 -6 -7z"/>
<path d="M4 4099 l0 -51 13 19 14 18 -3 29 -3 29 -11 4 -10 3 0 -51z"/>
<path d="M13 3995 l-13 -14 0 -6 0 -5 15 0 15 0 0 20 0 20 -2 0 -3 -1 -12 -14z"/>
<path d="M80 3974 l0 -16 12 4 12 4 4 12 4 12 -16 0 -16 0 0 -16z"/>
<path d="M2099 3908 l-64 -33 2 -12 3 -12 -14 5 -13 5 -12 -15 -13 -15 8 -12
7 -12 -11 7 -11 7 -16 -25 -17 -25 8 -12 7 -12 -10 6 -11 7 -6 -23 -6 -22 0
-43 0 -43 25 -24 24 -25 16 0 15 0 0 8 0 8 -12 12 -11 11 1 46 0 46 21 41 20
41 -6 10 -6 10 10 -6 9 -6 45 41 44 41 -3 9 -2 9 10 -6 10 -6 6 15 6 16 10 0
10 0 -12 -15 -12 -14 8 -12 7 -12 -11 7 -11 7 -31 -43 -31 -42 6 -13 5 -14 -9
6 -9 5 -7 -31 -7 -30 18 -20 17 -19 9 0 9 0 -6 33 -6 32 24 45 25 44 13 4 14
5 -12 -14 -13 -13 0 -41 0 -41 13 -13 12 -14 -14 8 -14 8 6 -17 7 -18 0 -4 0
-5 9 5 9 6 -2 -13 -1 -12 8 -2 7 -3 15 0 15 0 -16 25 -16 25 -8 36 -8 36 15
46 14 47 15 28 16 28 -28 -7 -27 -7 7 12 7 11 -14 0 -14 0 -64 -32z"/>
<path d="M1789 3851 l-54 -28 3 -12 2 -11 -12 3 -13 2 3 -13 2 -13 -9 6 -10 6
-31 -42 -30 -42 0 -14 0 -13 -10 0 -10 0 10 -26 10 -25 -10 6 -10 6 0 -52 0
-52 18 -14 17 -14 -14 7 -13 7 7 -24 8 -23 12 -13 13 -12 7 7 8 7 -7 -13 -7
-12 15 -15 15 -16 48 -14 48 -15 4 0 4 0 -18 20 -18 20 -13 0 -13 0 -27 27
-26 26 -14 33 -14 33 0 53 0 53 19 40 18 40 44 46 44 45 44 32 45 32 -16 0
-16 0 -53 -29z"/>
<path d="M1452 3851 l-10 -6 38 -32 38 -32 5 6 6 5 -21 29 -21 28 -12 5 -12 4
-11 -7z"/>
<path d="M1196 3838 l22 -10 28 -52 28 -51 19 -35 18 -35 -5 35 -5 35 -7 23
-6 22 22 0 23 0 37 -11 37 -11 11 -19 12 -19 -37 -24 -38 -24 -48 -51 -49 -50
-4 -57 -4 -57 10 -38 11 -39 19 -10 19 -10 6 0 6 0 -20 26 -21 27 0 51 0 52
20 38 19 39 -6 11 -6 11 8 -7 8 -7 38 30 39 31 -6 10 -7 11 10 -6 11 -7 12 15
12 15 14 0 14 0 0 -9 0 -10 -11 -6 -10 -7 5 -15 6 -14 -9 5 -9 6 -12 -30 -12
-29 8 -12 7 -12 -11 7 -11 6 -6 -54 -7 -54 7 -41 7 -41 21 -15 21 -15 5 5 4 5
-17 19 -18 19 6 74 5 73 3 17 2 17 5 -5 5 -5 16 29 15 28 40 57 40 56 25 9 25
10 35 31 35 31 18 6 17 5 0 10 0 9 -10 0 -11 0 -30 -15 -30 -16 7 -11 7 -11
-11 7 -12 7 -32 -23 -33 -23 -35 -29 -35 -30 2 -8 3 -7 -16 6 -15 5 5 6 5 5
-36 28 -35 29 -37 10 -36 10 -26 0 -25 0 -29 30 -29 30 -20 -1 -21 0 21 -11z"/>
<path d="M1345 3830 l-6 -10 15 0 16 0 8 -2 7 -2 24 -21 25 -20 23 -22 24 -23
4 0 5 0 0 15 0 15 -51 40 -51 40 -18 0 -19 0 -6 -10z"/>
<path d="M1137 3679 l11 -14 26 -45 26 -45 0 21 0 21 -22 33 -23 33 -15 5 -15
5 12 -14z"/>
<path d="M1017 3650 l52 -19 38 -30 38 -30 25 -41 25 -40 7 0 8 0 0 3 0 4 -16
32 -16 32 -41 39 -40 39 -45 16 -46 15 -20 -1 -21 0 52 -19z"/>
<path d="M2094 3636 l-5 -23 15 -37 15 -37 40 -39 40 -40 18 0 17 0 -46 48
-46 47 -15 31 -16 31 6 21 5 22 -11 0 -11 0 -6 -24z"/>
<path d="M2280 3632 l0 -8 54 -47 55 -47 8 0 8 0 71 -29 71 -29 34 -17 34 -18
-20 -8 -20 -8 26 0 26 -1 7 -7 6 -7 38 -13 37 -13 9 0 9 0 -18 20 -18 20 -42
24 -42 25 -54 21 -54 21 -70 36 -70 35 -30 22 -30 22 -12 8 -13 7 0 -9z"/>
<path d="M875 3581 l-30 -9 95 -1 95 -1 43 -20 42 -19 25 -27 25 -27 0 15 0
15 -22 20 -23 21 -34 17 -34 17 -76 4 -76 3 -30 -8z"/>
<path d="M1513 3560 l5 -20 -8 5 -9 5 -6 -54 -7 -54 18 -31 18 -31 9 22 9 23
5 53 5 53 -6 24 -6 25 -16 0 -16 0 5 -20z"/>
<path d="M1165 3364 l-37 -56 -2 -23 -1 -23 -7 5 -8 4 -2 -18 -1 -18 0 -12 1
-13 -11 7 -10 6 5 -21 6 -22 -10 -6 -9 -6 5 -15 6 -14 -11 7 -11 7 4 -42 4
-41 -9 -3 -8 -2 7 -77 7 -78 6 4 6 4 1 -36 0 -37 7 -28 8 -28 9 6 10 6 -6 -14
-5 -14 36 -72 36 -72 11 7 11 7 -6 -11 -7 -10 6 -16 6 -16 11 7 10 6 -7 -12
-8 -12 12 -14 12 -15 11 7 10 6 -7 -12 -7 -11 28 -31 28 -31 19 -19 19 -18 10
6 10 6 -6 -10 -7 -10 50 -42 50 -42 12 7 11 7 -6 -10 -6 -9 128 -61 128 -62
92 -89 91 -90 0 10 0 9 -39 52 -39 52 -33 31 -34 32 -40 24 -40 24 -75 33 -75
32 -67 45 -66 44 -65 70 -64 69 -39 72 -39 71 -18 35 -18 34 -10 52 -11 52 -8
45 -9 45 0 71 -1 72 21 68 21 69 28 60 28 60 7 23 6 22 -4 0 -5 0 -37 -56z"/>
<path d="M2880 3106 l0 -3 73 -53 72 -54 63 -54 63 -54 46 -66 47 -66 43 -115
43 -116 -6 40 -6 40 -29 84 -28 83 -31 49 -32 48 -59 55 -59 55 -94 66 -94 65
-6 0 -6 0 0 -4z"/>
<path d="M2790 3055 l0 -5 83 -41 82 -42 56 -38 56 -37 74 -79 74 -78 -29 40
-29 40 -41 43 -41 44 -55 38 -55 37 -63 32 -64 32 -24 9 -24 10 0 -5z"/>
<path d="M1590 2965 l0 -5 48 -24 48 -24 69 -21 70 -20 115 -16 115 -16 55
-15 55 -15 90 -37 90 -36 93 -48 92 -48 84 -55 84 -56 59 -52 58 -53 33 -33
33 -33 26 -34 26 -35 4 5 5 5 -45 59 -46 59 -77 72 -76 71 -85 56 -84 56 -97
48 -97 48 -64 26 -64 26 -71 19 -71 20 -122 16 -122 15 -75 20 -74 19 -41 21
-41 20 0 -5z"/>
<path d="M1175 2889 l7 -24 31 -52 30 -51 48 -50 48 -50 55 -32 56 -31 11 7
12 7 -7 -11 -6 -10 36 -12 35 -12 20 5 19 5 -5 -8 -5 -7 46 -7 46 -6 11 7 10
6 -7 -11 -7 -12 27 0 28 0 74 -21 74 -21 45 -19 45 -19 -4 12 -4 13 -62 31
-63 31 -77 16 -77 16 -70 12 -70 12 -73 33 -74 34 -48 40 -49 41 -45 64 -46
64 0 10 0 10 -11 7 -11 7 7 -24z"/>
<path d="M2513 2766 l68 -25 55 -31 55 -32 57 -58 57 -57 40 -52 40 -52 23
-27 23 -27 -30 54 -30 55 -67 74 -68 75 -59 38 -59 38 -56 21 -56 21 -31 5
-30 4 68 -24z"/>
<path d="M1510 2707 l25 -14 55 -11 55 -12 155 -35 155 -34 25 -6 25 -6 -15 9
-15 10 -110 31 -110 31 -110 19 -110 20 -25 6 -25 6 25 -14z"/>
<path d="M2750 2708 l0 -5 55 -38 55 -38 54 -58 54 -58 33 -46 32 -45 4 4 4 4
-26 41 -26 42 -36 40 -37 41 -56 42 -55 43 -27 18 -28 17 0 -4z"/>
<path d="M486 2664 l-6 -16 0 -9 0 -9 14 0 14 0 6 16 6 16 -6 9 -5 9 -9 0 -8
0 -6 -16z"/>
<path d="M446 2584 l-6 -16 7 -10 6 -11 -13 8 -13 8 5 -32 5 -32 -9 -5 -8 -5
0 -10 0 -10 8 5 8 5 -4 -36 -5 -36 11 7 10 6 -5 -18 -4 -18 36 -47 36 -47 14
0 15 0 0 6 0 6 -29 34 -30 33 -10 38 -11 38 1 45 0 45 8 20 8 20 -4 13 -5 12
-8 0 -8 0 -6 -16z"/>
<path d="M2160 2543 l-15 -6 -45 -19 -45 -20 -22 -21 -22 -20 6 -10 6 -10 -11
7 -12 7 -20 -33 -20 -33 5 -13 5 -13 -9 5 -9 6 -6 -23 -6 -22 0 -36 0 -35 15
-20 14 -19 1 52 0 51 31 62 32 61 31 24 32 24 40 17 39 17 67 0 66 0 44 -22
43 -23 21 -19 20 -19 8 7 8 8 -3 -10 -3 -10 26 -45 26 -45 15 -50 16 -50 7
-35 8 -35 2 -7 2 -8 1 -31 1 -30 8 5 8 5 0 -119 1 -119 -8 4 -7 5 -12 -33 -13
-32 2 -8 1 -7 -12 2 -13 3 1 -17 2 -16 -16 6 -15 5 6 -17 7 -17 -10 6 -9 6
-26 -17 -26 -17 5 -13 5 -13 -12 4 -12 4 -53 -66 -53 -66 5 -14 6 -14 -10 6
-9 6 -11 -22 -12 -21 5 -19 5 -19 -11 7 -10 6 5 -21 6 -22 -8 5 -8 5 -6 -16
-6 -16 7 -11 6 -12 -8 8 -9 7 -22 -21 -23 -22 4 -7 5 -8 -13 1 -12 0 -28 -1
-28 -2 5 -9 6 -9 -41 9 -40 9 -11 -6 -11 -7 7 11 7 12 -15 0 -16 0 -40 36 -39
36 -7 34 -6 35 9 50 10 49 -13 0 -12 0 -7 -30 -6 -30 7 -11 7 -12 -11 7 -12 7
0 -35 0 -36 8 0 9 0 -1 -22 -1 -23 12 2 12 3 -5 -13 -5 -13 20 -18 20 -18 12
8 12 7 -7 -11 -7 -11 19 -10 19 -10 7 6 6 6 0 -12 0 -13 25 4 24 5 -6 -10 -6
-10 58 6 59 6 27 20 28 21 11 0 10 0 0 -27 0 -28 15 -60 15 -60 14 -72 13 -72
-7 -8 -7 -8 -12 -45 -13 -45 -15 -47 -14 -48 7 -12 7 -13 -8 8 -8 7 -24 -41
-23 -42 6 -6 6 -6 21 27 22 27 28 45 28 46 -6 10 -6 10 14 -6 14 -5 18 57 18
56 -6 57 -5 56 -32 110 -33 109 11 73 12 74 15 30 16 30 -6 10 -6 9 8 -2 9 -3
95 100 95 100 17 25 17 25 7 -25 7 -25 31 -60 32 -60 12 3 12 2 -5 -8 -5 -9
15 -22 15 -21 10 6 9 5 -2 -13 -3 -13 13 2 12 3 0 -13 0 -13 32 -19 33 -20 30
-12 30 -11 28 -1 27 -1 0 9 0 8 -40 6 -41 5 -42 33 -42 32 -46 56 -46 56 -35
70 -34 70 15 57 16 56 8 6 7 6 -5 -6 -4 -7 36 -46 37 -46 40 -40 41 -40 45
-35 45 -35 20 -13 20 -13 53 -25 53 -26 6 5 5 6 -43 22 -43 22 -31 21 -30 21
-55 45 -56 45 -36 40 -35 40 -42 59 -41 59 -4 31 -5 31 -11 75 -12 75 -24 75
-25 74 -30 47 -30 47 -37 25 -37 26 -44 16 -44 15 -61 -1 -61 -1 -15 -5z"/>
<path d="M2214 2411 l5 -8 -22 4 -22 4 -37 -28 -37 -28 -22 -39 -22 -38 6 -60
5 -60 36 -54 36 -54 10 0 10 0 0 14 0 14 -24 29 -23 28 -12 22 -11 22 0 53 0
53 20 33 20 32 26 10 25 10 -7 12 -7 11 10 -6 9 -6 57 8 57 8 0 -9 0 -8 18 0
19 0 37 -32 37 -33 23 -65 23 -64 12 -4 11 -4 0 19 0 19 -16 47 -16 46 -36 40
-37 39 -43 16 -42 16 -41 0 -40 0 5 -9z"/>
<path d="M588 2369 l-38 -11 0 -9 0 -9 29 0 30 0 7 -12 7 -11 -11 7 -12 7 -19
-10 -19 -11 5 -52 5 -53 21 -37 21 -38 11 0 11 0 20 14 20 15 60 21 59 21 72
6 72 6 -5 9 -5 8 -62 40 -61 40 -54 20 -53 20 -11 -6 -11 -7 7 12 8 12 29 -5
29 -6 28 -5 28 -6 28 -24 29 -25 5 5 5 5 -13 15 -12 15 -34 21 -34 21 -78 4
-77 3 -37 -10z m208 -80 l64 -30 0 -8 0 -8 -72 -17 -73 -17 -25 -5 -25 -5 -2
60 -2 61 35 0 36 0 64 -31z m-157 -48 l-3 -69 -18 9 -18 10 0 7 -1 7 -8 42 -8
42 10 10 11 11 19 0 18 0 -2 -69z"/>
<path d="M1818 2296 l49 -54 23 -49 23 -48 22 -69 23 -69 6 19 6 20 -19 55
-19 55 -22 44 -22 44 -51 53 -50 53 -9 0 -10 0 50 -54z"/>
<path d="M1497 2289 l33 -34 19 -56 19 -55 27 -58 28 -59 40 -38 39 -39 14 0
14 0 -39 36 -40 35 -30 62 -31 62 -18 54 -18 55 -45 35 -44 35 32 -35z"/>
<path d="M2176 2221 l-20 -8 18 -6 18 -7 24 0 25 0 28 -14 28 -15 35 -39 36
-40 8 6 7 7 -6 -11 -7 -12 17 -33 16 -33 5 -47 4 -47 -13 -38 -13 -39 2 -8 2
-8 -10 6 -10 6 0 -9 0 -10 -29 -10 -28 -10 -64 5 -64 5 -28 -22 -27 -22 7 -11
6 -12 -7 7 -8 6 -33 -14 -34 -14 -11 0 -10 0 0 33 0 32 -15 41 -14 41 7 29 8
29 36 18 37 18 40 -23 40 -23 8 9 8 8 -28 24 -28 24 -41 0 -40 0 -35 -35 -35
-35 5 -48 6 -47 9 -45 8 -46 8 -12 7 -12 35 0 35 0 22 11 22 12 24 24 24 23
78 -2 78 -3 28 21 28 21 17 44 17 44 0 56 1 56 -26 49 -26 49 -41 42 -40 42
-46 16 -45 15 -10 -1 -11 0 -19 -8z"/>
<path d="M1510 2180 l0 -15 11 -45 10 -45 25 -66 25 -66 36 -43 37 -43 40 -18
41 -19 18 0 18 0 -6 10 -6 10 -19 0 -18 0 -50 45 -50 45 -30 73 -30 72 -13 40
-13 40 -13 20 -13 19 0 -14z"/>
<path d="M666 2114 l-49 -15 11 -11 10 -10 48 14 47 13 5 13 4 12 -14 -1 -13
0 -49 -15z"/>
<path d="M1763 2088 l30 -33 29 -45 28 -45 17 -55 17 -55 9 -10 10 -10 -6 52
-6 52 -20 39 -20 39 -49 52 -49 51 -10 0 -11 0 31 -32z"/>
<path d="M556 2074 l-6 -16 7 -10 6 -11 -11 7 -11 7 -6 -34 -7 -33 4 -35 3
-34 9 2 10 3 3 41 3 40 15 36 15 35 0 9 0 9 -14 0 -14 0 -6 -16z"/>
<path d="M1750 2006 l0 -6 31 -56 32 -56 23 -71 22 -72 1 44 1 44 -37 74 -37
73 -18 17 -18 16 0 -7z"/>
<path d="M2746 1858 l38 -43 50 -39 51 -39 89 -43 89 -44 5 5 5 5 -4 3 -4 3
-114 65 -115 64 -57 53 -57 52 -7 0 -7 0 38 -42z"/>
<path d="M365 1770 l6 -10 -14 6 -14 5 -13 -16 -12 -15 25 0 26 0 25 11 25 12
31 -13 31 -13 10 -19 10 -19 -3 -54 -3 -54 -3 4 -4 4 -30 -34 -30 -34 7 -11 6
-10 -14 6 -15 5 -7 -10 -6 -11 -10 0 -10 0 -43 44 -42 45 -27 6 -27 7 -25 -16
-25 -16 0 -11 0 -11 16 6 15 6 -6 -11 -7 -10 51 5 51 4 -5 -8 -5 -9 33 -25 34
-26 16 0 16 0 36 17 35 17 25 42 25 43 6 45 7 45 -13 32 -13 31 -33 14 -33 14
-41 0 -41 0 6 -10z m-105 -200 l0 -10 -15 0 -15 0 0 10 0 10 15 0 15 0 0 -10z"/>
<path d="M2015 1629 l-26 -32 5 -14 6 -14 -10 6 -10 6 0 -26 0 -26 10 6 10 6
-6 -15 -6 -14 12 -21 11 -21 29 -15 29 -15 24 0 23 0 42 31 42 31 0 24 0 25
-14 33 -14 33 -27 21 -28 22 -37 0 -38 0 -27 -31z m112 -2 l12 0 -1 -6 -1 -6
7 -17 8 -18 11 7 10 6 -7 -11 -6 -10 10 -26 10 -26 -11 0 -11 0 6 -16 6 -15
-9 5 -9 6 -26 -14 -26 -13 7 -6 6 -6 -33 9 -32 9 -13 11 -14 11 -6 29 -6 29
16 35 17 35 21 4 22 4 15 -5 15 -4 12 -1z"/>
<path d="M2774 1641 l6 -9 22 -5 23 -6 -19 14 -20 15 -9 0 -8 0 5 -9z"/>
<path d="M2444 1210 l5 -85 -10 -50 -9 -50 -31 -63 -31 -63 -44 -46 -44 -47 5
-4 4 -4 35 28 35 29 32 44 32 45 21 45 20 46 1 110 0 110 -13 20 -12 20 4 -85z"/>
<path d="M2527 1028 l-27 -57 0 -13 -1 -13 -14 -19 -14 -19 6 -10 6 -10 -9 6
-9 5 -45 -45 -45 -45 -54 -31 -54 -31 10 -3 11 -4 49 25 48 24 38 36 37 36 6
0 6 0 -6 -26 -7 -27 -35 -70 -35 -71 -35 -48 -35 -49 20 11 20 10 26 34 26 34
39 78 40 78 0 14 0 15 35 110 36 109 -4 11 -3 11 -27 -56z"/>
<path d="M2844 1027 l-5 -14 21 -104 20 -104 11 -50 11 -50 -4 -68 -3 -67 12
0 11 0 11 68 12 67 -36 143 -35 143 0 19 0 19 -10 6 -10 6 -6 -14z"/>
<path d="M2726 979 l-7 -52 -21 -41 -21 -41 -25 -35 -26 -35 -44 -52 -44 -53
13 0 12 0 44 47 43 48 0 7 0 7 14 13 14 14 26 52 26 52 7 60 6 60 -5 0 -5 0
-7 -51z"/>
<path d="M2758 864 l-28 -56 6 -9 5 -9 -13 2 -13 3 1 -17 2 -18 -7 5 -8 4 -17
-35 -16 -35 6 -10 5 -9 -13 2 -13 3 0 -17 0 -18 10 -1 10 -1 22 42 22 42 23
41 23 42 14 41 13 42 -3 11 -4 11 -27 -56z"/>
<path d="M2819 759 l-13 -44 0 -60 1 -60 16 -31 16 -30 15 -13 16 -13 0 7 0 7
-19 26 -19 27 -7 32 -7 33 13 75 12 76 -6 5 -6 6 -12 -43z"/>
<path d="M2511 723 l-35 -66 -24 -28 -24 -29 10 0 10 0 25 30 25 29 27 55 27
55 -4 10 -3 11 -34 -67z"/>
<path d="M2626 619 l-14 -34 -6 -22 -7 -23 8 0 8 0 23 47 23 46 -11 11 -10 10
-14 -35z"/>
</g>
</svg>
