<?xml version="1.0" standalone="no"?>
<!DOCTYPE svg PUBLIC "-//W3C//DTD SVG 20010904//EN"
 "http://www.w3.org/TR/2001/REC-SVG-20010904/DTD/svg10.dtd">
<svg version="1.0" xmlns="http://www.w3.org/2000/svg"
   viewBox="0 0 304.000000 389.000000"
 preserveAspectRatio="xMidYMid meet">
<metadata>
Created by potrace 1.16, written by Peter Selinger 2001-2019
</metadata>
<g transform="translate(0.000000,389.000000) scale(0.100000,-0.100000)"
fill="#9E1A1A" stroke="none">
<path d="M2535 3844 l-38 -46 -1 -28 -1 -28 -9 5 -9 6 5 -31 4 -31 -8 5 -8 5
0 -16 0 -16 8 4 7 5 0 -41 1 -42 8 -17 8 -18 -10 0 -10 0 -27 23 -28 22 -46
41 -46 41 -45 23 -45 23 -72 5 -73 5 -21 34 -22 35 -31 19 -31 19 -53 0 -53 0
6 -10 6 -10 -16 6 -15 6 -25 -6 -26 -7 7 -10 6 -11 53 7 54 6 29 -15 29 -15 8
7 8 7 -8 -14 -8 -14 16 6 17 6 -2 -7 -2 -7 18 -28 19 -28 14 5 14 6 -5 -9 -5
-8 34 -33 35 -34 0 -12 0 -11 -27 5 -28 4 -10 12 -10 11 -50 38 -50 38 -25 -5
-26 -5 -13 8 -13 8 16 6 16 6 17 -6 16 -6 -6 10 -7 11 17 -2 16 -1 4 12 4 12
-38 10 -38 11 -56 0 -55 0 -62 -21 -62 -21 0 -6 0 -7 -58 -3 -57 -3 -55 -13
-55 -14 -55 -7 -55 -6 -57 -26 -58 -26 -40 7 -40 6 -70 -6 -69 -7 5 -8 5 -9
-14 6 -14 5 -27 -11 -27 -10 7 -12 7 -11 -12 7 -12 8 -19 -17 -20 -18 7 -10 6
-10 -11 7 -11 6 -6 -10 -6 -10 -40 -21 -40 -20 7 -12 7 -12 -8 7 -8 7 -19 -10
-19 -10 6 -10 6 -9 -15 0 -16 0 -40 -36 -40 -36 7 -11 6 -10 -10 6 -11 7 -11
-14 -11 -13 8 -8 7 -8 -13 7 -13 8 -35 -27 -34 -26 6 -11 7 -11 -10 6 -10 6
-52 -55 -51 -56 7 -11 6 -10 -10 6 -10 7 -15 -18 -14 -17 -13 -27 -14 -27 14
-18 14 -18 -17 13 -17 13 -10 -19 -10 -19 7 -8 7 -7 -10 3 -10 3 -27 -18 -28
-18 7 -11 6 -10 -10 6 -11 7 -11 -14 -11 -13 8 -8 7 -8 -11 6 -12 7 -56 -69
-56 -69 -40 -76 -41 -76 7 -12 7 -11 -11 7 -12 7 -2 -15 -1 -16 -1 -12 -1 -13
-8 -6 -9 -6 -1 -126 -2 -125 -7 5 -8 4 0 -54 0 -54 7 -121 6 -121 11 6 11 6
-12 -14 -13 -13 0 -9 0 -8 10 6 10 6 -6 -15 -6 -15 17 -51 17 -50 8 5 8 5 -2
-18 -1 -17 11 2 11 2 -9 -62 -8 -62 5 -12 4 -13 -11 0 -10 0 6 -97 6 -98 0 -3
0 -3 12 7 11 7 -6 -10 -7 -11 6 -31 6 -31 9 6 9 5 -6 -15 -6 -14 18 -29 17
-28 51 -52 50 -53 13 0 13 0 0 10 0 11 -16 25 -17 25 7 6 6 7 30 -35 29 -34 2
-75 1 -75 -3 -30 -4 -30 1 -70 1 -70 21 -42 21 -41 62 -47 61 -46 15 5 14 6
52 -39 52 -38 17 -6 18 -6 31 -68 32 -68 20 -22 20 -22 10 6 10 6 -7 -11 -6
-11 34 -35 35 -34 30 -7 31 -6 11 7 12 7 -7 -11 -7 -12 24 0 25 0 13 -17 14
-17 -12 7 -12 8 -15 -28 -14 -28 -76 -74 -75 -75 5 -8 5 -8 -9 2 -9 3 -41 -37
-41 -37 13 -10 13 -11 7 7 7 7 -7 -17 -6 -17 11 0 11 0 32 36 33 37 -2 8 -3 8
14 -5 13 -5 80 89 80 89 25 54 26 54 7 50 7 50 15 30 16 29 -7 96 -6 95 -20
115 -19 115 -16 85 -15 85 0 1 0 2 28 11 27 12 26 42 26 42 7 29 7 30 10 -15
9 -14 0 -28 0 -28 12 7 11 7 -7 -12 -8 -12 7 -60 7 -59 6 4 7 4 1 -42 2 -41
28 -72 28 -72 7 4 7 5 -1 -13 -1 -12 18 -40 18 -40 8 -15 7 -15 65 -22 65 -22
119 -11 119 -11 90 -10 90 -10 50 -9 50 -9 62 -11 61 -11 124 -8 123 -9 117
-28 117 -27 -17 -16 -18 -16 -17 -27 -17 -28 -25 -92 -25 -93 0 -10 1 -10 11
19 11 19 18 75 19 76 6 5 6 6 -6 -90 -6 -90 -6 -118 -6 -117 19 0 20 0 7 83 6
82 6 140 7 140 19 27 19 28 23 0 23 0 32 6 31 6 -5 8 -4 7 26 -5 26 -5 -6 9
-5 9 33 2 33 1 38 20 39 20 22 24 22 23 23 50 23 50 0 135 1 135 16 31 17 31
12 46 11 46 -12 50 -12 49 21 47 21 48 0 21 0 21 -15 29 -15 28 0 18 0 18 26
56 26 57 -6 15 -6 15 9 -6 10 -5 6 55 7 56 -12 61 -12 62 -43 95 -42 95 8 31
9 30 0 42 0 42 -11 28 -11 28 1 55 1 55 -31 85 -30 85 -14 63 -14 64 -25 51
-24 52 -36 38 -36 38 35 -3 34 -2 -2 -5 -1 -6 12 -23 13 -23 10 6 9 6 -1 -8
-2 -8 7 -17 8 -18 11 7 10 6 -7 -11 -7 -12 15 -27 15 -28 15 -70 16 -70 2 -35
3 -35 22 45 21 45 9 63 10 63 -32 77 -31 77 -29 45 -28 45 -54 53 -54 52 -34
14 -33 14 19 62 19 62 -10 61 -9 61 -25 50 -25 51 -12 30 -12 30 -7 47 -6 47
6 -4 6 -4 13 30 13 30 -7 7 -7 7 -24 -30 -25 -30 5 -18 4 -18 -15 3 -15 3 -30
55 -29 55 6 55 7 55 20 47 20 47 14 12 14 11 0 9 0 9 -9 0 -9 0 -37 -46z
m-773 -108 l23 7 29 -2 29 -2 45 -19 44 -20 12 7 11 6 -7 -8 -8 -8 37 -23 38
-22 6 4 7 4 13 -18 14 -17 -17 14 -18 13 0 -9 0 -10 -58 -16 -59 -16 -31 -32
-32 -33 5 -4 4 -4 40 31 40 32 33 10 33 10 108 -2 108 -2 -8 -8 -8 -7 -89 -31
-89 -32 -57 -30 -56 -30 -53 -46 -52 -45 4 -5 5 -4 78 59 79 59 35 16 35 16
70 25 70 25 42 9 43 10 -6 -9 -5 -9 24 0 25 0 67 -21 67 -20 14 5 15 6 -7 -11
-7 -12 14 5 14 5 10 -21 11 -21 16 0 17 0 8 -9 8 -9 -15 8 -15 9 13 -16 12
-15 23 -44 24 -44 13 -52 14 -53 -23 -122 -22 -123 -2 -20 -2 -20 12 0 11 0 9
-9 8 -9 -12 7 -13 7 0 -9 0 -9 23 -21 23 -22 9 7 8 8 -6 -11 -6 -11 15 -22 15
-21 9 5 9 5 7 -11 7 -12 -11 7 -12 7 0 -10 0 -11 8 0 9 0 32 -45 32 -45 9 5 9
5 7 -11 7 -12 -11 7 -12 7 0 -10 0 -10 9 -5 9 -6 13 -50 13 -49 6 4 6 4 -4
-31 -5 -32 -36 40 -36 40 -48 60 -49 60 -30 54 -30 54 -19 24 -19 25 0 8 0 9
-27 30 -26 30 -8 0 -8 0 64 -102 63 -103 25 -40 26 -40 93 -100 94 -100 13
-33 13 -32 8 5 8 5 -6 -22 -5 -21 9 5 9 6 3 -63 3 -63 -10 -6 -9 -6 -21 34
-22 34 -39 7 -40 7 -29 -7 -30 -6 -26 -20 -25 -20 0 -16 0 -16 25 27 24 26 28
11 27 10 38 -6 37 -7 22 -34 21 -34 14 0 15 0 -3 -47 -3 -46 -11 -4 -11 -4
-13 46 -13 46 -9 5 -9 6 -29 8 -29 8 -52 -34 -52 -33 -8 5 -8 5 -12 40 -12 40
29 42 30 42 49 7 49 7 12 -9 11 -10 8 8 8 7 -6 -11 -7 -12 15 -12 15 -12 0 17
0 18 -22 36 -21 36 -20 22 -20 23 -33 6 -33 6 -33 -11 -33 -11 -13 -20 -12
-20 -6 -43 -6 -42 17 -65 17 -65 43 -65 43 -65 57 -90 58 -90 37 -45 37 -45
10 -20 10 -20 13 -62 13 -63 -13 -15 -12 -14 -34 -13 -34 -12 0 -12 0 -12 15
-6 15 -5 0 -16 0 -16 21 -50 21 -49 11 7 10 6 -7 -11 -7 -12 14 -20 14 -20 5
6 6 5 8 -12 7 -12 -11 7 -12 7 0 -10 0 -11 -40 0 -40 0 -20 -12 -20 -13 -32
15 -33 14 -55 -1 -55 -1 -65 -16 -64 -17 -26 -13 -25 -13 -55 -32 -55 -31 -12
0 -13 0 0 43 -1 42 -13 97 -12 98 11 102 11 103 -4 22 -4 22 -205 1 -205 1 5
-8 5 -8 -135 -2 -136 -3 -152 -20 -152 -20 -53 -10 -53 -10 -13 0 -14 0 5 58
5 57 -9 -20 -10 -20 -6 -37 -6 -38 -14 0 -15 0 0 13 0 14 25 61 25 61 20 33
20 33 0 16 0 15 19 40 19 39 -9 6 -9 5 6 32 7 32 11 0 12 0 32 34 33 35 15 37
15 36 -4 4 -4 4 -42 -65 -42 -64 -11 -7 -10 -7 7 34 7 34 38 40 39 40 35 83
35 82 6 87 5 86 13 26 13 26 19 29 19 29 -22 -12 -23 -12 -29 -41 -30 -41 0
-10 0 -10 -39 -76 -38 -76 -6 -26 -7 -26 -85 -82 -85 -81 0 -6 0 -5 18 10 17
9 58 56 58 56 4 0 3 0 -16 -41 -16 -41 -55 -47 -54 -46 -56 -49 -56 -50 -22
-30 -23 -30 0 -10 0 -11 71 72 70 72 5 0 4 0 26 18 25 18 31 25 31 24 33 72
33 72 19 63 20 64 21 45 21 45 -3 -80 -2 -80 -39 -77 -39 -77 -19 -7 -19 -6 5
-14 6 -15 -8 3 -7 4 -36 -38 -37 -38 25 6 25 7 -5 -19 -6 -19 -10 -41 -11 -41
-47 -31 -48 -32 -20 -17 -21 -18 -27 -36 -27 -35 -64 -33 -64 -32 -44 -38 -43
-39 -14 -26 -14 -26 -9 0 -8 0 0 18 1 17 34 55 35 54 0 13 0 13 -7 0 -8 0 -24
-25 -23 -25 -15 0 -14 0 -32 -16 -32 -16 -35 -34 -35 -33 -27 -10 -28 -11 0
19 0 19 15 37 16 37 44 56 45 57 -12 4 -12 4 -33 -38 -33 -39 -25 -51 -24 -52
-39 -25 -38 -26 -48 -93 -48 -94 6 -90 6 -90 -35 73 -35 73 16 71 17 72 34 81
34 80 15 23 15 23 -6 9 -5 9 22 15 22 16 -15 0 -16 0 -39 -29 -39 -28 -26 -29
-26 -29 -28 -40 -27 -40 7 30 7 30 30 70 31 70 48 75 48 75 -5 4 -5 5 -24 -29
-24 -30 -36 -56 -35 -57 -34 -103 -34 -104 -6 -27 -6 -28 10 0 10 0 0 15 0 15
10 0 10 0 19 38 19 37 50 55 50 55 5 -5 5 -5 -39 -80 -38 -80 -16 -67 -15 -67
0 -38 1 -38 32 -60 33 -60 12 2 11 3 -4 -13 -4 -12 25 -30 26 -30 -6 20 -7 19
-10 76 -10 75 0 47 0 47 21 40 20 41 9 0 9 0 7 -30 7 -31 36 -47 35 -47 54
-49 53 -49 33 -64 32 -65 34 -40 34 -40 26 -10 26 -11 40 -6 40 -6 2 -45 2
-45 16 -85 17 -85 8 -40 9 -40 12 -101 13 -101 -22 -69 -21 -69 -6 -28 -6 -28
-37 7 -37 6 -25 16 -25 16 -25 23 -25 23 -6 0 -6 0 -35 53 -36 52 -7 30 -7 30
-5 20 -4 20 -9 74 -9 74 -5 5 -5 4 -7 -25 -6 -26 4 -51 3 -50 -8 0 -7 0 -59
40 -58 40 -46 49 -47 50 -24 56 -25 56 -7 37 -7 37 -14 17 -15 17 7 146 7 145
-6 0 -6 0 -11 -44 -11 -45 -20 12 -19 12 -45 90 -45 90 -19 25 -20 25 7 -80 6
-80 10 -12 9 -13 -14 0 -14 0 -17 52 -16 53 -12 39 -12 40 6 89 6 90 11 7 11
7 -2 59 -2 59 55 115 55 115 37 54 36 53 0 5 0 5 37 52 37 51 115 119 115 120
37 20 37 21 34 30 33 31 98 107 97 107 0 6 0 6 -40 -32 -40 -32 -91 -104 -91
-105 -46 -23 -47 -24 -20 -22 -20 -22 -60 -48 -60 -48 -50 -27 -50 -28 -17
-15 -18 -15 7 -10 6 -10 -12 8 -13 7 -55 -58 -54 -59 -44 -74 -44 -74 -6 -28
-7 -29 -8 0 -7 0 -6 78 -6 77 -6 31 -6 30 10 140 9 139 7 18 7 17 -15 -6 -16
-6 28 79 28 78 27 47 27 48 44 62 44 63 50 50 51 49 0 -8 0 -8 15 12 15 12 37
77 37 76 -2 8 -2 8 9 -5 9 -6 31 36 31 35 -6 11 -7 11 11 -7 11 -7 30 27 30
27 -6 10 -6 10 10 -6 11 -7 73 66 74 66 73 57 73 56 24 19 24 19 68 13 68 13
48 1 48 0 -61 -57 -62 -57 -46 -33 -47 -34 3 -10 2 -10 -9 5 -9 6 -41 -45 -41
-44 -33 -53 -34 -53 -22 -49 -21 -49 0 -16 1 -16 37 70 37 70 32 46 32 46 -7
8 -7 7 11 -4 12 -3 60 57 59 57 6 -5 6 -6 -24 -37 -24 -36 -21 -64 -21 -63 5
-6 6 -5 6 19 6 19 20 50 21 50 42 65 42 65 25 25 24 25 40 31 39 31 42 22 42
21 19 0 18 0 12 12 12 12 0 -16 0 -17 -21 -6 -22 -7 -67 -67 -67 -66 -27 -58
-27 -58 7 -11 7 -11 -10 6 -10 6 -16 -41 -16 -41 6 -10 6 -10 -10 6 -11 7 -22
-52 -22 -52 -6 -58 -5 -58 9 0 10 0 1 38 2 38 16 45 16 44 1 12 1 12 9 -5 9
-6 14 12 15 12 -7 11 -6 10 10 -6 10 -6 34 23 34 23 53 28 52 28 0 9 0 8 -10
0 -10 0 -53 -30 -52 -31 -22 -15 -21 -15 8 36 8 37 24 25 23 26 39 28 39 29
11 0 10 0 -12 -12 -12 -12 0 -14 0 -14 25 30 25 30 0 10 0 11 -44 -15 -44 -15
-36 -36 -36 -36 0 13 0 13 20 32 20 32 53 49 53 49 41 28 41 28 49 15 48 15
58 13 59 14 -31 -32 -31 -32 5 -7 5 -7 -7 5 -6 5 -13 -11 -14 -11 6 -9 5 -9
-13 2 -13 3 3 -13 2 -13 -10 6 -10 6 -37 -58 -37 -58 -28 -54 -28 -55 0 -10 0
-11 64 100 64 99 -5 10 -6 9 10 -6 10 -6 57 58 57 57 -8 9 -8 8 10 -6 11 -6
43 30 44 29 10 0 9 0 -13 18 -14 17 17 -13 17 -14 23 8z m484 -62 l36 -17 14
0 13 0 -5 -8 -4 -7 25 -20 25 -20 0 -11 0 -11 -27 0 -27 0 -25 30 -26 31 -40
6 -40 5 -12 16 -13 16 0 9 0 10 34 -6 35 -6 37 -17z m-836 12 l0 -4 -14 -11
-14 -12 -8 12 -7 12 11 -7 11 -6 6 10 6 10 5 0 4 0 0 -4z m-575 -186 l-6 -10
-12 0 -12 0 15 10 15 10 3 0 3 0 -6 -10z m1805 -138 l0 -13 9 5 8 5 -5 -26 -5
-26 9 6 9 5 -4 -45 -3 -46 18 7 18 7 -17 -19 -17 -19 0 -32 0 -32 -15 -28 -14
-28 4 -5 5 -5 -16 0 -16 0 6 39 6 39 6 57 6 57 -15 58 -16 59 6 14 5 15 14
-18 13 -18 1 -13z m43 -336 l12 7 -8 -8 -7 -8 42 -26 43 -26 8 3 8 2 -5 -9 -6
-10 10 -6 11 -7 38 -48 39 -49 7 7 8 7 -6 -11 -7 -11 18 -37 18 -37 5 5 4 4 1
-21 2 -22 7 -39 8 -39 -11 7 -12 7 0 15 0 15 -25 49 -25 49 -32 37 -32 37 -44
18 -43 19 -43 29 -43 30 -17 25 -16 26 12 19 12 20 28 -15 29 -15 12 7z m65
-533 l20 -18 16 -26 17 -27 -45 5 -46 6 -30 -13 -30 -12 0 -7 -1 -6 -25 -30
-25 -30 5 69 6 69 17 19 16 18 42 0 43 0 20 -17z m-2342 -155 l7 -11 -11 7
-12 7 0 -12 0 -13 -19 -20 -19 -21 -62 -93 -62 -93 -34 -73 -34 -74 -14 -5
-15 -6 -7 -35 -6 -36 -8 0 -8 0 -11 31 -11 32 0 21 0 21 48 82 47 83 40 51 40
51 70 59 70 59 2 0 2 0 7 -12z m2391 -64 l22 -6 6 -19 6 -18 -11 -21 -11 -20
-19 0 -19 0 -28 25 -28 25 24 20 23 20 7 0 6 0 22 -6z m-87 -59 l0 -13 -17 3
-18 3 -4 1 -3 1 12 15 12 15 9 -6 9 -5 0 -14z m98 -42 l62 -6 6 -26 5 -26 10
-43 9 -42 24 -53 24 -52 21 -53 21 -53 0 -20 0 -20 8 5 8 5 -12 -91 -13 -92 6
-9 6 -10 -13 8 -13 8 5 -21 6 -22 -8 5 -8 5 -6 -16 -6 -16 7 -10 6 -11 -11 7
-11 6 -9 -17 -10 -17 -17 39 -16 40 -6 26 -5 26 30 12 30 13 6 22 6 23 -14 65
-14 65 -12 24 -12 24 -37 45 -36 45 -27 40 -26 40 -41 68 -41 67 0 6 0 6 28
-6 27 -6 63 -7z m102 -28 l0 -25 -10 0 -10 0 0 25 0 25 10 0 10 0 0 -25z
m-1650 -119 l0 -13 -25 -37 -25 -37 6 -11 7 -11 -12 7 -11 7 -57 -53 -56 -53
-27 -42 -27 -42 -7 6 -6 6 0 44 0 43 11 0 11 0 -6 -15 -5 -15 7 1 7 0 40 62
40 61 55 44 55 43 10 9 10 9 3 1 2 0 0 -14z m-66 -153 l-16 -38 -15 -57 -15
-57 -26 -3 -26 -3 -3 -75 -3 -75 -4 -33 -5 -32 11 6 11 7 -8 -13 -8 -12 2 -60
1 -61 -11 -13 -11 -13 8 -12 7 -12 -13 8 -13 8 5 -26 5 -26 -8 5 -9 5 0 -18 0
-19 -9 -10 -9 -9 -12 -38 -12 -38 -24 -9 -24 -9 -52 9 -52 10 -33 32 -33 32
-36 73 -36 73 -58 50 -57 50 -8 -8 -8 -7 6 11 7 11 -20 18 -20 18 -32 62 -31
62 16 23 15 22 20 -44 20 -43 85 -88 86 -89 11 7 11 7 -20 21 -20 22 -43 45
-44 45 -30 26 -30 27 -12 38 -12 39 14 13 13 14 7 -26 6 -25 14 5 13 5 12 -30
13 -30 14 -5 14 -5 0 7 -1 7 -14 19 -15 20 0 11 0 12 18 0 17 0 12 -16 13 -16
10 15 10 15 0 -15 0 -15 65 -61 65 -60 4 4 4 3 -1 -18 -2 -18 32 -3 33 -3 35
28 35 28 0 10 0 10 -25 47 -25 47 0 41 0 40 -10 0 -10 0 -6 -25 -6 -25 17 -48
17 -47 5 -27 5 -26 -33 -18 -33 -17 -11 19 -10 19 -31 30 -31 30 -27 24 -27
24 11 11 10 10 0 8 0 8 -19 0 -20 0 -6 22 -7 21 23 18 24 19 18 0 18 0 -7 -52
-7 -51 13 8 12 8 8 -13 7 -12 23 36 22 37 58 39 59 40 10 0 11 0 0 -59 0 -60
8 -5 9 -5 23 42 23 42 66 67 66 68 3 0 2 0 -16 -37z m1112 -113 l0 -16 -81 9
-80 8 -177 -5 -176 -6 -189 -25 -188 -25 -130 -5 -130 -5 140 20 140 20 145
15 145 15 155 7 155 6 2 1 1 1 134 0 134 0 0 -15z m-14 -39 l13 -14 -13 8 -13
7 -157 -1 -157 0 -95 -11 -95 -11 -95 -15 -95 -16 -230 -4 -230 -4 20 8 20 9
110 2 110 1 205 25 205 25 50 3 50 4 192 -1 192 -1 13 -14z m-12 -27 l0 -12
-167 0 -168 -1 -135 -16 -135 -16 -145 -14 -145 -15 -119 0 -119 0 4 5 5 5
115 5 114 5 95 5 95 6 140 20 140 21 150 7 150 6 63 1 62 0 0 -12z m-1130 -4
l0 -10 -10 0 -10 0 0 10 0 10 10 0 10 0 0 -10z m1041 -30 l69 0 0 -9 0 -9
-242 -5 -243 -5 -150 -20 -150 -20 -152 -7 -153 -6 0 10 0 11 43 1 42 2 30 -2
31 -2 174 15 175 16 95 11 95 11 120 7 120 8 13 -4 14 -3 69 0z m54 -40 l-40
-9 -90 1 -90 1 55 6 55 6 75 2 75 1 -40 -8z m-241 -8 l5 -9 -22 4 -23 5 -109
-11 -110 -11 -105 -15 -105 -16 -140 -5 -140 -5 -32 -2 -33 -3 0 7 0 7 108 7
107 7 50 4 50 3 85 11 85 11 60 7 60 8 102 3 101 2 6 -9z m-844 -49 l21 -47
16 -18 16 -18 9 0 9 0 -4 8 -5 7 91 2 90 1 81 11 81 10 45 6 45 5 160 11 160
10 150 0 150 1 3 -20 3 -20 -238 -5 -238 -5 -80 -11 -80 -11 -143 -15 -142
-15 -61 0 -60 0 22 -31 21 -31 57 -55 56 -56 50 -22 50 -22 54 -13 54 -13 96
7 96 7 241 5 242 5 5 -23 6 -22 -3 -3 -3 -3 -339 -3 -339 -2 -38 -37 -37 -36
-55 -73 -55 -72 0 -9 0 -9 377 6 377 6 5 4 6 3 59 3 59 3 8 -20 7 -20 -16 0
-17 1 -125 -8 -125 -9 -225 -3 -225 -3 -92 -1 -92 -1 -36 -47 -36 -47 6 -13 5
-14 -9 6 -10 5 -9 -16 -9 -17 -11 7 -10 6 -31 64 -31 65 -25 93 -25 93 -15
125 -15 125 -10 70 -9 70 -1 68 0 67 10 0 9 0 21 -47z m1110 28 l0 -10 -17 -5
-18 -6 -125 2 -125 2 -128 -8 -129 -8 -171 -21 -172 -22 -60 6 -60 6 70 2 70
2 35 4 35 4 95 11 95 11 65 11 65 11 225 7 225 7 13 1 12 2 0 -9z m-1023 -67
l-4 -5 -22 -4 -22 -4 5 7 4 8 22 1 22 2 -5 -5z m1033 -38 l0 -15 -166 0 -166
-1 -7 -5 -7 -4 -110 -2 -109 -2 -175 -18 -175 -18 -34 0 -34 -1 4 4 4 4 55 6
55 6 165 15 165 16 20 6 20 6 240 7 240 7 8 1 7 2 0 -14z m7 -40 l7 -7 3 -19
3 -20 -218 -1 -217 -1 -19 -3 -19 -4 10 10 9 9 204 6 205 7 20 9 20 8 -200 -5
-200 -5 -80 -10 -80 -10 -105 -10 -105 -10 -107 -6 -108 -6 0 11 0 10 53 6 52
6 115 10 115 10 110 6 110 5 120 7 120 6 88 -1 88 -1 6 -7z m-479 -53 l-18 -4
-22 4 -23 4 40 0 40 1 -17 -5z m1001 -38 l15 -15 18 17 19 17 49 6 50 6 -3
-32 -2 -32 -4 4 -4 4 -13 -18 -12 -17 -34 -3 -33 -3 -120 -3 -120 -2 -75 -18
-75 -18 -40 -8 -40 -9 -32 -1 -33 0 0 8 0 8 38 13 37 13 60 36 60 37 94 21 95
21 45 -9 46 -8 14 -15z m-1225 17 l5 -8 -17 -1 -17 -1 -109 -7 -108 -7 5 9 6
9 93 3 93 2 4 5 4 4 18 0 18 0 5 -8z m716 -7 l0 -15 -16 0 -15 0 7 -12 7 -11
-13 8 -13 8 -266 -2 -266 -2 -160 -14 -160 -15 -12 0 -13 0 0 8 0 8 138 18
137 19 95 7 95 6 228 2 227 2 0 -15z m-343 -49 l6 -6 -24 1 -24 2 -105 -7
-105 -7 -135 -9 -135 -10 -7 0 -8 0 0 9 0 8 178 12 177 12 30 2 30 2 58 -1 58
-2 6 -6z m356 -21 l-5 -15 -182 0 -181 -1 -200 -14 -200 -15 -22 0 -23 0 0 8
0 9 67 2 67 2 5 3 6 4 110 7 110 7 180 7 180 6 47 2 47 2 -6 -14z m612 -58
l11 -38 5 6 6 5 -13 -67 -12 -67 5 -10 6 -9 -10 6 -11 7 -22 -36 -21 -37 5
-13 5 -13 -12 -5 -12 -4 18 -1 17 -1 0 -23 0 -24 6 -6 7 -7 -1 -45 -1 -45 -1
-2 -2 -3 -4 -29 -5 -28 -16 -24 -15 -24 6 -17 7 -17 -7 7 -7 7 -38 -35 -38
-34 -66 -20 -67 -21 -64 -10 -65 -10 -65 11 -65 11 6 18 6 19 -21 83 -22 83 1
140 2 140 -16 50 -15 50 0 12 0 12 43 -24 42 -23 65 -5 65 -6 48 -12 47 -13
70 12 70 12 53 1 52 0 20 9 20 9 -70 0 -70 0 -70 -13 -71 -12 -29 8 -30 8 -91
14 -91 14 -31 16 -31 16 -6 10 -6 10 43 0 43 0 50 15 50 16 70 10 70 10 40 4
40 4 39 -9 40 -9 11 8 10 9 20 5 20 5 20 -1 19 -2 11 -38z m-645 22 l5 -2 -45
-6 -45 -6 -45 5 -45 4 40 6 40 5 45 -2 45 -2 5 -2z m-301 -3 l-5 -5 -154 -11
-155 -10 -37 -5 -37 -4 -6 9 -6 10 18 0 18 0 115 6 115 7 4 3 4 4 65 0 65 0
-4 -4z m321 -98 l5 -3 -266 -5 -265 -5 -60 5 -59 5 100 5 100 5 220 -2 220 -2
5 -3z m-650 -8 l0 -10 -20 0 -20 0 0 10 0 10 20 0 20 0 0 -10z m656 -19 l-6
-9 -152 -6 -153 -6 -140 -1 -140 -1 -69 1 -70 1 10 10 10 10 349 3 350 2 8 3
8 2 -5 -9z m6 -38 l5 -18 -383 0 -382 0 -7 7 -8 7 254 1 254 1 120 5 120 5 4
5 4 4 8 0 7 0 4 -17z m-22 -43 l-15 -10 -110 0 -110 0 -280 -6 -280 -7 8 9 9
9 391 10 392 10 5 -3 4 -3 -14 -9z m-1912 -127 l12 -22 0 -36 0 -37 -12 4 -13
5 -12 34 -12 34 0 55 -1 55 7 25 8 25 6 -60 6 -60 11 -22z m1936 112 l-6 -15
-27 -2 -26 -2 -30 -2 -30 -2 -140 -8 -140 -8 -17 1 -18 1 -72 1 -71 1 7 7 7 7
263 7 263 6 19 11 19 11 2 1 2 0 -5 -15z m-619 -36 l-40 -8 -83 2 -84 2 -5 7
-4 8 128 -1 128 -1 -40 -9z m615 -9 l0 -10 -52 0 -53 -1 -120 -6 -120 -5 5 5
5 5 130 7 130 7 4 4 4 4 34 0 33 0 0 -10z m-465 -11 l90 -2 -55 -6 -55 -7
-189 -2 -189 -2 7 7 7 7 117 4 116 3 5 5 5 4 25 -4 26 -4 90 -3z m467 -81
l-13 -13 -252 -1 -252 -2 213 8 213 8 6 6 6 6 46 0 45 0 -12 -12z m-162 -40
l55 2 46 6 47 6 7 -12 7 -12 -8 -8 -9 -8 -100 -5 -100 -4 -60 9 -60 10 -160 3
-160 2 -132 2 -133 1 0 11 0 12 353 -8 352 -8 55 1z m-726 -37 l6 -9 -20 5
-20 5 0 4 0 4 14 0 15 0 5 -9z m507 -7 l164 -16 107 6 107 5 5 -7 5 -8 -9 -14
-8 -13 -149 7 -148 7 -50 5 -50 6 -110 13 -110 12 -100 -4 -100 -4 -25 10 -25
10 166 0 165 1 165 -16z m-286 -24 l20 -9 -30 1 -30 0 -25 8 -25 8 35 0 35 1
20 -9z m-45 -21 l115 -11 115 -19 115 -20 190 -5 190 -5 3 -13 3 -13 -36 -6
-37 -6 -101 9 -102 9 -140 20 -140 20 -50 6 -50 5 -100 10 -100 10 -30 5 -30
5 -29 5 -28 4 -6 6 -6 6 70 -6 69 -6 115 -10z m325 0 l190 -20 103 0 102 -1
-6 -10 -7 -10 -196 8 -196 8 -32 0 -33 -1 0 9 0 8 -27 1 -28 0 -65 14 -65 13
35 1 35 1 190 -21z m-450 -23 l110 -15 165 -21 165 -21 84 -15 85 -15 128 -1
128 -1 0 -10 0 -10 -147 7 -146 6 -143 25 -144 25 -122 9 -123 10 -92 17 -93
17 0 9 0 9 18 -4 17 -5 110 -16z m-15 -31 l75 -14 50 -1 50 -1 40 -9 40 -8
-95 5 -95 4 -65 9 -65 10 -37 10 -38 11 0 6 0 6 33 -8 32 -7 75 -13z m460 -60
l55 -14 -35 4 -35 4 -87 12 -88 13 0 6 0 7 68 -9 67 -9 55 -14z m445 -35 l10
-1 -17 -9 -17 -10 -132 10 -132 10 -5 4 -4 5 143 -4 144 -3 10 -2z"/>
<path d="M773 3298 l-21 -23 -26 -42 -26 -42 -10 -47 -11 -47 5 -4 4 -4 17 51
17 52 43 64 43 64 -7 0 -8 0 -20 -22z"/>
<path d="M2188 3107 l-58 -28 -80 -82 -80 -82 5 -13 5 -13 -9 5 -9 6 -20 -34
-20 -34 -7 -21 -6 -21 9 0 9 0 19 36 19 36 90 79 90 78 55 11 55 11 28 9 29
10 41 -22 42 -21 25 -19 25 -20 12 29 12 28 1 27 0 27 -26 20 -27 21 -25 0
-25 0 27 -25 27 -25 11 6 11 7 -7 -11 -6 -10 11 -4 11 -4 -7 -27 -8 -28 -26
23 -26 24 -28 12 -28 12 -30 0 -30 0 5 -8 5 -8 -31 4 -31 5 8 -13 8 -13 -10 6
-9 6 -44 -15 -43 -15 -21 -11 -21 -11 14 17 14 17 45 26 45 27 70 10 70 11 5
13 4 13 -54 -3 -53 -3 -57 -28z m-148 -161 l0 -4 -17 -13 -18 -14 14 18 13 17
4 0 4 0 0 -4z"/>
<path d="M1960 3073 l-64 -24 -27 -3 -27 -3 -33 -25 -34 -26 -22 -6 -22 -7
-53 -50 -53 -51 -73 -50 -74 -50 -3 4 -4 4 56 62 55 63 39 20 39 19 0 10 0 9
-32 -11 -33 -11 -28 -26 -29 -26 -55 -67 -55 -67 8 -12 7 -12 -10 6 -11 7 -24
-33 -24 -32 -36 -60 -36 -60 -84 -80 -84 -80 -57 -48 -57 -48 0 -9 0 -9 68 50
67 51 49 46 48 47 57 72 56 71 23 39 24 38 71 50 72 50 15 5 15 5 32 24 32 24
-6 10 -6 10 11 -7 11 -6 37 40 38 41 65 35 66 34 63 16 64 16 56 24 57 23 -40
-1 -40 0 -65 -25z"/>
<path d="M284 2827 l-32 -42 -41 -89 -42 -90 6 -13 5 -14 -12 7 -11 7 5 -26 5
-26 -7 4 -8 5 -7 -58 -6 -57 -1 -98 -1 -98 9 -9 10 -10 2 83 2 82 17 95 16 95
1 22 1 21 4 -4 5 -4 12 32 12 33 21 55 21 55 31 42 30 43 -8 0 -8 -1 -31 -42z"/>
<path d="M2065 2561 l-50 -8 -63 -26 -63 -25 -33 -23 -33 -22 -22 -33 -23 -33
8 -12 7 -12 -10 6 -11 7 -6 -16 -6 -16 5 -9 6 -9 22 21 22 21 40 23 40 23 59
17 59 17 41 -12 41 -13 40 -13 40 -13 71 -17 72 -18 41 13 42 12 9 25 10 25 0
29 0 29 -54 30 -53 31 -99 4 -99 5 -50 -8z m270 -41 l50 -25 6 2 5 2 2 -39 3
-38 -16 -16 -16 -16 -44 0 -44 0 -58 15 -58 15 -63 27 -62 26 -58 -12 -57 -13
-57 -28 -58 -28 0 8 0 9 30 31 31 31 62 31 62 31 65 8 65 7 80 -2 81 -2 49
-24z"/>
<path d="M2008 2381 l-27 -9 -80 -57 -80 -56 -6 -9 -6 -10 6 0 5 0 38 25 37
24 40 28 40 29 35 16 35 17 45 -6 45 -6 36 -18 37 -18 32 -35 33 -34 20 -6 19
-5 24 26 24 26 0 16 0 16 -20 -25 -20 -25 0 -7 0 -8 -10 0 -10 0 -41 40 -41
39 -31 17 -32 16 -60 4 -60 3 -27 -8z"/>
<path d="M1987 2299 l-38 -9 -27 -14 -27 -14 -39 -40 -38 -40 124 -1 124 -1
65 20 64 21 24 -3 24 -3 4 12 5 13 -29 11 -28 11 -52 24 -52 24 -33 -1 -33 -1
-38 -9z m124 -30 l40 -20 -4 -12 -4 -12 -49 -13 -49 -13 -27 10 -28 11 0 24 0
25 18 10 17 10 23 1 23 0 40 -21z m-141 -22 l0 -34 -4 -4 -5 -5 -40 4 -41 4 0
9 0 8 37 26 38 25 7 0 8 0 0 -33z m230 -13 l0 -4 -21 0 -20 0 6 10 6 9 14 -6
15 -5 0 -4z"/>
<path d="M2274 2114 l-27 -55 -24 -17 -24 -17 -50 -38 -51 -39 5 -5 5 -4 74
54 73 54 11 14 12 14 7 25 7 25 21 23 20 22 -16 0 -16 0 -27 -56z"/>
<path d="M427 2088 l-64 -65 -30 -44 -30 -44 -27 -53 -27 -54 4 -5 5 -4 33 58
32 58 36 45 35 45 55 58 54 57 -6 7 -7 6 -63 -65z"/>
<path d="M2092 2017 l-22 -23 0 -7 0 -7 8 0 8 0 22 30 23 30 -9 0 -9 0 -21
-23z"/>
<path d="M2462 1828 l-21 -23 -10 -28 -11 -28 0 -43 0 -42 20 -22 20 -21 0
-11 0 -10 30 0 30 0 0 10 0 10 -25 6 -25 6 -19 32 -20 31 10 47 11 48 24 19
24 19 0 11 0 11 -8 0 -9 0 -21 -22z"/>
<path d="M2615 1710 l-40 -32 2 -9 3 -8 -15 5 -15 6 0 -16 0 -17 15 -5 15 -6
40 21 41 21 37 0 37 0 13 8 12 8 -23 22 -23 22 -30 6 -29 6 -40 -32z m91 -5
l19 -14 -42 -1 -42 0 -6 -10 -6 -10 -17 0 -17 1 28 24 28 25 18 0 17 0 20 -15z"/>
<path d="M2835 1696 l-26 -45 -43 -16 -43 -17 -18 4 -18 3 -4 -12 -4 -11 36 3
36 4 28 6 28 6 14 25 13 25 17 -4 16 -4 16 8 16 9 -11 30 -10 30 -9 0 -8 0
-26 -44z m40 4 l6 -10 -16 0 -16 0 6 10 6 10 4 0 4 0 6 -10z"/>
<path d="M882 1437 l-11 -13 -6 -69 -6 -68 11 -32 11 -33 14 -6 14 -5 28 11
28 11 -1 84 -2 84 -23 25 -22 24 -13 0 -12 0 -10 -13z m54 -110 l-1 -82 -22
-3 -23 -3 -1 13 -1 13 2 60 2 59 9 24 9 24 14 -11 14 -12 -2 -82z"/>
<path d="M2655 1051 l-19 -8 -16 -29 -16 -29 -27 -13 -27 -13 0 -9 0 -9 38 5
37 6 29 9 29 9 28 0 27 0 44 19 43 19 24 26 24 26 -99 -1 -99 0 -20 -8z m155
-11 l15 -9 -20 -15 -20 -15 -33 -1 -33 0 -45 -11 -45 -12 -6 7 -7 7 21 21 21
21 64 7 63 7 5 1 5 2 15 -10z"/>
</g>
</svg>
