<?xml version="1.0" standalone="no"?>
<!DOCTYPE svg PUBLIC "-//W3C//DTD SVG 20010904//EN"
 "http://www.w3.org/TR/2001/REC-SVG-20010904/DTD/svg10.dtd">
<svg version="1.0" xmlns="http://www.w3.org/2000/svg"
   viewBox="0 0 301.000000 315.000000"
 preserveAspectRatio="xMidYMid meet">
<metadata>
Created by potrace 1.16, written by Peter Selinger 2001-2019
</metadata>
<g transform="translate(0.000000,315.000000) scale(0.100000,-0.100000)"
fill="#000000" stroke="none">
<path d="M1215 3140 l-60 -8 -85 -22 -84 -21 -75 -26 -75 -26 -85 -45 -86 -46
-58 -43 -57 -44 6 -12 7 -12 -8 7 -8 8 -13 -11 -14 -11 6 -9 5 -9 -9 2 -10 3
-34 -45 -35 -45 -41 -68 -42 -69 7 -11 6 -12 -8 8 -8 7 -29 -42 -28 -43 5 -13
5 -13 -8 5 -8 5 -18 -30 -17 -29 6 -10 6 -10 -13 2 -13 3 1 -22 0 -22 -7 4 -7
5 -6 -16 -6 -16 7 -10 6 -11 -11 7 -10 6 -17 -51 -17 -50 5 -20 5 -19 -9 6 -9
5 0 -51 0 -51 10 6 10 6 -6 -15 -5 -14 11 -39 12 -38 7 -37 8 -37 -8 5 -9 5 0
-14 0 -14 -40 -57 -40 -57 0 -8 0 -7 -49 -51 -49 -51 -12 -22 -12 -22 7 -35 6
-34 36 -21 35 -21 -6 -31 -6 -30 -27 -28 -26 -27 6 -38 6 -37 22 -30 22 -29
-17 -46 -16 -47 6 -32 7 -32 27 -20 28 -20 4 -34 4 -35 -7 5 -7 4 -7 -39 -6
-39 10 -39 11 -40 30 -26 30 -27 0 6 0 5 15 -15 16 -15 42 -12 42 -12 65 0 65
1 90 17 90 17 92 7 92 6 -3 -2 -3 -3 35 -38 36 -37 9 3 8 2 -5 -9 -6 -10 33
-60 34 -61 7 7 7 7 -7 -18 -7 -19 13 8 13 8 -6 -10 -6 -9 13 -37 12 -37 5 5 5
4 -8 -76 -8 -76 4 -4 4 -5 20 6 20 7 6 42 6 42 -16 55 -16 55 -30 65 -29 65
-32 50 -32 50 -25 23 -25 23 -30 14 -30 13 -95 -14 -95 -13 -80 -16 -80 -15
-66 0 -66 0 -54 29 -53 28 -18 34 -18 35 12 55 11 55 -7 27 -6 27 -30 30 -30
31 0 33 0 34 28 29 27 30 -3 16 -3 17 -9 0 -8 0 -4 -12 -5 -13 -17 26 -17 27
-9 32 -9 32 37 -7 37 -6 58 -57 57 -57 -9 -3 -9 -3 -37 15 -37 16 -4 0 -4 0
12 -19 11 -19 55 -5 55 -6 10 -10 11 -11 86 1 85 1 25 8 25 9 -100 -6 -100 -6
-11 14 -11 14 -6 45 -6 45 132 -2 132 -1 102 5 102 6 -5 8 -5 9 108 1 108 2
27 1 27 2 8 8 8 8 -120 -6 -120 -5 -97 0 -97 -1 5 -15 6 -15 -14 0 -15 0 -7 7
-8 8 -146 0 -147 0 -3 43 -3 42 18 0 18 1 24 13 24 14 35 -15 35 -14 25 6 25
6 378 -1 378 0 6 10 6 10 -257 0 -257 0 4 4 4 4 195 7 195 8 20 7 20 7 29 -8
29 -9 13 10 12 11 7 -18 8 -18 -1 -30 0 -30 -1 -38 -1 -39 -40 6 -40 5 0 -12
0 -12 -9 13 -8 13 -59 -5 -59 -5 -80 -1 -80 -2 25 -7 25 -8 -96 -7 -95 -8
-102 4 -102 4 0 -8 0 -8 18 -2 17 -2 -120 -6 -120 -7 273 1 272 1 -4 11 -4 11
111 6 112 7 83 0 83 0 -6 -57 -7 -58 -9 -9 -9 -10 0 -17 0 -17 -77 -6 -78 -7
-40 -5 -40 -5 15 10 15 11 19 0 19 0 -5 6 -6 6 -74 -11 -73 -10 -100 -6 -100
-5 -78 -6 -77 -6 0 -9 0 -9 -15 0 -15 0 0 10 0 10 -84 -2 -84 -3 5 -7 4 -8 17
-1 17 0 -20 -9 -20 -9 55 1 55 1 -35 7 -35 7 25 3 25 2 22 2 21 3 -4 -11 -4
-11 42 2 43 2 25 -7 25 -7 -95 -6 -95 -6 180 3 180 4 85 10 85 11 128 21 128
20 7 -6 6 -7 -13 -8 -13 -9 11 -3 11 -4 -10 -37 -11 -37 -17 -4 -17 -5 18 -1
17 -1 0 -10 0 -10 -19 0 -19 0 -4 11 -3 10 -23 -19 -22 -20 -108 -15 -107 -16
-110 -10 -110 -10 -170 -7 -170 -6 -10 -10 -10 -10 20 5 20 5 190 7 190 7 17
3 18 4 0 -10 0 -9 -47 -1 -48 -1 -20 -4 -20 -4 -177 -7 -178 -6 0 -9 0 -10
147 7 148 7 185 19 185 19 135 29 134 28 14 64 13 64 16 60 16 60 15 63 16 62
6 0 5 0 22 -48 22 -49 35 -18 34 -19 42 19 41 18 31 36 31 35 -7 -28 -7 -28
-37 -61 -38 -62 -16 -45 -17 -45 -11 -59 -12 -59 6 -60 7 -61 20 -55 20 -56
13 -66 13 -67 27 -55 26 -55 33 -24 32 -24 30 -11 30 -11 26 -6 27 -6 52 -35
51 -35 37 -9 37 -9 90 -13 90 -13 84 -33 85 -33 3 4 4 3 -68 41 -68 40 -30 32
-30 32 -51 23 -52 23 -33 7 -34 8 -50 22 -50 22 -26 29 -27 29 -41 70 -42 69
-25 85 -24 85 -11 65 -11 66 15 65 15 65 16 63 16 64 9 91 8 92 -3 56 -4 55
-21 70 -21 69 -25 44 -26 45 -46 59 -46 59 -23 31 -24 32 -17 40 -18 40 -7 38
-7 39 10 -7 11 -6 0 -12 0 -12 26 -55 26 -55 4 11 4 10 -27 70 -27 69 -6 220
-7 220 -31 77 -31 77 -25 39 -25 40 -27 21 -27 21 15 0 15 0 34 -23 34 -23 29
-54 30 -54 3 11 4 12 -20 40 -21 40 -35 28 -35 28 0 8 0 8 29 -15 28 -15 40
-48 40 -48 52 -106 52 -107 18 -89 19 -90 12 -126 13 -127 6 4 6 4 2 -54 2
-54 27 -52 27 -53 40 -59 40 -60 29 -88 28 -88 0 -16 0 -15 9 5 8 5 -8 -42 -9
-42 -11 -85 -11 -85 6 -73 6 -73 25 -75 25 -75 30 -58 29 -58 56 -69 56 -69
69 -90 68 -90 6 -22 7 -21 -10 -6 -9 -6 -25 43 -25 42 -111 118 -110 117 -26
44 -26 44 -31 89 -31 88 -8 222 -8 221 -29 74 -29 73 -49 71 -49 70 -47 54
-48 55 0 -11 0 -11 38 -44 37 -44 41 -55 41 -56 21 -39 20 -40 16 -55 17 -55
6 -110 5 -110 -11 -205 -11 -205 10 -59 9 -58 23 -47 22 -46 58 -61 59 -61 97
-48 97 -48 33 -24 32 -24 10 6 10 6 -2 -13 -3 -13 13 3 12 2 -2 -7 -3 -8 43
-62 43 -63 31 -16 31 -16 79 -19 79 -19 24 0 24 0 5 -9 6 -9 105 -56 104 -56
14 0 14 0 18 -20 18 -20 10 7 10 6 -7 -11 -6 -11 9 -5 10 -6 6 20 6 20 8 0 8
0 45 58 46 57 20 45 21 45 11 59 12 59 -7 55 -7 56 -19 35 -19 36 0 11 0 12
-12 23 -13 24 -24 35 -24 35 -30 32 -30 32 18 76 18 76 -11 82 -11 82 -19 60
-20 60 -13 28 -12 27 -9 0 -8 0 0 13 0 12 -75 150 -75 150 -15 70 -15 70 1 80
0 80 9 70 9 70 11 85 11 85 -15 70 -15 70 -24 45 -25 45 -7 25 -8 25 -36 46
-36 47 -15 22 -15 23 -26 31 -26 31 -86 130 -85 130 -84 86 -83 87 -35 17 -35
17 -70 6 -70 7 -45 -6 -45 -7 -84 14 -84 14 -146 -1 -146 -2 -60 -7z m348 -22
l-4 -8 48 0 48 0 37 -6 36 -6 5 -19 5 -19 -7 4 -7 5 -39 -18 -40 -18 -29 -32
-30 -31 -19 0 -19 0 -29 -17 -29 -17 -5 -17 -6 -17 -42 -6 -42 -6 -64 -5 -64
-4 -11 -11 -11 -11 77 3 76 3 -4 -6 -4 -7 16 -6 16 -6 10 7 11 6 -7 -11 -6
-11 18 -13 19 -13 25 -40 26 -40 7 -32 7 -33 9 -5 9 -6 0 23 1 23 25 -47 24
-48 30 -82 29 -83 11 -60 11 -60 9 -175 8 -176 22 -94 22 -95 10 -19 10 -18
24 -67 24 -66 0 -22 0 -22 -9 -6 -10 -5 -11 57 -12 58 -19 51 -19 50 -45 64
-44 63 -15 46 -15 46 -10 65 -10 65 -11 95 -10 95 -16 80 -15 80 -11 30 -10
30 -11 25 -11 25 -47 85 -48 85 -37 37 -37 37 -50 17 -50 17 -9 -17 -9 -16
-25 6 -26 7 -39 -13 -39 -13 0 -8 0 -8 -31 -35 -31 -36 4 -9 3 -10 36 33 36
33 6 15 5 15 29 6 28 5 32 -14 31 -15 43 -61 42 -61 29 -81 28 -81 -1 -85 0
-85 -8 -20 -8 -20 -21 48 -22 49 -29 37 -30 38 -61 32 -62 33 -33 29 -34 30
-17 44 -17 45 -18 0 -17 0 -13 -37 -12 -36 6 -62 6 -61 22 -59 22 -59 46 -46
46 -46 52 -31 51 -32 6 5 6 4 -5 -6 -4 -6 23 -32 24 -31 26 -52 26 -52 0 -30
0 -29 -6 -16 -6 -16 -9 0 -9 0 -1 28 0 27 -10 20 -9 20 5 -40 5 -40 0 -35 1
-35 23 26 23 27 7 42 7 42 -32 69 -32 69 -13 11 -14 11 0 10 0 9 31 -18 30
-18 18 -20 19 -20 6 -58 6 -57 20 -40 20 -39 0 -15 0 -15 25 -38 26 -37 -3
-25 -3 -24 -18 -11 -18 -11 -25 28 -24 28 0 22 0 21 -11 -11 -11 -11 17 -36
18 -37 19 -14 20 -13 17 6 16 6 12 15 13 16 -5 23 -5 22 8 0 8 0 37 -55 37
-55 0 -28 0 -27 14 -66 14 -66 -8 -49 -8 -49 -18 -45 -18 -45 -14 -23 -15 -23
-29 -15 -30 -15 -29 -1 -29 -1 -19 17 -19 17 -23 52 -22 52 12 70 12 70 25 48
25 49 -3 16 -3 15 -28 -54 -27 -55 -11 -59 -11 -60 -10 -52 -11 -53 -6 0 -6 0
3 191 4 191 -6 23 -6 22 -97 7 -97 8 -251 -1 -250 -1 -125 -15 -125 -15 -9 0
-8 0 4 -25 5 -24 -7 4 -8 5 -5 -38 -4 -37 -23 -100 -23 -100 17 -68 18 -68 -6
-7 -7 -6 -60 62 -59 63 -30 6 -30 5 0 9 0 8 21 36 21 35 -6 23 -6 22 -33 20
-32 20 -3 34 -4 34 34 31 34 31 33 42 32 43 -7 11 -7 12 11 -7 11 -6 35 63 36
64 0 37 0 38 -16 56 -17 56 6 66 6 66 40 85 40 84 68 115 68 116 42 58 43 59
-7 10 -6 10 11 -7 11 -6 13 18 13 18 50 41 50 41 60 33 60 33 46 23 46 22 91
31 90 30 22 0 21 0 -6 10 -6 10 15 -6 14 -5 91 15 91 16 36 0 35 0 -4 8 -5 7
108 0 108 0 -5 -7z m389 -40 l56 -26 13 12 13 11 -12 -17 -13 -16 22 -16 22
-15 9 5 8 5 -2 -12 -3 -13 12 -1 11 0 9 -9 8 -9 -12 7 -13 7 0 -10 0 -11 13
-1 12 -1 8 1 8 1 -6 -10 -7 -11 12 -14 12 -15 11 7 10 6 -6 -10 -7 -10 21 -19
21 -19 7 5 6 5 0 -15 0 -15 8 -23 8 -22 11 6 11 7 -7 -11 -7 -11 38 -53 38
-53 17 -19 18 -20 0 -8 0 -9 10 6 10 6 -2 -8 -3 -8 16 -22 16 -23 7 7 7 7 -6
-14 -5 -15 41 -55 41 -55 28 -47 27 -48 4 5 5 4 1 -17 1 -17 21 -59 22 -59 -3
-88 -3 -87 6 3 6 4 0 -14 0 -14 -9 6 -10 5 2 -43 3 -44 -8 -17 -7 -18 4 -39 3
-39 -7 4 -8 5 0 -8 0 -9 13 -13 12 -14 -12 7 -13 7 0 -30 0 -31 13 0 12 0 -15
-10 -14 -9 12 -72 12 -72 7 -11 7 -11 3 -16 2 -15 19 -42 19 -42 5 6 6 5 -1
-18 -2 -18 13 3 13 2 -5 -9 -6 -10 11 -25 12 -25 10 6 10 6 -7 -11 -6 -11 11
-25 12 -25 11 6 11 6 -7 -8 -7 -7 30 -54 31 -53 -4 -18 -3 -18 -43 60 -42 60
-47 70 -46 70 -15 35 -14 35 -18 40 -18 40 -11 60 -10 60 -11 150 -11 150 -24
105 -24 105 -40 118 -40 117 -43 83 -42 82 -121 121 -120 120 -50 34 -50 34
-5 6 -5 6 -35 16 -35 16 -48 16 -48 16 -34 0 -35 0 0 -10 0 -10 28 -6 27 -7
46 -23 46 -23 42 -47 41 -47 0 -8 0 -9 10 0 10 0 -19 38 -19 37 -24 21 -23 22
-45 22 -45 23 12 4 12 4 63 -30 63 -31 85 -71 85 -71 69 -66 68 -65 33 -51 32
-51 30 -60 30 -60 37 -112 36 -112 25 -103 24 -103 11 -150 11 -150 14 -60 14
-60 30 -72 31 -73 28 -47 29 -48 60 -81 61 -81 20 -31 19 -32 4 4 4 4 2 -25 1
-26 14 -26 13 -26 6 -5 5 -5 -11 -81 -12 -82 -7 -26 -6 -26 -13 0 -13 0 -22
20 -21 20 -6 0 -5 0 -18 17 -18 18 -38 30 -39 30 -44 39 -45 40 -28 42 -29 41
-31 78 -31 78 -10 51 -11 51 1 160 1 160 -11 75 -11 75 -21 45 -20 45 -73 111
-72 110 -16 33 -17 32 -40 117 -41 117 -40 89 -40 90 -53 70 -53 71 -65 63
-66 63 -58 27 -58 27 -64 -1 -65 -1 40 20 39 20 60 -12 59 -13 28 -14 28 -15
47 -44 46 -45 5 5 5 5 -39 44 -39 44 -47 21 -47 21 -20 0 -20 0 -7 12 -7 11
36 34 37 33 47 0 48 1 -19 14 -19 14 17 7 16 6 32 -13 32 -13 32 -28 32 -29 7
10 6 10 -42 30 -41 31 -34 6 -34 6 6 10 7 10 56 -4 56 -4 57 -26z m-282 -209
l55 -27 66 -69 66 -68 36 -46 37 -46 44 -86 44 -86 42 -133 43 -133 16 -30 16
-30 70 -105 70 -105 22 -48 22 -48 12 -42 11 -42 2 -210 3 -210 12 -40 13 -40
31 -80 31 -80 43 -57 43 -57 99 -78 98 -78 39 -30 39 -30 8 3 8 2 -5 -8 -5 -9
28 -27 27 -26 7 5 7 5 -5 -6 -4 -7 27 -41 28 -41 11 -25 11 -25 16 -49 16 -50
0 -21 0 -21 13 -13 12 -14 -11 6 -11 6 -2 -50 -1 -49 -21 -54 -20 -54 -20 -26
-20 -26 -9 0 -9 0 26 68 26 67 0 80 -1 80 -20 52 -20 51 -42 64 -43 63 -56 49
-56 48 -93 58 -94 57 -38 47 -38 46 -23 68 -22 67 -24 60 -25 60 -30 64 -30
64 -43 126 -43 126 -34 75 -34 75 -22 40 -23 40 -32 40 -32 41 -17 24 -17 25
0 -11 -1 -10 33 -49 32 -48 29 -46 29 -46 40 -95 40 -95 34 -104 34 -104 0
-101 1 -101 -17 -55 -16 -55 -15 -54 -15 -53 5 -15 6 -14 -8 5 -9 5 -12 -65
-12 -65 6 -12 7 -12 -20 22 -20 22 -23 83 -23 83 2 222 3 222 -20 134 -20 135
-31 97 -32 97 -4 -5 -5 -5 25 -88 25 -89 17 -115 17 -115 0 -115 1 -115 -3
-130 -4 -130 27 -80 27 -80 20 -21 19 -20 0 -32 0 -32 -10 0 -10 0 0 8 0 7
-45 55 -45 55 -26 55 -26 55 -28 75 -28 75 -18 129 -18 129 13 116 12 116 20
87 19 87 2 106 1 106 8 5 7 4 -3 183 -4 182 -25 85 -24 85 -20 51 -21 52 -35
53 -34 54 -51 53 -50 54 -10 -4 -10 -3 50 -55 51 -55 29 -42 29 -42 21 -48 20
-47 30 -100 30 -101 0 -151 1 -152 -12 -58 -12 -59 -8 -10 -8 -10 -10 -35 -11
-35 -30 -83 -29 -84 -6 -5 -5 -5 -6 28 -6 29 -19 55 -19 55 -16 65 -16 65 -9
185 -9 185 -15 76 -15 76 -30 83 -31 83 -31 56 -32 56 -48 62 -49 63 0 6 0 7
-17 13 -18 13 64 1 63 0 38 -30 38 -30 6 0 6 0 0 10 0 10 -35 22 -35 23 0 8 0
8 23 -7 22 -7 55 -28z m-646 -241 l5 -33 5 -64 6 -64 19 -31 20 -31 23 -21 23
-21 70 -38 70 -38 34 -31 34 -31 -12 22 -11 22 0 26 0 25 -24 39 -24 38 -39
30 -38 30 -62 32 -62 31 -11 19 -10 20 0 6 0 7 40 -32 40 -32 48 -23 47 -23
32 -32 33 -32 34 -65 35 -65 0 -54 0 -54 -6 0 -5 0 -37 28 -36 29 -45 17 -45
18 -35 25 -35 26 -29 31 -28 31 -20 39 -20 39 -9 66 -10 65 7 43 6 43 9 0 8 0
5 -32z m121 -173 l50 -28 38 -36 39 -36 15 -28 14 -29 -4 -4 -4 -4 -66 40 -67
40 -9 0 -9 0 -33 32 -32 32 -12 31 -13 30 5 8 5 8 16 -14 17 -14 50 -28z m791
-652 l-7 -68 -15 -65 -16 -65 -13 -95 -14 -95 -1 -65 0 -65 19 -115 20 -115
26 -69 26 -69 29 -58 29 -59 60 -69 60 -70 -6 -38 -6 -38 -2 -3 -2 -2 -44 67
-43 68 -73 87 -72 87 -31 67 -31 67 -22 66 -22 66 1 115 1 115 31 136 30 136
39 107 38 106 9 0 8 0 -6 -67z m-965 -53 l-83 -7 -117 3 -116 4 -65 -10 -65
-10 -98 -3 -97 -3 14 8 13 8 109 8 109 9 240 0 240 0 -84 -7z m169 0 l0 -10
-24 0 -25 0 -6 10 -6 10 30 0 31 0 0 -10z m95 -62 l2 -38 -29 0 -28 0 0 5 0 6
23 9 22 9 -125 2 -125 3 -150 0 -150 0 -190 -7 -190 -8 10 9 10 9 140 11 140
11 315 -3 315 -3 -170 7 -170 7 -5 3 -5 3 65 6 65 6 114 -5 115 -5 1 -37z
m-475 32 l-45 -7 -50 4 -50 5 -4 4 -4 4 99 -1 99 -2 -45 -7z m103 3 l-13 -5
-12 5 -13 5 25 0 25 0 -12 -5z m-453 -13 l0 -10 -16 0 -15 0 6 10 6 10 10 0 9
0 0 -10z m525 -44 l20 -3 -110 0 -110 0 40 6 40 6 50 -3 50 -3 20 -3z m-410
-6 l-6 -10 -22 0 -22 0 15 10 15 10 13 0 13 0 -6 -10z m102 4 l-6 -6 -13 5
-13 5 19 1 19 1 -6 -6z m46 -1 l-13 -5 -12 5 -13 5 25 0 25 0 -12 -5z m320 0
l-13 -5 -12 5 -13 5 25 0 25 0 -12 -5z m107 3 l0 -4 -24 -4 -25 -5 -13 8 -13
9 38 0 37 0 0 -4z m54 -4 l5 -8 -25 -2 -25 -2 6 10 6 10 14 0 14 0 5 -8z
m-686 -7 l-5 -6 -83 -6 -83 -6 7 12 7 11 81 0 81 0 -5 -5z m1128 -22 l6 -28
13 -37 14 -36 7 -49 6 -49 -16 -63 -16 -63 -30 -67 -29 -67 -10 -65 -11 -64 9
-30 8 -30 5 80 5 80 37 90 36 90 -6 -60 -6 -60 -24 -84 -25 -84 -11 -80 -10
-80 11 -104 12 -104 6 -14 5 -15 -14 0 -13 0 -28 25 -27 26 -19 37 -19 37 -12
44 -11 43 0 72 -1 71 12 50 11 50 50 99 49 98 6 42 6 41 15 73 15 73 -16 64
-16 64 0 6 0 5 10 0 10 0 6 -27z m-453 8 l97 -1 0 -19 0 -20 -312 0 -313 0
-167 -7 -168 -7 0 17 0 17 12 4 13 3 115 7 115 6 2 2 2 3 253 -2 253 -2 98 -1z
m-528 -61 l6 -10 -48 1 -48 2 40 7 40 7 2 2 2 1 6 -10z m620 0 l6 -10 -248 0
-248 1 14 9 14 8 228 1 227 2 7 -11z m-795 -10 l-25 -8 -67 -1 -68 -1 0 10 0
10 93 -1 92 -1 -25 -8z m284 2 l5 -8 -37 4 -37 3 -10 4 -10 3 42 1 42 1 5 -8z
m-64 -23 l-45 -8 -118 -7 -119 -6 9 -8 8 -8 65 8 65 8 155 5 155 5 45 -8 45
-7 -40 -2 -40 -2 -105 -4 -105 -4 -152 -6 -153 -5 -30 -6 -30 -6 0 11 0 11 18
1 17 1 -17 5 -18 4 0 14 0 14 88 4 87 3 130 1 130 1 -45 -9z m338 -1 l-56 -9
-104 9 -103 9 160 0 160 1 -57 -10z m232 3 l0 -9 -15 -6 -15 -5 -12 4 -13 5
-48 4 -48 4 -6 6 -6 6 81 0 82 0 0 -9z m-160 -21 l0 -10 -4 0 -5 0 -6 10 -6
10 10 0 11 0 0 -10z m-556 -42 l-5 -8 -67 1 -67 2 35 6 35 6 37 1 37 0 -5 -8z
m41 2 l6 -10 -15 0 -16 0 0 10 0 10 9 0 10 0 6 -10z m142 -116 l-6 -6 -13 5
-13 5 19 1 19 1 -6 -6z m1606 -161 l22 -48 -1 -140 0 -140 -6 -146 -6 -145 14
-88 14 -87 29 -58 30 -58 35 -46 36 -47 0 -4 0 -4 -91 28 -91 29 -24 21 -23
22 -35 67 -34 66 -11 62 -12 61 11 94 12 93 20 95 20 95 24 86 25 86 4 74 4
74 0 3 1 2 6 0 5 0 22 -47z m-1613 -82 l0 -9 -52 -4 -53 -4 -20 5 -20 6 45 5
45 5 28 3 27 2 0 -9z m47 3 l-6 -6 -13 5 -13 5 19 1 19 1 -6 -6z m253 2 l0 -4
-77 -10 -78 -11 -70 -7 -70 -6 7 7 7 8 98 12 98 13 43 1 42 1 0 -4z m-312 -33
l-18 -4 -17 4 -18 5 35 0 35 0 -17 -5z m1701 -84 l21 -91 0 -122 0 -122 21
-85 22 -84 23 -53 23 -53 47 -69 46 -69 35 -36 34 -35 12 6 12 7 -7 -8 -7 -7
34 -46 35 -45 0 -14 0 -13 -37 24 -38 25 -81 45 -81 46 -36 39 -36 40 -31 60
-30 60 -10 73 -11 72 3 156 2 155 0 118 1 117 7 0 6 0 21 -91z m-551 -191 l32
-46 86 -89 85 -88 46 -63 45 -62 8 5 8 5 -5 -20 -5 -20 -9 0 -8 0 -18 27 -18
28 -111 112 -112 112 -28 36 -27 36 -34 82 -34 82 7 -35 6 -35 20 -49 19 -49
21 -31 20 -31 121 -118 120 -118 -7 -6 -6 -6 -76 38 -76 39 -25 19 -24 20 -49
58 -48 58 -16 55 -16 54 0 99 0 100 7 7 7 6 31 -83 31 -83 32 -46z m-1010 105
l-18 -4 -22 4 -23 4 40 0 40 1 -17 -5z m1650 -62 l21 -29 68 -44 68 -45 48
-27 48 -28 -5 -15 -6 -15 -7 -26 -6 -27 -14 -22 -15 -22 8 -12 7 -12 -10 6
-11 7 -10 -28 -11 -27 -11 -38 -12 -38 4 -48 3 -49 -13 2 -13 2 -20 30 -19 29
-41 128 -40 128 -14 72 -15 72 -10 40 -10 40 0 13 0 12 8 0 8 0 22 -29z m-51
-13 l-5 -13 -1 19 -1 19 6 -6 6 -6 -5 -13z m27 -126 l17 -102 34 -104 34 -105
28 -43 27 -43 23 -30 23 -30 10 -12 10 -12 -9 -6 -9 -5 -18 17 -18 18 -41 65
-42 65 -22 42 -21 42 -25 96 -25 97 0 81 0 80 4 -4 3 -4 17 -103z m-774 -146
l45 -78 42 -37 42 -37 95 -32 96 -32 50 -31 50 -31 0 -10 0 -9 -17 5 -18 6
-98 14 -98 15 -44 22 -44 22 -36 29 -35 30 -29 41 -28 42 -25 70 -25 70 -6 90
-6 90 22 -85 23 -85 44 -79z m-154 73 l6 -11 30 -18 30 -18 23 -55 22 -56 33
-41 32 -41 -4 -5 -5 -4 -36 15 -36 15 -34 34 -34 34 -21 43 -21 44 -6 38 -7
37 10 0 11 0 7 -11z m1300 -97 l43 -62 12 -43 12 -42 6 -82 6 -83 -7 0 -8 0 0
-12 1 -13 -28 -82 -28 -83 -12 0 -12 0 -55 78 -55 77 -15 45 -15 45 -5 29 -5
29 10 51 10 51 25 53 24 53 -6 11 -7 11 10 -6 11 -7 6 26 7 25 16 -3 17 -3 42
-63z"/>
<path d="M1080 2629 l0 -8 28 -14 27 -14 25 -6 26 -6 37 -33 37 -33 31 -60 32
-60 -7 33 -6 33 -26 45 -26 45 -32 23 -31 23 -57 20 -58 21 0 -9z"/>
<path d="M947 2483 l-7 -6 0 -28 0 -28 11 -28 10 -28 66 -67 67 -67 -6 -6 -6
-6 12 -42 12 -42 -4 -64 -4 -63 -30 6 -30 6 11 -14 12 -14 25 -6 25 -7 34 17
35 16 0 14 0 13 -29 -17 -30 -17 -5 6 -6 6 11 59 11 59 -12 52 -11 52 -69 76
-69 75 -6 30 -6 30 6 20 6 20 -9 0 -9 0 -6 -7z"/>
<path d="M360 2361 l-44 -6 -13 -60 -12 -60 -1 -26 0 -27 16 -13 16 -13 -6 35
-6 34 8 55 7 55 47 7 48 8 34 -14 35 -15 6 -28 6 -28 10 -36 9 -37 15 -12 15
-13 7 7 6 6 -15 17 -16 18 -7 45 -7 45 -14 22 -14 22 -37 10 -38 11 -5 -2 -5
-1 -45 -6z"/>
<path d="M355 2227 l-18 -14 6 -10 6 -9 -14 -60 -14 -59 -1 -31 0 -32 14 -11
14 -12 6 -25 7 -25 -16 -15 -15 -15 0 -27 0 -27 -6 -37 -7 -38 17 0 16 0 0 39
0 39 6 16 6 16 29 0 29 0 0 11 0 12 -30 -6 -30 -6 0 13 0 13 68 12 67 13 20 3
20 3 5 2 5 2 27 -2 26 -1 6 9 5 9 -67 31 -67 30 -36 5 -37 5 -27 -14 -27 -14
-5 0 -5 0 6 38 6 37 6 64 6 63 37 -5 36 -5 35 -6 35 -6 -40 20 -40 19 -26 1
-25 0 -19 -13z m45 -243 l0 -34 -15 0 -15 0 0 33 0 34 6 6 7 6 8 -5 9 -5 0
-35z m114 19 l28 -15 -8 -8 -9 -8 -52 -7 -53 -7 0 37 0 37 33 -7 32 -7 29 -15z"/>
<path d="M1187 2090 l7 -45 -1 -32 0 -33 8 0 9 0 0 48 -1 47 -14 30 -15 30 7
-45z"/>
<path d="M1227 2004 l-16 -39 -18 -24 -18 -24 15 4 15 5 23 47 24 46 -4 12 -4
12 -17 -39z"/>
<path d="M1322 1892 l-14 -27 -4 -47 -5 -48 17 -25 16 -25 9 0 10 0 -16 30
-15 29 0 45 0 45 9 5 9 6 5 20 5 20 -6 0 -7 0 -13 -28z"/>
<path d="M156 1703 l-6 -6 0 -8 0 -8 29 1 28 1 12 -7 11 -7 0 -35 0 -35 -26
-26 -26 -26 -24 27 -25 26 -19 0 -20 0 0 -8 0 -9 18 -15 17 -15 23 -12 23 -12
19 6 19 6 21 33 20 33 0 26 0 25 -17 20 -18 20 -26 6 -26 6 -7 -7z m-16 -133
l0 -10 -4 0 -5 0 -6 10 -6 10 10 0 11 0 0 -10z"/>
<path d="M1407 1624 l-7 -7 6 -22 5 -22 -22 -42 -22 -43 -5 -49 -4 -48 6 -25
6 -26 25 -16 26 -17 18 18 19 17 4 71 4 72 7 16 8 16 -26 32 -27 31 -7 26 -6
25 -8 -7z m35 -175 l-4 -94 -14 -15 -14 -14 -16 16 -16 16 0 51 1 51 20 46 21
46 12 -5 13 -4 -3 -94z"/>
<path d="M2350 1837 l0 -13 12 -12 12 -12 8 0 8 0 -12 25 -11 25 -9 0 -8 0 0
-13z"/>
<path d="M1496 2841 l30 -18 32 -40 31 -39 12 -27 12 -26 8 5 9 5 -15 29 -15
30 -32 35 -31 36 -28 15 -28 14 -8 0 -8 0 31 -19z"/>
<path d="M313 1518 l-4 -8 30 0 31 0 0 8 0 7 -26 0 -26 0 -5 -7z"/>
<path d="M1097 1393 l33 -4 37 4 38 4 -70 0 -70 0 32 -4z"/>
<path d="M750 1360 l0 -10 15 0 15 0 0 4 0 4 -15 6 -15 5 0 -9z"/>
<path d="M808 1353 l22 -4 18 4 17 5 -40 -1 -40 0 23 -4z"/>
<path d="M385 1330 l-60 -7 92 1 93 1 0 8 0 7 -32 -2 -33 -1 -60 -7z"/>
<path d="M1120 1311 l0 -8 25 5 25 4 0 4 0 4 -25 0 -25 0 0 -9z"/>
<path d="M900 1303 l35 -4 7 -7 7 -7 -197 -1 -197 -2 -89 -2 -89 -3 -31 -8
-31 -8 117 4 117 3 6 -12 5 -11 6 13 6 12 86 -1 87 0 -20 -9 -20 -9 60 -2 60
-3 20 1 20 1 50 6 50 6 108 6 108 7 5 9 5 8 -61 0 -61 0 6 10 6 10 -40 0 -39
0 -6 -12 -6 -13 -6 13 -6 12 -56 -2 -57 -1 35 -4z m-27 -40 l-13 -5 -12 5 -13
5 25 0 25 0 -12 -5z"/>
<path d="M177 1216 l-38 -14 -20 -18 -19 -17 4 -4 4 -5 45 26 44 26 16 0 16 0
6 10 6 10 -13 0 -13 -1 -38 -13z"/>
<path d="M247 1208 l-6 -23 0 -108 -1 -108 -5 -9 -6 -10 11 -20 11 -20 11 0
10 0 -10 13 -10 12 5 57 5 57 72 -6 71 -6 4 -3 4 -4 -56 0 -56 0 -5 -9 -6 -9
27 3 28 3 165 6 165 6 80 5 80 6 52 5 52 6 -2 12 -2 11 30 2 30 3 -20 -10 -20
-10 25 4 25 5 58 6 58 7 12 13 12 12 15 7 15 6 -25 -5 -25 -6 -60 -9 -60 -8
-70 -6 -70 -6 -135 -9 -135 -10 -85 -2 -85 -2 -73 2 -74 1 -7 4 -7 5 -3 78 -2
77 -3 4 -4 3 -5 -23z m649 -148 l-29 -9 -109 -4 -109 -4 8 8 8 8 85 4 85 3 45
1 45 1 -29 -8z m-430 -17 l-7 -7 -14 -2 -15 -2 0 9 0 9 22 0 21 0 -7 -7z"/>
<path d="M1130 1190 l0 -9 15 5 15 6 0 4 0 4 -15 0 -15 0 0 -10z"/>
<path d="M1060 1181 l0 -9 20 5 20 5 0 4 0 4 -20 0 -20 0 0 -9z"/>
<path d="M290 1130 l0 -10 11 0 10 0 -6 10 -6 10 -5 0 -4 0 0 -10z"/>
<path d="M323 1083 l17 -5 13 5 12 5 -30 0 -30 0 18 -5z"/>
<path d="M1075 1040 l-20 -8 -175 -12 -175 -11 -40 -4 -40 -4 -90 -7 -90 -8
-7 -2 -8 -1 -77 -4 -78 -3 50 -4 50 -4 145 12 145 12 138 12 138 12 4 -6 4 -7
-87 -11 -87 -12 -210 -11 -210 -11 -30 -9 -30 -9 100 7 100 6 15 -1 15 0 145
9 145 9 85 15 85 14 47 6 48 6 7 13 8 13 15 6 15 5 -15 1 -15 0 -20 -9z"/>
</g>
</svg>
