<?xml version="1.0" standalone="no"?>
<!DOCTYPE svg PUBLIC "-//W3C//DTD SVG 20010904//EN"
 "http://www.w3.org/TR/2001/REC-SVG-20010904/DTD/svg10.dtd">
<svg version="1.0" xmlns="http://www.w3.org/2000/svg"
   viewBox="0 0 75.000000 77.000000"
 preserveAspectRatio="xMidYMid meet">
<metadata>
Created by potrace 1.16, written by Peter Selinger 2001-2019
</metadata>
<g transform="translate(0.000000,77.000000) scale(0.100000,-0.100000)"
fill="#000000" stroke="none">
<path d="M277 748 l-6 -23 -6 -57 -7 -58 21 0 21 0 0 58 0 57 6 23 6 22 -15 0
-15 0 -5 -22z"/>
<path d="M555 760 l-50 -7 -17 -7 -16 -8 -5 -12 -5 -12 19 -125 18 -124 1 -56
0 -56 -42 -8 -43 -8 -15 -3 -15 -4 -60 -6 -60 -6 -20 -8 -20 -8 -70 -7 -70 -7
-15 -2 -15 -2 -22 -8 -21 -7 -7 -61 -7 -60 19 -27 20 -26 23 -12 23 -12 131 5
131 4 106 0 105 -1 38 -9 38 -8 27 -26 27 -26 22 0 21 0 10 19 10 18 -9 184
-10 184 -11 64 -10 65 7 87 6 87 -41 26 -41 26 -17 -1 -18 -2 -50 -7z"/>
<path d="M2 545 l-2 -200 10 -15 9 -15 9 10 10 10 -9 70 -10 70 -8 135 -8 135
-1 -200z"/>
<path d="M287 563 l-6 -9 6 -77 6 -77 15 0 15 0 -7 77 -6 77 -9 9 -9 9 -5 -9z"/>
<path d="M565 31 l-30 -15 -70 2 -70 2 -98 3 -97 4 -11 -13 -10 -13 215 1 216
1 0 11 0 11 -8 10 -7 11 -30 -15z"/>
</g>
</svg>
