<?xml version="1.0" standalone="no"?>
<!DOCTYPE svg PUBLIC "-//W3C//DTD SVG 20010904//EN"
 "http://www.w3.org/TR/2001/REC-SVG-20010904/DTD/svg10.dtd">
<svg version="1.0" xmlns="http://www.w3.org/2000/svg"
   viewBox="0 0 150.000000 253.000000"
 preserveAspectRatio="xMidYMid meet">
<metadata>
Created by potrace 1.16, written by Peter Selinger 2001-2019
</metadata>
<g transform="translate(0.000000,253.000000) scale(0.100000,-0.100000)"
fill="#9E1A1A" stroke="none">
<path d="M507 2513 l-7 -6 0 -13 0 -13 -11 -28 -10 -28 -16 33 -15 32 -19 0
-18 0 -6 -10 -6 -9 38 -88 37 -88 14 -17 14 -16 19 -61 19 -62 9 -17 10 -18 9
-70 10 -69 -16 -30 -15 -30 -120 -119 -120 -119 -13 18 -14 19 0 12 0 12 -31
32 -32 31 -4 42 -5 42 21 19 21 19 0 72 0 71 -20 22 -21 22 -23 6 -24 6 -20
-11 -19 -10 -17 -50 -16 -50 0 -26 0 -26 16 -37 16 -37 9 -29 8 -28 -39 -92
-39 -91 -15 -55 -14 -55 -11 -28 -11 -28 1 -77 0 -77 13 -72 13 -73 31 -62 32
-63 15 -44 15 -44 33 -41 34 -41 29 -54 29 -55 27 -15 27 -16 12 -43 12 -43
-7 -82 -6 -82 -31 -135 -30 -135 -10 -31 -9 -30 0 -25 0 -26 23 -21 23 -22 8
0 7 0 36 -24 35 -24 13 4 13 5 12 29 12 29 -14 27 -13 28 -32 8 -32 8 -5 9 -5
8 9 32 9 32 32 182 31 182 -6 75 -5 75 -7 33 -7 32 27 0 27 0 20 -46 20 -47
15 -48 16 -49 9 5 8 5 25 -27 26 -28 1 -35 1 -35 -2 -60 -1 -60 -30 -89 -29
-89 0 -14 0 -14 19 -38 20 -38 29 -12 30 -13 21 14 21 13 0 35 0 35 -20 13
-20 12 0 15 0 15 -10 0 -10 0 5 23 5 22 5 30 5 30 11 63 11 64 -6 51 -7 50
-14 51 -13 51 -27 60 -27 60 -21 23 -20 22 -13 0 -13 0 -11 58 -11 57 -49 105
-49 105 -21 160 -20 160 -8 52 -8 52 50 10 51 9 75 11 75 11 26 6 26 6 0 -410
-1 -410 13 -16 13 -16 18 0 18 0 24 28 23 28 35 67 35 67 6 0 6 0 13 -24 13
-25 28 -11 29 -12 24 6 25 6 10 -37 11 -38 14 -21 14 -20 20 -80 19 -79 27
-55 26 -55 28 -44 28 -45 28 -7 28 -8 19 12 19 12 0 21 0 22 -69 86 -69 87
-31 112 -31 112 0 39 0 38 27 -7 27 -6 12 -17 13 -17 51 -97 51 -97 54 -48 54
-48 67 -34 66 -34 27 16 26 16 3 19 3 20 -45 46 -46 45 -38 11 -39 10 -49 57
-49 57 -10 10 -10 11 -41 70 -41 70 -12 34 -11 34 0 30 0 30 -41 96 -42 96
-24 95 -25 95 -3 17 -4 17 -17 37 -17 36 10 16 10 16 79 43 79 43 100 48 100
49 43 43 44 43 15 23 15 23 -7 11 -6 10 -7 0 -7 0 -25 -23 -25 -22 -85 -57
-85 -56 -105 -62 -105 -62 -33 -31 -33 -32 -15 19 -14 20 0 11 0 11 48 46 47
46 85 48 85 48 30 25 31 26 52 35 51 35 1 23 0 22 -14 0 -13 0 -24 -18 -24
-19 -95 -64 -95 -64 -39 -20 -40 -20 -57 -57 -57 -58 -6 0 -6 0 0 48 1 47 24
40 25 40 0 47 0 47 -29 20 -29 21 -29 0 -30 0 -20 -22 -21 -23 3 -41 3 -42 18
-27 17 -26 -2 -42 -2 -42 -2 -35 -2 -35 -25 -3 -25 -4 -90 -30 -90 -30 -85
-14 -84 -14 -9 9 -9 9 110 93 110 94 33 50 34 50 7 25 8 25 -12 65 -11 65 -23
69 -24 70 0 36 0 36 25 22 25 22 0 14 0 14 -16 6 -17 6 -24 -15 -23 -16 -7 17
-6 17 11 31 12 32 0 27 0 27 -18 0 -19 0 -6 -7z m-263 -801 l5 -9 10 -104 11
-104 10 -105 10 -105 15 -80 16 -80 50 -112 50 -113 2 -27 2 -28 -20 0 -19 0
-9 43 -8 42 -29 15 -29 15 -6 20 -6 20 -17 0 -17 0 -22 33 -22 32 -7 20 -8 20
-22 35 -23 35 -26 80 -26 80 -6 76 -6 76 22 57 21 57 21 42 22 42 20 18 20 17
8 0 8 0 5 -8z m524 -73 l31 -11 6 -18 6 -18 -25 -89 -25 -88 -12 -72 -12 -71
8 -89 8 -88 0 -43 1 -43 -49 -95 -50 -94 -6 0 -6 0 -6 153 -6 152 5 250 5 250
4 13 4 12 44 0 44 0 31 -11z m-430 -1567 l3 -22 -14 0 -15 0 -6 16 -6 16 6 9
6 10 11 -4 12 -4 3 -21z"/>
</g>
</svg>
