<?xml version="1.0" standalone="no"?>
<!DOCTYPE svg PUBLIC "-//W3C//DTD SVG 20010904//EN"
 "http://www.w3.org/TR/2001/REC-SVG-20010904/DTD/svg10.dtd">
<svg version="1.0" xmlns="http://www.w3.org/2000/svg"
   viewBox="0 0 457.000000 445.000000"
 preserveAspectRatio="xMidYMid meet">
<metadata>
Created by potrace 1.16, written by Peter Selinger 2001-2019
</metadata>
<g transform="translate(0.000000,445.000000) scale(0.100000,-0.100000)"
fill-opacity="0.2" fill="#006400" stroke="none">
<path d="M2055 4439 l-30 -9 -140 1 -140 1 -55 -15 -55 -16 -70 -16 -70 -17
-185 -60 -185 -61 -55 -26 -55 -27 -61 -42 -62 -42 -12 -15 -12 -15 -14 0 -14
0 0 -10 0 -10 -14 0 -14 0 -54 -50 -53 -50 -7 0 -7 0 -6 -20 -6 -20 -40 -42
-39 -42 0 -11 0 -10 -30 -30 -30 -30 -35 -41 -35 -41 0 -15 0 -15 -20 -18 -20
-18 0 -8 0 -8 -55 -80 -55 -80 -34 -73 -33 -73 -6 -39 -6 -38 -31 -59 -31 -60
6 -9 6 -10 -13 0 -13 0 -20 -42 -19 -43 0 -55 1 -55 -7 25 -7 25 -10 -25 -11
-25 -12 -55 -13 -55 -3 -65 -2 -65 -11 -90 -11 -90 -9 -70 -10 -70 -7 -277 -6
-277 16 -73 16 -73 11 -50 11 -50 17 -50 16 -50 6 -5 6 -5 23 -75 23 -75 13
-30 12 -30 8 -30 7 -30 24 -48 24 -48 -6 -9 -6 -10 11 0 10 0 10 -24 9 -25 30
-65 31 -65 14 -8 13 -8 47 -57 46 -58 0 -9 0 -9 83 -86 82 -86 40 -30 40 -30
45 -32 45 -32 25 -23 25 -23 11 0 11 0 43 -31 43 -31 56 -31 56 -30 15 -12 15
-13 50 -25 50 -24 90 -36 90 -35 60 -7 60 -7 55 -13 55 -13 90 -7 90 -6 69 -5
70 -5 7 -5 8 -4 143 -5 143 -5 165 16 165 16 185 44 185 44 80 21 80 20 50 24
50 24 135 61 135 62 60 36 60 36 50 31 50 32 25 17 25 16 72 48 72 47 77 65
78 65 50 51 51 52 23 38 24 39 69 118 69 118 -6 11 -7 11 10 -6 11 -7 25 38
25 37 25 55 25 55 14 35 15 35 11 30 11 30 20 85 20 85 6 55 6 55 14 60 14 60
11 110 11 110 1 60 2 60 -8 140 -8 140 -19 105 -20 105 -15 85 -15 85 -20 88
-21 87 -9 -5 -9 -6 6 15 5 14 -21 71 -21 72 -9 -6 -9 -5 -7 11 -7 12 11 -7 12
-7 0 5 0 6 -36 70 -35 70 -11 6 -11 7 7 -11 7 -12 -11 0 -11 0 6 19 6 19 -16
15 -15 16 0 8 -1 8 -53 84 -54 83 -73 84 -73 84 -12 0 -13 0 -7 12 -7 11 11
-7 12 -7 0 10 0 10 -37 28 -37 28 -25 25 -26 26 -31 22 -31 21 -8 -7 -8 -7 6
12 7 11 -27 22 -27 21 -28 6 -27 5 -5 14 -5 14 -14 -6 -14 -5 -6 14 -5 15 -74
27 -73 28 -5 8 -5 7 -52 26 -51 26 -12 0 -12 0 -47 24 -46 24 -50 16 -50 16
-27 2 -28 2 0 9 0 9 -16 -6 -15 -6 6 10 5 9 -57 16 -58 17 -90 25 -90 25 -78
24 -78 24 -142 10 -142 10 -35 6 -35 5 -100 3 -100 4 -30 -9z m422 -331 l-5
-13 -1 19 -1 19 6 -6 6 -6 -5 -13z m-227 -4 l0 -15 -10 6 -10 6 0 10 0 9 10 0
10 0 0 -16z m525 -42 l90 -21 68 -12 68 -13 -21 -11 -21 -11 -18 -27 -18 -27
5 -30 4 -30 34 44 34 45 0 7 0 7 -20 -18 -20 -18 0 -14 0 -13 -10 0 -10 0 0 9
0 8 21 27 20 26 14 0 14 0 6 -11 7 -10 -21 -23 -21 -22 1 -20 0 -19 9 23 9 22
5 0 5 0 -10 -32 -9 -33 1 -15 0 -15 9 20 8 20 7 -19 8 -18 -14 -8 -13 -9 27
-6 27 -7 0 -9 0 -9 11 0 11 0 -13 16 -13 16 15 9 14 9 8 0 8 0 -6 -10 -6 -10
15 6 16 6 0 5 0 4 -14 14 -14 14 -22 -25 -23 -24 -11 0 -10 0 11 11 11 11 -14
26 -14 27 0 14 0 13 15 -6 15 -5 0 9 0 9 -15 3 -14 3 18 24 18 24 19 -8 19 -9
-22 -3 -23 -4 0 -9 0 -8 23 -6 22 -6 -14 -9 -15 -9 13 -16 14 -16 15 12 15 13
4 -12 5 -13 16 0 17 0 25 21 25 21 -15 -5 -15 -4 -13 13 -13 14 7 0 8 0 35
-12 36 -13 5 -5 5 -5 55 -19 55 -20 10 -8 10 -9 98 -70 98 -71 -6 -21 -5 -22
6 13 6 12 10 0 9 0 -6 -22 -6 -23 9 13 9 13 41 -33 41 -33 0 -8 1 -7 -22 12
-23 13 -18 14 -17 14 -8 -7 -7 -8 18 -12 17 -13 0 -12 0 -12 -22 7 -23 7 13
-16 14 -16 18 12 19 11 7 -7 8 -7 -20 -15 -19 -14 23 -1 22 0 0 10 0 10 10 0
10 0 0 -15 0 -16 -22 -8 -23 -9 -22 14 -22 14 -6 -11 -7 -10 5 -5 5 -6 24 -3
23 -2 10 -3 10 -2 13 1 12 1 0 14 0 15 38 3 37 3 30 -19 30 -20 35 -37 36 -37
19 -36 20 -37 -14 -8 -13 -8 11 -7 11 -7 0 10 0 11 20 -12 20 -13 0 -12 0 -13
10 0 11 0 7 -17 7 -18 36 -65 37 -65 6 -35 5 -35 -9 -40 -9 -40 15 20 16 20
-6 58 -6 58 9 -6 9 -5 26 -78 26 -77 24 -105 24 -105 5 -106 6 -105 -23 -29
-23 -28 -68 -8 -67 -9 -44 10 -44 10 -30 33 -29 32 -1 85 0 85 6 20 5 20 32
24 32 23 -20 -7 -20 -8 -33 -12 -33 -12 -11 -11 -12 -12 -13 0 -12 0 5 -15 6
-15 -21 0 -20 0 -11 -41 -11 -41 6 -42 6 -41 15 -53 15 -53 34 -38 35 -38 62
-29 63 -28 75 -1 75 0 37 6 38 7 -6 -207 -7 -206 -2 -3 -3 -3 -48 25 -49 26
-11 0 -12 0 -60 30 -61 30 -6 0 -6 0 -67 47 -67 46 -64 49 -64 49 -13 -5 -14
-5 3 11 2 12 -29 14 -29 14 -91 64 -91 64 -34 28 -34 27 -89 77 -89 78 -87 87
-88 88 -50 59 -49 58 -42 56 -41 55 -60 121 -60 121 -26 70 -26 70 -35 140
-36 140 -17 50 -17 50 1 136 1 137 7 45 7 45 67 -18 67 -18 90 -20z m-648 1
l-5 -18 0 30 0 30 5 -12 5 -13 -5 -17z m-85 -9 l4 -37 -7 -52 -7 -53 -40 -94
-40 -93 -27 -70 -27 -70 -30 -60 -29 -59 -9 -11 -8 -10 -27 -50 -28 -50 -35
-50 -36 -50 -55 -75 -56 -75 -13 -13 -12 -13 -32 -47 -32 -47 -11 -10 -11 -10
-41 -50 -40 -50 -27 -43 -27 -43 -17 -18 -17 -18 -40 -44 -41 -44 -44 -63 -44
-64 -61 -49 -60 -50 -18 -15 -17 -14 -10 0 -10 0 0 -10 0 -10 -14 0 -14 0 -12
-15 -13 -15 -31 -14 -31 -14 -85 -32 -85 -32 -138 -9 -138 -9 -11 6 -11 7 8
76 8 76 2 55 3 55 11 104 11 104 4 5 5 4 21 -20 22 -20 35 -7 35 -6 39 25 38
26 -6 17 -7 18 15 -12 15 -12 31 47 31 47 6 27 6 27 -10 6 -10 6 1 -8 1 -8 -1
-23 -1 -23 -9 6 -10 5 -7 -11 -7 -11 13 -8 12 -7 -11 -7 -11 -7 -10 6 -10 6 6
-14 5 -15 -13 -8 -13 -8 -12 -2 -13 -2 0 8 0 9 16 15 15 16 -10 0 -10 0 -6
-10 -6 -10 -11 6 -10 7 6 -24 7 -24 -11 18 -11 17 6 10 6 10 -10 0 -11 0 0 17
0 16 19 -17 19 -17 21 13 21 13 1 12 2 13 1 8 2 7 7 27 7 27 17 -6 16 -6 -5
21 -6 22 4 0 5 0 10 -22 10 -23 -5 25 -5 24 15 18 16 17 -5 13 -6 13 -6 -22
-7 -22 -16 -6 -15 -6 -11 11 -11 11 17 -6 17 -7 18 36 17 36 8 -12 8 -13 0 12
0 12 -10 6 -9 6 -21 -21 -20 -20 -4 0 -4 0 -5 14 -6 15 12 -5 13 -4 1 21 2 22
13 8 13 9 10 -4 10 -3 -3 -12 -2 -12 10 6 10 6 1 -8 1 -8 3 -19 4 -18 -9 -22
-8 -21 -1 -8 -1 -7 -15 -38 -15 -37 13 17 13 16 28 86 28 86 18 0 18 0 28 -15
29 -15 60 0 60 0 54 25 54 25 49 41 49 42 15 30 16 30 -7 43 -6 44 15 0 16 0
40 17 40 18 0 7 0 8 13 0 13 0 17 20 17 20 41 60 41 60 5 40 6 40 -12 0 -11 0
-1 -17 -1 -18 1 -8 2 -9 -13 -34 -12 -35 -13 5 -13 5 0 -20 0 -20 -10 6 -10 6
5 -13 5 -13 -9 -13 -8 -13 -33 -5 -32 -6 6 11 7 11 -15 -6 -16 -6 0 -13 0 -14
10 -6 10 -6 0 9 0 10 20 5 20 5 0 -8 0 -8 -32 -15 -33 -15 -39 -16 -40 -17
-12 5 -13 5 -5 -12 -4 -12 -1 11 -1 10 14 20 14 19 8 -8 8 -8 -14 -9 -15 -10
10 1 10 0 20 9 20 8 -32 13 -33 13 0 9 0 8 11 -7 11 -7 7 9 6 9 23 13 22 12 0
-6 0 -6 -22 -19 -23 -18 17 -1 16 0 4 -11 4 -11 13 16 14 16 -17 -6 -16 -6 0
11 0 11 10 0 10 0 0 14 0 15 -8 5 -8 5 -29 -15 -29 -15 -8 16 -9 15 -17 0 -17
0 15 -10 15 -10 -17 0 -18 0 0 13 0 12 -9 -13 -8 -14 -19 4 -19 3 3 -19 4 -20
-16 13 -16 13 0 -9 0 -9 12 -12 12 -12 -6 -5 -5 -5 -15 5 -16 6 0 22 1 22 -7
30 -7 30 10 15 10 14 8 -8 8 -9 -12 -4 -13 -5 0 -19 0 -19 11 0 11 0 -6 -15
-6 -15 20 10 20 11 0 12 0 12 10 -15 10 -15 0 9 0 9 -25 32 -24 33 4 6 5 6 -7
-5 -7 -6 -12 38 -11 38 -12 -42 -12 -42 -7 -5 -8 -5 10 45 11 44 7 0 7 0 -5
18 -6 17 12 -18 11 -17 10 5 9 6 -6 -18 -6 -18 11 15 11 15 0 -19 0 -19 7 6 6
7 -13 25 -13 25 8 7 8 8 4 -12 5 -13 14 0 15 0 -6 10 -6 10 9 0 9 0 5 -5 5 -5
-13 -52 -14 -52 12 -28 13 -28 27 0 27 0 7 -11 7 -12 9 17 9 16 17 0 17 0 40
15 40 14 -15 2 -15 1 -10 -2 -10 -3 -52 -7 -53 -6 0 9 0 9 -19 -5 -20 -5 -5
15 -6 15 0 18 0 19 11 25 12 25 33 11 32 11 6 15 6 16 0 15 0 14 -16 16 -15
16 -45 5 -44 5 0 -12 0 -12 -29 -10 -30 -10 -16 -25 -16 -25 -15 -47 -14 -47
0 -30 0 -30 13 -35 13 -35 20 -32 19 -32 37 3 38 4 -6 -10 -7 -11 27 7 26 6 0
-11 0 -12 -49 7 -49 6 5 -44 5 -45 -28 -25 -29 -26 -35 -10 -35 -10 -33 0 -33
0 -20 10 -19 11 0 24 0 25 -15 0 -15 0 0 -10 0 -10 -14 0 -13 0 -7 -70 -7 -70
-10 0 -10 0 6 -10 6 -10 -20 0 -21 0 0 9 0 9 13 11 14 11 4 -5 5 -4 -4 35 -4
35 -15 -5 -14 -6 2 23 3 22 -7 12 -7 11 19 -5 18 -5 6 24 7 23 1 25 2 25 6
-34 6 -34 12 -4 12 -4 6 38 7 38 14 48 13 48 33 67 32 67 7 5 6 5 8 24 7 23
32 47 31 46 10 7 10 7 -12 12 -11 11 -7 -21 -6 -21 -10 5 -9 6 0 -16 0 -16
-14 -14 -14 -14 -7 7 -7 7 7 -25 7 -25 -12 11 -12 12 7 21 6 21 10 -5 9 -6 0
20 0 19 27 21 28 20 -16 1 -17 0 -17 -26 -17 -26 -6 6 -5 6 24 26 24 25 17 -4
18 -5 0 14 0 14 14 0 13 0 -2 25 -3 25 9 -6 9 -5 -6 -11 -7 -11 14 5 14 5 -2
12 -3 11 10 0 9 0 -5 14 -6 15 -25 -10 -24 -9 -12 0 -12 0 30 20 30 20 11 0
12 0 5 -20 5 -21 26 7 26 6 17 -6 16 -7 -19 -13 -19 -13 -25 -8 -25 -8 -5 -7
-5 -7 -30 -14 -29 -14 2 -7 2 -8 8 2 7 3 -3 8 -2 8 9 -5 10 -6 37 25 37 25 16
1 16 1 30 -2 30 -1 19 -6 18 -5 -7 31 -7 31 17 0 17 0 -11 -14 -12 -14 11 -7
10 -6 1 13 0 13 11 -23 12 -23 25 6 26 6 -14 -10 -14 -9 7 -11 7 -11 19 0 18
0 6 15 5 15 17 0 17 0 -28 -24 -28 -24 -16 6 -16 6 15 -19 15 -19 18 -18 18
-19 11 7 11 7 24 3 23 2 0 -5 0 -4 -15 -15 -14 -15 -7 0 -7 -1 -8 14 -9 13 0
-28 0 -28 -10 6 -10 6 0 -15 0 -14 -5 -14 -5 -14 15 -19 16 -20 -6 30 -6 30
11 -15 10 -15 0 -25 0 -24 13 19 13 20 13 43 12 42 10 0 10 0 -5 43 -5 42 5
-17 5 -18 20 0 19 0 45 21 44 21 44 47 44 47 23 60 22 59 1 60 1 60 90 -1 91
-1 45 7 45 7 6 2 7 1 4 -36z m235 -6 l0 -43 -20 -25 -19 -25 7 24 7 24 -12 -8
-13 -8 7 11 7 11 14 -6 15 -5 0 11 0 11 -10 0 -10 0 6 28 7 27 4 8 4 7 3 0 3
0 0 -42z m-636 -61 l13 -31 -12 -4 -12 -4 0 -18 0 -19 -31 -36 -32 -36 -31
-13 -31 -13 -53 -5 -52 -5 0 8 0 9 23 1 22 1 -12 5 -12 4 -32 30 -31 29 -14 0
-14 0 0 15 0 15 -15 0 -15 0 0 10 0 10 -37 -1 -38 -1 -34 9 -33 8 78 32 79 32
65 17 65 18 65 6 65 6 27 -24 27 -24 12 -31z m1819 43 l0 -10 -10 0 -10 0 0
10 0 10 10 0 10 0 0 -10z m-120 -48 l0 -14 -15 12 -15 12 0 3 0 2 15 0 15 0 0
-15z m230 -22 l0 -9 -15 5 -15 6 0 4 0 4 15 0 15 0 0 -10z m-1344 -36 l-7 -26
-5 5 -5 5 7 26 6 27 5 -5 5 -5 -6 -27z m914 26 l0 -10 -19 0 -20 0 -6 10 -6
10 25 0 26 0 0 -10z m610 6 l0 -4 -17 -13 -18 -14 14 18 13 17 4 0 4 0 0 -4z
m-310 -16 l15 -10 -17 0 -17 0 -6 10 -6 10 8 0 8 0 15 -10z m-303 -16 l-6 -6
-13 5 -13 5 19 1 19 1 -6 -6z m-1842 -12 l10 -7 14 -17 13 -18 -12 -15 -12
-15 12 0 13 0 11 16 12 16 13 -16 13 -16 -20 0 -20 0 -4 -9 -3 -9 -25 10 -25
9 14 8 13 8 -17 26 -17 26 -16 4 -17 5 20 1 20 1 10 -8z m-188 -18 l-6 -6 -13
5 -13 5 19 1 19 1 -6 -6z m53 -18 l0 -4 -19 -5 -19 -5 -13 9 -14 9 33 0 32 0
0 -4z m1046 -124 l-6 -5 -3 4 -3 4 6 65 5 65 3 -64 3 -63 -5 -6z m1524 108 l0
-10 -10 0 -10 0 0 10 0 10 10 0 10 0 0 -10z m-1540 -4 l0 -5 -10 -25 -10 -26
-4 -33 -4 -32 -7 -43 -8 -42 -9 -6 -9 -6 4 24 4 23 5 15 6 15 13 73 12 72 9 0
8 0 0 -4z m1570 -26 l0 -10 -4 0 -5 0 -6 10 -6 10 10 0 11 0 0 -10z m-2565
-10 l-6 -10 -12 0 -12 0 15 10 15 10 3 0 3 0 -6 -10z m-200 -29 l-5 -9 -20 -5
-20 -5 0 5 0 6 17 13 18 12 8 -5 7 -4 -5 -8z m441 -48 l-6 -6 -6 6 -6 6 8 12
8 13 4 -13 4 -12 -6 -6z m-496 7 l0 -11 -16 -24 -16 -24 6 -10 7 -10 -21 4
-20 4 0 -10 0 -10 -10 6 -10 6 30 26 30 25 0 19 0 19 10 0 10 0 0 -10z m524
-25 l-6 -15 -9 0 -9 0 0 9 0 9 13 5 12 5 2 1 2 1 -5 -15z m743 -27 l-5 -13 0
25 0 25 5 -12 5 -13 -5 -12z m-1000 7 l22 -16 -6 -15 -6 -15 -14 6 -15 5 6
-15 5 -15 -7 0 -7 0 -10 8 -10 7 -14 18 -13 17 16 0 17 0 -6 -9 -5 -10 10 -6
10 -6 -2 26 -2 26 -16 -4 -15 -5 -20 -7 -20 -7 19 16 20 16 21 0 21 0 21 -15z
m-99 -23 l4 -12 -16 0 -16 0 -6 -26 -7 -26 -8 14 -9 13 0 8 0 8 10 -6 10 -6 1
10 2 11 2 10 3 10 1 6 1 6 12 -4 12 -4 4 -12z m-238 -49 l0 -15 -15 12 -15 12
6 9 5 9 10 -5 9 -6 0 -16z m29 -5 l-12 -23 -4 12 -4 12 13 15 13 14 3 -3 4 -3
-13 -24z m257 17 l15 -15 -8 0 -8 1 -19 14 -20 15 13 0 12 0 15 -15z m1401 -7
l-5 -13 -1 19 -1 19 6 -6 6 -6 -5 -13z m-333 -43 l6 -30 9 -50 9 -50 17 -40
16 -40 46 -90 46 -90 6 -5 6 -5 15 -30 15 -30 11 -10 12 -10 11 -36 12 -36 -7
-16 -6 -17 -9 6 -9 5 0 -5 0 -4 6 -17 7 -17 8 13 8 13 7 -7 7 -7 0 -31 0 -32
15 19 14 19 -6 -30 -6 -30 14 18 14 18 10 -31 11 -30 10 0 11 0 -4 -22 -4 -23
-11 2 -11 3 0 -18 0 -18 -46 -46 -45 -46 -71 -37 -71 -37 -46 -14 -46 -15
-125 -6 -125 -6 -75 22 -75 21 -60 42 -60 42 -3 6 -3 7 -12 18 -13 17 -32 -26
-31 -27 4 -12 5 -12 -10 -15 -10 -15 -11 15 -11 15 5 -17 6 -17 -20 -25 -20
-26 -11 0 -10 0 16 23 16 22 14 33 15 32 16 6 15 6 0 13 0 14 33 22 32 23 -15
-19 -15 -20 18 14 17 13 0 19 0 18 10 6 10 6 1 -13 1 -13 7 30 7 30 11 -2 11
-2 -2 12 -1 12 54 110 54 110 21 30 21 30 6 5 5 5 7 15 7 15 20 30 19 30 42
78 43 77 9 0 8 0 -6 9 -5 10 20 33 20 33 0 -17 0 -18 9 0 9 0 6 26 7 26 -6 6
-5 5 -1 -19 -1 -19 -5 12 -5 13 17 45 17 44 7 -1 6 0 23 1 23 1 -7 13 -8 12
17 -14 17 -13 0 -12 0 -11 -11 15 -10 15 5 -20 5 -20 6 -42 7 -43 9 0 9 0 0
-13 0 -13 20 -39 20 -40 -5 -13 -4 -12 11 -25 11 -24 9 5 9 6 -7 -26 -6 -26
18 7 19 7 -14 -17 -13 -17 9 0 9 0 11 11 12 12 -8 16 -8 16 -17 32 -16 32 -26
67 -25 67 6 5 5 5 -9 11 -9 11 -6 55 -7 55 10 -15 9 -15 6 -30z m-1376 18 l17
-17 -18 7 -19 7 -5 -20 -5 -20 -9 0 -8 0 -6 10 -6 9 18 20 18 19 3 1 3 1 17
-17z m3162 -4 l0 -9 -10 0 -10 0 0 16 0 15 10 -6 10 -6 0 -10z m-3090 -34
l-20 -21 0 -17 0 -17 -10 0 -10 0 0 9 0 9 14 33 14 34 8 8 8 7 7 -12 8 -13
-19 -20z m521 18 l-10 -18 -1 7 0 6 6 17 6 16 5 -5 5 -4 -11 -19z m-567 -38
l-6 -25 11 -14 11 -13 -13 -26 -14 -27 -11 26 -12 25 0 6 0 7 15 -20 15 -19
-6 38 -5 39 5 14 5 14 6 0 5 0 -6 -25z m2845 16 l13 -8 -11 -8 -12 -7 -14 6
-15 5 0 11 0 10 13 0 12 0 14 -9z m-2939 -27 l0 -15 -7 4 -8 5 -12 -13 -12
-13 6 -6 6 -6 -12 0 -12 0 -10 -30 -11 -30 -9 0 -9 0 0 10 0 10 9 0 9 0 4 18
5 17 -1 5 0 5 24 26 25 27 8 1 7 1 0 -16z m270 -34 l-12 -29 10 -31 11 -30 -7
0 -8 0 -12 32 -12 32 15 23 15 22 1 18 1 18 5 -13 5 -13 -12 -29z m-203 18
l-5 -13 -1 19 -1 19 6 -6 6 -6 -5 -13z m-37 -25 l-12 -18 6 18 6 19 1 11 1 12
4 -12 5 -12 -11 -18z m30 -33 l14 -9 -6 -7 -7 -6 -16 16 -16 16 8 0 8 0 15
-10z m10 -34 l0 -3 -15 -43 -15 -43 0 -31 0 -31 -10 -15 -9 -15 0 20 1 20 -6
40 -6 40 9 -20 10 -20 1 15 2 15 -2 23 -1 22 12 0 13 0 -20 15 -19 14 28 1 27
0 0 -4z m-132 -42 l-4 -19 -6 28 -6 29 10 -10 10 -10 -4 -18z m462 26 l0 -10
-11 0 -10 0 6 10 6 10 5 0 4 0 0 -10z m-485 -9 l5 -10 -10 -6 -10 -6 0 15 0
16 4 0 5 0 6 -9z m-25 -17 l0 -15 -10 6 -10 6 5 10 6 9 5 0 4 0 0 -16z m465 6
l6 -10 -16 0 -16 0 6 10 6 10 4 0 4 0 6 -10z m45 -20 l0 -10 -9 0 -10 0 -6 10
-6 10 15 0 16 0 0 -10z m-549 -49 l-21 -30 9 -6 10 -5 10 17 10 18 1 -11 0
-11 -16 -33 -17 -32 -8 13 -8 13 -10 -28 -11 -28 -15 -14 -15 -15 0 -18 0 -17
-11 -11 -11 -11 11 -6 11 -7 0 15 0 14 36 -9 35 -10 12 5 12 4 -22 1 -23 1 0
15 0 15 20 0 20 0 0 -15 0 -15 43 -2 42 -1 -42 -4 -43 -4 0 -17 0 -17 -45 3
-45 4 0 -12 0 -12 -15 6 -15 5 0 -10 0 -10 -9 5 -8 5 6 -27 5 -27 4 23 3 22 9
0 9 0 6 -10 6 -10 43 0 43 0 10 -22 10 -23 -48 3 -49 4 -1 11 -2 12 -7 -35 -7
-35 -2 35 -2 35 -10 -23 -9 -24 6 -23 6 -22 -25 -7 -25 -6 -4 -17 -5 -18 41 1
41 1 -35 -4 -35 -4 -12 -16 -13 -17 0 -25 0 -26 10 15 10 15 0 -17 0 -17 13
-4 12 -4 -27 3 -28 4 0 -15 0 -15 10 0 10 0 0 -22 -1 -23 -14 19 -15 20 0 -14
0 -13 -5 5 -6 5 22 122 23 121 8 -12 8 -13 -6 44 -7 44 9 -5 9 -6 1 27 1 26
73 150 74 149 4 -12 4 -12 -21 -29z m54 29 l6 -10 -10 0 -11 0 0 10 0 10 4 0
5 0 6 -10z m62 -22 l-5 -13 0 25 0 25 5 -12 5 -13 -5 -12z m-57 -28 l0 -10
-10 0 -10 0 0 10 0 10 10 0 10 0 0 -10z m-20 -95 l0 -13 -25 -6 -26 -7 -17 11
-17 11 28 -4 27 -4 0 18 0 18 15 -5 15 -6 0 -13z m3520 11 l0 -5 -10 -6 -10
-6 0 10 0 11 10 0 10 0 0 -4z m-3463 -43 l-5 -18 0 30 0 30 5 -12 5 -13 -5
-17z m-327 13 l0 -5 -10 -6 -10 -6 0 10 0 11 10 0 10 0 0 -4z m195 -26 l-6
-10 -15 0 -14 0 0 10 0 10 21 0 20 0 -6 -10z m165 -37 l0 -4 -15 -15 -15 -15
0 19 0 19 15 0 15 0 0 -4z m3649 -83 l0 -15 -9 20 -9 20 0 10 -1 10 10 -15 10
-15 -1 -15z m-29 -10 l0 -10 -4 0 -5 0 -6 10 -6 10 10 0 11 0 0 -10z m-1893
-62 l-5 -13 -1 19 -1 19 6 -6 6 -6 -5 -13z m1907 -3 l-6 -15 -4 0 -4 0 0 15 0
15 10 0 9 0 -5 -15z m-154 -46 l0 -9 -10 0 -10 0 0 16 0 15 10 -6 10 -6 0 -10z
m-3610 -54 l-12 -15 -24 0 -24 0 0 10 0 9 33 9 32 9 4 -3 4 -4 -13 -15z m3630
15 l0 -10 -11 0 -10 0 6 10 6 10 5 0 4 0 0 -10z m177 -62 l-5 -13 0 25 0 25 5
-12 5 -13 -5 -12z m-4324 -14 l-6 -15 -9 9 -10 10 7 11 6 11 9 -5 9 -6 -6 -15z
m4360 -19 l-5 -16 -5 5 -5 5 7 10 6 11 4 0 4 0 -6 -15z m4 -47 l-5 -13 -1 19
-1 19 6 -6 6 -6 -5 -13z m-4204 -8 l-5 -20 -4 0 -4 0 0 20 0 20 9 0 9 0 -5
-20z m301 -4 l-2 -17 12 11 13 10 6 -6 6 -7 -5 -8 -5 -9 -20 0 -19 0 0 -10 0
-10 -27 1 -28 0 -19 8 -20 8 13 7 12 8 14 -12 15 -12 0 11 0 11 17 20 18 20
10 -4 10 -3 -1 -17z m3286 -6 l0 -10 -11 0 -10 0 6 10 6 10 5 0 4 0 0 -10z
m644 -91 l-5 -9 -10 6 -9 5 6 10 5 9 10 -6 9 -5 -6 -10z m-3004 -57 l0 -8 -43
-42 -43 -42 -7 7 -8 7 43 42 43 43 8 0 7 1 0 -8z m3017 -74 l-5 -13 -1 19 -1
19 6 -6 6 -6 -5 -13z m-3155 -56 l-43 -38 7 -7 7 -7 16 0 17 0 64 -27 65 -28
20 -15 20 -15 34 -50 35 -50 6 -5 7 -5 26 -57 27 -57 0 -75 0 -75 -14 -54 -14
-55 -26 -53 -25 -54 -23 -25 -23 -25 -26 -14 -27 -13 -21 7 -21 6 0 -12 0 -13
-12 12 -12 12 -17 0 -17 0 -4 -11 -3 -10 -28 25 -28 26 -10 -5 -9 -6 0 10 0
11 15 0 15 0 0 8 0 7 -25 12 -25 11 -1 -21 -1 -22 -4 15 -5 15 -29 20 -30 20
0 8 0 7 -11 0 -11 0 -26 19 -27 18 -55 18 -55 18 -6 9 -6 10 -24 13 -24 14
-37 17 -38 16 0 8 0 9 28 -4 27 -3 -2 -10 -2 -9 27 -12 27 -11 -18 14 -18 14
3 8 3 9 -8 0 -8 0 -10 18 -10 17 -11 0 -10 0 11 -14 12 -14 -28 3 -28 2 -30 8
-30 8 -70 27 -70 27 -20 8 -20 8 -10 -2 -10 -1 19 15 20 15 -12 0 -11 0 5 14
5 13 -44 6 -43 6 -24 -6 -24 -6 20 -9 19 -8 -25 5 -25 5 -27 0 -28 0 0 9 0 9
33 -2 32 -3 19 7 20 7 -46 0 -46 1 -21 11 -21 12 0 -21 0 -20 -15 0 -15 0 0
40 0 40 10 0 10 0 0 -8 0 -8 39 -18 40 -17 58 -5 58 -6 60 -2 60 -2 32 -17 32
-17 6 0 6 0 -7 11 -7 12 39 -7 39 -6 -40 20 -40 19 15 1 15 0 30 16 30 15 17
-4 18 -5 -4 7 -5 7 72 39 72 38 28 24 29 23 9 0 10 0 50 40 51 40 14 0 14 0 0
10 0 10 28 13 27 12 14 18 13 19 32 19 31 19 5 0 5 -1 -43 -37z m2878 23 l0
-15 -4 0 -4 0 -6 15 -5 15 9 0 10 0 0 -15z m-2337 -2 l-13 -5 -12 5 -13 5 25
0 25 0 -12 -5z m2384 -30 l-5 -18 0 30 0 30 5 -12 5 -13 -5 -17z m-2446 -1
l-13 -4 -10 10 -11 11 24 -6 23 -7 -13 -4z m649 3 l0 -6 -14 -22 -14 -22 -30
-95 -30 -95 -9 -50 -8 -50 0 -122 0 -123 -8 0 -8 0 -18 9 -17 10 -103 20 -103
21 -67 0 -67 0 -55 -16 -54 -16 -7 -12 -8 -11 0 5 0 5 -4 95 -5 95 -15 45 -15
45 -15 40 -14 40 -40 86 -40 87 -11 6 -11 7 5 10 6 9 14 -13 13 -13 106 -29
107 -28 107 6 107 6 97 21 96 21 54 18 53 19 13 1 12 1 0 -5z m361 -27 l19
-23 -2 15 -3 15 -10 7 -10 8 13 0 13 0 5 -15 6 -15 14 0 13 0 8 -13 8 -12 25
-18 25 -17 35 -24 35 -24 43 -41 44 -41 8 0 8 0 6 -15 5 -14 -15 -15 -15 -15
31 -16 30 -16 0 10 0 9 -20 5 -20 5 6 16 6 16 9 0 8 0 33 -29 33 -28 25 -13
25 -13 -20 -9 -20 -8 28 5 28 6 42 -25 42 -25 30 -5 30 -4 23 -1 22 -1 0 -10
0 -10 -19 0 -20 0 -5 9 -6 9 -28 -9 -27 -9 -17 -6 -18 -6 0 -8 0 -8 33 -8 32
-8 -30 -6 -30 -5 -11 20 -10 20 18 13 18 13 0 10 0 9 -11 0 -10 0 -13 -13 -13
-13 -7 -22 -7 -22 -47 -1 -47 0 20 -9 20 -8 43 5 42 6 0 -6 0 -5 -67 -11 -68
-11 -62 -12 -62 -11 17 -14 17 -13 -28 6 -28 6 -40 -17 -40 -18 13 -8 13 -8
-37 6 -38 6 0 -10 0 -10 -60 -27 -60 -27 0 -10 0 -10 22 7 23 7 -14 -17 -13
-16 -13 0 -13 0 -4 -9 -3 -9 -40 -21 -40 -21 10 0 9 0 -20 -15 -19 -14 -15 -1
-15 0 30 25 30 24 11 1 12 0 6 15 5 15 18 0 17 0 -11 11 -12 12 -25 -17 -25
-16 -13 0 -13 1 19 14 20 15 -17 0 -17 0 -1 -12 -1 -13 1 -12 2 -13 -16 0 -16
0 6 10 6 10 -15 -6 -14 -5 -29 14 -28 15 -18 19 -17 20 -26 74 -26 74 6 65 6
65 20 74 21 75 36 64 36 64 25 30 26 31 34 14 33 14 20 -6 19 -6 0 10 0 11 16
0 16 0 19 -22z m1436 -195 l-3 -58 0 110 0 110 3 -52 4 -52 -4 -58z m245 95
l-9 -9 2 23 2 23 3 5 2 5 5 -19 5 -18 -10 -10z m-5 -50 l-5 -13 -1 19 -1 19 6
-6 6 -6 -5 -13z m23 -110 l0 -32 -10 10 -9 9 5 23 6 22 4 0 4 0 0 -32z m-273
-55 l-5 -18 0 30 0 30 5 -12 5 -13 -5 -17z m-3497 7 l0 -10 -10 0 -10 0 0 10
0 10 10 0 10 0 0 -10z m3761 -70 l-9 -55 -1 36 -1 37 7 33 7 34 3 -15 4 -15
-10 -55z m-3931 20 l15 -10 -10 0 -10 0 -15 10 -15 10 10 0 10 0 15 -10z
m3670 -10 l0 -10 -4 0 -5 0 -6 10 -6 10 10 0 11 0 0 -10z m56 -88 l-6 -5 -5 5
-6 5 8 44 8 44 3 -44 3 -43 -5 -6z m-892 28 l-10 -10 0 20 0 20 10 -10 10 -10
-10 -10z m77 21 l-14 -9 24 -5 24 -4 -35 -2 -35 -2 20 -9 20 -9 -33 0 -33 -1
28 25 28 24 10 1 10 0 -14 -9z m73 -26 l-6 -15 -9 0 -9 0 0 15 0 15 15 0 14 0
-5 -15z m54 -1 l22 -6 0 -8 0 -7 -25 5 -25 4 -6 9 -5 9 8 0 8 0 23 -6z m-1231
-51 l-5 -18 0 35 0 35 5 -17 4 -18 -4 -17z m-1996 8 l30 -29 26 -7 26 -6 111
-55 111 -55 65 -36 65 -36 80 -60 80 -60 50 -22 50 -23 75 -54 75 -54 15 -6
16 -6 80 -60 81 -61 34 -39 34 -38 20 -25 21 -25 32 -56 33 -57 27 -32 27 -32
26 -31 26 -31 45 -75 45 -75 5 -20 6 -20 52 -130 52 -130 19 -65 19 -65 0 -32
0 -32 15 -15 15 -15 0 -5 0 -5 -107 5 -108 5 -117 15 -117 15 -70 22 -71 23
-7 7 -6 7 32 0 33 0 29 21 29 20 0 12 0 12 -10 -15 -10 -15 -9 14 -9 14 -18
-18 -18 -18 24 8 25 7 -10 -10 -10 -10 -47 -10 -48 -9 -51 23 -52 24 6 6 5 5
29 -14 28 -14 43 1 42 2 0 -11 1 -10 14 25 15 25 -6 26 -5 26 15 6 16 6 0 20
0 20 10 6 10 6 0 10 0 9 -10 0 -10 0 0 -15 0 -15 -10 0 -10 0 0 -14 0 -14 -14
-11 -13 -11 3 27 4 28 -6 -13 -6 -12 -14 0 -14 0 -1 -12 -1 -13 -2 -14 -1 -14
-29 -10 -30 -10 -4 12 -4 11 -15 0 -15 0 12 15 12 14 -26 7 -26 6 0 15 0 16
-17 13 -18 13 17 1 16 0 4 -11 4 -11 24 7 25 6 0 49 0 50 -22 0 -23 0 0 10 0
10 -17 -1 -18 -1 13 -5 12 -5 -6 -9 -5 -9 -10 0 -10 0 6 9 5 10 -27 3 -28 3 2
13 3 12 -11 0 -11 0 6 -15 5 -15 -9 0 -9 0 -6 20 -6 20 -26 0 -25 0 5 -20 5
-20 -11 -1 -12 -2 -24 -1 -24 -1 -4 -12 -5 -13 36 0 36 0 0 -12 0 -13 9 15 10
14 -5 8 -5 8 9 0 9 0 13 -27 13 -28 11 28 10 27 7 0 7 0 -2 -17 -3 -18 10 -7
11 -6 3 -21 3 -21 -11 0 -10 0 -15 -15 -15 -15 31 7 32 6 -4 -19 -3 -18 19 -4
20 -4 14 -14 13 -14 -10 0 -10 0 6 -17 6 -18 -16 20 -16 20 -1 -12 0 -13 -10
0 -10 0 0 20 0 20 -7 1 -8 0 -35 3 -35 2 -17 8 -18 8 0 -8 0 -9 30 -13 30 -13
11 7 12 7 -7 -11 -7 -12 10 0 11 0 1 18 1 17 10 -27 10 -28 18 0 19 0 6 -11 7
-10 -5 -5 -4 -4 -29 15 -29 15 -12 0 -13 0 0 11 0 10 -11 -7 -11 -7 -7 10 -6
10 -55 28 -55 28 -22 11 -23 11 0 8 0 7 -13 0 -14 0 0 33 0 32 10 13 9 12 -21
0 -21 0 0 16 0 16 -12 -4 -12 -4 -3 -11 -4 -11 21 -20 22 -20 -10 -6 -10 -6
-16 16 -16 15 0 8 0 8 -24 13 -25 13 12 18 12 19 45 1 45 0 -20 9 -20 8 30 4
30 4 -37 5 -37 5 2 -9 2 -10 -29 -8 -29 -8 -8 -12 -7 -12 -11 7 -11 7 0 10 0
10 13 -3 12 -2 23 13 23 12 -12 15 -11 14 -30 0 -29 0 -5 14 -6 15 -14 -6 -15
-5 3 12 3 13 -12 4 -13 5 0 -11 0 -11 -11 0 -11 0 -19 23 -18 22 -1 7 0 7 15
-5 15 -6 0 -14 0 -14 15 0 15 0 0 14 0 14 -16 6 -16 6 6 15 5 15 -10 28 -11
27 -5 -13 -5 -13 13 -15 12 -15 -11 -10 -12 -9 5 6 4 7 -15 28 -15 29 -9 0
-10 0 0 -9 0 -9 9 -4 8 -3 7 -22 7 -23 -12 0 -12 0 6 6 5 6 -16 19 -17 20 3 5
3 4 -36 48 -35 47 -24 26 -23 27 -16 43 -16 44 -30 97 -31 98 0 15 0 15 61 0
62 0 43 -21 43 -22 6 -24 6 -25 -12 -14 -11 -14 38 15 39 16 25 12 25 11 3 2
3 1 -11 27 -10 27 -10 -6 -10 -6 6 14 5 14 -45 41 -44 41 -53 15 -53 16 -58 0
-58 0 0 -11 0 -11 -12 4 -12 4 -13 55 -14 54 -3 183 -2 182 3 0 3 0 31 -29z
m3059 8 l-45 -8 -30 1 -30 0 25 8 25 8 50 0 50 -1 -45 -8z m115 1 l-6 -10 -10
0 -9 0 0 10 0 10 16 0 15 0 -6 -10z m932 -27 l-5 -18 0 30 0 30 5 -12 5 -13
-5 -17z m-786 1 l26 -13 52 -7 52 -7 13 -13 14 -13 6 6 6 6 23 -10 22 -11 50
-17 50 -18 10 -10 10 -10 -15 6 -15 6 -70 21 -70 21 -30 9 -31 10 -47 6 -47 7
0 7 0 8 -17 6 -18 6 -35 15 -35 15 35 -6 35 -6 26 -14z m597 -39 l-3 -55 8 0
7 0 0 -15 0 -15 -10 0 -10 0 -1 13 -1 12 -2 50 -1 50 -10 7 -10 8 18 0 19 0
-4 -55z m189 -7 l-5 -13 -1 19 -1 19 6 -6 6 -6 -5 -13z m-1447 2 l0 -10 -7 0
-8 0 -25 -6 -25 -6 25 15 25 15 8 1 7 1 0 -10z m1104 -77 l-6 -38 -8 -8 -7 -8
-6 37 -6 38 12 8 12 8 8 0 8 0 -7 -37z m-1289 -3 l-6 -10 -12 0 -12 0 15 10
15 10 3 0 3 0 -6 -10z m1225 -7 l0 -18 -8 11 -7 11 -15 6 -15 5 23 1 22 1 0
-17z m260 -3 l0 -20 -4 0 -4 0 -5 20 -5 20 9 0 9 0 0 -20z m-230 -6 l0 -15
-10 6 -10 6 0 10 0 9 10 0 10 0 0 -16z m187 -46 l-5 -13 -1 19 -1 19 6 -6 6
-6 -5 -13z m-515 -9 l17 -9 29 0 28 0 95 -20 94 -20 27 -11 27 -11 10 7 11 6
0 -31 0 -31 10 6 10 6 0 -10 0 -11 -9 0 -9 0 -5 -22 -6 -21 7 -13 7 -13 10 -3
9 -3 -3 -24 -3 -24 -34 -100 -35 -99 -42 -67 -41 -66 -18 -13 -17 -13 5 -17 6
-17 -20 25 -20 24 6 11 5 10 -21 -19 -22 -19 1 -11 1 -11 5 13 5 12 14 0 14 0
0 -25 0 -25 -10 0 -10 0 0 -13 0 -13 -20 -14 -20 -14 0 -11 0 -10 -64 -65 -63
-65 -14 -10 -14 -10 -67 -53 -68 -54 0 -9 0 -9 -13 0 -13 0 -35 -42 -34 -41
-21 -24 -21 -23 -6 0 -6 0 -116 -56 -115 -57 0 -8 0 -8 -22 -7 -23 -7 -35 -22
-35 -22 -80 -33 -80 -33 -74 -23 -75 -24 -24 16 -24 16 -24 51 -24 52 0 15 0
15 11 38 10 39 29 30 29 30 40 5 41 6 0 31 0 31 10 15 10 15 0 -12 0 -11 7
-18 6 -17 -14 8 -14 9 14 -17 14 -17 14 17 15 18 -6 -17 -5 -17 9 -6 10 -6 0
26 0 26 19 -11 20 -10 8 0 8 1 -25 13 -25 14 -7 -4 -8 -5 0 18 0 18 -10 -15
-9 -14 -7 7 -7 7 13 15 13 15 -7 7 -7 7 -8 -13 -8 -13 -8 0 -8 0 -9 14 -9 13
7 -27 6 -28 -9 0 -9 0 -13 38 -14 37 -11 7 -11 8 -28 0 -28 0 -38 -20 -39 -19
-30 -37 -31 -37 -21 -81 -22 -80 9 -106 10 -105 -3 -4 -3 -3 -132 -10 -132 -9
-7 8 -7 8 -17 70 -16 70 0 53 0 53 9 42 9 42 12 80 12 80 15 50 15 50 16 50
15 50 47 100 46 100 57 85 57 85 18 20 17 20 61 48 60 47 7 0 7 0 67 45 68 45
25 17 25 18 45 24 45 24 49 24 48 24 57 10 56 9 65 15 65 14 50 10 50 9 165
-5 165 -5 17 -9z m31 14 l-13 -5 -12 5 -13 5 25 0 25 0 -12 -5z m-1678 -32
l70 -18 35 -15 35 -15 39 -38 38 -38 19 -31 19 -31 0 -20 0 -20 -9 14 -9 14
-7 -22 -7 -22 -11 15 -12 16 -30 -26 -30 -25 13 6 13 7 -7 -29 -7 -28 -9 -18
-10 -19 6 -5 5 -5 18 38 18 39 10 8 10 7 -14 9 -13 9 10 6 11 6 9 -16 9 -17
-24 -35 -24 -36 -6 -25 -6 -26 -17 -25 -16 -25 -22 -52 -22 -52 -19 -78 -18
-78 -7 49 -8 48 11 11 11 11 0 18 0 17 -15 -5 -15 -6 0 -20 0 -20 -14 5 -14 6
5 -20 5 -19 8 5 8 5 6 -23 6 -22 0 -18 0 -18 -10 6 -10 6 0 -15 0 -16 15 0 15
0 0 -15 0 -14 -17 6 -18 7 13 -16 13 -16 -16 -64 -16 -63 0 -10 0 -10 6 -180
7 -180 0 -17 -1 -18 10 0 9 0 0 -24 0 -23 15 -43 15 -43 0 -7 0 -8 -45 0 -46
1 -5 9 -6 9 13 -2 14 -1 35 2 35 2 -15 5 -15 6 -9 16 -9 15 -9 -19 -8 -20 6
25 7 25 0 25 1 25 -7 55 -8 55 -4 155 -5 155 10 33 9 34 -14 -12 -15 -12 0 10
0 10 6 17 7 17 9 -14 9 -13 -3 19 -3 19 -16 3 -17 2 -6 -29 -5 -29 5 -15 6
-15 -12 0 -13 0 6 36 6 35 -12 -4 -12 -4 2 -33 1 -32 -8 8 -8 9 -20 37 -19 37
-7 -6 -6 -6 0 14 0 14 -11 -15 -11 -15 6 28 6 27 -12 -2 -13 -3 3 18 3 17 -16
0 -15 0 0 15 0 16 -21 22 -20 22 -6 27 -5 27 -17 -6 -16 -6 7 8 8 8 -31 35
-31 35 12 7 12 7 0 7 -1 8 -22 19 -22 19 -11 -1 -11 -1 12 -4 12 -5 -6 -15 -5
-14 17 0 16 0 -7 -11 -6 -11 -39 38 -39 38 5 4 4 4 -30 25 -29 25 0 14 0 14
-9 0 -10 0 -6 19 -6 19 -17 19 -17 20 -27 17 -28 18 0 11 0 10 23 -19 22 -20
28 -17 27 -17 0 -15 0 -14 18 5 17 6 -13 -9 -13 -10 40 -51 40 -50 11 -7 12
-7 11 12 12 13 -12 -7 -13 -7 0 25 0 25 -10 6 -10 6 6 -15 6 -16 -9 0 -8 0
-11 18 -11 17 -1 9 0 9 -14 8 -13 8 1 43 1 43 27 52 28 52 40 46 41 46 51 26
51 26 35 8 35 7 40 1 40 1 70 -19z m-748 -67 l-6 -6 -13 5 -13 5 19 1 19 1 -6
-6z m8 -25 l7 -10 -4 -4 -3 -3 -19 14 -20 14 16 0 17 0 6 -11z m1048 -113
l-28 -24 -45 -61 -45 -60 -8 -1 -9 0 20 31 19 31 49 54 49 54 13 0 14 0 -29
-24z m1844 -110 l-12 -24 -7 4 -8 5 10 20 11 19 8 0 9 0 -11 -24z m-27 -76 l0
-10 -4 0 -5 0 -6 10 -6 10 10 0 11 0 0 -10z m-60 -31 l0 -10 -17 -17 -17 -17
7 18 7 19 0 9 0 9 10 0 10 0 0 -11z m-3 -71 l-5 -13 -1 19 -1 19 6 -6 6 -6 -5
-13z m-2173 -355 l5 -18 7 -58 6 -57 8 -5 7 -5 -5 -27 -5 -28 22 19 21 20 -10
10 -10 10 0 44 0 43 11 -7 11 -7 -6 -38 -6 -38 10 -6 10 -6 -1 -27 0 -27 -8
19 -8 20 -6 -18 -7 -18 0 -19 0 -19 9 0 9 0 6 13 6 12 -6 -29 -5 -30 12 -64
13 -63 -15 -10 -14 -9 12 -8 11 -7 7 -30 7 -30 -11 15 -10 15 5 -55 5 -55 -12
20 -13 20 -7 129 -7 129 -22 81 -22 81 -16 60 -15 60 -9 10 -8 9 0 8 0 9 19
-11 20 -10 5 -17z m1946 -3 l0 -21 -14 13 -14 13 12 7 11 8 3 0 2 0 0 -20z
m-30 -20 l0 -10 -10 0 -10 0 0 10 0 10 10 0 10 0 0 -10z m-1663 -42 l-5 -13
-1 19 -1 19 6 -6 6 -6 -5 -13z m-220 -20 l-5 -13 -1 19 -1 19 6 -6 6 -6 -5
-13z m-1290 -33 l11 -25 -5 0 -6 0 -13 18 -13 17 -1 8 0 7 8 0 7 0 12 -25z
m353 -65 l0 -10 -4 0 -5 0 -6 10 -6 10 10 0 11 0 0 -10z m150 -80 l0 -40 -10
0 -11 0 3 40 2 40 8 0 8 0 0 -40z m150 -166 l0 -15 -10 6 -10 6 0 10 0 9 10 0
10 0 0 -16z"/>
<path d="M2961 3885 l0 -10 9 -20 9 -20 0 15 1 15 -10 15 -10 15 1 -10z"/>
<path d="M2940 3857 l0 -16 71 -55 71 -56 9 0 8 0 56 -25 56 -26 9 6 10 6 0
-10 0 -11 -23 0 -23 0 -50 -25 -49 -24 -30 -53 -30 -53 0 -90 0 -90 22 -45 22
-45 18 -23 18 -24 23 -28 22 -28 0 -7 0 -6 13 -13 13 -13 31 -17 32 -16 53 0
53 0 38 11 37 10 0 15 0 15 9 -5 8 -5 11 25 12 25 22 9 23 9 -30 2 -30 2 -20
2 -20 1 -32 8 -32 7 -42 34 -43 34 -11 -6 -10 -6 7 7 6 8 -29 46 -29 46 0 56
0 56 29 46 30 47 38 11 38 12 12 24 11 24 -13 0 -12 0 -47 26 -46 26 -5 9 -6
9 -25 0 -24 0 0 10 0 10 11 0 11 0 -12 15 -13 15 6 7 7 6 -10 13 -11 12 16 15
15 16 0 5 0 6 -18 0 -19 0 -11 -25 -11 -24 15 -16 15 -15 -12 0 -13 0 18 -13
19 -14 -18 -7 -18 -6 -5 5 -5 5 13 0 14 0 -20 15 -19 14 -10 1 -10 0 15 -10
15 -10 -7 0 -8 0 -52 32 -53 31 -32 35 -33 36 0 -17z m267 -213 l-6 -6 -13 5
-13 5 19 1 19 1 -6 -6z"/>
<path d="M3236 3854 l-6 -15 17 3 16 3 5 13 4 12 -15 0 -15 0 -6 -16z"/>
<path d="M3202 3816 l2 -25 7 5 8 4 -2 20 -1 20 -8 0 -8 0 2 -24z"/>
<path d="M3328 3833 l12 -5 13 5 12 5 -25 0 -25 0 13 -5z"/>
<path d="M3273 3795 l0 -40 4 23 4 22 -4 18 -5 17 1 -40z"/>
<path d="M3096 3804 l-16 -15 0 -6 0 -6 20 18 20 18 0 4 0 3 -4 0 -5 0 -15
-16z"/>
<path d="M3397 3779 l6 -20 9 9 10 10 -6 11 -7 11 -9 0 -8 0 5 -21z"/>
<path d="M3190 3759 l0 -9 11 0 11 0 -6 -17 -7 -17 7 7 7 7 14 -11 13 -11 0
10 0 11 -11 7 -11 7 12 7 12 7 -26 5 -26 5 0 -8z"/>
<path d="M3453 3756 l0 -14 14 5 13 5 -6 9 -5 9 -8 0 -8 0 0 -14z"/>
<path d="M3490 3740 l0 -10 10 0 10 0 0 -10 0 -10 -10 0 -10 0 -20 -20 -20
-20 15 0 15 0 0 10 0 10 15 0 15 0 0 10 0 10 10 0 10 0 0 -8 0 -9 -22 -11 -23
-11 13 0 13 -1 20 11 20 10 -23 29 -23 29 -7 0 -8 1 0 -10z"/>
<path d="M3250 3701 l0 -10 11 -6 10 -7 4 3 3 4 -14 13 -14 13 0 -10z"/>
<path d="M3398 3683 l13 -5 6 6 6 6 -19 -1 -19 -1 13 -5z"/>
<path d="M3318 3673 l13 -5 6 6 6 6 -19 -1 -19 -1 13 -5z"/>
<path d="M3451 3631 l-13 -8 24 -5 23 -4 18 4 17 3 0 7 0 7 -28 2 -28 2 -13
-8z"/>
<path d="M3352 3608 l4 -12 26 -7 25 -7 63 -41 63 -42 38 -20 38 -19 14 0 14
0 0 14 0 14 -11 -4 -12 -4 -57 31 -57 31 0 10 0 10 -15 -6 -16 -6 -5 15 -6 15
-13 0 -12 0 -26 20 -25 20 -17 0 -17 0 4 -12z"/>
<path d="M3490 3590 l-15 -10 23 0 23 0 -6 10 -6 10 -2 0 -2 0 -15 -10z"/>
<path d="M3555 3590 l6 -10 -12 0 -11 0 11 -13 11 -13 -12 -12 -12 -12 11 0
11 0 11 14 12 14 -10 6 -10 7 6 14 5 15 -12 0 -11 0 6 -10z"/>
<path d="M2771 3574 l1 -19 5 13 5 13 -6 6 -6 6 1 -19z"/>
<path d="M3703 3480 l2 -40 10 -1 10 -1 23 2 24 2 -4 -19 -4 -18 -24 3 -24 2
-15 14 -16 13 -30 7 -30 7 30 -19 30 -19 51 -47 52 -46 13 0 12 0 -5 -5 -5 -6
28 -30 28 -31 -1 -6 -2 -7 22 -40 21 -40 1 10 0 10 -19 32 -20 31 6 6 6 6 11
-15 11 -15 13 21 13 21 -11 -7 -12 -7 11 21 12 21 -16 0 -16 0 -6 18 -6 17
-15 18 -15 17 12 26 12 27 -6 5 -5 5 0 -12 0 -12 -10 6 -9 6 6 14 5 15 -23 0
-24 0 14 9 13 9 -12 7 -13 8 -13 -17 -13 -18 -10 7 -11 6 0 10 0 10 11 -7 11
-7 9 14 9 14 0 7 0 7 -15 -5 -15 -6 -6 16 -6 16 -28 0 -29 0 2 -40z m125 -71
l18 -11 -4 -34 -4 -34 11 0 11 0 0 -14 0 -14 15 -6 15 -5 0 -16 0 -15 -10 0
-10 0 0 9 0 10 -32 31 -33 30 15 10 14 9 -7 7 -7 8 -12 -12 -12 -12 -8 0 -8 0
0 29 0 29 13 5 12 5 3 1 2 1 18 -11z"/>
<path d="M3865 3380 l-6 -10 14 -15 15 -14 14 16 13 17 -12 -8 -13 -7 0 15 0
16 -9 0 -10 0 -6 -10z"/>
<path d="M3920 3300 l0 -10 10 0 10 0 0 10 0 10 -10 0 -10 0 0 -10z"/>
<path d="M3932 3283 l-12 -5 6 -10 7 -10 8 13 9 14 1 -35 0 -35 11 22 11 22
-6 15 -6 16 -8 -1 -8 -1 -13 -5z"/>
<path d="M3553 3228 l-32 -11 -5 -13 -5 -13 42 18 42 18 15 6 15 5 -20 0 -20
0 -32 -10z"/>
<path d="M3676 3221 l-5 -8 24 5 25 4 0 4 0 4 -19 0 -20 0 -5 -9z"/>
<path d="M3905 3211 l-5 -10 12 -25 11 -26 18 16 17 16 31 -28 31 -27 -15 -17
-15 -17 0 -16 0 -16 9 -5 8 -5 -5 24 -4 25 16 -6 16 -6 0 16 0 16 -12 23 -13
22 -12 8 -13 8 0 10 0 10 9 -6 10 -5 7 11 7 12 -11 -7 -12 -7 0 13 -1 13 -12
-16 -12 -16 -24 -8 -24 -7 8 12 8 13 -13 -8 -13 -8 6 16 6 17 -4 0 -4 0 -6 -9z"/>
<path d="M3748 3188 l21 -22 8 8 8 8 -19 14 -20 14 -10 0 -10 0 22 -22z"/>
<path d="M3682 3190 l3 -14 -22 -11 -23 -10 0 -7 0 -8 24 10 24 9 8 -7 7 -7
-6 12 -7 11 11 4 11 4 -16 14 -17 13 3 -13z"/>
<path d="M3732 3168 l-12 -12 0 -7 0 -7 15 -6 15 -5 24 9 24 9 6 -15 6 -16 0
-31 0 -32 -10 15 -10 15 0 -10 0 -10 9 -14 9 -14 11 38 10 38 -15 29 -15 29
-13 -10 -13 -11 -6 7 -7 6 0 -11 0 -12 -11 0 -10 0 6 20 6 20 -3 0 -4 0 -12
-12z"/>
<path d="M3510 3161 l0 -10 -22 -4 -23 -4 25 -12 25 -12 -30 5 -31 5 -1 -20
-2 -19 10 0 9 0 0 -14 0 -15 12 -7 11 -7 -5 14 -6 14 -7 16 -6 16 25 5 26 5 0
-8 0 -8 -17 -10 -18 -10 11 -1 12 0 12 15 12 15 -11 14 -11 13 6 17 6 16 -6 0
-6 0 0 -9z"/>
<path d="M3944 3149 l-7 -12 13 8 13 8 -5 -14 -5 -14 -12 3 -11 2 0 -77 0 -78
-6 -25 -7 -25 14 13 13 12 -3 75 -2 75 6 10 7 11 13 -11 12 -10 11 13 11 13
-9 14 -10 15 0 -9 0 -8 -14 11 -14 12 -8 -12z"/>
<path d="M3900 3141 l0 -10 10 -6 10 -6 0 10 0 10 -10 6 -10 6 0 -10z"/>
<path d="M3690 3114 l0 -15 10 6 10 6 0 10 0 9 -10 0 -10 0 0 -16z"/>
<path d="M3740 3120 l-25 -6 33 -5 32 -6 0 8 0 8 -7 4 -8 4 -25 -7z"/>
<path d="M3548 3098 l-24 -23 -23 -20 -23 -19 -19 24 -19 25 10 -28 10 -28 0
-7 -1 -7 -10 18 -10 17 -7 0 -8 0 -1 -21 -2 -21 6 6 6 6 14 -11 13 -11 14 11
14 12 4 -31 5 -31 -9 -5 -9 -6 -6 22 -6 22 -8 -14 -9 -13 -9 15 -10 14 -8 -7
-7 -8 12 -8 13 -8 -7 -16 -6 -17 11 0 11 0 -5 -27 -5 -28 10 24 10 24 -6 20
-6 19 13 -4 14 -5 -2 -19 -1 -19 11 16 10 17 24 -29 24 -28 31 -16 31 -15 4 4
5 4 -24 13 -23 12 -30 31 -30 31 -3 39 -3 38 22 24 22 24 14 0 14 0 5 15 6 15
21 0 21 0 -18 -13 -18 -13 34 4 35 4 0 14 0 14 -43 0 -43 0 -23 -22z"/>
<path d="M4040 3100 l0 -19 -11 -53 -12 -53 -8 23 -8 22 -5 0 -4 0 5 -22 6
-23 10 -12 9 -13 14 0 14 0 0 10 0 9 -17 -6 -16 -6 6 17 7 18 6 24 6 24 7 -4
6 -4 0 44 1 44 -8 0 -8 0 0 -20z"/>
<path d="M3674 3093 l7 -13 -15 0 -16 0 2 -7 1 -8 -8 -29 -8 -28 14 -9 14 -9
35 1 35 2 -35 6 -35 6 4 30 3 30 11 7 12 7 -14 13 -14 13 7 -12z"/>
<path d="M3711 3078 l-1 -18 36 0 35 0 -7 11 -6 11 -23 -6 -23 -6 -5 13 -5 12
-1 -17z"/>
<path d="M3953 3038 l-1 -43 5 20 5 20 9 6 9 5 -13 18 -13 18 -1 -44z"/>
<path d="M3720 3040 l-15 -10 18 0 17 0 0 10 0 10 -2 0 -3 0 -15 -10z"/>
<path d="M3392 2968 l5 -53 23 -47 22 -48 9 0 9 0 -19 34 -20 34 7 7 6 6 -14
9 -13 8 1 51 1 51 -11 0 -10 0 4 -52z"/>
<path d="M3735 3010 l6 -10 10 0 9 0 0 10 0 10 -16 0 -15 0 6 -10z"/>
<path d="M3966 2981 l-8 -12 6 -6 6 -6 6 6 6 6 -4 12 -4 13 -8 -13z"/>
<path d="M3985 2950 l-6 -10 16 0 16 0 -6 10 -6 10 -4 0 -4 0 -6 -10z"/>
<path d="M4030 2909 l0 -10 10 6 10 6 0 5 0 4 -10 0 -10 0 0 -11z"/>
<path d="M3480 2900 l0 -11 -12 7 -13 7 8 -8 8 -9 14 -2 15 -2 0 8 0 9 -10 6
-10 6 0 -11z"/>
<path d="M3830 2900 l0 -10 15 0 15 0 0 10 0 10 -15 0 -15 0 0 -10z"/>
<path d="M3800 2889 l0 -10 10 6 10 6 0 5 0 4 -10 0 -10 0 0 -11z"/>
<path d="M3705 2875 l-60 -12 56 -2 55 -1 20 15 19 14 -15 0 -15 -1 -60 -13z"/>
<path d="M4000 2879 l0 -11 -13 5 -13 5 0 -18 0 -18 11 4 10 4 13 20 12 20
-10 0 -10 0 0 -11z"/>
<path d="M3900 2873 l15 -6 12 -16 11 -16 7 6 6 7 -16 16 -16 16 -17 -1 -17
-1 15 -5z"/>
<path d="M3755 2850 l-6 -10 10 0 11 0 0 10 0 10 -4 0 -5 0 -6 -10z"/>
<path d="M3821 2818 l1 -13 -1 -12 -1 -12 -35 -7 -36 -6 5 -5 5 -5 36 6 35 7
0 14 0 14 16 -6 16 -6 -18 21 -18 22 -4 0 -3 0 2 -12z"/>
<path d="M3746 2804 l-16 -15 0 10 0 10 -22 -2 -23 -1 -12 -12 -12 -12 28 -5
28 -6 21 5 20 6 5 19 5 19 -3 0 -4 0 -15 -16z"/>
<path d="M3485 2780 l-6 -10 17 7 17 6 -8 -13 -8 -13 11 7 12 7 0 -11 0 -11
10 6 11 7 12 -10 12 -9 18 0 17 0 0 9 0 8 -12 1 -13 1 -14 -1 -13 -2 7 11 8
12 -21 -6 -20 -7 -7 11 -6 10 -9 0 -9 0 -6 -10z"/>
<path d="M3757 2744 l-6 -6 -63 -5 -62 -4 -5 -4 -4 -5 49 0 49 0 37 6 38 7 -6
8 -5 9 -8 0 -8 0 -6 -6z"/>
<path d="M3458 2503 l12 -5 13 5 12 5 -25 0 -25 0 13 -5z"/>
<path d="M3630 2366 l0 -14 -12 -5 -13 -5 16 -1 17 -1 5 20 5 20 -9 0 -9 0 0
-14z"/>
<path d="M3708 2353 l13 -5 6 6 6 6 -19 -1 -19 -1 13 -5z"/>
<path d="M3968 2243 l13 -5 6 6 6 6 -19 -1 -19 -1 13 -5z"/>
<path d="M1901 4041 l-21 -29 0 -9 1 -8 15 20 15 20 10 18 10 17 -5 0 -5 0
-20 -29z"/>
<path d="M1860 3940 l0 -40 8 0 8 0 -4 40 -4 40 -4 0 -4 0 0 -40z"/>
<path d="M1786 3845 l-20 -15 10 0 10 0 20 15 19 14 -10 0 -10 0 -19 -14z"/>
<path d="M1120 3831 l0 -10 -15 5 -15 6 0 -11 0 -11 13 0 12 0 14 9 13 9 -11
6 -11 7 0 -10z"/>
<path d="M1310 3735 l40 -54 2 -48 2 -48 -8 -30 -7 -30 15 19 16 20 0 -6 0 -7
-11 -28 -10 -28 12 12 12 12 1 80 1 81 -5 0 -5 0 -13 30 -13 29 1 7 2 7 -29
18 -28 19 -8 0 -8 0 41 -55z"/>
<path d="M1730 3771 l-10 -20 2 -53 1 -53 6 60 6 60 8 13 8 12 -5 0 -5 0 -11
-19z"/>
<path d="M1688 3603 l22 -4 23 4 22 4 -45 0 -45 0 23 -4z"/>
<path d="M1112 3580 l0 -25 5 13 5 12 -5 13 -5 12 0 -25z"/>
<path d="M1610 3580 l-15 -10 10 0 10 0 15 10 15 10 -10 0 -10 0 -15 -10z"/>
<path d="M1392 3523 l-12 -22 0 -13 0 -12 16 22 15 23 -4 12 -4 12 -11 -22z"/>
<path d="M1552 3515 l-12 -26 1 -47 2 -47 7 55 7 55 7 18 8 17 -4 0 -5 0 -11
-25z"/>
<path d="M1304 3475 l-19 -14 23 -1 23 0 -6 9 -5 10 22 4 23 4 -21 2 -20 1
-20 -15z"/>
<path d="M1518 3343 l13 -5 6 6 6 6 -19 -1 -19 -1 13 -5z"/>
<path d="M1402 3220 l0 -35 5 18 4 17 -4 18 -5 17 0 -35z"/>
<path d="M767 3200 l5 -20 9 -6 9 -5 0 10 0 9 -6 16 -6 16 -8 0 -8 0 5 -20z"/>
<path d="M1338 3123 l12 -5 13 5 12 5 -25 0 -25 0 13 -5z"/>
<path d="M660 2885 l0 -15 10 0 9 0 -5 15 -6 15 -4 0 -4 0 0 -15z"/>
<path d="M1185 2883 l30 -5 7 -11 7 -11 6 6 7 7 -7 10 -6 11 -37 -1 -37 -2 30
-4z"/>
<path d="M1052 2745 l0 -30 5 18 5 17 -5 13 -5 12 0 -30z"/>
<path d="M1025 2705 l30 -13 8 5 8 5 -3 3 -3 2 -35 6 -35 6 30 -14z"/>
<path d="M740 2516 l0 -4 34 -4 35 -4 -5 8 -5 8 -30 0 -29 0 0 -4z"/>
<path d="M820 2496 l0 -4 16 -6 15 -6 -6 10 -6 10 -10 0 -9 0 0 -4z"/>
<path d="M488 2463 l12 -5 13 5 12 5 -25 0 -25 0 13 -5z"/>
<path d="M601 2354 l1 -19 5 13 5 13 -6 6 -6 6 1 -19z"/>
<path d="M2114 3585 l-6 -14 5 -13 5 -13 1 22 1 21 13 5 12 5 -13 1 -13 1 -5
-15z"/>
<path d="M2210 3428 l0 -16 17 -13 16 -14 -13 25 -13 25 -3 4 -4 4 0 -15z"/>
<path d="M1985 3328 l-28 -53 -20 -28 -19 -28 5 -5 5 -6 18 29 17 28 23 35 22
35 7 23 6 22 -4 0 -4 0 -28 -52z"/>
<path d="M2306 3254 l-6 -17 5 -5 5 -5 0 12 0 12 10 -6 11 -7 -13 -16 -13 -16
19 7 19 7 -12 -13 -11 -14 24 -26 24 -26 5 -13 5 -13 1 31 1 31 -20 23 -21 24
-5 23 -6 23 -8 0 -8 0 -6 -16z"/>
<path d="M2390 3138 l0 -16 -7 -18 -6 -17 11 7 12 7 9 -23 10 -23 0 16 1 17
-15 33 -14 34 -1 -17z"/>
<path d="M1855 3120 l-6 -10 10 0 11 0 0 10 0 10 -4 0 -5 0 -6 -10z"/>
<path d="M1837 3083 l-7 -6 0 -11 0 -10 12 12 12 12 -5 5 -6 5 -6 -7z"/>
<path d="M2431 3063 l-1 -21 -12 -5 -13 -5 23 1 22 1 -1 6 0 5 -9 20 -9 20 0
-22z"/>
<path d="M1815 3040 l6 -10 5 0 4 0 0 10 0 10 -11 0 -10 0 6 -10z"/>
<path d="M1792 2980 l0 -25 5 13 5 12 -5 13 -5 12 0 -25z"/>
<path d="M2504 2899 l-6 -11 16 -16 16 -16 0 17 0 18 -12 -7 -11 -7 6 16 6 17
-4 0 -4 0 -7 -11z"/>
<path d="M1570 2700 l0 -10 10 0 10 0 0 10 0 10 -10 0 -10 0 0 -10z"/>
<path d="M500 2981 l0 -20 9 -5 8 -5 -5 24 -4 25 -4 0 -4 0 0 -19z"/>
<path d="M1270 2372 l0 -9 -22 -10 -22 -9 10 -6 9 -6 30 24 30 24 -17 0 -18 0
0 -8z"/>
<path d="M1180 2309 l-35 -28 12 -1 12 0 -3 -12 -3 -13 4 7 5 8 -2 5 -1 6 26
25 27 25 -3 4 -4 3 -35 -29z"/>
<path d="M1111 2266 l-23 -13 16 -6 17 -7 -7 -11 -7 -12 12 7 12 8 -5 13 -5
14 12 4 12 4 -5 6 -5 5 -24 -12z"/>
<path d="M998 2202 l-38 -17 0 -8 0 -7 40 20 40 20 0 5 0 5 -2 -1 -3 -1 -37
-16z"/>
<path d="M930 2155 l0 -15 4 0 4 0 6 15 5 15 -9 0 -10 0 0 -15z"/>
<path d="M965 2150 l-6 -10 15 6 16 6 0 4 0 4 -9 0 -10 0 -6 -10z"/>
<path d="M401 2134 l1 -19 5 13 5 13 -6 6 -6 6 1 -19z"/>
<path d="M841 2131 l-13 -8 10 -7 10 -6 16 6 16 6 -6 9 -5 9 -7 0 -7 0 -14 -9z"/>
<path d="M895 2130 l6 -10 10 0 10 0 -6 10 -6 10 -10 0 -10 0 6 -10z"/>
<path d="M678 2093 l-18 -4 0 -11 0 -10 31 6 32 6 16 0 16 0 -15 10 -15 10
-15 -1 -15 -1 -17 -5z"/>
<path d="M719 2059 l-14 -8 -22 6 -23 5 0 -11 0 -11 20 0 20 0 18 -8 17 -9 23
-12 24 -12 4 4 5 5 47 -23 47 -23 13 10 12 10 0 9 0 9 -10 0 -10 0 0 -16 0
-15 -11 6 -10 7 5 14 5 14 -24 -6 -25 -6 -25 16 -25 16 3 12 2 11 -26 7 -27 8
-13 -9z"/>
<path d="M1010 1903 l0 -8 45 -29 46 -28 5 5 5 5 -38 23 -38 23 -3 8 -4 8 -9
0 -9 0 0 -7z"/>
<path d="M1228 1793 l13 -5 6 6 6 6 -19 -1 -19 -1 13 -5z"/>
<path d="M2822 2398 l13 -26 49 -52 48 -51 2 3 2 3 14 20 15 20 -18 -14 -17
-14 -7 7 -7 7 13 8 13 8 -17 6 -16 7 7 -11 7 -12 -14 5 -14 5 3 19 4 19 4 4 4
5 15 -20 14 -19 1 16 0 17 -17 6 -17 7 -14 -18 -13 -18 -10 18 -10 17 -25 28
-25 27 13 -27z"/>
<path d="M2885 2389 l-7 -10 5 -5 5 -5 5 16 6 15 -4 0 -4 0 -6 -11z"/>
<path d="M2990 2279 l0 -12 27 -23 27 -23 -4 -5 -5 -4 -42 28 -42 29 5 -13 5
-13 40 -22 40 -23 20 18 19 17 7 -6 7 -7 -20 -14 -19 -14 7 -8 8 -7 19 17 19
17 6 -16 6 -16 10 6 10 6 -27 25 -27 25 -23 -6 -22 -5 -16 30 -16 30 -9 0 -10
0 0 -11z"/>
<path d="M3045 2260 l6 -10 10 0 9 0 0 10 0 10 -16 0 -15 0 6 -10z"/>
<path d="M3087 2174 l-6 -7 5 -8 5 -8 14 5 15 6 -6 9 -5 9 -8 0 -8 0 -6 -6z"/>
<path d="M3115 2140 l6 -10 10 0 10 0 -6 10 -6 10 -10 0 -10 0 6 -10z"/>
<path d="M3188 2118 l-18 -18 8 0 8 0 12 12 12 12 18 -18 17 -18 -13 -5 -13
-5 32 -24 33 -24 22 0 22 0 13 16 13 16 -15 9 -14 9 -30 0 -30 0 15 -11 15
-10 -20 3 -20 3 0 20 0 20 -7 11 -8 12 -17 4 -18 4 -17 -18z m132 -63 l-13
-15 -4 4 -5 5 7 10 6 11 11 0 10 0 -12 -15z"/>
<path d="M3146 1955 l-15 -15 -12 0 -12 0 5 -5 6 -6 26 7 26 6 -5 8 -5 8 12 5
13 5 -12 1 -12 1 -15 -15z"/>
<path d="M3228 1953 l13 -5 6 6 6 6 -19 -1 -19 -1 13 -5z"/>
<path d="M3050 1923 l-15 -5 -37 -18 -36 -19 -8 7 -7 7 6 -12 7 -11 20 5 20 5
0 8 0 8 30 7 30 7 5 9 6 9 -3 -1 -3 -1 -15 -5z"/>
<path d="M2915 1870 l-6 -10 10 0 10 0 6 10 6 10 -10 0 -10 0 -6 -10z"/>
<path d="M2818 1814 l-28 -15 0 -3 0 -4 20 5 19 5 12 14 11 14 -3 0 -4 -1 -27
-15z"/>
<path d="M463 1712 l29 -30 29 -4 30 -5 37 8 37 8 -40 -1 -40 -1 -16 2 -16 1
-39 26 -39 26 28 -30z"/>
<path d="M671 1664 l1 -19 5 13 5 13 -6 6 -6 6 1 -19z"/>
<path d="M739 1521 l23 -21 12 0 11 0 -15 10 -15 11 -20 10 -20 10 24 -20z"/>
<path d="M898 1493 l13 -5 6 6 6 6 -19 -1 -19 -1 13 -5z"/>
<path d="M980 1381 l0 -9 15 -12 15 -13 4 4 3 4 -19 18 -18 17 0 -9z"/>
<path d="M814 1341 l6 -9 30 -4 30 -5 0 8 0 7 -22 6 -23 6 -13 0 -13 0 5 -9z"/>
<path d="M1030 1345 l0 -4 31 -16 31 -16 4 3 4 4 -35 17 -35 17 0 -5z"/>
<path d="M808 1313 l12 -5 13 5 12 5 -25 0 -25 0 13 -5z"/>
<path d="M936 1313 l-7 -7 -32 -1 -32 -2 -48 -1 -49 -2 4 -12 5 -13 29 -6 29
-7 -27 -1 -26 -1 -4 -10 -3 -10 -30 9 -30 9 34 1 33 1 -12 15 -13 16 -35 -6
-36 -6 -4 -3 -4 -4 11 -21 11 -20 -24 -17 -25 -16 -9 6 -10 6 -6 -28 -7 -27
-5 -18 -6 -19 24 7 23 6 -15 -10 -15 -11 15 -9 14 -10 9 6 9 5 -5 19 -5 19 7
0 7 0 13 -12 12 -13 -3 11 -3 12 29 25 30 26 47 11 47 12 36 -11 37 -10 19
-23 20 -23 -2 -62 -1 -63 -31 0 -31 0 -15 -11 -15 -10 35 5 35 6 -27 -11 -28
-11 0 -18 0 -18 16 -6 15 -6 -6 9 -5 9 17 5 18 5 -25 2 -25 2 30 7 30 7 -2 11
-3 12 18 6 19 5 1 53 2 52 -15 29 -15 28 0 6 0 6 11 -11 11 -11 15 5 14 6 -4
-24 -4 -24 4 13 5 13 14 -12 14 -11 0 -9 0 -9 -20 0 -20 0 0 -10 0 -9 16 6 17
6 11 -14 11 -15 18 -7 17 -6 0 9 0 9 -20 6 -20 6 0 10 0 10 19 -11 20 -10 5 0
6 0 0 10 0 10 -9 -3 -8 -2 -37 33 -37 34 4 11 3 11 12 4 12 4 -6 -19 -6 -18
12 18 12 18 19 -17 19 -17 0 11 0 12 -10 0 -10 0 2 8 2 7 -12 22 -12 22 -45
30 -46 31 -3 0 -3 0 -7 -7z m-49 -19 l-6 -6 -13 5 -13 5 19 1 19 1 -6 -6z m86
-6 l22 -11 13 -16 13 -16 -7 14 -7 14 12 -7 12 -8 -5 -14 -5 -14 14 0 14 0 5
-9 6 -9 -15 2 -14 2 -7 7 -8 7 -23 -22 -23 -21 0 17 0 18 21 5 22 6 -19 14
-19 14 2 7 2 7 -12 -2 -12 -3 -40 -9 -40 -10 49 2 49 2 5 -14 5 -14 -13 8 -13
8 6 -10 6 -10 -14 -19 -15 -19 -13 17 -13 17 -30 5 -29 4 -33 1 -33 1 5 9 6 8
32 7 33 7 -15 9 -15 9 37 -6 37 -5 18 6 17 7 -14 9 -15 10 18 0 18 0 22 -12z
m-213 -58 l0 -10 18 0 17 -1 -38 -13 -38 -14 -18 -21 -18 -21 -7 0 -7 0 7 12
7 11 -17 -6 -17 -7 6 10 6 10 17 0 17 0 25 20 25 20 -15 10 -15 10 23 0 22 0
0 -10z"/>
<path d="M617 1227 l-17 -32 20 24 20 23 0 9 0 9 -2 0 -3 0 -18 -33z"/>
<path d="M576 1139 l-6 -31 6 -9 5 -9 10 5 9 6 0 -10 0 -10 -10 -6 -10 -6 0
-10 0 -9 9 3 9 2 1 -8 0 -8 15 -14 15 -15 9 0 10 0 12 -15 12 -15 -12 0 -12 0
4 -12 4 -11 22 -3 21 -4 5 9 6 9 -19 58 -18 57 -21 2 -21 2 -6 -15 -5 -15 11
-13 11 -14 -7 0 -8 0 -13 18 -13 17 -1 8 0 8 9 -6 10 -5 -2 19 -1 20 -8 -5 -8
-5 0 11 0 11 -10 -6 -10 -6 6 31 7 30 -5 0 -5 0 -7 -31z m104 -108 l10 -20 -8
-5 -7 -4 -12 24 -11 24 9 0 8 0 11 -19z"/>
<path d="M1066 1151 l-8 -12 6 -6 6 -6 6 6 6 6 -4 12 -4 13 -8 -13z"/>
<path d="M1375 1140 l6 -10 5 0 4 0 0 10 0 10 -11 0 -10 0 6 -10z"/>
<path d="M786 1088 l-16 -22 0 -29 0 -28 20 -44 20 -45 25 -16 25 -17 46 6 46
5 10 10 11 11 -19 -4 -19 -4 -33 -5 -33 -6 6 10 6 10 -18 0 -19 0 -18 21 -18
21 -10 29 -10 29 6 15 5 15 12 0 11 0 -12 -15 -12 -15 11 0 11 0 -6 -24 -6
-24 27 6 27 5 -11 -21 -11 -21 0 -5 0 -6 11 0 10 0 -6 10 -6 10 8 0 9 0 1 20
2 20 -27 1 -27 0 20 8 19 8 -18 10 -19 10 8 13 8 12 8 -13 9 -14 -6 35 -7 35
-3 4 -4 4 -1 -29 -1 -29 -5 13 -5 13 -14 -12 -14 -12 -8 7 -7 7 24 18 24 18
-11 7 -11 6 -15 -22z"/>
<path d="M1101 1097 l-11 -14 -3 -32 -4 -33 -13 -8 -12 -7 10 -7 11 -6 39 6
40 6 36 -37 36 -36 10 -40 11 -40 -7 -22 -6 -22 -21 -23 -21 -22 -40 -11 -41
-11 45 -18 45 -17 57 -5 58 -5 17 20 18 19 0 102 0 101 -23 49 -23 49 -13 13
-13 13 -38 25 -38 26 -47 0 -48 0 -11 -13z"/>
<path d="M1010 1071 l0 -9 17 -6 16 -7 11 12 11 12 -12 -7 -13 -7 0 10 0 11
-15 0 -15 0 0 -9z"/>
<path d="M1370 1056 l0 -15 9 -5 9 -6 -5 20 -5 20 -4 0 -4 0 0 -14z"/>
<path d="M990 1048 l0 -18 10 0 9 0 -5 -15 -6 -15 11 0 11 0 0 -15 0 -15 20 0
20 0 0 11 0 10 -11 -7 -11 -7 -9 14 -9 14 0 8 0 8 16 -3 17 -3 4 11 4 11 -26
-2 -25 -3 -10 16 -9 17 -1 -17z"/>
<path d="M970 998 l0 -16 -12 -5 -13 -4 7 -8 8 -8 16 14 17 14 4 -3 5 -4 6 8
7 7 -12 -7 -12 -6 -10 17 -10 18 -1 -17z"/>
<path d="M1420 982 l0 -11 11 -6 10 -7 5 5 4 4 -15 13 -15 12 0 -10z"/>
<path d="M1005 950 l-6 -10 10 0 10 0 6 10 6 10 -10 0 -10 0 -6 -10z"/>
<path d="M977 929 l13 -13 5 6 6 6 -18 6 -18 7 12 -12z"/>
<path d="M800 831 l0 -10 10 -6 10 -6 0 10 0 10 -10 6 -10 6 0 -10z"/>
<path d="M1560 822 l0 -13 21 -42 22 -42 11 -7 11 -8 10 0 10 1 -18 10 -19 11
-24 52 -24 51 0 -13z"/>
<path d="M838 803 l13 -5 6 6 6 6 -19 -1 -19 -1 13 -5z"/>
<path d="M895 770 l6 -10 20 0 20 0 -6 10 -6 10 -20 0 -20 0 6 -10z"/>
<path d="M1027 690 l-18 -18 11 -7 11 -7 3 3 4 4 6 23 7 22 -3 -1 -3 0 -18
-19z"/>
<path d="M1660 690 l15 -10 10 0 10 0 -15 10 -15 10 -10 0 -10 0 15 -10z"/>
<path d="M880 680 l0 -10 10 0 10 0 0 10 0 10 -10 0 -10 0 0 -10z"/>
<path d="M1230 680 l0 -10 13 0 12 0 15 10 15 10 -27 0 -28 0 0 -10z"/>
<path d="M1352 630 l3 -35 23 -1 22 -2 -20 5 -20 4 0 15 0 14 18 1 17 1 -15 5
-15 6 -8 11 -8 11 3 -35z"/>
<path d="M995 610 l6 -10 5 0 4 0 0 10 0 10 -11 0 -10 0 6 -10z"/>
<path d="M1410 611 l0 -9 25 -6 25 -6 0 -18 -1 -17 -13 18 -13 17 -14 0 -14 0
25 -20 25 -20 8 0 7 0 0 21 0 22 -17 13 -18 13 -12 1 -13 0 0 -9z"/>
<path d="M1653 565 l0 -60 4 33 4 32 -4 28 -4 27 0 -60z"/>
<path d="M1007 583 l-7 -6 0 -10 0 -9 14 5 14 6 18 -20 17 -19 14 0 13 0 0
-10 0 -10 13 0 12 1 -22 18 -22 19 6 6 6 6 -22 0 -22 0 -5 15 -6 15 -7 0 -8 0
-6 -7z"/>
<path d="M1108 582 l-18 -3 0 -7 0 -7 8 -11 7 -10 42 8 42 9 -6 16 -6 16 -12
-17 -12 -16 -11 0 -11 0 -3 13 -3 13 -17 -4z"/>
<path d="M1485 580 l6 -10 5 0 4 0 0 10 0 10 -11 0 -10 0 6 -10z"/>
<path d="M1355 560 l-6 -10 15 6 16 6 0 4 0 4 -9 0 -10 0 -6 -10z"/>
<path d="M1542 515 l0 -30 5 18 5 17 -5 13 -5 12 0 -30z"/>
<path d="M1511 510 l-1 -25 10 -15 10 -15 -1 15 -1 15 -8 25 -8 25 -1 -25z"/>
<path d="M1480 465 l0 -15 10 0 10 0 0 15 0 15 -10 0 -10 0 0 -15z"/>
<path d="M1729 410 l23 -20 12 1 11 0 -22 11 -23 11 0 9 0 8 -12 0 -13 -1 24
-19z"/>
<path d="M1740 320 l0 -10 11 0 10 0 -6 10 -6 10 -5 0 -4 0 0 -10z"/>
<path d="M3793 1536 l2 -19 15 -4 15 -5 -11 9 -11 8 -6 15 -7 15 3 -19z"/>
<path d="M3618 1443 l13 -5 6 6 6 6 -19 -1 -19 -1 13 -5z"/>
<path d="M3318 1423 l13 -5 6 6 6 6 -19 -1 -19 -1 13 -5z"/>
<path d="M3375 1346 l-30 -13 -43 -43 -42 -42 -20 -43 -19 -42 4 -22 4 -21
-10 0 -9 0 0 10 0 10 -35 0 -35 0 0 -11 0 -11 20 5 20 5 13 -11 12 -12 23 0
22 0 0 -10 -1 -10 -22 2 -22 3 21 -9 22 -10 7 -10 6 -11 17 0 17 1 -25 14 -25
14 31 1 31 0 7 -7 8 -8 9 0 9 0 -1 -9 -1 -9 14 -8 13 -9 -25 -1 -25 -1 25 -8
25 -8 -12 -1 -13 -1 0 -10 0 -10 13 3 12 2 -2 -12 -3 -13 8 0 9 0 -8 -54 -7
-54 -7 -23 -7 -22 -10 16 -9 17 -19 0 -20 0 0 -6 0 -5 15 -15 15 -15 0 18 1
18 13 -23 12 -23 13 15 13 16 2 25 1 25 8 0 7 0 0 44 0 43 -14 40 -14 39 5 39
4 39 16 18 16 18 36 10 36 10 26 0 27 0 48 -33 48 -34 9 -39 8 -39 -27 -77
-27 -78 -8 0 -7 0 -11 -33 -11 -33 -23 -29 -22 -28 -48 -56 -48 -55 -47 -23
-47 -22 -12 0 -13 -1 0 -11 0 -10 -20 6 -20 6 17 -34 18 -34 13 5 14 5 -13 7
-12 8 14 5 14 4 -18 -3 -18 -2 4 11 4 12 17 -3 16 -3 18 11 17 11 -25 -6 -25
-5 54 25 53 25 9 -6 9 -5 -2 13 -3 13 12 -2 12 -3 -6 16 -6 16 28 -18 28 -18
-12 -4 -11 -4 0 -9 0 -10 22 12 21 11 -17 10 -16 9 5 9 6 9 16 -6 17 -7 -14
16 -15 15 -11 -15 -11 -15 -6 10 -6 10 38 39 39 39 -5 12 -5 13 9 0 9 0 14
-12 14 -13 -13 17 -13 17 31 51 31 50 20 67 21 68 19 55 19 55 -5 23 -6 22 10
0 11 0 4 -27 4 -28 2 28 1 29 21 29 21 30 -14 -3 -13 -3 -8 -19 -7 -18 -26 37
-25 38 -12 11 -12 11 -31 17 -31 17 -44 12 -44 11 -40 4 -40 4 -30 -14z m192
-152 l-6 -6 -13 5 -13 5 19 1 19 1 -6 -6z"/>
<path d="M3848 1283 l12 -5 13 5 12 5 -25 0 -25 0 13 -5z"/>
<path d="M3820 1250 l0 -10 10 0 10 0 0 10 0 10 -10 0 -10 0 0 -10z"/>
<path d="M3765 1230 l6 -10 15 0 14 0 0 10 0 10 -21 0 -20 0 6 -10z"/>
<path d="M3941 1223 l1 -18 5 13 5 12 9 -6 9 -5 0 10 0 11 -15 0 -15 0 1 -17z"/>
<path d="M3820 1210 l0 -10 10 0 10 0 0 10 0 10 -10 0 -10 0 0 -10z"/>
<path d="M3952 1201 l-13 -8 16 -13 15 -12 0 15 0 16 18 4 17 5 -20 1 -20 1
-13 -9z"/>
<path d="M3880 1191 l0 -10 10 -6 10 -6 0 15 0 16 -10 0 -10 0 0 -9z"/>
<path d="M3865 1147 l-7 -18 6 -6 6 -6 6 6 6 5 -5 19 -4 18 -8 -18z"/>
<path d="M2728 1123 l12 -5 13 5 12 5 -25 0 -25 0 13 -5z"/>
<path d="M3065 1120 l-20 -8 -35 -31 -35 -30 11 -1 10 0 34 30 34 30 5 0 6 0
10 -8 10 -7 3 -12 2 -13 -14 0 -15 0 -13 -18 -13 -19 -15 -6 -15 -5 18 -1 17
-1 0 -10 0 -10 -16 0 -15 0 6 -10 6 -10 24 16 23 15 7 -10 6 -11 -18 0 -18 0
-13 -20 -13 -21 -11 7 -11 7 7 -11 7 -12 -10 0 -9 0 -5 8 -4 7 4 -14 3 -14 -9
-11 -10 -12 9 -14 10 -15 0 17 0 16 46 41 45 40 29 6 28 6 40 -10 40 -11 17
-27 18 -27 1 -35 1 -35 -25 -13 -25 -13 10 0 10 0 -15 -11 -15 -11 15 6 15 6
17 6 17 6 8 22 7 21 1 7 0 6 8 8 7 7 0 -17 0 -17 18 3 17 3 1 22 1 21 -13 -5
-14 -5 0 18 0 19 -10 -15 -10 -15 0 13 0 12 -15 0 -15 0 0 11 0 10 10 -6 10
-6 -2 13 -3 13 18 -1 17 -2 0 14 0 14 -14 0 -14 0 -19 6 -18 6 18 -15 18 -15
-10 -7 -11 -6 -13 13 -12 13 -2 13 -3 12 10 0 10 0 0 9 0 9 -16 6 -16 6 -16
-10 -17 -11 23 6 22 6 0 -10 0 -10 -12 -8 -13 -7 -30 3 -30 3 -19 10 -18 10 6
-10 6 -10 -30 2 -29 2 -7 7 -7 7 17 0 17 0 -6 11 -7 10 17 -3 18 -3 2 15 3 15
5 28 6 27 -17 -1 -17 0 -20 -9z"/>
<path d="M3751 1098 l-1 -18 -10 0 -10 0 0 -22 0 -23 15 29 16 29 -5 11 -4 11
-1 -17z"/>
<path d="M3840 1092 l0 -23 14 -15 15 -14 6 20 6 20 10 0 9 0 0 11 0 10 -21
-6 -21 -7 -9 13 -9 14 0 -23z"/>
<path d="M3049 1069 l-24 -20 22 10 22 11 6 10 6 10 -4 0 -5 0 -23 -21z"/>
<path d="M3921 1074 l1 -19 5 13 5 13 -6 6 -6 6 1 -19z"/>
<path d="M3145 1059 l-7 -21 13 -9 14 -9 7 0 6 0 -3 18 -3 17 -1 13 -1 12 -9
0 -10 0 -6 -21z"/>
<path d="M3315 1050 l-20 -9 17 0 17 -1 6 10 6 10 -3 -1 -3 0 -20 -9z"/>
<path d="M3790 1050 l0 -10 -15 0 -15 0 0 -19 0 -19 18 -13 17 -14 -14 18 -14
17 17 -6 18 -7 -5 -18 -5 -19 11 7 10 6 -6 -17 -7 -18 0 -6 -1 -7 -15 25 -15
25 6 -25 6 -25 -14 17 -13 17 -11 -7 -11 -7 24 -18 24 -18 0 10 0 10 19 -4 20
-4 -6 16 -6 16 15 -6 16 -6 -2 15 -2 16 -15 9 -14 10 25 -7 25 -7 -14 17 -13
16 6 0 7 0 18 -9 17 -10 12 20 12 19 -9 0 -9 0 -4 -12 -5 -13 -36 28 -36 27
-5 0 -6 0 0 -10z"/>
<path d="M2913 988 l-38 -52 -12 -24 -13 -24 0 -4 0 -4 9 0 9 0 12 33 13 32
17 20 17 20 18 28 17 27 -5 0 -5 0 -39 -52z"/>
<path d="M3703 1027 l0 -12 -7 -28 -6 -27 15 0 15 0 0 40 0 40 -8 0 -9 0 0
-13z"/>
<path d="M2990 1010 l0 -10 11 0 10 0 -6 10 -6 10 -5 0 -4 0 0 -10z"/>
<path d="M3663 985 l-11 -35 11 0 12 0 2 35 2 35 -3 0 -3 0 -10 -35z"/>
<path d="M3322 985 l0 -30 5 18 5 17 -5 13 -5 12 0 -30z"/>
<path d="M2950 985 l-12 -15 10 0 11 0 6 11 7 10 -5 5 -4 4 -13 -15z"/>
<path d="M3640 920 l0 -21 14 -5 15 -6 -6 -14 -5 -14 -19 0 -19 0 0 -6 0 -6
18 -23 19 -23 14 19 13 19 12 0 11 0 17 19 17 19 -16 15 -15 16 22 5 23 4 -47
-1 -48 -2 0 12 0 13 -10 0 -10 0 0 -20z"/>
<path d="M2897 913 l-7 -6 0 -9 0 -8 15 0 14 0 -6 -16 -6 -16 -9 14 -10 13 6
-18 6 -19 0 -11 1 -12 14 30 13 30 2 -25 1 -25 9 -20 8 -20 7 40 8 40 8 5 9 6
-19 16 -18 15 3 -46 3 -46 -8 25 -8 25 -8 23 -7 22 -7 0 -8 0 -6 -7z"/>
<path d="M3130 891 l0 -11 13 0 12 0 19 -25 19 -25 8 6 9 5 -12 13 -13 12 -27
18 -28 18 0 -11z"/>
<path d="M3620 891 l0 -10 10 -6 10 -6 0 15 0 16 -10 0 -10 0 0 -9z"/>
<path d="M2847 864 l-7 -7 0 -14 0 -14 10 6 10 6 0 -12 0 -12 5 5 5 5 -8 22
-8 22 -7 -7z"/>
<path d="M2973 833 l-12 -38 4 -3 3 -4 12 22 11 21 -3 20 -3 21 -12 -39z"/>
<path d="M3087 853 l-7 -6 0 -11 0 -10 12 12 12 12 -5 5 -6 5 -6 -7z"/>
<path d="M3120 845 l0 -15 10 0 9 0 -5 15 -6 15 -4 0 -4 0 0 -15z"/>
<path d="M2881 834 l1 -19 5 13 5 13 -6 6 -6 6 1 -19z"/>
<path d="M2832 790 l0 -35 5 18 4 17 -4 18 -5 17 0 -35z"/>
<path d="M2921 813 l-1 -12 -20 -6 -20 -6 -10 -19 -10 -18 15 2 15 2 13 19 14
18 7 -11 6 -11 -10 -6 -10 -6 0 -10 0 -9 15 0 15 0 -1 18 -1 17 -8 25 -8 25
-1 -12z"/>
<path d="M3086 812 l-6 -11 11 -6 10 -7 4 4 4 4 -8 13 -8 13 -7 -10z"/>
<path d="M3120 810 l0 -10 18 -1 17 0 -24 -10 -24 -9 4 -5 5 -4 22 6 22 5 0 8
0 7 26 -5 27 -5 -7 11 -7 11 -16 -6 -16 -6 8 14 8 14 -13 -12 -13 -12 -19 10
-18 10 0 -11z"/>
<path d="M3240 810 l0 -10 11 0 10 0 -6 10 -6 10 -5 0 -4 0 0 -10z"/>
<path d="M3280 800 l11 -20 5 0 5 0 -11 20 -11 20 -5 0 -5 0 11 -20z"/>
<path d="M3586 802 l-5 -8 9 -14 9 -14 -17 -12 -17 -12 6 -6 5 -5 32 22 32 22
0 9 0 8 -15 -12 -15 -13 -7 7 -7 7 13 8 13 8 -16 6 -15 6 -5 -7z"/>
<path d="M3320 780 l0 -10 -15 0 -15 0 0 -11 0 -11 -15 6 -15 5 -31 -13 -32
-13 10 -6 10 -6 36 10 37 10 27 24 28 24 -12 1 -13 0 0 -10z"/>
<path d="M2967 766 l-7 -18 30 -41 30 -41 0 11 0 11 -15 12 -15 12 6 9 5 9
-10 0 -10 0 -3 28 -3 27 -8 -19z"/>
<path d="M3205 771 l-5 -10 8 -5 9 -5 0 14 0 15 -3 0 -3 0 -6 -9z"/>
<path d="M3141 763 l-23 -5 27 -14 27 -14 9 0 9 0 0 10 0 10 -17 1 -18 0 20 9
20 9 -15 -1 -15 -1 -24 -4z"/>
<path d="M3525 720 l-6 -10 10 0 10 0 6 10 6 10 -10 0 -10 0 -6 -10z"/>
<path d="M3030 664 l0 -6 23 -19 22 -18 13 -1 12 0 0 -10 0 -9 -34 -7 -35 -6
6 -14 5 -14 10 0 9 0 -5 8 -5 8 35 13 34 12 22 -7 21 -6 -23 -13 -24 -13 34 3
35 3 13 1 12 1 0 9 0 9 -32 6 -33 6 -57 35 -58 34 0 -5z"/>
<path d="M2961 606 l-24 -13 12 -7 11 -7 0 9 0 9 30 -2 30 -2 -11 14 -11 13
-7 0 -6 -1 -24 -13z"/>
<path d="M3435 611 l-5 -10 11 -6 10 -7 6 6 6 6 -12 0 -12 0 6 10 6 10 -5 0
-5 0 -6 -9z"/>
<path d="M2908 603 l13 -5 6 6 6 6 -19 -1 -19 -1 13 -5z"/>
<path d="M3365 590 l6 -10 -14 -6 -14 -5 0 -14 0 -15 22 23 21 22 -3 8 -4 7
-10 0 -10 0 6 -10z"/>
<path d="M3088 563 l13 -5 6 6 6 6 -19 -1 -19 -1 13 -5z"/>
<path d="M3216 561 l-8 -12 6 -6 6 -6 6 6 6 6 -4 12 -4 13 -8 -13z"/>
<path d="M3090 530 l-14 -9 -8 5 -8 5 5 -13 5 -13 25 0 25 0 0 12 0 12 -8 5
-8 5 -14 -9z"/>
<path d="M3245 529 l-7 -10 6 -6 6 -7 11 11 11 11 -10 6 -11 6 -6 -11z"/>
<path d="M3017 496 l-6 -14 16 -6 16 -6 3 2 2 3 -13 18 -13 18 -5 -15z"/>
<path d="M3075 470 l-6 -10 15 6 16 6 0 4 0 4 -9 0 -10 0 -6 -10z"/>
<path d="M3122 473 l-13 -5 12 -14 11 -14 22 1 21 0 -23 10 -23 9 6 10 6 10
-3 -1 -3 -1 -13 -5z"/>
<path d="M3160 476 l0 -4 16 -6 15 -6 -6 10 -6 10 -10 0 -9 0 0 -4z"/>
<path d="M2386 1517 l6 -18 6 6 6 5 -13 13 -12 12 7 -18z"/>
<path d="M1736 1397 l6 -18 6 6 6 5 -13 13 -12 12 7 -18z"/>
<path d="M2270 1365 l0 -15 10 0 10 0 0 -16 0 -16 -14 11 -13 11 -17 -6 -16
-6 0 -5 0 -6 22 -18 21 -19 6 0 6 0 18 31 17 31 -6 9 -5 9 -20 10 -19 11 0
-16z m0 -45 l0 -10 -10 0 -10 0 0 10 0 10 10 0 10 0 0 -10z"/>
<path d="M2240 1260 l-11 -21 5 -12 5 -12 6 22 7 22 15 -6 16 -6 -5 13 -4 14
-11 3 -12 4 -11 -21z"/>
<path d="M2227 1193 l5 -13 9 0 9 0 0 13 0 14 -14 0 -14 0 5 -14z"/>
<path d="M2190 1184 l0 -15 10 6 10 6 0 10 0 9 -10 0 -10 0 0 -16z"/>
<path d="M1870 1183 l0 -10 20 -18 20 -18 0 10 0 10 -20 18 -20 18 0 -10z"/>
<path d="M2211 1084 l1 -19 5 13 5 13 -6 6 -6 6 1 -19z"/>
<path d="M2150 1075 l-2 -20 -3 -17 -3 -18 8 -5 8 -5 6 15 5 15 -11 0 -12 0
20 16 19 15 -12 -5 -11 -6 -5 17 -5 18 -2 -20z"/>
<path d="M1980 1021 l0 -10 10 -6 10 -6 0 10 0 10 -10 6 -10 6 0 -10z"/>
<path d="M2131 984 l-1 -21 18 -16 19 -17 5 0 6 0 6 16 6 16 -15 -6 -15 -5 7
27 6 27 -15 -13 -16 -13 -5 13 -5 13 -1 -21z"/>
<path d="M2102 940 l0 -25 5 13 5 12 -5 13 -5 12 0 -25z"/>
<path d="M2190 320 l0 -10 11 0 10 0 -6 10 -6 10 -5 0 -4 0 0 -10z"/>
</g>
</svg>
