<?xml version="1.0" standalone="no"?>
<!DOCTYPE svg PUBLIC "-//W3C//DTD SVG 20010904//EN"
 "http://www.w3.org/TR/2001/REC-SVG-20010904/DTD/svg10.dtd">
<svg version="1.0" xmlns="http://www.w3.org/2000/svg"
   viewBox="0 0 89.000000 79.000000"
 preserveAspectRatio="xMidYMid meet">
<metadata>
Created by potrace 1.16, written by Peter Selinger 2001-2019
</metadata>
<g transform="translate(0.000000,79.000000) scale(0.100000,-0.100000)"
fill-opacity="0.2" fill="#000000" stroke="none">
<path d="M340 782 l-35 -4 -12 -10 -13 -10 -15 6 -15 5 -6 -24 -6 -24 -14 -5
-13 -5 -6 9 -6 10 15 0 16 0 0 10 0 10 -15 0 -15 0 0 -10 0 -10 -14 0 -14 0
-12 -16 -13 -15 14 3 14 3 7 10 8 10 0 -20 0 -20 8 10 7 10 20 3 20 3 -20 -14
-20 -14 -17 0 -18 0 0 7 0 6 -20 1 -20 2 0 -20 0 -20 -9 5 -9 6 -6 -16 -6 -15
-10 6 -10 6 0 -11 0 -12 18 6 17 6 -19 -15 -20 -15 -9 0 -8 0 6 -20 6 -20 -14
6 -15 5 -7 -28 -8 -28 -3 -13 -2 -14 6 7 7 7 1 6 2 7 7 22 7 23 18 -10 19 -10
7 0 6 0 -9 13 -10 12 0 18 0 17 13 0 12 0 5 13 5 12 1 -11 1 -12 -15 -12 -15
-12 0 -9 0 -9 17 0 16 0 -6 7 -7 6 11 13 11 14 8 -5 8 -5 12 15 12 14 -20 -4
-21 -4 -12 16 -13 15 37 -7 37 -7 0 10 0 11 -21 -4 -20 -4 4 12 4 12 19 -3 19
-3 30 -3 30 -3 23 20 22 20 0 -12 0 -13 15 5 14 6 6 -9 6 -10 10 0 9 0 0 14 0
14 15 6 15 5 0 -7 -1 -7 -14 -19 -14 -19 -14 6 -15 5 -12 -11 -13 -12 8 14 8
14 -13 -5 -14 -4 -4 -12 -4 -12 29 1 28 1 25 7 25 7 12 -15 12 -16 -2 22 -1
21 -18 -3 -18 -4 0 8 0 8 6 6 7 6 21 -11 21 -12 9 2 9 3 -13 -17 -14 -16 19
-14 19 -14 13 0 13 0 0 11 0 10 11 -7 11 -6 -9 -7 -9 -6 1 -12 0 -11 8 -8 7
-7 0 15 0 16 15 12 15 12 -6 9 -5 9 -9 -5 -9 -5 -7 11 -7 12 -13 -17 -12 -17
-7 11 -6 10 -10 -5 -9 -6 0 6 0 7 23 19 22 18 -20 2 -20 1 -8 -1 -8 -1 7 11 7
12 -16 -6 -16 -6 -5 8 -5 8 6 6 6 6 19 -10 18 -10 12 7 11 7 -28 11 -28 11 16
13 15 13 8 -12 7 -12 -13 8 -13 8 7 -11 7 -11 13 5 13 5 17 -16 16 -16 0 8 0
8 8 -10 7 -10 28 -18 28 -18 11 7 11 7 -7 -11 -7 -12 10 0 11 0 0 -11 0 -10
-9 6 -10 5 -5 -9 -6 -9 16 -6 16 -6 3 0 3 0 4 23 4 22 -18 18 -18 17 0 -12 0
-11 -7 7 -8 8 0 11 0 12 -23 -1 -23 -1 6 18 6 19 -13 2 -13 1 -13 1 -13 1 -10
15 -11 15 6 -19 6 -19 -12 11 -13 10 -35 9 -35 8 -35 -3z m0 -16 l0 -5 -10 -6
-10 -6 0 10 0 11 10 0 10 0 0 -4z m70 -4 l0 -3 -10 -20 -11 -19 -17 3 -17 3
-12 7 -12 7 -5 -9 -6 -10 10 -6 10 -6 0 -15 0 -15 -10 6 -10 6 6 11 7 11 -15
-5 -15 -6 -12 7 -12 8 16 17 16 16 -12 0 -12 0 6 6 6 6 12 -8 13 -8 25 -1 26
-2 10 6 10 5 -25 7 -25 7 33 -1 32 -1 0 -4z m-144 -57 l-15 -29 -16 -2 -16 -2
13 15 12 15 2 16 3 15 13 8 13 8 3 -8 3 -8 -15 -28z m249 35 l6 -10 -10 0 -10
0 -6 10 -6 10 10 0 10 0 6 -10z"/>
<path d="M775 766 l2 -21 8 -23 7 -22 14 17 13 18 1 23 0 22 -7 1 -8 1 -16 3
-16 3 2 -22z m32 -17 l-1 -17 -11 5 -12 4 0 13 0 13 13 0 13 0 -2 -18z"/>
<path d="M10 765 l-12 -15 10 0 10 0 6 15 5 15 -3 0 -4 0 -12 -15z"/>
<path d="M822 719 l-13 -21 10 7 11 6 0 -6 0 -6 -15 -15 -15 -15 1 -17 1 -17
5 18 4 17 8 0 8 0 -2 -25 -3 -25 9 6 9 5 0 -11 0 -11 10 6 10 6 0 -10 0 -10
-10 -6 -10 -6 0 9 0 9 -15 0 -15 0 0 -9 0 -8 15 0 15 0 0 -6 0 -5 -9 -17 -9
-17 28 0 28 -1 -1 53 -1 52 -13 -11 -13 -10 0 11 0 12 -10 -6 -10 -6 0 11 0
12 15 -6 15 -5 -1 27 -1 27 -5 -17 -4 -18 -9 0 -9 0 6 35 6 35 -4 0 -4 0 -13
-21z m42 -147 l5 -9 -14 0 -14 0 5 9 5 8 4 0 4 0 5 -8z"/>
<path d="M462 725 l8 -8 -10 -12 -11 -13 18 -7 18 -8 13 -3 13 -2 -4 11 -4 12
-12 -2 -11 -3 0 14 0 15 -12 7 -13 7 7 -8z"/>
<path d="M524 682 l6 -10 -12 -5 -13 -4 18 -20 18 -20 -16 -13 -15 -12 0 -10
0 -9 13 6 12 6 -16 -13 -16 -13 6 -17 6 -17 15 9 15 10 -14 0 -13 0 12 15 12
15 -5 13 -5 13 24 0 24 0 0 -8 0 -8 -15 0 -15 0 0 -9 0 -10 28 4 27 4 -13 -5
-12 -6 6 -9 5 -9 -11 0 -11 0 6 -10 6 -10 9 0 10 0 6 25 6 25 8 0 8 0 4 25 5
25 -5 0 -5 0 -18 -22 -19 -21 0 16 0 17 -19 0 -20 0 -7 12 -7 11 10 -6 11 -7
11 14 12 14 -17 6 -16 6 5 -13 5 -14 -13 0 -12 0 4 18 5 17 -13 7 -12 8 7 -11z"/>
<path d="M269 665 l-15 -16 -30 -2 -29 -2 -18 -28 -18 -29 -14 6 -14 5 -7 -11
-7 -11 11 7 12 7 0 -10 0 -10 -21 -11 -21 -12 7 -16 6 -16 -19 17 -19 17 -6 0
-7 0 -15 -36 -15 -36 7 -11 6 -10 -11 7 -12 7 0 -8 0 -9 9 -10 9 -9 -14 -30
-14 -30 5 33 5 33 -10 -6 -10 -6 0 -24 0 -24 8 -5 8 -5 -2 -30 -2 -31 9 6 9 5
0 -10 0 -11 -10 0 -9 0 5 -14 6 -15 13 5 14 6 -4 19 -4 19 10 5 9 6 -6 10 -6
10 -13 -11 -13 -11 2 18 3 18 19 -4 19 -3 -20 22 -20 23 28 -7 27 -6 0 17 0
18 -10 -15 -10 -15 0 13 0 13 -10 -6 -10 -6 0 5 0 5 25 27 25 27 -10 12 -10
12 8 8 7 8 -14 -8 -14 -8 5 13 4 14 12 4 12 4 0 -16 0 -16 9 0 10 0 6 20 6 20
10 -5 9 -6 -6 15 -6 16 14 0 15 0 16 18 17 19 -7 6 -6 7 16 0 17 0 0 18 0 17
10 -15 10 -15 0 12 0 12 14 -5 13 -5 17 25 16 26 -3 0 -3 0 -15 -15z m-199
-184 l0 -9 -6 -16 -6 -16 -8 0 -7 0 5 25 4 25 9 0 9 0 0 -9z"/>
<path d="M460 655 l-12 -15 10 0 11 0 6 11 7 10 -5 5 -4 4 -13 -15z"/>
<path d="M618 553 l-26 -58 5 -8 5 -8 18 16 17 16 14 -3 14 -3 2 25 3 25 -10
-20 -10 -20 3 27 4 27 -9 -5 -9 -6 7 26 6 26 -3 0 -4 0 -27 -57z m8 -31 l-18
-17 13 22 13 22 5 -5 5 -4 -18 -18z"/>
<path d="M447 578 l-5 -19 14 -6 15 -5 -10 -12 -9 -11 -10 -37 -10 -38 9 0 9
0 0 16 0 16 12 -4 12 -4 4 -15 5 -14 -8 7 -7 7 -14 -14 -14 -13 -20 5 -20 5
-5 -14 -6 -15 -27 4 -27 3 23 -11 22 -12 0 -6 0 -6 -10 -15 -10 -15 0 24 0 23
-16 -13 -16 -13 16 -11 16 -12 -5 -5 -5 -5 23 -21 23 -22 34 -6 35 -7 -8 9 -8
9 -17 0 -17 0 0 13 0 13 -14 8 -14 9 -16 -5 -16 -6 13 14 12 13 20 -12 20 -12
0 10 0 10 -10 0 -10 0 0 10 0 11 18 -9 17 -9 14 5 14 5 -5 -14 -5 -14 -11 -1
-12 -1 -7 -2 -7 -1 19 -14 20 -14 7 4 8 5 0 -11 0 -11 11 6 10 7 10 25 9 25
14 -11 14 -12 4 13 4 12 8 -12 7 -12 -10 0 -10 0 5 -15 6 -15 17 1 16 1 -12 5
-13 5 0 7 0 8 25 -5 25 -4 0 15 0 16 -10 6 -9 6 6 14 5 15 14 0 14 0 0 -10 0
-10 -7 1 -8 1 -10 -1 -10 -1 14 -9 13 -9 20 20 20 20 -6 6 -6 5 0 -7 0 -8 -25
16 -26 17 -14 -33 -14 -33 15 -3 14 -3 0 -10 0 -9 -12 3 -13 2 -12 15 -11 15
9 6 9 5 4 20 4 19 7 17 7 17 -24 -1 -23 -1 -15 2 -15 1 15 10 15 10 -23 0 -22
0 1 -7 1 -8 -1 -12 -1 -13 -8 0 -8 0 0 20 0 20 8 0 8 0 -1 8 -1 7 1 15 2 15
10 -17 10 -18 10 0 10 0 -5 8 -5 8 10 14 10 15 -3 -17 -3 -17 9 0 9 -1 2 33 2
34 -13 0 -13 0 5 -8 5 -8 -13 -20 -12 -20 -13 11 -13 11 -8 -7 -7 -8 0 -11 0
-12 -17 -3 -17 -3 12 25 12 26 13 0 12 0 0 9 0 9 -15 12 -15 12 5 7 4 8 -14 0
-14 0 -4 -19z m33 -18 l0 -9 -15 5 -15 6 6 9 5 9 10 -5 9 -6 0 -9z m44 -132
l-7 -22 -14 -14 -14 -14 5 -5 5 -5 14 14 14 14 7 21 7 21 19 5 20 5 0 -4 0 -3
-22 -21 -22 -20 7 -7 7 -6 0 11 0 12 12 0 11 0 -23 -25 -23 -25 -5 5 -5 4 -18
-9 -18 -10 -9 16 -10 17 -17 -6 -17 -7 4 12 5 13 11 1 12 2 6 1 5 1 -6 10 -7
11 -12 -10 -12 -11 -12 12 -11 11 -10 -26 -11 -27 -4 0 -5 0 11 30 10 31 19
-6 19 -6 17 10 18 10 19 -17 19 -17 -6 17 -6 16 6 6 6 6 9 0 9 0 -7 -22z m-99
-27 l5 -10 -10 -6 -10 -6 0 15 0 16 4 0 5 0 6 -9z m63 -69 l4 -12 -16 6 -16 6
0 10 0 10 12 -4 12 -4 4 -12z m-90 -17 l-6 -6 -6 18 -7 18 12 -12 13 -13 -6
-5z"/>
<path d="M473 400 l-2 -20 10 0 9 0 0 20 0 20 -8 0 -8 0 -1 -20z"/>
<path d="M840 529 l0 -9 13 -1 12 -1 8 1 8 1 -5 -9 -6 -9 -23 5 -22 5 25 -22
25 -21 -21 10 -22 11 -6 -23 -5 -23 6 -22 5 -22 -11 0 -12 0 5 -9 5 -8 -12
-27 -12 -26 -7 0 -8 0 0 -15 0 -15 -12 -23 -13 -22 -19 -22 -18 -22 7 -10 6
-11 -10 0 -11 0 0 11 0 10 -10 -6 -10 -6 -1 -22 -1 -22 -4 11 -5 12 -32 -29
-31 -29 -33 -6 -33 -6 0 -7 0 -7 -52 -3 -53 -2 -15 -16 -15 -17 18 13 17 13 0
-10 0 -10 -15 -5 -14 -6 -6 9 -6 10 -16 0 -16 0 -19 -17 -19 -17 6 20 7 19
-18 -20 -17 -20 6 17 6 16 -6 6 -6 6 -14 -18 -14 -17 3 19 3 19 -54 18 -54 19
-12 10 -12 10 -8 -8 -8 -7 7 13 7 12 -15 6 -16 6 0 16 0 15 -6 -6 -6 -6 -24 9
-24 10 0 -10 0 -10 10 0 9 0 -6 -17 -7 -18 16 13 16 13 8 -12 7 -12 -12 8 -13
7 4 -23 3 -24 13 3 12 2 0 -10 0 -10 11 0 10 0 -5 8 -5 9 13 0 13 0 0 -13 0
-13 -9 5 -8 5 0 -14 0 -15 36 -21 37 -22 5 6 5 5 -11 0 -12 0 0 9 0 9 20 -5
20 -5 7 -11 6 -10 -11 7 -12 7 0 -10 0 -10 30 4 30 4 0 -10 0 -9 13 0 12 0 30
15 30 15 -24 -20 -23 -20 15 0 15 0 12 15 12 15 12 0 11 0 -15 -10 -15 -10 28
0 27 0 0 8 0 7 55 0 55 -1 0 13 0 13 8 -1 7 -1 19 1 18 1 -4 25 -5 25 10 7 10
6 -6 -9 -6 -10 8 -12 8 -13 29 16 29 15 -15 0 -16 0 -12 -12 -12 -12 0 10 0 9
8 10 7 10 25 3 25 3 8 14 8 15 8 -4 8 -5 11 24 11 25 -3 12 -3 13 4 -7 5 -8
10 0 10 0 -5 14 -6 15 14 11 15 12 -7 11 -6 10 10 -6 11 -7 6 16 6 16 -5 8 -5
8 20 -5 20 -5 0 11 0 12 -10 -6 -10 -6 0 14 0 15 15 6 15 5 -6 16 -6 15 11 0
10 0 -6 17 -6 16 10 -6 11 -7 12 48 12 47 5 18 4 17 -8 1 -8 1 -17 3 -18 3 0
-9z m16 -71 l7 -11 -13 8 -12 8 6 -24 7 -24 -11 18 -11 17 6 10 6 10 4 0 4 0
7 -12z m-136 -282 l0 -5 -10 -6 -10 -6 0 10 0 11 10 0 10 0 0 -4z m-35 -36
l-6 -10 -10 5 -9 6 0 -10 0 -11 -11 0 -11 0 12 15 12 15 15 0 14 0 -6 -10z
m-445 -54 l0 -5 -10 -6 -10 -6 0 10 0 11 10 0 10 0 0 -4z m-45 -16 l6 -10 -15
6 -16 6 0 4 0 4 9 0 10 0 6 -10z m312 4 l-6 -6 -13 5 -13 5 19 1 19 1 -6 -6z
m37 -6 l-5 -8 -10 0 -9 0 0 8 0 9 15 0 14 0 -5 -9z m-137 -14 l-6 -6 -13 5
-13 5 19 1 19 1 -6 -6z m108 -6 l8 7 -6 -12 -7 -11 -18 3 -17 3 -3 1 -3 1 6
10 7 11 12 -10 13 -11 8 8z"/>
<path d="M573 517 l6 -16 -13 -10 -13 -11 -5 5 -5 5 0 -12 0 -13 36 0 36 0 10
7 11 7 13 -9 14 -8 -19 -10 -19 -9 -12 4 -11 4 -8 -12 -7 -12 10 6 10 6 19
-13 18 -14 13 5 14 5 -12 14 -11 14 10 0 10 0 5 21 6 21 -14 -6 -14 -5 -4 12
-4 12 -20 -17 -19 -18 -11 11 -11 11 4 13 5 13 -12 8 -12 7 6 -16z"/>
<path d="M507 320 l-5 -20 9 0 9 0 0 11 0 10 11 -7 12 -7 -5 13 -4 14 -11 3
-10 4 -6 -21z"/>
<path d="M53 305 l0 -15 9 0 8 0 0 9 0 10 -8 5 -9 5 0 -14z"/>
<path d="M40 265 l-12 -15 11 -14 12 -15 20 2 19 1 0 13 0 13 -12 -2 -13 -3
-6 -8 -6 -9 -6 16 -6 16 7 -1 7 -1 13 1 13 1 -6 10 -6 10 -8 0 -9 0 -12 -15z"/>
<path d="M769 233 l-14 -16 23 12 22 12 0 4 0 5 -9 0 -9 0 -13 -17z"/>
<path d="M61 212 l-11 -4 0 -16 1 -17 9 17 10 16 20 -5 20 -5 0 10 0 11 -19
-2 -18 -1 -12 -4z"/>
</g>
</svg>
