<?xml version="1.0" standalone="no"?>
<!DOCTYPE svg PUBLIC "-//W3C//DTD SVG 20010904//EN"
 "http://www.w3.org/TR/2001/REC-SVG-20010904/DTD/svg10.dtd">
<svg version="1.0" xmlns="http://www.w3.org/2000/svg"
   viewBox="0 0 239.000000 228.000000"
 preserveAspectRatio="xMidYMid meet">
<metadata>
Created by potrace 1.16, written by Peter Selinger 2001-2019
</metadata>
<g transform="translate(0.000000,228.000000) scale(0.100000,-0.100000)"
fill-opacity="0.2" fill="#000000" stroke="none">
<path d="M17 2259 l6 -21 8 13 8 13 77 -2 77 -1 -5 4 -4 5 -86 5 -86 5 5 -21z"/>
<path d="M115 2230 l6 -9 14 6 15 5 0 4 0 4 -21 0 -20 0 6 -10z"/>
<path d="M280 2236 l0 -4 15 -12 15 -13 -6 17 -6 16 -9 0 -9 0 0 -4z"/>
<path d="M320 2224 l0 -15 10 6 10 6 0 10 0 9 -10 0 -10 0 0 -16z"/>
<path d="M388 2223 l13 -5 6 6 6 6 -19 -1 -19 -1 13 -5z"/>
<path d="M1343 2223 l-13 -5 0 -10 0 -10 27 -32 26 -31 18 -40 19 -40 0 -45 0
-45 -25 -54 -25 -53 -20 -22 -20 -21 -17 -20 -18 -21 -34 -24 -34 -23 -55 -29
-56 -28 -17 0 -17 0 -5 -12 -5 -13 -42 43 -42 42 -12 0 -11 0 25 -20 25 -20
-9 0 -10 0 19 -13 18 -14 -7 -11 -7 -12 14 6 15 5 7 -10 6 -11 10 6 9 5 -2 -9
-3 -10 38 -37 39 -38 -13 -8 -13 -8 -8 5 -8 5 0 14 0 13 -15 6 -15 5 0 -9 0
-10 -22 -1 -23 -1 20 -5 20 -5 17 -21 18 -20 0 -9 0 -9 18 3 17 3 0 15 0 15
13 14 13 13 19 -23 20 -24 10 -12 10 -12 -7 -18 -7 -18 16 13 16 13 7 -21 7
-21 13 4 13 5 10 -23 11 -24 -20 -6 -20 -7 11 -13 12 -14 -7 -11 -7 -11 38 16
38 15 7 -12 8 -12 -5 -8 -5 -8 9 0 9 0 24 -21 24 -20 3 11 4 12 -28 30 -29 31
-30 18 -30 19 17 0 17 0 71 26 71 27 45 45 45 44 21 42 21 41 7 5 6 5 18 45
18 45 14 73 14 74 0 43 0 43 117 7 118 7 115 -1 115 -1 60 -8 60 -7 5 -270 5
-270 -1 -2 0 -3 -35 10 -34 10 -35 0 -36 0 -59 -15 -60 -16 -85 -41 -85 -41
-5 -6 -5 -6 -67 -53 -67 -53 -26 -47 -27 -47 -3 -24 -3 -23 19 -16 19 -16 0
-18 0 -18 15 0 15 0 43 -45 44 -45 -5 -5 -5 -5 19 -6 19 -7 31 -34 32 -34 6 9
6 9 -20 18 -20 18 0 20 0 19 30 63 30 63 59 55 59 54 66 18 66 18 57 -6 58 -7
38 -6 37 -7 0 506 0 505 -57 6 -58 6 -195 5 -195 5 -140 10 -140 10 -108 7
-107 6 -6 8 -5 9 -7 -1 -7 -1 -12 -5z m-23 -853 l0 -10 -10 0 -10 0 0 10 0 10
10 0 10 0 0 -10z m1020 -30 l0 -10 -11 0 -10 0 6 10 6 10 5 0 4 0 0 -10z"/>
<path d="M70 2211 l0 -10 18 -5 18 -6 17 -30 18 -30 27 -7 26 -6 4 11 4 12 18
0 19 0 7 13 7 12 -8 -7 -8 -8 -13 11 -14 11 -6 -16 -6 -16 -14 0 -14 0 -44 40
-43 40 -7 0 -6 0 0 -9z"/>
<path d="M428 2208 l10 -10 13 4 13 4 -23 7 -24 6 11 -11z"/>
<path d="M465 2189 l-7 -10 6 -6 6 -6 0 12 0 13 16 -6 15 -6 -6 10 -6 10 -9 0
-9 0 -6 -11z"/>
<path d="M148 2183 l13 -5 6 6 6 6 -19 -1 -19 -1 13 -5z"/>
<path d="M519 2167 l11 -14 -8 -8 -7 -8 10 6 11 6 63 -60 64 -59 -14 -16 -13
-16 15 -9 14 -9 10 1 10 1 -12 5 -13 5 0 13 0 13 13 5 12 4 -30 31 -30 31 -7
1 -8 0 -41 45 -42 45 -9 0 -10 0 11 -13z"/>
<path d="M480 2137 l0 -15 22 -5 22 -6 2 2 2 2 -24 18 -24 18 0 -14z"/>
<path d="M446 2131 l-8 -12 6 -6 6 -6 6 6 6 6 -4 12 -4 13 -8 -13z"/>
<path d="M282 2121 l-14 -8 16 -6 16 -6 0 14 0 15 -2 0 -3 0 -13 -9z"/>
<path d="M199 2101 l14 -9 -7 -11 -7 -11 10 0 10 0 39 -37 39 -38 67 -62 67
-63 10 0 10 0 -5 -9 -6 -9 15 -6 15 -5 0 3 0 4 -15 28 -15 29 0 13 0 13 10 -6
10 -6 0 15 0 16 -7 0 -8 0 -11 -8 -12 -7 -3 -17 -4 -17 -55 60 -55 59 10 4 10
4 -16 1 -16 1 -44 40 -44 40 -10 0 -10 0 14 -9z"/>
<path d="M356 2094 l-6 -17 5 -5 5 -5 0 11 0 12 10 0 10 0 0 -15 0 -15 10 0
10 0 0 8 -1 7 -13 18 -13 17 -6 0 -5 0 -6 -16z"/>
<path d="M255 2090 l6 -10 10 0 10 0 -6 10 -6 10 -10 0 -10 0 6 -10z"/>
<path d="M533 2085 l0 -14 9 5 8 5 0 10 0 9 -8 0 -9 0 0 -15z"/>
<path d="M295 2081 l-5 -4 0 -14 0 -13 25 0 25 0 0 19 0 20 -20 -2 -21 -1 -4
-5z"/>
<path d="M436 2083 l-20 -5 25 -20 24 -19 -42 3 -43 4 0 -8 0 -8 29 0 30 0 6
-10 6 -10 12 0 13 0 -4 40 -4 40 -7 -1 -6 -1 -19 -5z"/>
<path d="M486 2082 l-5 -9 14 -19 14 -19 1 22 0 22 -9 6 -10 5 -5 -8z"/>
<path d="M176 2065 l6 -15 10 0 10 0 -12 15 -12 15 -4 0 -3 0 5 -15z"/>
<path d="M545 2059 l-7 -10 5 -6 6 -5 10 7 11 6 0 10 0 9 -9 0 -10 0 -6 -11z"/>
<path d="M590 2056 l0 -16 10 0 10 0 0 9 0 10 -10 6 -10 6 0 -15z"/>
<path d="M516 2021 l-6 -9 6 -16 6 -16 8 0 8 0 16 6 16 6 0 9 0 9 -15 0 -15 0
0 10 0 10 -9 0 -10 0 -5 -9z"/>
<path d="M340 2010 l0 -10 15 0 15 0 0 10 0 10 -15 0 -15 0 0 -10z"/>
<path d="M415 2010 l-7 -11 -8 -29 -9 -30 7 0 7 0 12 8 12 7 5 28 5 27 -9 5
-9 5 -6 -10z"/>
<path d="M690 2014 l0 -11 25 -23 24 -23 -5 -8 -5 -9 10 0 10 0 5 8 5 9 -34
33 -35 34 0 -10z"/>
<path d="M250 2000 l0 -10 11 0 10 0 -6 10 -6 10 -5 0 -4 0 0 -10z"/>
<path d="M500 1981 l0 -13 -20 -25 -20 -26 0 -14 0 -14 20 11 20 11 0 18 0 19
15 6 15 5 0 -9 0 -9 17 6 16 6 -6 -16 -6 -16 9 -6 10 -6 0 -20 0 -20 17 3 18
3 0 43 0 42 -15 1 -15 1 -18 -2 -19 -2 -19 18 -19 17 0 -12z"/>
<path d="M620 1929 l0 -20 10 6 10 6 0 15 0 14 -10 0 -10 0 0 -21z"/>
<path d="M668 1903 l-18 -4 -1 -12 -1 -12 1 -17 2 -18 -14 6 -14 5 -6 -15 -6
-15 9 -6 10 -6 17 10 18 10 -2 5 -3 6 0 15 0 16 20 -11 20 -11 0 -19 0 -20 9
0 10 0 6 9 5 10 -10 6 -10 6 5 10 6 9 -10 0 -11 0 0 15 0 15 -11 0 -10 0 6 10
6 10 -3 -1 -3 -1 -17 -5z"/>
<path d="M507 1893 l-7 -6 0 -9 0 -8 20 0 20 0 0 15 0 15 -13 0 -14 0 -6 -7z"/>
<path d="M745 1870 l6 -10 10 0 10 0 -6 10 -6 10 -10 0 -10 0 6 -10z"/>
<path d="M803 1873 l-13 -5 0 -9 0 -9 20 12 19 12 7 -7 8 -7 -12 -12 -12 -12
0 -20 1 -21 17 35 18 35 -11 7 -10 8 -10 -1 -10 -1 -12 -5z"/>
<path d="M510 1850 l0 -10 10 0 10 0 0 10 0 10 -10 0 -10 0 0 -10z"/>
<path d="M545 1840 l-6 -10 16 0 16 0 -6 10 -6 10 -4 0 -4 0 -6 -10z"/>
<path d="M866 1837 l6 -18 6 6 6 5 -13 13 -12 12 7 -18z"/>
<path d="M480 1832 l0 -9 18 -16 19 -17 6 0 7 0 0 11 0 12 -17 13 -18 13 -7 1
-8 0 0 -8z"/>
<path d="M779 1820 l-6 -15 7 -50 7 -50 2 5 2 5 4 26 3 25 -7 35 -7 34 -5 -15z"/>
<path d="M875 1790 l6 -10 5 0 4 0 0 10 0 10 -11 0 -10 0 6 -10z"/>
<path d="M903 1794 l6 -7 -10 -18 -10 -19 11 -18 12 -17 -6 19 -6 19 11 13 11
14 19 -23 18 -22 0 10 0 10 -18 23 -19 22 -13 0 -12 0 6 -6z"/>
<path d="M541 1781 l-13 -8 10 -7 11 -6 6 11 7 10 -4 4 -4 4 -13 -8z"/>
<path d="M0 1651 l0 -129 23 -6 22 -6 20 0 20 0 17 -112 18 -113 6 -112 7
-113 26 7 26 7 152 0 152 1 10 -10 9 -10 21 -140 21 -140 0 -64 0 -64 58 7 57
6 116 6 116 7 35 -7 36 -7 17 -51 16 -51 13 -126 13 -126 -1 -25 -1 -25 10 0
10 0 145 14 145 13 35 -4 35 -3 9 -138 8 -137 349 0 348 0 -14 41 -15 42 -22
36 -22 36 -31 27 -30 28 -42 20 -43 20 -62 0 -63 0 -46 -14 -46 -14 -7 70 -6
71 -19 41 -18 41 -34 32 -34 31 -45 12 -45 12 -70 7 -70 6 0 80 0 80 -35 70
-35 69 -65 53 -65 52 -45 13 -45 13 -53 -2 -54 -2 -39 -20 -40 -21 -9 0 -10 0
0 43 0 42 -20 73 -19 74 -37 49 -36 50 -39 19 -38 20 -63 9 -63 9 -45 -8 -45
-7 -17 -8 -17 -7 0 89 0 88 -16 48 -16 48 -44 65 -43 64 -26 21 -27 21 -67 24
-67 24 -47 0 -48 0 0 -129z"/>
<path d="M605 1770 l-6 -10 10 0 11 0 0 10 0 10 -4 0 -5 0 -6 -10z"/>
<path d="M566 1761 l-6 -9 30 -33 30 -33 0 28 0 29 -6 -6 -7 -7 -18 21 -17 20
-6 -10z"/>
<path d="M530 1720 l0 -10 11 0 10 0 -6 10 -6 10 -5 0 -4 0 0 -10z"/>
<path d="M675 1720 l-6 -10 6 -10 6 -10 10 5 9 6 0 -11 0 -11 10 6 10 6 0 7 0
7 -20 12 -19 13 -6 -10z"/>
<path d="M860 1721 l0 -9 21 -5 20 -5 -12 14 -11 14 -9 0 -9 0 0 -9z"/>
<path d="M640 1690 l0 -19 17 -9 16 -10 -6 -15 -6 -15 20 5 19 5 0 -11 0 -12
51 -49 52 -50 8 0 8 0 6 9 6 10 -21 11 -20 11 -1 -8 0 -8 -9 23 -9 22 -16 0
-15 0 0 15 0 15 -14 0 -15 0 -7 22 -7 23 -28 26 -29 27 0 -18z"/>
<path d="M820 1681 l0 -20 10 -6 10 -6 10 6 10 6 -13 19 -12 20 -7 0 -8 0 0
-19z"/>
<path d="M610 1640 l0 -9 20 -11 20 -11 0 3 0 4 -20 17 -20 17 0 -10z"/>
<path d="M734 1638 l-5 -8 15 0 14 0 5 -12 5 -13 -1 21 -1 21 -13 0 -14 0 -5
-9z"/>
<path d="M1031 1616 l-12 -14 14 -5 13 -5 0 19 0 19 -2 0 -2 0 -11 -14z"/>
<path d="M990 1564 l0 -15 10 6 10 6 -5 10 -6 9 -5 0 -4 0 0 -16z"/>
<path d="M838 1553 l13 -5 6 6 6 6 -19 -1 -19 -1 13 -5z"/>
<path d="M935 1520 l-6 -10 -10 5 -9 6 0 -10 0 -11 14 0 14 0 6 15 5 15 -4 0
-4 0 -6 -10z"/>
<path d="M1160 1511 l0 -19 -12 -5 -13 -4 14 -16 13 -17 10 0 9 0 -6 21 -7 22
11 -7 11 -7 0 -17 0 -17 10 15 9 14 -8 6 -8 5 -7 23 -7 22 -10 0 -9 0 0 -19z"/>
<path d="M1050 1510 l0 -10 10 0 10 0 0 10 0 10 -10 0 -10 0 0 -10z"/>
<path d="M1001 1494 l1 -19 5 13 5 13 -6 6 -6 6 1 -19z"/>
<path d="M834 1485 l18 -14 -7 -10 -6 -11 15 6 16 6 0 -11 0 -11 9 0 9 0 5 14
6 15 -14 -5 -13 -6 -12 21 -11 21 -17 0 -17 -1 19 -14z"/>
<path d="M930 1470 l-15 -10 18 0 17 0 0 10 0 10 -2 0 -3 0 -15 -10z"/>
<path d="M1070 1459 l0 -10 10 6 10 6 0 5 0 4 -10 0 -10 0 0 -11z"/>
<path d="M895 1440 l-6 -9 27 -31 27 -30 14 0 13 0 0 -9 0 -8 54 -57 54 -56 9
0 9 0 27 -31 27 -31 0 -8 0 -8 -10 -4 -9 -3 24 -12 25 -11 -6 9 -5 9 9 0 9 0
18 -20 18 -19 -6 -20 -5 -20 14 6 14 5 15 -12 15 -12 14 5 15 6 -6 -15 -5 -14
17 0 17 0 -4 12 -5 13 14 13 13 13 -1 32 -1 32 -14 -32 -13 -31 -9 -6 -9 -5
-21 19 -21 20 -6 0 -6 0 -15 15 -15 14 3 4 3 4 -35 29 -35 29 -7 9 -7 10 17
13 17 13 -28 -11 -27 -12 -8 8 -7 8 13 4 12 5 0 10 0 9 -20 -6 -20 -6 0 15 0
15 14 3 15 3 -16 20 -16 20 6 -17 6 -17 -10 -6 -9 -6 -21 6 -20 7 13 15 13 16
-23 -8 -24 -7 13 24 12 23 -17 -14 -16 -14 -7 7 -7 7 14 9 14 9 -7 8 -8 7 -8
-13 -9 -14 -22 21 -23 21 -10 -6 -10 -6 5 14 5 14 -13 12 -13 13 -6 -10z"/>
<path d="M1004 1439 l-6 -11 11 -11 11 -11 0 16 0 16 13 5 12 5 -17 1 -17 1
-7 -11z"/>
<path d="M1216 1432 l-6 -5 0 -9 0 -9 10 6 10 6 6 -14 5 -15 25 2 24 1 0 8 0
7 -15 0 -15 0 0 9 0 9 -19 5 -20 5 -5 -6z"/>
<path d="M1061 1398 l-11 -31 5 -6 6 -5 10 14 9 15 11 -15 11 -15 -6 18 -6 19
0 19 0 19 -9 0 -9 0 -11 -32z"/>
<path d="M1100 1405 l0 -15 21 0 21 0 -12 15 -12 15 -9 0 -9 0 0 -15z"/>
<path d="M1164 1405 l-19 -14 23 -1 22 0 0 15 0 15 -3 0 -3 0 -20 -15z"/>
<path d="M1025 1390 l6 -10 10 0 9 0 0 10 0 10 -16 0 -15 0 6 -10z"/>
<path d="M1176 1356 l-5 -21 8 -8 8 -8 22 18 21 18 -24 11 -24 11 -6 -21z"/>
<path d="M955 1330 l6 -10 5 0 4 0 0 10 0 10 -11 0 -10 0 6 -10z"/>
<path d="M1317 1326 l-18 -14 24 2 24 1 0 13 0 12 -6 0 -6 -1 -18 -13z"/>
<path d="M1154 1315 l5 -15 -14 0 -15 0 0 -10 0 -10 14 0 14 0 33 15 34 14
-27 1 -28 0 0 10 0 10 -11 0 -11 0 6 -15z"/>
<path d="M940 1310 l0 -10 15 0 15 0 0 4 0 4 -15 6 -15 5 0 -9z"/>
<path d="M1329 1288 l-1 -13 -2 -22 -3 -23 9 0 8 0 0 35 0 35 -5 0 -5 0 -1
-12z"/>
<path d="M1180 1266 l0 -16 33 -7 32 -7 -25 -6 -25 -7 28 -13 27 -13 0 -9 0
-8 15 0 15 0 0 15 0 14 18 11 17 11 -21 -4 -21 -4 4 17 5 18 -10 6 -9 5 -41 7
-42 7 0 -17z"/>
<path d="M1357 1266 l-6 -14 14 -5 13 -6 5 6 6 5 -6 14 -5 14 -8 0 -8 0 -5
-14z"/>
<path d="M1440 1276 l0 -5 70 -72 69 -73 -5 -22 -6 -22 12 -7 11 -7 14 12 13
11 7 -11 6 -10 10 0 9 0 0 11 0 10 -10 -6 -10 -6 0 16 0 16 -9 -5 -9 -6 -4 9
-3 9 -74 81 -74 81 -9 0 -8 0 0 -4z m161 -179 l-1 -7 -7 -1 -7 0 -4 12 -4 12
12 -4 12 -4 -1 -8z"/>
<path d="M1420 1234 l0 -15 10 6 10 6 -5 10 -6 9 -5 0 -4 0 0 -16z"/>
<path d="M1442 1216 l8 -9 -10 -12 -10 -12 25 5 26 4 -3 2 -3 2 -20 14 -20 14
7 -8z"/>
<path d="M1322 1200 l3 -12 -20 -11 -20 -12 -5 -6 -5 -7 -20 -4 -20 -4 27 -6
27 -5 20 19 20 18 26 2 25 2 0 12 0 11 -12 0 -13 1 -18 7 -18 7 3 -12z"/>
<path d="M1488 1163 l12 -5 13 5 12 5 -25 0 -25 0 13 -5z"/>
<path d="M1430 1150 l-15 -10 10 0 10 0 15 10 15 10 -10 0 -10 0 -15 -10z"/>
<path d="M1533 1120 l-23 -18 0 -6 0 -7 20 11 20 11 0 -14 0 -15 -15 -12 -15
-12 0 -14 0 -14 10 0 10 0 0 10 0 10 -1 6 -1 7 12 7 11 7 -3 31 -3 30 -22 -18z"/>
<path d="M1430 1100 l-12 -7 20 -5 20 -6 12 8 12 7 -20 5 -20 6 -12 -8z"/>
<path d="M1340 1051 l10 -20 0 -8 0 -8 -9 14 -9 14 -11 -7 -11 -7 0 -16 0 -15
15 6 15 5 0 -9 0 -10 20 0 21 0 -11 19 -10 20 0 20 0 21 -15 0 -16 0 11 -19z"/>
<path d="M1387 1063 l-7 -6 0 -21 1 -21 14 25 14 25 1 -19 0 -18 15 12 15 12
0 9 0 9 -23 0 -24 0 -6 -7z"/>
<path d="M1466 1033 l-6 -6 0 -19 0 -18 -10 0 -11 0 -5 15 -6 15 -9 0 -9 0 0
-11 0 -12 -17 -12 -17 -12 25 -31 24 -31 13 0 13 -1 -6 -10 -6 -10 8 0 8 1 19
14 20 15 -22 0 -22 0 0 8 0 7 -22 10 -23 10 0 15 0 15 20 2 20 3 -12 -6 -13
-6 0 -11 0 -11 12 12 12 12 18 0 18 0 0 -10 0 -10 -16 0 -15 0 6 -10 6 -10 20
0 19 0 0 25 0 25 -9 0 -9 0 5 19 5 19 -10 6 -9 5 -7 -6z"/>
<path d="M1560 1015 l0 -14 21 -11 21 -12 3 4 3 3 -9 23 -8 22 -16 0 -15 0 0
-15z"/>
<path d="M1652 1013 l-14 -14 6 -15 6 -15 10 6 10 6 -5 10 -6 9 18 -7 18 -7
-15 20 -14 19 -1 1 0 2 -13 -15z"/>
<path d="M1290 970 l23 -20 5 0 5 0 -18 20 -18 20 -10 0 -10 0 23 -20z"/>
<path d="M1610 940 l0 -10 20 0 20 0 0 10 0 10 -20 0 -20 0 0 -10z"/>
<path d="M1712 939 l6 -17 -11 -11 -11 -11 7 0 6 0 26 12 25 11 0 14 0 13 -10
0 -10 0 0 -11 0 -11 -17 13 -17 14 6 -16z"/>
<path d="M2 928 l4 -12 44 -23 43 -23 41 0 41 0 55 9 55 9 18 7 17 7 0 -16 0
-16 -11 0 -11 0 6 -47 7 -48 16 -50 16 -49 27 -46 26 -45 7 -18 7 -18 8 5 9 5
12 -22 12 -22 46 -28 45 -27 46 -11 47 -10 88 6 87 7 0 -9 0 -9 -11 -11 -12
-12 0 -38 -1 -38 19 -60 19 -60 19 -35 19 -35 21 -23 22 -24 48 -25 49 -24 96
1 97 1 7 0 8 -1 -10 -25 -10 -25 15 0 15 0 0 18 0 17 6 21 6 22 -107 -5 -106
-6 -47 22 -48 23 -32 46 -31 47 -17 40 -17 40 -3 50 -2 50 13 48 14 48 -109
-7 -108 -7 -66 23 -65 23 -44 46 -44 46 -23 45 -23 45 -9 18 -9 18 -6 84 -6
84 13 16 13 15 -5 5 -4 5 -55 -22 -54 -21 -80 -1 -80 -1 -38 23 -38 22 -5 0
-6 0 4 -12z"/>
<path d="M1512 919 l-13 -21 10 7 11 6 0 -20 0 -21 -10 0 -9 0 -10 18 -10 17
-1 -7 0 -7 10 -27 11 -27 6 6 6 6 25 -29 26 -30 8 0 8 0 0 16 0 15 -10 -6 -9
-6 -15 23 -15 23 6 28 5 27 24 0 24 0 0 -8 0 -9 20 2 20 1 6 7 7 7 -26 0 -27
0 3 13 2 12 -35 3 -35 3 -13 -22z"/>
<path d="M1767 877 l-6 -42 9 -9 9 -9 -5 20 -6 21 11 6 11 7 0 19 0 19 -9 5
-8 6 -6 -43z"/>
<path d="M1560 888 l0 -6 14 -27 14 -26 5 13 5 13 1 -12 1 -13 10 0 10 0 0 15
0 15 -12 0 -11 0 -19 17 -18 16 0 -5z"/>
<path d="M1637 864 l-6 -6 5 -13 5 -13 -10 -7 -11 -6 0 -13 0 -13 15 0 16 0
-5 14 -5 13 9 25 10 25 -9 0 -8 0 -6 -6z"/>
<path d="M1790 841 l0 -20 16 -16 16 -16 4 4 4 3 -12 32 -12 32 -8 0 -8 0 0
-19z"/>
<path d="M1827 854 l-7 -12 15 -12 15 -13 7 7 6 6 -11 0 -11 0 -3 18 -3 17 -8
-11z"/>
<path d="M1725 830 l-6 -10 10 0 11 0 0 10 0 10 -4 0 -5 0 -6 -10z"/>
<path d="M1740 799 l0 -10 10 6 10 6 0 5 0 4 -10 0 -10 0 0 -11z"/>
<path d="M1853 795 l-13 -14 0 -11 0 -10 11 0 12 0 -6 -28 -6 -28 8 -13 9 -13
4 41 4 41 -11 11 -10 12 13 4 12 5 0 9 0 9 -7 0 -8 -1 -12 -14z"/>
<path d="M1926 795 l6 -15 4 0 4 0 0 15 0 15 -10 0 -9 0 5 -15z"/>
<path d="M1660 770 l-12 -30 -9 0 -8 0 -15 28 -15 27 0 -15 -1 -15 8 -10 7
-10 23 -19 23 -20 -7 17 -6 17 26 10 26 9 12 -3 13 -3 -7 4 -8 5 0 19 0 19
-19 0 -19 0 -12 -30z"/>
<path d="M1950 778 l0 -6 32 -36 32 -36 13 0 14 0 -23 23 -24 22 -22 19 -22
19 0 -5z"/>
<path d="M1714 702 l-11 -27 5 -13 4 -12 8 0 8 0 4 30 4 30 -6 9 -6 10 -10
-27z"/>
<path d="M1831 714 l1 -19 5 13 5 13 -6 6 -6 6 1 -19z"/>
<path d="M1987 685 l5 -15 9 6 9 5 0 4 0 3 -14 5 -15 6 6 -14z"/>
<path d="M2034 678 l-7 -11 12 7 12 8 14 -18 14 -19 1 11 0 10 -12 12 -12 12
-7 0 -8 0 -7 -12z"/>
<path d="M2090 641 l0 -10 10 -6 10 -6 0 10 0 10 -10 6 -10 6 0 -10z"/>
<path d="M1927 604 l5 -14 9 0 9 0 0 9 0 9 -14 5 -15 6 6 -15z"/>
<path d="M0 605 l0 -4 23 -12 22 -12 -14 16 -13 17 -9 0 -9 0 0 -5z"/>
<path d="M1770 602 l0 -9 23 -21 23 -22 7 0 6 0 -5 15 -6 15 -8 -5 -8 -5 -5
20 -5 20 -11 0 -11 0 0 -8z"/>
<path d="M2068 583 l12 -5 13 5 12 5 -25 0 -25 0 13 -5z"/>
<path d="M1867 573 l-7 -6 0 -24 0 -23 10 0 10 0 0 30 0 30 -3 0 -4 0 -6 -7z"/>
<path d="M1916 564 l-6 -16 0 -19 0 -19 40 0 40 0 -1 28 -2 27 -4 -22 -4 -23
-14 0 -13 0 -11 30 -10 30 -4 0 -5 0 -6 -16z"/>
<path d="M2177 563 l-5 -8 29 -28 29 -27 0 9 0 8 -24 28 -23 27 -6 -9z"/>
<path d="M65 550 l-6 -10 10 0 11 0 0 10 0 10 -4 0 -5 0 -6 -10z"/>
<path d="M87 533 l-7 -6 21 -15 20 -14 3 3 3 4 -17 17 -17 18 -6 -7z"/>
<path d="M1874 495 l15 -15 7 0 6 0 -12 15 -12 15 -10 0 -9 0 15 -15z"/>
<path d="M140 481 l0 -9 15 -6 15 -5 0 -16 0 -16 10 6 10 6 0 -11 0 -11 9 5 9
6 32 -36 31 -36 7 7 7 7 -40 35 -40 35 -27 24 -26 24 -6 0 -6 0 0 -9z"/>
<path d="M1942 483 l1 -8 -8 -19 -8 -19 24 -17 23 -18 8 4 8 5 0 -15 0 -16 10
0 10 0 0 9 0 10 -11 6 -10 7 5 15 6 14 -20 -6 -20 -6 0 14 0 15 18 8 17 7 8
-1 7 -2 0 10 0 10 -35 0 -35 0 2 -7z"/>
<path d="M2028 483 l13 -5 6 6 6 6 -19 -1 -19 -1 13 -5z"/>
<path d="M2168 453 l13 -5 6 6 6 6 -19 -1 -19 -1 13 -5z"/>
<path d="M2060 420 l0 -10 9 0 10 0 6 10 6 10 -15 0 -16 0 0 -10z"/>
<path d="M2341 404 l1 -19 5 13 5 13 -6 6 -6 6 1 -19z"/>
<path d="M2040 352 l0 -11 25 -27 25 -27 4 4 5 4 -30 34 -29 34 0 -11z"/>
<path d="M280 346 l0 -4 15 -6 15 -5 0 9 0 10 -15 0 -15 0 0 -4z"/>
<path d="M2195 340 l6 -10 10 5 9 6 0 5 0 4 -16 0 -15 0 6 -10z"/>
<path d="M320 316 l0 -4 16 -6 15 -6 -6 10 -6 10 -10 0 -9 0 0 -4z"/>
<path d="M360 276 l0 -4 15 -12 15 -13 -6 17 -6 16 -9 0 -9 0 0 -4z"/>
<path d="M2132 271 l-14 -8 15 -6 15 -6 6 15 5 14 -7 0 -7 0 -13 -9z"/>
<path d="M6 255 l6 -15 9 0 8 0 -5 15 -6 15 -9 0 -8 0 5 -15z"/>
<path d="M420 233 l0 -11 15 -12 15 -13 5 5 5 5 -20 18 -20 18 0 -10z"/>
<path d="M0 115 l0 -116 107 3 106 3 4 11 3 10 -61 62 -61 61 7 10 6 11 -11
17 -11 18 6 -22 6 -23 -9 0 -9 0 -24 26 -24 26 -17 9 -18 10 0 -116z"/>
<path d="M50 221 l0 -10 10 -6 10 -6 0 15 0 16 -10 0 -10 0 0 -9z"/>
<path d="M2210 169 l0 -10 10 6 10 6 0 5 0 4 -10 0 -10 0 0 -11z"/>
<path d="M2235 150 l6 -10 10 0 9 0 0 10 0 10 -16 0 -15 0 6 -10z"/>
<path d="M182 90 l13 -20 7 0 7 0 6 10 6 10 -15 0 -16 0 0 10 0 10 -10 0 -10
0 12 -20z"/>
<path d="M220 61 l0 -9 6 -16 6 -17 16 13 16 13 -7 -17 -6 -18 10 0 10 0 -3
17 -4 18 -18 -3 -19 -4 6 16 6 16 -9 0 -10 0 0 -9z"/>
</g>
</svg>
