<?xml version="1.0" standalone="no"?>
<!DOCTYPE svg PUBLIC "-//W3C//DTD SVG 20010904//EN"
 "http://www.w3.org/TR/2001/REC-SVG-20010904/DTD/svg10.dtd">
<svg version="1.0" xmlns="http://www.w3.org/2000/svg"
   viewBox="0 0 191.000000 144.000000"
 preserveAspectRatio="xMidYMid meet">
<metadata>
Created by potrace 1.16, written by Peter Selinger 2001-2019
</metadata>
<g transform="translate(0.000000,144.000000) scale(0.100000,-0.100000)"
fill-opacity="0.2" fill="#006400" stroke="none">
<path d="M250 1426 l0 -14 35 -46 35 -46 0 -11 0 -10 -37 7 -38 7 -32 18 -33
18 -15 -5 -15 -6 0 -7 0 -6 48 -22 47 -21 42 -7 41 -6 25 -47 24 -47 11 2 11
3 -5 -14 -6 -14 17 -26 17 -26 9 6 9 5 -2 -8 -3 -8 65 -67 65 -66 39 -16 38
-16 38 0 38 0 11 -31 11 -32 0 -18 0 -18 -37 -10 -38 -11 -18 0 -18 0 -82 47
-82 47 -40 35 -41 36 -30 25 -31 25 -68 77 -67 78 6 15 5 15 11 0 10 0 0 25 0
25 -9 0 -9 0 -14 -22 -14 -21 -11 6 -12 7 -6 55 -7 55 -15 0 -16 0 6 -37 7
-38 6 -27 6 -28 -23 0 -24 0 -29 15 -29 15 -13 -11 -14 -12 11 -13 11 -14 41
-11 40 -11 22 10 22 10 34 -47 34 -46 12 0 11 0 9 -9 8 -9 -12 7 -13 7 0 -10
0 -9 106 -99 106 -98 67 -33 66 -34 15 -12 15 -11 32 -18 31 -17 25 0 26 0 24
-9 24 -9 15 -16 16 -15 78 -40 79 -40 103 -21 103 -20 53 -24 53 -24 27 -23
26 -23 0 -11 0 -11 -33 -32 -34 -33 -36 41 -37 40 -19 0 -19 0 -12 -15 -12
-14 4 -9 3 -9 35 -42 34 -41 17 -43 17 -42 15 -3 16 -3 40 36 40 37 6 18 6 18
36 38 36 38 34 -39 34 -40 28 -40 28 -40 12 -37 12 -38 -16 -55 -16 -56 -14
-5 -14 -6 -27 27 -26 26 -22 -3 -21 -3 -3 -28 -3 -28 34 -34 35 -35 20 0 20 0
20 18 20 17 22 74 21 74 -6 51 -7 51 -23 30 -23 30 -26 28 -26 28 0 15 0 15
67 -36 66 -35 24 0 23 0 0 -9 0 -8 55 -17 55 -18 33 11 34 11 24 43 24 42 8
19 7 19 -15 23 -15 24 -23 0 -23 0 -15 -18 -15 -18 -7 -17 -6 -17 -28 -11 -28
-11 -58 12 -58 11 -46 20 -46 20 -47 7 -46 7 -77 86 -77 86 -57 32 -58 32 -55
35 -55 34 -43 20 -42 21 -28 42 -27 42 -7 3 -7 3 -50 99 -50 98 -11 41 -11 41
10 35 9 35 -11 35 -11 36 -32 20 -33 20 -32 -3 -32 -3 -20 -38 -19 -37 7 -45
6 -45 26 -31 26 -31 13 -71 13 -72 7 -27 6 -28 -30 0 -30 0 -33 14 -34 15 -76
78 -75 78 -25 40 -25 40 -13 32 -13 33 6 15 5 15 19 0 18 0 32 33 32 33 0 11
0 12 -10 6 -9 6 -23 -26 -22 -25 -33 -20 -32 -19 -20 28 -20 27 -6 27 -7 27
-19 0 -19 0 0 -14z"/>
<path d="M853 1426 l4 -11 33 -5 33 -5 4 -12 4 -11 -30 -7 -31 -7 0 -19 0 -19
18 0 18 0 20 15 19 14 30 0 30 0 40 -15 40 -16 55 -13 55 -14 40 -13 40 -13
-3 -24 -4 -24 59 9 58 9 61 -2 61 -2 60 -58 60 -58 43 -32 42 -33 13 0 14 0 5
-18 6 -19 23 -21 22 -20 58 -20 57 -19 0 61 0 61 -50 43 -50 44 -96 64 -96 64
-7 0 -7 0 -37 36 -37 36 0 22 0 21 -6 23 -6 22 -39 0 -39 0 0 -11 0 -11 -67 6
-68 6 -80 4 -80 5 40 -8 40 -8 45 -18 45 -17 57 0 56 0 6 -22 6 -21 0 -32 0
-33 -17 -1 -18 -1 -20 0 -20 0 -50 20 -50 20 -50 16 -50 16 -22 0 -21 0 -47
20 -47 20 -19 0 -20 0 -5 15 -6 15 -24 0 -24 0 0 10 0 10 -40 -2 -41 -1 4 -11z"/>
<path d="M1763 817 l-23 -10 -5 -17 -6 -17 10 -24 9 -24 20 -23 21 -24 38 -9
38 -9 23 0 22 0 0 39 0 40 -37 3 -38 3 -3 27 -3 26 -22 15 -22 14 -22 -10z"/>
<path d="M131 729 l-21 -23 0 -28 0 -29 14 -27 14 -27 21 -19 21 -19 0 -12 0
-13 -14 -11 -13 -11 -6 -34 -5 -34 14 -48 14 -47 0 -14 0 -13 -13 0 -12 0 -64
65 -64 65 -9 0 -8 0 0 -90 0 -90 41 -21 41 -21 20 5 20 6 -6 -6 -5 -6 57 -28
57 -28 12 -1 11 0 30 -25 29 -24 39 -61 38 -60 123 0 124 0 -48 59 -48 60 -40
26 -39 27 -47 14 -47 14 -11 13 -11 14 -37 17 -38 17 -24 67 -24 67 -4 50 -4
50 18 26 18 26 19 27 19 27 0 40 0 41 -29 28 -29 29 -36 6 -37 7 -21 -23z"/>
<path d="M1870 308 l0 -13 21 -13 21 -13 -4 23 -3 23 -17 3 -18 3 0 -13z"/>
<path d="M1822 241 l-13 -8 7 -27 6 -26 -12 -15 -12 -15 -24 6 -24 6 0 -15 0
-14 52 -7 53 -7 17 -16 18 -16 0 -13 0 -13 9 -5 9 -6 -2 89 -1 89 -6 7 -6 6
-6 -42 -5 -42 -14 -8 -13 -8 -3 47 -3 47 -7 7 -7 7 -13 -8z"/>
</g>
</svg>
