<?xml version="1.0" standalone="no"?>
<!DOCTYPE svg PUBLIC "-//W3C//DTD SVG 20010904//EN"
 "http://www.w3.org/TR/2001/REC-SVG-20010904/DTD/svg10.dtd">
<svg version="1.0" xmlns="http://www.w3.org/2000/svg"
   viewBox="0 0 175.000000 135.000000"
 preserveAspectRatio="xMidYMid meet">
<metadata>
Created by potrace 1.16, written by Peter Selinger 2001-2019
</metadata>
<g transform="translate(0.000000,135.000000) scale(0.100000,-0.100000)"
fill="#9E1A1A" stroke="none">
<path d="M335 1255 l-18 -94 -8 -12 -7 -13 -14 11 -13 10 -81 12 -81 12 -14
-5 -14 -5 -42 -11 -43 -11 0 -209 0 -210 9 0 10 0 28 24 28 24 3 116 4 116
178 0 179 0 6 10 6 10 14 119 14 118 14 42 15 41 -77 0 -77 0 -19 -95z"/>
<path d="M778 1343 l12 -5 13 5 12 5 -25 0 -25 0 13 -5z"/>
<path d="M1351 1334 l-44 -14 -25 -22 -25 -23 -13 -32 -14 -32 0 -42 0 -42 21
-91 21 -91 46 -100 45 -100 14 -21 14 -21 38 -110 39 -110 7 -54 7 -54 -11
-27 -10 -27 -49 -25 -49 -25 -54 -2 -54 -3 -135 22 -135 21 -45 16 -45 17 -55
14 -55 15 -135 34 -135 35 -100 20 -100 21 -65 1 -65 1 -47 -16 -48 -17 -30
-27 -31 -27 4 -25 4 -26 -4 12 -4 13 -9 0 -8 0 -4 -31 -5 -31 5 -23 4 -23 36
-7 37 -6 100 -9 100 -9 60 -10 60 -11 40 -9 40 -9 145 -47 145 -48 75 -12 75
-13 123 -21 123 -22 22 -8 23 -9 64 -7 65 -6 121 20 121 20 39 21 39 22 18 19
17 18 11 28 12 28 11 65 12 65 -7 90 -6 90 -30 60 -30 60 -23 70 -23 70 -7 10
-7 10 -28 85 -27 85 -14 26 -13 26 -10 64 -10 64 -5 65 -5 65 -11 38 -11 38
-30 6 -29 6 -6 8 -5 9 -7 -1 -7 -1 -44 -14z m-11 -68 l0 -8 -19 5 -18 4 -19
-9 -19 -9 30 25 29 25 8 -12 8 -12 0 -9z m30 24 l0 -10 -4 0 -5 0 -6 10 -6 10
10 0 11 0 0 -10z m40 0 l0 -10 -4 0 -5 0 -6 10 -6 10 10 0 11 0 0 -10z m-30
-24 l0 -5 -10 -6 -10 -6 0 10 0 11 10 0 10 0 0 -4z m90 -20 l0 -15 -8 -5 -8
-5 0 20 0 19 8 0 8 0 0 -14z m-166 -12 l6 -15 -10 6 -10 6 0 10 0 9 4 0 4 0 6
-16z m56 -49 l0 -14 -15 5 -15 6 0 9 0 9 15 0 15 0 0 -15z m77 -7 l-5 -13 -1
19 -1 19 6 -6 6 -6 -5 -13z m-120 -20 l-5 -13 0 25 0 25 5 -12 5 -13 -5 -12z
m163 6 l0 -15 -10 6 -10 6 5 10 6 9 5 0 4 0 0 -16z m-130 -24 l0 -10 -4 0 -5
0 -6 10 -6 10 10 0 11 0 0 -10z m-93 -42 l-5 -13 0 25 0 25 5 -12 5 -13 -5
-12z m89 -5 l-5 -5 -10 7 -11 6 0 11 0 10 15 -12 15 -13 -4 -4z m101 11 l-6
-6 -13 5 -13 5 19 1 19 1 -6 -6z m-37 -33 l0 -9 -20 5 -20 5 0 4 0 4 20 0 20
0 0 -9z m-73 -7 l-6 -6 -13 5 -13 5 19 1 19 1 -6 -6z m105 -19 l5 -25 -5 -4
-4 -5 -19 12 -19 12 0 8 0 9 16 -6 16 -6 -6 15 -5 15 8 0 9 0 4 -25z m50 -47
l-12 -12 0 10 0 11 7 6 6 7 6 -5 5 -5 -12 -12z m-120 -27 l4 -30 -8 5 -8 5 0
25 0 24 4 0 4 0 4 -29z m122 -172 l-5 -9 -8 0 -9 0 1 13 0 12 -8 33 -7 32 -9
0 -9 0 1 23 0 22 29 -59 30 -59 -6 -8z m-161 94 l-5 -13 -9 6 -9 5 0 8 0 8 14
0 14 0 -5 -14z m65 -21 l4 -12 -16 6 -16 6 0 10 0 10 12 -4 12 -4 4 -12z m-45
-38 l-5 -14 -3 0 -3 0 -5 19 -5 20 14 -6 13 -5 -6 -14z m80 2 l6 -14 -13 -5
-14 -6 5 20 5 19 3 0 3 0 5 -14z m107 -16 l8 0 5 13 5 12 1 -13 1 -13 -16 -6
-16 -6 -8 14 -9 13 7 11 7 10 3 -17 3 -18 9 0z m0 -35 l0 -15 -9 0 -10 0 -5 9
-5 8 6 7 6 6 9 0 8 0 0 -15z m44 6 l6 -9 -15 -6 -15 -5 0 14 0 15 9 0 10 0 5
-9z m-89 -31 l6 -10 -15 0 -16 0 0 10 0 10 9 0 10 0 6 -10z m56 -13 l-1 -7 -7
-1 -7 0 -4 12 -4 12 12 -4 12 -4 -1 -8z m-134 -29 l-5 -13 -1 19 -1 19 6 -6 6
-6 -5 -13z m93 3 l0 -18 -27 5 -28 6 18 4 17 3 0 10 0 9 10 0 10 0 0 -19z m45
-21 l6 -10 -7 -11 -6 -11 -9 13 -9 14 0 8 0 7 9 0 10 0 6 -10z m-125 -4 l0 -5
-10 -6 -10 -6 0 10 0 11 10 0 10 0 0 -4z m54 -21 l20 -15 -6 0 -6 0 -28 15
-29 15 15 0 15 -1 19 -14z m36 5 l0 -9 -15 5 -15 6 0 4 0 4 15 0 15 0 0 -10z
m-63 -62 l-5 -13 -1 19 -1 19 6 -6 6 -6 -5 -13z m33 7 l0 -15 -4 0 -4 0 -6 15
-5 15 9 0 10 0 0 -15z m80 5 l0 -10 -10 0 -10 0 0 10 0 10 10 0 10 0 0 -10z
m-27 -35 l-5 -16 -5 5 -5 5 7 10 6 11 4 0 4 0 -6 -15z m-53 -9 l0 -15 -10 -6
-10 -6 0 20 0 21 10 0 10 0 0 -14z m85 -44 l-5 -6 -13 13 -12 12 18 -7 18 -6
-6 -6z m-85 -2 l0 -10 -10 0 -10 0 0 10 0 10 10 0 10 0 0 -10z m198 -40 l20
-41 -14 12 -14 11 0 -23 0 -24 -10 15 -9 14 11 13 10 13 -10 0 -10 0 -5 19 -5
20 6 5 5 6 3 0 2 0 20 -40z m-121 -12 l-5 -13 -1 19 -1 19 6 -6 6 -6 -5 -13z
m-1397 -48 l15 -10 -22 0 -23 0 0 10 0 10 8 0 7 0 15 -10z m87 4 l-6 -6 -13 5
-13 5 19 1 19 1 -6 -6z m53 -9 l0 -4 -19 2 -20 1 5 8 5 7 14 -6 15 -5 0 -3z
m1280 -9 l0 -15 -10 -6 -10 -6 0 20 0 21 10 0 10 0 0 -14z m124 -25 l-3 -3
-10 6 -10 7 6 16 6 17 7 -20 7 -19 -3 -4z m-1594 14 l-13 -15 -4 4 -5 5 7 10
6 11 11 0 10 0 -12 -15z m327 -1 l-6 -6 -13 5 -13 5 19 1 19 1 -6 -6z m68 -4
l6 -10 -20 0 -21 0 0 10 0 10 14 0 15 0 6 -10z m70 -20 l20 -9 -40 0 -40 -1
15 10 15 10 5 -1 5 0 20 -9z m1124 -14 l11 -13 -8 -23 -8 -22 -15 18 -14 18
13 -8 12 -7 0 15 0 15 -15 -5 -15 -6 0 9 0 10 7 6 6 7 7 0 8 0 11 -14z m-1035
-25 l6 -9 -20 5 -20 5 0 4 0 4 14 0 15 0 5 -9z m63 3 l-6 -6 -13 5 -13 5 19 1
19 1 -6 -6z m-607 -18 l0 -5 -9 -6 -10 -5 -6 10 -6 10 15 0 16 0 0 -4z m640
-11 l12 -15 -10 0 -10 0 -6 15 -5 15 3 0 4 0 12 -15z m73 -18 l-5 -9 -10 10
-10 10 7 12 8 12 8 -13 8 -13 -6 -9z m-570 6 l-13 -5 -12 5 -13 5 25 0 25 0
-12 -5z m634 -9 l-6 -6 -13 5 -13 5 19 1 19 1 -6 -6z m-827 -20 l0 -4 -20 0
-20 0 0 9 0 9 20 -5 20 -5 0 -4z m421 -13 l24 -19 -30 5 -30 5 -13 4 -13 4 6
10 6 10 13 0 14 0 23 -19z m1206 -23 l-5 -13 -1 19 -1 19 6 -6 6 -6 -5 -13z
m-1352 2 l20 -9 -32 2 -33 1 0 8 0 8 13 -1 12 0 20 -9z m245 -4 l25 -1 11 -10
11 -10 -10 -22 -10 -23 -13 0 -13 0 5 15 6 15 10 -6 11 -7 -5 14 -5 14 -21 3
-22 3 -9 -23 -10 -23 -1 20 -2 20 -5 -13 -5 -12 -11 7 -12 8 -5 0 -5 1 -35 8
-35 9 20 8 20 8 10 0 10 1 -13 -9 -14 -8 21 -6 21 -5 0 9 0 8 18 -6 17 -7 -15
19 -15 18 25 -8 25 -9 25 0z m120 -26 l0 -9 -22 -3 -23 -3 3 -7 2 -8 6 1 7 1
8 -13 8 -13 -5 -8 -5 -8 -12 0 -12 0 15 10 15 10 -15 1 -15 1 -12 -1 -11 -2
-7 11 -6 10 9 0 10 0 4 18 5 17 26 1 27 2 0 -8z m34 -15 l-6 -15 -9 0 -9 0 0
8 0 9 7 6 6 7 8 0 8 0 -5 -15z m344 2 l17 6 -12 -13 -11 -12 -11 6 -11 7 1 12
1 12 4 -12 5 -12 17 6z m76 -17 l-11 -11 -24 10 -24 10 35 0 34 1 -10 -10z
m309 -11 l-6 -20 -11 11 -11 11 15 9 15 10 2 0 1 0 -5 -21z m-593 -13 l0 -5
-10 -6 -10 -6 0 10 0 11 10 0 10 0 0 -4z m790 -6 l0 -10 -10 0 -10 0 0 10 0
10 10 0 10 0 0 -10z m-270 -25 l12 -15 -25 0 -26 0 5 15 6 15 8 0 8 0 12 -15z
m-640 1 l0 -5 -9 -6 -10 -5 -6 10 -6 10 15 0 16 0 0 -4z m29 -17 l-14 -9 -9 0
-8 0 12 15 12 15 10 -6 10 -6 -13 -9z m527 -4 l-2 -14 -7 -7 -7 -7 0 15 0 15
7 6 6 7 3 0 2 0 -2 -15z m248 -13 l5 -8 -22 -1 -22 -2 15 9 15 10 2 0 2 0 5
-8z m-50 -17 l20 -15 -15 0 -14 0 -22 6 -23 6 6 9 5 9 12 0 12 -1 19 -14z
m-381 -12 l-13 -5 -12 5 -13 5 25 0 25 0 -12 -5z m112 -15 l6 -6 -26 -4 -25
-5 0 12 0 12 20 -2 20 -1 5 -6z m80 -18 l6 -10 -28 1 -28 0 20 9 20 9 2 0 2 1
6 -10z"/>
</g>
</svg>
