<?xml version="1.0" standalone="no"?>
<!DOCTYPE svg PUBLIC "-//W3C//DTD SVG 20010904//EN"
 "http://www.w3.org/TR/2001/REC-SVG-20010904/DTD/svg10.dtd">
<svg version="1.0" xmlns="http://www.w3.org/2000/svg"
   viewBox="0 0 497.000000 453.000000"
 preserveAspectRatio="xMidYMid meet">
<metadata>
Created by potrace 1.16, written by Peter Selinger 2001-2019
</metadata>
<g transform="translate(0.000000,453.000000) scale(0.100000,-0.100000)"
fill="#006400" stroke="none">
<path d="M20 4455 l0 -75 9 -18 10 -17 5 -17 5 -18 17 7 17 6 -7 -11 -7 -12
15 6 16 6 0 -10 0 -11 33 -3 32 -4 -24 -10 -24 -11 12 -7 12 -8 20 18 19 17
-6 21 -5 21 9 -13 9 -13 21 -2 22 -1 0 -13 0 -13 10 0 10 0 0 10 0 10 10 0 10
0 -3 -8 -2 -8 29 -27 29 -27 -4 -3 -4 -3 -25 -10 -24 -11 22 -19 22 -18 0 -8
0 -8 -42 0 -43 0 -15 -10 -15 -10 43 0 43 0 29 -15 29 -15 11 -19 10 -20 0
-20 0 -21 14 0 15 0 6 10 6 10 26 0 26 0 36 -22 36 -22 11 -14 11 -15 6 17 7
16 -45 22 -45 22 0 13 0 13 10 0 10 0 -1 -7 -1 -8 1 -9 1 -8 25 16 25 16 0 -6
0 -7 -16 -11 -15 -12 20 -1 20 -2 10 13 10 12 -6 22 -5 22 -14 0 -14 0 0 8 -1
7 -24 18 -25 18 0 -11 0 -10 20 -20 20 -20 -15 0 -15 0 -11 27 -10 27 6 23 5
23 -26 0 -26 0 -5 20 -5 21 -19 -6 -18 -6 -7 26 -7 27 -8 -14 -9 -13 0 13 0
13 -15 15 -15 15 0 -13 0 -13 -9 14 -9 14 -11 -7 -11 -7 0 10 0 11 -20 0 -20
0 0 11 0 11 14 -5 15 -6 10 13 11 13 -15 13 -16 13 -11 -11 -10 -10 -14 5 -14
5 0 -10 0 -10 13 -5 12 -4 -7 -8 -7 -7 -26 28 -25 27 6 19 5 18 -6 0 -6 0 -16
-15 -15 -16 -6 6 -6 6 26 22 25 22 -13 13 -14 13 -10 -6 -10 -6 0 14 0 13 -28
27 -28 27 -9 0 -9 0 18 -13 18 -13 3 -28 4 -29 10 -10 11 -11 0 -8 0 -8 -15 0
-15 0 -6 40 -6 40 -14 11 -14 12 -6 -5 -5 -6 13 -13 14 -14 -18 -17 -18 -18 0
8 0 8 11 11 11 11 -11 6 -11 7 0 19 0 18 13 5 12 5 -17 1 -18 1 0 -75z m105
-115 l6 -10 -10 0 -10 0 -6 10 -6 10 10 0 10 0 6 -10z m150 0 l6 -10 -15 0
-16 0 0 10 0 10 9 0 10 0 6 -10z m-198 -6 l-6 -6 -13 5 -13 5 19 1 19 1 -6 -6z
m291 -140 l22 -15 -5 -9 -5 -8 -23 5 -22 6 13 -14 12 -13 0 -15 0 -15 -35 34
-34 33 17 13 17 13 10 1 11 0 22 -16z m52 -68 l0 -5 -9 -6 -10 -5 -6 10 -6 10
15 0 16 0 0 -4z m-29 -54 l6 -32 -6 0 -7 0 -17 34 -16 34 17 -2 17 -3 6 -31z
m59 18 l0 -10 -10 0 -10 0 0 10 0 10 10 0 10 0 0 -10z"/>
<path d="M745 4504 l25 -27 1 -13 2 -14 1 -12 2 -13 -10 -14 -11 -14 35 8 35
7 41 1 41 2 41 -27 41 -28 16 -34 17 -35 -6 -18 -6 -19 37 -2 38 -3 35 -9 35
-10 44 -31 43 -32 -6 -38 -6 -38 47 -6 48 -6 42 -19 41 -19 25 -33 25 -33 7
-37 7 -36 21 -6 22 -6 30 0 30 0 52 -35 52 -35 25 -33 26 -34 0 -9 0 -9 10
-36 10 -36 50 -7 49 -7 31 -12 30 -13 45 -43 45 -43 0 -21 0 -22 6 -22 6 -23
27 0 27 0 41 -20 41 -19 20 -43 21 -43 11 -29 10 -28 14 11 14 12 7 35 6 36
12 15 12 16 43 43 43 44 52 2 52 2 29 -1 29 -1 83 -41 83 -41 6 -20 6 -20 13
0 13 0 6 41 5 41 18 19 17 19 45 26 45 26 42 -4 42 -5 -5 47 -4 48 11 33 12
34 27 20 27 20 68 0 67 0 0 29 0 30 20 42 21 42 42 18 42 17 47 0 46 -1 -1 42
-2 42 34 42 33 43 35 14 35 15 29 0 29 0 0 30 0 31 15 36 16 37 23 30 23 31
44 12 44 12 29 6 29 6 -12 12 -11 11 0 42 0 41 15 42 14 41 -186 -2 -187 -3
-42 -55 -43 -55 -18 -19 -18 -19 -100 -97 -100 -97 -32 -38 -33 -38 0 -3 0 -4
-77 -80 -78 -80 -89 -95 -89 -95 -18 -26 -17 -27 -92 -89 -91 -88 -26 0 -26 0
-54 41 -54 42 -42 40 -42 40 -76 66 -75 66 -58 49 -58 49 -41 33 -42 33 -44
46 -45 47 -55 41 -56 42 -55 51 -55 51 -91 81 -91 81 -7 -7 -8 -7 4 11 3 10
-67 57 -67 57 -265 0 -265 0 24 -26z"/>
<path d="M4432 4508 l-12 -12 0 -14 0 -14 -15 12 -15 12 -1 -8 -1 -9 1 -7 1
-8 -24 -6 -25 -6 6 -16 6 -15 -16 6 -16 6 -11 -14 -11 -13 3 -12 3 -12 -14 -6
-14 -5 8 14 8 14 -36 -35 -37 -35 0 -17 0 -18 -11 0 -10 0 -36 -37 -36 -38 6
17 6 17 -15 -6 -14 -5 0 -9 0 -9 -80 -81 -80 -80 0 -8 0 -9 27 -7 26 -6 -33
-20 -33 -20 -26 5 -26 5 13 -5 12 -6 0 -15 0 -15 -14 12 -15 12 -18 -12 -18
-12 18 6 18 6 -6 -21 -7 -20 18 -20 17 -19 -10 0 -11 0 -20 31 -19 31 -7 -41
-6 -41 -15 0 -15 0 0 -20 0 -20 -15 0 -15 0 0 -11 0 -10 -22 6 -23 6 15 -10
15 -11 -12 0 -13 0 0 -19 0 -19 -15 -6 -15 -5 -14 5 -14 5 -6 -19 -7 -19 -19
-18 -19 -17 5 -13 5 -12 -15 -6 -15 -6 6 17 6 17 -29 -36 -29 -35 -45 -46 -45
-46 -10 -11 -10 -11 -33 -26 -33 -27 5 -13 5 -12 -15 -6 -15 -6 7 13 8 12 -18
-14 -18 -15 6 -30 6 -30 -6 7 -6 6 -29 -30 -29 -30 0 -9 0 -9 -21 -15 -22 -15
6 -15 6 -15 -15 6 -15 6 -14 -19 -14 -19 4 -12 4 -12 -13 5 -13 5 -7 -23 -6
-23 -9 14 -9 14 -10 -7 -11 -7 6 -16 6 -16 -10 6 -11 7 5 -20 5 -20 10 0 9 0
-6 -11 -7 -10 -12 17 -13 16 -22 -7 -22 -7 5 -14 5 -14 -14 0 -14 0 -11 -19
-10 -20 12 -7 11 -7 -8 13 -8 13 12 -7 11 -7 -5 -9 -5 -8 -29 -7 -29 -6 -18
-20 -17 -19 6 -7 7 -6 -16 -18 -16 -18 -15 6 -15 6 7 -22 7 -23 -20 6 -19 6
-14 -16 -14 -17 1 -6 1 -6 -10 -22 -10 -23 -9 0 -8 0 0 10 0 10 9 0 9 0 5 20
5 20 -119 -119 -119 -119 6 -19 6 -18 -10 14 -10 14 -11 -8 -12 -7 13 -16 13
-16 -17 6 -16 7 -16 -18 -16 -18 0 -11 0 -12 -15 0 -15 0 0 9 0 9 -30 7 -29 6
-33 23 -33 22 -17 7 -18 6 0 11 0 10 9 0 9 0 5 -12 4 -13 8 7 7 7 -34 30 -33
30 -16 1 -17 0 -12 30 -12 30 -10 0 -9 0 -37 27 -37 27 -42 38 -42 38 -13 -4
-13 -3 8 5 8 4 -12 14 -12 14 -13 -11 -13 -11 -11 7 -10 6 0 12 0 12 9 -13 8
-13 12 14 12 15 -26 6 -26 7 7 11 7 11 -11 -6 -10 -7 -16 6 -17 6 6 18 5 17
-45 41 -46 42 -12 0 -12 0 55 -50 55 -50 -12 0 -13 0 -21 17 -21 18 -12 11
-11 11 -15 -4 -15 -5 14 11 15 10 -26 11 -26 12 -11 24 -11 24 -13 0 -13 0
-30 33 -29 34 -15 5 -15 5 9 9 9 9 4 -12 5 -13 13 0 14 0 30 -32 31 -33 0 11
0 12 -34 28 -33 29 -39 32 -39 32 -129 103 -130 103 -43 35 -42 35 -200 162
-199 161 -29 18 -28 19 -5 6 -5 6 -45 29 -45 28 -5 2 -5 1 -17 7 -18 8 -1 22
0 21 -7 -16 -7 -16 -18 6 -18 7 3 9 3 10 -28 3 -29 3 6 15 5 14 -22 10 -22 11
19 -15 20 -16 -10 0 -9 -1 -19 -14 -18 -14 7 -11 7 -12 9 13 8 13 7 -7 8 -7
-22 -20 -22 -21 0 -39 0 -40 26 -6 26 -7 -13 -7 -12 -8 -12 4 -12 5 -18 -28
-18 -28 19 17 19 17 63 -4 62 -3 16 -13 15 -12 15 -36 15 -36 -6 -33 -6 -33 6
-19 6 -19 35 15 36 15 61 -3 61 -3 27 -45 27 -45 1 -17 1 -18 10 0 9 0 -6 -17
-6 -18 -14 -8 -13 -8 0 -9 0 -10 21 0 20 0 54 -25 53 -26 11 -31 11 -31 0 -18
0 -19 9 0 9 0 -2 -17 -1 -18 -15 -7 -15 -7 28 0 27 -1 0 10 0 10 28 0 27 0 36
-10 35 -10 22 -23 22 -23 3 -30 4 -29 7 -17 8 -18 19 3 18 3 7 7 7 7 -9 1 -9
1 -18 3 -19 3 -2 4 -1 3 6 50 6 50 1 -43 2 -42 30 -19 30 -18 -5 -5 -5 -5 39
-26 40 -27 17 -35 16 -35 9 0 10 0 -11 -21 -12 -21 6 -13 5 -14 -16 6 -16 6 6
-16 6 -16 -15 6 -14 5 0 -15 0 -14 45 10 45 10 37 -11 36 -11 16 9 16 9 -19 1
-19 0 6 6 5 6 21 -7 21 -6 0 -9 0 -9 -22 -3 -22 -3 27 -29 27 -29 0 10 0 9
-11 11 -11 11 13 7 12 8 -7 -11 -7 -12 15 0 16 0 -9 -22 -8 -23 8 -20 8 -20 0
-42 1 -42 -22 -17 -23 -16 20 7 20 7 51 14 51 14 41 -3 41 -3 8 -7 7 -8 -19 6
-20 6 37 -20 37 -21 6 -10 6 -10 11 6 11 7 -7 -12 -8 -12 18 -20 17 -19 -11 0
-12 0 0 -10 0 -10 25 0 24 0 -5 -15 -6 -16 -19 6 -19 6 0 -21 0 -20 23 5 22 6
62 2 62 2 12 -22 12 -23 18 0 17 0 7 -17 8 -18 7 -38 7 -38 -19 -10 -20 -11 5
-5 5 -5 21 12 21 11 0 -8 0 -8 -39 -34 -39 -34 -18 -39 -17 -38 -9 0 -8 0 -19
19 -20 20 -6 33 -6 33 10 28 11 27 -9 0 -9 0 -35 -15 -36 -15 -34 0 -34 0 -39
28 -39 29 -13 16 -14 16 -3 43 -3 43 -1 3 -1 3 -21 -11 -20 -11 -29 -1 -29 -1
-30 12 -30 13 -27 51 -28 52 0 50 -1 50 -57 -3 -57 -4 -33 16 -33 16 -25 36
-24 37 1 76 1 76 -25 -29 -24 -29 -43 -4 -43 -5 -33 29 -33 30 -3 48 -3 49 16
33 16 34 -6 6 -6 5 -43 -21 -43 -20 -25 6 -25 6 -13 10 -13 10 -15 36 -15 36
7 55 7 55 -19 -17 -19 -17 -42 -2 -43 -3 -26 25 -27 24 -18 40 -19 40 0 28 0
28 10 20 11 19 -6 0 -6 0 -36 -15 -35 -15 -20 0 -20 0 -35 17 -35 16 -25 39
-26 38 7 57 7 57 -20 -23 -19 -22 -34 -5 -33 -5 -40 8 -40 9 -22 33 -23 34 0
59 0 59 -64 -7 -64 -7 -27 43 -27 43 4 53 4 52 -15 -6 -16 -6 -5 -8 -6 -8 -77
-11 -77 -11 0 -59 0 -59 10 0 10 0 0 -16 0 -15 -10 6 -10 6 0 -40 0 -41 13 0
12 0 94 -95 93 -95 4 0 4 0 52 -53 53 -54 69 -49 70 -48 45 -46 46 -45 45 -39
45 -39 95 -91 95 -91 20 -12 20 -12 -42 0 -43 -1 -77 -21 -78 -21 -95 -42 -95
-42 -65 -49 -64 -50 -97 -95 -96 -95 -28 -55 -28 -55 -1 -105 0 -105 11 -65
11 -65 15 -40 14 -40 28 -50 28 -50 7 -5 6 -5 24 -39 24 -40 47 -56 47 -57 54
-39 53 -39 3 -8 4 -7 29 -16 29 -15 63 -19 62 -20 81 -12 81 -12 98 24 97 23
76 51 77 51 45 57 45 56 30 59 30 58 7 5 7 6 11 47 10 48 1 47 1 47 -12 45
-12 45 -26 45 -25 45 -30 32 -30 32 -10 -6 -10 -6 6 10 7 10 -19 17 -18 16 -8
-7 -8 -8 7 12 7 12 -56 44 -56 44 -67 22 -67 21 -67 7 -67 6 -43 -17 -43 -18
-52 -38 -51 -39 -32 -56 -32 -55 -5 -74 -6 -73 24 -48 24 -47 49 -48 50 -48
60 -15 61 -15 32 5 32 5 40 34 39 34 7 31 7 31 -25 26 -26 25 -38 -3 -38 -3
-44 1 -44 1 -17 16 -18 16 -12 29 -12 28 17 31 16 32 25 9 25 10 55 0 55 0 32
-16 32 -17 58 -45 58 -44 11 -27 10 -26 7 -48 8 -49 -9 -46 -10 -47 -27 -29
-26 -29 -40 -18 -40 -19 -65 0 -65 0 -74 20 -74 20 -35 27 -34 28 -32 21 -31
21 -36 40 -36 40 -28 56 -27 57 -5 82 -5 83 22 58 22 58 65 64 65 64 76 39 77
40 55 16 55 17 97 6 98 6 67 -18 68 -17 23 -15 22 -14 14 3 14 3 54 -51 53
-51 84 -82 83 -81 3 0 3 0 67 -62 67 -63 51 -33 52 -32 53 -48 53 -47 24 -23
25 -23 0 -9 0 -9 50 -51 50 -51 0 -13 0 -14 -85 -48 -86 -49 -82 -49 -82 -48
-50 -29 -50 -29 -145 -71 -145 -72 -30 -22 -30 -23 -150 -88 -150 -88 -80 -41
-80 -41 -60 -33 -60 -34 -15 -12 -15 -12 -60 -32 -59 -33 -26 -18 -25 -17 -60
-32 -60 -32 -37 -22 -37 -23 -19 -17 -19 -17 -11 0 -12 0 0 -9 0 -9 -28 -11
-27 -11 -48 -44 -48 -43 2 -211 2 -212 12 0 13 0 5 21 6 22 20 -7 21 -6 18 -6
17 -5 -3 46 -4 45 31 32 31 31 32 0 33 0 22 -7 21 -8 4 24 3 23 -19 16 -19 16
19 19 19 19 3 24 4 24 16 17 17 17 33 13 33 13 47 -6 47 -6 18 -6 17 -7 0 31
0 31 10 0 10 0 0 14 0 14 35 31 35 31 25 6 24 6 58 -4 58 -4 14 -5 15 -4 3 20
4 20 9 20 8 20 12 32 12 32 30 31 29 31 27 10 27 11 69 -4 69 -3 4 25 4 25 17
34 17 35 26 19 26 19 60 1 60 2 17 -14 16 -14 4 4 3 4 23 69 22 68 42 19 41
19 47 0 47 0 6 -10 6 -10 10 0 9 0 0 35 0 36 15 28 14 28 50 22 50 21 26 0 26
0 25 -16 25 -17 8 9 7 9 13 50 12 50 14 8 14 8 -5 17 -6 17 10 -14 9 -13 21
11 21 11 35 0 35 0 6 -10 6 -10 10 0 9 0 0 39 0 39 25 31 26 30 34 11 35 11
22 -7 23 -7 -14 17 -13 16 10 0 11 0 16 -27 16 -28 52 -30 52 -30 40 -18 40
-18 -28 6 -27 5 2 -11 3 -12 -25 -8 -25 -7 -43 -1 -43 -1 6 10 6 10 -17 0 -17
0 7 -32 6 -32 13 -9 12 -9 -17 6 -18 5 0 -9 0 -9 -56 -26 -55 -26 -51 -4 -51
-3 -4 -59 -5 -58 -15 -17 -16 -18 -13 0 -13 0 -8 -13 -8 -13 -41 -12 -41 -12
-9 0 -9 0 15 10 15 10 -33 0 -33 0 -16 16 -16 16 -16 -49 -17 -48 3 -4 3 -4
15 13 15 12 0 19 0 19 9 0 10 0 -10 -28 -10 -29 -35 -16 -35 -17 -14 0 -14 0
-6 -20 -6 -20 -25 0 -25 0 -24 -24 -25 -25 -4 7 -4 7 11 16 12 15 35 12 35 12
-35 -6 -35 -6 -17 0 -16 1 0 -37 1 -37 -7 -17 -8 -17 -41 -19 -42 -19 -45 2
-45 1 -9 -5 -10 -4 20 -8 19 -8 -26 0 -26 -1 -11 25 -12 25 -14 0 -15 0 7 -21
8 -21 -4 -29 -4 -28 -26 -26 -25 -25 -24 -6 -24 -6 -62 5 -62 5 -20 7 -20 6
-1 -76 -2 -76 -21 -23 -21 -22 10 -10 11 -11 -15 -12 -15 -13 -18 12 -18 11
23 -6 22 -6 0 15 0 16 -9 0 -9 0 -33 -14 -33 -14 15 -5 14 -4 -28 3 -28 4 5
-8 5 -8 -32 4 -32 5 -7 11 -8 11 -9 -14 -9 -14 -10 7 -11 7 6 14 5 15 -21 0
-21 0 0 -10 0 -10 10 0 10 0 -6 -28 -7 -27 -10 -13 -10 -12 17 6 16 6 0 11 0
10 5 -5 5 -5 -6 -17 -6 -16 -22 0 -23 0 -6 -7 -7 -6 17 -13 18 -12 -26 5 -26
5 -37 -10 -37 -11 -60 11 -60 10 -7 -7 -7 -7 18 -12 17 -13 0 -27 0 -27 -9 5
-9 6 3 -33 3 -32 -11 -16 -12 -15 -35 -17 -35 -17 17 0 17 0 7 -12 7 -11 -24
7 -24 8 -40 4 -40 5 -12 4 -11 4 -6 -16 -6 -15 14 5 14 6 -5 -20 -6 -20 23
-24 23 -25 -21 0 -22 0 0 -10 0 -10 27 5 28 6 -25 -15 -25 -15 26 -1 26 0 0
-15 0 -15 -11 0 -10 0 20 -15 19 -14 -8 -1 -8 0 -24 16 -25 16 0 -10 0 -11 18
-10 17 -10 -17 -1 -18 0 0 -9 0 -9 -20 5 -20 5 6 10 6 9 14 -5 13 -5 -6 15 -5
14 -8 0 -8 0 -6 -16 -6 -16 -15 6 -15 6 10 -23 11 -22 -20 25 -20 25 5 5 5 5
41 12 40 12 14 -6 14 -5 0 12 0 13 -30 -7 -30 -6 0 10 0 10 12 0 11 0 -5 6 -6
6 -22 -12 -23 -12 12 -7 12 -8 -31 0 -30 0 -14 -18 -13 -18 -39 5 -39 6 -20 7
-20 7 15 -11 15 -11 -27 0 -26 0 -5 13 -5 12 -1 -19 -1 -19 46 7 45 6 -6 -11
-7 -10 29 6 28 7 -25 -14 -25 -14 -33 2 -32 1 -7 6 -6 7 -16 0 -16 0 12 -8 12
-7 3 -49 3 -49 13 -3 13 -3 -11 6 -10 5 0 39 0 39 10 0 9 0 -5 -15 -6 -15 15
6 16 6 4 16 5 17 1 -26 1 -27 15 -6 15 -5 0 -16 0 -15 13 0 12 0 13 30 14 30
10 -6 11 -7 -16 -12 -17 -12 0 -12 0 -12 -23 -9 -22 -9 12 0 12 -1 60 37 61
38 0 8 0 7 -10 0 -10 0 0 -10 0 -9 -17 6 -16 6 7 -11 6 -11 -9 -5 -9 -6 2 14
2 13 15 16 15 15 15 -9 15 -8 30 16 29 16 110 54 110 55 13 10 12 11 -11 14
-12 13 7 7 6 6 0 -11 0 -12 17 0 16 0 44 32 43 33 26 21 26 21 39 12 39 12 0
10 0 10 -12 -7 -11 -7 7 12 7 11 9 -5 9 -5 25 11 26 12 0 9 0 8 -10 0 -10 0 0
-8 0 -8 -22 -1 -23 -2 19 11 20 11 34 3 35 3 6 9 6 9 23 8 23 7 -5 13 -5 14
13 -5 13 -5 37 22 37 22 -10 10 -11 11 -31 -23 -31 -23 -5 6 -6 6 10 0 11 0 6
25 6 25 13 0 13 0 23 -17 24 -16 14 19 14 19 -4 22 -4 22 8 -5 9 -5 0 -15 0
-14 6 0 5 0 43 25 42 25 24 25 23 25 14 0 13 0 0 10 0 10 -10 0 -11 0 13 14
13 14 9 -5 8 -5 -13 -9 -14 -9 7 0 7 0 52 30 51 31 14 12 13 12 13 10 13 10
77 44 76 44 -5 13 -5 14 15 -6 16 -6 53 34 53 35 30 19 30 19 30 17 30 18 23
12 22 11 0 9 0 8 -8 0 -8 0 -12 -12 -12 -12 0 12 0 13 17 6 18 7 50 38 50 38
7 0 7 0 -27 -28 -27 -27 -29 -13 -29 -13 5 -5 6 -5 38 18 38 18 22 22 22 21
41 13 41 12 0 9 0 8 18 0 17 1 -18 10 -19 11 -11 -11 -11 -11 -9 0 -8 0 14 15
15 14 53 -4 53 -4 -13 8 -14 9 8 12 7 12 -21 -11 -21 -12 -18 11 -17 11 23 -6
22 -6 6 16 6 16 17 -6 17 -5 52 25 52 25 0 6 0 5 -22 -5 -23 -6 25 11 25 11
35 15 35 16 -20 7 -20 7 -3 -13 -3 -14 -30 0 -29 0 0 -7 0 -8 -27 -12 -27 -13
-7 0 -7 0 15 31 16 31 7 -11 7 -12 13 16 12 15 12 0 11 0 35 31 35 31 23 9 24
9 21 -15 21 -15 13 0 13 0 0 9 0 9 -32 13 -33 13 -20 8 -20 8 39 -6 39 -5 14
-15 15 -14 10 6 10 6 -11 11 -11 11 0 8 0 8 28 -11 27 -10 42 6 41 6 35 -15
36 -14 64 -49 65 -48 42 -25 42 -25 35 -32 34 -33 4 0 3 0 32 -28 33 -27 17
-16 17 -16 44 -24 44 -24 6 -8 5 -7 41 -28 42 -27 79 -58 80 -57 19 6 18 6
-12 -9 -12 -9 7 -10 7 -11 22 -11 22 -12 4 23 4 22 2 -37 1 -37 9 -5 9 -6 5
12 5 13 1 -20 1 -20 9 13 8 13 13 -16 12 -15 -6 0 -7 0 21 -29 20 -30 37 6 36
6 -7 -12 -8 -12 -17 6 -16 6 11 -11 12 -12 20 11 21 11 6 0 6 0 -15 -15 -15
-16 6 -15 6 -16 18 5 19 5 -5 -8 -5 -8 16 -6 17 -6 13 11 14 11 0 -14 0 -15
19 -21 18 -22 12 0 11 0 0 -8 0 -7 18 -10 19 -10 59 -30 59 -29 3 -8 4 -8 9 6
9 5 0 -15 0 -16 10 0 10 0 0 -15 0 -15 15 0 15 0 0 -11 0 -11 16 6 16 6 -5
-13 -5 -13 35 3 34 2 -6 -19 -6 -20 16 0 16 0 5 -15 6 -15 13 0 13 0 6 -15 6
-16 12 2 13 2 18 -7 17 -8 0 -12 0 -12 19 -15 18 -16 14 -6 14 -5 -17 -1 -17
-1 -15 15 -15 15 -5 0 -6 0 0 -9 0 -10 30 -14 30 -15 18 5 18 4 13 -27 12 -28
8 13 9 13 6 -11 7 -11 -7 0 -6 0 13 -16 13 -15 25 5 26 5 -12 -5 -13 -6 0 -9
0 -9 11 0 11 0 33 -27 33 -28 43 -35 44 -35 32 -32 32 -33 6 0 6 0 -6 10 -6
10 10 0 10 0 6 -10 6 -10 22 1 22 1 -17 5 -18 4 0 14 0 13 -15 5 -14 6 -7 -10
-6 -10 -14 18 -13 18 -1 18 0 17 -14 0 -15 0 -5 8 -5 8 9 14 9 15 21 -22 20
-22 0 -14 0 -14 24 4 24 5 19 -19 20 -20 5 -21 6 -22 -9 -6 -9 -5 5 -10 6 -9
64 0 63 0 7 102 7 103 -4 39 -3 39 -12 5 -13 4 0 -15 0 -14 -18 -16 -19 -17
-6 0 -7 0 0 10 0 10 15 0 15 0 0 9 0 9 -22 7 -23 8 -15 1 -15 2 -16 -9 -15
-10 -30 16 -29 16 16 1 15 0 11 -11 11 -11 21 14 21 13 0 12 0 12 -15 -5 -15
-6 0 -7 0 -7 -37 0 -38 1 -25 -8 -25 -8 25 15 25 15 -12 1 -11 0 -18 7 -17 6
6 -10 7 -11 -20 5 -20 5 0 10 0 11 38 -6 37 -6 -15 9 -15 10 -30 0 -30 0 15
10 15 9 -38 16 -37 15 -25 -6 -25 -6 0 11 0 11 16 0 15 0 -6 11 -7 10 -13 -5
-14 -5 -11 14 -12 15 23 8 23 9 -52 6 -51 6 -40 19 -40 20 -4 -11 -3 -11 -14
46 -14 47 -5 -2 -6 -1 -40 18 -40 17 -3 -11 -4 -10 -9 0 -9 0 0 9 0 9 14 5 14
5 38 -13 39 -13 7 16 7 17 0 7 1 6 -21 -5 -21 -6 14 -9 13 -10 -18 6 -19 6
-11 0 -12 0 15 10 15 10 -12 0 -13 0 -40 17 -40 18 0 11 0 11 -26 38 -26 39
-5 33 -6 33 -14 -11 -14 -12 -46 2 -46 1 -33 16 -34 16 0 8 0 7 -25 11 -25 12
2 7 1 8 -7 27 -8 28 -9 -6 -9 -5 0 25 0 26 -27 -1 -28 -1 18 -5 17 -4 0 -13 0
-13 -47 16 -48 17 -67 33 -66 33 -6 21 -6 22 -9 -15 -10 -14 -7 7 -7 7 12 14
13 15 -8 12 -7 13 -8 -20 -8 -19 0 17 -1 17 10 6 10 6 0 19 0 19 -11 7 -11 7
6 -21 7 -20 -12 -8 -12 -7 7 11 7 12 -11 20 -11 20 -9 0 -9 0 -4 -17 -5 -18
-1 17 -1 16 -32 7 -33 6 -35 17 -35 17 -3 8 -4 7 -16 0 -17 0 14 9 14 9 -12
48 -12 49 -63 0 -64 0 5 8 4 7 -11 0 -11 0 -27 32 -27 31 -13 26 -13 26 5 28
6 29 -29 -7 -28 -6 -36 21 -36 22 -23 -7 -23 -6 13 9 12 8 -19 18 -20 18 -13
37 -12 36 3 28 3 29 29 31 29 30 18 49 17 48 6 0 7 0 17 -27 17 -26 2 -51 1
-51 84 -12 84 -13 23 -21 23 -22 7 -43 6 -44 10 0 11 0 64 -32 64 -31 18 -26
19 -26 7 -43 7 -43 -12 -14 -12 -15 8 0 9 0 39 10 40 9 28 -6 28 -6 31 -38 30
-38 6 -38 6 -38 14 -13 14 -14 26 17 26 17 47 0 47 0 29 -15 29 -15 22 -24 22
-24 17 -44 16 -45 -1 -33 -2 -32 7 0 7 0 20 17 19 18 78 3 78 4 15 -28 15 -29
13 -77 13 -78 17 0 18 0 50 11 49 10 29 -14 28 -15 18 -20 18 -20 6 -54 5 -53
-11 -39 -10 -40 2 -3 3 -3 59 21 58 20 43 -16 43 -16 20 -43 21 -42 0 -17 0
-17 20 0 21 0 33 14 33 14 42 7 41 7 0 -16 0 -16 10 0 10 0 0 10 0 10 25 6 25
6 0 44 0 44 10 0 10 0 0 23 0 24 -11 56 -12 57 -9 0 -9 0 3 -16 3 -17 -30 -9
-30 -10 -32 -14 -32 -15 -26 7 -25 6 0 9 0 9 18 1 17 1 -45 13 -45 13 24 1 24
1 -5 6 -6 6 -19 3 -18 3 -5 1 -5 1 15 10 15 10 -27 0 -28 0 0 9 0 10 10 6 10
6 0 -11 0 -10 26 4 25 5 9 -22 9 -22 0 16 1 17 25 6 26 7 9 -6 10 -6 0 -10 0
-10 24 -24 25 -25 4 8 5 7 -2 25 -2 25 -12 -3 -13 -2 -15 15 -15 15 6 20 6 20
-8 0 -9 0 -32 30 -32 29 -75 50 -75 51 0 -6 0 -5 -32 23 -33 23 -20 12 -20 12
-32 16 -33 15 0 10 0 10 -20 0 -20 0 0 9 0 9 -37 24 -37 23 -21 15 -21 15 -32
21 -31 20 97 18 98 18 94 59 95 59 27 11 27 11 54 66 54 67 11 21 11 21 -7 9
-7 9 9 -7 9 -7 17 22 18 22 18 40 17 40 14 45 14 45 13 60 13 60 -2 35 -3 35
-2 75 -2 75 -21 80 -20 80 -47 96 -47 96 -34 49 -33 48 -35 40 -36 39 -73 48
-73 48 -82 32 -82 33 -100 0 -100 1 -60 -19 -60 -19 -70 -35 -70 -35 -95 -96
-95 -97 -40 -79 -40 -78 0 -102 0 -101 16 -17 16 -16 7 -50 7 -50 15 -37 16
-38 26 -35 26 -36 60 -58 61 -58 62 -45 62 -45 58 -23 58 -24 80 7 80 8 69 23
69 23 45 40 44 41 21 41 21 40 1 75 0 75 -24 74 -24 74 -35 51 -35 51 -31 33
-31 34 -49 25 -50 25 -57 -4 -57 -4 -40 -28 -40 -27 -21 -49 -21 -49 0 -40 0
-41 40 -39 40 -38 32 -7 33 -7 77 -6 78 -6 6 -19 6 -20 -6 -32 -6 -32 -48 -36
-47 -35 -29 -6 -28 -5 -34 10 -34 9 -47 40 -48 40 -21 20 -22 19 -21 42 -21
43 -20 32 -19 33 -12 66 -11 66 6 37 6 38 20 47 21 47 30 34 30 34 35 22 36
22 86 4 87 5 54 -16 54 -16 66 -36 66 -36 33 -31 33 -32 39 -50 38 -50 21 -35
21 -35 30 -64 30 -65 14 -60 15 -61 -14 -55 -13 -55 -23 -65 -22 -65 -25 -33
-25 -33 -84 -54 -84 -55 -59 -30 -60 -30 -57 -15 -57 -15 -86 0 -85 0 -60 16
-60 15 -25 6 -25 6 -60 41 -60 40 -14 14 -14 14 -18 -5 -18 -5 5 12 5 12 -26
22 -26 23 -42 21 -42 22 -33 28 -33 28 -12 1 -12 1 -10 -2 -10 -2 7 8 8 7 -11
13 -11 14 -9 -6 -9 -5 2 12 3 12 -120 88 -120 89 1 13 1 13 53 72 53 73 -11
11 -12 12 0 -12 0 -13 -20 11 -21 11 6 10 6 9 -10 0 -11 0 0 10 0 10 9 0 10 0
6 -21 7 -20 14 5 13 5 7 -10 6 -10 15 13 15 12 32 51 31 50 15 30 15 30 5 5 6
5 49 65 49 65 91 110 92 110 26 39 26 39 -6 10 -6 10 10 -6 11 -7 98 117 99
117 70 76 70 76 75 85 75 85 25 34 25 34 23 24 22 25 0 7 0 6 31 35 31 34 36
43 37 44 20 38 20 38 82 88 81 89 23 30 23 30 7 5 6 5 48 55 48 55 21 25 21
25 33 49 32 49 0 12 0 13 15 12 15 12 0 24 0 24 -15 0 -15 0 0 -10 0 -10 -15
0 -15 0 0 35 0 35 -10 0 -9 0 -11 -19 -10 -20 0 -54 0 -54 -23 -21 -23 -22
-25 0 -25 0 -11 11 -10 10 5 -50 4 -50 -40 -41 -41 -40 -36 0 -36 0 -36 15
-36 15 -19 -6 -18 -5 7 -27 8 -27 -1 -37 -2 -38 -19 -37 -20 -38 -49 -33 -49
-33 -72 3 -71 3 5 -52 6 -53 -12 0 -11 0 0 -13 0 -14 -34 -39 -34 -39 -62 -2
-62 -1 -3 -4 -3 -3 8 -45 9 -45 -11 -35 -10 -35 -26 -27 -25 -28 -43 -16 -43
-16 -26 6 -27 7 7 -54 7 -55 -13 -23 -12 -24 -21 -23 -21 -23 -28 -15 -29 -15
-61 2 -62 3 -13 -25 -13 -24 4 -27 3 -27 -7 5 -8 5 -7 -36 -6 -36 -53 -39 -52
-39 -48 -5 -48 -6 -5 -4 -4 -5 16 -79 16 -79 -6 -29 -6 -30 -16 -21 -17 -22
-52 -9 -52 -9 6 10 6 10 -24 -6 -24 -7 -25 0 -25 -1 16 -12 16 -12 11 -22 12
-22 0 -41 0 -41 -12 -22 -11 -22 -24 -22 -23 -22 -38 -10 -37 -11 -48 0 -48 0
11 -12 10 -13 25 -28 25 -28 0 -34 0 -34 -16 -34 -16 -34 -32 61 -32 61 -61
45 -62 45 2 14 2 14 15 5 15 5 -14 -16 -13 -17 16 0 16 0 0 20 0 20 -10 0 -10
0 0 11 0 10 10 -6 10 -6 2 15 1 16 1 13 1 12 29 20 30 19 65 0 66 0 25 -8 25
-8 -11 9 -11 8 -7 23 -7 22 -17 0 -17 0 11 8 11 7 5 72 5 73 13 15 12 15 -8 0
-8 0 20 15 19 15 39 11 39 11 -14 9 -14 9 -8 0 -8 0 7 -12 7 -11 -12 7 -12 8
-15 -13 -14 -12 6 17 6 16 14 0 14 0 0 18 1 17 10 -17 10 -18 15 0 15 0 -7 12
-7 11 11 -7 11 -6 4 22 4 23 2 -25 1 -25 10 15 9 15 -1 -21 -2 -21 -20 5 -19
5 7 -11 7 -12 30 0 29 0 0 9 0 9 -9 4 -9 3 -4 77 -3 77 8 -12 9 -12 5 15 6 15
42 41 42 41 58 -5 58 -5 -6 17 -7 18 0 6 0 6 -13 -19 -14 -18 -6 32 -7 32 -7
-4 -8 -5 3 54 4 54 9 0 10 0 -7 -52 -7 -51 11 7 11 7 -5 14 -6 15 10 30 11 30
-16 8 -15 9 44 12 43 12 16 12 15 12 13 20 13 20 -6 -20 -6 -20 20 25 20 25 1
-20 1 -20 8 25 8 25 1 20 1 20 -10 -15 -10 -15 1 10 0 10 8 20 8 20 10 -45 9
-45 18 -3 18 -4 -3 34 -2 33 7 35 8 35 24 32 24 32 33 6 32 6 48 -9 47 -9 6 8
5 9 -8 0 -8 0 -2 41 -1 42 -10 6 -9 6 8 23 8 22 10 0 10 0 12 23 11 22 -13
-12 -13 -13 -8 0 -7 0 5 14 5 14 -10 6 -11 7 -20 -11 -21 -11 -18 -30 -19 -31
-7 12 -8 12 12 8 12 7 -3 27 -3 28 35 12 35 11 -3 20 -4 19 17 -14 16 -13 15
21 15 22 20 0 19 0 0 14 0 15 20 6 20 6 0 10 0 9 10 0 10 0 0 -15 0 -15 -14 0
-14 0 -6 -16 -6 -16 0 -4 0 -4 31 0 31 0 -12 15 -12 15 11 0 11 0 0 14 0 15
12 7 11 7 -5 -14 -6 -14 -7 -17 -7 -18 18 0 18 0 -20 -15 -19 -14 -25 -1 -26
0 -12 -12 -12 -12 0 8 0 8 -19 -23 -19 -24 4 -7 4 -7 27 25 26 24 16 0 17 0
20 14 20 14 19 -14 19 -14 8 0 8 0 0 21 0 21 -22 19 -23 18 24 1 24 0 -6 46
-5 45 14 -5 14 -5 0 12 0 12 20 13 21 13 -7 10 -6 11 -9 -13 -8 -13 -8 7 -7 8
14 10 15 9 19 -4 19 -5 34 14 34 14 50 7 49 7 1 11 1 11 9 -25 8 -25 -3 35 -4
35 -7 23 -7 22 10 0 10 0 6 -22 6 -23 0 -32 0 -33 8 0 7 0 -3 75 -4 75 32 30
31 29 37 7 36 7 58 -9 58 -10 0 8 0 8 -20 0 -20 0 0 36 0 35 10 -6 10 -6 0 12
0 12 6 -6 6 -6 -10 -30 -11 -31 7 0 8 0 12 43 13 42 5 13 6 12 -11 0 -11 0 0
-15 0 -14 -15 5 -14 6 26 24 26 24 -13 15 -12 15 11 0 11 0 6 -25 6 -25 20 25
20 26 17 -6 17 -5 22 20 21 20 8 -1 8 -1 13 1 12 1 0 15 0 15 -11 0 -10 0 6
-10 6 -10 -59 0 -59 0 -109 -4 -109 -5 50 8 50 8 -48 1 -48 2 6 10 6 10 -13 0
-14 0 -12 -12z m293 -38 l-6 -10 -29 0 -29 0 -6 10 -6 10 41 0 41 0 -6 -10z
m-255 -10 l-15 -10 -7 0 -8 0 0 10 0 10 23 0 22 0 -15 -10z m60 6 l0 -4 -15
-5 -14 -6 -6 9 -6 10 20 0 21 0 0 -4z m60 0 l0 -4 -20 -5 -20 -5 -6 9 -5 9 25
0 26 0 0 -4z m-140 -46 l0 -10 -10 0 -10 0 0 10 0 10 10 0 10 0 0 -10z m150 0
l0 -10 -4 0 -5 0 -6 10 -6 10 10 0 11 0 0 -10z m-230 -25 l0 -4 -22 -12 -23
-12 14 16 13 17 9 0 9 0 0 -5z m50 -17 l0 -10 -12 4 -12 4 -4 12 -4 12 16 -6
16 -6 0 -10z m60 2 l0 -20 -10 0 -10 0 0 20 0 20 10 0 10 0 0 -20z m447 -12
l5 12 11 0 11 0 -16 -16 -16 -17 -27 7 -26 7 6 9 6 10 21 -13 21 -12 4 13z
m-387 -80 l0 -8 -20 0 -21 0 -6 16 -6 16 -7 -13 -8 -12 -38 -13 -38 -13 -4 4
-4 3 21 7 21 6 10 20 11 19 14 0 15 0 0 10 0 11 30 -23 30 -22 0 -8z m-166
-10 l11 -8 -17 0 -17 0 -6 10 -7 11 8 17 7 17 5 -20 4 -20 12 -7z m516 8 l0
-4 -16 -6 -15 -6 6 10 6 10 10 0 9 0 0 -4z m-600 -37 l0 -9 -10 0 -10 0 0 16
0 15 10 -6 10 -6 0 -10z m520 -9 l-12 -8 17 -9 17 -10 -18 -7 -18 -7 6 7 7 6
-12 13 -12 12 -15 -5 -14 -6 14 16 14 15 19 -5 19 -5 -12 -7z m-430 5 l0 -4
-20 -11 -20 -10 6 15 6 15 14 0 14 0 0 -5z m424 -64 l6 -9 -14 -11 -14 -12 5
20 5 21 4 0 3 0 5 -9z m-763 -55 l-11 -13 7 -19 7 -19 -18 18 -18 18 18 14 19
14 4 1 3 0 -11 -14z m209 -16 l-15 -10 12 -8 13 -8 -40 -11 -40 -10 -6 8 -5 9
13 0 13 1 -19 14 -20 15 9 0 8 0 19 -17 18 -17 12 12 12 12 -19 1 -20 0 20 9
20 9 15 0 15 1 -15 -10z m60 -10 l-15 -10 -10 0 -10 1 19 14 20 15 5 -6 5 -5
-14 -9z m240 16 l0 -4 -16 -6 -15 -6 6 10 6 10 10 0 9 0 0 -4z m-532 -46 l12
-20 -9 0 -9 0 -5 13 -4 12 -16 -14 -17 -13 0 6 0 7 13 14 12 14 5 1 5 0 13
-20z m539 -36 l-6 -6 -13 5 -13 5 19 1 19 1 -6 -6z m-3917 -44 l0 -10 -4 0 -5
0 -6 10 -6 10 10 0 11 0 0 -10z m3947 -11 l-19 -11 -11 11 -11 11 30 0 29 -1
-18 -10z m-3907 -9 l15 -10 -10 0 -10 0 -15 10 -15 10 10 0 10 0 15 -10z
m3284 -5 l-6 -15 -9 0 -9 0 0 8 0 9 7 6 6 7 8 0 8 0 -5 -15z m43 -20 l-12 -25
-7 0 -8 0 0 18 0 19 7 6 6 7 13 0 12 0 -11 -25z m573 -11 l0 -13 -9 -5 -9 -6
2 18 1 17 -12 -2 -13 -3 0 8 0 9 7 6 6 7 14 -11 13 -11 0 -14z m-3911 -4 l23
-20 -6 -15 -5 -15 -11 0 -10 0 1 8 1 7 -1 18 -1 17 -20 0 -20 0 0 10 0 10 13
0 12 -1 24 -19z m-575 -21 l-5 -9 -10 0 -9 0 0 15 0 14 15 -5 15 -6 -6 -9z
m681 5 l25 -16 0 -11 0 -10 -18 16 -19 17 -4 -4 -4 -4 -13 14 -13 14 11 0 11
0 24 -16z m3272 -16 l-5 -13 -1 19 -1 19 6 -6 6 -6 -5 -13z m-3462 -16 l-4 -4
-10 7 -11 6 6 11 7 10 8 -13 8 -13 -4 -4z m283 -34 l7 2 0 -12 0 -13 -23 -1
-22 -1 -7 11 -7 11 -2 23 -1 23 24 -23 25 -23 6 3z m-195 21 l12 0 -20 -8 -20
-8 -7 4 -8 4 0 11 0 10 16 -6 16 -6 11 -1z m3847 7 l0 -5 -10 -6 -10 -6 0 10
0 11 10 0 10 0 0 -4z m-253 -58 l-11 -7 -4 4 -4 4 6 18 7 17 9 -14 9 -14 -12
-8z m-3370 3 l-1 -20 -8 5 -7 5 6 14 5 15 3 0 4 0 -2 -19z m-81 -3 l7 -13 -8
7 -8 7 -21 -10 -21 -10 19 15 20 16 2 0 3 0 7 -12z m154 -47 l0 -7 33 -18 32
-19 50 -41 50 -40 22 -23 22 -23 8 -2 8 -2 10 -7 10 -8 61 -53 61 -53 37 -28
37 -29 -5 -5 -5 -6 -38 29 -38 28 -3 9 -4 8 -14 -12 -14 -11 0 11 0 11 11 0
10 0 -15 15 -16 16 -20 -11 -20 -11 0 15 0 15 18 -6 17 -6 -25 27 -25 27 -3
-11 -4 -11 -15 21 -15 21 -14 -5 -13 -5 5 14 6 14 -36 15 -36 15 0 14 0 15
-25 16 -24 16 -6 0 -6 0 7 -12 7 -11 -12 7 -11 7 5 9 5 8 -27 7 -27 6 15 10
14 9 -17 0 -18 0 0 10 0 9 -15 -5 -15 -6 6 -9 5 -9 -10 0 -10 0 -6 10 -6 10
-12 -7 -12 -7 17 26 17 25 -17 24 -16 23 32 -23 32 -22 0 -8z m-814 14 l6 -14
19 -6 19 -6 0 -15 0 -14 -7 1 -8 0 -28 35 -29 34 11 0 12 0 5 -15z m191 -17
l-5 -13 -1 19 -1 19 6 -6 6 -6 -5 -13z m3943 -17 l0 -10 -10 -6 -10 -6 0 15 0
16 10 0 10 0 0 -9z m130 1 l0 -8 -22 -21 -23 -21 -22 -27 -23 -27 0 10 0 11
15 15 15 15 0 7 0 8 22 23 21 23 9 0 8 0 0 -8z m-4120 -22 l0 -10 -4 0 -5 0
-6 10 -6 10 10 0 11 0 0 -10z m3430 0 l0 -10 -11 0 -10 0 6 10 6 10 5 0 4 0 0
-10z m90 -15 l0 -15 -10 0 -10 0 0 15 0 15 10 0 10 0 0 -15z m-2895 -5 l6 -10
-8 1 -8 0 -20 9 -20 9 22 0 22 1 6 -10z m-30 -27 l19 -13 -16 0 -17 0 -6 10
-6 10 -32 0 -32 0 14 9 13 9 22 -6 21 -5 20 -14z m79 3 l-6 -16 -9 6 -9 5 13
14 12 13 3 -3 2 -2 -6 -17z m-184 10 l0 -5 -10 -6 -10 -6 0 10 0 11 10 0 10 0
0 -4z m3484 -10 l-6 -15 -30 -6 -29 -7 -6 -16 -7 -16 13 -4 12 -4 -18 -14 -18
-13 -7 -1 -7 0 5 15 6 15 -12 15 -13 15 6 7 7 6 31 2 31 3 16 16 16 16 8 0 7
0 -5 -14z m-3520 -22 l6 -15 -10 6 -10 6 0 10 0 9 4 0 4 0 6 -16z m241 -13
l-5 -10 10 -6 10 -6 0 -12 -1 -12 -14 19 -14 19 5 8 5 9 5 0 5 0 -6 -9z m32
-13 l2 -23 -9 15 -10 15 0 8 0 7 8 0 8 0 1 -22z m2653 -4 l0 -15 -10 6 -10 6
0 10 0 9 10 0 10 0 0 -16z m157 -52 l-2 -13 -78 -2 -77 -2 0 21 0 21 46 -7 45
-7 16 24 17 25 18 -24 18 -23 -3 -13z m-237 28 l0 -10 -16 0 -15 0 6 10 6 10
10 0 9 0 0 -10z m58 -2 l-4 -12 -12 -4 -12 -4 0 16 0 16 16 0 16 0 -4 -12z
m-3348 -50 l0 -10 -15 12 -15 12 0 4 0 3 15 -5 15 -6 0 -10z m3300 11 l0 -10
10 6 10 6 -5 -13 -5 -14 21 -1 21 -2 -7 17 -6 17 12 -12 12 -12 -12 -15 -13
-16 -17 10 -18 9 -28 -15 -28 -14 -5 5 -5 5 18 21 19 20 -14 9 -15 10 28 0 27
0 0 -11z m-70 -3 l0 -5 -10 -6 -10 -6 0 10 0 11 10 0 10 0 0 -4z m527 -18 l-5
-13 -1 19 -1 19 6 -6 6 -6 -5 -13z m-3717 -8 l0 -10 -10 0 -10 0 0 10 0 10 10
0 10 0 0 -10z m3697 -42 l-5 -13 0 25 0 25 5 -12 5 -13 -5 -12z m-3701 -1 l20
-23 7 -17 6 -17 -9 0 -10 0 0 18 0 17 -11 -15 -11 -15 6 17 5 17 -9 6 -10 6 0
-11 0 -11 -10 6 -10 6 0 20 0 19 8 0 8 0 20 -23z m3280 -24 l-7 -7 -9 13 -8
14 6 15 6 16 9 -22 10 -22 -7 -7z m-3202 13 l-5 -14 10 -7 11 -6 6 15 6 16 8
0 8 0 16 -25 16 -25 -4 0 -5 0 -16 16 -16 16 -6 -6 -6 -6 13 -15 12 -15 -6
-15 -5 -15 19 -12 20 -13 0 -7 0 -8 -13 0 -12 0 -13 20 -12 20 -15 0 -15 0 0
10 0 10 -15 0 -15 0 0 22 0 22 15 -20 14 -19 1 13 0 12 -20 20 -20 20 0 5 0 5
25 0 24 0 -5 -14z m3123 -1 l5 -16 -5 -5 -5 -6 -12 21 -11 21 11 0 11 0 6 -15z
m-2462 -25 l6 -10 -15 6 -16 6 0 4 0 4 9 0 10 0 6 -10z m-500 -26 l24 -26 12
8 12 7 -7 -11 -7 -12 -13 0 -12 0 -29 30 -29 30 13 0 12 0 24 -26z m3405 -9
l-12 -15 -9 0 -9 0 18 18 17 19 4 -3 4 -4 -13 -15z m-371 -39 l1 -19 -7 6 -6
7 -3 32 -3 33 9 -20 9 -20 0 -19z m-3081 16 l4 -12 -11 0 -11 0 1 -22 1 -23 5
18 4 17 11 0 10 0 5 -20 5 -19 18 -6 18 -6 14 -16 13 -16 -23 7 -22 7 0 -21 0
-21 23 6 22 7 -11 -12 -12 -12 -18 7 -19 6 -28 35 -29 34 -3 25 -2 26 16 9 16
9 -12 1 -12 0 -6 -10 -6 -10 -10 0 -9 0 0 14 0 15 27 -2 26 -2 5 -13z m3637
-2 l-6 -9 -16 6 -16 6 6 -16 6 -16 -17 -13 -17 -13 12 16 13 16 -8 7 -7 8 19
13 19 14 9 -5 8 -5 -5 -9z m-3390 0 l6 -10 -16 0 -16 0 6 10 6 10 4 0 4 0 6
-10z m442 4 l-6 -6 -13 5 -13 5 19 1 19 1 -6 -6z m236 -37 l37 -32 -21 -14
-22 -13 -14 15 -15 15 29 -6 28 -5 -25 20 -25 20 -18 6 -18 7 6 10 6 10 8 0 7
0 37 -33z m2411 14 l6 -9 -15 -6 -15 -5 0 14 0 15 9 0 10 0 5 -9z m96 -1 l-15
-10 -15 1 -15 0 20 9 20 9 10 0 10 1 -15 -10z m-2660 -10 l0 -10 -10 0 -10 0
0 10 0 10 10 0 10 0 0 -10z m-495 -21 l7 -21 -6 -5 -6 -6 0 16 0 16 -17 10
-18 10 17 1 17 0 6 -21z m405 7 l0 -5 -10 -6 -10 -6 0 10 0 11 10 0 10 0 0 -4z
m-7 -28 l8 2 -6 -9 -6 -10 38 -6 38 -7 32 -16 32 -16 -3 -3 -3 -3 -36 15 -36
15 -31 0 -30 0 0 11 0 10 -11 -6 -10 -7 -19 17 -20 18 6 8 5 9 22 -12 22 -12
8 2z m2714 16 l-6 -6 -13 5 -13 5 19 1 19 1 -6 -6z m-2646 -27 l-12 -12 7 18
6 18 6 -6 6 -5 -13 -13z m2767 -3 l0 -26 -9 13 -8 13 5 8 5 8 -23 0 -23 -1 18
-14 19 -14 -7 -20 -6 -21 -26 6 -25 7 -8 -14 -9 -13 22 -11 22 -12 15 11 15
10 -24 -26 -24 -27 -9 5 -9 6 12 14 11 14 -12 0 -12 0 -5 -20 -5 -20 -10 0
-10 0 5 20 5 20 -10 6 -9 6 40 31 41 31 -6 18 -5 18 29 0 30 0 0 -26z m72 22
l0 -5 -10 -6 -10 -6 0 10 0 11 10 0 10 0 0 -4z m-2592 -31 l-6 -6 -6 18 -7 18
12 -12 13 -13 -6 -5z m1927 15 l20 -9 -15 0 -15 -1 -15 10 -15 10 10 -1 10 0
20 -9z m635 -12 l0 -9 -10 6 -10 6 0 -13 0 -13 -9 15 -10 14 5 8 5 7 14 -6 15
-5 0 -10z m-3253 -10 l-5 -13 -1 19 -1 19 6 -6 6 -6 -5 -13z m751 -29 l4 -9
10 0 10 0 29 -31 30 -32 -6 -6 -7 -6 -26 31 -27 31 -28 17 -29 18 -6 -7 -6 -6
14 -9 15 -10 -10 0 -10 0 -15 10 -15 10 15 10 15 10 20 -7 20 -6 3 -8z m1831
17 l-4 -3 -30 -7 -30 -7 15 11 15 10 19 0 19 0 -4 -4z m491 -26 l0 -10 -10 0
-10 0 0 10 0 10 10 0 10 0 0 -10z m-642 -69 l-13 -21 -13 0 -14 0 23 24 24 25
3 -4 3 -3 -13 -21z m652 13 l0 -16 20 -5 20 -5 0 -9 0 -8 -10 -6 -10 -6 -17
10 -18 10 14 1 13 0 -12 15 -13 16 -7 -12 -7 -11 -7 11 -7 11 6 10 6 10 15 0
14 0 0 -16z m-3057 -24 l29 -30 9 0 9 0 0 -10 0 -10 -8 0 -9 0 -24 20 -24 20
-12 10 -13 11 0 9 0 10 8 0 7 0 28 -30z m2362 20 l6 -10 -10 0 -11 0 0 10 0
10 4 0 5 0 6 -10z m-2245 -26 l0 -15 -10 6 -10 6 0 10 0 9 10 0 10 0 0 -16z
m2675 -14 l-6 -10 -14 0 -14 0 6 -31 6 -32 -13 5 -14 4 -4 15 -4 14 11 -15 11
-15 0 15 0 15 -10 15 -9 14 12 8 12 8 18 0 18 0 -6 -10z m185 -11 l0 -20 -10
6 -10 6 0 15 0 14 10 0 10 0 0 -21z m53 8 l5 -14 -14 0 -14 0 0 7 0 7 7 6 6 7
3 0 2 0 5 -13z m-3033 -23 l24 -25 24 6 24 6 -17 -17 -17 -18 23 -17 24 -18
18 -15 17 -16 10 0 10 0 -1 -7 -1 -8 1 -10 1 -10 37 1 36 2 13 -5 13 -5 -6
-14 -5 -14 11 0 11 0 0 10 0 10 8 0 7 0 1 -35 1 -35 -7 0 -7 0 -37 35 -37 35
-18 0 -17 0 -30 31 -29 31 -34 16 -34 17 -11 20 -11 19 -23 19 -22 19 5 9 6 9
8 0 8 0 23 -26z m754 -7 l19 -14 -17 -6 -16 -6 0 9 0 10 -15 0 -15 0 0 10 0
10 13 0 13 0 18 -13z m1671 3 l6 -10 -15 0 -16 0 0 -10 0 -10 3 -3 2 -3 -17
-17 -17 -17 -4 0 -5 0 -5 14 -6 15 14 -5 14 -6 -6 21 -5 21 16 0 16 0 0 10 0
10 9 0 10 0 6 -10z m485 -38 l-15 -4 -10 -9 -10 -10 15 -9 14 -9 -4 -5 -5 -4
-20 14 -20 15 17 13 18 13 -6 6 -6 6 6 10 7 10 17 -17 18 -17 -16 -3z m100 25
l0 -14 -19 -21 -18 -22 -6 0 -5 0 5 20 5 20 10 -6 9 -6 6 21 5 21 4 0 4 0 0
-13z m-710 -7 l0 -10 -4 0 -5 0 -6 10 -6 10 10 0 11 0 0 -10z m30 -10 l0 -10
-4 0 -5 0 -6 10 -6 10 10 0 11 0 0 -10z m-2217 -26 l19 -25 -6 -6 -5 -5 -30
23 -30 24 0 8 -1 7 18 0 17 -1 18 -25z m27 16 l0 -10 -4 0 -5 0 -6 10 -6 10
10 0 11 0 0 -10z m2305 0 l6 -10 -10 0 -10 0 -6 10 -6 10 10 0 10 0 6 -10z
m-195 -10 l0 -10 -4 0 -5 0 -6 10 -6 10 10 0 11 0 0 -10z m170 -4 l0 -4 -17
-13 -18 -14 14 18 13 17 4 0 4 0 0 -4z m-2381 -52 l4 -4 -19 0 -19 0 -25 20
-25 20 40 -16 40 -16 4 -4z m888 14 l-5 -13 -1 19 -1 19 6 -6 6 -6 -5 -13z
m-730 -4 l16 -15 -11 -11 -11 -11 -16 17 -16 16 6 10 6 10 5 0 5 0 16 -16z
m2763 3 l0 -14 -25 -13 -25 -14 6 -18 5 -18 -15 6 -16 6 0 9 0 8 11 25 11 24
14 -5 14 -5 0 11 0 11 10 0 10 0 0 -13z m-2878 -67 l9 0 -6 -9 -5 -10 17 -10
18 -10 -11 -1 -11 0 -18 20 -19 21 -2 22 -3 22 11 -22 11 -23 9 0z m218 30 l0
-10 -4 0 -5 0 -6 10 -6 10 10 0 11 0 0 -10z m10 -27 l-12 -18 6 18 6 19 1 11
1 12 4 -12 5 -12 -11 -18z m2540 16 l0 -9 -10 0 -10 0 0 16 0 15 10 -6 10 -6
0 -10z m-1893 -5 l-6 -6 -13 5 -13 5 19 1 19 1 -6 -6z m1785 -13 l-6 -15 -4
12 -4 12 -10 -6 -11 -7 6 10 6 10 15 0 14 0 -6 -16z m-2022 -11 l0 -10 -9 0
-10 0 -6 10 -6 10 15 0 16 0 0 -10z m1430 0 l0 -10 -11 0 -10 0 6 10 6 10 5 0
4 0 0 -10z m505 0 l-6 -10 6 0 6 0 22 11 22 12 -26 -25 -26 -24 -4 -13 -5 -13
-34 -3 -34 -2 -4 -11 -3 -10 34 8 35 7 12 -7 12 -7 -17 -7 -16 -6 6 -10 6 -10
-11 0 -11 0 7 -22 7 -23 9 -6 8 -5 10 -35 10 -34 -10 -3 -10 -4 0 -25 0 -24
-20 6 -20 6 0 -15 0 -16 12 0 11 0 -5 -6 -6 -6 -21 12 -21 11 0 -10 0 -9 15
-6 15 -5 -2 -13 -3 -13 15 3 15 3 -14 -13 -13 -13 -4 10 -4 10 -9 14 -9 13
-31 -23 -31 -23 -7 9 -8 8 13 4 12 5 0 9 0 9 -12 -2 -12 -3 -13 -24 -13 -23 0
-5 0 -5 14 11 13 11 12 -14 12 -15 -18 -9 -18 -9 -15 4 -15 5 14 -10 13 -10
-9 -16 -9 -16 -17 20 -17 20 10 0 10 0 0 10 0 10 -16 0 -16 0 7 -27 7 -28 11
-7 11 -7 -6 -6 -6 -7 -22 22 -21 21 7 11 7 11 -12 -8 -12 -7 13 21 13 21 13 0
14 0 -5 14 -6 14 15 6 14 5 0 16 0 15 22 0 22 0 -19 13 -18 14 13 8 13 8 -8
-13 -8 -13 14 5 14 5 0 11 0 10 7 7 7 7 -10 25 -9 24 1 12 0 12 9 -20 9 -20 0
22 1 21 13 5 12 5 -24 1 -24 1 24 21 24 21 3 -33 3 -32 -8 -6 -9 -6 -7 -18 -7
-18 25 18 24 18 1 8 0 7 16 0 15 0 -17 17 -17 17 12 4 11 4 0 34 0 34 -10 0
-11 0 -5 -15 -6 -15 -9 0 -9 0 0 20 0 20 -12 1 -13 1 -20 0 -20 -1 18 5 17 5
0 9 0 8 -12 6 -13 5 25 -2 25 -2 5 -7 6 -7 32 30 32 30 0 -6 0 -6 18 10 17 10
3 1 3 0 -6 -10z m-1772 -20 l5 -20 -8 -5 -8 -5 -12 15 -12 14 7 11 6 10 8 0 9
0 5 -20z m1833 -8 l-16 -16 -12 12 -12 12 17 0 17 0 0 11 0 10 11 -7 11 -6
-16 -16z m152 -2 l5 -13 -17 6 -16 6 -6 -24 -6 -24 -16 -13 -15 -13 12 23 12
23 -4 12 -4 12 16 12 16 12 9 -2 10 -3 4 -14z m-2568 -11 l0 -10 -10 6 -10 6
0 10 0 10 10 -6 10 -6 0 -10z m-140 -41 l0 -10 -15 12 -15 12 0 10 0 10 15
-12 15 -12 0 -10z m161 12 l8 0 -6 -17 -6 -16 14 7 14 8 -24 -20 -24 -19 7
-12 7 -11 11 0 10 0 30 -25 30 -25 -15 -6 -15 -6 -32 29 -32 28 -5 -5 -4 -5
-10 17 -10 17 -17 -5 -17 -6 15 12 15 12 -13 5 -12 5 5 9 6 9 23 -15 23 -15 6
7 7 6 0 9 0 8 -15 0 -15 0 0 16 0 16 16 -6 16 -6 9 0z m573 1 l6 -9 -15 2 -14
2 -7 7 -7 7 16 0 16 0 5 -9z m1841 1 l-10 -7 -14 -27 -13 -26 5 -14 5 -13 1
18 1 18 14 15 15 14 17 0 17 0 -18 -20 -18 -20 -10 7 -9 6 4 -42 4 -42 -18 4
-18 5 0 -14 0 -14 -10 0 -10 0 0 18 0 18 -11 11 -11 11 4 18 3 19 9 -3 9 -4
18 28 18 28 -5 8 -5 8 23 0 23 0 -10 -8z m-2248 -34 l-5 -13 -1 19 -1 19 6 -6
6 -6 -5 -13z m2030 6 l-6 -6 -13 5 -13 5 19 1 19 1 -6 -6z m-2059 -30 l-12
-26 -7 19 -8 18 0 -14 -1 -13 -14 5 -14 6 6 -22 5 -22 -15 12 -15 13 -7 -8 -8
-7 4 24 3 25 35 4 35 4 4 4 4 4 8 0 9 0 -12 -26z m1559 -4 l-11 -30 -9 0 -8 0
11 20 11 20 -6 10 -6 10 15 0 14 0 -11 -30z m-857 10 l0 -10 -10 0 -10 0 0 10
0 10 10 0 10 0 0 -10z m1670 6 l0 -4 -14 -11 -14 -12 -8 12 -7 12 11 -7 11 -6
6 10 6 10 5 0 4 0 0 -4z m-657 -13 l-13 -5 -12 5 -13 5 25 0 25 0 -12 -5z
m-1264 -53 l0 -15 -9 20 -9 20 0 15 0 15 9 -20 9 -20 0 -15z m1864 35 l-5 -16
-5 5 -5 5 7 10 6 11 4 0 4 0 -6 -15z m-1503 -23 l21 -22 8 0 9 0 -1 -12 0 -13
1 -17 2 -18 23 -1 22 0 -25 -12 -25 -11 -7 -11 -8 -10 -1 10 -1 10 2 37 1 37
-20 20 -21 21 -11 -2 -11 -3 -5 12 -4 11 15 -2 16 -2 20 -22z m940 14 l0 -4
-16 -6 -15 -6 6 10 6 10 10 0 9 0 0 -4z m-1940 -21 l12 -15 -10 0 -10 0 -6 15
-5 15 3 0 4 0 12 -15z m1660 -20 l-11 -28 -5 5 -5 5 12 27 12 26 4 -4 4 -3
-11 -28z m-1482 13 l12 -12 -1 -20 -1 -21 -5 18 -4 17 -10 0 -10 0 5 9 6 9
-12 5 -13 5 11 1 10 1 12 -12z m558 -16 l-18 -4 -5 5 -5 6 7 11 7 11 15 -13
16 -13 -17 -3z m-696 -12 l14 -9 -6 -7 -7 -6 -16 5 -15 6 0 11 0 10 8 0 7 0
15 -10z m94 -21 l-6 -10 19 -5 19 -5 -1 -25 -2 -24 -6 -7 -7 -6 0 17 0 17 -10
-6 -10 -6 0 15 0 16 -8 0 -9 0 3 23 2 22 1 3 1 3 10 -6 10 -6 -6 -10z m1743
-1 l-5 -13 -1 19 -1 19 6 -6 6 -6 -5 -13z m-754 -36 l-6 -14 -10 18 -11 19
-15 13 -16 13 32 -17 31 -17 -5 -15z m-398 28 l6 -10 -21 0 -21 0 6 10 6 10 9
0 9 0 6 -10z m-625 -20 l0 -10 -11 0 -10 0 6 10 6 10 5 0 4 0 0 -10z m2324 -8
l5 -8 -19 0 -19 0 5 8 5 8 9 0 9 0 5 -8z m-1479 -22 l19 -20 -10 -9 -9 -9 -28
29 -28 29 19 0 19 0 18 -20z m-720 -19 l-6 -11 -10 5 -9 6 0 -15 0 -16 -8 0
-9 0 -6 7 -7 6 23 22 22 21 9 -7 8 -7 -7 -11z m965 -1 l0 -10 -15 0 -15 0 0
10 0 10 15 0 15 0 0 -10z m345 0 l-7 -11 13 -17 13 -17 -18 17 -18 16 6 11 7
11 5 0 5 0 -6 -10z m53 -15 l-6 -6 -6 18 -7 18 12 -12 13 -13 -6 -5z m802 5
l0 -10 -11 0 -10 0 6 10 6 10 5 0 4 0 0 -10z m-2108 -55 l8 -10 0 12 0 12 -17
10 -18 9 7 8 8 7 16 -14 16 -13 -4 -26 -4 -27 16 4 16 4 29 -27 30 -28 -2 -8
-3 -8 23 0 24 0 21 -19 22 -18 -7 -7 -6 -6 15 0 16 0 34 -29 33 -30 25 -23 25
-23 30 -33 29 -33 -34 4 -35 4 -17 7 -18 8 0 13 0 13 -16 6 -15 6 5 9 6 9 -27
7 -27 6 14 9 14 9 10 -6 9 -6 -6 11 -7 10 -19 -5 -18 -5 -16 16 -16 16 -18 1
-18 0 20 9 20 9 -15 1 -15 2 -7 -1 -8 -1 3 12 2 12 -33 17 -33 17 13 5 13 5
-22 1 -23 1 0 11 0 11 -18 -4 -19 -5 -29 43 -29 44 -12 0 -13 0 0 16 0 15 33
-18 32 -18 7 -10z m918 35 l0 -10 -11 0 -10 0 6 10 6 10 5 0 4 0 0 -10z m314
-11 l-5 -9 -10 6 -9 5 6 10 5 9 10 -6 9 -5 -6 -10z m609 14 l-13 -5 -12 5 -13
5 25 0 25 0 -12 -5z m-1916 -36 l13 -9 -6 -10 -6 -9 -19 17 -19 17 0 9 0 9 13
-7 12 -7 12 -10z m1970 17 l-6 -6 -13 5 -13 5 19 1 19 1 -6 -6z m-307 -24 l5
-6 19 -7 19 -7 -5 -6 -6 -5 -35 15 -35 14 -6 -6 -6 -5 0 17 0 17 23 -7 22 -7
5 -7z m434 -4 l-6 -16 -9 0 -9 0 0 8 0 8 12 12 12 12 3 -4 3 -3 -6 -17z m-519
4 l6 -10 -16 0 -16 0 6 10 6 10 4 0 4 0 6 -10z m352 3 l-18 -5 5 -13 5 -13
-18 -16 -18 -16 -6 7 -7 6 0 11 0 11 9 -14 9 -14 7 32 7 31 21 -1 22 -1 -18
-5z m-1730 -29 l-6 -6 -18 6 -17 7 14 9 15 9 9 -9 10 -10 -7 -6z m1408 6 l6
-10 -16 0 -16 0 6 10 6 10 4 0 4 0 6 -10z m-1560 -26 l16 -25 -25 16 -26 17 0
9 0 9 9 0 9 0 17 -26z m1216 3 l-12 -12 7 18 6 18 6 -6 6 -5 -13 -13z m-251 9
l0 -4 -16 -6 -15 -6 6 10 6 10 10 0 9 0 0 -4z m-749 -54 l-11 -4 -15 15 -15
16 0 12 0 12 26 -24 25 -24 -10 -3z m957 34 l-13 -14 -4 3 -3 4 7 10 6 11 10
0 10 0 -13 -14z m867 5 l5 -10 -11 -7 -12 -7 7 11 7 12 -10 0 -11 0 0 -11 0
-10 -14 -14 -14 -14 -6 15 -6 16 0 9 0 8 14 -5 14 -5 7 10 6 11 9 0 9 0 6 -9z
m-1760 -31 l-6 -10 14 0 15 0 6 -16 6 -17 -3 -4 -4 -3 -13 15 -12 15 -13 0
-13 0 -6 15 -5 15 20 0 20 0 -6 -10z m1615 -25 l0 10 10 -15 9 -14 -12 -8 -12
-8 -8 0 -8 0 7 12 7 11 -11 -7 -11 -7 6 -15 6 -16 -27 -24 -26 -25 -1 -27 -1
-27 -5 13 -5 12 -9 0 -9 0 0 -20 0 -20 -14 0 -15 0 -6 10 -7 11 32 36 32 36
-9 6 -8 6 -2 13 -3 12 8 -2 7 -2 23 8 22 7 -6 10 -5 9 13 -2 13 -3 -2 30 -2
30 14 -25 14 -25 1 10z m-697 -5 l22 0 15 -10 14 -9 -17 -7 -17 -6 -15 5 -14
6 -6 -9 -6 -10 -22 1 -22 0 23 11 22 11 -5 21 -5 21 6 -12 6 -13 21 0z m775
-2 l-3 -21 -17 -3 -18 -2 0 10 0 10 16 -6 16 -6 -5 14 -6 14 6 6 6 6 4 0 4 0
-3 -22z m-1718 -8 l0 -9 -15 5 -15 6 0 4 0 4 15 0 15 0 0 -10z m110 -10 l0 -9
-11 -7 -11 -7 -8 14 -9 13 5 8 5 7 14 -6 15 -5 0 -8z m60 6 l0 -4 -20 -5 -20
-5 -6 9 -5 9 25 0 26 0 0 -4z m1395 -14 l-5 -6 -13 13 -12 12 18 -7 18 -6 -6
-6z m-430 -2 l6 -10 -15 6 -16 6 0 4 0 4 9 0 10 0 6 -10z m-1280 -10 l-6 -10
-10 0 -9 0 0 10 0 10 16 0 15 0 -6 -10z m920 -8 l-5 -6 -13 13 -12 12 18 -7
18 -6 -6 -6z m68 11 l-13 -5 -12 5 -13 5 25 0 25 0 -12 -5z m268 -10 l14 -18
-20 15 -20 14 -4 3 -4 3 10 0 11 0 13 -17z m-987 -30 l-11 -17 46 -38 46 -38
7 0 8 0 0 -20 0 -20 -11 0 -11 0 6 16 6 15 -10 -6 -10 -6 -52 52 -53 51 13 5
12 5 0 21 0 21 12 -12 13 -13 -11 -16z m69 17 l5 -20 -9 0 -9 0 0 20 0 20 4 0
4 0 5 -20z m497 5 l-12 -15 -9 0 -9 0 0 9 0 10 18 4 17 5 4 1 3 1 -12 -15z
m982 -7 l-12 -12 0 10 0 11 7 6 6 7 6 -5 5 -5 -12 -12z m-1782 8 l0 -4 -15 -6
-15 -5 0 9 0 10 15 0 15 0 0 -4z m180 -6 l14 -9 -6 -7 -7 -6 -16 16 -16 16 8
0 8 0 15 -10z m1630 -23 l0 -13 -30 -34 -31 -35 10 21 10 21 15 13 16 12 0 14
0 14 5 0 5 0 0 -13z m-257 -12 l-21 -15 -19 6 -18 6 11 -9 10 -8 -6 -24 -6
-25 -22 28 -22 29 0 6 0 7 37 2 37 3 5 4 4 5 16 0 15 0 -21 -15z m-1529 -11
l6 -16 16 6 15 6 -6 -10 -6 -10 13 -1 13 -1 13 1 12 2 0 -4 0 -5 -14 -11 -13
-11 -39 35 -39 35 11 0 12 0 6 -16z m292 -19 l26 -24 19 -6 19 -6 -5 -10 -6
-9 14 6 15 5 7 -11 8 -12 -14 -9 -14 -9 14 0 14 0 -5 -6 -6 -6 -21 11 -20 11
-50 50 -50 50 14 0 14 0 27 -25z m454 21 l0 -5 -10 -6 -10 -6 0 10 0 11 10 0
10 0 0 -4z m977 -28 l-5 -13 -1 19 -1 19 6 -6 6 -6 -5 -13z m-198 -12 l12 -14
-20 5 -21 5 6 9 5 9 3 0 4 0 11 -14z m-1004 -5 l5 -10 -8 -5 -9 -5 0 14 0 15
3 0 3 0 6 -9z m995 -31 l0 -10 -4 0 -5 0 -6 10 -6 10 10 0 11 0 0 -10z m1797
-22 l-5 -13 -1 19 -1 19 6 -6 6 -6 -5 -13z m-2180 -13 l53 -16 26 -27 25 -27
20 -40 21 -40 -1 -45 0 -44 -7 -29 -6 -29 -20 -33 -19 -33 -35 -27 -34 -26
-36 -15 -36 -15 -54 -10 -54 -10 -43 19 -44 19 -36 37 -37 37 -21 41 -21 41 4
66 4 66 19 39 20 39 42 30 42 30 48 13 48 14 40 -5 40 -4 52 -16z m-860 -27
l-5 -13 0 25 0 25 5 -12 5 -13 -5 -12z m83 2 l0 -10 -8 0 -8 0 -12 12 -12 12
0 8 0 9 20 -11 20 -11 0 -9z m-41 -20 l8 0 29 -25 28 -24 4 4 4 3 -11 21 -11
21 15 -6 15 -6 1 -7 0 -6 4 -38 4 -38 -12 4 -12 5 3 11 2 11 -11 0 -11 0 -16
20 -17 20 -24 5 -24 4 -5 6 -5 5 12 0 13 0 -5 14 -6 14 7 7 7 7 3 -16 3 -16 8
0z m-79 10 l0 -10 -10 0 -10 0 0 10 0 10 10 0 10 0 0 -10z m1430 0 l0 -10 -17
0 -18 0 15 10 15 10 3 0 2 0 0 -10z m-192 -36 l3 -36 -16 6 -17 6 -6 0 -7 0
13 9 13 8 4 19 3 19 1 3 1 2 3 0 3 0 2 -36z m156 10 l17 -6 -12 -14 -11 -14
-14 0 -14 0 0 10 0 10 18 0 17 0 -15 10 -15 10 7 0 6 0 16 -6z m-1109 -64 l6
-10 -15 6 -16 6 0 4 0 4 9 0 10 0 6 -10z m-20 -45 l25 -26 0 -10 0 -9 -20 12
-20 13 0 12 0 13 -10 0 -10 0 0 10 0 10 5 0 4 0 26 -25z m1016 2 l-1 -7 -7 -1
-7 0 -4 12 -4 12 12 -4 12 -4 -1 -8z m-1132 -57 l7 0 18 -32 19 -33 -41 40
-42 40 0 8 0 8 16 -15 15 -16 8 0z m1266 -3 l10 -14 32 -16 31 -17 -4 -17 -5
-18 -26 -2 -26 -1 10 6 9 7 7 19 7 19 -15 -13 -15 -12 -14 11 -15 12 4 21 4
20 -13 -5 -14 -6 -19 15 -18 14 30 -5 30 -5 10 -13z m-1189 -42 l2 -15 -8 0
-8 0 -5 14 -6 14 6 6 6 6 6 -5 5 -6 2 -14z m1096 13 l16 -13 -8 -20 -9 -20 0
13 -1 13 -10 -6 -10 -6 7 16 6 17 -14 9 -14 9 11 0 10 0 16 -12z m65 6 l-6 -6
-13 5 -13 5 19 1 19 1 -6 -6z m-1027 -44 l0 -10 -11 0 -10 0 6 10 6 10 5 0 4
0 0 -10z m1156 -15 l-6 -16 13 3 12 3 33 -20 32 -19 0 -13 0 -13 13 0 14 0 0
-15 0 -15 -9 0 -8 0 0 10 0 10 -22 0 -23 0 -30 20 -30 20 15 1 15 0 -22 11
-23 11 0 19 0 18 16 0 16 0 -6 -15z m-259 -37 l-5 -13 -1 19 -1 19 6 -6 6 -6
-5 -13z m40 -8 l0 -31 -9 13 -8 13 -1 -20 -1 -20 -4 11 -5 11 10 26 11 27 3 0
4 0 0 -30z m-937 -20 l0 -10 -27 1 -28 0 20 9 20 9 8 0 7 1 0 -10z m909 -55
l1 -20 -10 15 -10 15 1 30 1 30 8 -25 8 -25 1 -20z m-1035 30 l-6 -15 -9 0 -8
0 5 15 6 15 9 0 8 0 -5 -15z m1096 -15 l0 -10 -17 0 -18 0 15 10 15 10 3 0 2
0 0 -10z m-1215 -18 l-5 -6 -13 13 -12 12 18 -7 18 -6 -6 -6z m1232 -14 l-5
-13 0 25 0 25 5 -12 5 -13 -5 -12z m330 17 l14 -10 16 -15 16 -14 13 -2 13 -2
23 -16 22 -16 -10 0 -10 0 -52 18 -52 19 7 6 6 7 -21 0 -21 0 -6 10 -6 10 6
10 6 10 12 -3 11 -2 13 -10z m-1474 -2 l-13 -5 -12 5 -13 5 25 0 25 0 -12 -5z
m-18 -23 l6 -10 -10 0 -10 0 -6 10 -6 10 10 0 10 0 6 -10z m175 0 l-15 -10
-10 0 -10 0 15 10 15 10 10 0 10 0 -15 -10z m-100 -21 l12 -21 14 6 15 6 -6
-10 -6 -10 -14 0 -13 0 -5 13 -4 12 -45 -32 -45 -32 -7 6 -6 6 31 23 30 22
-13 5 -13 5 30 1 30 1 -15 10 -15 10 17 0 17 0 11 -21z m1227 15 l-6 -6 -13 5
-13 5 19 1 19 1 -6 -6z m-1455 -35 l-7 -5 -27 -12 -28 -12 0 10 0 9 -15 -5
-15 -6 0 -14 0 -14 -17 0 -18 0 15 10 15 10 -10 0 -9 0 22 16 22 15 21 -6 22
-7 -6 8 -5 9 23 0 24 0 -7 -6z m1572 2 l6 -9 -16 -6 -16 -6 -4 0 -4 0 0 15 0
15 14 0 15 0 5 -9z m121 -8 l20 -16 -18 7 -19 6 -31 1 -32 1 25 8 25 8 5 1 5
0 20 -16z m-1633 -20 l-14 -5 -29 -29 -29 -28 0 14 0 15 19 19 19 19 19 4 18
4 5 -4 5 -5 -13 -4z m152 2 l5 -15 -19 0 -19 0 5 15 6 15 8 0 8 0 6 -15z
m1570 -1 l6 -15 -9 6 -10 5 -6 -10 -6 -10 28 -12 28 -11 8 2 8 1 -5 -9 -6 -9
16 -6 16 -6 11 6 12 6 -25 -21 -25 -20 -3 15 -4 15 -14 -5 -15 -6 7 11 7 11
-24 -7 -24 -6 14 10 15 10 -26 12 -27 12 -5 14 -6 14 20 -6 20 -6 6 15 6 16 3
0 3 0 6 -16z m-738 -41 l-5 -5 -17 16 -17 17 -19 -20 -19 -21 -14 0 -15 0 0
10 0 10 11 0 10 0 16 16 16 15 13 -5 14 -5 0 12 0 11 16 -22 16 -23 -6 -6z
m502 27 l5 -15 -8 7 -8 8 -14 -12 -13 -11 -8 8 -7 8 14 5 13 4 -13 10 -14 9
24 -3 24 -3 5 -15z m52 -20 l25 -20 -20 0 -21 0 -12 12 -12 12 0 8 0 8 8 0 7
0 25 -20z m-1741 -26 l-10 -12 -21 -5 -20 -6 21 20 21 20 0 12 0 12 10 -15 9
-14 -10 -12z m111 1 l-12 -15 -9 0 -9 0 0 9 0 10 18 4 17 5 4 1 3 1 -12 -15z
m110 -26 l0 -7 -22 5 -23 5 -15 5 -15 5 20 8 20 7 18 -11 17 -11 0 -6z m50 22
l0 -10 -10 -6 -10 -6 0 15 0 16 10 0 10 0 0 -9z m940 -26 l0 -10 -10 15 -10
15 0 10 0 10 10 -15 10 -15 0 -10z m524 -32 l-13 -13 -15 6 -16 6 6 10 7 10
-14 10 -14 9 24 -6 24 -7 -8 13 -8 14 20 -20 19 -20 -12 -12z m-1570 21 l6
-16 -12 4 -12 4 -4 12 -4 12 10 0 10 0 6 -16z m-251 -6 l-4 -8 -24 0 -24 0 -4
8 -5 7 33 0 33 0 -5 -7z m1097 9 l-5 -4 -62 -7 -63 -7 0 8 0 8 67 3 68 3 -5
-4z m920 -17 l0 -10 11 0 12 0 16 -18 16 -18 30 -19 30 -19 15 3 15 3 -7 -7
-7 -8 42 -26 42 -27 38 -17 37 -18 0 -9 0 -10 -16 0 -15 0 7 12 7 11 -21 -5
-22 -6 6 9 5 9 -30 6 -31 7 0 7 0 7 -25 11 -26 12 -21 0 -21 0 6 6 7 7 -22 18
-21 19 -11 0 -11 1 -27 24 -28 24 0 16 0 15 10 0 10 0 0 -10z m-2075 -10 l6
-10 -8 0 -8 0 -25 -6 -25 -6 20 15 20 16 7 1 7 0 6 -10z m760 -28 l-4 -4 -10
7 -11 6 0 17 0 16 14 -20 14 -19 -3 -3z m92 32 l-6 -6 -13 5 -13 5 19 1 19 1
-6 -6z m-733 -35 l-17 -19 -11 0 -11 1 18 13 17 13 0 12 0 12 11 -6 10 -7 -17
-19z m876 21 l0 -10 -11 0 -10 0 6 10 6 10 5 0 4 0 0 -10z m158 3 l-18 -4 -17
4 -18 5 35 0 35 0 -17 -5z m269 -7 l0 -14 -15 5 -14 6 14 8 13 9 1 0 1 0 0
-14z m850 -9 l6 -7 -12 0 -12 0 6 -10 6 -9 40 -11 40 -11 -6 -9 -6 -10 17 0
17 0 -5 -6 -6 -5 -41 11 -41 11 0 9 0 10 -15 0 -15 0 0 15 0 14 -17 10 -18 10
28 -3 27 -3 7 -6z m-1952 -6 l5 -10 -8 -5 -9 -5 0 14 0 15 3 0 3 0 6 -9z m528
2 l-13 -5 -17 5 -18 5 30 0 30 0 -12 -5z m282 -3 l-6 -10 -10 0 -9 0 0 10 0
10 16 0 15 0 -6 -10z m115 -13 l0 -2 -29 0 -29 0 10 12 10 13 19 -11 19 -10 0
-2z m110 13 l0 -10 14 0 15 0 35 -21 36 -21 0 -10 0 -10 28 4 28 4 -4 -25 -5
-26 17 18 17 17 4 0 3 0 -15 -31 -15 -30 -22 14 -21 14 -10 21 -10 22 -12 0
-13 0 0 10 0 10 -30 0 -30 0 0 15 0 16 -15 5 -15 6 0 9 0 9 10 0 10 0 0 -10z
m565 -8 l-5 -6 -13 13 -12 12 18 -7 18 -6 -6 -6z m105 -12 l0 -10 -10 0 -10 0
0 10 0 10 10 0 10 0 0 -10z m203 -4 l6 -14 -21 6 -20 5 14 8 13 9 1 0 2 0 5
-14z m-1948 -6 l6 -10 -10 0 -11 0 0 10 0 10 4 0 5 0 6 -10z m985 0 l0 -10
-11 0 -10 0 6 10 6 10 5 0 4 0 0 -10z m802 -25 l5 6 26 -12 26 -12 -4 -8 -5
-8 20 -6 20 -6 0 -10 0 -9 -9 0 -9 0 -5 13 -5 12 -11 -15 -11 -15 0 16 0 17
-15 12 -15 12 0 -11 0 -11 11 0 10 0 -6 -10 -6 -10 -10 0 -9 0 0 14 0 14 -15
6 -15 5 0 17 0 16 13 -11 14 -11 5 5z m-2277 -5 l-6 -10 -12 0 -12 0 15 10 15
10 3 0 3 0 -6 -10z m2203 -3 l12 5 0 -11 0 -11 -11 0 -10 0 6 -12 6 -13 -15
19 -15 18 -10 -7 -11 -6 0 16 0 16 18 -9 17 -9 13 4z m286 4 l20 -8 -10 -5 -9
-6 -20 14 -19 14 10 -1 9 0 19 -8z m-2517 -27 l-6 -6 -13 5 -13 5 19 1 19 1
-6 -6z m843 2 l0 -4 -15 -6 -15 -5 0 9 0 10 15 0 15 0 0 -4z m1766 -11 l-29
-16 -11 5 -11 4 18 1 17 1 0 10 0 10 23 0 22 0 -29 -15z m-1867 -39 l-12 -11
7 18 6 19 1 11 1 12 5 -19 5 -18 -13 -12z m-469 -9 l0 -8 -10 6 -10 6 0 17 0
17 10 -15 10 -15 0 -8z m20 -2 l0 -10 -10 15 -10 15 0 10 0 10 10 -15 10 -15
0 -10z m1260 31 l0 -4 -16 -6 -15 -6 6 10 6 10 10 0 9 0 0 -4z m-1618 -28
l-12 -12 -12 13 -13 12 18 -6 17 -7 0 13 0 12 7 -6 7 -7 -12 -12z m2248 6 l0
-15 -10 6 -10 6 0 10 0 9 10 0 10 0 0 -16z m95 1 l10 -3 -47 -1 -48 -1 0 8 0
8 38 -4 37 -3 10 -4z m-494 -8 l-1 -7 -7 -1 -7 0 -4 12 -4 12 12 -4 12 -4 -1
-8z m579 3 l0 -10 -10 0 -10 0 0 -22 0 -23 -9 15 -10 14 6 10 6 9 -11 -7 -12
-7 -12 7 -12 7 20 8 19 8 18 0 17 1 0 -10z m30 -10 l0 -10 -10 0 -10 0 0 10 0
10 10 0 10 0 0 -10z m-2500 -4 l0 -4 -16 -6 -15 -6 6 10 6 10 10 0 9 0 0 -4z
m56 -31 l-19 -14 -10 6 -11 6 20 8 19 8 10 0 10 0 -19 -14z m892 3 l-4 -12
-12 -4 -12 -4 0 16 0 16 16 0 16 0 -4 -12z m-1008 -5 l0 -8 -25 -12 -25 -11 0
5 0 6 18 13 17 13 8 1 7 0 0 -7z m427 1 l-6 -6 -13 5 -13 5 19 1 19 1 -6 -6z
m2423 -6 l0 -8 -9 0 -10 0 -5 8 -5 9 14 0 15 0 0 -9z m-1730 -8 l0 -10 -10 0
-10 0 0 10 0 10 10 0 10 0 0 -10z m970 0 l0 -10 -10 0 -10 0 0 10 0 10 10 0
10 0 0 -10z m802 -4 l17 -13 -11 -11 -12 -12 -13 12 -13 11 -7 -7 -7 -7 14
-10 15 -10 -24 3 -24 3 -4 11 -4 12 26 6 26 7 -6 9 -6 10 8 0 8 -1 17 -13z
m-2622 0 l0 -5 -10 -6 -10 -6 0 10 0 11 10 0 10 0 0 -4z m801 -19 l-11 -11 -6
7 -6 6 7 10 6 11 11 -6 10 -6 -11 -11z m1488 -23 l7 5 1 -20 2 -19 -15 14 -14
15 1 23 2 23 4 -23 4 -22 8 4z m61 26 l0 -10 -10 0 -10 0 0 10 0 10 10 0 10 0
0 -10z m300 -20 l-15 -10 11 0 10 0 12 12 12 12 0 -27 0 -26 15 5 15 6 0 -15
0 -15 16 -6 16 -6 4 0 4 0 0 15 0 15 8 0 9 0 18 -20 19 -21 25 4 26 4 -13 -4
-13 -5 -10 -25 -9 -25 6 -9 6 -10 14 12 14 11 0 -11 0 -11 -25 -16 -26 -17 -6
7 -6 6 11 0 12 0 0 10 0 10 -34 0 -35 0 -7 12 -7 11 31 -6 32 -6 0 13 0 14 12
4 12 4 -8 12 -7 12 -10 0 -9 0 3 -12 2 -13 -15 1 -15 2 -17 7 -18 7 0 -16 0
-16 -4 0 -4 0 -16 6 -16 6 0 9 0 9 16 0 16 0 -11 13 -11 14 -42 1 -41 2 -5 5
-5 5 26 0 27 0 0 9 0 8 -17 0 -18 0 -20 2 -20 2 18 10 17 10 13 -7 12 -7 -7 8
-8 8 18 13 17 12 5 -4 4 -5 -14 -9z m-3000 0 l0 -10 -10 0 -10 0 0 10 0 10 10
0 10 0 0 -10z m2247 4 l-6 -6 -13 5 -13 5 19 1 19 1 -6 -6z m-2282 -14 l6 -10
-15 6 -16 6 0 4 0 4 9 0 10 0 6 -10z m2075 -21 l0 -9 -10 0 -10 0 0 16 0 15
10 -6 10 -6 0 -10z m804 5 l6 -15 9 6 10 5 6 -10 6 -10 -18 0 -18 0 -25 20
-25 20 21 0 22 0 6 -16z m-2924 -4 l0 -10 -11 0 -10 0 6 10 6 10 5 0 4 0 0
-10z m1037 -15 l-12 -13 -10 9 -10 10 15 9 14 9 8 -5 8 -5 -13 -14z m1191 7
l4 -12 -16 0 -16 0 0 16 0 16 12 -4 12 -4 4 -12z m567 8 l-6 -10 -17 1 -17 0
20 9 20 9 3 0 3 1 -6 -10z m-648 -32 l-5 -13 -1 19 -1 19 6 -6 6 -6 -5 -13z
m-2187 1 l-25 -10 -8 -15 -8 -14 -14 0 -15 0 0 -12 0 -12 -12 12 -12 12 5 3 4
3 35 22 35 22 20 -1 20 0 -25 -10z m438 -14 l-2 -25 -8 8 -9 9 7 16 6 17 4 0
4 0 -2 -25z m2612 -7 l0 -9 -20 11 -20 11 0 3 0 4 20 -5 20 -5 0 -10z m-2008
-3 l0 -9 -11 -4 -11 -4 0 17 0 17 11 -4 11 -3 0 -10z m1338 5 l0 -10 -10 0
-10 0 0 10 0 10 10 0 10 0 0 -10z m-1260 -4 l0 -4 -20 -5 -20 -5 6 9 5 9 15 0
14 0 0 -4z m-1217 -30 l6 -14 -6 -6 -6 -6 -7 0 -6 0 -1 20 -2 20 9 0 8 0 5
-14z m992 -5 l5 -10 -10 -6 -10 -6 0 15 0 16 4 0 5 0 6 -9z m-1025 -9 l0 -9
-20 -18 -20 -18 0 11 0 12 -17 0 -18 0 15 -11 15 -11 -13 -5 -12 -5 7 -11 6
-10 -15 6 -16 6 -18 -13 -17 -13 11 -7 12 -7 0 -10 0 -10 -16 16 -16 16 -19
-17 -19 -17 0 11 0 12 -10 0 -9 0 5 -17 6 -18 -9 11 -8 11 -20 -7 -20 -8 -22
-21 -22 -21 -16 0 -16 0 13 14 13 14 4 -4 4 -3 25 19 25 20 13 0 14 0 0 8 0 8
30 17 30 18 12 -7 11 -7 -7 11 -7 12 17 0 17 0 23 26 24 25 10 -6 10 -6 0 10
0 11 15 0 15 0 0 -8z m2650 -22 l-1 -25 -10 18 -10 17 -20 0 -20 0 6 10 6 10
24 -2 25 -2 0 -26z m-2575 10 l-6 -10 -12 0 -12 0 15 10 15 10 3 0 3 0 -6 -10z
m845 0 l-15 -10 -15 0 -15 0 15 10 15 10 15 0 15 0 -15 -10z m-875 -20 l6 -10
25 0 25 0 -5 -9 -6 -9 -23 6 -22 6 -13 13 -13 13 10 0 10 0 6 -10z m3451 -10
l15 0 -6 -10 -6 -9 26 -17 25 -16 -6 -10 -6 -9 -21 6 -22 6 -22 11 -23 11 0
25 0 24 16 -6 16 -6 14 0z m74 -11 l0 -9 -14 0 -14 0 -5 14 -6 14 20 -5 19 -5
0 -9z m-247 -6 l-13 -5 -12 5 -13 5 25 0 25 0 -12 -5z m-3353 -32 l0 -9 -20 5
-20 5 0 4 0 4 20 0 20 0 0 -9z m3680 -1 l0 -10 -4 0 -5 0 -6 10 -6 10 10 0 11
0 0 -10z m-310 -4 l0 -5 -9 -6 -10 -5 -6 10 -6 10 15 0 16 0 0 -4z m-2550 -16
l0 -10 -10 0 -10 0 0 10 0 10 10 0 10 0 0 -10z m2848 -18 l-3 -15 -11 -4 -11
-4 0 25 0 24 14 -5 14 -6 -3 -15z m77 -13 l-6 -19 10 0 11 0 0 10 0 10 13 0
14 0 18 -20 18 -20 8 5 7 5 16 -16 16 -15 0 8 1 8 12 -15 12 -16 35 -17 35
-17 -28 0 -28 0 5 9 6 9 -22 5 -22 6 -43 -6 -43 -6 0 17 0 17 -22 -6 -23 -7
12 13 13 13 35 -11 35 -11 5 8 5 8 -23 7 -22 8 -50 1 -50 1 -3 19 -4 18 11 -6
11 -7 1 13 1 13 -2 14 -2 15 16 -13 16 -14 -5 -18z m-3535 27 l0 -4 -16 -6
-15 -6 6 10 6 10 10 0 9 0 0 -4z m85 -16 l6 -10 -10 0 -11 0 0 10 0 10 4 0 5
0 6 -10z m-325 -18 l0 -8 -30 -17 -30 -18 7 18 6 18 15 12 15 12 8 -5 9 -5 0
-7z m920 8 l0 -10 -16 0 -15 0 6 10 6 10 10 0 9 0 0 -10z m-1015 -20 l-20 -9
13 0 12 -1 0 -17 0 -18 -9 13 -8 14 -51 -26 -51 -26 -6 -10 -6 -10 10 0 11 0
0 -10 0 -10 -52 0 -53 0 13 -8 12 -8 -20 -19 -21 -19 -9 14 -9 15 14 3 15 3 0
15 0 15 15 5 15 6 1 17 1 16 4 -12 5 -12 27 11 27 12 32 23 32 23 15 0 15 0 6
10 6 10 17 -1 17 0 -20 -9z m885 0 l0 -10 -11 0 -10 0 6 10 6 10 5 0 4 0 0
-10z m78 -18 l4 -12 -26 0 -26 0 0 9 0 9 13 5 12 5 9 -2 10 -2 4 -12z m2029
-2 l38 -20 -13 0 -12 0 -37 20 -38 20 13 0 12 0 37 -20z m-2320 -22 l-5 -13
-1 19 -1 19 6 -6 6 -6 -5 -13z m233 -4 l0 -4 -15 0 -15 0 0 10 0 9 15 -5 15
-6 0 -4z m2800 6 l8 0 6 -22 7 -23 10 20 9 20 -6 -32 -6 -33 10 0 10 0 16 -6
16 -6 7 20 8 21 20 -23 20 -22 4 -10 3 -9 27 -12 26 -13 -44 5 -43 5 12 -15
12 -15 -15 0 -15 0 -5 15 -6 14 10 6 9 6 -5 10 -6 9 -42 -2 -42 -3 -3 24 -4
24 -11 13 -12 13 -15 18 -14 17 18 -7 18 -7 8 0z m-2710 -10 l-15 -10 -10 0
-10 0 15 10 15 10 10 0 10 0 -15 -10z m-300 -9 l0 -9 -16 -6 -17 -6 13 15 12
15 4 0 4 0 0 -9z m65 -17 l-16 -16 -7 6 -6 7 14 9 15 10 8 0 8 0 -16 -16z
m165 -4 l0 -10 -11 0 -10 0 6 10 6 10 5 0 4 0 0 -10z m3080 0 l15 -10 -17 0
-18 0 0 -14 0 -13 31 -7 31 -6 9 6 9 5 -6 11 -6 10 22 -12 22 -12 -6 11 -7 11
6 0 7 0 28 -17 29 -16 5 -21 6 -21 -18 -13 -17 -13 -20 5 -20 6 -17 0 -18 0 0
15 0 16 -31 6 -31 6 14 8 13 9 -17 0 -17 0 -26 12 -25 11 0 14 0 14 20 -6 20
-6 0 10 0 11 8 0 7 0 15 -10z m-3827 -7 l-13 -5 -17 5 -18 5 30 0 30 0 -12 -5z
m2917 -3 l0 -10 -15 0 -15 0 0 10 0 10 15 0 15 0 0 -10z m-3408 -7 l-12 -5 5
-9 6 -9 -16 7 -17 6 14 8 13 9 10 -1 10 -1 -13 -5z m468 -13 l-12 -7 2 -7 2
-6 -5 -8 -4 -7 3 12 3 11 -15 6 -16 6 -31 0 -32 0 12 8 12 7 47 -3 47 -4 -13
-8z m2988 -8 l4 -12 -21 0 -20 0 6 15 5 16 11 -4 11 -3 4 -12z m782 4 l0 -5
-10 -6 -10 -6 0 10 0 11 10 0 10 0 0 -4z m-3050 -10 l0 -4 -16 -6 -15 -6 6 10
6 10 10 0 9 0 0 -4z m-1160 -16 l0 -10 -11 0 -10 0 6 10 6 10 5 0 4 0 0 -10z
m115 -27 l-49 -23 -8 0 -9 0 6 10 6 10 10 -5 9 -6 0 10 0 11 14 0 14 0 12 14
11 15 16 -6 16 -6 -48 -24z m999 28 l6 -9 -21 -5 -20 -5 12 14 11 14 4 0 3 0
5 -9z m2283 -26 l37 -35 -14 0 -15 1 -39 34 -39 35 16 0 17 0 37 -35z m-157 4
l0 -10 -10 6 -10 6 0 10 0 10 10 -6 10 -6 0 -10z m1027 15 l-6 -6 -13 5 -13 5
19 1 19 1 -6 -6z m-4227 -14 l0 -10 -22 1 -23 0 20 9 20 9 3 0 2 1 0 -10z
m678 3 l-18 -4 0 -11 0 -11 -6 6 -6 6 7 10 6 11 17 -1 17 -1 -17 -5z m-748
-13 l-15 -10 -7 0 -8 0 0 8 0 8 22 1 23 2 -15 -9z m900 6 l0 -5 -10 -6 -10 -6
0 10 0 11 10 0 10 0 0 -4z m2651 -13 l14 -17 -12 8 -13 7 0 -10 0 -11 -9 0 -9
0 5 20 5 20 3 0 3 0 13 -17z m799 1 l0 -4 -15 0 -15 0 0 10 0 9 15 -5 15 -6 0
-4z m-4478 -20 l-23 -16 -7 7 -6 6 14 9 15 10 15 0 14 0 -22 -16z m168 7 l0
-8 -31 -32 -31 -33 11 -11 12 -12 10 15 11 15 -5 -15 -4 -15 -21 -3 -22 -3 0
16 0 16 -21 -11 -21 -12 -6 6 -6 6 20 18 20 17 14 3 14 3 21 24 20 24 8 0 7 1
0 -9z m100 -16 l-13 -15 -4 4 -5 5 13 14 14 15 4 -4 4 -4 -13 -15z m576 -43
l-6 -5 -4 4 -4 4 6 30 7 30 3 -28 4 -29 -6 -6z m27 43 l-5 -16 -5 5 -5 5 7 10
6 11 4 0 4 0 -6 -15z m-812 -10 l9 6 -6 -15 -6 -15 -6 1 -7 1 -17 -7 -18 -8 0
-14 0 -13 15 5 15 6 0 -7 0 -6 -14 -14 -14 -14 -6 22 -6 22 0 22 0 21 20 -5
20 -5 1 18 1 19 5 -13 5 -12 9 5z m3529 -5 l5 -9 28 -10 27 -11 0 -15 0 -16
-22 6 -23 7 -33 15 -34 15 6 14 6 15 -10 -6 -10 -6 0 11 0 12 27 -7 28 -7 5
-8z m155 0 l6 -10 -15 0 -16 0 0 10 0 10 9 0 10 0 6 -10z m-3505 -10 l15 -9
-11 -18 -11 -18 -26 0 -25 -1 1 17 1 17 16 -7 15 -8 13 4 13 5 -18 14 -18 13
10 1 10 0 15 -10z m3634 -13 l-6 -17 -18 10 -17 9 -7 -6 -6 -6 0 12 0 11 25
-4 25 -5 0 11 0 11 5 -5 5 -5 -6 -16z m556 19 l0 -5 -10 -6 -10 -6 0 10 0 11
10 0 10 0 0 -4z m-4440 -28 l0 -23 -9 -14 -8 -13 -7 11 -7 11 10 0 11 0 0 15
0 15 -11 0 -10 0 6 10 6 10 10 0 9 0 0 -22z m3525 12 l-6 -10 -17 0 -17 0 15
10 15 10 8 0 8 0 -6 -10z m855 0 l0 -9 -15 5 -15 6 0 4 0 4 15 0 15 0 0 -10z
m-4060 -16 l0 -15 -10 6 -10 6 5 10 6 9 5 0 4 0 0 -16z m3987 -16 l-5 -13 -1
19 -1 19 6 -6 6 -6 -5 -13z m-404 -2 l6 -15 -14 6 -15 5 6 9 5 9 4 0 3 0 5
-14z m490 7 l-23 -4 -22 4 -23 4 45 0 45 0 -22 -4z m-753 -33 l0 -20 -9 0 -9
0 -5 20 -5 20 14 0 14 0 0 -20z m-3723 -4 l8 -9 -16 6 -17 5 -21 -14 -21 -15
0 10 0 11 11 0 10 0 -5 8 -5 8 24 -1 23 0 9 -9z m3983 -1 l13 -15 -5 -5 -5 -5
-17 6 -16 6 0 14 0 14 9 0 9 0 12 -15z m850 -45 l-8 -35 -1 25 -1 25 -6 25 -7
25 16 -15 16 -15 -9 -35z m-4753 23 l-17 -17 -6 6 -6 7 7 10 6 11 17 0 16 0
-17 -17z m100 11 l-6 -6 -13 5 -13 5 19 1 19 1 -6 -6z m63 -4 l-15 -10 -15 1
-15 0 20 9 20 9 10 0 10 1 -15 -10z m-270 -10 l0 -10 -11 0 -10 0 6 10 6 10 5
0 4 0 0 -10z m4780 -4 l0 -15 -9 -6 -10 -5 -6 10 -6 10 6 10 6 10 10 0 9 0 0
-14z m-4819 -29 l-12 -12 7 18 6 18 6 -6 6 -5 -13 -13z m4052 8 l17 -7 0 13 0
13 11 -11 12 -12 -7 -16 -6 -17 -36 7 -36 6 -19 12 -19 12 0 8 0 7 33 -4 32
-4 18 -7z m469 3 l-12 -12 -12 12 -12 12 24 0 24 0 -12 -12z m45 6 l-6 -6 -13
5 -13 5 19 1 19 1 -6 -6z m-4407 -18 l0 -5 -9 -6 -10 -5 -6 10 -6 10 15 0 16
0 0 -4z m4304 -10 l-6 -15 -15 6 -15 6 14 8 13 9 7 0 7 0 -5 -14z m-4456 -26
l-12 -19 -4 4 -4 4 5 16 6 15 11 0 10 0 -12 -20z m4132 11 l0 -9 23 4 22 4
-20 -9 -20 -10 -6 0 -7 -1 -6 15 -5 15 9 0 10 0 0 -9z m-4060 -31 l0 -10 -4 0
-5 0 -6 10 -6 10 10 0 11 0 0 -10z m4784 -12 l-7 -10 14 -9 14 -9 -17 0 -18 0
0 15 0 15 -17 1 -18 0 20 8 20 8 8 -4 7 -4 -6 -11z m-755 -9 l31 -11 0 -9 0
-9 21 0 21 0 -6 15 -5 15 8 0 9 0 11 -14 12 -14 -11 -7 -12 -7 21 -19 21 -20
0 -19 0 -19 -19 2 -19 1 5 12 4 11 -26 17 -27 18 -14 -6 -14 -5 0 12 0 12 -20
13 -21 13 6 8 5 9 -12 5 -13 5 6 1 6 1 32 -11z m-4106 -36 l7 -33 -10 0 -10 0
0 37 0 36 4 -4 3 -4 6 -32z m992 17 l-6 -10 -12 0 -12 0 15 10 15 10 3 0 3 0
-6 -10z m3070 0 l-6 -10 -10 0 -10 0 6 10 6 10 10 0 10 0 -6 -10z m729 1 l6
-9 -15 -6 -15 -5 0 9 0 9 -22 4 -23 4 32 2 32 1 5 -9z m-4689 -11 l-6 -10 -10
0 -9 0 0 10 0 10 16 0 15 0 -6 -10z m4795 0 l0 -10 -11 0 -10 0 6 10 6 10 5 0
4 0 0 -10z m-4390 -16 l0 -3 -19 -10 -19 -11 -5 19 -4 18 23 -5 24 -4 0 -4z
m3747 -47 l-4 -22 -2 28 -1 28 -10 -6 -10 -6 0 23 0 22 16 -22 15 -22 -4 -23z
m498 54 l5 -9 -25 -4 -25 -5 0 11 0 12 20 1 20 2 5 -8z m-4205 -19 l-15 -5
-18 -9 -18 -9 12 19 12 19 21 -5 20 -6 -14 -4z m64 3 l20 -15 -10 0 -9 1 -25
14 -25 14 15 0 15 0 19 -14z m286 0 l-12 -15 -9 0 -9 0 0 15 0 15 21 0 21 0
-12 -15z m-788 -30 l3 -19 -20 -3 -20 -3 20 9 20 10 -12 0 -13 1 0 22 0 22 9
-9 9 -10 4 -20z m728 -5 l14 -9 -4 -4 -5 -4 -25 14 -25 13 15 0 15 0 15 -10z
m3330 -4 l0 -5 -9 -6 -10 -5 -6 10 -6 10 15 0 16 0 0 -4z m-3660 -10 l0 -5
-10 -6 -10 -6 0 10 0 11 10 0 10 0 0 -4z m3815 -16 l6 -10 25 0 24 0 0 -15 0
-14 -17 6 -17 7 20 -27 19 -26 13 -1 12 0 0 -20 0 -20 -15 0 -15 0 0 20 0 20
-18 0 -18 0 -11 -11 -11 -11 1 18 2 19 -22 -1 -22 0 -6 28 -6 28 6 10 6 10 19
0 19 0 6 -10z m-78 -32 l-5 -13 -1 19 -1 19 6 -6 6 -6 -5 -13z m-4207 -8 l-25
-8 15 -1 15 -1 -10 -8 -11 -7 2 -22 1 -23 -8 0 -7 0 -4 12 -4 11 4 29 4 28 27
-1 26 -1 -25 -8z m696 -12 l7 -11 -11 7 -12 7 0 -11 0 -11 -10 6 -10 6 5 10 6
9 9 0 9 0 7 -12z m-673 -39 l-6 -20 -10 10 -10 10 7 16 6 16 9 -5 9 -6 -5 -21z
m602 22 l5 -10 -10 -6 -10 -6 0 15 0 16 4 0 5 0 6 -9z m-115 -9 l0 -9 -19 -17
-18 -17 -12 15 -12 14 18 11 18 10 13 1 12 0 0 -8z m-124 -20 l-5 -9 24 -13
25 -13 0 -8 0 -7 -30 -11 -30 -10 0 13 0 12 12 12 12 12 -12 0 -12 0 0 15 0
15 11 0 10 0 -5 -8z m52 -3 l-3 -10 -10 0 -9 0 -4 10 -4 11 17 0 17 0 -4 -11z
m162 -3 l0 -14 -20 -5 -20 -5 0 3 0 3 6 16 6 16 14 0 14 0 0 -14z m3815 -6 l6
-10 -23 0 -23 0 15 10 15 10 2 0 2 0 6 -10z m-3865 -18 l0 -9 -19 -17 -20 -18
-13 5 -13 5 18 1 17 1 0 9 0 9 -12 6 -13 6 24 -6 24 -6 -7 11 -7 11 10 0 11 0
0 -8z m-260 -12 l0 -10 -19 0 -20 0 -6 10 -6 10 25 0 26 0 0 -10z m30 0 l0
-10 -11 0 -10 0 6 10 6 10 5 0 4 0 0 -10z m4160 -15 l40 -25 22 -1 23 -1 -25
-8 -25 -8 -17 -1 -17 -1 -20 21 -20 22 -20 -6 -21 -5 0 13 0 14 18 4 17 5 3 1
2 1 40 -25z m-80 -39 l0 -14 -21 -5 -21 -6 18 19 19 19 3 0 2 1 0 -14z m-3965
-27 l-6 -9 -22 5 -22 6 -13 -21 -12 -20 4 0 5 0 15 16 16 15 0 -10 0 -10 -18
-10 -18 -10 -19 3 -18 3 -2 21 -2 21 9 -5 8 -5 35 12 34 13 -6 9 -5 9 21 -12
22 -11 -6 -10z m30 21 l6 -10 -10 0 -10 0 -6 10 -6 10 10 0 10 0 6 -10z m4275
-14 l0 -5 -10 -6 -10 -6 0 10 0 11 10 0 10 0 0 -4z m-230 -26 l0 -10 -10 0
-10 0 0 10 0 10 10 0 10 0 0 -10z m210 -21 l0 -20 -10 6 -10 6 0 15 0 14 10 0
10 0 0 -21z m98 -101 l-3 -103 -17 -3 -18 -3 0 16 0 16 11 -7 11 -6 -3 50 -4
50 9 -5 8 -6 -7 52 -7 51 12 0 11 0 -3 -102z m-288 31 l0 -20 -10 6 -10 6 0
20 0 20 10 -6 10 -6 0 -20z m116 17 l14 -15 0 -10 0 -11 -6 0 -5 0 -20 10 -19
11 0 14 0 15 11 0 10 0 15 -14z m-4521 -16 l-6 -9 -14 6 -15 5 0 4 0 4 21 0
20 0 -6 -10z m-35 -29 l0 -9 -20 5 -20 5 0 4 0 4 20 0 20 0 0 -9z m4680 -98
l0 -18 -10 15 -10 15 -9 -13 -8 -14 -6 16 -6 16 24 0 25 0 0 -17z"/>
<path d="M822 3858 l3 -13 19 -8 19 -7 2 2 3 3 -24 18 -24 18 2 -13z"/>
<path d="M940 3760 l-14 -9 7 -7 7 -8 12 12 12 12 -5 4 -5 5 -14 -9z"/>
<path d="M1170 3326 l0 -4 16 -6 15 -6 -6 10 -6 10 -10 0 -9 0 0 -4z"/>
<path d="M3484 2935 l-6 -15 -16 0 -15 0 6 -7 7 -6 25 13 25 13 0 9 0 8 -10 0
-11 0 -5 -15z"/>
<path d="M3460 2740 l-14 -9 16 -6 17 -7 11 7 10 6 0 10 0 9 -12 0 -13 0 -15
-10z"/>
<path d="M3445 2690 l6 -10 10 0 10 0 -6 10 -6 10 -10 0 -10 0 6 -10z"/>
<path d="M3411 2654 l1 -19 5 13 5 13 -6 6 -6 6 1 -19z"/>
<path d="M3530 2810 l0 -10 10 0 10 0 0 10 0 10 -10 0 -10 0 0 -10z"/>
<path d="M1750 2290 l0 -10 11 0 10 0 -6 10 -6 10 -5 0 -4 0 0 -10z"/>
<path d="M3220 2420 l0 -10 10 0 10 0 0 10 0 10 -10 0 -10 0 0 -10z"/>
<path d="M3205 1990 l6 -10 5 0 4 0 0 10 0 10 -11 0 -10 0 6 -10z"/>
<path d="M3350 1880 l15 -10 10 0 10 0 -15 10 -15 10 -10 0 -10 0 15 -10z"/>
<path d="M4160 1270 l0 -24 12 12 12 12 -12 12 -12 12 0 -24z"/>
<path d="M630 1120 l0 -10 10 0 10 0 0 10 0 10 -10 0 -10 0 0 -10z"/>
<path d="M4727 903 l-4 -8 19 -17 18 -18 0 10 0 10 16 0 16 0 -12 15 -12 15
-19 0 -18 0 -4 -7z"/>
<path d="M4320 464 l0 -15 10 6 10 6 0 10 0 9 -10 0 -10 0 0 -16z"/>
<path d="M4498 4513 l22 -4 23 4 22 4 -45 0 -45 0 23 -4z"/>
<path d="M4663 4503 l17 -4 18 4 17 5 -35 0 -35 0 18 -5z"/>
<path d="M4568 4493 l13 -5 6 6 6 6 -19 -1 -19 -1 13 -5z"/>
<path d="M4790 4460 l-15 -10 23 0 22 0 0 10 0 10 -7 0 -8 0 -15 -10z"/>
<path d="M225 4370 l-6 -10 10 0 10 0 6 10 6 10 -10 0 -10 0 -6 -10z"/>
<path d="M188 4263 l13 -5 6 6 6 6 -19 -1 -19 -1 13 -5z"/>
<path d="M180 4230 l0 -10 10 0 10 0 0 10 0 10 -10 0 -10 0 0 -10z"/>
<path d="M228 4226 l-18 -13 0 -9 0 -8 12 12 12 12 9 0 9 0 -11 -14 -11 -13
15 -13 15 -13 -5 16 -6 15 20 7 21 6 0 10 0 9 -9 0 -9 0 -14 5 -13 4 -17 -13z"/>
<path d="M652 4033 l17 -4 4 -17 5 -17 1 23 1 22 -22 -1 -23 -1 17 -5z"/>
<path d="M3915 4029 l-7 -10 4 -4 4 -4 13 8 13 9 -10 6 -11 6 -6 -11z"/>
<path d="M1055 4010 l6 -10 5 0 4 0 0 10 0 10 -11 0 -10 0 6 -10z"/>
<path d="M1215 3880 l6 -10 5 0 4 0 0 10 0 10 -11 0 -10 0 6 -10z"/>
<path d="M3697 3783 l-7 -6 0 -9 0 -8 9 0 9 0 6 15 5 15 -8 0 -8 0 -6 -7z"/>
<path d="M968 3443 l12 -5 13 5 12 5 -25 0 -25 0 13 -5z"/>
<path d="M3625 3320 l6 -10 10 0 10 0 -6 10 -6 10 -10 0 -10 0 6 -10z"/>
<path d="M1335 3130 l-6 -10 13 0 12 0 -22 -16 -22 -15 0 -10 0 -10 25 18 24
18 1 18 0 17 -9 0 -10 0 -6 -10z"/>
<path d="M1814 3091 l19 -21 9 0 9 0 -6 10 -6 10 -22 11 -22 12 19 -22z"/>
<path d="M2925 2930 l-6 -10 15 6 16 6 0 4 0 4 -9 0 -10 0 -6 -10z"/>
<path d="M83 2833 l17 -5 13 5 12 5 -30 0 -30 0 18 -5z"/>
<path d="M2390 2595 l0 -4 23 -12 22 -12 -14 16 -13 17 -9 0 -9 0 0 -5z"/>
<path d="M1510 2165 l0 -15 10 0 9 0 -5 15 -6 15 -4 0 -4 0 0 -15z"/>
<path d="M2374 1491 l-31 -17 24 -11 25 -12 -6 14 -5 13 14 5 13 6 21 -6 21
-5 0 11 0 11 -9 0 -9 0 -14 4 -13 5 -31 -18z"/>
<path d="M2400 1469 l0 -10 10 6 10 6 0 5 0 4 -10 0 -10 0 0 -11z"/>
<path d="M3360 1370 l0 -10 11 0 10 0 -6 10 -6 10 -5 0 -4 0 0 -10z"/>
<path d="M4840 871 l0 -9 16 -6 16 -6 5 0 4 0 -15 15 -15 15 -5 0 -6 0 0 -9z"/>
<path d="M2245 841 l-6 -30 -32 -31 -31 -30 -36 -10 -35 -9 -39 9 -38 8 -11
11 -11 11 -6 0 -7 0 0 -30 0 -30 -29 -31 -29 -30 -64 -31 -64 -30 -53 6 -53 6
-17 -53 -16 -53 -17 -21 -17 -21 -33 -16 -32 -17 -54 6 -53 7 -7 -22 -7 -22
-3 -17 -3 -16 -1 -6 -1 -7 -56 -46 -56 -46 -59 0 -58 0 4 -27 5 -28 -30 -48
-31 -48 -37 -16 -36 -15 -41 5 -40 5 -15 6 -16 7 -22 -41 -21 -41 313 3 314 3
104 70 103 70 20 18 20 19 45 26 45 26 34 25 34 26 78 50 78 50 104 73 105 73
17 19 18 20 -42 45 -41 45 0 100 0 100 -14 0 -14 0 -7 -29z"/>
<path d="M4777 823 l-5 -4 5 -20 5 -19 16 0 15 0 -6 7 -7 6 10 12 10 13 -19 5
-20 5 -4 -5z"/>
<path d="M4905 820 l6 -10 10 0 9 0 0 10 0 10 -16 0 -15 0 6 -10z"/>
<path d="M2860 778 l0 -31 -35 -64 -35 -64 -35 -37 -34 -38 -46 -12 -45 -12
-20 0 -20 0 0 -15 0 -15 8 0 8 0 20 -17 20 -18 16 -10 16 -10 58 -40 59 -40
62 -47 63 -47 21 -20 22 -20 41 -21 41 -20 45 -33 46 -32 84 -55 85 -55 285
-3 285 -3 34 6 33 6 -15 12 -14 12 -27 40 -26 40 0 15 0 16 -67 2 -68 3 -38
37 -37 37 -7 37 -6 38 -76 0 -76 0 -32 20 -32 19 -17 27 -18 26 0 50 0 49 -20
-7 -21 -7 -44 0 -43 1 -27 19 -26 20 -20 49 -20 49 -6 3 -6 3 5 24 4 25 -8 0
-9 0 -52 -22 -52 -21 -41 12 -41 12 -33 52 -33 52 -7 28 -6 27 -10 0 -10 0 0
-32z"/>
<path d="M4900 796 l0 -4 16 -6 15 -6 -6 10 -6 10 -10 0 -9 0 0 -4z"/>
<path d="M280 571 l0 -21 10 0 10 0 0 14 0 15 -10 6 -10 6 0 -20z"/>
<path d="M4817 343 l-7 -6 0 -11 0 -10 12 12 12 12 -5 5 -6 5 -6 -7z"/>
<path d="M4340 310 l0 -10 10 0 10 0 0 10 0 10 -10 0 -10 0 0 -10z"/>
<path d="M4860 311 l0 -9 20 5 20 5 0 4 0 4 -20 0 -20 0 0 -9z"/>
<path d="M63 83 l-13 -5 0 -8 0 -8 20 -5 20 -5 0 19 0 19 -7 -1 -8 -1 -12 -5z"/>
<path d="M80 20 l-15 -10 10 0 10 0 15 10 15 10 -10 0 -10 0 -15 -10z"/>
</g>
</svg>
