<?xml version="1.0" standalone="no"?>
<!DOCTYPE svg PUBLIC "-//W3C//DTD SVG 20010904//EN"
 "http://www.w3.org/TR/2001/REC-SVG-20010904/DTD/svg10.dtd">
<svg version="1.0" xmlns="http://www.w3.org/2000/svg"
   viewBox="0 0 96.000000 81.000000"
 preserveAspectRatio="xMidYMid meet">
<metadata>
Created by potrace 1.16, written by Peter Selinger 2001-2019
</metadata>
<g transform="translate(0.000000,81.000000) scale(0.100000,-0.100000)"
fill-opacity="0.2" fill="#000000" stroke="none">
<path d="M40 796 l8 -8 31 -2 32 -1 -16 -11 -15 -11 0 -11 0 -12 -26 10 -25
10 6 -10 6 -10 -11 0 -11 0 6 -10 6 -10 10 0 10 0 -6 10 -6 10 15 0 16 0 0 -8
0 -8 -12 -12 -12 -12 -2 -14 -2 -15 14 6 13 5 0 6 -1 7 7 22 7 23 27 -7 26 -6
-8 9 -9 9 -9 1 -9 2 -7 1 -8 1 14 9 13 8 31 -11 30 -11 4 12 5 13 39 -6 39 -7
0 11 0 11 -14 -5 -15 -6 -18 11 -18 10 30 -1 30 -2 20 -13 19 -13 13 0 13 0 0
10 0 10 -22 1 -23 0 20 9 20 8 10 -9 9 -9 26 1 25 1 -19 5 -19 5 14 9 14 9
-17 0 -18 0 0 -12 0 -13 -8 11 -7 11 -75 -1 -75 -1 -7 -10 -8 -10 0 11 0 12
-65 -2 -64 -1 9 -9z m107 -12 l0 -12 -14 5 -13 5 0 7 0 8 13 0 14 0 0 -13z"/>
<path d="M388 798 l10 -10 43 -3 44 -4 -17 5 -18 5 0 9 0 8 -36 0 -36 0 10
-10z"/>
<path d="M487 794 l4 -12 34 -4 34 -4 -5 8 -5 8 25 -2 26 -2 0 -8 0 -8 20 0
19 0 -5 14 -6 15 21 -6 21 -5 -7 -12 -7 -11 17 14 17 13 0 8 0 7 -39 0 -39 0
6 -16 6 -16 -18 15 -18 14 -19 3 -19 3 0 -10 0 -10 -11 0 -10 0 5 8 5 8 -28
-1 -28 0 4 -11z"/>
<path d="M703 788 l-2 -18 25 0 25 0 -6 9 -5 10 10 6 10 6 0 -10 0 -11 12 0
12 0 -17 18 -18 17 -10 -17 -10 -18 -11 0 -10 0 11 13 11 14 -13 0 -13 0 -1
-19z"/>
<path d="M903 789 l-5 -18 -13 5 -13 6 -20 -20 -20 -20 6 -7 7 -7 -15 2 -15 2
-12 -1 -13 -1 0 -11 0 -10 23 6 22 6 -15 -10 -15 -11 -17 6 -18 5 6 -14 5 -14
-23 1 -23 1 3 -17 2 -16 -20 5 -20 5 6 -17 7 -17 -24 6 -24 7 24 -21 24 -21
10 4 11 3 4 15 4 14 -12 -15 -12 -15 5 15 4 15 24 -2 24 -2 -12 5 -13 6 0 13
0 14 10 6 10 6 -6 -14 -5 -14 15 0 15 0 -5 9 -5 8 7 11 7 11 8 -13 9 -14 0 18
0 17 13 1 12 1 20 0 20 -1 -17 5 -18 5 0 9 0 9 24 -5 24 -4 5 21 6 22 15 -6
16 -6 -3 12 -2 12 18 -1 17 -2 0 15 0 14 -10 -6 -10 -6 0 9 0 9 -16 0 -17 0
-4 -18z m27 -3 l0 -5 -10 -6 -10 -6 0 10 0 11 10 0 10 0 0 -4z m-40 -26 l0 -9
-20 -11 -20 -11 0 5 0 5 16 15 15 16 5 0 4 0 0 -10z"/>
<path d="M9 797 l-1 -2 -3 -114 -2 -114 13 18 14 19 0 23 0 23 13 0 12 0 -12
8 -12 7 3 20 4 20 -13 15 -13 15 13 25 14 25 1 -11 0 -11 15 0 15 0 0 6 0 7
-30 11 -30 11 -1 -1z m15 -133 l-2 -26 -6 -5 -5 -5 3 28 4 29 1 3 1 2 4 0 3 0
-3 -26z"/>
<path d="M951 650 l-2 -15 -39 -30 -39 -30 -1 -12 0 -13 -16 0 -16 0 6 -15 6
-16 -13 2 -12 1 -15 -1 -15 -1 15 -10 15 -10 -26 0 -25 0 -24 -32 -25 -33 3
-8 2 -8 -15 -5 -15 -6 6 -9 5 -9 -22 0 -23 0 13 -12 13 -13 29 35 29 34 0 13
0 13 13 -3 12 -2 -1 17 -2 16 14 -5 13 -5 30 23 30 22 -5 8 -5 9 15 -6 16 -6
0 16 0 16 10 0 10 0 -2 12 -3 12 15 1 15 0 1 13 2 12 1 8 1 7 10 -15 9 -14 6
16 7 17 -5 18 -5 18 -1 -15z"/>
<path d="M183 638 l-10 -13 -13 -33 -13 -33 7 -6 6 -6 0 16 0 17 11 0 10 0 -6
9 -5 10 10 6 11 7 13 -11 13 -11 6 7 7 6 0 9 0 9 -8 -5 -8 -5 -14 9 -14 9 6 7
7 6 18 -7 18 -8 7 -1 6 -1 9 -9 8 -9 -12 7 -13 7 -1 -8 0 -8 -5 -24 -4 -24 15
13 15 12 -7 11 -6 10 11 -7 12 -7 0 12 0 12 6 -6 7 -7 -13 -15 -12 -15 11 0
12 0 -25 -27 -25 -27 4 -4 5 -5 13 11 14 12 8 -8 8 -7 -6 16 -5 16 37 -3 37
-3 13 -3 13 -3 6 14 5 14 -12 -7 -11 -7 0 10 0 9 13 5 12 4 -8 9 -9 9 -14 -19
-14 -20 0 12 0 12 -11 0 -10 0 7 -12 8 -13 -16 13 -16 13 -5 -13 -5 -13 1 22
1 22 12 -10 13 -10 20 20 21 21 6 0 5 0 -7 -12 -7 -11 11 7 12 7 0 -11 0 -11
9 6 10 5 6 -10 6 -10 -10 0 -9 0 3 -17 3 -18 12 3 13 3 18 -17 18 -16 13 4 13
5 -37 17 -38 18 0 9 0 9 28 -6 27 -7 3 -9 4 -8 7 0 8 0 0 15 0 15 -19 0 -18 0
0 11 0 10 -11 -7 -11 -7 -7 9 -6 9 -35 17 -35 17 -30 5 -30 6 28 -12 27 -12 0
-8 0 -8 -14 0 -15 0 -6 10 -6 9 -14 -6 -15 -5 6 18 6 19 -9 -12 -9 -12 -14 9
-15 10 -21 0 -22 0 -9 -12z"/>
<path d="M650 613 l-15 -5 -15 -5 -15 -6 -23 0 -22 1 20 -5 20 -4 0 -9 0 -9
-9 -5 -8 -5 -7 7 -8 7 -9 1 -9 2 -11 1 -10 1 4 8 5 7 -31 2 -32 2 23 -9 22 -9
0 -10 0 -10 15 5 15 6 0 -11 0 -10 17 6 16 6 -6 -10 -7 -11 17 3 18 3 -3 13
-3 12 14 -11 14 -12 6 7 7 6 0 -9 0 -10 25 -2 24 -2 7 12 7 11 -16 -6 -17 -6
0 10 0 10 -12 -7 -11 -7 8 13 8 13 -27 -5 -26 -5 0 9 0 9 15 5 15 6 14 -11 14
-12 6 17 6 16 0 4 0 4 -7 -1 -8 -1 -15 -5z"/>
<path d="M196 586 l19 -15 -15 2 -15 2 -2 -7 -3 -8 0 -15 0 -15 19 0 19 0 16
6 16 6 0 9 0 9 -12 -2 -13 -3 1 17 2 18 -8 -5 -9 -5 -6 10 -6 10 -12 0 -11 0
20 -14z m24 -37 l0 -9 -14 0 -14 0 -5 14 -6 14 20 -5 19 -5 0 -9z"/>
<path d="M676 585 l-5 -15 24 0 25 0 0 11 0 10 -10 -6 -10 -6 0 10 0 11 -9 0
-9 0 -6 -15z"/>
<path d="M4 525 l-1 -36 9 13 8 13 0 23 0 22 -7 0 -8 0 -1 -35z"/>
<path d="M493 519 l-12 -30 -20 10 -20 11 -18 0 -18 0 14 -9 13 -9 -7 -22 -7
-23 11 7 11 7 0 -10 0 -10 14 5 14 5 7 -10 6 -11 11 6 11 7 -19 -26 -19 -26
-8 -1 -8 0 7 -11 6 -11 -20 11 -21 11 -8 0 -8 -1 22 -18 23 -19 -15 -6 -15 -5
3 10 2 11 -22 9 -23 8 0 -10 0 -10 -8 5 -9 5 0 -12 0 -12 -4 -15 -4 -15 13 2
12 3 0 -10 0 -10 -8 0 -8 0 -12 12 -13 13 -6 -23 -5 -23 -22 7 -21 6 -3 3 -4
3 19 28 18 28 -2 3 -3 3 0 15 0 16 20 -11 20 -11 0 11 0 11 10 -6 10 -6 0 12
0 11 13 -11 14 -11 6 7 7 6 0 10 0 9 -14 -5 -14 -6 -6 6 -6 6 11 14 11 13 -12
15 -12 15 -14 0 -14 0 0 -10 0 -10 20 0 19 0 -6 -16 -6 -16 -8 14 -9 13 0 -8
0 -7 -24 16 -25 16 -8 -1 -8 -1 0 23 0 22 28 1 27 1 0 -8 0 -8 -10 -6 -10 -6
0 9 0 9 -15 0 -15 0 0 -14 0 -14 10 6 10 6 0 -10 0 -10 15 5 14 6 7 21 7 22
-2 3 -1 2 -7 1 -8 1 -23 9 -23 9 4 -8 5 -7 -12 -10 -11 -10 -15 -1 -15 -2 -15
-3 -15 -4 2 13 3 12 -10 0 -10 0 0 -9 0 -9 15 -12 16 -13 -5 -12 -4 -12 14 0
13 0 -4 7 -4 7 14 0 14 0 -4 -8 -5 -7 18 -8 17 -7 9 -1 9 -1 4 -12 5 -13 -9 0
-9 0 -20 15 -19 14 -15 1 -16 0 1 -27 0 -28 5 -1 5 -1 23 -12 23 -12 -6 -10
-6 -9 -10 0 -10 0 6 10 6 10 -13 -2 -13 -3 -7 -15 -7 -15 0 -15 0 -15 8 19 7
19 22 2 22 2 0 -7 0 -8 -14 -11 -14 -12 -5 13 -5 13 -1 -12 -1 -12 23 -13 22
-12 5 1 5 1 12 -13 12 -13 -15 -6 -15 -6 6 10 6 10 -16 0 -16 0 2 -12 1 -13
-1 -23 -1 -22 -26 4 -26 5 -6 6 -5 5 -18 -30 -19 -30 -15 0 -16 0 6 -10 6 -10
10 5 9 6 -7 -16 -6 -17 -7 12 -7 12 -7 -1 -6 -1 -20 -20 -20 -20 0 -10 0 -11
-14 3 -14 3 -21 -24 -21 -24 0 -9 0 -9 -9 6 -10 5 -6 -10 -6 -10 20 0 21 0 0
15 0 15 20 0 19 0 -5 14 -6 15 21 -6 21 -5 0 16 0 17 11 -6 10 -7 6 21 5 21 9
-6 9 -5 25 19 25 20 -12 5 -13 5 28 1 27 1 0 16 0 15 8 -5 8 -5 30 20 29 19
-12 0 -13 0 0 11 0 11 16 -6 16 -6 11 30 11 29 13 5 13 5 0 -9 0 -10 -10 0
-10 0 0 -16 0 -17 20 26 20 25 0 15 0 15 13 11 14 11 7 -7 7 -7 33 36 34 37
-6 5 -5 6 28 22 28 23 31 18 31 18 -17 -5 -18 -5 0 16 0 15 -15 -12 -15 -12 4
-7 3 -6 -19 -17 -18 -18 0 9 0 9 -20 -5 -20 -5 0 11 0 10 -15 -5 -15 -6 0 16
0 16 5 0 6 0 23 -16 24 -15 7 11 6 10 8 -5 8 -4 11 24 12 25 9 0 10 0 6 -10 6
-10 20 0 19 0 0 10 0 10 23 0 22 1 -24 13 -25 14 -21 -14 -20 -13 -15 9 -15
10 -7 0 -8 0 0 -20 0 -19 -20 -11 -20 -11 0 6 0 6 15 29 16 30 -9 0 -8 0 -11
-31z m127 17 l0 -4 -17 -13 -18 -14 14 18 13 17 4 0 4 0 0 -4z m-350 -46 l0
-10 -17 0 -18 0 15 10 15 10 3 0 2 0 0 -10z m0 -70 l0 -10 -4 0 -5 0 -6 10 -6
10 10 0 11 0 0 -10z m100 -16 l0 -5 -10 6 -10 6 0 -10 0 -10 -14 5 -15 6 6 14
5 14 19 -11 19 -10 0 -5z m-68 -3 l7 -1 -6 -16 -6 -15 -16 7 -16 6 -12 1 -13
0 0 13 0 13 28 -3 27 -4 7 -1z m94 -56 l-20 -15 -5 6 -5 5 14 9 15 10 10 0 10
-1 -19 -14z m-166 -171 l0 -15 -10 6 -10 6 0 10 0 9 10 0 10 0 0 -16z"/>
<path d="M366 508 l-17 -28 10 0 11 0 3 3 4 2 16 -14 17 -13 0 15 0 15 -15 6
-15 5 0 -11 0 -11 -5 5 -5 5 6 17 6 16 8 -5 9 -5 6 10 6 10 12 -6 12 -7 -8 8
-7 9 -19 1 -19 1 -16 -28z"/>
<path d="M1 424 l1 -19 5 13 5 13 -6 6 -6 6 1 -19z"/>
<path d="M400 429 l0 -10 11 6 10 7 6 -21 5 -21 8 0 7 0 17 19 17 19 -10 6
-10 6 -6 -10 -6 -10 -19 10 -19 10 -5 0 -6 0 0 -11z"/>
<path d="M888 380 l-16 -18 15 -6 15 -6 9 6 9 5 0 -15 0 -16 15 0 15 0 0 10 0
10 -12 0 -11 0 16 18 17 19 0 9 0 9 -10 -15 -10 -15 0 13 0 12 -17 -1 -18 -1
-17 -18z m47 -8 l-6 -6 -14 -2 -15 -2 0 7 0 8 6 6 6 6 14 -6 15 -5 -6 -6z"/>
<path d="M651 361 l-13 -8 0 -9 -1 -9 -21 2 -21 2 13 -5 12 -6 0 -9 0 -9 -26
0 -25 0 5 -8 5 -9 -34 -31 -35 -30 -13 -5 -12 -5 13 -1 13 -1 -6 -10 -6 -9
-13 5 -14 5 -7 -10 -6 -11 16 0 16 0 -5 -9 -6 -9 -20 5 -20 5 -6 -16 -6 -16
-10 0 -10 0 -20 -25 -19 -25 -17 0 -17 -1 18 -10 18 -11 15 19 15 18 -7 -24
-6 -24 9 6 9 6 20 40 19 41 17 0 17 0 27 38 28 39 28 12 28 13 0 18 0 18 20
-5 21 -6 -3 10 -3 9 29 26 29 25 -9 6 -10 6 -13 -8z m-231 -231 l0 -10 -11 0
-10 0 6 10 6 10 5 0 4 0 0 -10z"/>
<path d="M315 350 l6 -10 -12 -21 -11 -21 12 4 12 4 -4 7 -3 8 18 10 17 10 0
9 0 10 -21 0 -20 0 6 -10z"/>
<path d="M1 334 l1 -19 5 13 5 13 -6 6 -6 6 1 -19z"/>
<path d="M876 333 l-6 -16 6 -6 7 -6 4 13 5 12 10 0 10 0 -12 -15 -12 -15 10
0 10 0 5 8 4 7 -4 -13 -3 -13 11 7 11 6 -11 -21 -12 -21 11 0 10 0 0 -15 0
-16 -12 11 -13 11 -20 14 -20 14 23 -6 22 -5 0 10 0 10 -22 5 -22 6 -5 -5 -5
-5 10 -17 11 -16 -11 -28 -11 -28 14 -22 13 -21 -16 6 -16 6 0 -4 0 -4 30 -15
30 -15 -5 10 -6 9 10 0 11 0 0 -11 0 -10 8 5 8 4 2 30 2 30 -36 6 -35 7 10 13
11 13 -8 9 -7 8 17 -13 18 -13 -5 -9 -5 -8 20 2 21 1 -2 36 -3 36 8 12 8 13
-6 6 -6 6 0 -14 -1 -14 -10 17 -10 18 -18 10 -19 10 -6 -17z m14 -143 l0 -10
-10 0 -10 0 0 10 0 10 10 0 10 0 0 -10z m37 -16 l3 -10 -19 0 -19 0 5 14 5 13
11 -4 11 -3 3 -10z"/>
<path d="M10 300 l0 -10 10 0 10 0 0 10 0 10 -10 0 -10 0 0 -10z"/>
<path d="M5 271 l-5 -10 10 -6 10 -6 0 15 0 16 -4 0 -5 0 -6 -9z"/>
<path d="M234 244 l1 -37 17 -3 16 -2 5 19 5 19 -5 0 -6 0 -12 -17 -12 -16 2
29 3 29 1 5 1 5 11 -15 11 -15 -5 15 -4 15 -15 3 -15 3 1 -37z"/>
<path d="M6 204 l-7 -26 4 -5 5 -4 6 27 7 26 -4 5 -5 4 -6 -27z"/>
<path d="M785 160 l-5 -8 -28 4 -28 5 -18 -20 -17 -19 10 -7 11 -6 1 5 2 6 1
12 1 11 18 3 19 2 -17 -18 -16 -18 16 -6 17 -6 21 0 22 0 -15 10 -15 10 14 0
14 0 14 18 14 17 -11 -22 -11 -23 25 2 25 2 -5 8 -5 8 -11 -6 -11 -7 7 11 7
12 19 -10 19 -10 10 0 11 0 0 12 0 11 -7 -6 -6 -7 -13 11 -12 10 -31 9 -31 9
-5 -9z m-5 -24 l-25 -23 -5 4 -5 4 25 19 25 20 5 0 5 0 -25 -24z"/>
<path d="M647 143 l-7 -6 0 -19 0 -19 9 6 10 5 6 -10 6 -10 27 0 27 1 -20 12
-20 11 -7 2 -8 2 -10 1 -10 1 0 11 0 10 20 -6 20 -6 0 10 0 11 -18 0 -19 0 -6
-7z"/>
<path d="M616 131 l-8 -12 6 -6 6 -6 6 6 6 6 -4 12 -4 13 -8 -13z"/>
<path d="M603 49 l1 -49 9 0 9 0 -5 15 -6 14 7 4 7 4 20 -8 20 -8 -17 0 -18
-1 0 -10 0 -10 13 0 13 0 12 12 12 12 0 -14 0 -13 7 6 6 7 4 34 3 34 -22 7
-23 6 -26 3 -27 3 1 -48z m37 5 l0 -6 -15 12 -15 12 0 10 0 9 15 -15 15 -15 0
-7z m23 6 l-6 -21 -5 5 -4 5 5 16 6 15 5 0 4 0 -5 -20z m18 -17 l-10 -18 -1 7
0 6 6 17 6 16 5 -5 5 -4 -11 -19z"/>
<path d="M303 52 l-18 -27 -14 -11 -15 -11 25 1 24 2 -2 12 -3 12 11 0 11 0
-6 15 -5 15 10 0 10 0 18 -9 17 -10 13 8 13 8 -19 8 -18 8 -17 3 -18 4 -17
-28z"/>
<path d="M326 34 l-6 -17 3 -3 3 -3 11 7 12 8 -8 13 -8 13 -7 -18z"/>
</g>
</svg>
