<?xml version="1.0" standalone="no"?>
<!DOCTYPE svg PUBLIC "-//W3C//DTD SVG 20010904//EN"
 "http://www.w3.org/TR/2001/REC-SVG-20010904/DTD/svg10.dtd">
<svg version="1.0" xmlns="http://www.w3.org/2000/svg"
   viewBox="0 0 267.000000 210.000000"
 preserveAspectRatio="xMidYMid meet">
<metadata>
Created by potrace 1.16, written by Peter Selinger 2001-2019
</metadata>
<g transform="translate(0.000000,210.000000) scale(0.100000,-0.100000)"
fill-opacity="0.2" fill="#9E1A1A" stroke="none">
<path d="M3 1688 l2 -413 68 -3 68 -3 30 32 30 33 18 35 18 36 7 35 6 35 -15
55 -15 55 -36 135 -35 135 3 90 4 90 17 33 18 32 -40 0 -40 0 -4 -17 -5 -18
-1 18 -1 17 -50 0 -49 0 2 -412z m54 370 l-5 -13 0 25 0 25 5 -12 5 -13 -5
-12z m13 -115 l0 -8 -10 -15 -10 -15 0 23 0 22 10 0 10 0 0 -7z m26 -420 l-6
-6 -6 6 -6 6 8 12 8 13 4 -13 4 -12 -6 -6z m24 -117 l0 -5 -10 -6 -10 -6 0 10
0 11 10 0 10 0 0 -4z"/>
<path d="M525 2095 l10 -3 105 -32 105 -32 45 -15 45 -15 53 -8 52 -9 69 17
68 18 56 34 57 34 0 8 0 8 -337 -1 -338 -1 10 -3z m160 -15 l6 -10 -8 0 -8 0
-15 10 -15 10 17 0 17 0 6 -10z m42 -16 l-6 -6 -13 5 -13 5 19 1 19 1 -6 -6z
m358 -14 l-6 -10 -17 0 -17 0 15 10 15 10 8 0 8 0 -6 -10z m-55 -20 l-15 -10
-10 0 -10 0 15 10 15 10 10 0 10 0 -15 -10z m-72 -22 l-37 -10 -28 10 -28 10
65 0 65 0 -37 -10z"/>
<path d="M1736 2084 l-6 -17 -12 -99 -11 -100 -36 6 -36 6 -148 16 -147 15
-20 -11 -20 -11 -4 -22 -4 -22 -13 -75 -12 -75 -2 -15 -2 -15 -8 -61 -7 -62
-8 -12 -7 -12 -69 10 -69 11 -100 6 -100 6 -45 -13 -44 -14 -8 -34 -7 -35 -11
-180 -10 -180 -6 -29 -6 -29 -127 7 -126 7 -82 5 -81 5 -8 -13 -9 -13 -7 -70
-6 -70 -11 -55 -12 -55 -16 -79 -17 -78 -128 7 -128 7 1 -129 2 -128 10 39 11
39 101 -7 100 -6 135 -6 135 -7 19 22 20 22 -14 117 -14 117 2 74 2 75 4 3 3
4 99 -16 99 -15 60 -4 60 -4 71 5 71 6 7 141 6 141 12 127 11 126 23 -8 23 -9
195 -6 196 -5 5 22 5 23 4 149 5 149 3 1 3 2 155 -7 155 -8 36 -5 37 -6 23 19
23 18 7 119 7 119 1 44 1 44 78 -8 77 -7 85 -3 85 -2 76 -7 77 -8 7 12 7 11
-7 39 -7 40 -328 0 -328 0 -6 -16z"/>
<path d="M2530 1730 l0 -5 -32 -14 -33 -15 -34 -30 -34 -31 -24 -24 -23 -24 0
-10 0 -10 55 53 56 52 19 -5 20 -5 6 9 5 9 -18 1 -18 0 40 19 40 19 23 0 22 1
0 -10 0 -10 11 0 11 0 -12 15 -12 15 6 0 7 0 29 -15 30 -16 0 10 0 10 -18 10
-18 10 -52 -2 -52 -2 0 -5z"/>
<path d="M2534 1682 l6 -10 -12 -5 -13 -5 12 -1 12 -1 6 9 5 10 -11 7 -12 7 7
-11z"/>
<path d="M2555 1650 l-6 -10 15 -6 16 -6 16 6 15 6 -6 10 -6 10 -19 0 -19 0
-6 -10z"/>
<path d="M2510 1630 l15 -10 8 0 7 0 0 10 0 10 -22 0 -23 0 15 -10z"/>
<path d="M2425 1600 l6 -10 10 0 10 0 -6 10 -6 10 -10 0 -10 0 6 -10z"/>
<path d="M2510 1576 l0 -25 10 -6 9 -6 7 25 6 25 31 4 32 4 -47 1 -48 2 0 -24z"/>
<path d="M2620 1556 l0 -16 10 0 10 0 0 9 0 10 -10 6 -10 6 0 -15z"/>
<path d="M2477 1553 l-7 -6 0 -19 0 -18 10 0 10 0 0 25 0 25 -3 0 -4 0 -6 -7z"/>
<path d="M2325 1540 l-6 -10 10 0 11 0 0 10 0 10 -4 0 -5 0 -6 -10z"/>
<path d="M2373 1516 l0 -14 14 5 13 5 -6 9 -5 9 -8 0 -8 0 0 -14z"/>
<path d="M2500 1495 l0 -15 10 0 10 0 0 15 0 15 -10 0 -10 0 0 -15z"/>
<path d="M2370 1460 l0 -20 4 0 4 0 5 20 5 20 -9 0 -9 0 0 -20z"/>
<path d="M2410 1471 l0 -10 10 -6 10 -6 0 15 0 16 -10 0 -10 0 0 -9z"/>
<path d="M2450 1460 l0 -20 10 0 10 0 0 20 0 20 -10 0 -10 0 0 -20z"/>
<path d="M2318 1433 l13 -5 6 6 6 6 -19 -1 -19 -1 13 -5z"/>
<path d="M2490 1420 l0 -10 10 0 10 0 0 10 0 10 -10 0 -10 0 0 -10z"/>
<path d="M2455 1391 l5 -10 -17 0 -18 0 -40 -9 -40 -10 5 -2 5 -2 16 -3 17 -3
35 -38 36 -39 -30 -3 -29 -3 0 -7 0 -8 20 -14 20 -14 0 -18 0 -18 11 0 11 0
-4 29 -4 30 7 -5 7 -4 15 15 16 15 28 1 28 0 -20 9 -20 9 -27 0 -28 1 0 46 0
45 10 -6 10 -6 -6 15 -6 16 -10 0 -9 0 6 -9z"/>
<path d="M2527 1386 l-7 -19 5 -5 5 -5 6 6 6 5 -4 19 -4 18 -7 -19z"/>
<path d="M2616 1375 l-6 -17 0 -5 0 -5 16 6 15 6 -6 -9 -5 -10 9 -5 10 -6 7
11 6 11 -19 20 -20 20 -7 -17z"/>
<path d="M2326 1280 l-9 -85 1 -29 1 -29 12 -11 11 -11 -6 37 -7 38 9 17 9 18
-6 70 -7 70 -8 -85z"/>
<path d="M2278 1305 l-3 -50 -12 26 -11 26 -24 6 -23 7 -53 0 -54 0 -43 -31
-42 -30 -20 -27 -20 -28 -5 -39 -5 -40 9 -80 8 -80 15 -52 15 -53 1 -59 1 -59
-23 -31 -23 -31 -33 -20 -33 -19 -40 -11 -41 -11 -57 11 -57 10 -66 34 -66 35
-89 15 -89 16 -46 0 -46 0 -43 -15 -43 -15 -41 -34 -41 -34 -13 -38 -13 -39
-8 -43 -8 -42 -6 -7 -7 -6 0 11 0 12 -11 0 -10 0 6 -10 6 -10 -20 0 -21 0 0
11 0 11 -34 -21 -33 -21 -15 0 -15 0 -41 -30 -42 -30 -10 0 -10 0 0 -10 0 -10
-24 -10 -24 -9 -48 -71 -47 -71 -6 -75 -7 -74 7 0 7 0 6 -24 6 -23 32 -7 32
-6 5 8 6 8 128 -6 129 -5 4 7 4 7 -10 6 -10 6 0 10 0 9 78 -2 77 -2 -70 -6
-70 -6 5 -3 5 -3 108 -3 107 -3 0 8 0 9 -42 4 -43 4 138 1 137 2 0 -10 0 -9
45 1 45 1 0 8 0 9 35 0 35 0 0 -12 0 -13 9 14 9 13 6 -11 7 -11 -6 -10 -6 -10
48 -1 48 -1 42 -3 42 -3 5 14 5 14 38 -1 38 0 -20 -8 -20 -9 63 -3 62 -4 0 8
0 7 49 0 48 0 32 6 31 7 0 6 0 7 -92 -2 -93 -1 80 6 80 6 -13 8 -13 9 -25 -6
-24 -7 12 20 12 19 20 -14 20 -14 23 0 23 0 0 16 0 16 14 -11 13 -11 17 6 16
6 0 -11 0 -11 -23 0 -23 0 -1 -20 -2 -20 25 0 24 0 0 -12 0 -13 10 15 9 14 75
0 76 0 0 8 0 8 -12 1 -13 2 35 7 35 7 -32 2 -31 1 -5 13 -5 12 -10 -14 -10
-14 -16 16 -16 16 0 8 0 9 40 -4 40 -4 0 -15 0 -15 18 7 17 7 18 5 17 5 13
-10 12 -9 25 3 25 4 13 5 13 5 -6 11 -7 10 -13 -5 -14 -5 -3 8 -3 8 -22 7 -23
7 0 -11 0 -10 -27 6 -28 6 -30 1 -30 1 -7 10 -8 11 0 7 0 7 24 -5 23 -4 7 38
6 37 0 38 0 37 11 0 10 0 -6 10 -6 9 -15 -6 -15 -6 7 -55 7 -55 -14 5 -14 5 3
21 3 22 -10 17 -10 18 -1 -38 0 -38 -11 6 -10 7 6 39 7 39 -10 0 -11 0 -3 -23
-3 -22 -22 -10 -23 -10 0 -7 0 -8 -40 0 -40 0 0 9 0 9 16 6 16 6 25 0 24 0 -3
18 -3 17 -33 0 -32 -1 0 9 0 9 20 -5 20 -5 5 8 5 9 -10 6 -10 6 0 10 0 9 20 0
20 0 0 -30 0 -30 20 0 20 0 2 18 1 17 1 32 1 33 -6 0 -7 0 -6 -15 -5 -15 -14
6 -14 5 -49 -11 -49 -11 -17 -16 -18 -16 -38 10 -37 10 -95 -4 -95 -4 -25 2
-25 2 -55 0 -55 0 -55 -5 -55 -6 40 8 40 7 -18 1 -18 2 7 13 8 12 -19 -15 -18
-15 -5 13 -4 13 -14 -12 -14 -11 0 11 0 11 -11 0 -10 0 6 -10 6 -10 -10 0 -11
0 0 16 0 16 -15 -12 -15 -12 0 11 0 11 -16 0 -15 0 7 -12 7 -11 -10 6 -10 6
-32 -9 -32 -9 4 12 4 12 14 -3 14 -4 -8 8 -7 7 -45 3 -46 2 6 -22 6 -21 -11
17 -11 18 -14 0 -15 0 0 10 0 10 -15 0 -15 0 0 -10 0 -10 10 0 10 0 0 -9 0 -9
-19 -5 -19 -5 -12 8 -12 7 4 24 3 24 -32 3 -33 3 0 9 0 9 -17 -6 -16 -6 7 11
6 11 -22 3 -23 3 -3 20 -4 20 14 -17 13 -17 106 -25 105 -26 85 -4 84 -4 85
-10 85 -10 167 -13 167 -13 83 16 83 17 43 9 43 9 13 18 13 18 11 -19 12 -19
-6 30 -6 30 21 24 20 23 15 46 15 47 3 108 3 107 -6 0 -6 0 -7 49 -6 49 -31
151 -30 152 7 11 7 11 -11 -7 -12 -7 0 8 0 8 9 32 9 32 -8 28 -8 28 -4 -50z
m-188 -69 l0 -5 -10 -6 -10 -6 0 10 0 11 10 0 10 0 0 -4z m-60 -266 l0 -10
-11 0 -10 0 6 10 6 10 5 0 4 0 0 -10z m265 -50 l-7 -22 -5 5 -5 5 7 22 7 22 5
-5 5 -5 -7 -22z m-231 -106 l3 -34 -11 0 -11 0 -2 53 -2 52 10 -18 11 -18 2
-35z m-618 -151 l-6 -6 -6 6 -6 6 8 12 8 13 4 -13 4 -12 -6 -6z m21 5 l-5 -13
-1 19 -1 19 6 -6 6 -6 -5 -13z m-117 -18 l0 -9 -15 5 -15 6 0 4 0 4 15 0 15 0
0 -10z m-167 -35 l-5 -16 -5 5 -5 5 7 10 6 11 4 0 4 0 -6 -15z m415 4 l-3 -10
-8 0 -7 1 -22 1 -23 1 25 8 25 8 8 1 9 1 -4 -11z m-388 -35 l0 -15 -10 6 -10
6 5 10 6 9 5 0 4 0 0 -16z m206 -9 l-20 -15 -25 0 -26 0 15 9 14 10 7 -5 8 -4
6 10 6 10 17 0 17 -1 -19 -14z m390 -5 l25 0 -6 -10 -6 -10 -29 0 -29 0 -6 10
-6 10 -10 -5 -9 -6 0 15 0 16 26 -10 25 -10 25 0z m-320 -5 l29 -15 -22 0 -21
0 -16 6 -16 6 0 9 0 9 9 0 9 0 28 -15z m771 -7 l-5 -13 -1 19 -1 19 6 -6 6 -6
-5 -13z m-1087 8 l0 -5 -9 -6 -10 -5 -6 10 -6 10 15 0 16 0 0 -4z m498 -31
l22 0 0 -7 0 -7 -52 4 -53 4 -3 1 -3 0 6 10 6 10 27 -7 27 -7 23 -1z m285 -49
l17 6 0 -10 0 -10 -16 -6 -16 -6 -13 0 -13 0 5 21 6 21 7 -11 7 -12 16 7z
m-873 -48 l0 -8 -15 0 -15 0 -1 -12 -1 -13 1 -7 1 -8 -20 0 -19 0 -10 -17 -9
-18 -7 7 -7 7 5 16 6 15 21 0 21 0 -2 18 -1 17 1 6 1 7 25 -2 25 -1 0 -7z
m-135 -51 l-13 -7 -16 6 -17 6 18 13 17 12 12 -11 12 -11 -13 -8z m155 -4 l0
-18 -8 10 -7 10 -9 8 -9 7 16 0 17 0 0 -17z m117 11 l-6 -6 -13 5 -13 5 19 1
19 1 -6 -6z m-62 -14 l6 -10 -8 0 -8 0 -15 10 -15 10 17 0 17 0 6 -10z m-270
-33 l-15 -8 -9 6 -10 5 -13 -18 -13 -18 -19 -8 -20 -7 17 19 17 19 0 12 0 13
15 -6 16 -6 5 15 6 14 19 -12 18 -11 -14 -9z m260 13 l6 -10 -10 0 -10 0 -6
10 -6 10 10 0 10 0 6 -10z m189 -29 l17 -19 -10 -7 -11 -6 0 15 0 16 -15 0
-15 0 0 10 0 10 8 0 9 0 17 -19z m-317 -13 l-5 -13 -1 19 -1 19 6 -6 6 -6 -5
-13z m218 12 l6 -10 -10 0 -11 0 0 10 0 10 4 0 5 0 6 -10z m-366 -26 l7 5 14
-10 15 -9 -17 0 -18 0 -1 -12 0 -13 -9 20 -9 20 1 15 0 15 5 -18 5 -17 7 4z
m920 22 l-4 -3 -48 -6 -48 -7 6 10 6 10 46 0 46 0 -4 -4z m146 -6 l6 -10 -10
0 -11 0 0 10 0 10 4 0 5 0 6 -10z m-515 -20 l0 -10 -10 0 -10 0 0 10 0 10 10
0 10 0 0 -10z m340 6 l0 -5 -10 -6 -10 -6 0 10 0 11 10 0 10 0 0 -4z m-755
-43 l5 -32 -10 -6 -10 -6 -6 15 -6 16 6 26 7 26 4 -4 4 -4 6 -31z m88 30 l-13
-5 -12 5 -13 5 25 0 25 0 -12 -5z m1072 -20 l5 -16 -3 -4 -4 -3 -28 14 -29 15
-8 -5 -8 -5 0 10 0 9 12 4 12 4 22 -4 23 -4 6 -15z m-984 0 l14 -16 -25 6 -25
7 -18 0 -18 0 6 10 6 10 23 0 24 0 13 -17z m63 11 l16 -6 0 -14 0 -14 -6 0 -5
0 -15 14 -14 15 0 5 0 6 4 0 4 0 16 -6z m384 -1 l-18 -4 -17 4 -18 5 35 0 35
0 -17 -5z m-238 -7 l0 -5 -10 -6 -10 -6 0 10 0 11 10 0 10 0 0 -4z m620 -11
l0 -4 -9 -5 -9 -6 -5 15 -6 14 15 -6 14 -5 0 -3z m-1246 -8 l-5 -14 23 -11 23
-11 -16 0 -17 -1 -12 15 -12 14 7 11 6 10 4 0 4 0 -5 -13z m183 -9 l-5 -13 -1
19 -1 19 6 -6 6 -6 -5 -13z m553 12 l0 -10 -4 0 -5 0 -6 10 -6 10 10 0 11 0 0
-10z m457 -26 l-6 -6 -18 7 -18 7 13 5 12 5 -6 11 -7 12 18 -17 19 -18 -7 -6z
m-839 9 l-18 -4 0 -11 0 -11 -6 6 -6 6 7 10 6 11 17 -1 17 -1 -17 -5z m772 -1
l0 -9 -15 0 -15 0 0 9 0 8 15 0 15 0 0 -8z m213 -3 l32 -2 -25 -4 -25 -5 -12
-10 -13 -10 0 11 0 11 -20 -12 -19 -12 -8 8 -8 8 20 14 19 14 14 -5 14 -5 31
-1z m-923 -9 l0 -10 -9 0 -10 0 -6 10 -6 10 15 0 16 0 0 -10z m-240 -45 l0
-25 -9 0 -10 0 5 25 4 25 -15 0 -15 0 0 10 0 11 20 -11 20 -11 0 -24z m105 36
l-5 -10 16 -9 16 -9 -16 -6 -17 -7 6 10 6 10 -15 0 -16 0 0 8 0 9 7 6 6 7 9 0
9 0 -6 -9z m30 -1 l6 -10 -10 0 -11 0 0 10 0 10 4 0 5 0 6 -10z m213 -7 l-15
-18 -10 -19 -11 -19 -26 28 -26 28 0 8 0 9 52 0 51 0 -15 -17z m1032 3 l0 -15
-10 -6 -10 -6 0 20 0 21 10 0 10 0 0 -14z m-1574 -7 l7 -11 -14 -9 -14 -8 20
-16 20 -15 32 5 31 6 6 -10 6 -9 -30 -7 -30 -7 0 -24 0 -24 12 0 11 0 -5 -5
-5 -5 -17 6 -16 6 5 9 6 8 -7 26 -6 25 -18 0 -18 0 -13 17 -14 16 13 4 12 5 0
14 0 14 9 0 10 0 7 -11z m104 -9 l0 -10 -14 0 -15 0 -6 10 -6 10 20 0 21 0 0
-10z m705 -17 l17 -16 9 14 9 14 0 -18 0 -18 20 6 20 6 0 -9 0 -10 -26 -5 -25
-4 -14 13 -14 14 -14 0 -15 0 -5 -12 -4 -13 -7 7 -8 6 19 20 18 20 2 1 2 1 16
-17z m-758 -20 l-6 -5 -11 7 -12 8 13 8 14 8 4 -10 3 -10 -5 -6z m310 5 l-5
-13 -1 19 -1 19 6 -6 6 -6 -5 -13z m1184 8 l9 5 0 -9 0 -10 -16 -6 -16 -6 -9
6 -10 6 13 15 12 15 4 -11 4 -11 9 6z m-1073 -26 l12 -19 -9 -5 -9 -6 -6 15
-5 15 -21 0 -20 0 0 -15 0 -15 -14 0 -14 0 -6 15 -5 15 14 0 15 0 0 9 0 10 18
3 17 4 10 -3 10 -3 13 -20z m961 9 l-13 -8 -4 4 -4 4 7 10 6 11 11 -6 10 -6
-13 -9z m-486 -21 l-5 -9 -14 12 -14 11 0 9 0 9 19 -12 20 -12 -6 -8z m-257
-24 l0 -30 8 -12 7 -12 -118 1 -118 2 26 4 27 4 7 22 8 22 4 -22 4 -23 10 0 9
0 0 19 0 20 10 6 10 6 0 -25 0 -26 19 0 19 0 -4 23 -5 22 12 -22 12 -23 19 0
19 0 -6 41 -6 41 13 -4 13 -5 1 -29z m321 30 l-6 -6 -13 5 -13 5 19 1 19 1 -6
-6z m126 -1 l-13 -5 -17 5 -18 5 30 0 30 0 -12 -5z m324 -15 l-5 -13 -1 19 -1
19 6 -6 6 -6 -5 -13z m-1489 -45 l1 -38 -11 22 -11 22 6 15 6 16 4 0 3 0 2
-37z m942 19 l0 -17 -20 -13 -20 -12 0 4 0 5 10 25 10 26 10 0 10 0 0 -18z
m336 4 l-3 -11 -14 4 -14 3 -28 4 -28 4 5 -8 5 -9 -12 0 -12 -1 -58 -5 -58 -6
-12 -9 -12 -10 -18 12 -17 13 0 13 0 12 78 -5 77 -5 20 8 20 9 43 -1 42 -2 -4
-10z m-293 -11 l2 -10 -17 -3 -18 -3 0 16 0 16 16 -3 15 -3 2 -10z m-724 -20
l16 -17 -55 3 -55 2 -33 -1 -33 -2 6 -10 6 -10 -23 -1 -23 -1 -19 2 -18 2 6
-11 7 -11 -15 0 -15 0 -6 10 -6 9 28 8 28 7 -25 8 -25 8 37 -4 38 -5 10 17 9
17 1 -7 0 -6 28 8 27 7 44 -3 44 -3 16 -16z m204 5 l-5 -20 -8 0 -8 0 5 20 5
20 8 0 8 0 -5 -20z m1050 -5 l-5 -15 18 -1 19 0 -20 -8 -20 -8 -6 3 -6 4 4 25
5 25 9 -5 8 -6 -6 -14z m-1118 -5 l6 -10 -43 1 -43 2 35 7 35 7 2 2 2 1 6 -10z
m489 1 l-5 -5 -17 -2 -17 -3 -47 -5 -48 -5 0 8 0 8 4 4 5 4 65 0 65 1 -5 -5z
m76 -11 l0 -10 -15 0 -15 0 0 10 0 10 15 0 15 0 0 -10z m44 -6 l6 -16 53 4 52
5 -22 -4 -23 -4 0 -8 0 -7 -50 -1 -50 -2 4 22 5 22 0 3 1 2 9 0 9 0 6 -16z
m99 9 l-13 -5 -12 5 -13 5 25 0 25 0 -12 -5z m64 1 l-6 -6 -13 5 -13 5 19 1
19 1 -6 -6z m-1003 -29 l-6 -15 -9 0 -9 0 0 15 0 15 15 0 14 0 -5 -15z m81 8
l-20 -5 -7 -12 -7 -11 -18 18 -17 17 44 -1 45 -1 -20 -5z m700 -13 l6 -10 -10
0 -11 0 0 10 0 10 4 0 5 0 6 -10z"/>
<path d="M2308 1305 l-3 -45 7 0 8 0 0 45 0 45 -4 0 -4 0 -4 -45z"/>
<path d="M2603 1235 l0 -40 4 23 4 22 -4 18 -5 17 1 -40z"/>
<path d="M2634 1243 l-6 -28 -3 -12 -4 -11 13 -5 12 -5 3 44 2 44 -5 0 -6 0
-6 -27z"/>
<path d="M2525 1230 l-6 -10 10 0 11 0 0 10 0 10 -4 0 -5 0 -6 -10z"/>
<path d="M2572 1210 l0 -25 5 13 5 12 -5 13 -5 12 0 -25z"/>
<path d="M2373 1163 l2 -51 -7 5 -8 4 -1 17 0 17 -8 -19 -8 -20 5 -23 4 -23 9
0 9 0 1 18 1 17 8 -30 8 -30 2 25 2 25 -1 8 -2 9 13 -4 13 -5 3 -29 4 -29 8
-8 8 -9 7 31 6 31 -6 20 -6 20 11 0 11 0 -16 30 -16 30 -23 0 -24 0 -6 13 -6
12 3 -52z m27 -8 l0 -14 -10 -6 -10 -6 0 26 0 26 10 -6 10 -6 0 -14z"/>
<path d="M2490 1201 l0 -10 10 -6 10 -6 0 10 0 10 -10 6 -10 6 0 -10z"/>
<path d="M2351 1174 l1 -19 5 13 5 13 -6 6 -6 6 1 -19z"/>
<path d="M2484 1114 l6 -15 -9 6 -10 5 -6 -10 -6 -9 36 1 37 1 9 -14 9 -14 0
18 0 17 -10 0 -10 0 0 15 0 15 -26 0 -26 0 6 -16z"/>
<path d="M2321 1094 l1 -19 5 13 5 13 -6 6 -6 6 1 -19z"/>
<path d="M2570 1094 l0 -15 10 6 10 6 0 10 0 9 -10 0 -10 0 0 -16z"/>
<path d="M2610 1101 l0 -10 10 -6 10 -6 0 15 0 16 -10 0 -10 0 0 -9z"/>
<path d="M2341 1055 l-1 -10 14 -40 14 -40 19 0 18 0 11 -7 11 -7 -5 -29 -4
-30 11 -6 11 -7 0 20 0 21 20 0 20 0 0 14 0 14 -12 5 -13 5 19 14 18 15 -6 21
-7 22 -10 0 -9 0 0 -9 0 -8 -39 -7 -40 -6 -4 -18 -5 -17 -1 33 -1 32 -9 0 -10
0 -4 18 -5 17 -1 -10z"/>
<path d="M2527 1006 l18 -24 3 3 4 3 -7 21 -6 21 -15 0 -15 0 18 -24z"/>
<path d="M2580 1015 l0 -15 9 0 9 0 12 15 12 15 -21 0 -21 0 0 -15z"/>
<path d="M2585 971 l-5 -10 10 -6 10 -6 0 15 0 16 -4 0 -5 0 -6 -9z"/>
<path d="M2390 915 l0 -35 -12 0 -13 0 14 -9 13 -9 -6 -23 -7 -24 10 16 10 15
7 52 7 52 -12 0 -11 0 0 -35z"/>
<path d="M2361 914 l1 -19 5 13 5 13 -6 6 -6 6 1 -19z"/>
<path d="M2453 878 l6 -17 -8 -28 -8 -28 7 -53 7 -53 -15 6 -14 5 -9 0 -9 0 0
38 0 37 -9 14 -9 14 -3 -56 -4 -56 23 -6 22 -5 0 -10 0 -10 15 0 15 0 0 -17 0
-17 12 12 12 12 -11 11 -12 12 14 13 14 14 15 0 16 0 0 19 0 20 -10 6 -10 6 1
-8 1 -8 -1 -12 -1 -13 -9 0 -9 0 -6 35 -7 35 -9 0 -10 0 0 11 0 10 9 -5 9 -6
4 29 4 29 -14 18 -15 19 6 -17z"/>
<path d="M2416 855 l-6 -17 1 -26 1 -27 8 40 8 40 -3 3 -3 3 -6 -16z"/>
<path d="M2602 830 l0 -25 5 13 5 12 -5 13 -5 12 0 -25z"/>
<path d="M2497 826 l-7 -18 0 -9 0 -9 15 0 15 0 -1 8 0 7 -8 19 -8 20 -6 -18z"/>
<path d="M2650 810 l0 -10 10 0 10 0 0 10 0 10 -10 0 -10 0 0 -10z"/>
<path d="M2500 674 l0 -15 10 6 10 6 0 10 0 9 -10 0 -10 0 0 -16z"/>
<path d="M2500 640 l0 -10 16 0 15 0 -6 10 -6 10 -10 0 -9 0 0 -10z"/>
<path d="M2411 614 l1 -19 5 13 5 13 -6 6 -6 6 1 -19z"/>
<path d="M2450 608 l0 -18 -10 0 -10 0 6 -35 5 -35 -10 0 -11 0 0 15 0 15 -10
0 -10 0 0 -11 0 -10 13 -13 12 -13 13 5 12 4 0 -21 0 -20 11 -6 10 -7 4 4 4 4
-14 28 -15 28 0 5 0 4 9 -5 9 -6 6 15 5 15 11 0 10 0 0 -33 0 -33 20 -22 20
-21 0 -11 0 -10 20 12 20 13 0 11 0 12 -15 6 -15 5 0 26 0 25 -11 -2 -11 -3
-5 13 -5 12 17 0 17 0 -6 16 -6 16 0 4 0 4 -19 0 -19 0 -11 13 -11 14 5 4 4 5
-19 0 -20 0 0 -18z m17 -43 l0 -15 -9 0 -8 0 0 15 0 15 8 0 9 0 0 -15z m69
-92 l-6 -6 -6 6 -6 6 8 12 8 13 4 -13 4 -12 -6 -6z"/>
<path d="M2574 617 l6 -19 0 -29 0 -29 9 0 9 0 5 28 6 27 -21 20 -21 20 7 -18z"/>
<path d="M2641 573 l0 -28 9 -20 9 -20 0 48 1 47 -10 0 -10 0 1 -27z"/>
<path d="M2376 555 l-7 -26 6 -9 6 -10 -10 0 -10 0 2 -20 1 -20 8 0 8 0 1 18
0 17 4 38 4 37 -3 0 -4 0 -6 -25z"/>
<path d="M2584 514 l6 -16 0 -26 1 -27 10 17 10 17 -7 26 -6 25 -10 0 -10 0 6
-16z"/>
<path d="M2390 486 l0 -16 10 0 10 0 0 9 0 10 -10 6 -10 6 0 -15z"/>
<path d="M2332 459 l-14 -21 11 -11 11 -11 6 6 6 6 -4 26 -3 27 -13 -22z"/>
<path d="M2490 430 l0 -20 10 0 10 0 0 20 0 20 -10 0 -10 0 0 -20z"/>
<path d="M2340 355 l0 -47 13 4 12 5 3 30 3 30 -15 13 -16 12 0 -47z"/>
<path d="M2390 379 l0 -10 10 6 10 6 0 5 0 4 -10 0 -10 0 0 -11z"/>
<path d="M2611 374 l1 -19 5 13 5 13 -6 6 -6 6 1 -19z"/>
<path d="M2501 350 l0 -35 10 18 10 17 -10 18 -10 17 0 -35z"/>
<path d="M1658 353 l13 -5 6 6 6 6 -19 -1 -19 -1 13 -5z"/>
<path d="M2093 338 l29 -10 9 9 9 9 -37 1 -38 0 28 -9z"/>
<path d="M2527 328 l-6 -16 12 -5 12 -4 13 4 12 5 0 14 0 14 -10 0 -10 0 -1
-17 0 -18 -8 19 -8 20 -6 -16z"/>
<path d="M2590 326 l0 -16 10 0 10 0 0 9 0 10 -10 6 -10 6 0 -15z"/>
<path d="M2429 305 l-5 -10 -3 -32 -3 -33 11 0 11 0 0 -14 0 -14 16 -6 16 -6
4 0 4 0 -2 28 -2 27 -5 9 -4 10 -7 -20 -7 -19 -10 45 -9 45 -5 -10z"/>
<path d="M2462 290 l0 -25 5 13 5 12 -5 13 -5 12 0 -25z"/>
<path d="M2510 264 l0 -24 4 0 4 0 15 23 15 23 -19 1 -19 2 0 -25z"/>
<path d="M2594 251 l6 -9 -12 -5 -13 -5 23 -23 22 -23 0 12 0 12 -10 0 -10 0
0 10 0 10 21 0 20 0 -15 15 -15 15 -11 0 -11 0 5 -9z"/>
<path d="M2488 223 l12 -5 13 5 12 5 -25 0 -25 0 13 -5z"/>
<path d="M2527 214 l-6 -7 5 -8 5 -9 10 0 9 0 0 15 0 15 -8 0 -9 0 -6 -6z"/>
<path d="M2485 180 l-6 -10 15 0 16 0 0 10 0 10 -9 0 -10 0 -6 -10z"/>
<path d="M2562 174 l-9 -17 4 -18 5 -19 19 0 19 0 0 15 0 15 -17 0 -17 0 12
12 12 12 0 8 0 8 -10 0 -9 0 -9 -16z"/>
<path d="M2615 150 l6 -10 17 0 17 0 -15 10 -15 10 -8 0 -8 0 6 -10z"/>
<path d="M2438 63 l13 -5 6 6 6 6 -19 -1 -19 -1 13 -5z"/>
<path d="M2480 30 l0 -20 14 0 14 0 -5 20 -5 20 -9 0 -9 0 0 -20z"/>
<path d="M1291 35 l5 -4 54 -4 55 -4 -2 -11 -3 -12 25 0 25 0 0 14 0 14 -16 6
-16 6 -65 0 -66 0 4 -5z"/>
<path d="M2275 20 l6 -10 10 0 9 0 0 10 0 10 -16 0 -15 0 6 -10z"/>
<path d="M2648 23 l13 -5 6 6 6 6 -19 -1 -19 -1 13 -5z"/>
<path d="M1518 13 l13 -5 6 6 6 6 -19 -1 -19 -1 13 -5z"/>
<path d="M2408 13 l22 -4 18 4 17 5 -40 -1 -40 0 23 -4z"/>
<path d="M1368 3 l13 -5 6 6 6 6 -19 -1 -19 -1 13 -5z"/>
<path d="M1568 3 l13 -5 6 6 6 6 -19 -1 -19 -1 13 -5z"/>
</g>
</svg>
