<?xml version="1.0" standalone="no"?>
<!DOCTYPE svg PUBLIC "-//W3C//DTD SVG 20010904//EN"
 "http://www.w3.org/TR/2001/REC-SVG-20010904/DTD/svg10.dtd">
<svg version="1.0" xmlns="http://www.w3.org/2000/svg"
   viewBox="0 0 322.000000 506.000000"
 preserveAspectRatio="xMidYMid meet">
<metadata>
Created by potrace 1.16, written by Peter Selinger 2001-2019
</metadata>
<g transform="translate(0.000000,506.000000) scale(0.100000,-0.100000)"
fill="#9E1A1A" stroke="none">
<path d="M1180 5059 l0 -4 -6 -220 -6 -220 15 -210 15 -210 1 -45 1 -45 11
-93 11 -94 -4 -4 -4 -3 -105 -5 -104 -5 -140 -6 -140 -5 -97 -12 -97 -12 6
-10 6 -11 -14 13 -13 12 -9 0 -8 0 7 -12 7 -11 -12 8 -13 7 -59 -12 -59 -13 0
-16 0 -16 13 -55 12 -55 -3 -32 -3 -33 -18 0 -18 0 -6 78 -6 77 -7 42 -6 41
48 6 49 6 105 16 105 15 218 9 218 9 8 5 7 5 42 2 42 3 0 40 -1 41 -9 105 -9
105 -8 145 -8 145 1 115 1 115 8 128 8 127 -15 0 -15 0 -1 -112 -1 -113 -1
-170 -1 -170 10 -145 11 -145 6 -96 7 -96 -29 -6 -29 -7 -240 -10 -240 -10
-70 -10 -70 -9 -82 -12 -83 -11 0 -13 0 -12 15 -99 15 -99 0 -17 0 -18 -17 0
-18 0 -1 43 -1 44 -19 97 -18 97 15 9 14 10 15 -5 15 -5 80 10 80 9 80 10 80
10 150 6 150 6 70 9 70 9 18 1 17 0 0 64 0 63 -14 84 -15 84 -11 212 -12 213
11 67 12 68 -3 47 -3 48 -10 3 -10 3 -88 -11 -89 -10 9 -10 8 -9 -16 12 -16
12 -316 2 -317 3 0 8 0 7 -40 0 -40 0 0 50 0 50 -11 0 -10 0 3 -62 3 -62 34
-7 35 -7 275 -3 276 -3 95 0 95 -1 52 9 52 8 7 -26 6 -26 -12 -82 -12 -83 11
-215 11 -215 15 -95 15 -95 0 -37 0 -38 -7 0 -8 0 -85 -10 -85 -9 -175 -5
-175 -6 -30 -7 -30 -7 -58 1 -57 1 4 -6 4 -7 -54 3 -55 4 -25 -6 -24 -6 0 -16
0 -15 9 5 8 5 -4 -23 -5 -24 21 -109 21 -110 0 -20 0 -20 -81 -8 -81 -7 -8 9
-8 8 -12 115 -12 115 -7 98 -6 99 10 7 10 8 65 11 65 11 84 6 83 5 7 4 6 4 95
7 95 6 37 10 36 9 127 3 127 2 -6 57 -7 56 -6 24 -5 23 -2 230 -2 230 -2 6 -2
7 -62 -13 -63 -13 -40 -11 -40 -10 -90 -5 -90 -5 -88 0 -88 -1 4 -7 5 -8 -77
-2 -76 -3 -20 -4 -20 -4 -23 -1 -23 -1 5 -8 5 -8 -29 4 -30 4 -11 42 -11 41
-3 125 -3 125 -2 20 -3 20 -6 -43 -7 -42 2 -113 3 -112 5 -39 6 -40 8 -8 9 -9
94 15 94 15 115 10 115 10 121 6 122 5 48 14 49 14 43 7 42 7 -1 -209 -1 -208
11 -74 11 -73 5 -8 5 -8 -128 -7 -127 -7 -40 -8 -40 -8 -100 -7 -100 -7 -5 -3
-5 -3 -80 -6 -80 -6 -48 -6 -47 -6 4 -7 5 -7 -27 1 -27 0 0 -110 0 -110 13
-112 13 -111 8 -28 7 -28 40 -1 39 -1 55 8 55 7 230 20 230 21 65 6 65 5 90 9
90 9 95 6 95 5 100 11 100 11 13 1 13 2 2 436 2 436 13 -4 12 -5 0 -13 0 -12
25 5 25 4 -7 11 -6 10 10 -6 11 -7 53 9 54 10 65 5 65 6 220 10 220 10 80 10
80 10 255 0 255 1 70 -5 69 -4 4 -11 4 -11 6 4 7 4 -3 -49 -4 -49 9 0 8 0 -3
-81 -4 -81 9 5 8 5 -2 -84 -2 -84 7 0 7 0 1 -63 2 -62 10 -100 10 -100 -12 -8
-11 -7 -55 1 -55 1 -157 -6 -156 -6 -114 -5 -113 -6 -92 -2 -92 -2 -12 -12
-12 -12 19 -152 19 -153 25 -1 25 -1 95 7 95 7 105 6 105 7 173 3 172 3 7 6 6
7 7 0 8 0 8 -77 8 -78 1 -205 2 -205 7 -122 7 -123 -160 0 -161 0 -2 1 -3 0
-30 -11 -30 -12 -150 -4 -150 -3 -185 -5 -185 -5 -120 -10 -120 -11 -136 0
-135 0 -28 148 -27 147 -4 109 -5 109 -5 6 -6 5 -7 -10 -7 -11 -120 -6 -120
-7 -95 -6 -95 -5 -110 -10 -110 -10 -110 -9 -110 -9 -103 0 -103 -1 -17 -9
-17 -9 -135 -12 -135 -11 -24 -6 -23 -6 6 -101 7 -101 14 -75 14 -75 3 -30 3
-30 60 -6 60 -7 290 0 290 -1 120 13 120 12 7 -10 8 -11 0 -50 0 -50 14 -95
14 -95 7 -82 7 -83 -13 -5 -14 -5 -360 -9 -360 -10 -60 -15 -60 -15 -36 -6
-37 -6 -5 -22 -6 -22 -7 -172 -7 -173 64 -1 64 -2 15 1 15 0 60 7 60 7 560 -1
560 0 56 -5 57 -6 6 44 7 43 -10 44 -9 44 -7 95 -6 95 -9 40 -8 40 -4 150 -3
150 25 -2 25 -2 250 19 250 19 175 11 175 11 100 16 100 16 175 -8 175 -7 45
1 46 2 0 -384 0 -384 -151 -23 -150 -23 -160 -16 -160 -16 -3 -117 -4 -118 58
0 59 0 215 10 215 10 65 3 65 2 -5 -75 -6 -75 1 -348 0 -348 -20 -4 -20 -3
-90 -12 -90 -11 -70 -9 -70 -9 -190 -6 -189 -6 -8 -5 -8 -5 -258 -5 -257 -5
-65 1 -65 0 -41 6 -41 6 -6 71 -7 72 -20 102 -20 103 5 160 5 160 -87 1 -88 1
-550 3 -550 3 -109 11 -108 12 -5 -5 -5 -5 17 -63 16 -63 6 -212 6 -213 181
-1 181 -2 40 1 40 1 190 -16 190 -17 43 0 42 -1 5 -35 6 -35 4 -25 5 -25 10
-225 10 -225 9 -36 8 -36 -22 5 -22 4 -6 146 -6 147 -11 125 -12 125 -1 28 0
27 -11 0 -11 0 12 -132 13 -133 3 -155 2 -155 -235 3 -235 2 -160 11 -160 10
-37 9 -38 8 0 -54 0 -54 10 0 10 0 0 36 0 36 93 -6 92 -6 295 -11 294 -10 5
-5 6 -5 -322 3 -321 3 4 -7 4 -7 -32 10 -33 9 -36 0 -37 0 5 -20 5 -20 11 0
10 0 14 18 14 17 -6 -12 -6 -13 75 -1 76 -1 20 0 20 0 8 1 7 1 332 2 331 3 7
7 7 7 -11 68 -11 68 -4 72 -5 72 -7 12 -7 12 12 -7 12 -8 -6 69 -6 68 -15 120
-16 120 -1 1 -2 1 -170 13 -170 13 -282 4 -283 4 0 142 0 142 -10 85 -9 85 -6
30 -7 30 84 -6 83 -7 10 -1 10 -1 0 -164 0 -165 11 -11 12 -12 441 -5 441 -6
0 -11 1 -11 4 -75 5 -75 11 -110 11 -110 13 -90 14 -90 12 -148 12 -147 14 0
13 0 0 3 0 2 -20 190 -20 190 -14 95 -14 95 -6 80 -7 80 -4 75 -4 75 0 5 -1 5
-442 3 -442 2 -9 9 -9 9 -3 124 -3 123 5 37 5 37 12 -5 11 -4 -1 -140 -1 -140
16 -4 16 -5 446 -3 446 -3 6 -130 7 -130 10 -140 11 -140 5 -50 4 -50 12 -147
11 -148 10 0 9 0 -7 108 -6 107 -9 55 -9 55 -7 120 -8 120 -1 5 -1 5 -8 125
-7 125 -2 65 -2 65 -415 2 -415 3 -42 5 -42 6 1 27 0 27 -10 46 -9 46 5 57 5
57 14 -3 15 -3 3 -108 3 -108 3 -3 4 -4 400 -6 400 -7 55 10 55 9 2 -2 2 -2
11 -309 12 -310 19 -145 20 -145 -1 -42 -1 -43 21 0 20 0 -5 22 -5 23 -20 110
-21 110 -9 135 -9 135 -5 180 -6 180 -6 61 -5 61 -42 -8 -42 -8 -146 -1 -146
0 -271 7 -272 6 0 98 0 98 11 6 10 7 4 -3 3 -4 5 -45 6 -45 0 -48 1 -48 9 5 8
5 109 7 109 7 25 0 25 -1 286 -1 286 -1 30 6 30 6 7 -129 7 -128 9 -229 10
-229 6 -51 6 -51 15 -54 15 -54 3 -51 2 -51 1 -17 2 -18 10 0 10 0 0 58 0 58
-19 75 -19 74 -6 45 -6 45 -10 240 -9 240 -7 123 -7 123 -23 -5 -22 -6 -284 0
-283 0 -30 5 -30 5 -112 -6 -113 -6 6 -9 5 -9 -15 6 -16 6 0 17 -1 16 -5 56
-6 56 128 7 129 6 145 0 145 1 269 -5 269 -5 8 -13 8 -13 -9 -3 -10 -4 0 -9 0
-10 9 5 9 6 -8 -35 -8 -35 12 7 11 7 -12 -15 -13 -15 10 -111 10 -111 20 -102
20 -101 0 -59 0 -59 56 -7 55 -6 147 6 147 7 20 0 20 1 95 0 95 0 192 1 191 2
-6 9 -5 9 12 -7 12 -8 107 11 107 12 95 14 95 14 49 6 48 7 -7 51 -6 52 1 325
1 325 8 60 9 60 -5 8 -5 8 -26 -5 -27 -5 -120 -5 -120 -5 -188 -7 -188 -6 3
101 3 101 6 0 6 0 149 15 149 15 90 15 90 15 55 0 55 0 10 8 10 7 -1 160 -1
160 -1 241 -2 241 -107 4 -108 4 -181 0 -181 0 -24 -12 -24 -12 -100 -5 -100
-6 -85 -6 -85 -5 -130 -9 -130 -10 -161 -12 -162 -12 5 -146 4 -145 9 -55 10
-55 5 -80 6 -80 10 -55 9 -54 -6 -32 -6 -33 -12 5 -12 5 -564 2 -565 2 -3 46
-3 46 16 7 16 6 -7 -12 -7 -11 15 5 15 6 56 7 57 7 -5 8 -5 8 35 -9 35 -10 39
11 39 10 314 0 313 -1 30 -2 30 -1 7 -11 8 -10 0 40 0 40 -14 40 -14 40 -16
125 -15 125 -16 175 -15 175 0 48 0 47 -15 98 -14 97 -3 58 -3 59 -40 -8 -40
-7 -215 -2 -215 -2 -85 -14 -85 -13 -150 -1 -150 0 -3 40 -2 40 8 12 8 13 195
10 194 10 60 5 60 6 80 9 80 9 120 6 120 6 103 7 102 7 0 -10 1 -10 4 -85 5
-85 17 -90 16 -90 11 -65 12 -65 185 0 184 0 240 10 240 10 85 -3 85 -2 85 11
85 10 47 10 48 11 157 1 158 2 -2 50 -3 50 -9 363 -10 364 -3 3 -3 4 -60 0
-60 0 -60 -3 -60 -4 -153 -3 -153 -3 -67 -7 -67 -8 -72 -4 -72 -4 -5 26 -5 26
-12 113 -12 113 6 5 5 5 113 4 114 5 255 9 255 9 8 -5 9 -5 54 7 55 7 -6 201
-6 202 -15 170 -15 170 -5 18 -5 17 18 0 18 1 -17 13 -18 13 0 12 0 11 -7 0
-6 0 -20 -17 -20 -18 7 13 7 12 -123 1 -123 2 -215 -2 -215 -2 -85 -10 -85 -9
-160 -5 -160 -5 -100 -7 -100 -7 -14 3 -13 2 5 -8 5 -8 -89 1 -89 0 -9 -6 -10
-6 -7 -314 -7 -315 0 -30 0 -30 4 -85 3 -84 -94 -13 -95 -12 -60 0 -60 -1
-175 -15 -175 -15 -120 -11 -120 -10 -47 -5 -47 -6 -8 49 -8 48 0 10 0 10 40
7 40 7 110 20 110 21 70 10 70 10 203 3 202 2 5 15 5 15 -11 35 -10 35 -11
135 -10 135 -3 205 -4 205 -7 224 -6 224 -9 -15 -9 -16 11 -438 10 -439 8
-110 8 -110 8 -37 7 -38 -93 -1 -94 -1 -39 2 -39 2 -158 -13 -158 -12 4 -6 4
-7 -35 4 -34 4 -102 -12 -103 -12 -4 -4 -4 -3 13 -77 12 -77 -13 -8 -13 -8 -8
5 -8 5 0 39 0 40 -12 46 -13 46 18 10 18 10 77 4 77 5 55 14 55 13 45 6 45 6
205 5 205 5 28 6 29 6 -5 21 -6 22 -10 115 -10 115 -11 195 -12 195 3 242 3
242 -7 7 -7 7 0 -4z m-686 -1277 l5 -8 -20 -1 -19 -2 0 10 0 9 14 0 15 0 5 -8z
m-149 -809 l5 -22 163 4 162 3 55 12 55 12 175 3 175 4 95 3 95 3 6 -50 7 -50
11 -90 11 -90 6 -115 6 -115 4 -15 5 -14 10 -136 9 -135 20 -120 20 -120 6
-29 6 -29 -11 7 -11 7 -433 -1 -434 0 -44 -6 -44 -5 -12 -4 -13 -4 0 -66 0
-65 -15 0 -15 0 -1 53 -2 52 1 29 1 28 3 3 3 3 40 -7 40 -7 30 8 30 9 115 4
115 4 309 0 308 1 -5 15 -6 14 -15 103 -15 103 -16 140 -15 140 -15 165 -16
165 0 93 0 94 -67 -7 -67 -6 -260 -11 -260 -10 -145 -5 -144 -4 -23 6 -23 5 0
38 0 37 8 40 7 40 3 -45 2 -45 5 -22z m-83 -10 l3 -108 85 -8 85 -9 125 12
125 12 40 3 40 4 175 11 175 10 67 4 67 4 6 -52 6 -51 9 -190 10 -190 10 -50
11 -50 9 -100 10 -100 6 -61 6 -61 -63 -3 -64 -3 -40 0 -40 0 -130 3 -130 2
-135 -6 -135 -6 -100 -6 -100 -5 -23 -6 -23 -5 2 -107 2 -106 -17 -3 -16 -3
-1 73 0 73 -2 48 -3 49 18 9 18 10 0 -9 0 -9 53 9 52 8 180 12 180 12 105 -1
105 -1 131 -2 131 -3 11 7 11 6 -5 38 -5 37 -14 90 -14 90 -7 85 -6 85 -13 85
-12 85 -1 118 -1 119 -3 2 -3 2 -140 -8 -140 -8 -103 -5 -103 -4 -7 -5 -8 -5
-104 -8 -105 -8 -135 3 -135 3 -3 4 -3 3 -3 114 -3 113 4 8 4 7 9 0 9 0 3
-107z m48 28 l0 -78 133 -7 132 -6 55 10 55 10 285 10 286 9 16 6 15 6 6 -113
6 -113 15 -165 15 -165 12 -90 11 -90 14 -110 15 -110 5 -25 4 -25 -377 -1
-378 -1 -117 -7 -118 -8 0 -88 0 -89 -11 -6 -10 -7 -4 3 -3 4 -4 98 -4 98 21
4 20 4 55 5 55 6 165 7 165 8 258 -2 259 -2 -7 17 -7 17 -19 175 -18 175 -10
50 -10 50 -13 229 -12 228 -170 -7 -171 -7 -205 -17 -205 -18 -90 5 -90 6 -32
0 -32 0 4 87 3 88 7 10 6 11 10 0 9 0 0 -79z m-97 -63 l3 -118 6 -5 5 -6 119
-5 119 -5 140 11 140 11 120 9 120 10 112 4 111 4 5 -132 4 -131 12 -95 11
-95 10 -90 11 -90 12 -83 13 -83 -265 3 -266 3 -127 -4 -128 -3 4 -7 4 -6 -50
4 -50 3 7 -12 8 -13 -12 7 -12 8 -60 -7 -60 -7 5 -17 5 -16 7 -117 7 -118 -73
0 -73 0 6 159 7 159 6 16 6 15 36 6 37 6 62 15 63 14 82 5 83 5 240 5 240 5
53 7 53 6 -5 13 -5 12 -6 84 -6 83 -10 50 -9 50 -9 113 -9 113 -7 7 -6 6 -7
-11 -7 -11 -138 -11 -138 -12 -272 2 -272 2 -51 4 -50 5 -17 106 -16 107 -6
82 -6 82 33 5 33 6 25 3 25 3 7 -5 7 -6 4 -117z m892 -2888 l-6 -10 -32 1 -32
0 20 9 20 9 18 0 18 1 -6 -10z"/>
<path d="M1534 5010 l6 -55 8 -50 8 -50 8 -13 7 -12 8 5 8 5 444 5 444 5 180
7 180 8 83 0 82 0 -1 45 -1 45 -8 55 -9 55 3 -93 4 -94 -27 5 -26 5 -205 -13
-205 -14 -300 1 -300 1 -174 -2 -174 -2 -4 5 -5 5 -14 92 -13 92 -7 6 -6 6 6
-55z"/>
<path d="M1710 5045 l0 -15 48 0 47 0 447 -3 447 -3 6 -5 5 -6 6 -45 6 -45
-78 -7 -79 -6 -470 -1 -469 -2 -17 49 -17 49 -1 23 -1 23 -9 -5 -9 -6 17 -76
17 -77 194 0 195 1 290 3 290 3 174 12 174 12 15 -6 15 -5 -6 48 -7 48 0 29 0
29 -11 -7 -12 -7 6 -58 5 -59 -39 0 -39 0 0 59 0 60 -11 7 -12 7 6 -67 6 -66
-13 0 -14 0 -7 65 -7 65 -7 0 -7 0 4 -70 4 -70 -11 0 -11 0 -1 23 0 22 -6 45
-5 45 -5 5 -5 5 4 -73 3 -72 -6 0 -7 0 -6 16 -6 16 0 41 0 42 -87 2 -88 1
-400 2 -400 2 -22 9 -23 9 0 -15z"/>
<path d="M3023 4950 l2 -115 -130 -1 -130 -2 -155 -5 -155 -6 -405 -5 -405 -5
-54 -11 -54 -10 -2 0 -3 0 -7 56 -7 56 -23 76 -24 77 0 -21 -1 -21 14 -39 13
-39 13 -82 14 -83 10 0 11 0 35 11 35 11 270 4 270 3 340 11 340 11 105 2 105
2 -4 87 -3 86 -9 34 -8 33 2 -115z"/>
<path d="M3064 5003 l5 -58 6 -60 5 -60 -8 -11 -7 -11 -35 -6 -35 -7 -279 -5
-279 -5 -141 -11 -141 -10 -195 7 -195 6 -95 -11 -95 -11 -47 -6 -46 -6 -6 58
-6 59 -11 83 -10 83 -5 14 -6 15 -9 0 -9 0 0 -30 0 -30 9 0 9 0 -5 -20 -5 -19
11 -48 11 -48 2 -67 3 -68 20 0 21 0 119 15 120 15 290 -1 290 0 65 9 65 9
185 2 185 1 105 5 105 6 33 5 32 5 0 67 0 67 -7 68 -6 67 -9 0 -9 0 5 -57z"/>
<path d="M200 5016 l0 -33 92 -7 91 -7 274 1 274 0 72 6 72 6 7 7 7 6 -382 -1
-382 -2 -52 5 -53 5 0 24 0 24 -10 0 -10 0 0 -34z"/>
<path d="M835 5030 l-6 -10 33 1 33 0 -20 9 -20 9 -7 0 -7 1 -6 -10z"/>
<path d="M826 4703 l-8 -8 -101 -17 -102 -17 -100 0 -100 -1 -110 -11 -110
-10 -97 -11 -98 -10 0 -15 0 -15 17 6 16 7 106 10 106 10 86 9 85 10 105 0
104 1 95 18 95 19 7 -4 7 -4 0 -147 0 -148 7 -77 6 -77 -23 -5 -24 -4 -117
-12 -116 -11 -34 -9 -33 -9 -143 -6 -143 -5 -67 -12 -67 -11 -27 -1 -28 -1 -2
-60 -1 -60 -2 -45 -2 -45 8 -80 8 -80 17 -128 17 -128 56 6 56 7 125 19 125
19 80 15 80 16 165 3 165 3 135 12 135 11 100 11 100 10 72 0 71 1 6 76 6 77
6 355 6 355 4 6 4 6 77 7 78 6 90 6 90 6 25 4 25 4 165 5 165 6 80 9 80 10
287 2 288 2 9 -9 9 -10 17 -250 18 -250 6 -73 6 -74 -8 -5 -8 -5 -89 1 -88 1
-118 -11 -119 -11 -135 1 -135 2 -62 -7 -63 -6 0 -14 0 -14 4 0 5 0 28 11 28
12 175 1 175 2 208 9 209 8 4 12 5 12 -16 162 -15 161 0 62 0 61 -12 113 -12
112 -40 6 -41 6 -240 -1 -240 0 -80 -9 -80 -9 -125 -6 -125 -6 -230 -15 -230
-15 -39 -9 -40 -9 -8 5 -8 5 0 -10 0 -11 12 0 11 0 -8 -162 -8 -163 3 -212 2
-212 -7 -49 -6 -49 -87 -6 -87 -7 -195 -15 -195 -16 -150 -4 -150 -4 -50 -6
-50 -5 -100 -15 -100 -16 -56 -10 -56 -9 -79 -7 -80 -6 -14 109 -13 109 -3 20
-3 20 -5 120 -4 120 5 40 5 40 26 1 27 1 51 11 51 11 139 6 139 7 115 18 115
18 79 7 78 7 -7 41 -7 42 -4 209 -3 208 -4 4 -4 4 -7 -7z"/>
<path d="M789 4626 l-4 -5 -100 -5 -100 -6 -45 -5 -45 -5 -209 -15 -209 -15
-38 -10 -39 -11 0 -9 0 -10 8 0 7 0 35 10 35 11 204 14 203 15 82 9 81 9 35 1
35 1 28 6 27 6 1 -19 1 -18 -1 -159 0 -158 -3 -3 -3 -3 -90 -7 -90 -6 -99 -14
-100 -15 -71 0 -71 0 -119 -15 -120 -15 -10 0 -9 0 10 -10 10 -10 119 15 120
15 80 0 80 0 80 15 80 15 102 6 102 7 10 6 10 7 2 187 2 187 -5 5 -5 5 -4 -4z"/>
<path d="M590 4560 l-125 -7 -132 -8 -132 -8 4 -8 5 -7 -20 5 -19 5 -86 -12
-85 -12 0 -15 0 -14 18 5 17 6 70 9 70 10 60 5 60 5 145 10 145 11 63 3 62 3
2 -35 1 -36 1 -92 1 -91 -115 -5 -115 -5 -180 -16 -180 -16 -57 -8 -58 -9 -7
-6 -6 -7 6 -6 6 -6 123 16 123 15 125 12 125 12 107 6 107 7 6 6 6 6 3 104 3
103 -4 38 -5 37 -7 -2 -6 -1 -125 -7z"/>
<path d="M2546 4543 l-2 -2 -269 -10 -270 -11 -175 -15 -175 -16 -35 -7 -35
-7 -8 -195 -8 -195 -2 -155 -3 -155 -2 -82 -2 -83 -69 0 -68 0 -50 -10 -51 -9
-123 -10 -124 -10 -95 -6 -95 -5 -105 -5 -105 -6 -70 -9 -70 -9 -115 -15 -115
-15 -138 -16 -139 -16 -4 3 -4 4 -9 70 -9 69 2 -85 1 -85 20 1 20 1 90 12 90
12 155 20 155 19 60 10 60 9 175 11 175 11 140 10 140 11 55 9 55 8 93 3 93 3
-3 70 -3 70 8 350 8 350 5 18 5 17 14 0 14 0 3 -82 3 -83 -8 -65 -8 -65 -1
-301 -1 -300 -91 -12 -91 -12 -114 -10 -113 -10 -7 -4 -7 -5 -144 -2 -145 -2
-115 -14 -115 -13 -92 -6 -92 -7 4 -7 4 -7 -23 4 -23 5 -89 -12 -89 -13 -42
-4 -43 -5 4 -7 4 -6 -50 4 -50 3 6 -10 6 -10 -20 5 -20 5 -35 -6 -35 -7 0 -13
0 -13 58 8 57 8 200 25 200 24 100 12 100 13 105 12 105 12 125 2 125 1 75 10
75 10 115 11 115 10 42 5 42 6 -2 307 -2 306 9 131 9 131 56 0 56 -1 130 12
130 12 100 11 100 10 214 0 214 0 2 -3 3 -3 7 -88 7 -89 -21 7 -21 6 -272 -1
-273 -2 -85 3 -85 3 -60 1 -60 0 -2 -95 -3 -95 0 -345 0 -345 15 -65 15 -65
11 -120 12 -120 -1 -29 -1 -29 222 7 222 7 60 9 60 9 135 2 135 2 3 -70 3 -71
-17 -6 -16 -6 -147 -10 -146 -9 -45 -1 -45 0 -185 -9 -185 -10 -101 -7 -101
-7 -12 169 -12 169 -10 61 -9 61 0 37 0 36 -22 -4 -23 -5 -90 -6 -90 -6 -121
-14 -121 -14 -159 -7 -159 -6 -135 -19 -135 -18 -44 6 -44 6 6 -10 6 -9 -30 4
-30 4 -104 -7 -105 -7 4 -7 5 -7 -35 4 -35 4 -47 -13 -47 -13 -14 2 -13 3 5
-8 5 -8 -39 3 -39 4 0 -11 0 -11 54 0 55 0 28 11 28 11 95 9 95 10 65 4 65 4
60 1 60 1 145 19 145 18 140 6 140 6 150 19 150 19 76 7 77 7 6 -38 6 -39 20
-205 20 -205 0 -23 0 -24 123 6 122 6 175 10 175 10 150 4 150 4 70 11 70 12
142 2 143 2 0 115 0 115 -7 141 -6 142 -36 -3 -36 -4 -140 -11 -140 -12 -115
0 -115 0 -131 1 -132 1 -6 53 -5 52 -7 248 -7 247 44 0 44 0 64 10 65 9 327 2
328 2 5 12 5 13 -9 124 -10 123 -10 60 -10 60 -6 65 -7 65 -1 2 -2 3 -98 -7
-98 -6 6 -66 5 -66 7 -80 6 -80 -426 2 -427 2 -7 -17 -6 -17 0 -335 0 -335 18
-185 18 -185 12 -14 11 -15 -15 9 -15 8 10 -11 10 -10 145 8 145 9 125 10 125
10 130 2 130 2 13 -84 12 -84 -2 -40 -3 -40 -18 -3 -18 -4 7 36 6 36 -7 74 -7
74 -106 -4 -107 -4 -115 -10 -115 -9 -187 -6 -187 -6 -10 38 -9 38 -19 140
-18 140 2 340 3 340 6 65 6 65 346 0 347 0 81 -9 81 -8 6 22 6 23 -10 85 -11
85 5 30 4 30 -331 -7 -331 -6 -65 -10 -65 -9 -147 -7 -148 -7 0 14 0 14 78 3
77 3 75 9 75 9 135 8 135 8 75 -3 75 -2 55 10 55 10 243 1 243 1 7 -6 6 -7 7
-127 7 -127 16 -109 16 -109 0 -42 0 -42 -102 -8 -103 -7 -175 -4 -175 -3
-110 -5 -110 -5 -54 0 -54 -1 7 -182 7 -183 11 -87 11 -87 191 5 191 5 190 8
190 8 38 1 37 0 2 -36 1 -37 2 -35 2 -35 8 -212 8 -213 -14 0 -14 0 -155 -4
-155 -4 -75 -15 -75 -15 -278 -7 -277 -6 -28 -5 -27 -4 -55 -11 -55 -10 -90 3
-89 3 -7 33 -7 34 -6 86 -6 87 -11 110 -10 110 -5 33 -5 34 -102 -7 -102 -6
-15 -4 -15 -4 -100 -11 -100 -11 -180 -10 -180 -10 -65 -9 -65 -9 -170 -10
-170 -11 -95 -16 -95 -16 -69 -8 -68 -9 -6 -6 -5 -5 6 -7 7 -6 103 17 102 18
55 9 55 9 165 11 165 10 75 9 75 9 170 10 170 10 145 16 145 15 74 8 73 8 3
-10 3 -11 16 -155 15 -155 9 -93 9 -93 5 -5 6 -5 88 -3 89 -4 62 14 61 13 299
6 298 7 75 16 75 17 179 0 179 0 -7 285 -8 285 1 20 0 20 -152 -2 -152 -3 -70
-10 -70 -9 -201 0 -202 0 -6 82 -6 82 -5 80 -5 80 -6 73 -6 74 21 -12 21 -11
0 -7 1 -7 9 -135 10 -135 6 -67 7 -68 41 0 41 1 150 9 150 10 215 6 214 5 11
2 10 2 6 -240 6 -240 8 -102 7 -103 -14 -1 -13 -1 -170 -3 -170 -3 -70 -11
-70 -11 -220 -6 -220 -5 -105 -3 -105 -3 -69 -13 -68 -13 -89 5 -90 6 -5 5 -5
5 -14 103 -14 104 -11 73 -11 72 2 73 2 72 -119 -4 -119 -3 -45 -9 -45 -10
-190 -8 -190 -9 -45 -11 -45 -11 -150 -11 -150 -11 -95 -4 -95 -4 -60 -10 -60
-9 -55 -6 -55 -6 -24 -6 -24 -6 6 -71 6 -71 21 -135 20 -135 5 -46 6 -47 112
-5 112 -6 215 -1 215 -1 130 10 130 9 15 4 14 3 8 -55 7 -55 16 -128 16 -128
-6 -9 -6 -9 -165 0 -165 -1 -10 -5 -9 -6 -218 -10 -217 -9 -62 -13 -61 -12 -8
-7 -7 -8 -5 -67 -5 -68 1 -164 0 -163 9 -8 8 -8 100 -3 100 -3 240 9 240 9 25
-2 25 -2 423 -4 423 -4 -6 167 -5 166 -10 75 -10 75 -2 130 -3 130 17 -3 17
-3 88 15 88 15 65 5 65 5 150 6 150 6 15 4 15 4 205 11 205 11 110 0 110 0 65
-7 65 -6 0 -338 0 -337 -80 -7 -80 -6 -115 -19 -115 -19 -116 -7 -117 -7 -6
-45 -6 -46 0 -125 0 -125 88 7 87 7 198 9 199 9 6 0 7 -1 39 1 39 1 -7 7 -7 7
-142 -2 -142 -2 -155 -11 -156 -10 -19 -2 -20 -2 3 149 3 149 4 7 4 7 118 7
118 7 95 15 95 15 61 9 61 10 35 0 36 0 4 13 5 12 -9 110 -9 110 6 231 5 232
-184 7 -185 7 -43 -6 -43 -6 -100 -5 -100 -5 -85 -6 -85 -6 -15 -3 -15 -3
-165 -6 -165 -7 -75 -10 -75 -9 -65 -3 -65 -3 3 -29 2 -30 4 -126 3 -125 7
-12 7 -11 9 -186 10 -187 -5 -21 -6 -22 -347 1 -347 1 -84 11 -84 11 -96 -9
-96 -9 -243 -3 -243 -3 -7 12 -8 13 -3 117 -2 118 12 101 12 101 61 12 61 12
213 9 213 9 8 5 9 6 172 4 172 4 10 10 9 9 -15 124 -16 124 -7 70 -8 70 -40
-3 -40 -2 -415 -5 -415 -5 -22 6 -23 6 0 43 0 43 -19 114 -20 113 -6 78 -7 77
14 1 13 1 23 -2 22 -1 0 10 0 11 33 0 33 0 55 9 54 10 240 16 240 16 97 15 98
14 82 0 83 0 195 16 195 16 17 9 18 9 4 0 3 0 6 -97 6 -98 10 -70 11 -70 12
-97 13 -97 140 3 140 4 25 6 25 7 160 10 160 10 56 5 57 6 68 -11 69 -10 100
15 100 15 204 6 204 6 -8 166 -9 166 -1 135 -1 135 -2 62 -2 62 -12 -4 -13 -3
-210 -7 -210 -6 -145 -9 -145 -10 -46 0 -45 0 -13 89 -14 89 5 121 4 121 -28
0 -28 0 0 10 0 10 3 6 2 7 40 4 40 4 245 3 245 4 143 8 144 7 5 15 6 14 -27
202 -26 201 0 88 0 88 -226 -3 -226 -3 -2 -2z m394 -111 l0 -47 15 -85 15 -85
6 -106 7 -107 -314 -1 -314 -1 -80 -10 -80 -10 -45 -2 -45 -3 0 -125 0 -125 5
-193 5 -194 315 5 315 6 113 5 113 5 4 -12 4 -12 4 -217 3 -217 -78 -3 -78 -3
0 50 0 50 -15 125 -15 125 0 3 0 2 -27 -6 -28 -7 -6 -9 -5 -8 -115 -5 -114 -5
-90 -5 -90 -6 -80 -9 -80 -9 -68 -2 -67 -2 -6 6 -6 6 -9 78 -8 78 -11 140 -11
140 3 247 3 246 6 7 6 6 314 2 314 2 98 -4 97 -5 12 12 12 12 -12 156 -12 157
4 4 4 4 49 8 48 7 8 -3 7 -4 0 -47z m-221 -52 l11 -101 0 -20 0 -21 -92 8 -93
7 -342 1 -341 1 -6 -125 -7 -125 -1 -285 -2 -285 17 -125 17 -125 11 -67 11
-67 166 5 167 4 160 13 160 12 85 0 85 0 3 -97 3 -98 -21 0 -22 0 7 30 6 30
-7 56 -7 56 -66 -7 -66 -6 -90 -3 -90 -2 -175 -12 -175 -12 -77 0 -76 0 -11
68 -10 67 -6 75 -6 75 -14 70 -14 70 -1 290 -2 290 6 129 6 129 333 4 332 3
88 -10 89 -11 11 -2 12 -2 -3 108 -4 107 15 0 14 0 12 -100z m81 74 l10 -27 7
-137 6 -137 -421 0 -422 0 -7 -7 -8 -8 0 -296 0 -297 14 -170 15 -170 -2 -27
-1 -26 87 4 87 5 100 9 100 10 105 5 105 5 80 4 80 4 28 7 27 7 0 -34 0 -34
10 -55 10 -54 2 -69 3 -69 -12 -4 -13 -5 0 44 0 43 -12 95 -11 95 -116 -3
-116 -2 -150 -11 -150 -11 -129 -7 -128 -6 -8 15 -8 16 -12 99 -11 100 -6 60
-7 60 0 295 0 295 8 63 8 62 425 -2 425 -3 -5 65 -6 65 -7 83 -7 82 12 0 11 0
10 -26z"/>
<path d="M6 2790 l6 -105 6 -70 7 -70 115 -8 115 -8 330 5 330 4 20 4 19 3 12
-55 13 -55 7 -87 7 -88 -109 5 -109 4 -205 -14 -205 -15 -85 -10 -85 -10 -69
-11 -69 -11 6 -285 5 -284 6 -7 7 -6 302 3 302 3 48 9 49 9 131 -8 132 -7 350
0 350 0 -3 80 -2 80 -11 165 -12 165 -1 120 -1 120 8 0 8 0 4 -70 3 -70 7
-155 7 -155 13 -80 13 -80 5 -77 5 -78 -46 -1 -47 0 -290 1 -290 1 -45 5 -45
5 -100 3 -100 4 -32 7 -33 8 0 -14 0 -14 -27 -2 -28 -1 -140 -2 -140 -2 -192
1 -192 1 0 100 0 101 -7 10 -6 10 -1 147 0 147 8 73 7 74 11 -11 11 -11 34 0
33 0 -7 12 -7 11 12 -7 11 -7 73 10 72 11 170 15 170 15 163 3 164 2 -6 65 -7
65 -5 37 -6 37 -179 -4 -180 -4 -9 -6 -8 -5 -271 12 -270 12 -4 15 -5 16 -1
-26 -1 -27 33 -6 32 -6 125 -1 125 -2 200 3 200 2 100 2 100 1 7 -74 8 -75 -6
-5 -5 -6 -157 -2 -157 -3 -175 -16 -175 -15 -113 -8 -113 -9 -4 -3 -4 -4 -12
-149 -12 -148 8 -62 7 -61 7 -134 6 -134 335 2 335 1 55 3 55 2 7 10 8 10 0
-10 0 -10 127 0 128 0 325 -6 325 -6 43 5 44 5 -7 86 -6 86 -15 100 -14 100
-8 188 -7 187 29 0 29 0 61 10 61 9 155 12 155 12 45 3 45 2 150 7 150 7 10 1
10 2 -4 -95 -3 -95 -3 -3 -3 -4 -214 -9 -213 -9 -12 -5 -12 -4 -126 -2 -126
-1 5 -182 4 -181 10 -120 10 -120 8 -333 7 -332 36 5 36 6 49 11 48 11 142 1
141 1 85 -7 85 -7 49 10 49 9 4 -4 4 -4 13 -86 13 -86 -6 -1 -6 0 -40 -6 -40
-6 -255 1 -255 0 -117 5 -118 4 6 -8 5 -9 -15 6 -16 6 -30 -10 -30 -11 0 322
0 322 -6 22 -6 23 -47 -5 -46 -5 -340 -1 -340 0 -65 10 -65 10 -355 6 -355 5
-75 6 -75 7 -22 8 -23 9 0 -18 0 -18 18 -1 17 -1 215 -10 215 -10 234 -2 234
-1 51 -10 51 -10 342 1 343 0 40 6 40 7 1 -339 1 -339 3 -10 2 -10 2 -10 1
-10 8 13 9 13 83 13 83 13 121 -4 121 -3 185 -1 185 -1 125 11 125 11 63 10
63 11 37 14 37 15 4 277 3 276 -17 -7 -17 -6 -21 -5 -22 -4 -75 -5 -75 -6
-221 -6 -221 -7 -6 24 -7 24 -10 120 -10 120 2 121 2 121 75 6 76 6 140 11
140 10 85 12 85 11 23 0 23 -1 -3 252 -2 251 4 14 5 13 -90 -3 -90 -3 -50 -1
-50 -2 -220 -7 -220 -7 -65 -9 -65 -9 -120 -6 -120 -6 -83 -11 -82 -11 -7 6
-6 7 6 6 6 7 75 13 75 13 133 6 133 6 95 9 95 10 105 5 105 4 182 10 182 9 18
-3 18 -3 36 -1 36 -1 -1 -290 -1 -290 -17 0 -18 0 0 -10 0 -10 -26 0 -27 0
-61 -10 -61 -10 -136 -15 -136 -15 -77 0 -77 0 2 -215 1 -215 7 -4 6 -4 95 -2
95 -2 210 11 210 10 28 7 27 6 1 -8 1 -9 4 -130 4 -130 -6 -176 -7 -176 -32
-11 -31 -12 -33 0 -32 0 -157 -26 -157 -25 -215 -2 -215 -2 -70 5 -70 4 -152
-8 -151 -8 -9 78 -8 79 2 210 1 210 4 50 3 50 -35 -2 -35 -2 -250 -4 -250 -3
-85 7 -85 8 -130 5 -130 5 -285 6 -285 5 -82 6 -83 6 0 -45 0 -46 11 -28 12
-28 23 -165 23 -165 13 -154 12 -154 155 8 156 7 20 1 20 0 245 -12 245 -12
33 -5 32 -5 0 -72 0 -72 7 -158 6 -157 -244 5 -244 6 -115 4 -115 4 -63 6 -63
6 -19 12 -20 11 -8 -9 -9 -10 5 -77 4 -78 24 0 24 0 0 18 -1 17 -8 43 -8 43
17 9 17 9 9 -9 9 -9 175 -7 175 -7 239 -1 239 -2 -8 195 -8 196 1 40 2 40 -9
14 -9 14 -138 8 -139 8 -140 7 -140 7 -30 0 -30 0 -131 -8 -132 -8 -11 69 -11
69 -15 160 -16 160 -9 40 -9 40 -6 103 -7 104 54 -6 53 -5 320 -6 320 -6 95
-10 95 -10 320 1 320 1 32 4 31 4 14 3 13 3 2 -205 2 -205 11 -130 11 -130 8
-8 8 -8 29 -1 29 -1 149 12 149 13 45 -7 46 -7 195 1 194 1 96 15 96 15 56 10
56 10 92 9 92 8 7 9 7 9 -3 335 -3 335 -8 -13 -7 -12 -235 -12 -234 -11 -89 1
-89 1 -11 11 -10 10 -4 189 -4 188 32 7 33 6 64 0 65 0 121 15 122 15 108 17
108 16 -8 41 -8 41 2 215 3 215 8 47 9 46 -26 6 -26 5 -210 -5 -210 -5 -110
-3 -110 -3 -80 -12 -80 -11 -140 -6 -140 -5 -80 -10 -79 -9 -47 0 -47 0 4
-122 4 -123 10 -100 9 -100 5 -151 5 -152 -27 -5 -27 -5 -300 4 -300 4 -145
10 -145 9 -65 -9 -65 -10 -283 -3 -282 -2 -1 70 -1 70 -3 20 -4 20 -1 115 -1
115 7 71 7 71 88 12 89 11 172 17 173 16 195 2 195 2 -2 82 -1 82 -13 72 -13
72 2 8 2 8 -32 -5 -33 -5 -62 -6 -63 -6 -251 0 -252 1 -101 6 -101 7 -20 1
-19 1 -13 100 -13 100 -10 65 -9 65 5 -105z m2989 -407 l-3 -18 -1 -231 -1
-231 -92 -11 -93 -12 -95 -5 -95 -6 -141 -16 -142 -16 9 -29 8 -29 1 -157 1
-157 3 -30 3 -30 1 -68 2 -69 38 6 37 5 195 8 195 8 70 -2 70 -3 33 11 33 11
5 -5 6 -5 -2 -199 -2 -198 -7 -55 -6 -55 -60 -17 -60 -16 -19 -1 -19 -1 6 165
6 166 -5 14 -6 14 -26 -5 -27 -5 -160 -13 -160 -14 -6 4 -6 3 -145 2 -145 1
-13 8 -12 8 -4 158 -4 159 -9 60 -9 60 -1 105 -1 105 -10 125 -9 124 3 4 4 3
281 4 282 4 47 7 47 8 8 2 7 2 9 1 10 1 -1 38 0 37 3 137 2 137 41 4 41 4 47
1 46 2 -3 -17z m-291 -21 l0 -22 -2 -105 -2 -105 -27 1 -28 2 -225 -9 -225 -8
-60 3 -60 2 -40 -6 -40 -5 3 -168 2 -167 15 -121 15 -121 1 -287 1 -288 26 9
27 8 300 0 300 0 36 8 36 9 7 -99 7 -98 6 -22 5 -23 -14 0 -14 0 -14 98 -13
97 -4 8 -5 8 -11 -9 -12 -10 -62 -7 -63 -7 -122 12 -123 12 -110 -11 -110 -10
-50 -10 -50 -9 -1 2 -2 1 -6 230 -7 230 -4 135 -4 135 -12 85 -12 85 -4 158
-4 157 13 5 13 5 90 4 90 4 198 8 199 7 9 -14 9 -14 0 11 0 11 50 7 51 7 -6 9
-6 10 7 100 7 101 16 -3 16 -3 -1 -23z m44 -119 l-3 -148 -47 -6 -46 -7 -303
-6 -303 -6 2 -57 3 -58 10 -170 10 -170 14 -111 14 -112 -6 -51 -5 -52 7 -135
7 -136 27 7 26 7 184 -1 183 -1 20 -11 21 -11 71 10 71 11 52 6 51 7 -1 -109
-2 -108 8 -37 8 -38 -15 0 -14 0 -8 67 -7 68 -1 63 0 62 -20 -7 -21 -7 -337 0
-338 -1 -5 40 -5 40 -5 245 -5 245 -15 110 -15 110 0 158 0 157 23 1 22 1 220
2 220 3 113 8 114 8 -7 59 -7 60 7 74 7 74 14 0 15 0 -3 -147z m57 106 l7 -41
-7 -128 -7 -127 -52 -7 -51 -7 -128 -4 -127 -3 6 9 5 9 -24 -9 -24 -9 -124 -2
-124 -3 -30 -1 -30 -2 4 -14 4 -15 8 -78 7 -78 7 -177 6 -177 9 -40 8 -40 -3
-162 -3 -161 32 -6 31 -5 190 0 190 0 111 9 110 9 28 7 27 7 -3 -172 -3 -171
-11 0 -12 0 -7 48 -8 47 2 101 1 101 -106 -13 -107 -13 -91 8 -91 8 -152 -1
-153 -1 -5 13 -5 14 0 171 0 172 -10 80 -9 80 -10 100 -10 100 -7 143 -7 142
229 0 229 0 119 10 119 10 5 4 4 4 -1 151 -2 151 20 0 19 0 7 -41z"/>
<path d="M3140 1440 l-15 -10 11 0 11 0 -4 -297 -5 -298 1 -67 1 -67 -53 -9
-52 -10 -70 -11 -70 -10 -75 -12 -75 -11 -50 -3 -50 -3 -370 -8 -370 -9 -77 1
-78 0 -7 8 -7 7 -8 92 -8 92 -12 198 -12 199 11 39 10 39 -311 1 -311 1 -210
4 -210 3 -170 4 -170 5 -123 7 -122 8 5 -29 4 -29 20 -125 20 -125 5 -55 5
-55 6 -90 6 -90 10 -40 10 -41 87 10 87 9 280 -13 280 -13 68 -4 67 -5 0 11 0
11 -22 -1 -23 -2 -165 13 -165 12 -237 2 -236 1 -6 5 -5 5 -16 165 -17 165
-24 136 -24 137 0 8 0 7 128 -9 127 -8 160 -3 160 -2 503 -3 503 -4 0 -177 0
-178 11 -57 11 -57 6 -100 6 -100 50 -8 50 -8 65 6 65 7 373 3 372 4 83 15 82
15 95 16 95 16 52 2 52 1 -2 136 -2 135 1 100 0 100 2 153 3 152 -3 0 -3 0
-15 -10z"/>
<path d="M6 1250 l4 -115 14 -120 15 -120 16 -165 16 -165 8 -15 8 -15 199 5
199 5 95 -1 95 -1 141 -8 141 -8 7 -60 6 -60 0 -71 0 -72 11 -11 12 -12 -7
-25 -6 -26 -38 -1 -37 -1 -39 2 -38 2 6 -11 7 -11 -28 11 -28 10 -165 5 -165
4 -80 10 -80 10 -113 5 -114 5 7 -108 7 -107 9 -9 9 -10 5 6 5 5 -10 98 -11
97 3 3 3 3 130 -11 130 -11 132 0 131 -1 -4 -6 -4 -7 128 -6 127 -6 65 3 64 2
9 40 9 40 -11 60 -10 60 -7 92 -6 93 -21 0 -21 0 -123 4 -123 5 -9 5 -9 6 -78
0 -79 0 -155 -5 -155 -5 -52 -3 -51 -3 -11 95 -11 96 -20 180 -20 180 -15 100
-15 100 -4 30 -5 30 5 -115z"/>
<path d="M3160 348 l-2 -133 1 -75 1 -75 6 -28 6 -29 8 9 9 8 -9 70 -9 70 6
158 6 157 -11 0 -10 0 -2 -132z"/>
<path d="M2905 459 l-160 -7 -130 -6 -130 -5 -140 -7 -140 -7 -200 -1 -200 0
-55 4 -55 4 -2 -212 -2 -212 9 0 10 0 0 206 0 206 28 -6 27 -6 45 -1 45 -1
135 1 135 1 275 10 275 10 200 11 200 10 40 8 40 9 -45 -1 -45 0 -160 -8z"/>
<path d="M3030 419 l-35 -9 -235 -5 -235 -6 -190 -9 -190 -10 -200 4 -200 5
-2 -190 -1 -189 11 0 12 0 -1 183 -2 182 282 1 281 2 297 5 297 6 76 10 77 11
22 6 22 5 -3 -205 -3 -206 10 0 10 0 -1 210 -1 210 -32 -1 -31 -1 -35 -9z"/>
<path d="M3071 385 l-1 -10 -22 -1 -23 -1 -75 -7 -75 -7 -290 -6 -290 -6 -242
3 -243 2 0 -44 0 -45 -11 -82 -11 -82 7 -45 6 -44 8 0 8 0 -4 27 -3 28 7 135
8 135 310 3 310 2 260 3 260 4 53 8 52 8 0 -177 0 -176 8 0 7 0 -3 173 -3 172
-3 20 -3 20 -2 -10z"/>
<path d="M3014 330 l-9 -9 -100 -9 -100 -8 -105 3 -105 3 -130 -3 -130 -2
-205 0 -205 0 -33 5 -32 5 -6 -152 -6 -153 10 0 11 0 2 108 1 107 -1 38 -1 38
22 -7 21 -6 231 2 231 1 70 2 70 1 81 -2 81 -2 6 -52 7 -52 -3 -3 -3 -2 -275
-6 -274 -6 -62 9 -63 9 -1 -36 -1 -36 0 -40 0 -40 1 -12 1 -13 8 0 9 0 -5 74
-4 73 203 0 204 0 149 2 148 1 -7 17 -7 18 -5 48 -6 47 15 0 16 0 6 -31 6 -32
0 -49 0 -50 -319 4 -319 3 -8 -8 -7 -7 159 -1 159 -2 135 -3 135 -3 43 5 43 5
-6 52 -6 52 -5 33 -5 32 21 0 20 0 2 -67 1 -68 1 -25 1 -25 -50 -6 -50 -6
-293 2 -294 2 6 -21 6 -21 0 -22 0 -23 10 0 11 0 -6 34 -7 34 12 7 11 7 4 -4
4 -4 3 -37 2 -37 9 0 10 0 11 15 11 15 334 1 333 1 -7 77 -7 76 -1 50 -2 50
25 -1 25 -2 55 9 54 9 6 -10 6 -11 -1 -139 -2 -140 23 0 22 0 -13 37 -13 37
-1 125 -2 125 -3 3 -2 3 -10 -10z m-184 -117 l0 -78 6 -38 7 -37 -331 0 -331
0 -6 10 -6 10 293 0 293 0 24 7 24 6 -7 99 -6 98 20 0 20 0 0 -77z"/>
<path d="M2056 113 l-6 -28 2 -37 1 -38 14 0 13 0 0 65 0 65 -9 0 -9 0 -6 -27z"/>
</g>
</svg>
