<?xml version="1.0" standalone="no"?>
<!DOCTYPE svg PUBLIC "-//W3C//DTD SVG 20010904//EN"
 "http://www.w3.org/TR/2001/REC-SVG-20010904/DTD/svg10.dtd">
<svg version="1.0" xmlns="http://www.w3.org/2000/svg"
   viewBox="0 0 305.000000 507.000000"
 preserveAspectRatio="xMidYMid meet">
<metadata>
Created by potrace 1.16, written by Peter Selinger 2001-2019
</metadata>
<g transform="translate(0.000000,507.000000) scale(0.100000,-0.100000)"
fill="#000000" stroke="none">
<path d="M207 5033 l58 -33 15 -1 15 -1 8 1 8 1 -7 -11 -7 -12 16 6 17 6 -3
-12 -2 -12 22 1 22 0 -5 -7 -4 -8 20 -6 20 -6 11 6 11 7 44 -23 45 -23 -5 -13
-5 -13 10 0 11 0 29 -21 29 -20 11 7 12 7 -7 -11 -7 -12 13 -1 13 -1 8 1 7 1
-2 -12 -3 -13 22 0 21 0 9 -9 8 -9 -20 6 -20 7 20 -16 20 -16 38 -19 38 -20
11 7 11 7 -6 -10 -6 -10 65 -32 65 -33 15 6 15 6 -5 -9 -5 -8 25 -12 25 -11
11 6 11 7 -7 -11 -6 -10 52 -19 53 -18 12 1 13 2 -6 -9 -5 -9 13 -1 13 -1 8 1
8 1 -5 -9 -6 -10 22 -7 23 -8 8 2 8 2 -7 -11 -7 -12 17 6 17 7 -5 -9 -6 -9 55
-28 55 -28 11 -13 11 -13 8 0 8 0 81 -46 81 -45 0 -4 0 -4 -14 5 -13 5 -7 -16
-6 -17 7 -11 6 -12 -8 7 -8 7 -19 -35 -19 -36 5 -15 6 -14 -11 6 -10 7 -14
-18 -14 -19 4 -13 5 -13 -9 5 -9 6 -12 -15 -12 -14 8 -13 7 -13 -8 7 -8 8 -14
-20 -14 -20 7 -12 7 -11 -10 6 -10 6 -62 -85 -62 -85 7 -11 7 -11 -11 7 -11 6
-6 -9 -6 -10 -53 29 -54 30 -12 0 -13 0 -71 41 -71 40 -27 17 -27 17 -78 46
-78 46 -60 31 -61 31 -59 35 -59 36 -14 0 -14 0 -54 -57 -54 -58 5 -12 4 -13
-7 3 -8 2 -55 -60 -56 -60 -48 -60 -48 -60 -54 -53 -53 -52 0 -20 0 -20 8 0 7
0 65 68 65 67 27 35 26 35 63 71 64 71 55 66 55 67 13 0 12 0 40 -25 40 -25
10 0 10 0 0 -11 0 -11 17 6 17 7 -7 -7 -7 -8 47 -22 47 -23 9 6 10 6 -6 -10
-7 -11 16 -6 16 -6 10 7 11 6 -7 -11 -6 -11 11 -7 11 -7 10 14 9 14 -3 -17 -3
-17 84 -50 84 -51 10 7 10 6 -7 -11 -7 -11 72 -36 71 -36 14 5 14 5 -3 -12 -2
-12 17 1 18 2 -5 -8 -5 -8 16 -6 16 -6 18 0 18 0 47 52 46 51 -5 14 -6 14 9
-6 9 -5 84 122 83 123 29 55 29 55 8 3 9 4 0 24 0 24 -51 28 -51 27 -131 78
-132 77 -60 29 -60 29 -95 42 -95 43 -105 61 -105 61 -50 32 -50 33 -100 49
-100 49 -64 31 -63 30 -35 -1 -35 -1 59 -34z m53 -5 l0 -8 -9 0 -10 0 -5 8 -5
9 14 0 15 0 0 -9z"/>
<path d="M741 5021 l76 -48 46 -27 46 -27 38 -38 38 -38 90 -51 90 -50 57 -22
56 -21 34 -24 33 -24 50 -25 50 -25 45 -27 45 -26 24 -19 24 -19 11 0 12 0 44
92 45 92 104 165 103 166 21 23 20 22 -14 0 -14 0 -112 -168 -111 -167 -23
-40 -22 -40 -25 -50 -25 -50 -9 -12 -9 -11 -57 34 -57 33 -15 14 -15 13 -50
29 -50 29 -64 33 -64 33 -12 0 -13 0 -48 33 -49 33 -35 14 -35 14 -45 42 -45
42 -45 31 -45 32 -35 23 -35 23 -14 17 -13 16 -37 0 -36 0 76 -49z"/>
<path d="M825 5038 l39 -33 51 -46 50 -47 94 -57 93 -57 37 -13 36 -13 95 -50
95 -50 79 -41 79 -41 3 0 3 0 37 63 38 62 23 31 22 30 26 57 25 58 55 80 55
80 -1 12 0 12 -12 -19 -12 -19 -44 -66 -44 -66 -34 -69 -35 -70 -50 -78 -51
-78 -10 0 -9 0 -132 67 -131 67 -35 22 -35 23 -30 7 -29 7 -36 20 -35 20 -83
55 -83 55 -7 11 -7 11 -50 41 -50 41 -15 7 -15 7 40 -33z"/>
<path d="M840 5068 l5 -5 55 -44 55 -44 45 -30 45 -30 261 -131 261 -130 23
40 24 41 42 80 42 80 37 65 37 65 21 25 21 25 -26 -25 -27 -25 -35 -60 -36
-60 -36 -73 -36 -74 -30 -44 -30 -45 -7 3 -6 3 -230 114 -230 115 -55 35 -55
36 -55 40 -55 41 -15 9 -15 8 5 -5z"/>
<path d="M983 5020 l76 -50 168 -86 167 -86 20 -14 20 -14 13 0 12 0 50 -29
50 -30 45 92 45 91 -4 4 -3 4 -41 -86 -41 -86 -4 0 -3 0 -209 106 -209 106
-55 31 -55 31 -49 33 -48 33 -11 0 -10 0 76 -50z"/>
<path d="M1022 5058 l5 -13 44 -27 44 -28 70 -33 70 -34 69 -42 70 -42 75 -29
75 -29 2 2 2 2 29 65 30 65 51 78 51 77 -13 0 -13 0 -50 -77 -50 -78 -16 -32
-17 -32 0 -15 0 -15 -8 -5 -8 -5 -67 25 -68 24 -27 19 -27 18 -35 22 -35 21
-70 35 -70 36 -50 29 -50 30 -8 0 -9 0 4 -12z"/>
<path d="M1720 5032 l-25 -37 -23 -39 -22 -39 4 -4 5 -5 17 34 17 33 29 43 30
43 -4 4 -3 4 -25 -37z"/>
<path d="M2160 5024 l-35 -45 1 -14 2 -14 -8 2 -7 2 -36 -42 -35 -43 -22 -35
-21 -35 7 -12 7 -13 -8 7 -8 8 -19 -31 -18 -30 6 -10 5 -9 -11 2 -11 3 -25
-44 -25 -44 5 -14 6 -14 -9 6 -9 5 -31 -42 -31 -43 5 -13 5 -13 -10 6 -11 7
-11 -34 -12 -33 2 -8 2 -8 -9 6 -10 6 -27 -40 -26 -40 8 -12 7 -12 -11 7 -12
7 0 -11 0 -11 -47 -72 -47 -72 -24 -45 -24 -45 -55 -82 -55 -82 8 -12 7 -12
-10 6 -11 7 -51 -71 -51 -70 5 -10 6 -9 -9 2 -10 3 -24 -32 -23 -32 -33 -46
-33 -45 7 -12 7 -11 -10 6 -11 7 -31 -49 -31 -48 -20 -18 -19 -17 -50 31 -51
31 -32 15 -33 16 -30 17 -30 18 -50 29 -50 29 -85 54 -85 55 -53 36 -53 36
-39 22 -39 23 -15 -6 -14 -6 -60 -71 -59 -72 -63 -75 -62 -75 -18 -15 -18 -15
-36 -48 -37 -48 7 -11 7 -11 -11 7 -11 6 -6 -19 -6 -19 -25 -38 -25 -37 5 -14
6 -14 10 6 10 6 -2 -9 -3 -10 50 -36 50 -36 25 -11 25 -10 20 -19 20 -18 53
-31 53 -31 11 6 11 7 -6 -10 -7 -11 63 -40 62 -40 78 -46 79 -46 11 7 12 6 -7
-8 -7 -8 42 -32 42 -32 43 -22 43 -22 12 7 12 7 -8 -8 -7 -8 40 -24 40 -24 13
7 12 7 -7 -8 -8 -8 54 -36 54 -36 33 -26 34 -27 38 -21 38 -21 12 6 12 7 -7
-8 -8 -8 37 -23 38 -22 8 5 7 4 -2 -13 -3 -13 18 2 18 1 -5 -6 -6 -5 31 -19
30 -18 11 6 11 7 -7 -11 -7 -11 88 -52 88 -52 53 -34 53 -33 10 6 9 5 -2 -13
-3 -13 17 1 18 2 -5 -7 -4 -8 35 -17 35 -16 12 6 12 7 -7 -8 -8 -8 68 -39 67
-39 5 -8 5 -8 75 -39 75 -39 12 1 13 2 -5 -8 -4 -7 77 -50 77 -50 14 -8 14 -8
48 53 48 53 17 36 17 36 32 45 32 46 63 114 63 115 17 20 17 20 50 85 50 85
28 55 28 55 19 28 19 27 13 0 14 0 53 -33 54 -33 53 -33 52 -33 0 -3 0 -3 -26
-56 -25 -56 -9 -5 -9 -5 -49 -88 -50 -87 -52 -100 -53 -100 -30 -38 -30 -38
-47 -92 -48 -92 -33 -55 -34 -55 -32 -34 -32 -34 -28 -66 -28 -66 -37 -70 -37
-70 -49 -100 -49 -100 -8 -25 -7 -25 -76 -155 -75 -155 -27 -40 -27 -40 -23
-45 -24 -45 -35 -60 -34 -60 -2 -3 -2 -2 -112 75 -112 75 -14 0 -13 0 -109 77
-108 78 -50 31 -50 31 -80 42 -80 43 -110 82 -110 83 -24 13 -23 12 -12 -14
-12 -13 -125 -148 -124 -148 -48 -62 -48 -62 -68 -70 -67 -70 -52 -61 -52 -62
0 -9 0 -10 59 -13 59 -12 14 7 13 8 -8 -8 -7 -9 57 -18 58 -18 13 5 13 5 -5
-9 -6 -9 26 -6 25 -7 11 7 11 7 -6 -10 -7 -11 16 -6 16 -6 9 6 9 5 -2 -13 -3
-13 17 1 18 2 -5 -8 -5 -8 35 -12 35 -11 11 7 12 7 -6 -10 -7 -11 31 -11 31
-11 11 7 10 6 -6 -10 -6 -10 35 -17 35 -16 11 6 11 7 -6 -10 -6 -10 35 -17 35
-16 11 6 11 7 -6 -10 -6 -10 35 -17 35 -16 11 6 11 7 -7 -11 -7 -11 21 -11 20
-11 13 7 12 7 -7 -8 -8 -8 31 -19 30 -18 12 6 12 7 -7 -7 -7 -8 33 -29 33 -29
59 -30 59 -31 14 -12 15 -12 -7 18 -7 19 12 -5 13 -4 -3 -18 -3 -17 13 8 13 9
20 -3 20 -3 -32 20 -31 20 -59 26 -58 27 -25 23 -25 23 -81 50 -82 51 -118 59
-119 59 -70 28 -70 27 -40 23 -40 23 -100 30 -100 29 -42 12 -43 12 0 8 0 9
38 44 37 44 67 70 67 70 22 29 23 30 35 41 36 40 25 30 25 30 65 79 64 80 27
29 28 29 13 -5 13 -6 115 -82 115 -83 130 -75 130 -75 27 -24 26 -25 11 7 11
6 -2 -9 -3 -10 69 -47 68 -47 23 -2 23 -1 -3 -4 -4 -3 82 -55 82 -55 16 -14
16 -14 6 7 7 6 0 -11 0 -12 13 0 12 1 32 47 31 47 23 45 23 45 41 65 41 65 71
145 71 145 7 24 7 24 48 101 47 102 24 39 25 40 43 97 44 98 36 42 36 41 27
46 27 46 41 80 42 80 34 47 34 48 72 127 72 128 19 40 19 40 32 45 31 45 24
48 24 47 8 0 9 0 0 15 0 15 -37 20 -38 20 -70 45 -70 45 -30 14 -30 14 -20
-26 -20 -25 -73 -126 -73 -126 -33 -50 -34 -50 -47 -85 -48 -85 -11 -20 -11
-20 -40 -60 -41 -60 -11 -25 -11 -25 -37 -43 -37 -42 -19 0 -20 0 -24 26 -24
26 -46 29 -46 29 -9 -5 -8 -5 -6 16 -6 15 -11 -7 -12 -7 7 11 6 11 -22 6 -23
7 -36 24 -36 25 -9 -3 -9 -3 -33 33 -33 32 -10 0 -10 0 7 -12 8 -13 -33 33
-33 32 -8 0 -9 0 -6 -10 -6 -10 -10 0 -9 0 0 10 0 10 8 -1 7 -1 9 1 8 1 -53
28 -54 28 -77 50 -77 49 -48 27 -48 28 -95 61 -95 61 -46 23 -45 23 -50 39
-49 39 -75 46 -75 45 -49 23 -49 22 -86 57 -86 58 -60 33 -60 34 -70 47 -70
46 -37 18 -37 17 -24 22 -24 22 -29 12 -29 13 -45 39 -45 39 11 8 12 8 30 62
30 62 -6 6 -6 6 14 -5 15 -6 25 36 25 36 55 66 55 67 40 50 39 50 36 38 36 38
28 -15 29 -15 51 -36 51 -36 80 -51 80 -51 50 -30 50 -30 40 -22 40 -22 60
-33 60 -33 32 -23 32 -24 13 0 14 0 72 108 72 107 87 111 88 111 73 119 73
119 56 90 56 90 20 40 19 40 33 45 32 45 23 48 24 47 17 19 17 18 27 54 28 54
17 25 18 25 27 48 27 49 79 105 79 106 0 8 0 9 -12 0 -13 -1 -35 -45z"/>
<path d="M2243 5038 l-19 -33 -18 -35 -19 -35 -44 -60 -44 -60 -30 -54 -31
-53 11 6 10 7 33 60 32 61 29 31 29 31 30 60 31 61 15 18 15 17 -5 6 -6 5 -19
-33z"/>
<path d="M2296 5055 l-6 -17 0 -6 1 -7 10 18 11 19 -5 4 -5 5 -6 -16z"/>
<path d="M2331 5043 l-11 -28 15 19 15 20 0 8 0 8 -3 0 -4 0 -12 -27z"/>
<path d="M2352 5018 l-29 -53 -43 -75 -42 -75 -15 -17 -15 -17 8 -12 7 -12
-11 7 -12 7 0 -10 0 -11 -10 0 -10 0 25 50 25 50 -5 0 -5 0 -30 -57 -31 -58
-62 -107 -63 -107 -15 -18 -16 -18 -74 -118 -74 -118 -53 -82 -52 -82 -26 -50
-26 -50 6 6 6 5 56 95 56 94 66 100 65 100 62 95 62 95 33 60 33 60 18 22 17
23 5 -19 4 -18 -35 -53 -35 -53 -36 -62 -36 -62 -30 -52 -30 -52 -70 -109 -70
-109 -38 -63 -38 -63 -75 -125 -75 -125 -42 -56 -42 -57 -89 -118 -90 -119
-48 -56 -48 -56 8 -8 7 -8 -12 6 -11 7 -37 -42 -36 -43 -27 16 -27 17 -85 50
-85 51 -100 64 -100 64 -35 19 -35 19 -36 28 -37 27 -9 0 -10 0 -27 25 -27 25
-22 5 -22 6 -19 -26 -19 -26 -33 -34 -33 -35 -48 -62 -48 -61 3 -9 2 -9 -10 6
-10 6 -7 -16 -6 -17 14 -9 14 -9 25 -7 25 -6 45 -32 45 -32 78 -47 78 -47 11
7 11 7 -7 -11 -6 -10 37 -23 38 -22 90 -57 90 -57 88 -51 89 -52 11 7 12 6 -7
-8 -7 -8 95 -69 95 -69 11 7 11 7 -7 -11 -7 -11 19 -10 19 -10 7 4 6 5 -5 -7
-5 -6 20 -14 20 -14 13 7 12 7 -8 -8 -7 -8 41 -24 41 -23 11 7 12 6 -7 -8 -8
-8 31 -19 30 -18 11 6 11 7 -8 -13 -8 -13 16 6 17 6 -3 -9 -2 -9 59 -35 58
-36 11 7 10 6 -6 -10 -6 -10 77 -43 77 -44 56 -38 57 -37 6 4 6 5 -5 -7 -5 -6
27 -18 27 -18 9 6 10 6 -8 -13 -8 -13 16 6 17 6 -3 -12 -2 -12 17 1 18 2 -6
-9 -5 -9 13 -1 13 -1 8 1 8 1 -6 -9 -6 -10 21 -11 20 -11 10 6 10 6 -2 -12 -3
-13 29 -10 29 -11 4 10 3 10 116 185 116 185 76 125 76 125 50 60 49 60 29 47
30 48 8 0 9 0 6 -11 7 -10 15 5 14 6 -5 -9 -5 -8 90 -52 91 -51 11 7 12 6 -7
-8 -8 -8 20 -14 20 -14 12 7 11 7 -8 -13 -8 -13 17 6 17 7 -5 -9 -6 -9 15 -6
15 -5 0 19 0 19 -77 42 -78 42 -77 44 -78 45 0 9 0 9 -20 0 -19 0 -11 -20 -11
-20 7 -12 7 -11 -11 7 -10 6 -35 -57 -36 -58 -31 -30 -32 -30 -25 -42 -25 -42
7 -11 6 -10 -11 2 -11 3 -62 -101 -62 -100 -88 -140 -87 -139 -19 -24 -18 -24
-199 130 -199 130 -120 70 -120 71 -95 53 -95 53 -80 55 -80 55 -36 27 -36 28
-144 84 -144 84 -85 55 -85 54 -100 59 -100 59 -39 28 -39 28 -14 0 -13 0 0
13 0 13 37 45 37 44 48 53 48 54 -7 11 -6 12 8 -7 8 -8 14 11 13 12 20 -18 20
-18 18 -11 19 -11 39 -28 39 -28 80 -49 80 -49 73 -43 73 -43 96 -63 95 -63 8
3 9 3 78 86 79 86 74 99 75 99 22 32 21 31 -6 8 -7 7 12 -7 12 -7 35 53 35 53
30 41 30 41 64 114 63 114 20 34 19 33 85 138 85 138 20 34 20 33 20 35 20 36
59 99 59 100 43 73 44 73 0 4 0 4 55 92 55 92 0 3 0 4 -14 0 -14 0 -30 -52z"/>
<path d="M2631 5023 l-48 -50 -16 -33 -17 -33 0 -19 0 -20 -57 -96 -57 -97
-28 -36 -27 -36 7 -7 7 -8 -15 4 -15 3 2 -18 1 -18 -5 5 -6 5 -77 -152 -77
-152 -82 -160 -82 -160 -17 -24 -17 -24 -20 -48 -21 -48 -20 -23 -21 -23 -32
-65 -31 -65 -51 -65 -51 -65 -51 -60 -52 -60 -50 -55 -50 -55 -18 -13 -17 -13
6 -11 7 -11 -10 6 -10 6 -27 -37 -26 -37 -25 -38 -25 -38 0 -10 0 -9 23 -9 23
-9 30 -25 29 -24 212 -142 213 -141 17 0 18 0 25 32 25 32 38 41 38 40 76 113
75 112 9 6 9 5 15 32 15 32 12 20 13 20 51 80 51 80 42 68 43 67 12 0 13 0
149 -76 149 -77 65 -37 65 -37 43 -22 42 -21 0 18 0 18 -87 44 -87 45 -56 28
-55 29 -117 64 -117 64 -5 0 -6 0 -25 -37 -25 -38 -42 -65 -43 -65 -15 -26
-15 -26 -20 -33 -20 -33 -51 -76 -51 -76 -24 -35 -24 -35 -43 -58 -43 -57 -45
-53 -45 -52 -15 -17 -16 -17 -42 26 -41 26 -25 17 -25 17 -55 34 -55 35 -116
78 -116 77 -18 20 -18 19 16 34 16 34 60 64 61 65 -8 7 -7 8 13 -4 13 -3 65
75 64 75 85 112 85 111 16 37 15 37 27 42 27 41 25 48 25 48 83 162 83 162 40
75 41 75 44 85 45 85 18 20 18 20 66 115 65 115 35 76 35 76 37 42 38 42 -7 6
-6 7 -49 -51z"/>
<path d="M46 5031 l52 -28 30 -21 30 -22 64 -29 64 -28 78 -48 78 -47 59 -29
60 -30 62 -40 62 -40 75 -36 75 -35 65 -24 65 -25 35 -23 35 -22 45 -18 45
-18 95 -57 95 -57 18 -7 17 -6 0 -12 0 -13 -38 -60 -37 -61 -10 -16 -10 -16
-53 -77 -53 -77 -8 3 -7 3 -194 99 -195 99 -100 67 -100 67 -50 27 -50 26 -18
13 -19 12 -16 -25 -17 -24 -53 -71 -53 -70 -62 -74 -62 -73 -73 -84 -73 -84 5
0 5 0 45 48 44 47 44 55 43 55 37 40 37 40 53 69 53 69 23 33 22 34 68 -37 67
-37 115 -76 115 -76 130 -63 130 -63 30 -22 30 -22 27 -11 26 -12 14 17 15 17
21 36 22 36 31 39 31 39 9 23 9 23 40 59 40 59 -19 6 -18 5 -105 63 -105 63
-57 23 -57 24 -22 17 -22 17 -59 22 -59 22 -92 44 -93 44 -70 46 -71 45 -9 0
-9 0 -26 20 -26 21 -153 77 -154 78 -44 30 -45 30 -28 12 -28 12 -7 0 -7 0 51
-29z"/>
<path d="M2715 5019 l-29 -41 -20 -16 -21 -17 -3 -20 -4 -20 -29 -60 -29 -60
-49 -83 -50 -84 -45 -49 -46 -50 0 -11 0 -10 -40 -76 -40 -75 4 -4 3 -4 44 82
44 81 12 22 12 21 31 35 32 35 20 40 21 40 27 40 27 40 43 85 42 85 40 53 40
54 -5 4 -4 4 -28 -41z"/>
<path d="M2775 5009 l-40 -51 -27 -28 -28 -29 0 -17 0 -16 -49 -87 -48 -86
-56 -85 -56 -85 -16 -22 -15 -22 -35 -68 -35 -68 16 20 15 20 41 70 41 70 62
96 63 97 22 43 22 43 43 65 42 66 26 40 27 40 16 23 16 22 -3 0 -4 0 -40 -51z"/>
<path d="M2861 5051 l-1 -13 -27 -34 -28 -34 -29 -35 -28 -36 -18 -32 -17 -32
-48 -78 -47 -78 4 -4 4 -5 73 123 73 122 50 62 50 63 -5 12 -5 13 -1 -14z"/>
<path d="M2995 5045 l30 -14 15 0 15 1 -30 13 -30 14 -15 0 -15 -1 30 -13z"/>
<path d="M111 5046 l4 -3 115 -60 115 -60 55 -31 55 -32 11 0 10 0 119 -71
118 -70 107 -54 108 -54 103 -46 104 -47 85 -51 85 -51 41 -25 42 -26 16 -10
17 -10 -19 -35 -18 -35 -29 -45 -29 -45 -52 -80 -52 -80 -39 -43 -38 -44 -75
40 -75 39 -22 7 -22 7 -73 41 -73 42 -115 70 -115 70 -75 37 -75 37 -17 -9
-16 -9 -20 -33 -21 -32 -27 -25 -26 -25 -57 -70 -56 -70 -93 -105 -94 -105 87
90 87 90 65 80 65 80 59 63 59 63 58 -21 57 -21 50 -33 50 -33 105 -62 105
-62 20 -11 20 -11 134 -69 135 -68 7 7 7 8 64 90 64 90 23 40 24 40 50 73 49
74 -8 7 -9 8 -160 94 -160 95 -55 23 -55 24 -120 58 -120 58 -80 47 -80 47
-65 43 -65 44 -50 18 -50 18 -122 62 -123 62 -7 0 -6 0 4 -4z"/>
<path d="M2836 4944 l-75 -94 -27 -47 -26 -48 -54 -80 -54 -81 0 -7 0 -8 -36
-56 -35 -55 -6 5 -5 6 30 53 30 53 22 38 22 37 -5 0 -6 0 -34 -57 -34 -58 -32
-58 -32 -59 10 7 11 6 0 -6 0 -6 -20 -40 -21 -40 6 -10 6 -9 -13 2 -13 3 2
-25 2 -25 -5 13 -6 12 -7 0 -7 0 -18 -62 -19 -63 -55 -105 -56 -105 -35 -55
-34 -55 -8 -5 -8 -6 -17 -39 -16 -40 -13 -15 -13 -15 -43 -80 -42 -80 -22 -30
-23 -30 -26 -50 -27 -50 -72 -102 -72 -102 -43 -56 -43 -56 12 -15 12 -15 14
5 14 6 -6 -9 -5 -10 22 -7 23 -8 8 2 8 2 -5 -9 -6 -9 15 -12 14 -12 12 8 12 7
-7 -11 -6 -10 37 -23 38 -23 17 -19 17 -19 27 44 26 43 53 80 52 80 38 60 38
60 23 25 24 26 36 59 36 60 12 30 13 30 35 45 34 45 34 63 35 62 6 0 6 0 79
-45 79 -45 7 0 8 0 71 -45 70 -46 97 -50 97 -49 13 5 13 5 -5 -8 -5 -8 20 -12
19 -12 0 20 0 21 -47 20 -48 21 -70 36 -70 36 -60 36 -60 36 -85 43 -85 43
-16 14 -16 14 -15 0 -15 0 -33 -62 -34 -63 -53 -79 -53 -78 0 -8 0 -8 -35 -58
-35 -58 -24 -26 -23 -25 -38 -60 -38 -60 -38 -55 -38 -55 -28 -47 -28 -48 -6
0 -6 0 -83 65 -83 65 -9 0 -8 0 0 17 0 17 38 45 38 46 60 89 59 89 25 47 25
47 28 40 27 40 28 50 27 51 39 69 39 68 52 80 53 80 21 45 21 45 31 55 31 55
16 25 17 25 22 45 23 45 0 12 0 12 22 43 22 43 42 62 42 62 7 21 7 22 52 78
51 78 25 42 25 43 50 61 50 62 15 23 15 23 64 -26 64 -26 4 0 3 0 0 14 0 13
-70 25 -70 25 -74 -93z"/>
<path d="M0 5011 l0 -8 53 -28 52 -28 40 -27 40 -27 15 -7 15 -7 -30 23 -29
23 -78 47 -78 46 0 -7z"/>
<path d="M2265 4990 l-16 -30 5 0 5 0 16 30 16 30 -5 0 -5 0 -16 -30z"/>
<path d="M2299 4988 l-12 -23 -15 -25 -14 -25 17 20 17 20 14 28 15 27 -5 0
-5 0 -12 -22z"/>
<path d="M0 4966 l0 -15 33 -25 33 -25 72 -40 73 -40 17 5 17 6 -13 -10 -13
-9 26 -17 26 -17 11 7 11 7 -6 -10 -6 -10 27 -12 27 -12 52 -36 52 -36 16 7
16 6 -6 -10 -6 -9 178 -87 178 -86 145 -70 145 -70 35 -20 35 -19 17 -6 16 -5
5 -20 6 -20 -6 6 -6 6 -24 -35 -24 -35 7 -13 7 -12 -8 7 -7 7 -18 -21 -17 -21
-69 36 -69 37 -65 30 -65 29 -47 28 -47 28 -88 54 -88 54 -15 12 -15 12 -45
24 -45 24 -34 23 -34 22 -8 0 -8 0 -26 -27 -25 -28 5 -13 5 -13 -9 5 -9 6 -58
-73 -58 -72 -46 -51 -45 -51 -55 -69 -55 -69 -3 -28 -3 -27 44 47 44 48 44 60
44 60 -3 8 -2 8 9 -6 10 -6 33 44 33 44 65 80 65 81 22 -2 21 -1 -4 -4 -4 -4
20 -14 20 -14 13 7 12 7 -7 -8 -8 -8 20 -14 20 -14 12 7 11 7 -7 -11 -7 -12
13 -1 13 -1 8 1 8 1 -6 -10 -6 -10 18 -7 18 -6 27 -19 28 -19 11 7 12 7 -7
-12 -7 -11 18 -7 18 -6 30 -22 30 -22 110 -58 110 -57 12 -10 13 -10 24 -2 24
-1 -4 -4 -4 -4 50 -23 50 -23 15 5 15 6 0 7 0 8 45 69 45 69 0 12 0 11 -77 45
-78 46 -20 7 -20 7 -125 59 -125 60 -160 81 -160 80 -35 20 -35 19 -15 12 -15
13 -58 32 -58 32 -11 -7 -11 -7 7 11 7 11 -20 10 -20 11 -17 -7 -17 -6 8 13 8
13 -11 -7 -12 -7 0 13 0 14 -42 19 -43 18 -10 12 -10 12 -37 22 -38 23 0 -16z"/>
<path d="M2229 4933 l-14 -18 18 14 17 13 0 4 0 4 -4 0 -4 0 -13 -17z"/>
<path d="M2174 4853 l-39 -58 -8 -15 -9 -15 29 34 28 35 23 38 23 38 -4 0 -4
0 -39 -57z"/>
<path d="M2241 4883 l-11 -28 15 19 15 20 0 8 0 8 -3 0 -4 0 -12 -27z"/>
<path d="M280 4847 l65 -33 70 -45 70 -46 91 -51 91 -52 99 -46 99 -45 190
-95 190 -94 24 -19 23 -18 -28 -44 -28 -44 -49 -67 -50 -68 -3 0 -3 0 -43 25
-43 25 -30 14 -30 15 -70 31 -70 31 -60 38 -60 38 -135 83 -135 84 -30 22 -30
23 -73 -102 -73 -102 -85 -100 -85 -100 -39 -45 -40 -44 0 -5 0 -4 21 19 22
19 78 95 78 95 40 45 41 45 55 83 56 82 5 0 5 0 57 -39 57 -38 145 -88 145
-88 55 -31 55 -32 61 -22 60 -23 39 -35 39 -35 15 3 15 3 28 40 29 40 56 83
56 84 -14 9 -14 10 -245 120 -245 120 -114 57 -113 57 -5 13 -5 12 -9 0 -9 0
-76 46 -76 46 -76 39 -76 39 -11 0 -10 -1 65 -32z"/>
<path d="M0 4767 l0 -14 60 -38 60 -38 0 -7 0 -8 30 -12 30 -12 -5 -8 -5 -8
12 -5 13 -5 -17 -1 -18 -1 0 9 0 10 -22 6 -23 7 -35 27 -35 28 -25 13 -25 12
10 -9 10 -9 38 -28 37 -27 -5 -9 -6 -9 26 -7 25 -6 0 -5 0 -5 -66 -74 -66 -74
9 0 9 0 36 48 36 47 30 29 30 28 12 -7 12 -7 -34 -37 -34 -36 -53 -62 -53 -63
4 -12 4 -12 80 94 79 94 29 30 28 30 -26 23 -27 23 -15 0 -14 0 0 9 0 9 -57
39 -58 39 -12 8 -13 7 0 -14z"/>
<path d="M2012 4673 l-19 -28 -7 -12 -7 -13 4 0 4 0 27 40 26 40 -4 0 -5 0
-19 -27z"/>
<path d="M2069 4678 l-12 -23 -15 -25 -14 -25 17 20 17 20 14 28 15 27 -5 0
-5 0 -12 -22z"/>
<path d="M3017 4668 l-24 -33 -13 -25 -13 -25 -72 -90 -72 -90 -18 -35 -17
-35 -14 -15 -13 -15 -47 -90 -46 -89 -34 -49 -34 -49 0 -10 0 -9 -31 -45 -31
-45 4 -4 4 -4 114 -67 115 -68 70 -33 70 -34 15 -9 15 -10 47 -25 47 -25 6 0
5 0 0 10 0 10 -47 25 -48 25 -30 18 -30 18 -45 18 -45 17 -65 44 -65 43 -47
22 -48 22 0 10 0 10 31 56 31 56 19 28 20 28 41 78 40 77 46 78 45 77 24 26
24 26 42 55 42 55 33 45 32 45 0 19 0 19 -4 0 -5 0 -24 -32z"/>
<path d="M0 4662 l0 -7 35 -19 35 -19 0 -10 0 -10 -35 -38 -35 -39 1 -13 0
-12 12 19 12 19 29 34 30 35 -10 16 -11 16 -31 18 -32 18 0 -8z"/>
<path d="M0 4622 l0 -12 10 0 11 0 -12 -22 -11 -23 18 18 18 17 -17 17 -17 17
0 -12z"/>
<path d="M230 4600 l0 -10 16 0 15 0 -6 10 -6 10 -10 0 -9 0 0 -10z"/>
<path d="M1934 4554 l-36 -56 4 -3 3 -4 37 60 37 59 -5 0 -4 0 -36 -56z"/>
<path d="M2014 4588 l-8 -13 -14 -25 -14 -25 17 20 16 20 10 18 10 17 -5 0 -5
0 -7 -12z"/>
<path d="M3023 4561 l-22 -38 -67 -89 -66 -89 -10 -12 -10 -13 5 0 5 0 85 113
85 112 12 23 12 24 -4 3 -3 4 -22 -38z"/>
<path d="M1952 4493 l-19 -28 -7 -12 -7 -13 4 0 4 0 27 40 26 40 -4 0 -5 0
-19 -27z"/>
<path d="M3016 4472 l-28 -46 17 14 16 14 15 29 15 29 -3 3 -4 4 -28 -47z"/>
<path d="M3028 4428 l-15 -33 -45 -81 -44 -80 -50 -61 -49 -62 -37 -58 -37
-58 -7 -17 -6 -18 11 0 11 0 0 17 0 17 38 58 37 59 51 62 50 62 43 80 43 80 8
5 8 5 7 28 7 27 -4 0 -4 0 -16 -32z"/>
<path d="M1825 4368 l-38 -63 -4 -7 -4 -8 4 0 4 0 38 63 38 62 4 8 4 7 -4 0
-4 0 -38 -62z"/>
<path d="M2941 4358 l-41 -63 -47 -62 -48 -62 -45 -76 -45 -76 -22 -34 -21
-33 81 -44 82 -45 75 -43 75 -43 32 -14 33 -13 0 4 0 4 -92 47 -93 47 -25 18
-25 17 -52 27 -52 26 -5 9 -6 9 26 53 25 54 42 66 42 66 40 53 40 53 28 41 28
41 10 18 10 17 -5 0 -4 0 -41 -62z"/>
<path d="M2421 4349 l-41 -61 0 -19 0 -18 -9 -5 -9 -6 -15 -45 -16 -45 5 0 5
0 35 78 34 77 8 15 8 15 23 38 23 37 -5 0 -5 0 -41 -61z"/>
<path d="M1880 4380 l-11 -20 5 0 5 0 11 20 11 20 -5 0 -5 0 -11 -20z"/>
<path d="M3005 4304 l-38 -69 -20 -35 -19 -35 -38 -41 -38 -42 -15 -28 -15
-29 -23 -19 -22 -18 17 -10 16 -9 12 7 11 7 -6 -10 -7 -11 27 -7 27 -6 56 -35
55 -34 9 0 9 0 19 -17 18 -16 7 6 6 7 -17 19 -18 20 -42 22 -41 21 -47 24 -48
24 0 6 0 5 16 32 17 32 37 45 37 45 52 98 52 98 -3 11 -4 12 -39 -70z"/>
<path d="M2350 4319 l-12 -21 5 -4 4 -4 11 25 12 25 -5 0 -4 0 -11 -21z"/>
<path d="M2285 4298 l-16 -33 20 25 21 25 0 8 0 7 -5 0 -4 0 -16 -32z"/>
<path d="M1831 4287 l-13 -22 18 17 18 18 -5 4 -5 5 -13 -22z"/>
<path d="M2797 4243 l-43 -68 -8 -12 -7 -13 4 0 4 0 35 53 35 52 17 28 18 27
-5 0 -6 0 -44 -67z"/>
<path d="M1724 4203 l-47 -78 -31 -55 -32 -55 -18 -30 -18 -30 17 20 17 20 25
45 26 45 37 60 37 60 22 38 23 37 -5 0 -5 0 -48 -77z"/>
<path d="M2322 4263 l-7 -18 -44 -75 -44 -75 -47 -80 -48 -80 -26 -52 -26 -53
5 0 5 0 26 53 27 52 47 80 47 80 44 75 44 75 7 18 7 17 -5 0 -5 0 -7 -17z"/>
<path d="M2236 4208 l-25 -53 -21 -32 -22 -33 5 0 5 0 30 48 31 47 16 38 15
37 -4 0 -5 0 -25 -52z"/>
<path d="M1785 4210 l-16 -30 5 0 5 0 16 30 16 30 -5 0 -5 0 -16 -30z"/>
<path d="M1730 4120 l-11 -20 5 0 5 0 11 20 11 20 -5 0 -5 0 -11 -20z"/>
<path d="M2294 4088 l-26 -53 -23 -30 -22 -30 -58 -100 -58 -100 -40 -70 -40
-70 -29 -43 -30 -43 5 -5 4 -5 80 133 80 133 33 60 34 60 36 55 37 55 27 53
26 52 -5 0 -5 0 -26 -52z"/>
<path d="M2720 4126 l0 -14 -50 -81 -50 -81 0 -7 0 -8 38 -21 37 -21 86 -50
86 -50 17 -6 16 -6 0 3 0 4 -77 42 -78 43 -47 30 -48 30 0 21 0 21 45 77 45
77 0 6 0 5 -10 0 -10 0 0 -14z"/>
<path d="M2143 4043 l-15 -38 -19 -37 -19 -38 5 0 5 0 19 38 19 37 15 38 16
37 -5 0 -5 0 -16 -37z"/>
<path d="M1680 3965 l-13 -15 6 -6 5 -6 12 21 11 21 -4 0 -5 0 -12 -15z"/>
<path d="M1630 3963 l0 -10 -39 -59 -40 -59 -22 -30 -21 -30 35 40 35 40 33
53 32 53 -7 6 -6 6 0 -10z"/>
<path d="M2780 3950 l15 -11 65 -31 65 -31 40 -27 40 -27 23 -12 22 -12 0 5 0
4 -72 45 -73 45 -62 31 -62 31 -8 0 -8 0 15 -10z"/>
<path d="M1560 3939 l0 -10 10 6 10 6 0 5 0 4 -10 0 -10 0 0 -11z"/>
<path d="M1614 3858 l-48 -73 -80 -103 -81 -103 -20 -27 -20 -27 -37 -50 -38
-50 -31 -35 -32 -35 -25 -37 -25 -38 -7 0 -7 0 -24 18 -24 19 -56 31 -56 32
-13 0 -12 0 69 -36 68 -36 22 -20 22 -21 -5 -11 -6 -11 34 36 33 36 61 74 61
74 134 180 135 180 17 28 17 27 16 25 16 25 -6 0 -5 0 -47 -72z"/>
<path d="M1493 3839 l-58 -82 -28 -31 -28 -31 -65 -97 -66 -96 -45 -54 -45
-53 -10 -4 -9 -3 -17 15 -17 15 -100 52 -100 52 -75 46 -75 46 -25 18 -25 19
-64 42 -64 42 -58 37 -57 37 -52 -57 -53 -57 -44 -57 -44 -58 -7 0 -8 0 -17
-29 -18 -30 -45 -53 -45 -53 -29 -47 -29 -46 162 -105 162 -104 60 -32 60 -31
50 -38 50 -38 100 -54 100 -53 45 -25 45 -24 20 -18 20 -18 130 -77 130 -78
75 -52 75 -52 46 -26 47 -25 83 -55 84 -54 110 -60 110 -60 145 -88 145 -87
43 -31 42 -31 13 16 12 16 46 58 45 59 9 15 8 15 -10 -10 -9 -10 -53 -67 -53
-68 -11 0 -11 0 -50 33 -51 34 -90 55 -90 55 -99 58 -99 58 -51 25 -51 24 -89
60 -89 59 -39 20 -40 20 -51 37 -51 37 -65 42 -66 42 -80 47 -80 47 -35 28
-36 27 -129 67 -130 67 -35 27 -35 26 -35 24 -35 24 -86 47 -85 48 -117 76
-117 77 0 8 0 7 63 84 62 83 25 32 25 33 57 68 56 69 40 43 40 42 9 0 8 0 56
-37 55 -38 45 -29 44 -30 95 -62 95 -62 110 -58 110 -57 32 -24 32 -25 32 37
32 36 31 42 31 42 22 30 22 30 72 100 72 100 27 35 26 35 23 33 22 32 -4 0 -5
0 -59 -81z"/>
<path d="M2052 3867 l-32 -53 0 -9 0 -10 35 59 36 58 -4 4 -3 3 -32 -52z"/>
<path d="M2049 3783 l-22 -38 -55 -105 -55 -105 -47 -70 -48 -70 -68 -79 -69
-79 -34 -46 -34 -46 -25 -27 -26 -28 5 -3 4 -3 55 -41 55 -40 95 -64 95 -63 3
-8 4 -8 10 0 9 0 15 -15 15 -15 19 0 18 0 14 23 15 22 98 125 97 125 25 48 24
48 44 61 45 60 -1 12 0 11 -12 -19 -12 -18 -22 -32 -22 -31 -33 -53 -33 -54
-18 -31 -19 -32 -18 -20 -19 -20 -23 -32 -23 -32 -58 -76 -58 -75 -39 25 -40
25 -5 0 -5 0 -82 57 -83 56 -55 41 -55 40 -4 3 -4 2 59 73 59 73 17 20 16 20
50 65 51 65 44 65 44 65 55 105 55 105 22 38 23 37 -5 0 -5 0 -23 -37z"/>
<path d="M1982 3725 l-32 -65 5 0 5 0 31 61 30 61 -3 4 -4 3 -32 -64z"/>
<path d="M2910 3777 l0 -4 70 -37 70 -36 0 7 -1 8 -64 33 -64 32 -6 0 -5 0 0
-3z"/>
<path d="M1484 3748 l-19 -23 23 19 22 19 0 4 0 3 -3 0 -4 0 -19 -22z"/>
<path d="M470 3753 l0 -8 -41 -45 -40 -45 -63 -75 -63 -75 -67 -88 -68 -89 4
-2 3 -2 51 -32 51 -32 7 0 7 0 54 -40 55 -40 76 -40 76 -39 52 -39 51 -39 145
-82 145 -83 70 -40 70 -41 45 -30 45 -31 40 -27 40 -27 60 -32 60 -33 86 -58
86 -58 79 -47 79 -47 55 -30 55 -30 15 -12 15 -12 65 -33 65 -33 50 -37 50
-38 60 -33 60 -32 18 -15 17 -15 4 4 3 4 55 65 54 65 18 28 18 27 -6 0 -6 0
-24 -37 -25 -38 -43 -49 -44 -49 -54 28 -55 27 -50 38 -50 37 -60 35 -60 35
-75 43 -75 43 -63 39 -63 38 -6 0 -6 0 -51 32 -51 32 -50 37 -50 36 -100 57
-100 58 -85 58 -85 59 -8 0 -7 1 -138 82 -137 82 -100 65 -99 66 -76 41 -75
40 -62 40 -62 39 -46 27 -45 27 0 9 0 8 42 52 43 51 35 46 35 47 27 34 26 35
62 66 62 66 46 -34 47 -33 125 -84 125 -85 114 -59 114 -59 46 -31 46 -32 6
-8 5 -8 26 27 25 28 54 70 54 70 27 40 27 40 40 45 40 45 1 10 0 10 -35 -40
-35 -40 -32 -45 -32 -45 -45 -60 -45 -60 -30 -32 -30 -33 -9 0 -10 0 -51 32
-51 32 -114 58 -115 58 -20 18 -21 18 -55 34 -55 34 -70 51 -70 50 -27 18 -28
17 0 -7z"/>
<path d="M448 3661 l-38 -49 0 -7 0 -6 -12 -14 -13 -13 -42 -48 -42 -49 -40
-52 -41 -52 0 -7 0 -7 -17 -20 -18 -20 12 7 12 7 71 -36 70 -35 73 -46 72 -45
125 -79 125 -79 75 -42 75 -42 60 -42 60 -42 115 -68 115 -67 20 -18 20 -17
195 -117 195 -117 17 -10 18 -9 67 -36 68 -36 44 -36 44 -37 31 -17 31 -17 24
-11 24 -11 37 -29 36 -29 27 -12 28 -13 17 25 17 24 53 63 53 63 41 75 40 74
-5 0 -5 0 -40 -74 -40 -74 -68 -81 -68 -80 -28 17 -28 17 -72 48 -73 48 -50
34 -50 33 -105 58 -105 57 -93 56 -93 56 -177 112 -177 111 -114 74 -114 73
-49 27 -50 27 -87 57 -86 58 -25 16 -25 16 -15 7 -15 7 -26 18 -26 17 -74 45
-74 45 -45 22 -45 22 -12 0 -13 1 0 8 0 9 40 57 40 57 67 77 66 77 14 15 14
15 13 19 13 19 25 -6 26 -7 42 -35 42 -35 91 -56 92 -56 70 -47 70 -48 15 -8
15 -8 -10 10 -10 10 -65 45 -65 45 -92 56 -93 56 -72 56 -73 55 -5 0 -5 -1
-37 -48z"/>
<path d="M2479 3708 l0 -3 -5 -23 -4 -23 -66 -95 -65 -94 -20 -43 -20 -42 -22
-31 -22 -32 -69 -103 -68 -104 -75 -102 -74 -103 -12 0 -12 0 -40 21 -40 22
-92 69 -93 69 0 12 0 12 27 40 27 40 59 70 58 69 43 66 43 65 17 35 16 35 -12
-19 -13 -18 -49 -77 -49 -76 -41 -50 -41 -50 -29 -33 -29 -32 -23 -38 -23 -37
-1 -7 0 -7 93 -68 92 -68 52 -34 53 -33 9 4 9 3 35 45 35 45 129 188 128 188
31 57 30 57 68 100 67 100 3 3 4 3 55 -26 55 -27 18 -19 17 -19 17 0 17 0 37
-25 36 -25 143 -72 142 -73 9 -4 9 -4 -6 10 -6 10 -138 68 -138 69 -39 28 -39
28 -12 0 -12 0 -34 23 -34 23 -57 32 -58 32 -1 -2z"/>
<path d="M1912 3605 l-32 -46 0 -9 0 -10 -8 0 -8 0 -47 -67 -46 -68 -65 -75
-66 -75 -31 -33 -30 -32 -44 -54 -43 -53 51 -38 52 -38 35 -27 35 -27 58 -36
57 -37 6 0 6 0 52 -37 51 -38 25 -22 25 -23 5 1 5 0 43 52 42 52 76 95 76 95
9 20 10 20 32 52 32 52 29 48 30 48 12 12 12 13 7 29 6 29 21 18 20 19 46 68
45 68 8 5 8 5 48 -25 48 -24 195 -102 195 -102 12 -10 12 -10 11 4 10 3 -63
34 -62 33 -140 73 -140 73 -58 31 -58 31 -13 0 -14 0 -17 -27 -18 -28 -56 -74
-55 -74 -3 10 -4 11 31 53 32 53 34 41 34 42 0 10 0 11 14 11 14 12 51 -31 52
-30 10 0 10 0 42 -21 42 -22 30 -22 30 -22 138 -66 137 -66 0 4 0 4 -62 35
-63 34 -55 23 -55 22 -45 30 -45 30 -100 50 -100 50 -8 11 -8 11 -15 -20 -15
-20 -50 -68 -50 -68 -15 -34 -14 -34 -10 -6 -11 -7 11 -13 11 -14 -17 -38 -17
-38 -42 -65 -42 -65 -27 -47 -27 -48 -51 -67 -51 -68 -55 -65 -54 -65 -7 -3
-7 -2 -61 40 -62 40 -5 0 -6 0 -62 38 -63 39 -67 51 -68 51 -21 20 -21 19 33
44 34 43 75 85 76 85 41 50 41 50 59 90 60 90 7 13 7 12 -3 0 -4 0 -32 -45z"/>
<path d="M2 3039 l5 -14 59 -34 59 -33 140 -90 140 -90 39 -28 39 -27 36 -19
36 -18 80 -45 80 -46 65 -47 65 -47 30 -21 30 -21 110 -72 110 -72 20 -12 20
-12 215 -109 215 -109 50 -27 49 -27 16 -14 17 -15 7 7 8 8 -4 -12 -3 -11 75
-51 75 -51 106 -70 106 -70 -16 -48 -16 -47 -7 -10 -7 -11 -25 -68 -26 -67
-34 -67 -35 -67 -31 -75 -31 -75 -8 -8 -8 -8 -77 46 -77 45 -4 0 -4 0 -74 45
-74 45 -54 25 -54 26 -20 12 -20 12 -50 31 -50 30 -78 45 -78 44 -52 28 -52
29 -78 49 -78 49 -4 0 -5 0 0 -11 0 -11 -20 -26 -20 -27 -51 -65 -50 -65 -12
-15 -12 -15 -41 -50 -41 -50 -16 -30 -15 -30 -39 -45 -38 -45 -30 -40 -30 -40
-75 -90 -76 -90 -41 -55 -41 -55 -59 -57 -58 -56 -52 -52 -53 -51 0 -14 0 -15
43 43 42 42 35 32 35 31 69 76 70 76 35 49 36 49 79 97 79 97 49 56 50 57 15
30 16 30 54 65 54 65 21 25 21 25 39 58 40 57 8 0 9 0 96 -60 96 -60 4 0 3 0
159 -97 158 -96 48 -24 48 -24 11 7 11 7 -7 -11 -7 -12 8 0 8 0 70 -45 69 -45
18 0 18 0 0 -9 0 -10 23 -7 22 -8 8 2 8 2 -5 -9 -6 -9 14 -11 13 -11 8 8 8 7
-7 -12 -6 -12 7 -4 8 -5 30 -6 31 -7 31 68 32 68 66 142 65 143 0 9 0 10 35
77 35 77 -2 2 -3 3 -105 71 -105 71 -77 55 -78 54 -21 20 -21 20 -262 132
-261 132 -140 90 -140 91 -93 65 -93 66 -67 39 -67 38 -55 28 -55 28 -45 33
-45 33 -120 76 -120 76 -79 43 -79 44 5 -14z"/>
<path d="M2706 2987 l-26 -34 0 -6 0 -6 -47 -78 -47 -78 -33 -50 -32 -50 -50
-72 -50 -71 -15 -31 -16 -30 0 -8 1 -8 19 35 18 35 52 75 51 75 27 40 26 40
66 110 66 110 30 -1 31 -2 62 -38 62 -39 75 -47 74 -48 0 8 -1 7 -62 38 -62
39 -70 44 -70 44 -12 0 -12 0 -15 15 -15 15 -25 -33z"/>
<path d="M0 2992 l0 -9 53 -37 52 -37 51 -37 51 -37 44 -30 44 -30 17 -10 16
-10 44 -28 43 -29 129 -69 128 -69 57 -41 56 -40 70 -45 70 -46 70 -41 70 -41
55 -36 55 -37 230 -118 230 -118 40 -32 40 -31 130 -87 130 -87 28 -23 27 -23
-14 -47 -14 -48 -15 -23 -16 -23 -6 -39 -7 -39 -18 -31 -17 -31 -13 -38 -13
-38 -24 -54 -24 -53 -10 0 -9 0 -72 37 -73 36 -40 27 -40 26 -90 48 -90 49
-111 73 -111 73 -44 21 -44 21 -64 34 -64 35 -26 23 -26 24 -29 19 -29 18 -16
-22 -16 -23 -43 -52 -44 -52 -48 -73 -49 -73 -26 -32 -26 -32 -125 -165 -125
-165 -89 -100 -88 -100 -22 -27 -21 -28 4 0 4 0 111 128 110 127 76 98 76 97
73 97 72 96 45 66 45 67 52 63 53 63 9 16 9 16 58 -45 58 -44 61 -34 60 -33
50 -25 50 -25 99 -66 99 -66 31 -18 31 -18 65 -33 65 -33 55 -36 55 -35 65
-31 64 -32 7 8 7 7 31 75 32 75 25 52 24 52 0 15 0 14 21 49 22 48 18 50 19
50 -17 13 -17 12 -9 0 -9 0 -37 29 -36 28 -95 63 -95 63 -51 38 -51 39 -79 40
-79 41 -155 79 -154 80 -71 46 -70 46 -105 65 -105 65 -110 73 -110 73 -75 38
-75 38 -99 65 -98 66 -50 31 -49 31 -22 20 -22 19 -52 38 -53 38 0 -10z"/>
<path d="M2730 2952 l0 -7 -66 -120 -67 -120 -33 -38 -32 -39 -38 -71 -38 -72
-35 -60 -36 -60 -22 -47 -23 -48 4 0 4 0 50 93 50 92 47 88 48 88 25 24 24 25
69 121 69 122 0 9 0 8 10 0 9 0 28 -12 28 -12 105 -64 105 -65 20 -16 20 -16
-23 27 -24 26 -56 32 -57 32 -75 44 -75 44 -7 0 -8 0 0 -8z"/>
<path d="M0 2946 l0 -3 73 -59 72 -58 75 -50 75 -51 63 -35 63 -35 107 -63
106 -64 25 -20 26 -20 65 -43 65 -44 55 -26 54 -26 16 -14 16 -15 85 -51 84
-51 95 -51 95 -51 60 -30 60 -30 37 -26 37 -27 33 -14 33 -13 115 -76 115 -75
87 -63 86 -63 -50 -127 -50 -127 -23 -55 -24 -55 -24 -3 -24 -3 -84 42 -84 43
-89 58 -89 58 -11 0 -11 0 -52 43 -52 42 -138 79 -138 80 -78 53 -78 53 -13 0
-12 0 -17 -35 -17 -35 -38 -43 -39 -42 -71 -105 -72 -105 -67 -95 -66 -95 11
10 11 10 61 85 60 85 62 90 61 90 37 41 37 40 27 47 28 47 7 0 6 0 87 -57 86
-58 49 -29 48 -29 65 -35 65 -35 48 -35 47 -36 0 -7 0 -8 55 -25 55 -26 97
-62 98 -62 72 -33 72 -33 10 0 11 0 0 18 0 17 14 27 14 27 33 88 32 87 28 69
29 70 -11 13 -11 14 -10 0 -9 0 -84 63 -84 62 -76 50 -76 50 -61 33 -62 32
-45 30 -46 29 -30 13 -30 13 -90 49 -90 49 -70 41 -70 41 -35 22 -35 23 -11 9
-11 9 -49 25 -49 25 -70 46 -70 46 -40 28 -40 29 -75 45 -75 45 -60 32 -60 31
-84 55 -85 55 -87 70 -88 70 -5 0 -6 0 0 -4z"/>
<path d="M0 2897 l0 -12 41 -43 41 -43 48 -24 49 -25 6 -10 6 -10 57 -31 57
-30 147 -92 147 -92 138 -86 138 -87 53 -27 54 -26 66 -43 67 -42 55 -26 55
-25 79 -51 80 -52 9 0 8 0 42 -29 42 -29 66 -29 66 -30 84 -58 84 -58 30 -27
30 -27 35 -19 35 -19 3 -2 4 -1 -26 -72 -27 -73 4 -4 4 -3 17 47 17 48 14 32
14 32 -42 21 -42 22 -25 22 -25 23 -95 63 -95 63 -25 17 -25 17 -27 6 -26 7
-29 23 -28 23 -47 22 -47 22 -53 34 -53 33 -75 38 -75 38 -25 17 -25 18 -105
57 -105 57 -128 81 -129 82 -75 48 -75 47 -4 0 -4 0 -83 53 -82 54 -45 29 -45
29 -26 11 -27 12 -61 61 -61 61 0 -13z"/>
<path d="M2745 2880 l-18 -20 5 -6 6 -5 15 16 16 15 8 0 8 0 85 -53 85 -52 37
-28 37 -29 13 4 13 5 -28 14 -27 14 -103 67 -103 67 -15 6 -15 6 -19 -21z"/>
<path d="M0 2836 l0 -25 23 -21 22 -22 80 -52 80 -53 90 -59 89 -59 76 -40 75
-41 70 -43 70 -43 15 -13 15 -12 50 -28 50 -28 61 -32 60 -31 34 -24 34 -24
95 -50 96 -49 47 -31 46 -31 57 -35 57 -35 100 -55 99 -56 28 -26 28 -27 29
-7 29 -6 37 -25 37 -25 33 -17 33 -16 -3 -30 -3 -30 -2 -22 -2 -21 -7 4 -6 4
-12 -35 -11 -35 7 -12 7 -13 -8 8 -9 8 -11 -20 -10 -21 -30 27 -30 26 -85 41
-85 42 -40 25 -40 25 -100 54 -100 54 -120 74 -120 74 -50 33 -50 33 -41 25
-41 26 -30 -32 -31 -32 -38 -55 -38 -55 -74 -110 -74 -110 -18 -20 -18 -20
-54 -86 -53 -86 -52 -69 -53 -69 -10 -12 -10 -12 -37 -58 -38 -58 -42 -55 -41
-55 -66 -74 -66 -74 0 -26 0 -26 18 26 17 27 76 86 77 86 48 72 49 73 81 110
80 110 46 75 47 75 43 57 43 57 38 58 37 58 60 85 59 85 23 15 22 15 -7 -11
-6 -11 26 -12 27 -12 81 -53 80 -53 26 -14 25 -14 80 -52 79 -53 8 0 7 0 41
-25 40 -26 11 7 11 7 -6 -10 -7 -11 16 -6 16 -6 11 7 12 6 -7 -8 -8 -8 31 -19
30 -18 10 6 9 5 -2 -11 -3 -12 110 -56 111 -57 31 -22 31 -23 9 0 10 0 13 28
13 27 29 80 28 79 0 11 0 10 -38 25 -37 25 -43 33 -44 32 -12 0 -12 0 -65 43
-64 43 -65 33 -65 33 -15 13 -15 12 -95 58 -95 58 -100 54 -100 55 -15 13 -15
13 -125 67 -125 68 -30 21 -30 22 -75 46 -75 46 -55 27 -55 27 -20 18 -20 17
-140 87 -140 86 -15 13 -15 12 -32 38 -33 38 0 -25z"/>
<path d="M2713 2828 l-10 -13 -37 -65 -37 -65 -30 -50 -31 -50 -28 -30 -28
-30 -47 -95 -47 -95 -20 -28 -20 -28 5 -5 5 -5 25 43 25 43 41 82 41 82 28 33
29 33 35 55 36 55 40 73 41 72 -3 0 -4 0 -9 -12z"/>
<path d="M3003 2525 l-43 -63 -10 -27 -11 -28 5 -5 6 -5 7 19 6 19 45 73 44
74 -4 3 -3 4 -42 -64z"/>
<path d="M17 2512 l-17 -19 0 -19 0 -19 19 28 18 28 7 -16 6 -16 9 5 9 6 12
-15 12 -15 10 0 10 0 118 -70 118 -70 8 0 9 -1 60 -44 60 -44 57 -38 57 -38 1
-12 0 -13 -63 -86 -62 -85 -40 -62 -40 -62 -50 -60 -50 -60 -23 -23 -23 -23 7
-10 6 -10 -47 -44 -48 -43 -13 5 -14 5 -9 -23 -9 -24 6 -9 5 -9 -10 6 -11 7
-16 -25 -17 -26 7 -11 7 -11 -11 6 -10 7 -37 -50 -36 -50 3 -20 3 -21 36 49
37 48 133 151 134 152 19 27 19 27 14 -18 13 -19 0 10 0 10 -11 11 -10 10 40
61 41 61 0 9 0 10 14 11 14 12 68 99 67 99 -12 14 -11 15 -43 28 -42 29 -45
36 -45 37 -70 38 -70 38 -55 35 -55 36 -48 25 -48 25 -19 18 -19 17 -9 0 -9 0
-16 -18z m283 -826 l0 -4 -16 -6 -15 -6 6 10 6 10 10 0 9 0 0 -4z"/>
<path d="M3030 2485 l-10 -28 -20 -27 -20 -28 0 -17 0 -16 -55 -96 -55 -96 4
-4 4 -4 55 98 55 98 32 68 32 68 -5 6 -6 6 -11 -28z"/>
<path d="M39 2453 l-15 -18 -13 -20 -13 -20 28 32 29 31 43 -29 43 -29 99 -60
98 -59 84 -56 83 -55 20 -14 20 -15 -23 -40 -23 -41 4 0 4 0 27 40 27 40 -28
25 -28 24 -9 1 -10 0 -100 68 -101 68 -60 34 -60 34 -52 38 -52 38 -4 0 -4 0
-14 -17z"/>
<path d="M70 2413 l0 -8 -35 -39 -35 -38 0 -7 1 -6 39 44 40 43 25 -16 25 -16
0 -8 0 -8 58 -34 57 -34 70 -52 70 -51 48 -27 47 -28 0 -12 0 -12 -39 -60 -39
-59 -63 -67 -64 -67 -35 -48 -35 -48 -63 -69 -63 -69 -40 -58 -39 -58 0 -7 0
-7 50 71 50 71 58 63 58 63 41 55 42 55 63 67 63 67 40 62 40 62 -19 11 -18
11 -71 48 -72 48 -85 56 -85 56 -35 34 -34 33 -8 0 -8 0 0 -7z"/>
<path d="M3023 2361 l-21 -51 4 0 4 0 20 41 21 40 -3 10 -3 10 -22 -50z"/>
<path d="M2896 2318 l-37 -73 -39 -55 -39 -55 -31 -64 -31 -65 -29 -36 -28
-36 -25 -54 -24 -55 -57 -79 -56 -79 -39 -76 -38 -76 -38 -70 -37 -70 -24 -63
-24 -63 6 -11 7 -11 -11 7 -12 7 0 -10 0 -9 11 -4 11 -4 -74 -144 -73 -145
-22 -50 -23 -50 -19 -43 -20 -42 4 0 4 0 51 108 52 107 26 55 26 55 75 140 74
140 49 95 49 95 37 65 37 66 36 54 36 55 40 70 40 70 36 60 36 60 29 40 29 40
12 23 12 22 -4 0 -3 0 -46 -67 -45 -68 -68 -115 -69 -115 -58 -92 -59 -93 -15
-32 -15 -33 -28 -45 -27 -45 -12 -35 -12 -34 -41 -63 -41 -63 -5 0 -5 0 7 28
7 27 53 106 54 106 31 59 32 59 21 35 21 35 37 50 37 50 30 62 31 63 24 32 25
33 35 70 36 70 35 50 35 50 36 69 35 69 -3 4 -4 4 -37 -73z"/>
<path d="M48 2306 l-48 -53 0 -7 0 -7 33 25 33 26 14 24 13 25 21 -11 21 -11
75 -57 75 -57 45 -26 45 -27 30 -24 30 -25 -12 -12 -13 -13 0 -10 0 -9 20 18
20 18 0 8 0 8 -102 67 -103 68 -65 49 -65 50 -3 8 -4 9 -6 -1 -7 -1 -47 -52z"/>
<path d="M2993 2228 l-53 -97 0 -5 0 -5 -61 -90 -60 -91 7 -12 7 -11 -11 7
-12 7 0 -9 0 -8 -46 -72 -46 -71 8 -12 7 -12 -11 7 -11 7 -21 -38 -20 -38 -9
-15 -10 -15 -81 -165 -81 -165 -41 -65 -41 -65 -62 -120 -62 -121 -25 -40 -26
-40 -22 -49 -22 -50 -34 -41 -33 -41 -13 -29 -13 -29 -33 -58 -34 -58 6 -15 6
-15 -10 6 -10 6 0 -8 0 -8 -54 -58 -53 -58 -54 21 -54 20 -72 36 -72 36 -38
32 -38 33 -60 40 -60 40 -150 88 -150 88 -95 65 -95 65 -27 25 -27 25 -8 -19
-7 -19 -30 -25 -31 -25 -20 -24 -20 -23 -44 -42 -44 -41 -41 -38 -41 -39 19
-14 19 -13 9 5 8 5 -2 -13 -3 -13 17 1 18 2 -5 -8 -5 -8 16 -6 16 -6 10 7 11
6 -6 -10 -6 -10 25 -12 25 -11 12 6 12 7 -8 -8 -8 -9 68 -32 67 -32 8 5 8 4
-2 -13 -3 -13 17 1 18 2 -5 -8 -5 -8 33 -11 32 -12 38 -25 38 -25 11 7 11 7
-6 -10 -7 -11 16 -6 16 -6 11 7 12 6 -8 -8 -7 -8 27 -19 28 -19 78 -40 78 -40
11 7 11 7 -7 -11 -7 -11 31 -16 31 -16 11 7 11 7 -6 -10 -7 -11 61 -26 61 -26
10 6 11 7 -6 -10 -6 -10 25 -12 25 -11 12 6 12 7 -7 -7 -7 -8 62 -31 62 -32
10 4 10 3 -7 -8 -8 -7 50 -29 51 -29 11 7 11 7 -7 -11 -6 -11 10 -6 10 -6 0
11 0 11 19 -11 20 -10 17 0 18 0 -60 36 -59 37 -45 28 -45 29 -45 21 -45 21
-205 100 -205 99 -60 38 -60 38 -48 27 -47 27 0 9 0 10 -22 0 -23 1 -150 77
-151 77 -19 12 -20 12 39 33 38 33 84 83 85 82 9 0 8 0 29 -23 28 -23 100 -66
100 -66 140 -83 140 -83 89 -67 89 -67 36 -19 36 -18 28 -18 28 -19 15 6 15 6
-7 -12 -7 -11 21 5 22 6 -5 -8 -5 -8 26 -6 25 -7 11 7 11 7 -7 -11 -6 -11 10
-6 11 -7 14 12 15 12 -6 9 -5 9 9 -2 9 -3 48 53 48 53 52 103 51 103 27 35 28
36 29 60 29 59 33 54 34 54 14 35 14 35 54 95 55 95 19 35 20 35 17 25 17 25
43 95 43 94 34 59 34 58 0 5 0 4 36 55 36 54 -8 12 -7 12 11 -6 10 -7 46 77
46 78 -5 13 -5 13 9 -5 8 -5 30 42 31 42 39 75 39 75 23 39 22 39 -3 26 -3 26
-52 -97z"/>
<path d="M2986 2293 l-7 -7 -20 -45 -20 -45 -15 -18 -16 -17 4 -11 3 -11 43
80 43 81 -4 0 -4 0 -7 -7z"/>
<path d="M77 2255 l-29 -34 7 -11 6 -10 -8 2 -8 2 -22 -12 -23 -13 0 -20 0
-21 42 33 41 33 16 27 15 27 47 -32 48 -31 47 -30 47 -30 26 -15 26 -15 2 -10
2 -10 -38 -45 -39 -45 -19 -20 -18 -20 -40 -49 -40 -50 -22 -24 -22 -24 -6
-19 -6 -19 -14 0 -13 0 -21 -33 -20 -33 -21 -23 -20 -24 0 -26 0 -25 17 24 18
25 12 15 12 15 23 32 23 31 60 73 60 72 83 98 82 98 0 11 0 10 -23 9 -22 9
-44 36 -44 37 -31 16 -31 16 -36 28 -37 29 -8 -1 -9 0 -28 -34z"/>
<path d="M2355 2229 l-16 -31 5 -5 5 -6 11 28 11 28 5 8 5 9 -5 0 -5 0 -16
-31z"/>
<path d="M2851 2049 l-52 -81 -16 -27 -17 -26 11 10 11 10 61 94 61 94 -4 4
-3 4 -52 -82z"/>
<path d="M339 1983 l-54 -67 -68 -76 -69 -75 -10 -20 -10 -20 10 10 9 10 64
74 64 75 63 74 62 75 0 3 0 4 -3 0 -4 0 -54 -67z"/>
<path d="M464 2009 l-26 -42 -45 -56 -46 -56 -56 -65 -56 -65 -31 -40 -30 -40
-9 -15 -8 -15 10 10 10 10 39 50 39 50 65 76 65 76 38 50 38 49 21 32 20 32
-6 0 -6 0 -26 -41z"/>
<path d="M830 1931 l0 -8 -35 -44 -35 -44 0 -9 0 -8 -25 -32 -26 -31 -75 -100
-75 -100 -47 -72 -47 -73 -104 -137 -104 -138 15 13 15 12 92 123 92 122 49
75 49 75 96 125 96 125 20 35 19 35 24 30 25 29 28 -21 29 -20 44 -23 45 -23
74 -48 74 -49 7 0 7 0 109 -72 109 -73 125 -64 125 -64 37 -24 38 -23 10 0 11
0 37 -27 37 -28 7 -10 7 -9 4 4 4 5 6 50 5 50 -11 -35 -10 -35 -3 -3 -2 -4
-68 41 -68 41 -7 0 -8 0 -53 31 -53 32 -89 45 -90 45 -95 61 -96 62 -80 49
-80 48 -82 49 -82 48 -10 0 -11 0 0 -9z"/>
<path d="M2726 1858 l-33 -53 -13 -25 -12 -25 9 10 10 10 41 68 42 67 -5 0 -5
0 -34 -52z"/>
<path d="M3034 1775 l-6 -14 8 -12 7 -12 -10 6 -11 7 -6 -26 -7 -25 7 -11 7
-11 -11 7 -11 7 -17 -28 -18 -28 -65 -99 -66 -98 -12 -22 -13 -21 -27 -60 -27
-60 1 -12 1 -13 -8 5 -8 5 -11 -30 -10 -30 -54 -73 -54 -72 -70 -105 -70 -105
-13 -25 -13 -25 -66 -102 -66 -102 -50 -87 -50 -88 -48 -65 -49 -66 -16 -14
-17 -13 13 -5 12 -5 0 -13 0 -13 75 -59 74 -58 51 -38 51 -38 17 -6 17 -7 6
-9 6 -9 29 4 29 3 -50 29 -49 29 -85 63 -85 63 -10 -6 -11 -6 8 8 7 9 -24 25
-25 26 79 130 79 130 14 31 15 31 78 121 79 121 65 102 65 103 63 85 63 84 18
36 19 36 32 65 31 65 12 21 12 21 20 32 20 32 73 111 72 112 0 38 0 38 -5 0
-6 0 -5 -15z"/>
<path d="M2631 1688 l-30 -63 -47 -85 -47 -85 -31 -60 -32 -60 -35 -55 -36
-55 -33 -65 -34 -65 -17 -25 -16 -25 -45 -85 -44 -85 -48 -83 -48 -83 4 -4 3
-4 49 87 49 87 45 85 45 85 17 25 17 25 32 60 31 60 41 64 40 64 23 46 23 46
63 115 62 115 19 43 18 42 -4 0 -5 0 -29 -62z"/>
<path d="M73 1670 l-43 -47 0 -10 0 -11 -15 -12 -15 -12 0 -11 0 -10 37 49 36
49 30 33 31 32 -10 -1 -9 -1 -42 -48z"/>
<path d="M2980 1550 l-64 -125 -35 -67 -36 -67 -56 -83 -56 -83 -23 -40 -24
-40 -58 -83 -59 -84 9 6 9 6 63 87 63 88 21 40 22 40 47 71 47 72 15 12 15 12
0 17 0 16 26 45 27 45 49 95 50 95 10 12 10 12 -5 13 -4 13 -63 -125z"/>
<path d="M103 1568 l-41 -43 -31 -53 -31 -53 9 6 10 5 31 55 31 55 9 0 8 0 26
35 27 35 -3 0 -4 0 -41 -42z"/>
<path d="M3021 1510 l-22 -31 -35 -72 -34 -71 0 -11 0 -10 -60 -85 -59 -85
-54 -80 -54 -80 -95 -145 -95 -145 -7 -12 -7 -13 5 0 4 0 41 63 41 62 17 25
17 25 96 145 96 145 59 85 59 85 38 89 38 89 13 16 14 16 7 13 7 12 -4 0 -3 0
-23 -30z"/>
<path d="M1852 1505 l-12 -26 0 -4 0 -5 9 0 9 0 5 28 5 27 -2 3 -3 2 -11 -25z"/>
<path d="M3021 1358 l-21 -43 -44 -60 -45 -59 -13 -26 -12 -25 -70 -95 -71
-95 -48 -79 -48 -79 -48 -71 -47 -71 -47 -86 -47 -87 -47 -63 -47 -64 -28 -33
-28 -33 13 -19 14 -20 64 -48 64 -47 40 -25 40 -24 54 -40 54 -41 21 -14 21
-14 -35 31 -35 31 -70 47 -70 47 -73 55 -73 54 -6 14 -5 13 21 28 21 28 48 65
48 65 35 60 35 60 6 15 6 15 115 176 115 176 58 78 59 77 10 17 10 16 61 95
62 95 7 23 6 22 -4 0 -5 0 -21 -42z"/>
<path d="M444 1298 l-19 -23 23 19 22 19 0 4 0 3 -3 0 -4 0 -19 -22z"/>
<path d="M2940 1150 l-105 -160 -43 -56 -44 -55 -28 -55 -27 -54 -32 -35 -32
-35 -19 -43 -19 -42 -45 -65 -45 -65 -28 -44 -28 -44 -32 -44 -33 -43 0 -15 0
-15 8 0 7 0 36 -33 36 -32 112 -85 112 -85 10 3 10 2 -5 -9 -6 -9 16 -13 16
-13 27 -4 26 -3 -34 33 -34 33 -67 50 -67 50 -74 56 -74 56 -13 15 -12 15 58
89 59 89 17 14 16 13 0 9 0 9 34 51 35 50 7 22 7 22 42 55 43 55 16 33 17 33
14 17 14 17 34 46 35 46 11 20 10 20 -7 8 -7 8 13 -7 12 -7 18 31 17 32 48 65
48 65 -5 15 -6 14 10 -6 9 -6 11 21 11 21 -3 20 -3 19 -105 -160z"/>
<path d="M395 1233 l-25 -38 -58 -60 -58 -60 -23 -37 -23 -38 -12 -7 -12 -8
-67 -87 -67 -88 5 0 4 0 78 96 78 96 23 31 22 32 61 67 61 67 25 35 24 36 -5
0 -5 0 -26 -37z"/>
<path d="M2266 1204 l-7 -27 -90 -181 -91 -181 -13 -15 -14 -15 -10 -25 -10
-25 -68 -94 -68 -94 -10 -4 -10 -3 -75 44 -75 45 -60 31 -60 32 -128 87 -129
86 -72 45 -72 45 -129 91 -130 91 -30 16 -30 15 -30 -41 -30 -41 -68 -80 -68
-81 -17 -21 -17 -21 -60 -69 -60 -69 -83 -85 -82 -84 0 -8 0 -8 10 0 9 0 10
18 10 17 1 -16 0 -16 34 -6 34 -5 158 -62 159 -61 50 -25 50 -24 65 -40 65
-39 60 -32 60 -32 40 -27 40 -27 35 -18 35 -18 60 -30 60 -29 76 -44 76 -44 8
0 9 0 -50 31 -49 32 -135 69 -135 70 -30 22 -30 22 -100 54 -100 53 -51 33
-50 34 -69 25 -69 26 -83 40 -84 40 -29 2 -30 2 0 7 0 7 -35 12 -35 13 0 10 0
10 73 75 72 76 60 69 60 69 25 32 25 32 53 64 53 64 19 23 18 22 20 0 20 0
113 -76 114 -77 37 -31 37 -32 48 -24 48 -23 30 -24 30 -24 114 -75 114 -75
46 -23 46 -22 55 -36 55 -35 44 -23 44 -22 21 24 22 23 7 15 7 15 70 110 69
110 90 182 91 183 6 25 6 25 -5 0 -5 0 -6 -26z"/>
<path d="M233 1103 l-17 -28 -46 -55 -45 -55 -29 -40 -29 -40 -36 -40 -36 -40
29 25 28 25 59 75 59 75 36 45 36 45 9 18 10 17 -5 0 -6 0 -17 -27z"/>
<path d="M890 1098 l0 -13 -45 -50 -45 -50 -70 -92 -70 -92 -90 -82 -90 -82
105 -48 104 -47 164 -81 164 -81 18 -20 18 -20 8 0 9 0 87 -50 87 -50 17 0 16
0 49 -26 49 -26 85 -57 85 -57 77 -37 77 -37 13 0 13 0 -91 44 -92 44 -83 58
-84 57 -62 29 -63 28 -12 0 -13 0 -105 65 -105 64 -190 94 -190 95 -62 27 -63
28 0 8 0 9 42 38 43 37 52 55 52 56 49 66 48 66 56 62 56 61 95 -64 95 -64 29
-22 28 -22 155 -99 155 -99 43 -36 44 -35 54 -27 54 -26 26 -34 25 -33 32 0
32 0 60 -38 60 -38 37 47 37 48 34 53 33 53 24 39 24 40 -10 -7 -11 -6 -46
-78 -46 -78 -28 -32 -28 -32 -10 -16 -10 -17 -68 42 -67 42 0 9 0 9 -37 0 -38
1 20 15 20 16 -22 -6 -21 -7 -39 27 -38 26 -25 10 -24 9 -51 40 -50 39 -135
88 -135 88 -36 25 -37 24 -105 73 -106 72 -6 0 -5 0 0 -12z"/>
<path d="M825 943 l-80 -98 -88 -92 -89 -91 32 -17 32 -16 6 5 5 6 -9 0 -9 1
-19 14 -19 14 94 98 94 98 39 50 40 50 29 31 29 32 86 -58 87 -57 77 -55 76
-55 79 -43 78 -43 80 -53 80 -53 85 -61 85 -61 81 -39 82 -40 13 0 14 1 37 43
36 43 52 96 52 97 -5 0 -6 0 -53 -100 -53 -101 -35 -34 -36 -35 -49 19 -50 19
-45 26 -45 27 -60 44 -60 44 -43 28 -43 28 -44 32 -43 32 -79 41 -78 41 -120
86 -120 86 -37 19 -37 19 -12 15 -11 14 -12 0 -12 0 -79 -97z"/>
<path d="M1782 941 l-14 -8 14 -6 15 -5 0 14 0 14 -1 0 -1 0 -13 -9z"/>
<path d="M2534 823 l-27 -48 -19 -35 -20 -35 15 15 14 15 36 68 37 67 -5 0 -4
0 -27 -47z"/>
<path d="M76 803 l-60 -56 20 11 19 10 45 46 44 46 -4 0 -5 -1 -59 -56z"/>
<path d="M3018 803 l-23 -36 -35 -57 -35 -56 -77 -102 -78 -103 -6 -24 -6 -25
32 -40 32 -41 5 5 5 5 40 -47 40 -47 11 -10 12 -10 27 -35 27 -35 30 -35 30
-35 1 21 0 21 -64 79 -64 80 -55 49 -55 48 -12 25 -11 26 21 28 21 28 -7 12
-7 11 10 -6 11 -7 59 83 59 82 43 64 44 63 3 29 4 29 -4 0 -4 0 -24 -37z"/>
<path d="M14 778 l-19 -23 23 19 22 19 0 4 0 3 -3 0 -4 0 -19 -22z"/>
<path d="M0 729 l0 -10 10 6 10 6 0 5 0 4 -10 0 -10 0 0 -11z"/>
<path d="M3013 682 l-30 -47 -41 -73 -41 -73 9 6 10 6 21 41 20 40 45 70 45
70 -3 4 -4 3 -31 -47z"/>
<path d="M2442 668 l-19 -33 -22 -40 -22 -40 18 24 18 24 28 49 27 48 -4 0 -4
0 -20 -32z"/>
<path d="M2452 598 l-39 -63 -12 -24 -13 -23 11 7 11 6 25 47 24 47 22 33 21
32 -5 0 -5 0 -40 -62z"/>
<path d="M3005 591 l-40 -56 -12 -28 -13 -28 -21 -32 -22 -32 17 16 16 15 28
51 27 50 33 47 34 47 -4 4 -3 3 -40 -57z"/>
<path d="M650 627 l0 -4 51 -32 50 -31 7 0 7 1 -20 15 -20 16 -37 19 -38 19 0
-3z"/>
<path d="M3021 541 l-21 -41 -30 -46 -29 -47 26 -34 26 -34 31 -21 31 -22 -47
47 -48 47 0 18 0 17 27 40 27 40 18 34 18 35 -4 4 -5 4 -20 -41z"/>
<path d="M785 545 l20 -16 85 -43 85 -43 190 -98 190 -97 35 -21 35 -20 52
-34 51 -33 11 0 10 0 33 -28 33 -28 65 -28 65 -28 23 -15 24 -15 5 6 5 5 -98
47 -99 47 -28 23 -29 24 -8 0 -9 0 -73 47 -73 47 -110 56 -110 56 -200 102
-200 102 20 -15z"/>
<path d="M2346 518 l-18 -33 21 25 21 25 0 8 0 7 -3 0 -3 0 -18 -32z"/>
<path d="M2309 463 l-14 -18 18 14 17 13 0 4 0 4 -4 0 -4 0 -13 -17z"/>
<path d="M2358 443 l-25 -38 -12 -22 -12 -23 5 0 4 0 20 33 19 34 18 26 17 27
-5 0 -4 0 -25 -37z"/>
<path d="M2869 453 l-24 -28 28 24 27 24 0 4 0 3 -3 0 -4 0 -24 -27z"/>
<path d="M3033 458 l-9 -13 -11 -26 -11 -26 20 -34 21 -34 5 13 4 14 -12 23
-13 24 13 31 13 31 -5 5 -5 4 -10 -12z"/>
<path d="M2257 362 l-39 -77 10 10 10 10 32 63 32 63 -4 4 -3 4 -38 -77z"/>
<path d="M2836 412 l-5 -9 109 -104 110 -105 0 6 0 5 -43 42 -42 43 -34 27
-34 27 -28 39 -27 38 -6 -9z"/>
<path d="M2896 389 l19 -21 70 -61 70 -60 -84 81 -85 82 -5 0 -4 0 19 -21z"/>
<path d="M72 332 l-73 -67 1 -19 0 -19 43 36 42 36 -3 10 -2 11 7 -2 8 -2 28
18 28 19 23 -13 24 -12 13 7 12 8 -6 -10 -7 -11 16 -6 16 -6 10 7 11 6 -8 -13
-8 -13 17 6 17 7 -5 -9 -6 -9 30 -12 29 -12 12 8 12 7 -6 -10 -7 -11 16 -6 16
-6 10 7 11 6 -6 -10 -6 -10 42 -14 42 -14 13 3 12 3 0 -9 0 -9 26 -12 25 -11
11 6 11 7 -6 -10 -6 -9 62 -23 62 -23 22 -2 21 -1 -6 -9 -5 -9 21 5 22 6 -6
-10 -7 -11 27 5 27 5 -5 -4 -5 -5 92 -45 92 -46 35 -4 35 -4 -22 16 -23 16
-162 78 -163 77 -105 38 -105 38 -40 18 -40 18 -85 37 -85 36 -27 15 -26 14
-4 0 -3 -1 -73 -67z"/>
<path d="M2283 321 l-21 -28 -4 -18 -3 -18 90 -69 90 -70 25 -11 25 -11 35
-26 35 -26 40 -23 40 -22 -25 18 -24 18 -50 38 -50 37 -10 0 -9 0 -98 73 -98
72 -1 12 0 12 21 35 21 36 -4 0 -4 0 -21 -29z"/>
<path d="M72 239 l-74 -71 5 -4 4 -4 74 71 74 71 80 -32 80 -31 55 -21 55 -21
90 -43 90 -43 84 -31 83 -30 51 -25 51 -24 4 4 4 4 -73 34 -74 34 -50 17 -50
18 -130 59 -130 58 -103 40 -102 41 -13 0 -12 -1 -73 -70z"/>
<path d="M77 180 l-77 -80 0 -10 0 -11 50 60 51 61 8 0 8 0 25 25 26 25 98
-38 99 -39 135 -58 135 -59 44 -28 45 -28 20 0 21 0 -130 64 -130 63 -166 67
-167 66 -8 0 -9 -1 -78 -79z"/>
<path d="M2200 251 l0 -7 33 -31 32 -31 70 -48 70 -47 25 -17 25 -17 41 -26
40 -27 15 0 14 0 -21 13 -21 12 -29 16 -29 17 -95 65 -95 65 -37 35 -38 35 0
-7z"/>
<path d="M118 157 l-57 -52 -32 -40 -33 -40 82 83 83 82 23 0 23 0 148 -56
149 -55 25 -18 26 -18 30 -15 30 -15 25 -7 25 -7 -85 46 -85 47 -45 18 -45 19
-113 40 -114 41 -1 0 -2 0 -57 -53z"/>
<path d="M173 141 l-18 -19 -21 -23 -21 -24 -1 -8 -1 -8 -23 -20 -23 -21 13 7
12 6 0 -10 0 -9 -12 -5 -13 -5 11 -1 10 -1 59 68 58 67 11 0 11 1 5 -6 5 -6
50 -19 50 -20 10 0 10 0 5 -6 5 -5 48 -24 49 -23 -12 -7 -12 -7 29 0 28 1 14
-5 14 -4 4 11 4 12 -67 31 -66 31 -94 35 -93 35 -11 0 -10 0 -17 -19z"/>
</g>
</svg>
