<?xml version="1.0" standalone="no"?>
<!DOCTYPE svg PUBLIC "-//W3C//DTD SVG 20010904//EN"
 "http://www.w3.org/TR/2001/REC-SVG-20010904/DTD/svg10.dtd">
<svg version="1.0" xmlns="http://www.w3.org/2000/svg"
   viewBox="0 0 128.000000 190.000000"
 preserveAspectRatio="xMidYMid meet">
<metadata>
Created by potrace 1.16, written by Peter Selinger 2001-2019
</metadata>
<g transform="translate(0.000000,190.000000) scale(0.100000,-0.100000)"
fill-opacity="0.2" fill="#006400" stroke="none">
<path d="M1010 1887 l0 -12 25 -27 25 -27 0 -20 0 -20 11 -25 11 -24 -27 -86
-27 -85 -49 -79 -48 -79 -13 -10 -13 -9 -90 -27 -90 -27 -17 0 -18 0 -92 -41
-92 -42 -91 -2 -91 -2 -22 -12 -22 -12 -15 -27 -15 -27 -34 -39 -33 -39 -13
39 -12 39 -9 9 -9 10 -6 -7 -6 -6 12 -50 12 -51 9 0 9 0 0 -22 -1 -23 -13 -24
-13 -24 -7 12 -7 11 6 11 7 10 -33 55 -33 54 -8 0 -8 0 0 -19 0 -19 26 -32 27
-31 -9 -9 -9 -8 -28 -4 -28 -3 -2 -9 -2 -9 34 -12 33 -11 -13 -10 -14 -11 -18
-6 -18 -7 6 -10 7 -11 34 7 34 6 33 -34 33 -34 23 -32 23 -32 35 -15 35 -15
-7 -27 -6 -28 -29 -61 -28 -60 -12 -43 -11 -44 -24 -51 -23 -51 -11 -41 -11
-42 -26 -46 -26 -46 -13 0 -13 0 -31 -35 -31 -36 0 -9 0 -10 8 0 8 0 22 16 23
16 5 -5 5 -5 -15 -37 -16 -37 0 -17 0 -16 20 25 20 25 0 17 0 17 11 7 12 7 16
-22 17 -22 6 7 7 6 -8 22 -9 21 0 45 -1 45 22 47 22 48 15 0 15 0 -14 9 -15 9
26 64 26 63 12 37 11 37 34 82 33 82 6 -34 5 -34 4 -60 5 -60 -8 -45 -8 -45
-16 -105 -17 -105 -4 -21 -5 -22 -35 -21 -35 -20 -34 -53 -34 -53 5 -8 5 -9
11 11 11 11 16 0 15 0 24 45 24 45 9 0 10 0 -6 -28 -5 -27 -7 -37 -6 -38 9 0
10 0 12 40 12 40 12 0 12 -1 19 -14 20 -15 13 0 13 0 0 9 0 9 -36 48 -36 47 7
66 6 66 20 105 19 105 -2 114 -3 115 135 1 135 2 94 36 93 36 56 37 55 36 26
31 26 30 17 26 18 26 0 50 0 50 -20 90 -19 90 -15 42 -14 41 46 74 46 73 27
67 28 68 7 35 6 34 12 11 13 10 49 -24 50 -24 13 -16 13 -16 14 0 14 0 0 10 0
9 -12 11 -13 11 -57 35 -58 36 0 13 0 13 -28 13 -28 12 -24 33 -25 33 -12 5
-13 5 0 -12z m-102 -581 l9 -5 13 -60 13 -60 -5 -85 -4 -85 -49 -53 -50 -53
-7 -3 -8 -4 -9 24 -9 24 -15 95 -14 94 -21 70 -21 70 16 17 16 18 7 -5 8 -5
24 9 23 10 37 -4 37 -3 9 -6z m-194 -103 l6 -78 10 -70 10 -70 6 -62 6 -63
-13 0 -12 0 -61 -24 -61 -25 -67 1 -68 0 0 7 0 7 15 21 16 22 24 76 25 76 0
47 0 48 -14 53 -14 53 35 14 34 15 30 6 29 6 0 -79 1 -79 10 -95 10 -95 2 -18
2 -17 9 0 10 0 -3 200 -3 200 10 0 9 0 7 -77z m-198 -51 l12 -53 -8 -62 -8
-62 -31 -61 -31 -61 0 -16 0 -16 -19 -11 -20 -10 -23 0 -24 0 -20 14 -19 15
-22 -6 -23 -5 0 12 0 11 25 43 25 44 15 54 14 55 31 65 31 66 21 21 20 22 21
-3 22 -3 11 -53z m-150 -11 l-6 -38 -15 -29 -15 -29 0 -11 0 -11 -20 -46 -21
-46 -8 -5 -8 -5 -7 68 -6 69 7 19 6 18 41 43 41 42 9 0 9 0 -7 -39z m-124
-168 l-4 -108 -24 28 -24 28 -6 26 -7 26 13 36 12 36 16 18 15 17 6 0 6 0 -3
-107z"/>
<path d="M0 1621 l0 -61 29 0 30 0 25 10 26 10 0 27 -1 28 -13 17 -13 17 -41
7 -42 7 0 -62z"/>
<path d="M1263 1434 l-12 -5 -22 -35 -21 -35 -5 -61 -4 -60 28 -43 28 -43 12
-18 12 -19 0 163 1 162 -2 -1 -3 -1 -12 -4z"/>
<path d="M1272 410 l-2 -25 -14 -53 -15 -54 -7 -139 -7 -139 14 0 14 0 2 112
3 113 11 65 11 65 -4 40 -5 40 -1 -25z"/>
</g>
</svg>
