<?xml version="1.0" standalone="no"?>
<!DOCTYPE svg PUBLIC "-//W3C//DTD SVG 20010904//EN"
 "http://www.w3.org/TR/2001/REC-SVG-20010904/DTD/svg10.dtd">
<svg version="1.0" xmlns="http://www.w3.org/2000/svg"
   viewBox="0 0 89.000000 129.000000"
 preserveAspectRatio="xMidYMid meet">
<metadata>
Created by potrace 1.16, written by Peter Selinger 2001-2019
</metadata>
<g transform="translate(0.000000,129.000000) scale(0.100000,-0.100000)"
fill-opacity="0.2" fill="#9E1A1A" stroke="none">
<path d="M564 1268 l-21 -10 -17 -35 -17 -36 10 -10 9 -9 12 23 13 23 18 20
19 20 0 -10 0 -9 33 -18 32 -18 34 -45 35 -46 -56 -111 -56 -112 -22 -62 -23
-63 -13 -1 -14 -2 -11 -1 -11 -1 -24 45 -25 45 7 47 6 47 -25 6 -25 7 -26 -17
-26 -17 0 -34 0 -35 13 -4 12 -4 20 -3 20 -3 31 -55 31 -55 -13 -27 -14 -27
-19 -11 -20 -10 -23 0 -23 1 -63 28 -63 28 -30 37 -30 36 -13 0 -12 0 -37 38
-38 39 21 76 20 77 0 15 0 15 -14 0 -13 0 -11 -62 -12 -63 -9 -45 -10 -45 -41
-124 -41 -124 11 -11 10 -10 4 5 4 4 36 119 36 120 5 4 4 5 36 -29 36 -29 42
-40 42 -41 35 -13 35 -13 17 -9 18 -9 45 0 45 0 4 -22 5 -23 11 -53 10 -54 31
-45 32 -45 78 -81 79 -80 0 -8 0 -9 -12 0 -13 -1 -28 -24 -28 -25 3 -47 3 -48
15 0 15 0 -3 35 -3 36 21 27 21 27 18 0 18 0 7 -52 7 -53 5 -30 4 -29 10 -10
10 -10 10 10 11 11 -15 44 -15 44 -6 36 -7 37 13 7 12 8 23 -26 23 -27 12 -60
12 -60 14 0 15 0 -6 28 -7 27 -15 52 -14 52 -18 6 -19 5 0 105 0 106 -51 102
-50 102 -57 62 -56 62 7 27 7 28 38 87 37 88 20 28 19 28 7 23 7 22 8 0 9 0
12 -30 12 -30 10 6 10 6 -6 24 -6 23 -25 38 -24 38 -23 29 -23 29 -18 16 -17
16 -26 23 -25 22 -7 -1 -7 0 -21 -11z"/>
<path d="M45 1038 l-4 -13 -21 -62 -20 -62 0 -33 1 -33 20 50 21 50 14 50 14
50 0 8 0 7 -10 0 -11 0 -4 -12z"/>
<path d="M257 63 l-5 -8 9 -23 9 -22 15 -6 16 -6 4 4 5 5 -16 31 -15 32 -9 0
-9 0 -4 -7z"/>
<path d="M341 61 l-13 -8 17 -27 17 -26 14 0 14 0 0 10 0 10 -8 0 -8 0 -10 25
-9 25 -14 -9z"/>
<path d="M55 10 l-6 -10 15 0 16 0 0 10 0 10 -9 0 -10 0 -6 -10z"/>
</g>
</svg>
