<?xml version="1.0" standalone="no"?>
<!DOCTYPE svg PUBLIC "-//W3C//DTD SVG 20010904//EN"
 "http://www.w3.org/TR/2001/REC-SVG-20010904/DTD/svg10.dtd">
<svg version="1.0" xmlns="http://www.w3.org/2000/svg"
   viewBox="0 0 87.000000 160.000000"
 preserveAspectRatio="xMidYMid meet">
<metadata>
Created by potrace 1.16, written by Peter Selinger 2001-2019
</metadata>
<g transform="translate(0.000000,160.000000) scale(0.100000,-0.100000)"
fill-opacity="0.2" fill="#006400" stroke="none">
<path d="M780 1588 l1 -13 12 -47 13 -47 18 -20 19 -21 14 0 13 0 0 80 0 80
-45 0 -45 0 0 -12z"/>
<path d="M395 1580 l-6 -10 -10 -103 -10 -102 -14 -40 -13 -40 -13 0 -13 0
-17 50 -18 50 5 50 5 50 -8 39 -9 40 -13 4 -14 5 6 -70 6 -69 -10 -15 -9 -14
-11 18 -10 17 -29 15 -30 16 0 -15 0 -15 20 -14 20 -14 45 -68 45 -69 0 -14 0
-15 -57 6 -58 6 -20 5 -20 5 -40 20 -39 21 -28 0 -28 0 0 -20 0 -20 18 0 17 0
70 -26 70 -25 15 -12 16 -12 13 -70 13 -70 8 -60 8 -60 11 -70 12 -69 17 -26
17 -25 20 -45 21 -45 19 -34 20 -33 22 -34 22 -33 10 -58 11 -58 22 -65 21
-65 30 -53 29 -52 -6 -23 -5 -22 -46 -47 -45 -47 0 -10 0 -11 18 0 18 0 42 43
42 43 0 8 0 8 27 42 28 42 42 -28 42 -29 6 -10 6 -9 30 0 30 0 39 20 40 20 0
15 0 14 -9 6 -10 5 -44 -21 -44 -22 -48 33 -47 32 8 22 7 21 4 77 5 78 -17 57
-17 58 -29 58 -28 58 -11 62 -11 62 -15 62 -14 61 0 29 0 29 -20 39 -20 39 0
11 0 10 -31 38 -30 37 -6 36 -6 36 -24 11 -24 11 6 23 6 24 62 65 62 66 28 44
29 43 -7 11 -6 10 -12 0 -12 0 -27 -43 -27 -42 -35 -34 -36 -35 -4 5 -4 4 8
80 8 80 7 33 8 32 -16 0 -16 0 -6 -10z"/>
<path d="M0 23 l0 -23 10 0 10 0 0 8 0 7 -10 15 -10 15 0 -22z"/>
</g>
</svg>
