<?xml version="1.0" standalone="no"?>
<!DOCTYPE svg PUBLIC "-//W3C//DTD SVG 20010904//EN"
 "http://www.w3.org/TR/2001/REC-SVG-20010904/DTD/svg10.dtd">
<svg version="1.0" xmlns="http://www.w3.org/2000/svg"
   viewBox="0 0 77.000000 92.000000"
 preserveAspectRatio="xMidYMid meet">
<metadata>
Created by potrace 1.16, written by Peter Selinger 2001-2019
</metadata>
<g transform="translate(0.000000,92.000000) scale(0.100000,-0.100000)"
fill="#9E1A1A" stroke="none">
<path d="M271 904 l-21 -15 -15 -29 -15 -29 6 -15 6 -16 14 0 14 0 6 -27 7
-28 9 -12 9 -11 9 -32 9 -32 -46 7 -46 7 -36 15 -36 15 -15 8 -15 8 3 57 2 56
-11 -7 -11 -6 -14 -33 -14 -33 -20 5 -20 5 0 11 0 11 -11 -11 -11 -11 6 -11 7
-11 14 0 14 0 15 -21 15 -21 -12 -20 -12 -19 13 -8 14 -8 -1 -7 -1 -6 0 -10 0
-10 10 0 10 0 0 40 0 40 10 0 11 0 32 -17 32 -17 59 -15 60 -16 13 -75 14 -75
3 -85 3 -85 13 -37 14 -37 -31 -38 -30 -38 -17 -32 -16 -33 -30 -22 -30 -22 0
-18 0 -18 9 0 10 0 35 21 36 21 0 8 0 9 38 55 37 55 22 12 22 12 14 -12 14
-11 44 -14 44 -14 18 -7 17 -7 0 15 0 15 -49 21 -50 21 -9 0 -9 0 -12 26 -11
25 5 9 6 9 -26 41 -26 41 -1 27 -1 27 13 62 14 61 -18 27 -18 27 9 8 8 8 112
4 112 3 40 -37 39 -38 6 0 6 0 0 12 0 12 -26 28 -27 27 52 48 51 47 0 14 0 15
-50 -47 -49 -46 -8 0 -8 0 -15 10 -15 10 18 31 17 31 0 9 0 10 -10 -6 -11 -7
-23 -36 -23 -37 -45 -13 -46 -14 -48 -1 -49 -2 -12 -8 -12 -7 -4 7 -4 8 -13
47 -13 48 -23 25 -24 26 0 8 0 8 20 18 20 18 0 33 0 33 -18 10 -19 10 -22 -15z"/>
<path d="M750 910 l0 -10 10 0 10 0 0 10 0 10 -10 0 -10 0 0 -10z"/>
</g>
</svg>
