<?xml version="1.0" standalone="no"?>
<!DOCTYPE svg PUBLIC "-//W3C//DTD SVG 20010904//EN"
 "http://www.w3.org/TR/2001/REC-SVG-20010904/DTD/svg10.dtd">
<svg version="1.0" xmlns="http://www.w3.org/2000/svg"
   viewBox="0 0 181.000000 210.000000"
 preserveAspectRatio="xMidYMid meet">
<metadata>
Created by potrace 1.16, written by Peter Selinger 2001-2019
</metadata>
<g transform="translate(0.000000,210.000000) scale(0.100000,-0.100000)"
fill="#9E1A1A" stroke="none">
<path d="M1078 2092 l-17 -3 -12 -36 -11 -35 7 -52 8 -51 0 -51 0 -52 -46 -93
-47 -94 -43 -60 -43 -60 -19 0 -20 0 -5 87 -5 86 -19 21 -19 21 -17 0 -18 0
-37 -15 -37 -16 -33 -33 -33 -33 -7 -22 -6 -21 11 -34 11 -33 22 -20 22 -20
30 -10 29 -9 18 -32 17 -31 -20 -6 -19 -6 -56 11 -56 12 -36 15 -37 14 -42 20
-43 19 -11 0 -11 0 -61 38 -62 37 -22 25 -22 25 -31 58 -31 57 -9 0 -8 0 -5
-12 -4 -13 8 -27 7 -27 -11 -4 -12 -4 -33 28 -33 29 -14 0 -15 0 0 -21 0 -21
35 -34 35 -34 0 -9 0 -10 -62 -3 -63 -3 0 -20 0 -20 25 -7 25 -7 75 -12 75
-12 55 -28 55 -27 55 -24 55 -25 73 -17 72 -18 22 5 21 6 75 -25 75 -24 19 0
18 0 11 -22 10 -23 24 -33 24 -33 27 -72 27 -72 34 -65 33 -65 40 -70 40 -70
26 -50 27 -50 28 -36 29 -37 0 -23 0 -24 -20 -25 -20 -25 0 -27 0 -26 -19 -44
-19 -44 -10 -79 -11 -80 -13 -4 -13 -4 -38 -41 -38 -41 3 -35 3 -35 18 -3 18
-4 22 28 22 28 11 15 12 15 50 -53 50 -53 23 4 24 3 3 22 3 22 -31 43 -32 43
7 40 6 40 8 65 9 65 22 72 22 73 121 -6 122 -7 20 -16 20 -17 41 -27 40 -27
11 0 12 0 -5 -67 -5 -68 10 -15 10 -15 18 11 18 11 8 49 8 49 7 25 8 25 25 1
25 0 12 8 12 7 0 25 0 25 -10 19 -10 18 -31 11 -32 11 -24 0 -24 0 -77 36 -77
36 -5 8 -5 7 -55 34 -55 33 -56 43 -56 42 -10 13 -11 13 -31 75 -32 75 -27 60
-27 60 -31 47 -30 47 -39 88 -39 88 -34 63 -33 63 13 17 13 17 6 5 6 5 14 26
14 27 52 73 52 74 13 19 14 19 31 -17 32 -16 21 0 20 0 11 23 10 23 -10 27
-11 27 -35 21 -35 21 20 28 20 29 32 66 31 66 -12 25 -11 24 -15 0 -15 0 -36
-55 -35 -56 -8 5 -8 6 -7 37 -6 38 -13 15 -12 16 -17 -4z"/>
<path d="M1788 1308 l-18 -36 0 -14 0 -14 -13 -18 -13 -18 -43 36 -43 36 -14
0 -14 0 -10 -25 -10 -26 36 -32 37 -32 20 -11 21 -12 20 10 21 10 23 35 23 36
-3 56 -3 56 -17 -37z"/>
</g>
</svg>
