<?xml version="1.0" standalone="no"?>
<!DOCTYPE svg PUBLIC "-//W3C//DTD SVG 20010904//EN"
 "http://www.w3.org/TR/2001/REC-SVG-20010904/DTD/svg10.dtd">
<svg version="1.0" xmlns="http://www.w3.org/2000/svg"
   viewBox="0 0 138.000000 148.000000"
 preserveAspectRatio="xMidYMid meet">
<metadata>
Created by potrace 1.16, written by Peter Selinger 2001-2019
</metadata>
<g transform="translate(0.000000,148.000000) scale(0.100000,-0.100000)"
fill="#006400" stroke="none">
<path d="M12 1458 l-12 -12 0 -18 0 -19 26 -51 26 -52 46 -40 45 -41 46 -45
46 -45 56 -43 57 -43 7 -36 7 -37 14 -20 14 -20 0 -8 0 -8 -19 0 -19 0 -88 71
-89 71 -52 29 -51 30 -12 14 -12 15 -14 0 -14 0 0 -11 0 -10 28 -26 27 -25 60
-39 60 -39 65 -50 65 -50 43 -13 44 -13 25 -65 26 -64 46 -69 46 -70 30 -30
30 -31 20 -11 20 -12 -10 -17 -10 -16 -55 -20 -55 -20 -30 -9 -30 -9 -22 -6
-23 -7 0 14 0 13 -31 38 -30 37 -19 0 -18 0 -6 -25 -7 -26 8 -12 8 -12 16 -45
16 -45 43 2 44 2 55 22 56 22 64 30 64 31 18 -23 19 -23 0 -22 0 -21 -9 -14
-9 -14 -34 -11 -33 -11 -3 -39 -3 -39 6 -25 6 -25 61 -64 62 -63 -11 -11 -11
-11 -6 11 -7 11 -15 0 -14 0 0 -19 0 -19 25 -16 25 -17 19 11 20 10 6 20 6 20
-6 22 -7 23 -38 40 -37 40 -20 30 -21 30 13 18 12 17 11 0 11 0 38 45 37 45
12 0 11 0 17 -19 17 -19 41 -6 40 -7 27 -27 28 -27 24 -12 24 -12 70 -31 70
-31 20 -11 20 -11 66 -54 66 -53 12 0 11 0 0 25 0 24 -17 10 -18 10 8 1 8 0
-113 100 -113 99 -50 24 -50 24 -38 7 -39 7 -23 11 -24 11 -17 36 -17 36 -31
28 -31 28 -51 40 -51 39 -10 0 -9 0 -26 28 -26 27 -7 25 -7 25 -30 65 -30 65
-33 70 -33 70 -8 25 -8 25 0 90 -1 90 -28 48 -28 47 -50 26 -51 25 -29 -6 -29
-7 -11 -21 -12 -20 6 -64 6 -63 -7 0 -6 0 -78 83 -78 82 0 12 0 12 10 6 10 6
0 19 0 19 -25 26 -26 25 -12 0 -13 0 -12 -12z"/>
<path d="M0 72 l0 -63 14 -5 13 -5 49 3 49 3 -62 65 -63 65 0 -63z"/>
</g>
</svg>
