<?xml version="1.0" standalone="no"?>
<!DOCTYPE svg PUBLIC "-//W3C//DTD SVG 20010904//EN"
 "http://www.w3.org/TR/2001/REC-SVG-20010904/DTD/svg10.dtd">
<svg version="1.0" xmlns="http://www.w3.org/2000/svg"
   viewBox="0 0 140.000000 204.000000"
 preserveAspectRatio="xMidYMid meet">
<metadata>
Created by potrace 1.16, written by Peter Selinger 2001-2019
</metadata>
<g transform="translate(0.000000,204.000000) scale(0.100000,-0.100000)"
fill="#9E1A1A" stroke="none">
<path d="M0 1935 l0 -105 18 8 17 9 43 22 44 23 23 -6 23 -6 53 10 53 10 35
18 35 18 9 27 8 26 -17 25 -16 26 -164 0 -164 0 0 -105z"/>
<path d="M1230 2024 l-15 -7 -17 -15 -18 -15 0 -29 0 -29 -32 -40 -31 -39 -18
16 -18 17 -11 -27 -10 -27 0 -5 0 -5 -34 -72 -34 -72 -22 -52 -22 -52 -71 -22
-72 -22 -85 -9 -85 -9 -72 -8 -72 -8 -73 -38 -73 -38 -80 -54 -80 -55 -37 6
-38 6 0 -10 0 -10 25 -10 25 -10 0 -10 0 -10 -20 0 -20 0 0 -10 0 -10 10 0 10
0 0 -15 0 -15 -25 12 -25 11 -7 -7 -8 -8 32 -26 33 -27 -8 -11 -7 -11 -40 -7
-40 -8 -18 -9 -18 -10 6 -9 6 -9 32 5 32 5 23 5 22 4 0 -24 0 -25 45 -65 46
-65 17 -5 17 -5 32 -6 33 -7 0 -7 0 -8 -27 -39 -26 -39 -40 -85 -40 -85 -8
-70 -7 -70 34 -144 34 -145 -12 -8 -13 -8 -6 0 -6 0 -38 -34 -37 -34 7 -11 6
-11 33 35 33 35 11 0 10 0 4 -42 4 -43 -7 -40 -7 -40 6 -9 5 -10 8 20 8 19 0
48 1 47 14 0 14 0 41 -47 41 -46 7 6 6 7 -12 23 -12 22 -40 30 -40 29 -4 21
-4 20 -32 154 -33 154 11 75 11 75 47 96 48 96 15 18 15 17 25 0 24 0 -5 -22
-5 -23 -16 -42 -16 -42 -6 -109 -7 -108 16 -90 16 -89 6 -69 7 -68 -25 -27
-25 -26 -7 -22 -6 -23 5 0 6 0 26 40 27 40 15 0 15 0 -6 -6 -6 -7 14 -28 15
-28 0 -35 0 -35 12 -7 11 -7 -6 61 -5 62 19 0 19 0 0 -10 0 -10 16 0 16 0 -4
13 -4 12 -42 19 -42 20 -15 50 -15 50 0 28 0 28 -16 92 -16 93 5 60 6 60 9 60
10 60 17 35 16 35 77 0 77 0 60 29 60 29 50 33 50 33 22 18 22 18 46 60 47 60
35 74 35 74 5 57 5 57 -16 82 -17 83 16 24 15 24 10 0 9 0 64 98 64 97 12 38
13 37 21 12 22 12 60 -3 60 -2 28 10 27 11 0 27 -1 28 -14 19 -14 18 -63 4
-63 4 -15 -6z m-279 -511 l11 -28 -7 -80 -6 -80 -10 -60 -11 -60 -21 -44 -21
-44 -60 -60 -61 -60 -70 -33 -69 -34 -14 0 -13 0 6 -10 6 -9 -41 -11 -41 -11
-102 26 -102 26 -27 11 -28 10 0 13 0 13 -47 35 -48 35 0 81 -1 81 9 0 9 0 -5
19 -5 19 32 29 31 30 40 29 40 30 65 35 65 35 51 17 51 16 106 6 106 6 78 23
78 24 8 1 7 1 11 -27z"/>
<path d="M1350 1463 l0 -18 25 -30 24 -30 1 18 0 19 -17 29 -17 29 -8 0 -8 0
0 -17z"/>
<path d="M1362 1360 l-33 -5 1 -10 0 -10 31 -10 31 -11 -13 -10 -14 -11 -17
-6 -18 -6 0 -11 0 -10 23 0 22 0 13 9 13 8 -3 44 -3 44 -33 -5z"/>
<path d="M1388 588 l-7 -18 -15 0 -14 0 -31 -35 -31 -36 0 -9 0 -10 8 0 8 0
22 16 23 16 5 -5 5 -5 -15 -37 -16 -37 0 -17 0 -16 20 25 20 25 0 17 0 17 16
9 15 8 -3 55 -3 54 -7 -17z"/>
</g>
</svg>
