<?xml version="1.0" standalone="no"?>
<!DOCTYPE svg PUBLIC "-//W3C//DTD SVG 20010904//EN"
 "http://www.w3.org/TR/2001/REC-SVG-20010904/DTD/svg10.dtd">
<svg version="1.0" xmlns="http://www.w3.org/2000/svg"
   viewBox="0 0 79.000000 101.000000"
 preserveAspectRatio="xMidYMid meet">
<metadata>
Created by potrace 1.16, written by Peter Selinger 2001-2019
</metadata>
<g transform="translate(0.000000,101.000000) scale(0.100000,-0.100000)"
fill="#000000" stroke="none">
<path d="M694 974 l-6 -24 5 -15 6 -14 -9 -6 -9 -6 1 -33 1 -34 -10 -29 -11
-28 -11 -60 -10 -60 -7 -50 -6 -50 -39 -105 -39 -105 -10 -17 -10 -18 0 -12 0
-13 -25 -28 -26 -27 -32 0 -32 0 -44 20 -43 20 -24 0 -24 0 0 8 0 7 -33 19
-32 19 -50 12 -50 13 -32 13 -32 13 -25 -12 -26 -12 0 -22 0 -22 12 -33 12
-33 7 0 7 0 12 -30 12 -30 47 -34 46 -34 22 -26 23 -26 22 0 23 -1 39 -29 38
-29 29 -6 29 -7 35 12 34 11 31 39 31 39 19 57 20 57 0 17 0 18 35 75 34 76
30 88 30 88 16 88 15 89 7 11 6 11 13 50 13 51 18 47 17 47 -6 6 -6 7 -36 8
-36 8 -6 -24z"/>
</g>
</svg>
