<?xml version="1.0" standalone="no"?>
<!DOCTYPE svg PUBLIC "-//W3C//DTD SVG 20010904//EN"
 "http://www.w3.org/TR/2001/REC-SVG-20010904/DTD/svg10.dtd">
<svg version="1.0" xmlns="http://www.w3.org/2000/svg"
 width="246.000000pt" height="355.000000pt" viewBox="0 0 246.000000 355.000000"
 preserveAspectRatio="xMidYMid meet">
<metadata>
Created by potrace 1.16, written by Peter Selinger 2001-2019
</metadata>
<g transform="translate(0.000000,355.000000) scale(0.100000,-0.100000)"
fill="#FF0000" stroke="none">
<path d="M82 3432 l-2 -123 10 6 10 6 0 -31 0 -31 -10 6 -10 6 0 -93 0 -93 10
15 10 15 0 -13 0 -13 -15 -15 -15 -15 0 -20 0 -20 10 6 10 6 0 -30 0 -30 -11
-7 -11 -6 4 -34 4 -34 -9 0 -10 0 5 -70 5 -70 -7 0 -7 0 -9 -132 -8 -133 -1
-55 0 -55 -7 -5 -6 -5 -5 -95 -4 -95 4 43 4 43 120 -3 119 -3 0 10 0 10 8 -12
7 -12 130 5 130 4 3 10 4 10 9 0 9 0 0 -12 0 -13 131 3 132 4 8 -14 9 -13 2
-185 2 -185 3 48 4 47 10 -5 9 -6 0 -42 0 -42 -10 -15 -10 -15 -10 15 -10 15
2 -55 1 -55 4 28 4 27 11 0 11 0 13 18 13 17 1 -25 0 -25 -10 -15 -10 -15 0
15 0 15 -16 -30 -16 -30 1 -95 0 -95 -8 -14 -8 -13 -74 -9 -74 -9 -150 -17
-150 -17 -55 1 -55 1 -45 8 -45 9 -7 40 -7 40 -2 185 -3 185 -8 -25 -7 -25 2
77 2 77 8 8 8 7 9 -14 10 -15 0 10 0 11 95 -4 95 -4 -5 14 -5 14 20 0 20 0 0
-7 0 -7 -12 -4 -13 -5 60 4 60 4 44 -8 44 -8 4 -30 3 -30 9 -60 9 -60 1 -62 2
-61 -18 -6 -18 -5 -70 -6 -70 -6 -14 9 -14 10 -4 108 -5 109 -14 34 -14 33
-22 -6 -23 -6 -20 0 -20 0 15 -10 15 -9 -37 6 -38 6 0 -12 0 -12 10 6 10 6 0
-10 0 -11 -10 0 -10 0 0 -40 0 -40 10 0 10 0 0 -22 0 -23 -11 15 -10 15 5 -75
6 -75 2 -77 2 -76 28 -4 28 -4 7 7 8 8 145 4 145 5 15 5 15 6 30 3 30 3 3 39
3 38 -10 -7 -11 -6 0 10 0 11 12 0 11 0 -6 198 -5 197 -7 16 -6 17 -32 6 -31
6 -230 6 -231 5 -13 4 -12 4 -30 -5 -30 -6 7 -11 7 -11 -3 -176 -2 -177 -9
-36 -8 -37 7 0 7 0 -1 -121 -2 -121 14 -13 13 -14 0 -10 0 -11 -10 0 -10 0 0
-15 0 -14 109 -3 109 -3 143 8 144 8 65 9 65 10 108 4 108 5 -3 -119 -3 -118
7 4 8 5 -10 -25 -9 -26 0 -195 0 -195 -6 -10 -7 -11 14 -16 13 -17 -12 7 -12
8 -3 -103 -3 -103 -75 -7 -75 -6 -65 -11 -65 -11 -90 6 -90 5 -53 4 -52 4 -97
-15 -96 -14 -12 0 -11 0 -14 48 -15 47 -1 210 -1 210 -3 101 -4 100 8 12 7 12
177 0 177 -1 40 6 40 5 70 -7 69 -8 14 -75 13 -75 2 -162 2 -161 -7 4 -8 5 -1
-28 -1 -28 0 -5 0 -5 -54 3 -54 4 0 -19 0 -18 -8 12 -7 11 -120 -1 -120 -2
-12 27 -13 26 -11 161 -10 161 3 22 3 22 68 3 67 4 2 -23 1 -23 2 -128 3 -128
5 -5 5 -5 59 -2 58 -2 29 8 29 8 -7 97 -7 97 -9 40 -10 40 0 42 0 42 -12 7
-11 7 -90 5 -91 4 -60 -13 -61 -12 -7 -11 -8 -11 0 18 0 17 -29 0 -28 0 -2
-187 -1 -188 11 -85 11 -85 2 -24 3 -24 19 -7 19 -6 141 1 141 0 14 12 14 11
122 -1 122 -1 8 8 8 8 1 365 1 365 -29 -6 -30 -6 -183 -6 -184 -7 3 -6 4 -6
-71 2 -72 1 -35 6 -35 5 -87 6 -87 7 -4 16 -5 17 3 -36 3 -36 -7 -12 -8 -12
13 -67 13 -67 2 -100 1 -100 7 25 8 25 5 -45 5 -45 -10 -13 -11 -14 13 -8 13
-8 -9 -5 -8 -5 6 -84 7 -83 1 -88 1 -88 8 5 7 4 -3 -40 -4 -40 13 -9 14 -9
-12 0 -13 0 0 -8 0 -8 81 10 80 9 35 -11 34 -10 0 14 0 14 25 -4 26 -5 137 0
137 -1 93 6 93 7 -7 -61 -6 -61 8 -128 7 -128 4 18 4 17 14 0 14 0 -5 -15 -6
-15 36 0 36 0 1 143 1 142 7 95 6 94 95 14 95 13 120 -11 120 -12 142 4 141 3
-5 -8 -4 -7 15 0 16 0 0 10 0 10 64 0 63 0 8 -137 8 -138 -2 -108 -1 -107 35
0 35 0 7 28 7 27 7 -30 7 -30 1 60 1 60 19 125 19 125 6 60 7 60 5 38 6 37 78
0 79 0 73 -9 73 -10 98 -6 97 -5 0 10 0 10 -15 0 -15 0 0 10 0 9 15 -5 15 -6
0 36 0 36 -20 0 -19 0 -26 12 -26 12 -10 -15 -9 -14 -8 12 -7 12 -110 10 -110
11 -43 6 -43 5 6 107 7 107 13 145 13 145 1 90 2 90 6 25 6 25 4 7 4 8 31 -16
30 -16 24 6 24 6 71 -11 72 -11 36 -12 36 -13 20 6 20 6 0 65 0 65 -55 17 -55
18 -70 0 -70 1 -44 8 -45 9 23 -17 22 -17 -7 -7 -7 -6 -18 10 -19 10 0 14 0
15 -19 0 -20 0 -6 10 -6 10 -19 -12 -19 -12 -7 6 -6 7 -4 148 -4 148 -11 240
-11 240 0 10 0 10 6 75 5 75 1 28 0 27 83 0 82 0 95 -10 95 -10 53 -5 52 -6 0
54 0 55 -31 6 -32 6 -136 0 -137 0 -23 17 -24 16 7 201 6 201 10 115 10 115 6
55 6 55 101 -2 102 -3 -22 10 -23 9 0 4 0 4 25 -5 25 -4 0 -15 0 -15 43 4 42
4 23 -14 22 -14 0 40 0 40 -22 5 -23 6 -50 7 -50 7 14 -17 14 -17 -27 12 -27
12 11 7 11 7 -133 12 -133 13 -16 4 -15 4 6 -49 6 -50 -8 5 -8 5 0 -28 0 -28
-5 -40 -6 -40 10 23 10 22 3 0 3 0 -6 -107 -7 -108 -12 -150 -12 -150 6 -115
6 -115 -13 -17 -13 -16 -130 3 -129 3 -135 7 -135 7 15 -12 15 -12 -179 5
-178 5 -9 9 -9 9 -1 135 -1 134 7 75 6 75 -11 -15 -12 -15 6 40 6 40 1 25 2
25 7 -50 8 -50 -2 102 -1 101 8 -5 7 -4 0 58 0 59 28 11 27 11 -24 1 -24 1 7
8 8 7 24 0 25 1 -5 -13 -5 -13 17 0 17 -1 140 -14 140 -15 97 0 98 0 -3 11 -2
12 12 4 11 4 7 -55 7 -56 7 4 6 4 -1 -176 -1 -177 8 25 7 25 1 -57 1 -57 -11
-7 -12 -7 5 32 5 31 -8 0 -8 0 -3 -41 -3 -40 -187 -2 -186 -3 -6 26 -5 25 4
164 4 164 13 9 13 9 64 -5 63 -5 3 -3 3 -3 6 -100 5 -100 1 -32 0 -33 71 0 72
0 -8 148 -8 147 2 23 1 22 -8 2 -7 1 -25 3 -25 2 -167 7 -167 8 -7 -27 -7 -27
12 -25 11 -24 -9 0 -8 0 -1 -32 -1 -33 -10 -70 -10 -70 -6 -110 -6 -110 -5
-23 -4 -22 25 -10 26 -10 92 -4 92 -4 190 10 190 10 35 7 35 7 3 18 4 19 -14
8 -13 9 12 0 12 0 -3 93 -4 92 -7 220 -6 220 -11 37 -11 36 -51 6 -51 5 -108
12 -108 12 -22 -12 -22 -12 -215 4 -215 4 -15 3 -15 3 -12 10 -13 9 0 19 0 18
-272 0 -273 1 -97 4 -97 4 -6 -12 -5 -11 -6 13 -6 12 -26 -1 -27 -1 12 -4 12
-5 -6 -15 -5 -14 28 -1 29 0 40 -4 40 -4 140 -12 140 -12 25 1 25 1 20 2 20 1
148 -7 147 -7 0 -88 0 -88 12 -4 13 -5 -17 -16 -17 -17 0 -38 0 -37 -3 -341
-3 -342 -7 5 -8 4 0 -13 0 -14 13 -13 12 -14 -12 7 -13 7 0 -10 0 -11 -27 0
-28 0 15 -10 15 -10 -23 0 -23 0 5 9 6 8 -38 7 -37 6 -240 0 -240 0 -15 9 -14
10 -11 -7 -10 -6 -80 3 -80 3 -7 11 -6 10 -7 42 -6 42 18 139 18 139 -1 64 0
63 6 -17 6 -18 12 79 12 79 7 68 6 67 13 18 14 17 -5 -15 -5 -15 231 -3 230
-2 16 8 16 9 28 -10 28 -11 3 -88 3 -88 -5 0 -6 0 -2 -37 -1 -38 9 20 9 20 -2
-35 -2 -35 -11 2 -11 2 -7 -106 -7 -106 11 -7 12 -7 -4 -24 -5 -24 -11 25 -11
25 1 -40 2 -40 9 -6 9 -6 -11 -7 -11 -7 0 10 0 11 -21 0 -20 0 15 -16 16 -16
-5 -9 -6 -9 -17 1 -17 0 19 8 20 8 -12 7 -12 7 -10 -6 -10 -6 0 10 0 10 -77
-3 -78 -3 -85 -2 -85 -1 15 -11 15 -10 -20 4 -20 3 2 10 1 9 7 150 7 150 3 25
3 25 1 19 1 18 18 -7 17 -6 -12 12 -13 13 0 13 0 13 38 0 37 0 -15 11 -15 11
20 -7 20 -6 28 -6 28 -6 -4 -11 -4 -11 -14 1 -14 1 -3 -138 -3 -137 83 1 83 2
8 50 8 50 -6 127 -5 126 -8 22 -8 22 -172 2 -172 1 -2 -60 -2 -60 -1 -32 0
-31 -6 4 -7 4 -16 -87 -16 -87 8 -5 8 -6 3 -45 2 -45 -10 10 -10 10 -4 35 -4
35 -2 -55 -3 -55 -2 -75 -1 -75 50 -13 50 -13 90 6 90 6 30 4 30 4 95 1 95 2
58 5 59 5 -7 27 -6 26 -10 3 -9 4 0 14 0 14 9 0 9 0 5 -12 4 -13 6 110 7 110
6 256 7 257 -20 10 -19 11 -100 1 -99 2 3 -11 2 -11 -6 0 -7 0 -11 15 -11 14
-200 7 -200 7 -55 1 -55 1 -6 85 -5 85 -2 -123z m208 98 l0 -9 -15 5 -15 6 0
4 0 4 15 0 15 0 0 -10z m628 -29 l-13 -21 -12 0 -13 0 0 10 0 10 15 0 16 0 6
15 5 16 5 -5 4 -4 -13 -21z m1192 8 l15 -10 -38 6 -39 6 -5 -20 -5 -21 -9 0
-9 0 0 9 0 9 5 14 6 14 32 2 32 2 15 -11z m-1490 -9 l0 -9 -15 5 -15 6 0 4 0
4 15 0 15 0 0 -10z m237 -12 l-5 -13 -1 19 -1 19 6 -6 6 -6 -5 -13z m1309 -24
l13 5 -6 -15 -5 -14 -18 0 -19 0 -15 16 -16 15 0 4 0 5 27 -11 26 -10 13 5z
m51 -6 l-5 -13 -1 19 -1 19 6 -6 6 -6 -5 -13z m-867 -8 l0 -9 -15 5 -15 6 0 4
0 4 15 0 15 0 0 -10z m110 0 l0 -10 -4 0 -5 0 -6 10 -6 10 10 0 11 0 0 -10z
m180 -9 l25 -7 -12 -7 -11 -7 -31 6 -31 7 -6 8 -5 9 23 -1 23 -1 25 -7z m117
-6 l0 -14 -9 5 -8 5 5 10 6 9 3 0 3 0 0 -15z m-665 -23 l-12 -4 10 -18 10 -18
-15 2 -14 2 -7 6 -6 6 18 27 18 28 5 -14 4 -13 -11 -4z m318 24 l0 -5 -9 -6
-10 -5 -6 10 -6 10 15 0 16 0 0 -4z m380 -6 l0 -10 -4 0 -5 0 -6 10 -6 10 10
0 11 0 0 -10z m-629 -20 l9 0 0 -10 0 -10 -25 0 -25 0 0 16 0 16 16 -6 16 -6
9 0z m683 -6 l6 -17 -4 -4 -4 -5 -12 21 -11 21 10 0 9 0 6 -16z m-44 -19 l0
-25 -9 0 -9 0 -5 19 -5 20 6 5 5 6 9 0 8 0 0 -25z m270 -1 l0 -15 -10 6 -10 6
0 10 0 9 10 0 10 0 0 -16z m-740 -4 l0 -10 -50 0 -50 0 0 10 0 10 50 0 50 0 0
-10z m225 -12 l10 -8 -32 0 -33 0 0 9 0 10 18 3 17 4 5 -5 5 -6 10 -7z m165
12 l0 -10 -10 0 -10 0 0 10 0 10 10 0 10 0 0 -10z m-280 -16 l0 -4 -20 0 -20
0 0 9 0 9 20 -5 20 -5 0 -4z m-1280 -4 l0 -10 -10 0 -10 0 0 10 0 10 10 0 10
0 0 -10z m64 -6 l6 -16 -16 6 -16 6 -9 0 -9 0 0 10 0 10 19 0 19 0 6 -16z
m196 -15 l0 -10 -10 6 -10 6 0 10 0 10 10 -6 10 -6 0 -10z m297 5 l-6 -6 -13
5 -13 5 19 1 19 1 -6 -6z m833 -4 l15 -10 -47 0 -47 0 -6 10 -6 10 38 0 38 0
15 -10z m-1050 -22 l0 -10 -12 4 -12 4 -4 12 -4 12 16 -6 16 -6 0 -10z m609
-25 l0 -48 -9 20 -9 20 0 28 -1 27 10 0 10 0 -1 -47z m691 27 l0 -10 -11 0
-10 0 6 10 6 10 5 0 4 0 0 -10z m250 -19 l0 -30 -10 -6 -10 -6 0 35 0 36 10 0
10 0 0 -29z m-1890 3 l0 -16 -12 4 -12 4 -4 12 -4 12 16 0 16 0 0 -16z m290
-20 l0 -14 -9 0 -9 0 -11 13 -11 14 6 6 6 6 14 -6 14 -5 0 -14z m-220 6 l0
-10 -10 0 -10 0 0 10 0 10 10 0 10 0 0 -10z m64 -2 l-5 -8 -15 0 -14 0 0 8 0
8 19 0 20 0 -5 -8z m501 -8 l6 -10 -15 0 -16 0 0 10 0 10 9 0 10 0 6 -10z
m1290 -12 l-5 -23 -9 -164 -10 -163 -5 -6 -6 -5 -5 5 -6 5 10 109 10 109 6 78
7 77 9 0 9 0 -5 -22z m-1920 2 l6 -10 -10 0 -10 0 -6 10 -6 10 10 0 10 0 6
-10z m695 -21 l0 -19 -10 0 -10 0 0 26 0 25 10 -6 10 -6 0 -20z m-460 11 l15
-10 -32 0 -33 0 0 10 0 10 18 0 17 0 15 -10z m661 -17 l-10 -18 -1 16 0 16 7
6 6 7 5 -4 4 -4 -11 -19z m-921 -24 l0 -41 -12 5 -13 4 1 24 2 24 1 13 1 12
10 0 10 0 0 -41z m400 31 l0 -10 -15 0 -15 0 0 10 0 10 15 0 15 0 0 -10z m70
0 l0 -10 -4 0 -5 0 -6 10 -6 10 10 0 11 0 0 -10z m200 -11 l0 -20 -10 6 -10 6
0 15 0 14 10 0 10 0 0 -21z m527 -4 l0 -15 -15 0 -14 0 12 15 12 15 3 0 2 0 0
-15z m-1162 -92 l-7 -78 -10 -10 -10 -10 4 76 5 76 7 11 7 12 6 0 5 0 -7 -77z
m684 35 l0 -43 -9 20 -9 20 0 23 -1 22 10 0 10 0 -1 -42z m655 23 l6 -9 -25 3
-26 2 -6 7 -6 6 26 0 26 0 5 -9z m86 -1 l0 -10 -10 0 -10 0 0 10 0 10 10 0 10
0 0 -10z m168 -24 l4 -18 -10 -10 -10 -10 -4 32 -5 31 11 -4 11 -4 3 -17z
m-1656 -25 l4 -29 -13 5 -13 5 0 30 0 29 9 -5 9 -6 4 -29z m1218 30 l0 -10
-10 -6 -10 -6 0 15 0 16 10 0 10 0 0 -9z m-320 -53 l0 -41 -6 6 -7 6 -1 40 -1
39 8 -5 7 -4 0 -41z m1030 10 l0 -31 -5 5 -5 5 -4 31 -3 32 8 -6 9 -5 0 -31z
m-1250 6 l0 -14 -10 0 -10 0 0 21 0 20 10 -6 10 -6 0 -15z m837 -6 l-5 -13 -1
19 -1 19 6 -6 6 -6 -5 -13z m-797 -4 l0 -15 -10 6 -10 6 5 10 6 9 5 0 4 0 0
-16z m-470 -4 l0 -10 -14 0 -15 0 -6 10 -6 10 20 0 21 0 0 -10z m35 0 l6 -10
-10 0 -11 0 0 10 0 10 4 0 5 0 6 -10z m85 0 l0 -10 -9 0 -10 0 -6 10 -6 10 15
0 16 0 0 -10z m90 0 l0 -10 -4 0 -5 0 -6 10 -6 10 10 0 11 0 0 -10z m760 -35
l0 -35 -10 0 -10 0 0 28 0 29 7 6 6 7 4 0 3 0 0 -35z m-1023 -12 l-5 -18 0 30
0 30 5 -12 5 -13 -5 -17z m143 27 l0 -10 -10 0 -10 0 0 10 0 10 10 0 10 0 0
-10z m170 -26 l0 -14 -9 0 -9 0 -6 16 -6 16 0 10 0 10 15 -12 15 -12 0 -14z
m-333 4 l-5 -13 -1 19 -1 19 6 -6 6 -6 -5 -13z m113 12 l0 -10 -10 0 -10 0 0
10 0 10 10 0 10 0 0 -10z m1170 -10 l0 -20 -10 0 -10 0 0 20 0 20 10 0 10 0 0
-20z m-730 0 l0 -10 -10 0 -10 0 0 10 0 10 10 0 10 0 0 -10z m-270 -38 l0 -13
-10 6 -10 6 0 22 0 22 10 -15 10 -15 0 -13z m-185 18 l6 -10 -16 0 -16 0 6 10
6 10 4 0 4 0 6 -10z m159 -15 l5 -15 -8 0 -9 0 -12 15 -12 15 15 0 15 0 6 -15z
m-437 -42 l-5 -18 0 35 0 35 5 -17 4 -18 -4 -17z m715 7 l10 0 -12 -15 -12
-15 -9 6 -9 5 0 23 0 23 8 7 7 8 3 -21 3 -21 11 0z m-662 -6 l0 -15 -10 6 -10
6 0 10 0 9 10 0 10 0 0 -16z m160 -30 l0 -45 -10 6 -10 6 0 40 0 39 10 0 10 0
0 -46z m307 31 l5 -16 -6 -7 -7 -6 -9 14 -10 15 0 8 0 7 10 0 11 0 6 -15z
m1186 9 l6 -6 -6 -15 -6 -15 -8 14 -9 13 0 8 0 7 8 0 9 0 6 -6z m-1673 -34 l0
-10 -10 0 -10 0 0 10 0 10 10 0 10 0 0 -10z m450 -7 l20 -17 0 -8 0 -8 -11 0
-10 0 -15 14 -14 15 0 10 0 11 5 0 5 0 20 -17z m245 -23 l6 -10 -10 0 -11 0 0
10 0 10 4 0 5 0 6 -10z m-332 -19 l5 -20 -14 6 -14 5 0 7 0 8 7 6 6 7 3 0 2 0
5 -19z m307 -34 l0 -28 -10 6 -10 6 0 37 0 37 10 -15 10 -15 0 -28z m1220 28
l0 -25 -10 0 -10 0 0 25 0 25 10 0 10 0 0 -25z m-1755 5 l-6 -10 -12 0 -12 0
15 10 15 10 3 0 3 0 -6 -10z m305 -20 l0 -10 -10 0 -10 0 0 10 0 10 10 0 10 0
0 -10z m40 -12 l0 -23 -9 15 -10 14 5 8 5 8 5 0 4 0 0 -22z m-363 -35 l-5 -18
0 30 0 30 5 -12 5 -13 -5 -17z m243 27 l0 -10 -10 0 -10 0 0 10 0 10 10 0 10
0 0 -10z m45 -31 l7 -30 -6 -6 -6 -6 -4 4 -4 4 -7 33 -7 32 10 0 10 0 7 -31z
m1457 -71 l3 -56 -7 5 -8 4 1 77 2 77 3 -25 3 -25 3 -57z m-1232 38 l0 -25
-10 -6 -10 -6 0 30 0 31 10 0 10 0 0 -24z m452 -38 l4 -37 -8 5 -8 5 1 47 1
47 4 -15 3 -15 3 -37z m-704 28 l4 -18 -14 4 -13 5 -3 17 -4 18 14 -4 13 -5 3
-17z m-242 -28 l-6 -23 0 -12 0 -13 -10 0 -10 0 0 19 0 19 6 16 6 16 10 0 10
0 -6 -22z m997 7 l-5 -16 -5 5 -5 5 7 10 6 11 4 0 4 0 -6 -15z m-791 -27 l-12
-12 0 24 0 24 12 -12 12 -12 -12 -12z m93 -17 l-4 -3 -26 6 -26 7 6 8 5 9 24
-11 25 -12 -4 -4z m172 -13 l-5 -13 0 25 0 25 5 -12 5 -13 -5 -12z m-630 -20
l-5 -13 0 25 0 25 5 -12 5 -13 -5 -12z m720 -5 l-5 -18 0 30 0 30 5 -12 5 -13
-5 -17z m-47 7 l0 -20 -10 0 -10 0 0 20 0 20 10 0 10 0 0 -20z m995 10 l6 -10
-10 0 -11 0 0 10 0 10 4 0 5 0 6 -10z m-1465 -22 l0 -23 -10 15 -10 15 0 8 0
7 10 0 10 0 0 -22z m1545 12 l6 -10 -10 0 -11 0 0 10 0 10 4 0 5 0 6 -10z
m-150 -10 l6 -10 -15 0 -16 0 0 10 0 10 9 0 10 0 6 -10z m-115 -20 l0 -10 -11
0 -10 0 6 10 6 10 5 0 4 0 0 -10z m-1520 -27 l0 -28 -9 14 -9 14 5 14 5 13 4
0 4 0 0 -27z m756 -10 l-6 -6 -6 6 -6 6 7 18 8 18 4 -18 5 -19 -6 -5z m1228
-11 l5 -9 -14 0 -15 0 0 9 0 8 9 0 10 0 5 -8z m-1839 -21 l5 -10 -10 -6 -10
-6 0 15 0 16 4 0 5 0 6 -9z m585 -12 l0 -20 -10 6 -9 6 6 14 5 15 4 0 4 0 0
-21z m1490 1 l0 -10 -10 0 -10 0 0 10 0 10 10 0 10 0 0 -10z m-2040 -25 l0
-15 -4 0 -4 0 -6 15 -5 15 9 0 10 0 0 -15z m1775 -5 l6 -10 -28 0 -28 0 15 10
15 10 7 0 7 0 6 -10z m85 6 l0 -5 -9 -6 -10 -5 -6 10 -6 10 15 0 16 0 0 -4z
m-1714 -21 l19 -16 -24 3 -24 3 -5 13 -4 12 9 0 9 0 20 -15z m1164 5 l0 -10
-4 0 -5 0 -6 10 -6 10 10 0 11 0 0 -10z m-1220 -4 l0 -5 -9 -6 -10 -5 -6 10
-6 10 15 0 16 0 0 -4z m350 -16 l0 -10 -10 0 -10 0 0 10 0 10 10 0 10 0 0 -10z
m437 -5 l0 -15 -14 0 -13 0 0 9 0 9 13 5 12 5 1 1 1 1 0 -15z m193 -7 l0 -9
-17 3 -16 3 -4 12 -4 11 20 -5 21 -5 0 -10z m187 7 l0 -15 -9 0 -8 0 0 8 0 9
7 6 6 7 2 0 2 0 0 -15z m-922 -5 l6 -10 -20 0 -21 0 0 10 0 10 14 0 15 0 6
-10z m955 0 l0 -10 -4 0 -5 0 -6 10 -6 10 10 0 11 0 0 -10z m280 0 l0 -10 -22
1 -23 0 20 9 20 9 3 0 2 1 0 -10z m90 -15 l-12 -15 -14 0 -14 0 0 9 0 10 23 4
22 4 4 2 3 1 -12 -15z m-203 -1 l-6 -6 -13 5 -13 5 19 1 19 1 -6 -6z m-647
-14 l0 -10 -20 0 -20 0 0 10 0 10 20 0 20 0 0 -10z m465 0 l-6 -10 -30 0 -30
0 6 10 6 10 30 0 30 0 -6 -10z m-175 -4 l0 -4 -19 -5 -19 -5 -13 9 -14 9 33 0
32 0 0 -4z m454 -7 l-5 -9 20 0 21 0 0 -10 0 -10 -47 1 -48 0 20 9 20 9 -54
-6 -54 -6 8 13 8 13 -16 -6 -16 -6 -5 8 -5 7 79 1 80 0 -6 -8z m-637 -14 l0
-15 -13 0 -12 0 -4 -12 -4 -11 -29 7 -29 7 14 9 13 8 13 -5 13 -5 16 16 16 16
3 0 3 0 0 -15z m63 5 l0 -10 -16 0 -15 0 6 10 6 10 10 0 9 0 0 -10z m340 0 l0
-10 -77 2 -78 1 55 7 55 7 23 1 22 2 0 -10z m380 -23 l0 -20 -4 4 -3 4 -12 22
-11 23 15 -6 15 -6 0 -21z m-927 9 l6 -14 -20 5 -19 5 -6 9 -5 9 19 0 20 0 5
-14z m360 -3 l-13 -5 -12 5 -13 5 25 0 25 0 -12 -5z m-50 -10 l-13 -5 -12 5
-13 5 25 0 25 0 -12 -5z m532 -3 l6 -10 -21 0 -21 0 6 10 6 10 9 0 9 0 6 -10z
m45 0 l0 -10 -10 0 -10 0 0 10 0 10 10 0 10 0 0 -10z m-540 -10 l0 -10 -27 1
-28 1 25 8 25 8 3 1 2 1 0 -10z m53 3 l-13 -5 -17 5 -18 5 30 0 30 0 -12 -5z
m87 -3 l0 -10 -26 0 -25 0 6 10 6 10 20 0 19 0 0 -10z m238 -7 l-18 -4 -22 4
-23 4 40 0 40 1 -17 -5z m-1558 -24 l15 -8 -26 -1 -27 0 -13 16 -14 17 25 -8
25 -7 15 -9z m1705 0 l9 -9 -9 -18 -10 -17 3 -58 3 -58 12 8 12 7 -13 -16 -13
-16 3 -149 2 -148 -4 -131 -4 -131 -10 -2 -11 -2 -100 -9 -100 -9 -145 -10
-145 -10 -107 9 -107 10 -15 6 -14 5 -7 115 -7 115 12 87 13 87 6 70 6 70 125
-2 125 -1 45 -3 45 -2 30 5 30 6 65 4 65 3 3 -34 3 -33 -10 7 -11 6 0 20 0 21
-12 -5 -13 -4 2 -34 1 -34 8 -111 7 -110 -104 -12 -104 -12 -32 0 -32 0 -5 9
-6 8 -10 99 -10 99 -6 23 -5 24 -52 -7 -52 -7 -8 -7 -7 -7 -4 -110 -5 -109 8
30 7 30 7 -34 7 -33 -1 -22 -1 -21 -8 25 -9 25 6 -55 6 -55 3 -3 3 -4 128 -1
128 -2 115 6 115 6 15 7 15 6 5 93 5 92 0 140 0 140 -7 25 -7 25 -183 -2 -183
-3 -92 -10 -92 -10 -68 0 -68 0 -14 -9 -13 -8 3 -51 4 -50 -7 5 -8 4 -1 -103
-1 -103 0 -5 1 -5 6 -20 7 -20 -10 14 -10 14 5 -189 5 -189 10 -10 9 -10 407
-1 407 -1 45 -8 45 -9 18 3 17 2 -1 -63 0 -63 -7 -78 -8 -77 11 -12 10 -11
-11 6 -11 6 -8 -232 -8 -232 -3 -95 -3 -95 -7 -24 -7 -23 -66 7 -66 7 -85 8
-85 8 -5 -3 -5 -3 -150 -7 -150 -7 -50 12 -50 11 -114 5 -114 5 -15 8 -15 8 2
84 2 84 9 110 10 110 5 70 6 70 -10 -15 -11 -15 1 35 1 35 5 -17 4 -18 8 0 8
0 -5 25 -4 25 7 55 6 55 80 0 79 0 0 8 0 8 83 -3 82 -4 193 -2 192 -2 3 9 3
10 12 -8 12 -7 0 -34 0 -34 -10 -6 -10 -6 0 -30 0 -29 11 0 11 0 -12 -14 -12
-15 4 -85 3 -84 -7 5 -8 4 0 -8 1 -8 8 -42 8 -42 -7 4 -7 5 -7 -67 -7 -66 -9
-16 -8 -17 -69 3 -68 4 -89 5 -90 6 -14 -18 -14 -19 -5 13 -5 12 -58 0 -58 0
-6 22 -5 23 10 67 10 68 7 142 7 143 13 1 12 2 20 1 20 1 0 14 0 15 28 -3 27
-2 -3 -13 -2 -12 7 4 8 5 23 -9 23 -9 -5 -52 -5 -53 -7 -106 -7 -106 13 -8 12
-7 86 -4 87 -3 15 9 14 9 4 192 4 192 -11 -8 -12 -7 -15 13 -15 12 -6 -22 -6
-23 -6 11 -7 11 -50 9 -49 10 -133 -3 -134 -3 -5 14 -6 15 -8 -14 -8 -13 -8
-1 -8 -1 -17 -7 -17 -8 0 -66 0 -67 -5 -70 -6 -70 -11 -83 -11 -83 -2 -70 -1
-69 32 0 32 0 5 -9 6 -8 272 5 273 4 87 2 88 1 -8 20 -7 20 0 367 0 367 -29 5
-28 6 -58 0 -58 0 -54 -11 -53 -11 -15 -6 -15 -5 -280 -3 -280 -3 -30 -3 -30
-3 4 370 3 370 9 9 8 9 -6 128 -5 129 3 1 4 0 130 6 130 5 2 2 1 1 334 -3 333
-3 10 -10z m-1464 -5 l31 -15 -4 -5 -5 -4 -31 11 -32 11 0 9 0 9 5 0 6 0 30
-16z m42 9 l-13 -5 -12 5 -13 5 25 0 25 0 -12 -5z m77 -3 l0 -10 -9 0 -10 0
-6 10 -6 10 15 0 16 0 0 -10z m-435 -20 l6 -10 -15 0 -16 0 0 10 0 10 9 0 10
0 6 -10z m134 -1 l31 -11 0 -9 0 -9 -14 0 -14 0 -23 20 -24 19 6 1 6 0 32 -11z
m1681 2 l0 -10 -10 -6 -10 -6 0 15 0 16 10 0 10 0 0 -9z m-1099 -17 l13 -16
-18 3 -19 4 -5 13 -4 12 10 0 10 0 13 -16z m53 7 l5 -8 -5 -6 -6 -6 -14 6 -14
5 0 9 0 9 14 0 15 0 5 -9z m56 -11 l0 -10 -10 0 -10 0 0 10 0 10 10 0 10 0 0
-10z m-807 -22 l6 -22 -4 -4 -5 -5 -15 13 -15 12 0 14 0 14 14 0 14 0 5 -22z
m65 2 l5 -13 -14 7 -14 7 18 -14 17 -14 -6 -17 -6 -16 -14 0 -14 0 0 10 0 10
13 0 12 0 -24 13 -24 12 -5 14 -5 14 17 -6 16 -6 0 10 0 11 12 -4 12 -4 4 -14z
m202 2 l23 -18 -7 -22 -7 -22 -9 5 -8 5 -4 -12 -4 -12 -20 8 -19 8 33 12 33
11 -31 18 -30 18 0 10 0 9 14 0 14 0 22 -18z m128 2 l22 -6 0 -10 0 -10 -27 7
-28 6 -9 10 -10 9 15 0 14 0 23 -6z m-293 -24 l6 -10 -10 0 -11 0 0 10 0 10 4
0 5 0 6 -10z m35 0 l0 -10 -10 0 -10 0 0 10 0 10 10 0 10 0 0 -10z m-160 -36
l0 -14 -24 2 -24 2 3 16 3 15 1 2 1 1 20 -5 20 -5 0 -14z m780 11 l0 -15 -10
0 -10 0 0 15 0 15 10 0 10 0 0 -15z m1060 5 l0 -10 -4 0 -5 0 -6 10 -6 10 10
0 11 0 0 -10z m-1315 -10 l6 -10 -20 0 -20 0 -6 10 -6 10 20 0 20 0 6 -10z
m293 -18 l3 -22 -10 0 -11 0 0 9 0 9 -7 18 -6 17 14 -5 14 -5 3 -21z m-663 9
l-5 -10 12 -7 12 -7 -20 -8 -19 -8 -120 0 -120 -1 12 8 13 8 107 -2 108 -2
-17 5 -18 4 0 9 0 9 23 4 22 4 8 2 8 1 -6 -9z m185 -11 l0 -20 -9 0 -10 0 -6
10 -6 10 6 10 6 10 10 0 9 0 0 -20z m994 4 l6 -17 -12 10 -13 10 -15 6 -15 5
21 1 22 1 6 -16z m-919 -4 l20 -9 -27 0 -28 -1 0 10 0 10 8 -1 7 0 20 -9z
m-338 -6 l-6 -6 -13 5 -13 5 19 1 19 1 -6 -6z m613 -4 l0 -10 -20 0 -20 0 0
10 0 10 20 0 20 0 0 -10z m-424 -15 l19 -14 -42 -1 -43 0 0 8 0 9 7 6 6 7 17
0 16 0 20 -15z m109 5 l6 -10 -15 0 -16 0 0 10 0 10 9 0 10 0 6 -10z m391 -25
l6 -15 11 7 10 6 -7 -11 -7 -12 -20 0 -19 0 0 4 0 4 -6 16 -6 16 16 0 17 0 5
-15z m282 -7 l-4 -12 -12 -4 -12 -4 0 16 0 16 16 0 16 0 -4 -12z m95 5 l-13
-5 -12 5 -13 5 25 0 25 0 -12 -5z m191 -11 l5 -8 -19 -1 -20 -2 -5 10 -6 9 20
0 20 0 5 -8z m174 1 l-18 -4 -17 4 -18 5 35 0 35 0 -17 -5z m122 -3 l0 -10 -4
0 -5 0 -6 10 -6 10 10 0 11 0 0 -10z m199 -47 l-2 -48 -6 35 -7 35 4 13 4 12
4 0 4 0 -1 -47z m-1080 0 l-1 -28 -8 -25 -8 -25 -1 53 -1 52 10 0 10 0 -1 -27z
m821 -69 l0 -24 -10 0 -10 0 0 31 0 30 10 -6 10 -6 0 -25z m-1420 -13 l0 -9
-20 5 -20 5 0 4 0 4 20 0 20 0 0 -9z m200 -11 l0 -10 -15 0 -15 0 0 10 0 10
15 0 15 0 0 -10z m180 -12 l0 -9 -17 3 -16 3 -4 12 -4 11 20 -5 21 -5 0 -10z
m-95 2 l6 -10 -15 0 -16 0 0 10 0 10 9 0 10 0 6 -10z m1225 -35 l0 -45 -10 0
-11 0 2 38 2 37 4 8 4 7 5 0 4 0 0 -45z m147 30 l0 -15 -9 0 -8 0 0 8 0 9 7 6
6 7 2 0 2 0 0 -15z m-1739 -8 l12 0 0 -9 0 -8 -22 4 -23 5 -7 0 -8 1 0 11 0
11 18 -7 17 -7 13 -1z m682 -26 l0 -40 -10 -6 -10 -6 0 45 0 46 10 0 10 0 0
-39z m-620 15 l0 -4 -15 -5 -14 -6 -6 9 -6 10 20 0 21 0 0 -4z m380 -12 l0
-15 -10 6 -10 6 5 10 6 9 5 0 4 0 0 -16z m617 -6 l-5 -13 -1 19 -1 19 6 -6 6
-6 -5 -13z m88 1 l7 -21 -7 -6 -6 -6 -9 14 -10 15 0 13 0 12 9 0 10 0 6 -21z
m-448 -26 l-5 -18 0 30 0 30 5 -12 5 -13 -5 -17z m53 28 l0 -10 -10 -6 -10 -6
0 15 0 16 10 0 10 0 0 -9z m427 -38 l-5 -18 0 30 0 30 5 -12 5 -13 -5 -17z
m-713 -5 l-5 -8 -10 0 -9 0 0 8 0 9 15 0 14 0 -5 -9z m666 -20 l0 -22 -11 11
-11 11 6 11 7 11 5 0 4 0 0 -22z m367 0 l-5 -13 -1 19 -1 19 6 -6 6 -6 -5 -13z
m-748 -173 l2 -185 -11 0 -11 0 2 93 3 92 -5 75 -6 75 5 18 4 17 7 0 7 0 3
-185z m-550 90 l1 -30 -20 38 -20 37 0 12 0 13 10 -15 10 -15 1 20 1 20 8 -25
8 -25 1 -30z m911 39 l0 -14 -10 0 -10 0 0 21 0 20 10 -6 10 -6 0 -15z m387
-21 l-5 -18 0 35 0 35 5 -17 4 -18 -4 -17z m273 17 l0 -20 -10 0 -10 0 0 20 0
20 10 0 10 0 0 -20z m-1300 -57 l0 -13 -10 0 -10 0 0 28 0 27 10 -15 10 -15 0
-12z m1110 12 l0 -25 -10 0 -10 0 0 25 0 25 10 0 10 0 0 -25z m-1643 -27 l-5
-13 0 25 0 25 5 -12 5 -13 -5 -12z m209 -30 l7 -63 1 -22 2 -23 -8 0 -8 0 -1
23 -1 22 -2 25 -3 25 -8 38 -7 37 10 0 10 0 8 -62z m1214 52 l0 -10 -9 0 -10
0 -6 10 -6 10 15 0 16 0 0 -10z m-1250 -16 l0 -15 -10 6 -10 6 5 10 6 9 5 0 4
0 0 -16z m70 -52 l0 -43 -10 6 -10 6 0 52 0 52 10 -15 10 -15 0 -43z m1570 54
l0 -4 -15 -6 -15 -5 0 9 0 10 15 0 15 0 0 -4z m47 -28 l-5 -13 -1 19 -1 19 6
-6 6 -6 -5 -13z m-1297 -25 l0 -28 -10 -15 -10 -15 0 43 0 42 10 0 10 0 0 -27z
m795 -13 l-6 -10 -15 0 -15 0 6 10 6 10 15 0 15 0 -6 -10z m203 3 l-18 -4 -17
4 -18 5 35 0 35 0 -17 -5z m-1581 -35 l-5 -13 0 25 0 25 5 -12 5 -13 -5 -12z
m293 6 l0 -25 -10 6 -10 6 0 20 0 19 10 0 10 0 0 -26z m517 -41 l-5 -18 0 30
0 30 5 -12 5 -13 -5 -17z m-770 -95 l-4 -43 0 80 0 80 4 -37 4 -37 -4 -43z
m742 95 l0 -8 -9 -20 -9 -20 0 28 -1 27 10 0 10 0 -1 -7z m21 -44 l0 -20 -10
6 -10 6 0 15 0 14 10 0 10 0 0 -21z m-580 -23 l0 -15 -9 -5 -9 -6 5 -20 5 -20
-10 0 -11 0 1 40 0 40 14 0 14 0 0 -14z m750 4 l0 -10 -10 0 -10 0 0 10 0 10
10 0 10 0 0 -10z m800 -10 l0 -10 -4 0 -5 0 -6 10 -6 10 10 0 11 0 0 -10z
m-1420 -10 l0 -9 -19 -10 -18 -10 -7 6 -6 6 11 14 11 13 14 0 14 0 0 -10z
m1330 -4 l0 -5 -10 -6 -10 -6 0 10 0 11 10 0 10 0 0 -4z m-1230 -37 l0 -9 -10
0 -10 0 0 16 0 15 10 -6 10 -6 0 -10z m-156 -4 l5 -15 -14 0 -15 0 0 15 0 15
9 0 9 0 6 -15z m196 5 l0 -10 -10 0 -10 0 0 10 0 10 10 0 10 0 0 -10z m1300 0
l0 -10 -15 0 -15 0 0 10 0 10 15 0 15 0 0 -10z m-793 -6 l-6 -6 -13 5 -13 5
19 1 19 1 -6 -6z m173 -4 l0 -10 -16 0 -15 0 6 10 6 10 10 0 9 0 0 -10z m-820
-10 l0 -10 -15 0 -15 0 0 10 0 10 15 0 15 0 0 -10z m40 0 l0 -10 -15 0 -15 0
0 10 0 10 15 0 15 0 0 -10z m728 3 l-18 -4 -17 4 -18 5 35 0 35 0 -17 -5z
m-615 -10 l-13 -5 -12 5 -13 5 25 0 25 0 -12 -5z m717 -3 l0 -10 -10 0 -10 0
0 10 0 10 10 0 10 0 0 -10z m660 -10 l0 -10 -10 0 -10 0 0 10 0 10 10 0 10 0
0 -10z m-1084 -78 l-6 -5 -6 6 -6 6 8 33 9 33 3 -33 3 -34 -5 -6z m1189 37 l7
-10 -4 -4 -4 -4 -22 6 -22 5 0 9 0 9 19 0 20 0 6 -11z m178 -20 l-11 -11 -19
11 -18 10 30 1 29 0 -11 -11z m-1426 -21 l-5 -13 -1 19 -1 19 6 -6 6 -6 -5
-13z m-750 -20 l-5 -13 0 25 0 25 5 -12 5 -13 -5 -12z m706 15 l-13 -5 -12 5
-13 5 25 0 25 0 -12 -5z m1247 -2 l0 -10 -10 -6 -10 -6 0 15 0 16 10 0 10 0 0
-9z m150 -11 l10 -20 -15 6 -15 6 0 14 0 14 5 0 4 0 11 -20z m-1520 0 l-15
-10 -45 1 -45 0 20 9 20 9 40 0 40 1 -15 -10z m210 -15 l13 -15 -17 6 -16 6 0
9 0 9 4 0 4 0 12 -15z m1467 -3 l0 -12 -36 6 -36 6 -8 8 -9 8 44 -2 45 -1 0
-13z m-1557 -2 l0 -10 -15 0 -15 0 0 10 0 10 15 0 15 0 0 -10z m1310 0 l0 -10
-14 0 -15 0 -6 10 -6 10 20 0 21 0 0 -10z m-1710 -10 l0 -10 -21 0 -20 0 6 10
6 10 15 0 14 0 0 -10z m-264 -27 l-6 -6 -6 6 -6 6 8 12 8 13 4 -13 4 -12 -6
-6z m94 17 l0 -10 -21 0 -20 0 6 -10 6 -10 -10 0 -10 0 2 20 1 20 23 0 23 0 0
-10z m377 4 l-6 -6 -13 5 -13 5 19 1 19 1 -6 -6z m320 -16 l-5 -13 -1 19 -1
19 6 -6 6 -6 -5 -13z m803 12 l0 -10 -15 0 -15 0 0 10 0 10 15 0 15 0 0 -10z
m340 -5 l0 -15 -10 0 -10 0 0 15 0 15 10 0 10 0 0 -15z m128 3 l-5 -13 -24 -2
-24 -2 18 5 17 6 -5 9 -6 9 16 0 17 0 -4 -12z m90 -9 l22 -9 0 -4 0 -5 -34 2
-34 2 4 4 4 4 -18 14 -17 14 25 -7 25 -7 23 -8z m-1608 1 l0 -10 -20 0 -20 0
0 10 0 10 20 0 20 0 0 -10z m116 -27 l-5 -5 -10 7 -11 6 0 11 0 10 15 -12 15
-13 -4 -4z m81 21 l-6 -6 -13 5 -13 5 19 1 19 1 -6 -6z m903 -4 l0 -10 -10 0
-10 0 0 10 0 10 10 0 10 0 0 -10z m-1457 -7 l-13 -5 -12 5 -13 5 25 0 25 0
-12 -5z m2067 -3 l15 -10 -22 0 -23 0 0 10 0 10 8 0 7 0 15 -10z m-1785 -10
l-6 -10 -10 0 -9 0 0 10 0 10 16 0 15 0 -6 -10z m-187 -25 l7 -6 -70 2 -70 2
-9 5 -8 5 11 6 11 7 61 -7 60 -7 7 -7z m877 16 l-6 -5 -14 -2 -15 -2 5 7 4 8
16 0 15 0 -5 -6z m501 -28 l-6 -6 -6 6 -6 6 8 12 8 13 4 -13 4 -12 -6 -6z
m-1633 10 l-13 -5 -17 5 -18 5 30 0 30 0 -12 -5z m847 -13 l0 -10 -9 0 -10 0
-6 10 -6 10 15 0 16 0 0 -10z m417 -6 l-6 -6 -13 5 -13 5 19 1 19 1 -6 -6z
m-374 -21 l-13 -5 -12 5 -13 5 25 0 25 0 -12 -5z m-66 -85 l-5 -13 0 25 0 25
5 -12 5 -13 -5 -12z m-767 8 l0 -5 -9 -6 -10 -5 -6 10 -6 10 15 0 16 0 0 -4z
m1010 -6 l0 -10 -4 0 -5 0 -6 10 -6 10 10 0 11 0 0 -10z m-865 -10 l6 -10 -10
0 -11 0 0 10 0 10 4 0 5 0 6 -10z m-40 -10 l6 -10 -10 0 -11 0 0 10 0 10 4 0
5 0 6 -10z m451 -57 l-5 -5 -10 7 -11 6 0 27 1 27 15 -28 16 -29 -6 -5z m474
38 l0 -20 -9 -5 -9 -6 -6 16 -6 16 0 9 0 9 15 0 15 0 0 -19z m-548 -21 l9 -24
-21 19 -20 18 0 9 0 10 12 -4 11 -4 9 -24z m768 20 l0 -10 -10 0 -10 0 0 10 0
10 10 0 10 0 0 -10z m145 1 l5 -10 -10 -6 -10 -6 0 15 0 16 4 0 5 0 6 -9z
m-1400 -11 l6 -10 -20 0 -21 0 0 10 0 10 14 0 15 0 6 -10z m175 0 l0 -10 -15
0 -15 0 0 10 0 10 15 0 15 0 0 -10z m220 0 l0 -10 -10 0 -10 0 0 10 0 10 10 0
10 0 0 -10z m-570 -25 l12 -15 -16 0 -16 0 0 15 0 15 4 0 4 0 12 -15z m1770 5
l0 -10 -10 0 -10 0 0 10 0 10 10 0 10 0 0 -10z m-990 -26 l0 -14 -5 0 -4 0
-11 20 -10 20 15 -6 15 -6 0 -14z m703 6 l5 -20 -9 6 -9 5 0 15 0 14 4 0 4 0
5 -20z m334 -32 l-5 -13 0 25 0 25 5 -12 5 -13 -5 -12z m-1457 -8 l0 -10 -19
0 -20 0 -6 10 -6 10 25 0 26 0 0 -10z m53 3 l-13 -5 -12 5 -13 5 25 0 25 0
-12 -5z m52 -13 l-6 -10 -15 0 -14 0 0 -13 0 -13 13 -13 12 -14 -14 8 -14 8 6
-16 6 -16 -8 -6 -9 -5 -7 36 -6 36 18 14 18 13 13 1 13 0 -6 -10z m64 -17 l0
-28 -9 20 -9 20 0 8 -1 7 10 0 10 0 -1 -27z m178 5 l-5 -13 -1 19 -1 19 6 -6
6 -6 -5 -13z m-420 6 l-6 -6 -13 5 -13 5 19 1 19 1 -6 -6z m223 -20 l0 -16
-12 4 -12 4 -4 12 -4 12 16 0 16 0 0 -16z m262 -16 l-12 -12 0 24 0 24 12 -12
12 -12 -12 -12z m174 -5 l-6 -6 -6 6 -6 6 7 18 8 18 4 -18 5 -19 -6 -5z m542
26 l-3 -10 -10 0 -9 0 -4 10 -4 11 17 0 17 0 -4 -11z m-1321 -21 l-5 -13 -1
19 -1 19 6 -6 6 -6 -5 -13z m173 12 l0 -10 -14 0 -15 0 -6 10 -6 10 20 0 21 0
0 -10z m1657 4 l-6 -6 -13 5 -13 5 19 1 19 1 -6 -6z m-1492 -54 l6 -10 -7 -11
-6 -11 -9 13 -9 14 0 8 0 7 9 0 10 0 6 -10z m35 -41 l0 -20 -10 6 -10 6 0 20
0 20 10 -6 10 -6 0 -20z m1443 -9 l-5 -20 -4 0 -4 0 0 26 0 25 9 -5 9 -6 -5
-20z m-1250 -19 l5 -20 -12 5 -13 5 0 14 0 15 8 0 7 0 5 -19z m797 9 l0 -10
-10 0 -10 0 0 10 0 10 10 0 10 0 0 -10z m-763 -22 l-5 -13 -1 19 -1 19 6 -6 6
-6 -5 -13z m-217 -20 l0 -23 -10 15 -10 15 0 8 0 7 10 0 10 0 0 -22z m160 1
l0 -9 -10 0 -10 0 0 16 0 15 10 -6 10 -6 0 -10z m420 11 l0 -10 -10 0 -10 0 0
10 0 10 10 0 10 0 0 -10z m360 0 l0 -10 -10 0 -10 0 0 10 0 10 10 0 10 0 0
-10z m60 -20 l0 -10 -10 0 -10 0 0 10 0 10 10 0 10 0 0 -10z m-1330 -16 l0
-15 -10 6 -10 6 0 10 0 9 10 0 10 0 0 -16z m1242 -6 l-10 -10 -12 7 -12 8 13
8 13 8 9 -6 9 -5 -10 -10z m358 -23 l0 -14 -10 -6 -10 -6 0 26 0 26 10 -6 10
-6 0 -14z m-1403 -47 l-4 -23 0 45 0 45 4 -22 4 -23 -4 -22z m728 23 l0 -28
-12 4 -13 5 0 18 0 18 13 5 12 5 0 1 0 1 0 -29z m-614 -43 l9 -16 -15 2 -14 2
-7 6 -6 6 8 24 7 23 5 -15 5 -15 8 -17z m-81 7 l0 -15 -10 0 -10 0 0 15 0 15
10 0 10 0 0 -15z m1540 -7 l0 -22 -11 11 -11 11 6 11 7 11 5 0 4 0 0 -22z
m-1740 -18 l0 -10 -4 0 -5 0 -6 10 -6 10 10 0 11 0 0 -10z m530 -5 l0 -15 -4
0 -4 0 -6 15 -5 15 9 0 10 0 0 -15z m-80 -5 l0 -10 -10 0 -10 0 0 10 0 10 10
0 10 0 0 -10z m1255 -14 l0 -25 -9 9 -9 9 6 15 6 16 3 0 3 0 0 -24z m-1778 -8
l-5 -13 -1 19 -1 19 6 -6 6 -6 -5 -13z m253 12 l0 -10 -10 0 -10 0 0 10 0 10
10 0 10 0 0 -10z m37 4 l-6 -6 -13 5 -13 5 19 1 19 1 -6 -6z m295 -56 l-11
-23 0 45 0 45 11 -22 11 -23 -11 -22z m538 -2 l0 -5 -9 -6 -10 -5 -6 10 -6 10
15 0 16 0 0 -4z m680 -16 l0 -20 -10 0 -10 0 0 20 0 20 10 0 10 0 0 -20z
m-1723 -12 l-5 -13 -1 19 -1 19 6 -6 6 -6 -5 -13z m1400 6 l-6 -6 -13 5 -13 5
19 1 19 1 -6 -6z m-1423 -20 l6 -17 -3 -3 -4 -4 -18 20 -18 20 15 0 16 0 6
-16z m505 -2 l10 -18 -20 -12 -19 -12 0 16 0 15 12 -7 11 -7 -5 21 -6 22 4 0
3 0 10 -18z m828 12 l-6 -6 -13 5 -13 5 19 1 19 1 -6 -6z m-787 -49 l0 -15
-10 0 -9 0 5 15 6 15 4 0 4 0 0 -15z m1437 9 l-6 -6 -13 5 -13 5 19 1 19 1 -6
-6z m-199 -39 l-6 -6 -6 18 -7 18 12 -12 13 -13 -6 -5z m-1665 0 l15 -14 3 2
4 2 -7 -9 -8 -10 -20 22 -21 22 10 0 10 0 14 -15z m91 -1 l6 -17 -17 14 -18
13 -4 3 -4 3 15 0 16 0 6 -16z m300 1 l5 -15 -14 0 -15 0 0 15 0 15 9 0 9 0 6
-15z m-509 -5 l6 -10 -10 0 -11 0 0 10 0 10 4 0 5 0 6 -10z m725 0 l0 -10 -4
0 -5 0 -6 10 -6 10 10 0 11 0 0 -10z m1010 0 l0 -10 -10 0 -10 0 0 10 0 10 10
0 10 0 0 -10z m80 0 l0 -10 -10 0 -10 0 0 10 0 10 10 0 10 0 0 -10z m167 4
l-6 -6 -13 5 -13 5 19 1 19 1 -6 -6z m99 -14 l0 -20 -9 9 -9 9 6 11 7 11 2 0
3 0 0 -20z m-243 -5 l-5 -16 -5 5 -5 5 7 10 6 11 4 0 4 0 -6 -15z m182 5 l6
-10 -16 0 -16 0 6 10 6 10 4 0 4 0 6 -10z m-1991 -15 l-6 -15 -8 0 -9 0 -6 9
-5 9 17 5 18 5 2 1 2 1 -5 -15z m1316 -5 l0 -10 -22 1 -23 0 20 9 20 9 3 0 2
1 0 -10z m-650 -20 l0 -10 -11 0 -10 0 6 10 6 10 5 0 4 0 0 -10z m-477 -12
l-4 -8 -45 0 -44 0 0 8 0 9 49 -1 49 -1 -5 -7z m1164 -14 l-6 -6 -13 5 -13 5
19 1 19 1 -6 -6z m-217 -14 l0 -10 -17 1 -18 1 -25 8 -25 8 43 1 42 1 0 -10z
m450 -30 l0 -10 -10 0 -10 0 0 10 0 10 10 0 10 0 0 -10z m-31 -47 l0 -38 -9
-20 -9 -20 -2 13 -1 12 0 15 0 15 1 30 1 30 10 0 10 0 -1 -37z m-1500 13 l12
-14 -20 5 -21 5 6 9 5 9 3 0 4 0 11 -14z m-54 -6 l-6 -10 -25 0 -24 0 0 -10 0
-10 -20 0 -20 0 0 10 0 10 20 0 20 0 0 10 0 10 31 0 30 0 -6 -10z m235 0 l0
-10 -15 0 -15 0 0 10 0 10 15 0 15 0 0 -10z m250 -6 l0 -16 -12 4 -12 4 -4 12
-4 12 16 0 16 0 0 -16z m-600 -14 l0 -10 -9 0 -10 0 -6 10 -6 10 15 0 16 0 0
-10z m719 -17 l0 -28 -8 20 -8 20 4 8 4 7 5 0 4 0 -1 -27z m-199 7 l0 -10 -9
0 -10 0 -6 10 -6 10 15 0 16 0 0 -10z m-560 -32 l0 -7 -14 5 -15 6 6 15 6 15
8 -14 9 -13 0 -7z m240 12 l0 -10 -27 6 -28 7 -4 3 -4 4 31 0 32 0 0 -10z
m266 -17 l-6 -6 -6 6 -6 6 8 12 8 13 4 -13 4 -12 -6 -6z m1271 -25 l-5 -13 0
25 0 25 5 -12 5 -13 -5 -12z m-1067 7 l0 -15 -10 0 -10 0 0 15 0 15 10 0 10 0
0 -15z m50 -22 l-1 -28 -10 18 -10 17 6 10 6 10 5 0 4 0 0 -27z m910 -27 l0
-5 -10 -6 -10 -6 0 10 0 11 10 0 10 0 0 -4z m-990 -98 l0 -8 -10 0 -10 0 0 23
0 22 10 -15 10 -15 0 -7z m1070 -8 l0 -30 -10 0 -10 0 0 23 0 24 7 6 6 7 4 0
3 0 0 -30z m-1060 -55 l0 -15 -10 0 -10 0 0 15 0 15 10 0 10 0 0 -15z m1033
-35 l5 -20 -8 0 -9 0 -4 -22 -4 -23 -2 43 -1 42 9 0 9 0 5 -20z m-976 -84 l0
-14 -14 5 -13 5 0 9 0 9 13 0 14 0 0 -14z"/>
<path d="M1742 1285 l0 -30 5 18 5 17 -5 13 -5 12 0 -30z"/>
<path d="M2275 3350 l-50 -5 -3 -50 -3 -50 -11 -55 -11 -55 -1 -132 -1 -133
-7 0 -6 0 -4 -60 -3 -60 15 -1 15 0 122 -2 123 -2 0 71 0 71 -36 -4 -37 -4
-18 17 -19 17 0 -11 0 -12 -10 0 -10 0 0 21 0 20 9 -6 10 -5 1 183 0 183 9 31
9 31 -16 4 -17 3 -50 -5z m-7 -65 l-6 -6 -6 18 -7 18 12 -12 13 -13 -6 -5z
m34 -49 l5 -24 -13 5 -12 4 -5 19 -5 19 5 5 6 5 7 -4 8 -5 4 -24z m28 -132 l0
-75 -10 6 -10 6 0 70 0 69 10 0 10 0 0 -76z m-107 46 l5 -20 -9 -6 -9 -5 0 25
0 26 4 0 4 0 5 -20z m77 -15 l0 -15 -10 0 -10 0 0 15 0 15 10 0 10 0 0 -15z
m-50 -179 l0 -35 -11 -6 -10 -7 -4 4 -4 4 6 37 6 37 8 0 9 0 0 -34z m50 -86
l0 -10 -10 0 -10 0 0 10 0 10 10 0 10 0 0 -10z m-43 -15 l-6 -14 9 -6 10 -6 0
-17 0 -17 -10 15 -10 15 0 -14 0 -14 -7 7 -7 7 -2 29 -2 30 15 0 15 0 -5 -15z
m154 -2 l14 -16 -25 13 -25 13 -4 3 -4 4 15 0 16 0 13 -17z m-57 -9 l6 -15
-10 6 -10 6 0 10 0 9 4 0 4 0 6 -16z m21 -35 l7 -10 -5 -5 -4 -4 -17 6 -16 6
0 9 0 9 14 0 15 0 6 -11z m55 -9 l0 -10 -14 0 -15 0 -6 10 -6 10 20 0 21 0 0
-10z m-180 -20 l0 -10 -4 0 -5 0 -6 10 -6 10 10 0 11 0 0 -10z"/>
<path d="M2121 2502 l-24 -4 10 -6 10 -7 8 -32 7 -33 -10 0 -9 0 9 -47 9 -48
-3 -35 -2 -35 -7 -5 -7 -5 9 -53 10 -52 -11 -78 -11 -77 -5 -105 -5 -105 -4
-12 -4 -13 12 0 12 0 -11 -8 -10 -7 4 -43 4 -43 25 -10 26 -9 126 -15 126 -15
15 0 15 0 -15 10 -15 10 26 0 26 0 -4 42 -4 43 -12 7 -12 8 13 0 12 0 0 20 0
20 -27 1 -28 1 -20 4 -20 4 -15 0 -15 0 -54 -6 -54 -6 6 198 7 197 0 97 0 97
38 6 37 6 38 -6 37 -6 0 -38 0 -39 10 0 10 0 0 -11 0 -10 -9 5 -8 5 10 -44 10
-44 7 4 7 4 -8 -47 -7 -47 5 -7 4 -8 -10 0 -10 0 -4 53 -3 52 -2 -130 -2 -130
34 -2 35 -3 1 215 1 215 -11 0 -10 0 0 15 0 15 10 0 10 0 -2 40 -1 40 -26 1
-26 1 -29 4 -29 5 -8 -13 -9 -13 0 18 0 17 -23 0 -22 0 -65 18 -65 17 -24 -3z
m69 -63 l0 -11 13 5 14 5 -5 -24 -4 -24 -9 0 -9 0 0 20 0 20 -10 0 -10 0 0 10
0 10 10 0 10 0 0 -11z m-30 -29 l0 -20 -10 0 -10 0 0 20 0 20 10 0 10 0 0 -20z
m90 0 l0 -10 -10 0 -10 0 0 10 0 10 10 0 10 0 0 -10z m119 -9 l13 -8 -8 -5 -9
-5 -25 13 -25 14 20 0 20 0 14 -9z m-109 -31 l0 -10 -21 0 -20 0 6 10 6 10 15
0 14 0 0 -10z m100 0 l0 -10 -10 0 -10 0 0 10 0 10 10 0 10 0 0 -10z m-153
-22 l-5 -13 -1 19 -1 19 6 -6 6 -6 -5 -13z m210 0 l-6 -22 9 -11 9 -11 -8 -30
-9 -29 -2 35 -1 35 -9 -20 -9 -20 0 48 -1 47 16 0 16 0 -5 -22z m-197 -73 l0
-25 -10 0 -10 0 0 25 0 25 10 0 10 0 0 -25z m-40 -10 l0 -14 -10 -6 -10 -6 0
26 0 26 10 -6 10 -6 0 -14z m217 -227 l-5 -13 -1 19 -1 19 6 -6 6 -6 -5 -13z
m33 -27 l0 -10 -10 -6 -10 -6 0 15 0 16 10 0 10 0 0 -9z m1 -54 l-11 -11 0 15
0 16 7 7 8 7 3 -11 4 -12 -11 -11z m-241 -157 l0 -30 -9 0 -9 0 -4 25 -5 25 5
5 5 5 9 0 8 0 0 -30z m56 -65 l19 -15 -29 2 -29 3 -5 13 -4 12 14 0 14 0 20
-15z m154 5 l25 -8 -43 -1 -43 -1 6 10 6 10 12 -1 12 -1 25 -8z m-50 -30 l0
-10 -9 0 -10 0 -6 10 -6 10 15 0 16 0 0 -10z m-120 -10 l0 -10 -10 0 -10 0 0
10 0 10 10 0 10 0 0 -10z m-54 -21 l19 -21 -28 13 -27 12 0 9 0 8 8 0 9 0 19
-21z m104 11 l0 -10 -14 0 -15 0 -6 10 -6 10 20 0 21 0 0 -10z m49 -29 l14 -9
-22 -7 -21 -6 -10 6 -10 6 0 10 0 9 18 0 17 0 14 -9z m-74 -21 l6 -10 -15 0
-16 0 0 10 0 10 9 0 10 0 6 -10z"/>
<path d="M4 2050 l0 -105 3 53 4 52 -4 53 -3 52 0 -105z"/>
<path d="M163 1980 l0 -45 4 23 4 22 -4 23 -4 22 0 -45z"/>
<path d="M4 1465 l0 -140 3 73 4 73 -4 67 -3 67 0 -140z"/>
<path d="M2161 1306 l-10 -61 -10 -70 -10 -70 -7 -125 -8 -125 0 -50 -1 -50
39 -13 39 -12 101 -10 101 -10 33 -5 32 -4 0 40 0 39 -34 0 -35 0 -6 10 -6 10
-43 0 -43 0 -47 6 -46 7 0 44 0 44 15 142 15 142 4 42 3 42 -10 10 -11 11 18
0 17 0 -6 -10 -6 -10 45 0 45 0 12 -22 12 -22 -5 -148 -5 -149 19 -10 19 -10
31 3 32 3 8 33 9 34 -3 161 -3 162 -29 14 -29 14 -113 16 -112 17 -11 -60z
m189 4 l0 -10 -14 0 -15 0 -6 10 -6 10 20 0 21 0 0 -10z m65 -10 l6 -10 -15 0
-16 0 0 10 0 10 9 0 10 0 6 -10z m-45 -50 l0 -10 -10 0 -10 0 0 10 0 10 10 0
10 0 0 -10z m-170 -60 l0 -30 -8 0 -9 0 5 30 4 30 4 0 4 0 0 -30z m-37 -375
l-5 -16 -5 5 -5 5 7 10 6 11 4 0 4 0 -6 -15z m32 -25 l6 -10 -15 0 -16 0 0 10
0 10 9 0 10 0 6 -10z m60 -10 l6 -10 -25 0 -26 0 0 10 0 10 19 0 20 0 6 -10z
m115 -19 l0 -9 -15 2 -14 2 -7 7 -7 7 21 0 22 0 0 -9z m-3 -37 l-6 -6 -13 5
-13 5 19 1 19 1 -6 -6z"/>
<path d="M2438 1353 l13 -5 6 6 6 6 -19 -1 -19 -1 13 -5z"/>
<path d="M2155 460 l-17 -19 6 -16 6 -16 -9 6 -9 5 -7 -40 -7 -41 14 -16 13
-17 -11 7 -11 6 -7 -61 -6 -61 0 -98 0 -99 9 0 10 0 3 42 3 41 14 5 14 5 -5
-47 -6 -46 10 0 9 0 -7 12 -7 11 14 -9 14 -8 18 -3 18 -3 -6 21 -7 22 11 -7
11 -7 0 -13 0 -13 41 -1 41 -2 -2 133 -2 132 1 18 1 17 56 0 55 0 10 -30 11
-30 9 0 9 0 0 8 -1 7 -14 19 -15 20 0 18 0 18 15 0 15 0 0 54 0 54 -20 5 -20
5 0 -8 0 -8 13 -5 12 -5 -17 -1 -18 -1 0 13 0 14 -67 2 -68 2 -6 11 -6 10 -7
-11 -7 -11 -25 0 -25 0 -5 15 -6 15 -8 0 -7 0 -18 -20z m215 -30 l0 -10 -22 1
-23 0 -20 9 -20 9 43 0 42 1 0 -10z m-85 -30 l6 -10 -10 0 -11 0 0 10 0 10 4
0 5 0 6 -10z m-41 -60 l-18 -50 -9 0 -9 0 8 32 7 33 15 23 15 23 5 -5 4 -5
-18 -51z m96 50 l-15 -10 -7 0 -8 0 0 10 0 10 23 0 22 0 -15 -10z m87 3 l-7
-6 16 -18 15 -17 -18 -5 -18 -4 -48 -2 -48 -1 6 11 7 10 16 -2 17 -1 13 1 12
1 0 14 0 15 18 4 17 5 4 1 4 1 -6 -7z m-277 -28 l0 -25 -10 0 -10 0 0 18 0 19
7 6 6 7 4 0 3 0 0 -25z m44 -52 l-17 -38 -4 15 -4 16 17 39 18 40 3 -17 4 -16
-17 -39z m106 47 l0 -21 -15 -6 -16 -5 -5 5 -6 5 7 21 6 21 15 0 14 0 0 -20z
m45 -40 l-6 -10 -10 0 -9 0 0 10 0 10 16 0 15 0 -6 -10z m-204 -100 l-10 -25
0 32 -1 31 8 19 7 18 3 -25 3 -26 -10 -24z m146 48 l-5 -13 -1 19 -1 19 6 -6
6 -6 -5 -13z m-17 -17 l0 -10 -10 -6 -10 -6 0 15 0 16 10 0 10 0 0 -9z m-40
-27 l0 -15 -11 -20 -10 -20 -9 6 -9 6 4 14 5 15 5 15 4 15 11 0 10 0 0 -16z
m-20 -73 l0 -10 -10 -6 -10 -6 0 15 0 16 10 0 10 0 0 -9z m90 -74 l0 -62 -9
14 -9 13 -5 -13 -5 -14 -1 23 -1 23 10 -6 10 -6 0 30 0 29 -11 4 -10 3 6 18 7
17 9 -6 9 -5 0 -62z"/>
<path d="M1147 393 l-4 -4 -59 -3 -59 -3 0 -129 0 -129 -6 -5 -6 -5 -5 -57 -5
-58 37 0 38 0 6 31 6 31 0 39 0 38 11 101 12 100 20 -6 19 -6 62 2 61 2 80 -3
80 -3 56 -1 57 0 1 -98 2 -98 5 -13 5 -13 -14 -15 -15 -14 -79 -18 -80 -19
-20 11 -20 11 -5 111 -4 110 -5 5 -5 5 -70 2 -70 2 -12 -8 -12 -7 -1 13 -1 13
-8 -30 -8 -30 -1 -87 -1 -88 13 -1 12 -1 10 2 10 1 -23 -21 -23 -22 4 -11 4
-12 107 -3 108 -3 -7 11 -6 10 16 0 16 0 -5 -9 -6 -9 150 0 150 -1 6 25 7 26
-6 122 -7 121 0 36 0 37 -29 5 -28 6 -179 6 -179 6 -47 3 -48 3 -3 -4z m93
-17 l0 -5 -9 -6 -10 -5 -6 10 -6 10 15 0 16 0 0 -4z m370 -21 l13 -15 -17 6
-16 6 0 9 0 9 4 0 4 0 12 -15z m-13 -127 l-5 -13 0 25 0 25 5 -12 5 -13 -5
-12z m-510 -20 l-5 -13 0 25 0 25 5 -12 5 -13 -5 -12z m543 1 l0 -9 -10 0 -10
0 0 16 0 15 10 -6 10 -6 0 -10z m-48 -18 l4 -30 -7 5 -8 4 -4 -22 -4 -23 -2
48 -1 47 9 0 9 0 4 -29z m-297 -41 l-6 -10 -10 0 -9 0 0 10 0 10 16 0 15 0 -6
-10z m-130 -30 l6 -10 -10 0 -11 0 0 10 0 10 4 0 5 0 6 -10z m115 -72 l0 -22
-11 11 -11 11 6 11 7 11 5 0 4 0 0 -22z"/>
<path d="M73 240 l0 -75 4 38 4 37 -4 38 -4 37 0 -75z"/>
<path d="M383 253 l-223 -3 0 -3 0 -4 -20 -109 -20 -109 0 -12 0 -13 48 0 49
0 2 73 2 72 5 22 6 21 16 4 17 4 148 3 149 3 19 -21 19 -20 0 -16 0 -15 -9 0
-10 0 -3 -32 -3 -32 -85 0 -85 -1 -3 43 -3 42 -30 0 -30 0 5 -9 6 -9 -20 5
-20 5 0 -71 0 -71 100 0 101 0 25 16 25 17 -3 -14 -3 -14 56 -3 56 -3 6 53 7
53 0 78 0 77 -37 -2 -38 -3 -222 -2z m-156 -19 l-6 -6 -13 5 -13 5 19 1 19 1
-6 -6z m270 0 l-6 -6 -13 5 -13 5 19 1 19 1 -6 -6z m-132 -14 l-6 -10 -12 0
-12 0 15 10 15 10 3 0 3 0 -6 -10z m-170 -10 l-6 -10 -12 0 -12 0 15 10 15 10
3 0 3 0 -6 -10z m292 -170 l-1 -20 -6 0 -5 0 -13 20 -12 20 19 0 20 0 -2 -20z
m173 5 l0 -15 -4 0 -4 0 -6 15 -5 15 9 0 10 0 0 -15z m-285 -4 l5 -10 -10 -6
-10 -6 0 15 0 16 4 0 5 0 6 -9z m45 -13 l0 -10 -12 4 -12 4 -4 12 -4 12 16 -6
16 -6 0 -10z m37 -14 l-6 -6 -13 5 -13 5 19 1 19 1 -6 -6z"/>
<path d="M2436 216 l5 -14 8 -103 8 -104 2 86 1 87 -6 31 -6 31 -9 0 -8 0 5
-14z"/>
<path d="M31 54 l1 -19 5 13 5 13 -6 6 -6 6 1 -19z"/>
<path d="M21 14 l1 -19 5 13 5 13 -6 6 -6 6 1 -19z"/>
</g>
</svg>
