<?xml version="1.0" standalone="no"?>
<!DOCTYPE svg PUBLIC "-//W3C//DTD SVG 20010904//EN"
 "http://www.w3.org/TR/2001/REC-SVG-20010904/DTD/svg10.dtd">
<svg version="1.0" xmlns="http://www.w3.org/2000/svg"
 width="78.000000pt" height="142.000000pt" viewBox="0 0 78.000000 142.000000"
 preserveAspectRatio="xMidYMid meet">
<metadata>
Created by potrace 1.16, written by Peter Selinger 2001-2019
</metadata>
<g transform="translate(0.000000,142.000000) scale(0.100000,-0.100000)"
fill="#000000" stroke="none">
<path d="M32 1413 l-32 -4 0 -15 0 -14 13 -1 12 -1 80 -2 80 -1 38 -17 38 -17
19 -43 18 -43 13 -75 12 -75 -16 -88 -16 -87 -15 -27 -15 -28 -1 87 0 87 -11
25 -12 25 17 25 16 25 0 13 0 13 -22 52 -23 53 -12 0 -13 0 0 8 0 8 -45 23
-44 22 -20 -11 -21 -10 -10 -20 -10 -19 0 -28 1 -28 12 -48 13 -48 20 -19 20
-20 39 -3 40 -2 12 -20 12 -20 1 -82 0 -83 -17 -18 -18 -17 -17 -27 -18 -27
-6 -40 -6 -40 21 -27 21 -27 0 -11 0 -11 35 -49 34 -48 12 -37 12 -36 28 -55
28 -55 58 -33 58 -34 42 7 43 6 10 -26 10 -26 0 -29 0 -29 -32 -22 -33 -23
-52 -45 -53 -45 0 -8 0 -8 24 0 23 0 37 35 37 35 44 26 44 26 6 32 6 32 -16
44 -17 45 -4 20 -5 20 14 19 13 18 58 -13 58 -13 13 -20 13 -21 -8 -52 -9 -52
-12 -23 -12 -23 -30 -39 -31 -39 -32 -13 -32 -14 -48 -10 -48 -11 -8 -12 -7
-11 5 -8 5 -8 22 0 22 0 60 21 60 20 43 42 43 42 24 41 24 41 7 64 6 65 -26
30 -25 31 -73 12 -73 12 -45 92 -45 91 -30 35 -30 34 -20 33 -20 33 -49 51
-49 51 18 37 18 37 9 35 9 35 9 63 8 63 -12 82 -12 82 -22 42 -22 43 -28 14
-27 14 -53 11 -53 11 -32 -2 -32 -1 -33 -4z"/>
<path d="M386 1388 l30 -33 12 -28 12 -28 0 -32 -1 -32 -14 -55 -13 -55 -36
-120 -36 -120 4 -12 5 -13 15 0 16 0 5 28 6 27 11 40 10 40 25 75 25 75 12 77
13 76 -20 44 -19 43 -16 18 -15 17 -31 0 -30 0 30 -32z"/>
<path d="M544 1398 l6 -23 0 -23 0 -24 29 -28 28 -29 62 -101 62 -100 16 -38
16 -37 7 -35 8 -35 1 205 0 205 -40 43 -40 42 -81 0 -80 0 6 -22z"/>
<path d="M772 500 l0 -25 5 13 5 12 -5 13 -5 12 0 -25z"/>
</g>
</svg>
