<?xml version="1.0" standalone="no"?>
<!DOCTYPE svg PUBLIC "-//W3C//DTD SVG 20010904//EN"
 "http://www.w3.org/TR/2001/REC-SVG-20010904/DTD/svg10.dtd">
<svg version="1.0" xmlns="http://www.w3.org/2000/svg"
 width="300.000000pt" height="423.000000pt" viewBox="0 0 300.000000 423.000000"
 preserveAspectRatio="xMidYMid meet">
<metadata>
Created by potrace 1.16, written by Peter Selinger 2001-2019
</metadata>
<g transform="translate(0.000000,423.000000) scale(0.100000,-0.100000)"
fill="#000000" stroke="none">
<path d="M1025 4215 l-80 -12 -6 3 -5 3 -55 -33 -54 -32 -46 -67 -46 -67 -32
-95 -32 -96 -4 -43 -4 -43 -2 -119 -2 -119 -12 -80 -12 -80 10 -16 10 -16 -10
-29 -9 -29 18 -18 18 -17 4 12 4 13 5 44 5 43 12 12 12 11 -7 -60 -7 -60 -10
-18 -10 -19 5 -5 5 -4 21 13 21 13 -1 15 -1 15 1 13 1 12 11 0 12 0 -6 -42 -6
-43 -6 -22 -7 -21 19 -4 18 -4 23 4 22 4 1 27 0 26 8 -19 8 -20 6 18 7 17 10
-6 10 -6 -6 -27 -6 -27 11 15 11 15 8 -11 7 -11 21 -11 21 -11 7 6 6 6 0 24 0
24 10 -6 10 -6 0 -29 0 -30 -112 -54 -113 -55 -85 -21 -85 -21 -65 -26 -65
-26 -27 -18 -26 -19 -13 0 -12 0 6 -6 6 -7 -18 -26 -18 -26 -31 -60 -30 -60
-16 -47 -16 -48 -4 -77 -4 -78 -11 -91 -11 -92 -39 -168 -39 -169 -17 -85 -18
-85 -8 -10 -7 -10 -12 -65 -12 -65 -19 -84 -20 -84 11 -211 11 -211 24 -160
24 -160 2 -70 2 -70 -13 -30 -12 -30 -30 -125 -30 -125 -3 -102 -4 -101 16 -6
16 -6 5 5 5 5 -12 0 -13 0 6 16 6 15 -10 -6 -10 -6 5 73 6 73 9 35 10 35 20
104 20 104 11 13 11 13 -4 13 -5 13 12 30 11 30 -3 25 -3 25 -10 80 -10 80 -1
45 0 45 -15 63 -15 64 5 14 5 14 -9 51 -10 51 -1 146 -2 147 13 65 12 65 14
33 14 34 11 66 11 67 32 130 33 130 12 70 13 70 9 45 9 45 10 110 10 110 10
60 11 60 25 65 26 65 11 25 12 25 27 46 28 46 67 25 68 26 61 21 61 21 16 0
16 0 36 17 35 17 0 8 0 9 10 -6 10 -6 35 11 35 12 0 6 0 7 65 30 65 30 0 31 0
30 -16 48 -16 47 6 7 7 6 44 -49 45 -50 0 -9 0 -9 33 6 32 5 55 -18 55 -18
-17 -1 -18 -1 0 -10 0 -10 -32 -1 -33 -1 30 -13 30 -14 16 -1 16 0 47 36 46
35 20 -6 19 -6 27 40 27 41 8 0 9 0 0 -19 0 -19 17 -13 16 -14 -7 28 -6 27 10
0 10 0 2 -12 1 -13 2 -28 2 -27 4 -3 4 -2 30 -17 30 -16 30 -15 30 -16 75 -11
75 -12 110 -26 110 -25 43 -19 42 -19 0 -9 0 -10 11 0 10 0 -6 10 -6 10 8 0 8
0 50 -29 50 -29 81 -78 80 -79 41 -60 40 -60 23 -45 22 -45 12 -15 13 -15 18
-50 18 -49 116 -116 116 -116 46 -49 46 -50 21 -32 22 -31 35 -62 35 -62 0
-14 0 -14 10 0 10 0 0 14 0 14 13 5 12 5 -16 1 -17 1 -20 48 -21 47 -58 76
-58 76 -50 58 -50 58 -40 36 -40 36 -50 51 -50 51 -48 95 -48 96 -49 73 -49
74 -58 61 -58 61 -35 25 -35 25 -95 35 -95 35 -65 17 -65 17 -20 4 -20 4 -90
16 -90 16 -52 24 -51 23 -17 25 -16 26 -4 36 -3 36 14 -12 14 -12 7 7 7 7 -13
20 -12 21 5 6 6 5 20 -18 20 -18 35 6 35 6 6 -10 5 -9 10 5 9 6 -7 42 -6 42
-19 30 -18 30 0 -11 0 -10 15 -20 14 -19 0 -30 -1 -30 -23 70 -23 70 6 5 5 5
4 -12 5 -13 9 0 10 0 -23 40 -23 40 12 8 12 7 -13 45 -14 45 -41 168 -40 168
-41 90 -40 89 0 14 0 13 -40 27 -40 26 -13 0 -14 0 -26 20 -26 21 -48 14 -48
15 -20 -1 -20 -1 -80 -13z m35 -29 l0 -14 -20 5 -20 5 0 9 0 9 20 0 20 0 0
-14z m-50 -22 l0 -14 9 0 9 0 11 -31 11 -32 0 -33 0 -34 -15 0 -15 0 0 43 0
43 -20 39 -20 39 0 3 0 2 15 -5 15 -6 0 -14z m160 -12 l40 -39 0 -17 0 -17
-30 23 -30 22 0 13 0 13 -10 0 -10 0 0 -12 0 -13 -10 15 -10 15 0 18 0 17 10
0 9 0 41 -38z m-174 -46 l7 -46 -10 0 -10 0 -6 43 -5 42 -8 20 -8 20 17 -17
17 -17 6 -45z m308 11 l10 -16 -7 -7 -7 -8 -15 20 -14 19 -1 8 0 9 12 -4 12
-4 10 -17z m66 -22 l12 -14 -4 -12 -4 -12 -17 27 -17 26 9 0 9 0 12 -15z
m-407 -83 l-6 -62 -8 0 -9 0 0 15 0 15 -10 0 -10 0 0 54 0 55 18 3 17 4 7 -11
7 -11 -6 -62z m387 33 l12 -35 9 5 9 6 0 -10 0 -11 -10 0 -10 0 -20 20 -20 20
0 26 0 25 9 -6 10 -5 11 -35z m-283 3 l-5 -13 0 25 0 25 5 -12 5 -13 -5 -12z
m-157 -13 l0 -25 -4 0 -4 0 -4 25 -5 25 8 0 9 0 0 -25z m345 5 l6 -10 -10 0
-11 0 0 10 0 10 4 0 5 0 6 -10z m-385 -40 l0 -40 -9 0 -9 0 -4 34 -4 35 8 -5
8 -5 0 10 0 11 5 0 5 0 0 -40z m-54 -17 l-6 -47 -10 -10 -10 -10 0 26 0 26 6
31 7 31 10 0 10 0 -7 -47z m-39 -65 l-1 -51 -4 14 -5 14 -10 7 -10 6 13 31 12
31 3 0 3 0 -1 -52z m666 10 l15 -33 10 -35 11 -35 -2 -15 -1 -15 18 -58 18
-58 -6 -7 -6 -6 -9 10 -8 9 -12 56 -12 56 2 9 2 9 -7 20 -7 20 -20 43 -19 43
0 9 0 10 9 0 9 0 15 -32z m-146 -57 l5 -19 29 -12 29 -12 0 -15 0 -15 -32 8
-33 8 -59 -2 -59 -1 -18 -17 -19 -17 0 -14 0 -13 9 0 10 0 15 15 15 15 6 0 6
0 -3 -17 -3 -18 32 -1 32 -1 13 8 12 8 -17 7 -17 6 6 9 6 10 21 -7 22 -7 29 2
28 1 34 -12 34 -12 0 -27 0 -27 -10 -4 -11 -3 11 -51 11 -51 -29 -89 -29 -89
-7 -32 -7 -32 -30 -25 -29 -25 0 -10 0 -11 -16 0 -17 0 -11 -14 -11 -14 -25
-7 -25 -8 14 17 13 16 12 0 12 0 34 35 34 35 -12 12 -12 12 0 20 0 20 16 43
17 43 13 0 14 0 0 30 0 31 17 27 18 27 5 5 6 5 6 16 6 16 -8 13 -8 13 -38 -57
-37 -57 -6 4 -6 3 -58 28 -58 28 -6 -6 -6 -6 4 -3 4 -3 53 -39 53 -40 -3 -20
-3 -20 -24 3 -23 2 6 -16 6 -16 -27 6 -28 7 -40 -1 -40 -1 -62 -29 -63 -30 0
-9 0 -9 45 -13 46 -14 -16 -11 -15 -11 0 -6 0 -5 15 -6 15 -5 32 13 33 13 12
-4 11 -4 7 10 6 11 22 0 22 -1 19 -14 20 -15 -5 -3 -4 -4 -43 -16 -42 -17 -25
0 -24 0 -6 -10 -6 -9 36 -15 35 -15 0 -7 0 -7 -46 7 -47 6 -32 20 -33 20 -18
-2 -19 -3 0 10 0 10 15 0 15 1 -3 14 -4 15 -12 15 -13 15 -19 50 -18 50 -13 8
-13 8 0 12 0 13 -38 40 -38 41 -22 12 -22 12 0 33 0 34 14 11 14 12 -5 37 -5
37 29 12 28 11 38 6 37 7 0 14 0 15 10 0 10 0 0 -15 0 -15 14 0 15 0 6 10 6
10 20 0 19 0 0 16 0 16 27 -7 28 -7 6 -10 7 -11 11 7 11 7 1 17 1 17 4 -12 5
-12 32 20 32 19 8 0 7 0 0 -15 0 -15 9 0 9 0 5 20 5 20 17 0 17 0 5 -19z
m-497 -20 l0 -10 -10 -6 -10 -6 0 15 0 16 10 0 10 0 0 -9z m-95 -170 l-7 -71
-10 6 -9 6 6 42 6 41 5 28 6 28 5 -5 5 -5 -7 -70z m17 -36 l-4 -25 -4 0 -4 0
0 25 0 25 9 0 8 0 -5 -25z m793 -17 l5 -23 10 -45 10 -45 0 -14 0 -15 -9 10
-8 9 -17 67 -16 67 0 6 0 5 10 0 10 0 5 -22z m-20 -98 l6 -10 -10 0 -11 0 0
10 0 10 4 0 5 0 6 -10z m-805 -27 l0 -28 -10 -15 -10 -15 2 43 1 42 9 0 8 0 0
-27z m157 -25 l10 -13 6 -17 6 -18 -9 0 -9 0 -21 30 -21 30 14 0 15 0 9 -12z
m73 -29 l0 -10 -10 6 -10 6 0 10 0 10 10 -6 10 -6 0 -10z m-245 -75 l-6 -44
-11 0 -10 0 6 38 7 37 6 20 6 20 5 -13 4 -13 -7 -45z m564 50 l4 -3 -25 -10
-25 -10 -70 -6 -70 -7 -7 10 -6 10 32 11 33 10 25 4 25 4 40 -5 40 -5 4 -3z
m-286 -46 l17 -42 -5 -4 -4 -4 -20 33 -21 34 0 13 0 12 8 0 9 0 16 -42z m487
-58 l0 -10 -11 0 -10 0 6 10 6 10 5 0 4 0 0 -10z m-400 -111 l0 -9 -7 0 -6 0
-19 17 -18 16 0 9 0 8 25 -16 25 -16 0 -9z"/>
<path d="M933 4040 l0 -45 4 23 4 22 -4 23 -4 22 0 -45z"/>
<path d="M1073 3787 l-43 -11 0 -7 0 -7 25 -16 26 -17 18 6 19 6 4 29 5 30 -6
-1 -6 -2 -42 -10z"/>
<path d="M945 3773 l-30 -4 -37 -16 -38 -16 0 -9 0 -8 22 0 21 0 18 16 18 16
12 -8 12 -7 -24 -9 -24 -9 15 -9 15 -10 27 0 26 0 16 6 16 6 0 13 0 14 -17 4
-18 5 25 1 25 2 -19 14 -20 15 -5 -1 -6 -2 -30 -4z"/>
<path d="M962 3563 l-11 -28 -6 -22 -6 -21 10 -6 10 -6 7 22 7 23 13 10 14 10
-6 23 -6 22 -8 0 -8 0 -10 -27z"/>
<path d="M1016 3564 l-6 -16 0 -20 0 -20 30 6 30 6 34 -19 34 -19 28 29 28 29
13 0 13 0 0 14 0 15 -52 -1 -53 -1 -7 -10 -6 -11 -15 12 -15 13 -6 -16 -5 -15
-16 0 -16 0 6 20 6 20 -9 0 -10 0 -6 -16z"/>
<path d="M1930 2708 l-105 -112 -100 -100 -100 -99 -88 -74 -88 -73 -10 0 -10
0 -79 -80 -78 -80 -20 27 -20 28 -48 38 -49 38 -55 40 -55 39 -24 18 -24 17
-11 10 -11 10 -75 66 -75 66 -69 57 -69 56 -6 0 -6 0 -90 85 -90 84 -16 1 -15
0 -21 -42 -20 -43 -23 -60 -24 -60 -9 -6 -9 -6 2 -7 3 -6 -12 -58 -11 -57 -14
-126 -15 -126 -39 -174 -40 -174 -17 -95 -18 -95 -22 -70 -22 -70 -19 -75 -19
-75 0 -96 0 -96 13 -24 13 -24 47 -30 46 -29 17 0 18 0 -2 -10 -2 -9 24 -6 24
-6 8 -20 7 -20 -15 -23 -15 -24 7 -16 6 -15 -11 -7 -11 -7 9 -24 9 -24 22 91
21 91 0 20 0 20 14 40 14 39 5 134 6 135 11 122 10 123 34 87 33 88 28 115 27
115 8 20 8 20 7 29 6 29 11 -11 12 -12 4 -127 3 -128 3 -155 3 -155 4 -250 5
-250 27 -66 27 -66 0 -34 0 -35 -14 -20 -15 -21 -15 -90 -16 -89 -10 -145 -10
-144 0 -97 0 -98 -10 0 -9 0 1 -53 1 -52 -6 -15 -7 -15 9 -14 9 -14 16 6 16 6
0 21 0 20 -12 0 -13 0 15 10 15 9 -2 68 -2 68 -2 90 -2 90 8 105 8 105 1 33 1
32 6 0 7 0 21 94 22 94 19 5 20 5 6 -9 5 -9 23 0 22 0 12 -12 13 -13 7 12 8
12 49 -15 50 -14 13 5 13 5 -6 -9 -5 -10 11 -6 11 -7 49 -13 49 -13 0 16 0 17
27 52 26 53 6 0 7 0 14 -47 15 -48 1 -15 2 -15 1 -17 1 -18 8 0 8 0 -3 27 -2
28 -15 105 -14 105 -6 75 -5 75 -11 145 -11 145 3 280 3 280 15 0 15 0 1 -320
2 -320 21 -215 21 -215 11 -59 10 -59 -5 -21 -5 -21 8 -13 8 -13 39 -5 39 -5
-19 15 -19 15 -8 3 -8 3 -15 105 -15 105 -11 120 -11 120 -5 40 -5 40 -4 330
-4 330 5 23 6 22 77 -1 76 -1 58 7 57 7 2 -108 2 -109 1 -40 2 -40 7 -430 8
-430 -7 -46 -7 -45 -19 -12 -18 -12 -45 -2 -45 -1 -13 -8 -13 -9 83 0 82 0 0
8 0 8 18 1 17 1 65 15 65 16 60 19 60 19 33 8 33 7 -5 14 -5 14 21 37 22 38
13 8 13 8 0 13 0 13 -50 47 -49 46 -11 0 -12 0 -19 -22 -18 -23 -1 -9 0 -10
-22 -45 -21 -46 -15 -17 -15 -18 -18 0 -17 0 -31 47 -31 46 1 61 0 61 22 -29
22 -29 15 -19 15 -19 15 6 15 5 18 61 18 62 26 58 26 59 8 0 8 0 -6 18 -7 17
24 -16 25 -16 68 -84 68 -84 5 -22 6 -23 15 0 15 0 -6 -22 -7 -23 -6 -51 -6
-51 -58 -19 -59 -19 0 -7 0 -8 4 0 3 0 43 15 42 15 9 -6 9 -5 0 11 0 11 9 -5
8 -5 17 -60 17 -60 8 -6 9 -5 -14 -53 -14 -54 -39 -84 -39 -85 -9 -34 -10 -35
23 -1 23 -2 40 62 40 61 25 30 25 30 9 -10 9 -10 -12 -100 -11 -100 13 -27 13
-27 0 -38 0 -38 11 -45 11 -45 3 -64 4 -63 6 -6 5 -6 11 11 11 11 -13 54 -13
53 2 23 2 24 -10 17 -9 18 9 89 8 89 17 83 17 82 9 0 9 0 0 -30 0 -30 17 -42
17 -43 15 -12 16 -12 5 -1 6 0 -4 71 -4 72 10 -7 11 -6 11 -34 11 -34 14 -5
13 -6 5 13 5 14 -10 43 -10 44 1 40 0 40 10 3 11 4 0 18 0 17 14 41 15 40 4
66 4 66 44 49 44 48 90 108 90 109 36 40 35 41 86 115 85 115 32 60 33 59 19
27 19 27 0 9 0 8 24 35 23 35 8 25 7 25 -25 -25 -24 -25 3 -6 3 -6 -23 -34
-23 -34 -24 -49 -24 -49 -27 -29 -26 -28 5 0 5 0 -26 -34 -26 -35 0 -10 0 -11
-8 0 -8 0 -32 -45 -32 -46 0 -9 0 -10 -21 -12 -20 -13 -21 -35 -21 -35 -59
-72 -58 -71 0 -5 0 -5 -97 -101 -98 -101 0 -88 0 -89 -29 -37 -28 -38 11 -51
12 -52 6 -30 6 -30 -16 13 -16 14 -17 46 -17 47 -15 15 -14 15 6 -50 7 -50 6
-44 6 -44 -14 5 -14 5 -12 34 -12 34 -1 40 0 40 -10 15 -9 15 -12 -12 -11 -11
-14 5 -14 5 0 -16 0 -16 -10 0 -10 0 0 11 0 10 -15 16 -16 15 -19 -17 -20 -18
0 -14 0 -14 -34 -50 -34 -51 -6 11 -7 10 7 28 7 28 13 15 13 15 10 28 11 28 5
27 5 27 21 57 21 56 51 64 52 63 38 56 38 56 39 43 40 43 0 5 0 4 30 45 30 44
0 12 0 12 50 85 50 85 20 66 20 66 0 12 0 11 28 0 27 0 50 -25 50 -24 26 -1
25 0 25 28 25 27 25 40 25 40 46 91 46 90 -3 38 -4 38 -14 16 -14 17 -25 45
-26 45 -149 150 -150 150 -33 50 -34 50 -70 95 -69 95 -105 103 -105 102 -16
0 -16 0 -105 -112z m190 -321 l25 -22 82 -92 82 -91 27 -44 27 -43 111 -113
111 -112 3 -10 3 -9 -35 -55 -35 -55 -19 -38 -19 -38 -38 -125 -37 -125 -33
-55 -32 -55 -34 -60 -33 -60 -11 -22 -11 -22 -33 -38 -32 -38 -83 -115 -82
-115 -23 -39 -24 -38 -25 81 -26 82 13 62 13 62 4 105 4 105 4 220 4 220 16
115 16 115 4 75 5 75 15 70 15 70 11 85 12 85 10 13 10 12 7 0 6 -1 25 -22z
m-126 -244 l-17 -13 -31 -4 -31 -5 -75 -10 -75 -9 -105 -17 -105 -17 -90 -19
-90 -18 -65 -6 -65 -5 -190 16 -190 16 -105 4 -105 4 -32 6 -33 5 0 20 0 20
48 -6 47 -5 130 -9 130 -9 115 -4 115 -3 100 0 100 1 65 7 65 8 65 9 65 9 133
26 134 25 9 5 9 6 42 7 43 8 4 -15 3 -15 -18 -13z m-128 -80 l-5 -18 -7 -67
-6 -68 -9 0 -8 0 -8 13 -8 12 -55 28 -55 29 -33 30 -34 29 4 3 3 3 70 10 70
10 43 1 43 2 -5 -17z m-1057 -50 l5 -3 -18 -18 -17 -17 -15 19 -14 20 0 8 0 8
28 -6 27 -7 4 -4z m652 -10 l2 -28 2 -110 2 -110 7 -450 7 -450 -8 -44 -8 -44
-14 -5 -14 -5 9 79 9 79 -1 185 -2 185 -6 373 -7 372 11 0 10 0 1 -27z m-839
-7 l17 -24 -18 -21 -18 -21 -7 0 -6 0 0 45 0 45 8 0 7 -1 17 -23z m408 15 l15
-1 1 -84 1 -85 -54 52 -53 51 0 9 0 9 20 28 20 28 18 -3 17 -3 15 -1z m558
-130 l82 -54 0 -9 0 -8 -10 0 -10 0 0 -22 0 -23 -20 -53 -20 -52 0 -18 0 -17
47 -38 47 -38 14 3 14 3 19 55 20 55 30 90 29 90 11 18 10 18 -6 9 -6 10 10 0
11 0 27 -29 28 -28 23 -12 23 -12 -7 -107 -7 -107 -3 -3 -2 -4 -36 38 -35 37
-11 -27 -10 -28 -29 -72 -29 -71 -26 -67 -26 -66 0 -11 0 -11 -9 0 -10 0 -96
144 -96 144 10 39 11 40 21 27 20 26 2 27 2 27 -20 10 -20 11 -33 23 -32 23 0
41 0 40 8 -4 7 -3 83 -54z m-788 18 l0 -10 9 5 9 6 34 -27 33 -28 13 -17 12
-17 13 -13 13 -13 11 -19 11 -19 -20 -46 -20 -46 -27 -35 -26 -35 3 -13 3 -14
27 -27 27 -26 17 -25 17 -25 16 20 16 20 17 37 17 37 8 1 7 0 0 -55 0 -55 -8
0 -8 0 -34 -65 -34 -65 -3 0 -3 0 -90 91 -90 91 0 4 0 3 45 77 45 76 0 2 0 3
-40 41 -39 42 -9 0 -9 0 -30 -47 -30 -48 -34 -58 -34 -57 -9 3 -10 3 -9 15
-10 16 19 44 19 43 47 91 46 90 28 28 27 27 9 0 8 0 0 -11z m-71 -533 l71 -98
0 -17 0 -16 -30 -59 -30 -59 0 -11 0 -12 55 -54 55 -54 10 10 9 9 25 75 25 75
19 55 20 55 13 -3 13 -3 38 -30 38 -31 1 -26 0 -27 8 -72 7 -73 -7 0 -7 0 -26
31 -26 31 0 10 0 10 -15 -12 -15 -12 0 -17 0 -16 -19 -32 -20 -32 -10 -38 -11
-39 -13 -18 -14 -19 -24 13 -24 13 -20 17 -20 17 -63 59 -64 59 -9 16 -9 17
25 73 25 74 11 22 11 21 -32 46 -33 46 -9 0 -9 0 -22 -47 -22 -48 -3 67 -3 67
14 23 15 23 6 29 7 29 9 -9 8 -9 71 -99z m1211 -1 l0 -105 -6 0 -5 0 -33 26
-33 27 31 78 31 79 8 0 7 0 0 -105z m-410 18 l15 -18 23 -33 24 -32 -38 -58
-39 -57 -6 30 -7 30 -1 78 -1 77 8 0 8 0 14 -17z m558 -875 l-9 -42 -5 -6 -6
-5 7 40 8 40 4 8 4 7 4 0 3 0 -10 -42z m-31 -45 l-5 -18 0 35 0 35 5 -17 4
-18 -4 -17z"/>
<path d="M1258 1153 l-15 -18 -6 -22 -5 -23 9 -6 9 -5 0 12 0 12 41 -6 40 -5
-5 15 -6 15 0 8 0 9 -16 15 -15 16 -8 0 -8 0 -15 -17z"/>
<path d="M263 780 l-10 -40 8 0 8 0 7 35 6 36 -4 4 -4 4 -11 -39z"/>
<path d="M231 668 l-12 -63 -6 -98 -6 -97 45 -58 46 -58 10 -39 11 -40 12 -71
12 -71 -7 -37 -7 -36 16 0 17 0 -6 27 -5 28 -6 99 -7 98 -14 32 -15 31 -39 50
-40 50 0 50 0 50 15 80 14 80 1 28 0 27 -9 0 -9 0 -11 -62z"/>
<path d="M202 175 l-12 -26 0 -52 0 -52 6 -22 6 -23 20 0 19 0 -11 19 -10 20
0 55 0 56 9 0 9 0 7 -32 7 -33 20 -42 20 -43 15 0 15 0 -6 16 -6 16 -6 24 -6
24 -13 0 -12 0 5 25 4 25 -13 0 -12 0 6 6 6 7 -15 28 -15 29 -13 0 -13 0 -11
-25z"/>
<path d="M60 75 l-9 -25 5 -15 6 -16 19 -9 18 -10 7 0 7 0 -23 25 -24 26 12
19 12 20 0 5 0 5 -10 0 -10 0 -10 -25z"/>
<path d="M108 94 l-8 -7 0 -22 0 -22 23 -21 23 -22 7 0 7 0 -18 20 -17 20 -5
31 -5 31 -7 -8z"/>
</g>
</svg>
